<?xml version="1.0" encoding="UTF-8"?>
<svg id="_レイヤー_2" data-name="レイヤー 2" xmlns="http://www.w3.org/2000/svg" viewBox="0 0 165.13 165.13">
  <defs>
    <style>
      .cls-1 {
        fill: #fff;
        stroke-width: 0px;
      }
    </style>
  </defs>
  <g id="_レイヤー_1-2" data-name="レイヤー 1">
    <path class="cls-1" d="m165.13,82.57c0-5.65-5.07-10.91-13.76-15.29-2.18-1.1-2.91-3.84-1.58-5.88,5.34-8.14,7.1-15.22,4.28-20.12-2.83-4.9-9.85-6.91-19.56-6.36-2.44.14-4.44-1.87-4.3-4.3.55-9.71-1.46-16.73-6.36-19.56s-11.98-1.06-20.12,4.28c-2.04,1.34-4.78.61-5.88-1.58-4.38-8.69-9.63-13.76-15.29-13.76s-10.91,5.07-15.29,13.76c-1.1,2.18-3.84,2.91-5.88,1.58-8.14-5.34-15.22-7.1-20.12-4.28-4.9,2.83-6.91,9.85-6.36,19.56.14,2.44-1.87,4.44-4.3,4.3-9.71-.55-16.73,1.46-19.56,6.36-2.83,4.9-1.06,11.98,4.28,20.12,1.34,2.04.61,4.78-1.58,5.88-8.69,4.38-13.76,9.63-13.76,15.29s5.07,10.91,13.76,15.29c2.18,1.1,2.91,3.84,1.58,5.88-5.34,8.14-7.1,15.22-4.28,20.12,2.83,4.9,9.85,6.91,19.56,6.36,2.44-.14,4.44,1.87,4.3,4.3-.55,9.71,1.46,16.73,6.36,19.56,4.9,2.83,11.98,1.06,20.12-4.28,2.04-1.34,4.78-.61,5.88,1.58,4.38,8.69,9.63,13.76,15.29,13.76s10.91-5.07,15.29-13.76c1.1-2.18,3.84-2.91,5.88-1.58,8.14,5.34,15.22,7.1,20.12,4.28s6.91-9.85,6.36-19.56c-.14-2.44,1.87-4.44,4.3-4.3,9.71.55,16.73-1.46,19.56-6.36,2.83-4.9,1.06-11.98-4.28-20.12-1.34-2.04-.61-4.78,1.58-5.88,8.69-4.38,13.76-9.63,13.76-15.29Zm-30.8,10.84c-2.04,1.09-2.74,3.7-1.52,5.66,3.52,5.66,4.61,10.58,2.62,14.02-1.99,3.45-6.79,4.96-13.45,4.74-2.31-.08-4.22,1.84-4.14,4.14.22,6.66-1.3,11.46-4.74,13.45-3.45,1.99-8.36.9-14.02-2.62-1.96-1.22-4.57-.52-5.66,1.52-3.14,5.88-6.85,9.28-10.84,9.28s-7.69-3.4-10.84-9.28c-1.09-2.04-3.7-2.74-5.66-1.52-5.66,3.52-10.58,4.61-14.02,2.62-3.45-1.99-4.96-6.79-4.74-13.45.08-2.31-1.84-4.22-4.14-4.14-6.66.22-11.46-1.3-13.45-4.74-1.99-3.45-.9-8.36,2.62-14.02,1.22-1.96.52-4.57-1.52-5.66-5.88-3.14-9.28-6.85-9.28-10.84s3.4-7.69,9.28-10.84c2.04-1.09,2.74-3.7,1.52-5.66-3.52-5.66-4.61-10.58-2.62-14.02,1.99-3.45,6.79-4.96,13.45-4.74,2.31.08,4.22-1.84,4.14-4.14-.22-6.66,1.3-11.46,4.74-13.45,3.45-1.99,8.36-.9,14.02,2.62,1.96,1.22,4.57.52,5.66-1.52,3.14-5.88,6.85-9.28,10.84-9.28s7.69,3.4,10.84,9.28c1.09,2.04,3.7,2.74,5.66,1.52,5.66-3.52,10.58-4.61,14.02-2.62,3.45,1.99,4.96,6.79,4.74,13.45-.08,2.31,1.84,4.22,4.14,4.14,6.66-.22,11.46,1.3,13.45,4.74,1.99,3.45.9,8.36-2.62,14.02-1.22,1.96-.52,4.57,1.52,5.66,5.88,3.14,9.28,6.85,9.28,10.84s-3.4,7.69-9.28,10.84Z"/>
    <path class="cls-1" d="m104.65,78.26l-29.24-16.88c-3.32-1.91-7.46.48-7.46,4.31v33.76c0,3.83,4.15,6.22,7.46,4.31l29.24-16.88c3.32-1.91,3.32-6.7,0-8.62Z"/>
  </g>
</svg>