<?xml version="1.0" encoding="UTF-8"?>
<svg id="_レイヤー_2" data-name="レイヤー 2" xmlns="http://www.w3.org/2000/svg" viewBox="0 0 1808.56 270">
  <defs>
    <style>
      .cls-1 {
        fill: #fff;
      }
    </style>
  </defs>
  <g id="_レイヤー_1-2" data-name="レイヤー 1">
    <path class="cls-1" d="M174.66,0c32.59,0,64.08,0,64.08,32.1,0,19.29-15.5,28.44-39.3,28.44-30.51,0-60.54-5.98-88.49-5.98-18.06,0-36.74,3.17-36.74,20.87,0,20.87,4.15,29.29,34.18,29.29,15.99,0,45.04-1.22,61.03-1.22,33.56,0,40.4,12.08,40.4,29.66,0,24.9-37.71,26.12-55.9,26.12-12.94,0-33.08-1.22-46.01-1.22-23.8,0-33.08,12.08-33.08,29.29,0,15.26,11.84,25.27,32.1,25.27,33.08,0,71.4-6.47,104.48-6.47,24.29,0,34.66,14.04,34.66,31.74,0,24.9-27.95,32.1-62,32.1-45.04,0-93.13-3.17-137.55-3.17S0,224.35,0,197.86c0-30.52,3.05-59.32,3.05-87.89,0-14.89-.49-33.32-.49-48.09C2.56,15.38,15.99,2.08,70.79,2.08c14.52,0,27.95.37,41.86.37,19.65,0,42.96-2.44,62-2.44Z"/>
    <path class="cls-1" d="M368.11,237.04c0,19.29-16.6,32.1-41.38,32.1-41.86,0-45.04-34.54-45.04-60.54s4.15-54.56,4.15-81.41c0-22.46-2.56-44.55-2.56-66.65,0-29.66,7.2-58.22,53.82-58.22,33.08,0,50.16,19.29,68.23,45.28,18.06,24.9,39.79,61.4,57.98,87.03,5.13,8.06,30.03,46.14,36.25,51.39.98-.37.98-2.81.98-3.17,0-18.8-12.45-92.28-12.45-141.23,0-22.09,4.64-41.38,38.81-41.38s45.52,18.43,45.52,42.97c0,20.87-4.64,41.75-4.64,62.62,0,31.25,3.05,62.13,3.05,101.56,0,29.66-4.15,61.76-53.82,61.76-38.32,0-60.05-26.85-79.09-55.41-22.7-36.5-42.35-65.79-69.33-100.7-.49-.85-4.15-7.2-7.2-7.2s-3.05,11.23-3.05,16.48c0,40.89,9.76,73.85,9.76,114.74Z"/>
    <path class="cls-1" d="M792.73,0c32.59,0,64.08,0,64.08,32.1,0,19.29-15.5,28.44-39.3,28.44-30.51,0-60.54-5.98-88.49-5.98-18.06,0-36.74,3.17-36.74,20.87,0,20.87,4.15,29.29,34.18,29.29,15.99,0,45.04-1.22,61.02-1.22,33.57,0,40.4,12.08,40.4,29.66,0,24.9-37.71,26.12-55.9,26.12-12.94,0-33.08-1.22-46.01-1.22-23.8,0-33.08,12.08-33.08,29.29,0,15.26,11.84,25.27,32.1,25.27,33.08,0,71.4-6.47,104.48-6.47,24.29,0,34.66,14.04,34.66,31.74,0,24.9-27.95,32.1-62,32.1-45.04,0-93.13-3.17-137.55-3.17s-46.5-42.48-46.5-68.96c0-30.52,3.05-59.32,3.05-87.89,0-14.89-.49-33.32-.49-48.09,0-46.51,13.42-59.81,68.23-59.81,14.53,0,27.95.37,41.86.37,19.65,0,42.96-2.44,62-2.44Z"/>
    <path class="cls-1" d="M986.18,237.04c0,19.29-16.6,32.1-41.38,32.1-41.86,0-45.04-34.54-45.04-60.54s4.15-54.56,4.15-81.41c0-22.46-2.56-44.55-2.56-66.65,0-29.66,7.2-58.22,53.82-58.22,33.08,0,50.16,19.29,68.23,45.28,18.06,24.9,39.79,61.4,57.97,87.03,5.13,8.06,30.02,46.14,36.25,51.39.98-.37.98-2.81.98-3.17,0-18.8-12.45-92.28-12.45-141.23,0-22.09,4.64-41.38,38.81-41.38s45.53,18.43,45.53,42.97c0,20.87-4.64,41.75-4.64,62.62,0,31.25,3.05,62.13,3.05,101.56,0,29.66-4.15,61.76-53.82,61.76-38.32,0-60.05-26.85-79.09-55.41-22.7-36.5-42.35-65.79-69.33-100.7-.49-.85-4.15-7.2-7.2-7.2s-3.05,11.23-3.05,16.48c0,40.89,9.76,73.85,9.76,114.74Z"/>
    <path class="cls-1" d="M1410.79,0c32.59,0,64.08,0,64.08,32.1,0,19.29-15.5,28.44-39.3,28.44-30.51,0-60.54-5.98-88.49-5.98-18.06,0-36.73,3.17-36.73,20.87,0,20.87,4.15,29.29,34.17,29.29,15.99,0,45.04-1.22,61.03-1.22,33.56,0,40.4,12.08,40.4,29.66,0,24.9-37.72,26.12-55.9,26.12-12.94,0-33.08-1.22-46.02-1.22-23.8,0-33.07,12.08-33.07,29.29,0,15.26,11.84,25.27,32.1,25.27,33.07,0,71.4-6.47,104.47-6.47,24.29,0,34.66,14.04,34.66,31.74,0,24.9-27.95,32.1-62,32.1-45.03,0-93.12-3.17-137.55-3.17s-46.5-42.48-46.5-68.96c0-30.52,3.05-59.32,3.05-87.89,0-14.89-.49-33.32-.49-48.09,0-46.51,13.43-59.81,68.23-59.81,14.52,0,27.95.37,41.86.37,19.65,0,42.96-2.44,62-2.44Z"/>
    <path class="cls-1" d="M1604.25,237.04c0,19.29-16.6,32.1-41.38,32.1-41.86,0-45.04-34.54-45.04-60.54s4.15-54.56,4.15-81.41c0-22.46-2.56-44.55-2.56-66.65,0-29.66,7.2-58.22,53.83-58.22,33.07,0,50.16,19.29,68.22,45.28,18.07,24.9,39.79,61.4,57.98,87.03,5.12,8.06,30.02,46.14,36.25,51.39.97-.37.97-2.81.97-3.17,0-18.8-12.45-92.28-12.45-141.23,0-22.09,4.64-41.38,38.82-41.38s45.52,18.43,45.52,42.97c0,20.87-4.64,41.75-4.64,62.62,0,31.25,3.05,62.13,3.05,101.56,0,29.66-4.14,61.76-53.82,61.76-38.32,0-60.05-26.85-79.09-55.41-22.7-36.5-42.35-65.79-69.33-100.7-.48-.85-4.14-7.2-7.2-7.2s-3.05,11.23-3.05,16.48c0,40.89,9.77,73.85,9.77,114.74Z"/>
  </g>
</svg>