<?xml version="1.0" encoding="UTF-8"?>
<svg id="_レイヤー_2" data-name="レイヤー_2" xmlns="http://www.w3.org/2000/svg" viewBox="0 0 132.91 241.08">
  <defs>
    <style>
      .cls-1 {
        fill: #fbfbfb;
      }

      .cls-2 {
        fill: #d1d1d1;
      }
    </style>
  </defs>
  <g id="_レイヤー_2-2" data-name="レイヤー_2">
    <g id="_グループ_6083" data-name="グループ_6083">
      <g>
        <path id="_パス_25929" data-name="パス_25929" class="cls-1" d="M70.51,207.7l-22.24.6,21.8.6-11.08,32.11,12.29-32.11,22.24-.6-21.8-.6,11.08-32.11-12.29,32.11Z"/>
        <path class="cls-2" d="M59.18,241.08l-.37-.13,10.99-31.86-21.53-.59v-.39l22.11-.6,12.25-31.99.37.13-10.99,31.86,21.54.59v.39l-22.11.6-12.25,31.99ZM55.48,208.3l14.87.41-7.32,21.23,8.13-21.23,15.17-.41-14.87-.41,7.32-21.21-8.12,21.22-15.17.41Z"/>
      </g>
      <g>
        <path id="_パス_25930" data-name="パス_25930" class="cls-1" d="M101.41.07l-35.45,92.59-21.09-30.48,18.77,32.21L0,96.12l62.39,1.72-42.23,32.21,43.28-30.48-31.95,92.59,35.45-92.59,21.09,30.48-18.78-32.21,63.64-1.72-62.38-1.73,42.23-32.21-43.28,30.48L101.41.07Z"/>
        <path class="cls-2" d="M31.68,192.24l-.37-.13,31.75-92.01-42.78,30.12-.23-.32,41.78-31.88-61.83-1.71v-.39l63.31-1.72-18.61-31.93.33-.21,20.88,30.17L101.23,0l.37.13-31.75,92.01,42.78-30.12.23.32-41.78,31.88,61.83,1.71v.39l-63.31,1.71,18.61,31.93-.33.21-20.88-30.17-35.32,92.24ZM63.83,99.07l-28.3,82.02,31.37-81.92,18.42,26.62-16.39-28.12,56.78-1.54-55.75-1.54,34.47-26.3-35.35,24.89L97.38,11.15l-31.37,81.92-18.43-26.62,16.39,28.13-56.78,1.54,55.75,1.54-34.47,26.3,35.35-24.89Z"/>
      </g>
    </g>
  </g>
</svg>