<?xml version="1.0" encoding="UTF-8"?>
<svg id="_レイヤー_2" data-name="レイヤー_2" xmlns="http://www.w3.org/2000/svg" viewBox="0 0 162.65 173.13">
  <defs>
    <style>
      .cls-1 {
        fill: #b29b64;
      }

      .cls-2 {
        fill: #318389;
      }
    </style>
  </defs>
  <g id="_レイヤー_2-2" data-name="レイヤー_2">
    <g id="_グループ_6081" data-name="グループ_6081">
      <path class="cls-1" d="M142.38,117.6l-10-10,10-10,10,10-10,10ZM132.82,107.6l9.56,9.56,9.56-9.56-9.56-9.56-9.56,9.56Z"/>
      <polygon class="cls-1" points="142.38 98.05 137.53 93.19 137.75 92.98 142.38 97.61 146.97 93.02 146.97 40.66 147.28 40.66 147.28 93.15 142.38 98.05"/>
      <rect class="cls-1" x="137.48" y="35.62" width=".31" height="57.46"/>
      <polygon class="cls-1" points="147.01 93.2 142.26 88.44 142.26 38.54 142.57 38.54 142.57 88.31 147.23 92.98 147.01 93.2"/>
      <g>
        <rect id="_長方形_76" data-name="長方形_76" class="cls-2" x="141.3" y="106.52" width="2.17" height="2.17" transform="translate(-34.39 132.19) rotate(-45)"/>
        <path class="cls-1" d="M142.38,109.35l-1.75-1.75,1.75-1.75,1.75,1.75-1.75,1.75ZM141.07,107.6l1.31,1.31,1.31-1.31-1.31-1.31-1.31,1.31Z"/>
      </g>
      <path class="cls-1" d="M162.5,43.63c-23.97,0-43.47-19.5-43.47-43.47h.31c0,23.8,19.36,43.16,43.16,43.16v.31Z"/>
      <path class="cls-1" d="M162.65,162.65h-.31V41.96c-22.92-.08-41.56-18.72-41.65-41.65H0V0h121v.15c0,22.88,18.61,41.49,41.49,41.49h.15v121.01Z"/>
      <path class="cls-1" d="M162.65,6.75h-6.75V0h6.75v6.75ZM156.21,6.44h6.13V.31h-6.13v6.13Z"/>
      <polygon class="cls-1" points="156.65 173.13 156.34 173.13 156.34 140.41 148.55 132.62 155.91 125.27 155.91 6.75 16.46 6.75 16.46 6.44 156.22 6.44 156.22 125.39 148.99 132.62 156.65 140.28 156.65 173.13"/>
      <g>
        <rect id="_長方形_78" data-name="長方形_78" class="cls-2" x="155.55" y="131.68" width="1.88" height="1.88" transform="translate(-47.94 149.5) rotate(-45)"/>
        <path class="cls-1" d="M156.49,134.17l-1.55-1.55,1.55-1.55,1.55,1.55-1.55,1.55ZM155.38,132.62l1.11,1.11,1.11-1.11-1.11-1.11-1.11,1.11Z"/>
      </g>
      <g>
        <rect id="_長方形_79" data-name="長方形_79" class="cls-2" x="158.5" y="2.6" width="1.55" height="1.55" transform="translate(44.27 113.61) rotate(-45)"/>
        <path class="cls-1" d="M159.28,4.69l-1.31-1.31,1.31-1.31,1.31,1.31-1.31,1.31ZM158.4,3.37l.88.88.88-.88-.88-.88-.88.88Z"/>
      </g>
    </g>
  </g>
</svg>