<svg width="78" height="14" viewBox="0 0 78 14" fill="none" xmlns="http://www.w3.org/2000/svg">
<path d="M65.0029 4.24357C64.9886 3.7998 65.1466 3.59178 65.4051 3.24508C65.7355 2.88452 65.951 2.75971 66.3675 2.77358C66.5543 2.81518 66.7841 2.93999 67.057 2.98159C67.3299 3.0648 67.3874 3.18961 67.6029 3.38376C67.7465 3.43923 67.9763 3.55018 68.1056 3.74433C68.3785 3.91074 68.436 3.91074 68.6083 4.13263C68.6945 4.29904 68.9244 4.40999 69.068 4.47932C69.2547 4.5764 69.3266 4.64574 69.5564 4.83989C69.7288 4.9231 69.8149 5.0063 70.0879 5.26979C70.3033 5.49168 70.6624 5.32526 70.6193 4.9647C70.6624 4.47932 70.4326 4.07716 70.4326 3.77206C70.3464 3.34216 70.3321 3.10641 70.2602 2.69037C70.2171 2.41301 70.1597 1.98311 70.0735 1.59481C70.0304 1.38679 70.0735 1.06783 70.2028 0.901413C70.3033 0.72113 70.4326 0.540847 70.5188 0.3883C70.6624 0.138679 71.2083 0.041604 71.4812 0C71.8978 0.041604 72.2569 0.208018 72.4723 0.346697C72.7022 0.610187 72.9607 0.915279 72.8889 1.26198C72.7596 1.69188 72.8027 2.13565 72.7165 2.53782C72.6303 2.98159 72.616 3.28669 72.5298 3.71659C72.4292 3.99395 72.4867 4.46546 72.3431 4.95083C72.2425 5.43621 72.616 5.50555 72.8745 5.25593C73.0038 5.13111 73.248 4.90923 73.406 4.85376C73.5497 4.67348 73.7651 4.59027 73.8513 4.49319C74.2535 4.21584 74.4259 4.00782 74.7275 3.7998C74.9861 3.59178 75.3308 3.27282 75.6037 3.13414C76.1065 2.85678 76.3363 2.85678 76.5661 2.81518C76.8534 2.80131 77.2413 3.0232 77.5573 3.25895C77.8733 3.46697 77.8446 3.86914 77.9595 4.25744C78.0169 4.46546 77.8158 4.70121 77.7871 4.86763C77.6147 5.13111 77.428 5.21432 77.2987 5.3114C77.0402 5.36687 76.8822 5.57489 76.6667 5.57489C76.4512 5.67196 76.3363 5.7413 76.0634 5.82451C75.6037 5.92158 75.3452 6.088 74.9286 6.25441C74.5121 6.46243 74.153 6.53177 73.7364 6.72592C73.406 6.85073 73.3342 7.19743 73.722 7.30837C74.2679 7.40545 74.4546 7.58573 74.8999 7.73828C75.2734 7.77988 75.6756 7.91856 75.9485 8.12658C76.3938 8.22365 76.7529 8.3762 77.0258 8.52875C77.3131 8.75063 77.6722 8.91705 77.7584 9.13893C77.8446 9.27761 77.9882 9.5827 77.9738 9.79072C78.0744 10.0681 77.8733 10.4564 77.5716 10.7615C77.2844 11.0111 76.9253 11.2746 76.6092 11.233C76.3794 11.2191 76.2358 11.1359 75.9198 11.0527C75.733 11.0111 75.5894 10.7753 75.3739 10.6505C75.2303 10.4841 75.1154 10.4841 74.8712 10.29C74.6844 10.1513 74.6126 10.0126 74.3684 9.90167C74.2822 9.72138 74.1099 9.69365 73.9088 9.5411C73.8082 9.44403 73.6502 9.27761 73.4204 9.1944C73.248 9.09733 73.1905 8.93091 72.8889 8.7645C72.616 8.55648 72.3 8.75063 72.3431 9.12506C72.3574 9.48563 72.4292 9.87393 72.5585 10.2345C72.6016 10.6783 72.774 10.9695 72.7453 11.3301C72.7309 11.6906 72.9607 11.9818 72.9176 12.4118C72.9607 12.7168 72.9176 12.8833 72.7883 13.119C72.6591 13.2854 72.6016 13.438 72.5011 13.6044C72.3287 13.854 71.8547 13.9927 71.5099 13.9927C71.1508 14.0343 70.7055 13.8956 70.5188 13.646C70.1884 13.4241 70.1597 13.0635 70.1022 12.7584C70.1884 12.2037 70.3177 11.9264 70.289 11.4549C70.3033 11.0666 70.4182 10.706 70.4613 10.2761C70.5188 9.83233 70.605 9.48563 70.6481 9.05572C70.7774 8.57035 70.3177 8.52875 70.1166 8.75063C69.8437 8.93091 69.7 9.09733 69.5851 9.1528C69.4846 9.23601 69.226 9.41629 69.1398 9.4995C68.8525 9.77685 68.5653 10.0542 68.2636 10.1929C67.9907 10.4564 67.7178 10.7476 67.3874 10.8863C66.8415 11.0943 66.741 11.2052 66.3963 11.2052C66.0515 11.2052 65.793 10.9972 65.4339 10.7615C65.2184 10.4425 65.0747 10.1097 65.0316 9.76299C64.9455 9.55497 65.046 9.33308 65.204 9.1528C65.2471 8.87544 65.4913 8.8061 65.6924 8.70903C65.8791 8.65356 66.0515 8.52875 66.3244 8.44554C66.4681 8.32073 66.6835 8.23752 66.9277 8.19592C67.373 7.9879 67.689 7.79375 68.0625 7.75214C68.436 7.50252 68.91 7.43318 69.2835 7.30837C69.7719 7.16969 69.6857 6.79526 69.2835 6.72592C68.7376 6.58724 68.4647 6.33762 68.1056 6.29602C67.8327 6.088 67.4592 6.01866 67.057 5.89385C66.7985 5.72743 66.2526 5.67196 65.9797 5.50555C65.6493 5.32527 65.3764 5.02017 65.2471 4.89536C65.0604 4.59027 65.0316 4.46546 65.0316 4.24357H65.0029Z" fill="white"/>
<path d="M32.0029 4.24357C31.9886 3.7998 32.1466 3.59178 32.4051 3.24508C32.7355 2.88452 32.951 2.75971 33.3675 2.77358C33.5543 2.81518 33.7841 2.93999 34.057 2.98159C34.3299 3.0648 34.3874 3.18961 34.6029 3.38376C34.7465 3.43923 34.9763 3.55018 35.1056 3.74433C35.3785 3.91074 35.436 3.91074 35.6083 4.13263C35.6945 4.29904 35.9244 4.40999 36.068 4.47932C36.2547 4.5764 36.3266 4.64574 36.5564 4.83989C36.7288 4.9231 36.8149 5.0063 37.0879 5.26979C37.3033 5.49168 37.6624 5.32526 37.6193 4.9647C37.6624 4.47932 37.4326 4.07716 37.4326 3.77206C37.3464 3.34216 37.3321 3.10641 37.2602 2.69037C37.2171 2.41301 37.1597 1.98311 37.0735 1.59481C37.0304 1.38679 37.0735 1.06783 37.2028 0.901413C37.3033 0.72113 37.4326 0.540847 37.5188 0.3883C37.6624 0.138679 38.2083 0.041604 38.4812 0C38.8978 0.041604 39.2569 0.208018 39.4723 0.346697C39.7022 0.610187 39.9607 0.915279 39.8889 1.26198C39.7596 1.69188 39.8027 2.13565 39.7165 2.53782C39.6303 2.98159 39.616 3.28669 39.5298 3.71659C39.4292 3.99395 39.4867 4.46546 39.3431 4.95083C39.2425 5.43621 39.616 5.50555 39.8745 5.25593C40.0038 5.13111 40.248 4.90923 40.406 4.85376C40.5497 4.67348 40.7651 4.59027 40.8513 4.49319C41.2535 4.21584 41.4259 4.00782 41.7275 3.7998C41.9861 3.59178 42.3308 3.27282 42.6037 3.13414C43.1065 2.85678 43.3363 2.85678 43.5661 2.81518C43.8534 2.80131 44.2413 3.0232 44.5573 3.25895C44.8733 3.46697 44.8446 3.86914 44.9595 4.25744C45.0169 4.46546 44.8158 4.70121 44.7871 4.86763C44.6147 5.13111 44.428 5.21432 44.2987 5.3114C44.0402 5.36687 43.8822 5.57489 43.6667 5.57489C43.4512 5.67196 43.3363 5.7413 43.0634 5.82451C42.6037 5.92158 42.3452 6.088 41.9286 6.25441C41.5121 6.46243 41.153 6.53177 40.7364 6.72592C40.406 6.85073 40.3342 7.19743 40.722 7.30837C41.2679 7.40545 41.4546 7.58573 41.8999 7.73828C42.2734 7.77988 42.6756 7.91856 42.9485 8.12658C43.3938 8.22365 43.7529 8.3762 44.0258 8.52875C44.3131 8.75063 44.6722 8.91705 44.7584 9.13893C44.8446 9.27761 44.9882 9.5827 44.9738 9.79072C45.0744 10.0681 44.8733 10.4564 44.5716 10.7615C44.2844 11.0111 43.9253 11.2746 43.6092 11.233C43.3794 11.2191 43.2358 11.1359 42.9198 11.0527C42.733 11.0111 42.5894 10.7753 42.3739 10.6505C42.2303 10.4841 42.1154 10.4841 41.8712 10.29C41.6844 10.1513 41.6126 10.0126 41.3684 9.90167C41.2822 9.72138 41.1099 9.69365 40.9088 9.5411C40.8082 9.44403 40.6502 9.27761 40.4204 9.1944C40.248 9.09733 40.1905 8.93091 39.8889 8.7645C39.616 8.55648 39.3 8.75063 39.3431 9.12506C39.3574 9.48563 39.4292 9.87393 39.5585 10.2345C39.6016 10.6783 39.774 10.9695 39.7453 11.3301C39.7309 11.6906 39.9607 11.9818 39.9176 12.4118C39.9607 12.7168 39.9176 12.8833 39.7883 13.119C39.6591 13.2854 39.6016 13.438 39.5011 13.6044C39.3287 13.854 38.8547 13.9927 38.5099 13.9927C38.1508 14.0343 37.7055 13.8956 37.5188 13.646C37.1884 13.4241 37.1597 13.0635 37.1022 12.7584C37.1884 12.2037 37.3177 11.9264 37.289 11.4549C37.3033 11.0666 37.4182 10.706 37.4613 10.2761C37.5188 9.83233 37.605 9.48563 37.6481 9.05572C37.7774 8.57035 37.3177 8.52875 37.1166 8.75063C36.8437 8.93091 36.7 9.09733 36.5851 9.1528C36.4846 9.23601 36.226 9.41629 36.1398 9.4995C35.8525 9.77685 35.5653 10.0542 35.2636 10.1929C34.9907 10.4564 34.7178 10.7476 34.3874 10.8863C33.8415 11.0943 33.741 11.2052 33.3963 11.2052C33.0515 11.2052 32.793 10.9972 32.4338 10.7615C32.2184 10.4425 32.0747 10.1097 32.0316 9.76299C31.9455 9.55497 32.046 9.33308 32.204 9.1528C32.2471 8.87544 32.4913 8.8061 32.6924 8.70903C32.8791 8.65356 33.0515 8.52875 33.3244 8.44554C33.4681 8.32073 33.6835 8.23752 33.9277 8.19592C34.373 7.9879 34.689 7.79375 35.0625 7.75214C35.436 7.50252 35.91 7.43318 36.2835 7.30837C36.7719 7.16969 36.6857 6.79526 36.2835 6.72592C35.7376 6.58724 35.4647 6.33762 35.1056 6.29602C34.8327 6.088 34.4592 6.01866 34.057 5.89385C33.7985 5.72743 33.2526 5.67196 32.9797 5.50555C32.6493 5.32527 32.3764 5.02017 32.2471 4.89536C32.0604 4.59027 32.0316 4.46546 32.0316 4.24357H32.0029Z" fill="white"/>
<path d="M0.00269604 4.24357C-0.0105629 3.7998 0.135287 3.59178 0.373955 3.24508C0.678919 2.88452 0.877811 2.75971 1.26233 2.77358C1.4347 2.81518 1.64685 2.93999 1.89878 2.98159C2.15071 3.0648 2.20374 3.18961 2.40263 3.38376C2.53523 3.43923 2.74737 3.55018 2.86671 3.74433C3.11863 3.91074 3.17167 3.91074 3.33078 4.13263C3.41034 4.29904 3.62249 4.40999 3.75508 4.47932C3.92745 4.5764 3.99375 4.64574 4.2059 4.83989C4.36501 4.9231 4.44457 5.0063 4.69649 5.26979C4.89538 5.49168 5.22687 5.32526 5.18709 4.9647C5.22687 4.47932 5.01471 4.07716 5.01471 3.77206C4.93516 3.34216 4.9219 3.10641 4.8556 2.69037C4.81583 2.41301 4.76279 1.98311 4.68323 1.59481C4.64345 1.38679 4.68323 1.06783 4.80257 0.901413C4.89538 0.72113 5.01472 0.540847 5.09427 0.3883C5.22687 0.138679 5.73072 0.041604 5.98264 0C6.36716 0.041604 6.69865 0.208018 6.89754 0.346697C7.10969 0.610187 7.34836 0.915279 7.28206 1.26198C7.16273 1.69188 7.2025 2.13565 7.12295 2.53782C7.04339 2.98159 7.03013 3.28669 6.95058 3.71659C6.85776 3.99395 6.9108 4.46546 6.77821 4.95083C6.68539 5.43621 7.03013 5.50555 7.2688 5.25593C7.38813 5.13111 7.61354 4.90923 7.75939 4.85376C7.89198 4.67348 8.09088 4.59027 8.17043 4.49319C8.54169 4.21584 8.70081 4.00782 8.97925 3.7998C9.21792 3.59178 9.53614 3.27282 9.78807 3.13414C10.2521 2.85678 10.4643 2.85678 10.6764 2.81518C10.9416 2.80131 11.2996 3.0232 11.5913 3.25895C11.883 3.46697 11.8565 3.86914 11.9626 4.25744C12.0156 4.46546 11.83 4.70121 11.8035 4.86763C11.6444 5.13111 11.472 5.21432 11.3527 5.3114C11.114 5.36687 10.9681 5.57489 10.7693 5.57489C10.5704 5.67196 10.4643 5.7413 10.2124 5.82451C9.78807 5.92158 9.5494 6.088 9.16488 6.25441C8.78036 6.46243 8.44888 6.53177 8.06436 6.72592C7.7594 6.85073 7.6931 7.19743 8.0511 7.30837C8.55495 7.40545 8.72732 7.58573 9.13836 7.73828C9.4831 7.77988 9.85436 7.91856 10.1063 8.12658C10.5173 8.22365 10.8488 8.3762 11.1007 8.52875C11.3659 8.75063 11.6974 8.91705 11.777 9.13893C11.8565 9.27761 11.9891 9.5827 11.9759 9.79072C12.0687 10.0681 11.883 10.4564 11.6046 10.7615C11.3394 11.0111 11.0079 11.2746 10.7162 11.233C10.5041 11.2191 10.3715 11.1359 10.0798 11.0527C9.9074 11.0111 9.77481 10.7753 9.57592 10.6505C9.44333 10.4841 9.33725 10.4841 9.11184 10.29C8.93947 10.1513 8.87318 10.0126 8.64777 9.90167C8.56821 9.72138 8.4091 9.69365 8.22347 9.5411C8.13066 9.44403 7.9848 9.27761 7.77265 9.1944C7.61354 9.09733 7.56051 8.93091 7.28206 8.7645C7.03013 8.55648 6.73843 8.75063 6.77821 9.12506C6.79147 9.48563 6.85776 9.87393 6.97709 10.2345C7.01687 10.6783 7.17598 10.9695 7.14947 11.3301C7.13621 11.6906 7.34835 11.9818 7.30858 12.4118C7.34835 12.7168 7.30858 12.8833 7.18924 13.119C7.06991 13.2854 7.01687 13.438 6.92406 13.6044C6.76495 13.854 6.32739 13.9927 6.00916 13.9927C5.67768 14.0343 5.26664 13.8956 5.09427 13.646C4.78931 13.4241 4.76279 13.0635 4.70975 12.7584C4.78931 12.2037 4.90864 11.9264 4.88212 11.4549C4.89538 11.0666 5.00146 10.706 5.04123 10.2761C5.09427 9.83233 5.17383 9.48563 5.21361 9.05572C5.33294 8.57035 4.90864 8.52875 4.72301 8.75063C4.47109 8.93091 4.33849 9.09733 4.23242 9.1528C4.1396 9.23601 3.90094 9.41629 3.82138 9.4995C3.55619 9.77685 3.29101 10.0542 3.01256 10.1929C2.76063 10.4564 2.50871 10.7476 2.20374 10.8863C1.69989 11.0943 1.60707 11.2052 1.28885 11.2052C0.970628 11.2052 0.731957 10.9972 0.400475 10.7615C0.201585 10.4425 0.0689936 10.1097 0.0292149 9.76299C-0.0503407 9.55497 0.0424728 9.33308 0.188326 9.1528C0.228104 8.87544 0.453512 8.8061 0.639142 8.70903C0.811513 8.65356 0.970623 8.52875 1.22255 8.44554C1.35514 8.32073 1.55404 8.23752 1.77944 8.19592C2.19048 7.9879 2.48219 7.79375 2.82693 7.75214C3.17167 7.50252 3.60923 7.43318 3.95397 7.30837C4.40479 7.16969 4.32523 6.79526 3.95397 6.72592C3.45012 6.58724 3.19819 6.33762 2.86671 6.29602C2.61478 6.088 2.27004 6.01866 1.89878 5.89385C1.66011 5.72743 1.15626 5.67196 0.904329 5.50555C0.599365 5.32527 0.347436 5.02017 0.228102 4.89536C0.0557308 4.59027 0.0292149 4.46546 0.0292149 4.24357H0.00269604Z" fill="white"/>
</svg>
