<svg width="957" height="1017" viewBox="0 0 957 1017" fill="none" xmlns="http://www.w3.org/2000/svg">
<path d="M287.538 100.462C335.332 38.5008 411.024 -0.188746 495.004 2.64556C579.179 5.47775 651.83 49.2582 695.488 114.178L695.492 114.184L695.496 114.19C704.712 127.711 718.883 137.123 735.127 139.242L735.127 139.243C812.725 149.606 884.418 195.958 924.049 270.328L924.763 271.668L924.958 271.666C964.051 345.714 962.232 430.521 927.68 500.368L927.679 500.369C920.689 514.534 919.945 531.053 925.815 545.766L926.1 546.465C955.905 618.988 951.708 704.224 907.166 775.757C862.77 846.74 789.095 887.889 711.545 893.561L709.713 893.688C693.319 894.698 678.494 902.962 668.505 915.893L668.503 915.894C620.709 977.855 545.017 1016.54 461.037 1013.71C377.058 1010.88 304.213 967.096 260.755 902.18L260.743 902.163L260.307 901.533C251.083 888.35 237.101 879.197 221.112 877.111L221.113 877.111C143.514 866.748 71.8208 820.396 32.1906 746.026L32.1876 746.022L31.2617 744.276C-7.60838 670.325 -5.73052 585.701 28.7573 515.983L28.7583 515.982C35.7485 501.817 36.4923 485.299 30.6221 470.586L30.3373 469.887C0.337789 397.568 4.52951 312.324 48.8819 240.587C93.6256 169.056 168.104 127.824 246.317 122.667L246.318 122.668C262.716 121.662 277.546 113.397 287.537 100.464L287.538 100.462Z" fill="#85E395" stroke="white" stroke-width="5"/>
</svg>
