<?xml version="1.0" encoding="UTF-8"?>
<svg id="_レイヤー_2" data-name="レイヤー_2" xmlns="http://www.w3.org/2000/svg" viewBox="0 0 424.95 424.95">
  <defs>
    <style>
      .cls-1 {
        fill: #b29b64;
      }
    </style>
  </defs>
  <g id="_レイヤー_2-2" data-name="レイヤー_2">
    <path class="cls-1" d="M198.7,355.29l.6-.95c1.27.81,2.55,1.62,3.83,2.41l-.59.95c-1.28-.8-2.56-1.61-3.84-2.42ZM194.89,352.84l.61-.94c-1.27-.83-2.52-1.66-3.78-2.5l-.62.93c1.26.84,2.51,1.67,3.79,2.51ZM226.08,371.35l.53-.99c-1.33-.71-2.65-1.44-3.97-2.16l-.54.98c1.32.73,2.65,1.45,3.98,2.16ZM238.16,377.58c1.35.67,2.71,1.34,4.07,1.99l.49-1.01c-1.36-.65-2.71-1.31-4.06-1.98l-.5,1ZM259.15,386.04c-1.39-.59-2.76-1.19-4.14-1.8l-.45,1.03c1.38.61,2.77,1.22,4.15,1.81l.44-1.04ZM210.29,362.43l.58-.97c-1.3-.77-2.59-1.54-3.88-2.33l-.59.96c1.3.78,2.59,1.56,3.89,2.33ZM218.14,366.98l.55-.98c-1.31-.74-2.62-1.49-3.92-2.24l-.56.98c1.3.75,2.61,1.5,3.93,2.25ZM234.11,375.55l.51-1.01c-1.34-.68-2.68-1.37-4.02-2.07l-.52,1c1.34.7,2.68,1.39,4.03,2.08ZM151.33,320.18l.73-.85c-1.15-.98-2.29-1.97-3.43-2.96l-.74.84c1.14,1,2.29,1.99,3.44,2.97ZM144.49,314.2l.75-.84c-1.13-1.01-2.25-2.02-3.36-3.04l-.76.83c1.12,1.02,2.24,2.04,3.37,3.05ZM187.35,347.78l.64-.93c-1.25-.85-2.49-1.71-3.72-2.58l-.64.92c1.24.87,2.48,1.73,3.73,2.58ZM137.78,308.08l.78-.83c-1.11-1.03-2.21-2.07-3.3-3.11l-.78.82c1.09,1.04,2.19,2.08,3.3,3.12ZM158.3,326.01l.71-.88c-1.17-.95-2.33-1.92-3.49-2.89l-.72.86c1.16.98,2.33,1.94,3.5,2.9ZM131.2,301.81l.79-.81c-1.08-1.06-2.16-2.12-3.23-3.18l-.79.8c1.08,1.07,2.16,2.13,3.24,3.19ZM124.76,295.39l.8-.79c-1.06-1.07-2.12-2.16-3.16-3.25l-.81.78c1.05,1.09,2.11,2.17,3.17,3.26ZM168.97,334.47c1.2.92,2.41,1.83,3.62,2.74l.67-.9c-1.21-.9-2.41-1.81-3.61-2.73l-.68.89ZM161.82,328.87c1.18.95,2.37,1.89,3.56,2.82l.69-.89c-1.19-.93-2.37-1.87-3.55-2.81l-.7.88ZM180.57,341.66c-1.23-.88-2.45-1.77-3.66-2.66l-.67.91c1.22.9,2.45,1.78,3.68,2.66l.65-.91ZM178.08,316.83l-3.27,2.16,1.04,3.78c.1.37-.05.76-.37.97-.14.09-.31.14-.49.15h0c-.2,0-.39-.07-.55-.19l-3.06-2.44-3.26,2.16c-.41.27-.96.15-1.23-.26-.15-.24-.19-.53-.09-.79l1.38-3.66-3.06-2.44c-.38-.31-.44-.87-.13-1.25.17-.21.42-.33.69-.33h.04l3.91.18,1.37-3.67c.11-.38.48-.62.87-.57.38.02.71.28.81.64l1.04,3.78,3.91.18c.49.02.86.43.84.92-.01.28-.16.54-.4.7ZM176.8,316.3l-3.96-.18-1.06-3.83-1.39,3.72-3.97-.18,3.1,2.48-1.39,3.71,3.32-2.18,3.1,2.47-1.06-3.82,3.31-2.19ZM363.37,416.69l.17-1.11c-1.5-.22-3-.45-4.49-.68l-.17,1.12c1.49.23,2.99.46,4.49.68ZM372.38,417.92l.14-1.12c-1.5-.19-3-.38-4.5-.59l-.15,1.12c1.5.2,3.01.4,4.51.59ZM354.39,415.27l.19-1.11c-1.49-.25-2.98-.51-4.46-.78l-.2,1.11c1.49.27,2.98.53,4.48.78ZM345.44,413.66l.21-1.1c-1.49-.28-2.97-.58-4.45-.88l-.22,1.11c1.48.29,2.97.59,4.46.87ZM381.41,418.94l.11-1.12c-1.5-.16-3-.31-4.5-.49l-.13,1.12c1.51.17,3.01.33,4.52.49ZM339.69,400.32l-3.82-.87-2.01,3.36c-.16.27-.45.43-.76.43h0c-.07,0-.13,0-.2-.02-.37-.08-.65-.4-.69-.78l-.35-3.9-3.81-.87c-.48-.11-.78-.58-.67-1.06.06-.27.25-.5.51-.61l3.6-1.54-.35-3.9c-.04-.38.18-.75.54-.89.35-.15.76-.06,1.01.24l2.58,2.95,3.6-1.54c.45-.19.97.02,1.16.47.11.26.09.56-.05.8l-2.01,3.36,2.58,2.95c.25.29.29.7.09,1.03-.19.33-.58.5-.95.41ZM339.19,399.05l-2.61-2.99,2.04-3.4-3.65,1.56-2.61-2.99.35,3.95-3.64,1.55,3.87.89.35,3.95,2.04-3.4,3.87.89ZM408.62,420.85l.05-1.12c-1.52-.06-3.03-.13-4.53-.2l-.05,1.12c1.51.07,3.02.14,4.54.2ZM390.47,419.77l.09-1.12c-1.51-.12-3.02-.25-4.52-.39l-.1,1.12c1.51.14,3.02.27,4.53.39ZM417.69,421.09l.02-1.13c-1.51-.02-3.02-.06-4.53-.1l-.03,1.13c1.51.04,3.02.08,4.54.1ZM399.54,420.4l.07-1.12c-1.51-.09-3.02-.19-4.53-.29l-.08,1.12c1.51.11,3.02.21,4.54.29ZM318.83,407.68l.29-1.09c-1.46-.38-2.92-.77-4.39-1.17l-.29,1.09c1.46.4,2.92.79,4.39,1.17ZM332.09,410.88c1.48.33,2.96.65,4.44.97l.24-1.1c-1.48-.31-2.95-.64-4.43-.97l-.25,1.1ZM292.67,399.97l.35-1.07c-1.44-.47-2.87-.95-4.3-1.44l-.36,1.06c1.43.49,2.87.98,4.31,1.45ZM284.07,397.02l.38-1.06c-1.42-.51-2.85-1.02-4.27-1.54l-.39,1.05c1.42.52,2.85,1.04,4.28,1.54ZM267.07,390.57l.42-1.04c-1.39-.56-2.78-1.13-4.17-1.72l-.44,1.04c1.39.58,2.79,1.15,4.19,1.72ZM275.54,393.89l.4-1.05c-1.41-.54-2.82-1.08-4.23-1.63l-.41,1.04c1.41.55,2.82,1.1,4.24,1.64ZM323.24,408.8c1.47.36,2.94.72,4.42,1.07l.26-1.09c-1.47-.35-2.94-.7-4.41-1.07l-.27,1.09ZM246.32,381.51c1.37.64,2.74,1.28,4.11,1.9l.47-1.02c-1.37-.63-2.74-1.26-4.1-1.9l-.48,1.02ZM310.06,405.3l.31-1.08c-1.46-.41-2.91-.84-4.36-1.26l-.32,1.08c1.45.43,2.91.85,4.37,1.26ZM301.34,402.72l.33-1.07c-1.45-.44-2.89-.89-4.33-1.35l-.34,1.07c1.45.46,2.89.91,4.34,1.36ZM254.77,363.81l-2.7,2.83,1.85,3.45c.18.34.13.75-.14,1.03-.27.28-.68.35-1.03.19l-3.53-1.7-2.7,2.83c-.16.18-.39.27-.64.27h0c-.49,0-.88-.38-.88-.87,0-.04,0-.08,0-.13l.52-3.88-3.52-1.7c-.44-.21-.63-.74-.42-1.18.12-.26.36-.44.64-.49l3.85-.7.52-3.88c.05-.38.34-.69.72-.75.38-.07.76.11.93.45l1.86,3.45,3.85-.7c.48-.09.94.24,1.03.72.05.28-.04.56-.23.76ZM253.41,363.59l-3.9.7-1.88-3.5-.53,3.94-3.9.71,3.58,1.72-.54,3.93,2.75-2.86,3.57,1.72-1.88-3.5,2.74-2.85ZM20.08,116.4l1.08-.32c-.42-1.45-.83-2.9-1.23-4.36l-1.08.3c.4,1.46.81,2.92,1.23,4.38ZM5.29,17.84c-.06-1.51-.12-3.02-.16-4.53l-1.13.03c.05,1.52.1,3.03.17,4.54l1.12-.05ZM26.97,138.13c.5,1.44,1,2.87,1.52,4.3l1.06-.38c-.52-1.43-1.02-2.86-1.52-4.29l-1.06.37ZM5.76,26.9c-.09-1.5-.18-3.01-.26-4.53l-1.12.06c.08,1.51.17,3.03.26,4.54l1.12-.07ZM6.43,35.93c-.13-1.5-.25-3.01-.36-4.52l-1.12.09c.11,1.51.23,3.02.36,4.53l1.12-.09ZM7.3,44.96c-.15-1.5-.31-3.01-.45-4.51l-1.12.11c.15,1.51.3,3.01.46,4.52l1.12-.12ZM22.94,3.21l-3.78-1.23-2.33,3.21V1.22l-3.77-1.22h-1.7c0,.37.23.72.6.84l3.73,1.21v3.91c0,.38.24.72.61.84.09.03.18.05.27.04h0c.28,0,.55-.14.72-.36l2.3-3.17,3.72,1.21c.27.09.56.04.79-.12.4-.29.48-.84.2-1.23l-2.3-3.16h-1.4l2.33,3.21ZM24.07,129.47c.47,1.45.94,2.89,1.42,4.34l1.07-.36c-.48-1.44-.95-2.88-1.42-4.33l-1.07.35ZM21.36,120.76c.43,1.45.88,2.9,1.32,4.35l1.07-.34c-.44-1.44-.89-2.89-1.32-4.34l-1.08.33ZM36.07,159.04c-.57-1.41-1.14-2.81-1.7-4.23l-1.05.42c.56,1.41,1.13,2.82,1.71,4.23l1.04-.42ZM5.01,8.78c-.03-1.51-.06-3.02-.07-4.53h-1.13c.02,1.53.04,3.05.07,4.56l1.13-.02ZM118.45,288.84l.83-.77c-1.04-1.1-2.07-2.2-3.1-3.31l-.83.76c1.03,1.12,2.06,2.22,3.1,3.32ZM1.14,0H0c0,113.5,44.2,220.23,124.46,300.49,80.26,80.26,186.98,124.46,300.48,124.46v-1.14C191.26,423.81,1.14,233.69,1.14,0ZM8.35,53.97c-.19-1.49-.38-3-.55-4.5l-1.12.14c.18,1.51.36,3.01.55,4.51l1.12-.14ZM16.55,98.54c-.36-1.47-.71-2.94-1.04-4.41l-1.1.25c.34,1.48.69,2.95,1.04,4.43l1.1-.27ZM420.99,400.52c-.46.15-.72.65-.57,1.12l1.21,3.72-3.17,2.3c-.23.17-.37.44-.37.72,0,.49.4.88.89.88h3.91l1.21,3.72c.12.37.46.61.84.61v-1.71l-1.22-3.76h-3.97l3.21-2.33-1.23-3.77,3.2,2.33v-1.4l-3.17-2.3c-.23-.17-.53-.21-.79-.13ZM422.23,421.15c.91,0,1.81,0,2.72,0v-1.13c-.9,0-1.81,0-2.71,0v1.13ZM11.05,71.91c-.26-1.48-.51-2.97-.75-4.47l-1.11.18c.24,1.5.49,2.99.75,4.48l1.11-.2ZM14.52,89.71c-.32-1.48-.64-2.95-.94-4.43l-1.1.22c.3,1.49.62,2.97.94,4.45l1.1-.24ZM9.6,62.96c-.22-1.49-.44-2.99-.65-4.49l-1.12.16c.21,1.5.42,3,.65,4.5l1.12-.17ZM12.69,80.83c-.29-1.48-.57-2.96-.84-4.45l-1.11.2c.27,1.49.55,2.98.84,4.47l1.11-.21ZM18.75,107.35c-.38-1.46-.76-2.92-1.13-4.39l-1.09.28c.37,1.47.75,2.93,1.14,4.4l1.08-.29ZM89.08,254.14l.89-.68c-.91-1.2-1.82-2.42-2.72-3.63l-.9.67c.9,1.22,1.81,2.44,2.73,3.64ZM83.66,246.83l.91-.66c-.89-1.22-1.77-2.45-2.64-3.69l-.92.65c.88,1.24,1.76,2.47,2.65,3.7ZM68.37,224.21l.95-.6c-.81-1.28-1.61-2.57-2.4-3.86l-.96.59c.79,1.29,1.59,2.58,2.41,3.87ZM73.3,231.86l.94-.62c-.83-1.26-1.66-2.53-2.48-3.8l-.94.61c.82,1.28,1.65,2.55,2.49,3.81ZM78.4,239.4l.93-.64c-.86-1.25-1.72-2.5-2.57-3.75l-.93.63c.85,1.26,1.71,2.51,2.57,3.75ZM94.66,261.34l.88-.7c-.94-1.18-1.87-2.37-2.8-3.57l-.89.7c.93,1.19,1.87,2.39,2.81,3.58ZM109.25,278.77c1,1.13,2.02,2.26,3.03,3.39l.83-.75c-1.02-1.12-2.02-2.25-3.02-3.38l-.84.74ZM97.5,264.89c.96,1.18,1.92,2.35,2.88,3.52l.87-.72c-.97-1.17-1.92-2.33-2.88-3.51l-.87.71ZM113.77,253.95l-3.67,1.38.18,3.91c.02.38-.22.73-.57.86-.1.04-.21.06-.31.06h0c-.27,0-.52-.12-.69-.33l-2.44-3.06-3.67,1.38c-.46.17-.96-.06-1.14-.51-.1-.27-.07-.57.09-.8l2.15-3.26-2.44-3.06c-.24-.3-.26-.72-.05-1.04.21-.32.61-.47.98-.37l3.77,1.04,2.16-3.27c.27-.41.82-.52,1.22-.25.24.16.38.42.4.7l.18,3.91,3.77,1.04c.37.1.63.43.65.81.02.38-.21.74-.57.87ZM112.64,253.15l-3.82-1.05-.18-3.97-2.19,3.31-3.82-1.06,2.47,3.1-2.18,3.31,3.71-1.38,2.47,3.1-.18-3.96,3.72-1.4ZM103.3,271.9c.98,1.15,1.97,2.31,2.95,3.45l.85-.73c-.99-1.14-1.97-2.29-2.95-3.45l-.86.73ZM34.4,93.79l-3.9-.35-1.54,3.6c-.14.33-.46.54-.81.54h0s-.08,0-.08,0c-.38-.04-.7-.31-.78-.69l-.87-3.81-3.9-.35c-.38-.03-.7-.31-.78-.68-.09-.37.08-.76.41-.96l3.36-2.01-.87-3.81c-.11-.48.19-.95.67-1.06.27-.06.56.01.77.19l2.95,2.58,3.36-2.01c.42-.25.97-.11,1.22.31.14.24.16.54.05.8l-1.54,3.6,2.95,2.58c.29.25.38.66.23,1.01-.15.35-.51.56-.89.54ZM33.73,92.59l-2.99-2.61,1.56-3.65-3.41,2.04-2.99-2.61.88,3.87-3.41,2.03,3.95.35.88,3.87,1.56-3.65,3.95.35ZM46.21,184.41l1.01-.49c-.67-1.36-1.32-2.73-1.97-4.09l-1.01.48c.65,1.37,1.31,2.74,1.97,4.1ZM65.05,178.34l-3.88.53-.7,3.85c-.07.38-.37.67-.75.72h-.12s0,0,0,0c-.34,0-.65-.19-.79-.5l-1.7-3.53-3.88.52c-.48.07-.93-.27-1-.76-.04-.28.06-.56.26-.76l2.83-2.71-1.7-3.53c-.21-.44-.03-.97.42-1.18.25-.12.55-.12.8.02l3.45,1.85,2.83-2.7c.35-.34.91-.32,1.25.03.2.21.28.49.23.77l-.7,3.85,3.45,1.86c.34.18.52.56.45.93-.07.38-.37.67-.75.72ZM64.14,177.33l-3.5-1.88.71-3.9-2.87,2.74-3.5-1.88,1.72,3.58-2.87,2.74,3.94-.54,1.72,3.58.71-3.9,3.93-.53ZM42.3,176.19l1.02-.47c-.64-1.38-1.26-2.76-1.88-4.14l-1.03.46c.63,1.39,1.25,2.77,1.89,4.15ZM31.66,150.98l1.05-.4c-.54-1.41-1.08-2.83-1.61-4.25l-1.06.39c.53,1.43,1.07,2.85,1.62,4.27ZM38.57,167.86l1.03-.45c-.61-1.39-1.2-2.79-1.79-4.18l-1.04.44c.6,1.4,1.19,2.8,1.8,4.19ZM56.76,204.63c.74,1.33,1.48,2.65,2.24,3.97l.97-.56c-.75-1.31-1.5-2.63-2.23-3.95l-.98.54ZM63.59,216.45l.97-.58c-.78-1.3-1.55-2.6-2.32-3.91l-.97.57c.77,1.31,1.54,2.62,2.32,3.92ZM54.56,200.63l.99-.54c-.72-1.33-1.44-2.67-2.15-4.01l-.99.53c.71,1.34,1.43,2.68,2.15,4.02ZM50.3,192.57l1-.5c-.69-1.35-1.38-2.7-2.06-4.05l-1,.5c.68,1.36,1.37,2.71,2.06,4.05Z"/>
  </g>
</svg>