<?xml version="1.0" encoding="UTF-8"?>
<svg id="_レイヤー_2" data-name="レイヤー_2" xmlns="http://www.w3.org/2000/svg" viewBox="0 0 857.28 989.62">
  <defs>
    <style>
      .cls-1 {
        fill: none;
        stroke: #b29b64;
        stroke-miterlimit: 10;
        stroke-width: .5px;
      }
    </style>
  </defs>
  <g id="_レイヤー_2-2" data-name="レイヤー_2">
    <g>
      <g>
        <g>
          <polygon class="cls-1" points="428.64 494.81 359.55 375.14 428.64 .05 428.64 494.81"/>
          <polygon class="cls-1" points="428.64 494.81 497.73 375.14 428.64 .05 428.64 494.81"/>
        </g>
        <g>
          <polygon class="cls-1" points="428.64 494.81 290.46 494.81 .16 247.43 428.64 494.81"/>
          <polygon class="cls-1" points="428.64 494.81 359.55 375.14 .16 247.43 428.64 494.81"/>
        </g>
        <g>
          <polygon class="cls-1" points="428.64 494.81 359.55 614.48 .16 742.19 428.64 494.81"/>
          <polygon class="cls-1" points="428.64 494.81 290.46 494.81 .16 742.19 428.64 494.81"/>
        </g>
        <g>
          <polygon class="cls-1" points="428.64 494.81 497.73 614.48 428.64 989.57 428.64 494.81"/>
          <polygon class="cls-1" points="428.64 494.81 359.55 614.48 428.64 989.57 428.64 494.81"/>
        </g>
        <g>
          <polygon class="cls-1" points="428.64 494.81 566.82 494.81 857.12 742.19 428.64 494.81"/>
          <polygon class="cls-1" points="428.64 494.81 497.73 614.48 857.12 742.19 428.64 494.81"/>
        </g>
        <g>
          <polygon class="cls-1" points="428.64 494.81 497.73 375.14 857.12 247.43 428.64 494.81"/>
          <polygon class="cls-1" points="428.64 494.81 566.82 494.81 857.12 247.43 428.64 494.81"/>
        </g>
      </g>
      <g>
        <polygon class="cls-1" points="257.01 466.3 102.24 494.81 257.01 523.32 290.46 494.81 257.01 466.3"/>
        <polygon class="cls-1" points="497.73 375.14 539.15 360.42 591.84 212.14 489.77 331.92 497.73 375.14"/>
        <polygon class="cls-1" points="600.28 523.32 755.04 494.81 600.28 466.3 566.82 494.81 600.28 523.32"/>
        <polygon class="cls-1" points="359.55 375.14 367.51 331.92 265.44 212.14 318.13 360.42 359.55 375.14"/>
        <polygon class="cls-1" points="497.73 614.48 489.77 657.7 591.84 777.48 539.15 629.2 497.73 614.48"/>
        <polygon class="cls-1" points="359.55 614.48 318.13 629.2 265.44 777.48 367.51 657.7 359.55 614.48"/>
      </g>
      <line class="cls-1" x1="591.84" y1="212.14" x2="497.73" y2="375.14"/>
      <line class="cls-1" x1="265.44" y1="212.14" x2="359.55" y2="375.14"/>
      <line class="cls-1" x1="102.24" y1="494.81" x2="290.46" y2="494.81"/>
      <line class="cls-1" x1="265.44" y1="777.48" x2="359.55" y2="614.48"/>
      <line class="cls-1" x1="591.84" y1="777.48" x2="497.73" y2="614.48"/>
      <line class="cls-1" x1="566.82" y1="494.81" x2="755.04" y2="494.81"/>
    </g>
  </g>
</svg>