<svg xmlns="http://www.w3.org/2000/svg" width="686.037" height="791.597" viewBox="0 0 686.037 791.597"><g transform="translate(-0.42 -0.117)"><path d="M107.282,395.736l-55.256-95.71,55.256-300Z" transform="translate(236.157 0.179)" fill="none" stroke="#d1d1d1" stroke-miterlimit="10" stroke-width="1"/><path d="M62.009,395.736l55.256-95.71L62.009.028Z" transform="translate(281.43 0.179)" fill="none" stroke="#d1d1d1" stroke-miterlimit="10" stroke-width="1"/><path d="M342.795,233.622H232.278L.1,35.771Z" transform="translate(0.644 162.293)" fill="none" stroke="#d1d1d1" stroke-miterlimit="10" stroke-width="1"/><path d="M342.795,233.622l-55.256-95.71L.1,35.771Z" transform="translate(0.644 162.293)" fill="none" stroke="#d1d1d1" stroke-miterlimit="10" stroke-width="1"/><path d="M342.795,71.513l-55.256,95.709L.1,269.364Z" transform="translate(0.644 324.402)" fill="none" stroke="#d1d1d1" stroke-miterlimit="10" stroke-width="1"/><path d="M342.795,71.513H232.278L.1,269.364Z" transform="translate(0.644 324.402)" fill="none" stroke="#d1d1d1" stroke-miterlimit="10" stroke-width="1"/><path d="M62.009,71.513l55.256,95.709-55.256,300Z" transform="translate(281.43 324.402)" fill="none" stroke="#d1d1d1" stroke-miterlimit="10" stroke-width="1"/><path d="M107.282,71.513,52.027,167.223l55.256,300Z" transform="translate(236.157 324.402)" fill="none" stroke="#d1d1d1" stroke-miterlimit="10" stroke-width="1"/><path d="M62.009,71.513H172.526L404.7,269.364Z" transform="translate(281.43 324.402)" fill="none" stroke="#d1d1d1" stroke-miterlimit="10" stroke-width="1"/><path d="M62.009,71.513l55.256,95.709L404.7,269.364Z" transform="translate(281.43 324.402)" fill="none" stroke="#d1d1d1" stroke-miterlimit="10" stroke-width="1"/><path d="M62.009,233.622l55.256-95.71L404.7,35.771Z" transform="translate(281.43 162.293)" fill="none" stroke="#d1d1d1" stroke-miterlimit="10" stroke-width="1"/><path d="M62.009,233.622H172.526L404.7,35.771Z" transform="translate(281.43 162.293)" fill="none" stroke="#d1d1d1" stroke-miterlimit="10" stroke-width="1"/><path d="M138.63,67.394,14.849,90.2,138.63,113l26.753-22.8Z" transform="translate(67.538 305.721)" fill="none" stroke="#d1d1d1" stroke-miterlimit="10" stroke-width="1"/><path d="M77.207,161.039l33.125-11.769,42.142-118.6-81.633,95.8Z" transform="translate(321.49 139.166)" fill="none" stroke="#d1d1d1" stroke-miterlimit="10" stroke-width="1"/><path d="M108.727,113l123.78-22.8-123.78-22.8-26.753,22.8Z" transform="translate(371.984 305.72)" fill="none" stroke="#d1d1d1" stroke-miterlimit="10" stroke-width="1"/><path d="M113.7,161.039l6.366-34.569-81.633-95.8,42.142,118.6Z" transform="translate(174.485 139.166)" fill="none" stroke="#d1d1d1" stroke-miterlimit="10" stroke-width="1"/><path d="M77.207,88.8l-6.366,34.569,81.633,95.8-42.142-118.6Z" transform="translate(321.49 402.822)" fill="none" stroke="#d1d1d1" stroke-miterlimit="10" stroke-width="1"/><path d="M113.7,88.8,80.571,100.572l-42.142,118.6,81.633-95.8Z" transform="translate(174.485 402.822)" fill="none" stroke="#d1d1d1" stroke-miterlimit="10" stroke-width="1"/><line x1="75.267" y2="130.368" transform="translate(398.699 169.836)" fill="none" stroke="#d1d1d1" stroke-miterlimit="10" stroke-width="1"/><line x2="75.267" y2="130.368" transform="translate(212.912 169.836)" fill="none" stroke="#d1d1d1" stroke-miterlimit="10" stroke-width="1"/><line x2="150.539" transform="translate(82.386 395.915)" fill="none" stroke="#d1d1d1" stroke-miterlimit="10" stroke-width="1"/><line y1="130.368" x2="75.267" transform="translate(212.912 491.626)" fill="none" stroke="#d1d1d1" stroke-miterlimit="10" stroke-width="1"/><line x1="75.267" y1="130.368" transform="translate(398.699 491.626)" fill="none" stroke="#d1d1d1" stroke-miterlimit="10" stroke-width="1"/><line x2="150.539" transform="translate(453.955 395.915)" fill="none" stroke="#d1d1d1" stroke-miterlimit="10" stroke-width="1"/></g></svg>