<svg xmlns="http://www.w3.org/2000/svg" width="337.497" height="612.188" viewBox="0 0 337.497 612.188"><g transform="translate(0.014 0.179)"><path d="M70.186,136.656l-56.479,1.526,55.365,1.53L40.937,221.249l31.221-81.536,56.479-1.53-55.369-1.526L101.4,55.12Z" transform="translate(108.855 390.582)" fill="#141b30"/><path d="M100.935,54.941l.94.342L73.962,136.175l54.688,1.507v1L72.506,140.2,41.4,221.428l-.94-.342,27.913-80.892-54.684-1.512v-1l56.145-1.517Zm9.4,83.237-37.763-1.041L91.156,83.28,70.533,137.147l-38.526,1.041,37.76,1.044-18.6,53.895,20.64-53.9Z" transform="translate(108.855 390.582)" fill="#133639"/><path d="M257.5,0,167.487,235.112l-53.564-77.387,47.674,81.8L0,243.906l158.417,4.376-107.224,81.8,109.9-77.387L79.959,487.812,169.983,252.7l53.564,77.387-47.681-81.8,161.6-4.376L179.053,239.53l107.224-81.8-109.9,77.387Z" fill="#141b30"/><path d="M257.038-.179l.94.342-80.622,233.65,108.635-76.5.591.806-106.1,80.946,157,4.337v1l-160.761,4.353,47.256,81.076-.843.536-53.024-76.608L80.426,487.991l-.94-.342L160.115,254,51.481,330.5l-.591-.806,106.1-80.946-157-4.337v-1l160.754-4.353-47.249-81.076.843-.536,53.025,76.608ZM175.4,236.412l.5-1.463,71.359-206.8L167.616,236.176l-46.79-67.6,41.628,71.431-.843.023L18.287,243.911l141.558,3.91-1.125.858L72.3,314.613,162.07,251.4l-.5,1.463L90.2,459.665l79.654-208.03,46.784,67.591-41.629-71.422.843-.023,143.33-3.881-141.558-3.91,1.125-.858L265.171,173.2Z" fill="#133639"/></g></svg>