<?xml version="1.0" encoding="UTF-8"?>
<svg id="_レイヤー_2" data-name="レイヤー_2" xmlns="http://www.w3.org/2000/svg" viewBox="0 0 268.09 205.31">
  <defs>
    <style>
      .cls-1 {
        fill: #f7f7f7;
      }
    </style>
  </defs>
  <g id="_レイヤー_2-2" data-name="レイヤー_2">
    <g>
      <path class="cls-1" d="M139.06,21.12c-.46.92.19.79.64.2.95-1.27,3.35-3.38,4.16-3.9.84.58,1.71-.07,1.81-.62.1-.55-.12-1.62-1.61-1.46-1.65.18-4.07,3.92-5,5.78Z"/>
      <path class="cls-1" d="M147.21,43.04c1.21-2.23,3.62-4.9,5.64-6.53,2-1.62-.64-1.79-2.25-.94-1.62.85-3.23,2.93-4.47,7.34-.31,1.1.51,1.17,1.08.13Z"/>
      <path class="cls-1" d="M165.88,46.11c-2.05,13.94-11.94,58.87-29.44,83.5-.06.08-.17.24-.32.41-.02.02-.05.05-.07.08-.35.34-.74.55-1.18.33-.5-.25-.3-.94-.15-1.26.02-.06.05-.11.06-.14.07-.13.14-.24.2-.32,18.97-24.88,28.22-79.05,28.59-80.9-2.47,1.66-6.88,4.38-13.37,9.66-8.23,6.69-15.12,13.46-15.51,13.93-.02.02-.05.04-.06.05-.02.02-.04.05-.05.06-.02.02-.06.04-.08.05-.05.04-.09.06-.15.08-.05.02-.09.04-.14.05-.06,0-.11.01-.17.01-.05,0-.11-.01-.15-.01-.05-.01-.11-.02-.15-.05-.05-.02-.09-.05-.14-.08-.04-.01-.06-.02-.08-.05-.02-.01-.04-.04-.05-.06-.02-.01-.05-.02-.06-.05-.39-.47-7.28-7.24-15.51-13.93-6.48-5.28-10.9-7.99-13.37-9.66.37,1.85,9.61,56.03,28.57,80.9.06.08.13.19.2.32.12.21.48,1.11-.09,1.41-.44.22-.83.01-1.17-.33-.02-.04-.05-.06-.07-.08-.15-.18-.26-.33-.32-.41-17.5-24.63-27.38-69.56-29.45-83.5-.08-.61-.19-1.43.09-1.62.27-.19,1.11.26,1.39.45,1.45.92,6.69,4.25,15.25,11.23,6.98,5.67,13.12,11.5,15.1,13.5,2-2,8.14-7.83,15.11-13.5,8.56-6.98,13.8-10.31,15.24-11.23.28-.19,1.12-.64,1.41-.45.27.19.18,1,.08,1.62Z"/>
      <path class="cls-1" d="M147.76,97.9c.52-1.1.85-2.66.85-4.62,0-.69-1.06-.79-1.08-.03-.03,1.27-.2,2.27-.75,3.38-1.27.92-3.81,2.34-5.37,3.15-1.56.81-2.29,1.43-2.6,2.47-.25.85-1.12,3.55-2.14,6.65.61-.41,1.23-.73,1.82-1.01.52-.81,1.16-1.83,2.8-5.27.75-.75,6.18-4.38,6.47-4.72Z"/>
      <path class="cls-1" d="M155.13,59.36c1.32,1.07,2.3-1.8,2.5-3.08-1.21.46-3.81,2.01-2.5,3.08Z"/>
      <path class="cls-1" d="M140.92,55.54c1.01-1.11,2.12-3.62,2.49-4.71-3.17.39-6.61,3.69-6.84,4.94,1.47.1,3.01.03,4.35-.23Z"/>
      <path class="cls-1" d="M181.26,104.46c-.06.18-.12.37-.17.58-.22.97.02,2.01.35,2.02h.02c.32,0,.52-1.15.85-1.99.99-2.54,5.74-6.53,5.74-6.53,0,0,3.68-3.79,5.25-4.69.28-.16,1.09-1.07.98-1.38-.18-.54-1.22.12-1.5.29-.22.13-.44.27-.65.42,3.93-5.33,6.62-11.33,7-18.36.02-.32-.23-.6-.55-.62-.32-.03-.6.23-.62.55-.75,13.9-10.9,23.76-21.76,32.34-7.73,6.11-14.97,11.16-19.76,14.51-1.98,1.38-3.54,2.47-4.57,3.24-.26.19-.31.56-.12.82.12.15.29.24.47.24.12,0,.25-.04.35-.12,1.01-.76,2.57-1.84,4.54-3.22,4.8-3.36,12.06-8.42,19.81-14.55,1.46-1.16,2.91-2.34,4.33-3.55Z"/>
      <path class="cls-1" d="M182.06,75.84c.16.26-.12,1.49.85,1.66.77.14,1.42-.75,1.58-1,.79-1.24,1.14-3.48-1.58-4.7-.94-.42-2.31.56-2.25,1.75.08,1.69,1.1,1.77,1.41,2.29Z"/>
      <path class="cls-1" d="M207.78,59.57c.9,2.09,1.21,3.98,1.57,5.98,1.39-1.67,2.68-3.09,4.66-3.89-1.39-.46-3.22.1-3.79.79-.68-1.35-1.67-2.25-2.44-2.88Z"/>
      <path class="cls-1" d="M195.34,90.99c-.18.27-.11.63.15.81.1.07.22.1.33.1.19,0,.37-.09.48-.26,5.25-7.72,6.87-18.4,4.1-25.78,1.29,1.19,2.16,3.14,2.55,5.76l.06.36c.27,1.48.89,4.94-1.8,10.27-.15.29-.03.64.26.79.29.14.64.03.79-.26,2.87-5.69,2.17-9.55,1.91-11l-.06-.33c-.59-3.98-2.26-6.62-4.8-7.65-.23-.09-.49-.03-.65.15-.16.18-.2.45-.09.66,3.56,6.89,2.14,18.47-3.24,26.37Z"/>
      <path class="cls-1" d="M208.36,113.35c0-.62-.5-1.13-1.13-1.13s-1.13.5-1.13,1.13.5,1.13,1.13,1.13,1.13-.5,1.13-1.13Z"/>
      <path class="cls-1" d="M216.87,63.43l.03.03s0-.02,0-.03c-.01,0-.02,0-.03,0Z"/>
      <path class="cls-1" d="M222.58,58.59c-1.18.71-3.79,1.22-5.38,1.59-.13.9-.3,1.89-.31,3.25,1.35.21,2.36.2,3.26.21.62-1.5,1.53-4.01,2.42-5.06Z"/>
      <path class="cls-1" d="M222.45,105.75c-.39-.25-.91-.13-1.15.26-2.15,3.43-5.39,8.41-5.98,9.2-.28.37-.2.89.16,1.17.14.11.31.16.48.17.26,0,.52-.11.69-.33.62-.83,3.85-5.79,6.06-9.32.25-.39.13-.91-.26-1.15Z"/>
      <path class="cls-1" d="M222.91,102.77c-.32.51-.22,1.16.24,1.45.46.29,1.09.11,1.42-.4.32-.51.22-1.16-.24-1.45-.46-.29-1.09-.11-1.42.4Z"/>
      <path class="cls-1" d="M149.28,181.92c3.45.87,4.43-1.75,3.68-3.24-.67-1.32-3.04-1.18-2.99,1.28-1.46-.25-1.98-1.08-1.62-2.31-1.05-.29-2.01,3.53.93,4.27Z"/>
      <path class="cls-1" d="M169.39,182.95c-2.87,1-2.45,4.71-1.05,4.94,0-1.11,0-2.13,1.44-2.49.14,2.45,3.53,2.25,4.16.92.95-2.03-.43-4.8-4.55-3.37Z"/>
      <path class="cls-1" d="M162.68,161.75c3.73-.88,20.22-5.1,20.22-5.1l6.28-4.91c-4.32-.59-22.28,6.18-26.5,10.01Z"/>
      <path class="cls-1" d="M234.31,154.85c-10.08,14.92-37.43,16.55-45.28,14.85-2.03,3.34-7.53,8.83-10.84,9.53-3.97.83-8.54-.57-8.02-5.67.66-6.43,7.97-5.97,9.49-3.32.27.48.46.99.54,1.44v.04c0,.57-.61,1.11-1.31.44-.05-.05-.08-.09-.12-.15-3.28-4.95-8.7,2.23-4.12,3.93,4.58,1.7,9-6.16,11.75-10.74,19.64,6.8,43.45-6.81,47.9-10.34Z"/>
      <path class="cls-1" d="M249.01,104.03c1.72-1.96.59-4.71-2.6-3.29-2.85.15.11-3.01,1.03-3.53.92-.52,3.99-1.33,4.52,1.42.52,2.75-1.03,12.63-7.44,15.25,3.48,1.98,12.4-6.63,9.21-17.36-1.77-5.94-12.17-.59-11.39,3.83.82,4.64,5.64,4.87,6.67,3.68Z"/>
      <path class="cls-1" d="M222.36,122.19c-2.55-1.06-5.1,4.12-.29,5.69,4.81,1.57,7.93-.49,9.08-3.48-1.89.83-6.72,2.31-8.2.93.69-.29,1.25-2.38-.59-3.14Z"/>
      <path class="cls-1" d="M226.48,136.08c1.18,1.37,3.44-.34,4.22-3.09.79-2.75,4.76-6.48,8.64-7.75,0,0-2.69-.72-6.92,1.42-4.96,2.5-7.12,8.05-5.94,9.42Z"/>
      <path class="cls-1" d="M266.76,132.47c-3.4-5.1-16.75-1.7-24.47,3.66-7.72,5.37-14.59,10.78-12.37,16.54-.13-5.5,15.6-18.68,24.15-20.01,8.83-1.37,14.53,1.9,9.55,3.99-.92,1.31-.92,5.63-2.09,8.38,4.97-1.57,8.64-7.46,5.24-12.56Z"/>
      <path class="cls-1" d="M248.74,126.4c-5.52.74-11.78,1.57-15.25,4.65-2.42,2.14-5.31,5.99-8.12,9.71-.99,1.31-1.95,2.6-2.88,3.77-1.39-.09-2.85-.45-4.45-.84-1.63-.4-3.49-.86-5.51-1.06-5.7-.59-12.68,9.92-14.59,17.29-.12.45.15.9.6,1.02.07.02.14.03.21.03.37,0,.71-.25.81-.63,1.87-7.23,8.53-16.48,12.8-16.05,1.91.2,3.63.62,5.28,1.02,1.23.3,2.43.59,3.61.76-1.04,1.26-1.99,2.32-2.81,3.03-4.34,3.75-8.18,5.51-10.53,5.65-.48-.21-.74-.55-.74-1.19,0-.86-2.05-1.65-2.96-.34-1.23,1.77-.26,4.01,4.45,3.12,0,0,0-.01.02-.02,2.97-.45,6.92-2.56,10.85-5.96,1.1-.95,2.38-2.43,3.75-4.15.68,0,1.36-.08,2.05-.25,2.13-.51,6.64-3.97,11.87-7.97,4.56-3.49,9.26-7.09,12.04-8.41,4.38-1.28,10.6-2.7,12.42-2.64,1.94.06,4.48,3.92,5.09-1.16.46-3.84-4.32-5.5-7.98-4.58-2.47.62-6.11,2.37-9.28,5.09-.26.03-.51.07-.77.1ZM236.19,136.67c-4.65,3.56-9.46,7.25-11.25,7.68-.07.02-.15.02-.22.04.65-.85,1.31-1.73,1.99-2.62,2.75-3.65,5.6-7.43,7.89-9.46,2.81-2.49,8-3.37,12.89-4.04-.24.26-.49.51-.72.79-2.9,1.75-6.78,4.71-10.58,7.62Z"/>
      <path class="cls-1" d="M149.91,190.16c-2.16-1.13-5.7-.88-8.61.61-3.79,1.94-6.36,6.24-7.25,10.37-.9-4.12-3.47-8.42-7.25-10.37-2.91-1.5-6.45-1.75-8.61-.61-1.13.59-1.84,1.55-1.99,2.69-.21,1.59.07,2.81.83,3.62.46.49,1.33,1.05,2.81.94.69-.05,1.21-.66,1.16-1.35-.05-.69-.66-1.21-1.35-1.16-.18.01-.62.03-.8-.16-.08-.08-.32-.43-.17-1.57.03-.21.13-.51.67-.8,1.22-.64,3.84-.64,6.3.62,3.83,1.96,6.72,5.98,6.99,10.07.04.68.23,2.36,1.01,2.22.17-.03.3-.08.4-.14.1.06.23.11.4.14.79.13.97-1.54,1.01-2.22.26-4.09,3.16-8.11,6.99-10.07,2.46-1.26,5.08-1.26,6.3-.62.54.28.64.59.67.8.15,1.13-.09,1.48-.17,1.57-.18.19-.61.17-.8.16-.68-.06-1.29.46-1.35,1.16-.05.69.46,1.29,1.16,1.35,1.48.12,2.35-.45,2.81-.94.76-.81,1.04-2.02.83-3.62-.15-1.14-.86-2.1-1.99-2.69Z"/>
      <path class="cls-1" d="M164.74,186.85c-.68-.03-1.28.5-1.31,1.19-.06,1.26-2.08,2.35-3.83,2.47-1.68.1-3.99.09-4.2-1.06-.12-.68-.26-1.7-.94-1.58-.68.12-.71.9-.59,1.59,0,.05.03.09.04.13-1.13-1.42-2.98-2.32-5.15-2.47-.47-.03-.86.31-.89.78-.03.46.32.86.78.89,1.81.13,3.31.87,4.12,2.05.75,1.08.88,2.45.39,4.07-.13.44.12.91.56,1.04.08.02.16.04.24.04.36,0,.69-.23.8-.6.5-1.65.42-2.97.11-3.99.91.89,2.38,1.33,4.35,1.33.22,0,.43,0,.66-.02,3.45-.22,5.95-2.09,6.07-4.55.03-.69-.5-1.28-1.19-1.31Z"/>
      <polygon class="cls-1" points="134.04 26.08 134.04 26.08 134.04 26.08 134.04 26.08"/>
      <path class="cls-1" d="M139.22,7.63c-3.31.85-5.18,4.04-5.18,5.28,0-.63-.47-1.72-1.35-2.79-.89-1.05-2.17-2.07-3.84-2.49-3.31-.85-5.57,3.85-2.5,7.39,3.08,3.54,6.3,8.36,7.69,11.05,1.39-2.69,4.6-7.51,7.69-11.05,3.08-3.54.81-8.24-2.5-7.39ZM139.61,14.22c-1.74,2.34-5.49,7-5.57,8.12-.04-.57-.99-2.01-2.16-3.6-1.17-1.61-2.54-3.35-3.4-4.52-1.77-2.4-1.56-3.87-.81-4.32,1.37-.8,5.24,3.13,5.36,5.55.05,1.15.19,2.21.37,3,.01.05.02.09.04.14.11.25.34.41.61.41s.51-.17.61-.4c.04-.07.06-.27.06-.27.17-.77.3-1.78.35-2.88.12-2.42,3.99-6.35,5.35-5.55.76.45.97,1.92-.8,4.32Z"/>
      <path class="cls-1" d="M124.23,17.42c.81.52,3.21,2.63,4.16,3.9.44.59,1.1.72.64-.2-.93-1.86-3.35-5.6-5-5.78-1.49-.16-1.71.91-1.61,1.46.1.55.97,1.2,1.81.62Z"/>
      <path class="cls-1" d="M115.24,36.51c2.02,1.64,4.43,4.3,5.64,6.53.56,1.04,1.39.96,1.08-.13-1.24-4.41-2.85-6.49-4.47-7.34-1.62-.85-4.25-.68-2.25.94Z"/>
      <path class="cls-1" d="M126.68,99.78c-1.56-.81-4.1-2.22-5.37-3.15-.55-1.11-.72-2.11-.75-3.38-.02-.76-1.08-.66-1.08.03,0,1.96.33,3.52.85,4.62.29.34,5.72,3.97,6.47,4.72,1.65,3.44,2.28,4.46,2.8,5.27.59.28,1.21.6,1.82,1.01-1.02-3.1-1.89-5.8-2.14-6.65-.31-1.04-1.04-1.67-2.6-2.47Z"/>
      <path class="cls-1" d="M111.98,55.48c.81-.29.89-1.04.36-1.13-1.36-.22-3.53-1.53-4.87-2.63-.29-.24-.77.06-.69.47.99,3.2.97,4.39,1.23,6.05.17,1.11,1.13,1.18,1.31-.42.12-1.05.24-2,.14-2.58.66.31,1.89.46,2.51.24Z"/>
      <path class="cls-1" d="M156.11,55.48c-.81-.29-.89-1.04-.36-1.13,1.36-.22,3.53-1.53,4.87-2.63.29-.24.77.06.69.47-.99,3.2-.97,4.39-1.23,6.05-.17,1.11-1.13,1.18-1.31-.42-.12-1.05-.24-2-.14-2.58-.66.31-1.89.46-2.51.24Z"/>
      <path class="cls-1" d="M112.95,59.36c1.32-1.07-1.29-2.63-2.5-3.08.19,1.28,1.18,4.15,2.5,3.08Z"/>
      <path class="cls-1" d="M208.33,69.81c.12-6.47-3.77-14.39-7.62-17.47-.96-.77-2.05-1.56-3.24-2.35,2.18-.15,4.82-1.11,6.78-3.54.06,1.1,1.28,8.05,4.97,6.97-1.98-1.07-2.23-7.2-.37-11.76.34-.85.25-1.75-.81-1.33-2.37.96-4.96,5.73-8.03,6.65-3.06.92-7.45-3.03-9.12-3.79-1.68-.76-2.27-1.33-4.96-.37,2.31.38,3.01,1.32,3.59,1.74.24.17.81.8,1.49,1.57.01.01.02.02.04.04t.01.02c-.09-.05-.19-.09-.28-.15h-.01c-1.53-.77-4.07-1.87-5.56-2.07-2.93,3.62-8.56,6.49-16.31,7.57-.48,1.13-1.06,3.12-1.64,5.24.5-2.37.85-4.1,1.13-5.14.12-.45-.15-.91-.6-1.03s-.91.15-1.03.6c-.3,1.12-.67,2.95-1.19,5.49-.87,4.23-2.08,10.01-3.88,17.46-2.8,11.48-10.37,38.95-18.66,53.37-7.64,13.32-9.15,22.41-7.71,32.88,0,.01.01.01.01.02-.47.39-.93.8-1.3,1.2-.35-.4-.81-.81-1.29-1.2v-.02c1.44-10.47-.06-19.56-7.71-32.88-8.28-14.42-15.85-41.89-18.64-53.37-1.82-7.45-3.01-13.24-3.88-17.46-.53-2.54-.91-4.37-1.2-5.49-.12-.45-.58-.72-1.02-.6-.45.12-.72.58-.6,1.03.27,1.04.64,2.77,1.12,5.14-.57-2.11-1.16-4.11-1.64-5.24-7.75-1.07-13.38-3.94-16.31-7.57-1.61.24-4.38,1.46-5.84,2.22.68-.79,1.29-1.46,1.54-1.63.58-.41,1.28-1.36,3.59-1.74-2.7-.97-3.28-.39-4.96.37-1.68.76-6.06,4.71-9.13,3.79-3.06-.92-5.64-5.69-8.03-6.65-1.05-.41-1.15.48-.8,1.33,1.87,4.56,1.61,10.69-.37,11.76,3.7,1.09,4.91-5.87,4.97-6.97,1.96,2.43,4.59,3.39,6.77,3.54-1.18.79-2.27,1.58-3.24,2.35-3.85,3.08-7.73,11-7.62,17.47-1.35-3.27-5.05-6.56-7.76-5.58,3.06,2.55,6.46,8.9,7.73,14.68,1.28,5.77,3.41,21.02,16.58,40.43-6.01-2.55-7.8-2.95-8.43-.35-.73,3.01,11.77,13.18,27.01,22.48,7.33,4.49,17.99,11.94,20.11,13.45-12.82-4.85-27.65-11.42-43.14-24.89-.54-1.51-.74-2.14-.74-2.14l-5.43-2.66,2.48,5.54,2.48.7s9.02,8.77,19.99,14.78c-9.13-1.5-19.33-2.43-21.56,1.1-2.23,3.52,1.11,2.94,2.62,1.79,1.5-1.16,9.35-1.74,18.02.11,8.65,1.85,35.22,11.78,39.85,14.22-2.31,2.2-3.93,2.76-7.51,1.62-3.59-1.16-3.24-2.94-2.54-2.89,1.19.08,1.65-1.58.57-2.5-1.63-1.41-4.27-.27-4.04,1.7.24,1.96,2.31,6.69,12.48,6.23-3.93,3.58-6.69,10.89-5.43,15.02,1.22,3.98,4.95,6.29,8.5,3.03-1.11.3-1.89.12-2.34-.37-.89-.94-.66-2.41-.73-3.71-.12-1.97.55-9.26,5.53-12.33,4.97,3.07,5.64,10.35,5.53,12.33-.07,1.3.15,2.76-.72,3.71-.46.48-1.24.66-2.35.37,3.55,3.26,7.3.94,8.5-3.03,1.26-4.13-1.5-11.44-5.43-15.02,10.17.46,12.24-4.27,12.48-6.23.24-1.97-2.41-3.11-4.04-1.7-1.09.92-.63,2.59.58,2.5.68-.05,1.04,1.74-2.55,2.89-3.58,1.15-5.2.58-7.51-1.62,4.63-2.43,31.19-12.36,39.85-14.22,8.67-1.84,16.52-1.26,18.03-.11,1.5,1.15,4.84,1.72,2.61-1.79-2.23-3.53-12.43-2.6-21.56-1.1,10.98-6.01,19.99-14.78,19.99-14.78l2.48-.7,2.48-5.54-5.43,2.66s-.2.63-.74,2.14c-15.49,13.47-30.32,20.04-43.14,24.89,2.11-1.51,12.78-8.96,20.11-13.45,15.24-9.3,27.75-19.47,27.01-22.48-.63-2.6-2.42-2.2-8.43.35,13.17-19.41,15.3-34.65,16.58-40.43,1.28-5.77,4.68-12.13,7.73-14.68-2.7-.98-6.4,2.31-7.76,5.58ZM108.74,90.66c-2.28-1.92-5.45-4.29-8.7-3.97,3.41,1.68,10.46,10.51,11.59,14.46,1.94,6.6,4.17,13.32,6.65,19.17-7.06-4.04-26.07-17.71-29.27-24.05,8.24,2.6,7.97-6.12,5.37-8.19-2.6-2.08-3.93-.64-4.27.58-.34,1.2,1.44,2.88,3,.98,1.74.8,2.61,5.42-2.48,5.08-5.08-.34-8.49-9.65-9.53-16.46-1.04-6.81,1.37-13.01,8.15-13.74,5.12-.55,10.11,3.34,15.93,11.69.92,3.8,2.11,8.86,3.57,14.45ZM103.39,68.67c.13.58.27,1.18.4,1.78-1.79-2.44-5.35-6.02-11.43-7.37-10.99-2.46-13.58,8.25-13.58,16.62-3.34-8.55,1.97-18.18,10.21-18.36,7.64-.17,12.08,3.68,14.39,7.32ZM69.06,99.92c4.55,11.09,23.08,28.68,27.39,30.98-.2-1.24-.37-2.08-.52-4.56.91,2.54,3.24,8.15,4.92,10.61-3.46-2.85-13.4-9.78-18.55-13.55-1.94-3.39-8.7-12.4-13.25-23.48ZM71.84,122.09c-1.55-1.69.31-3.22,7.08,1.16,6.77,4.39,14.64,8.61,23.86,19.33-14.7-7.43-29.41-18.79-30.95-20.49ZM131.44,159.43c-.37-.26-.7-.5-.93-.67-2.09-1.59-12.78-8.09-23.57-18.25-10.78-10.17-9.78-16.32-10.7-22.41-2.39,1.24-2.01,5.01-2.01,8.32-6.54-3.78-14.24-13.4-19.64-20.49-5.38-7.08-14.39-29.88-12.01-36.97,2.39-7.08,6.78-8.93,18.5-13.44-3.59-.8-7.72-1.19-12.88.48,13.09-11.72,29.26-.83,30.36,0,1.02.78,1.26,1.65,3.34,6.01.02.07.04.15.05.22-5.97-6.67-24.57-8.54-28.74,1.95-4.46,11.24-.09,22.17,6.95,30.34,7.01,8.11,28.12,22.46,41.27,32.46.24.44.47.86.72,1.29.65,1.13,1.25,2.22,1.82,3.29,1,3.87,2.02,9.6.17,11.63-.83.89-2.08,1.48-3.54,1.35-2.16-.2-4.43-3.28-5.36-4.89-1.51-2.63,1.82-3.84,2.28-4.66,1.11-2.01-2.23-3.7-3.54-4.16-.97-.34-3.08-.81-4.51,1.81-.84,1.56-.02,5.38,1.55,8.09,1.88,3.25,5.31,5.96,8.93,6.47,4.85.66,6.26-1.44,7.29-2.55.81-.89,1.18-2.03,1.29-3.27,2.29,6.19,3.06,11.65,2.93,18.04ZM164.7,68.67c2.31-3.64,6.75-7.49,14.38-7.32,8.25.18,13.57,9.81,10.21,18.36,0-8.37-2.57-19.08-13.57-16.62-6.08,1.35-9.63,4.92-11.44,7.37.14-.6.28-1.2.41-1.78ZM156.45,101.16c.57-1.97,2.62-5.17,4.95-8.09,2.34-2.9,4.95-5.54,6.65-6.38-3.24-.32-6.42,2.04-8.7,3.97,1.46-5.6,2.66-10.65,3.57-14.45,5.83-8.35,10.8-12.24,15.94-11.69,6.77.73,9.19,6.93,8.15,13.74-1.05,6.81-4.45,16.12-9.54,16.46-5.08.34-4.22-4.27-2.48-5.08,1.56,1.9,3.35.22,3-.98-.34-1.22-1.66-2.66-4.26-.58-2.61,2.08-2.87,10.79,5.36,8.19-3.19,6.34-22.21,20.01-29.27,24.05,2.49-5.86,4.71-12.57,6.65-19.17ZM196.24,122.09c-1.53,1.7-16.25,13.06-30.95,20.49,9.22-10.72,17.1-14.94,23.86-19.33,6.78-4.38,8.63-2.85,7.08-1.16ZM185.78,123.4c-5.16,3.78-15.1,10.71-18.56,13.55,1.69-2.47,4.01-8.08,4.92-10.61-.15,2.48-.32,3.32-.52,4.56,4.31-2.3,22.85-19.9,27.39-30.98-4.55,11.09-11.31,20.1-13.24,23.48ZM193.48,105.93c-5.4,7.08-13.09,16.71-19.64,20.49,0-3.32.38-7.08-2.01-8.32-.92,6.09.08,12.24-10.7,22.41-10.78,10.17-21.48,16.66-23.57,18.25-.22.18-.56.41-.92.67-.13-6.39.64-11.85,2.92-18.04.12,1.24.48,2.39,1.3,3.27,1.02,1.11,2.43,3.21,7.27,2.55,3.62-.51,7.06-3.22,8.94-6.47,1.56-2.7,2.38-6.53,1.53-8.09-1.42-2.62-3.54-2.15-4.5-1.81-1.31.46-4.66,2.15-3.54,4.16.46.83,3.78,2.03,2.27,4.66-.92,1.61-3.2,4.69-5.35,4.89-1.46.13-2.73-.46-3.54-1.35-1.85-2.03-.84-7.76.15-11.63.58-1.07,1.17-2.16,1.83-3.29.24-.43.47-.85.71-1.29,13.15-10,34.25-24.35,41.27-32.46,7.06-8.17,11.43-19.1,6.95-30.34-4.16-10.48-22.76-8.62-28.74-1.95.02-.08.04-.15.05-.22,2.09-4.36,2.34-5.23,3.34-6.01,1.1-.83,17.26-11.72,30.36,0-5.16-1.68-9.29-1.29-12.88-.48,11.72,4.51,16.12,6.35,18.5,13.44,2.38,7.08-6.62,29.88-12.01,36.97Z"/>
      <path class="cls-1" d="M69.14,44.74c.04.38-.2.71-.51.83-.43.14-.9.05-1.17-.27t-.02-.02c-.14-.19-.28-.43-.42-.68-1.28-2.36-7.63-9.53-16.35-5.17-9.48,4.75-12.13,17.53-11.89,29.9.22,12.36,10.91,33.67,14.66,38.93-.58-2.72-1.78-8.01,1.23-10.13,3.13-2.2,7.63-1,9.86,2.5,2.1,3.28.46,5.2-.98,5.31s-2.66-1.04-1.68-3.7c-.17-1.1-5.14-5.31-6.93-.58-1.78,4.73,3.53,13.68,7.29,19l2.48.68.76,3.53-3.53-.54s-.57-1.74-.79-2.92c-10.78-9.25-21.78-30.96-24.33-49.78-1.51-11.24,1.29-28.87,13.06-34.43,10.51-4.96,18.35,4.7,19.21,7.29.02.09.06.18.07.26Z"/>
      <path class="cls-1" d="M198.97,44.74c-.04.38.2.71.51.83.43.14.9.05,1.17-.27l.02-.02c.14-.19.28-.43.43-.68,1.28-2.36,7.63-9.53,16.35-5.17,9.48,4.75,12.13,17.53,11.89,29.9-.22,12.36-10.91,33.67-14.66,38.93.58-2.72,1.78-8.01-1.23-10.13-3.13-2.2-7.63-1-9.86,2.5-2.1,3.28-.46,5.2.98,5.31s2.66-1.04,1.68-3.7c.17-1.1,5.14-5.31,6.93-.58,1.78,4.73-3.53,13.68-7.29,19l-2.48.68-.76,3.53,3.53-.54s.57-1.74.79-2.92c10.78-9.25,21.78-30.96,24.33-49.78,1.51-11.24-1.29-28.87-13.06-34.43-10.51-4.96-18.35,4.7-19.21,7.29-.02.09-.06.18-.07.26Z"/>
      <path class="cls-1" d="M134.04,54.59h.01c3.73-1.22,5.2-8.02.95-7.13.93-1.66-.13-2.88-.95-3.4h-.01c-.82.51-1.88,1.74-.95,3.4-4.25-.89-2.78,5.91.95,7.13Z"/>
      <path class="cls-1" d="M124.68,50.83c.37,1.09,1.47,3.6,2.49,4.71,1.34.26,2.88.33,4.35.23-.23-1.25-3.67-4.55-6.84-4.94Z"/>
      <path class="cls-1" d="M69.5,74.19c-.32.02-.57.29-.55.62.38,7.03,3.06,13.03,7,18.36-.21-.15-.42-.29-.65-.42-.28-.16-1.31-.83-1.5-.29-.1.31.7,1.22.98,1.38,1.57.9,5.25,4.69,5.25,4.69,0,0,4.75,3.99,5.74,6.53.33.84.53,1.99.85,1.99h.02c.33-.01.57-1.05.35-2.02-.05-.21-.11-.4-.17-.58,1.42,1.21,2.87,2.39,4.33,3.55,7.75,6.13,15.01,11.19,19.81,14.55,1.97,1.38,3.53,2.46,4.54,3.22.1.08.23.12.35.12.18,0,.35-.08.47-.24.19-.26.14-.63-.12-.82-1.03-.77-2.59-1.86-4.57-3.24-4.79-3.35-12.03-8.4-19.76-14.51-10.86-8.58-21.01-18.43-21.76-32.34-.02-.32-.29-.58-.62-.55Z"/>
      <path class="cls-1" d="M85.18,71.8c-2.72,1.22-2.37,3.46-1.58,4.7.16.25.81,1.14,1.58,1,.96-.17.69-1.4.85-1.66.31-.52,1.33-.59,1.41-2.29.05-1.19-1.31-2.18-2.25-1.75Z"/>
      <path class="cls-1" d="M58.73,65.55c.36-1.99.68-3.88,1.57-5.98-.77.64-1.76,1.53-2.44,2.88-.58-.69-2.41-1.26-3.79-.79,1.98.79,3.28,2.21,4.66,3.89Z"/>
      <path class="cls-1" d="M69.51,64.62c.11-.22.08-.48-.09-.66-.16-.18-.43-.24-.65-.15-2.55,1.02-4.21,3.67-4.8,7.65l-.06.33c-.26,1.45-.96,5.32,1.91,11,.15.29.5.41.79.26.29-.15.4-.5.26-.79-2.69-5.34-2.07-8.79-1.8-10.27l.06-.36c.39-2.62,1.26-4.57,2.56-5.76-2.77,7.38-1.15,18.07,4.1,25.78.11.17.3.26.48.26.11,0,.23-.03.33-.1.27-.18.34-.55.15-.81-5.38-7.9-6.8-19.49-3.24-26.37Z"/>
      <path class="cls-1" d="M59.73,113.35c0,.62.5,1.13,1.13,1.13s1.13-.5,1.13-1.13-.5-1.13-1.13-1.13-1.13.5-1.13,1.13Z"/>
      <path class="cls-1" d="M51.19,63.44c-.01-1.37-.18-2.36-.31-3.25-1.58-.37-4.2-.88-5.38-1.59.89,1.05,1.81,3.55,2.42,5.06.91-.01,1.91,0,3.26-.21Z"/>
      <path class="cls-1" d="M51.22,63.43s-.02,0-.03,0c0,.01,0,.02,0,.03l.03-.03Z"/>
      <path class="cls-1" d="M52.13,116.56c.17,0,.34-.06.48-.17.37-.28.44-.8.16-1.17-.59-.78-3.83-5.77-5.98-9.2-.24-.39-.76-.51-1.15-.26-.39.25-.51.76-.26,1.15,2.21,3.53,5.44,8.49,6.06,9.32.17.22.43.34.69.33Z"/>
      <path class="cls-1" d="M44.93,104.23c.46-.29.57-.94.24-1.45-.32-.51-.96-.69-1.42-.4-.46.29-.57.94-.24,1.45s.96.69,1.42.4Z"/>
      <path class="cls-1" d="M118.12,179.96c.05-2.45-2.33-2.59-2.99-1.28-.75,1.49.23,4.11,3.68,3.24,2.94-.74,1.98-4.56.93-4.27.36,1.23-.16,2.06-1.62,2.31Z"/>
      <path class="cls-1" d="M98.7,182.95c-4.11-1.43-5.5,1.34-4.55,3.37.62,1.34,4.01,1.53,4.16-.92,1.43.36,1.44,1.37,1.44,2.49,1.41-.23,1.82-3.94-1.05-4.94Z"/>
      <path class="cls-1" d="M78.9,151.74l6.28,4.91s16.49,4.22,20.22,5.1c-4.22-3.83-22.18-10.6-26.5-10.01Z"/>
      <path class="cls-1" d="M89.89,179.23c-3.29-.7-8.8-6.19-10.83-9.53-7.85,1.7-35.21.07-45.28-14.85,4.45,3.53,28.27,17.14,47.9,10.34,2.75,4.58,7.17,12.44,11.75,10.74,4.58-1.7-.84-8.88-4.13-3.93-.02.05-.06.08-.08.13h-.01c-.7.71-1.32.17-1.32-.41v-.04c.09-.45.27-.97.54-1.44,1.51-2.66,8.82-3.12,9.48,3.32.53,5.1-4.04,6.49-8.02,5.67Z"/>
      <path class="cls-1" d="M74.84,171.75c1.9.52,3.21,1.77,4.06,4.32,2.94-4.38-2.18-5.67-4.06-4.32Z"/>
      <path class="cls-1" d="M193.24,171.75c-1.9.52-3.21,1.77-4.06,4.32-2.94-4.38,2.18-5.67,4.06-4.32Z"/>
      <path class="cls-1" d="M23.57,113.88c-6.41-2.62-7.97-12.5-7.44-15.25.52-2.75,3.6-1.95,4.52-1.42.92.52,3.88,3.68,1.03,3.53-3.19-1.42-4.32,1.33-2.6,3.29,1.04,1.19,5.85.96,6.67-3.68.79-4.42-9.62-9.77-11.39-3.83-3.19,10.73,5.73,19.34,9.21,17.36Z"/>
      <path class="cls-1" d="M36.94,124.4c1.15,2.99,4.27,5.06,9.08,3.48,4.81-1.57,2.26-6.75-.29-5.69-1.84.76-1.28,2.85-.59,3.14-1.47,1.37-6.31-.1-8.2-.93Z"/>
      <path class="cls-1" d="M37.38,132.99c.79,2.75,3.04,4.47,4.22,3.09,1.18-1.37-.98-6.92-5.94-9.42-4.23-2.14-6.92-1.42-6.92-1.42,3.88,1.28,7.85,5.01,8.64,7.75Z"/>
      <path class="cls-1" d="M25.8,136.13c-7.72-5.37-21.07-8.77-24.47-3.66-3.4,5.1.26,10.99,5.24,12.56-1.18-2.75-1.18-7.07-2.09-8.38-4.97-2.09.72-5.37,9.55-3.99,8.55,1.33,24.28,14.51,24.15,20.01,2.22-5.76-4.65-11.17-12.37-16.54Z"/>
      <path class="cls-1" d="M6.41,126.95c1.82-.06,8.04,1.36,12.42,2.64,2.78,1.32,7.49,4.92,12.04,8.41,5.23,4,9.75,7.46,11.87,7.97.68.17,1.36.24,2.05.25,1.38,1.73,2.66,3.21,3.76,4.16,3.93,3.4,7.88,5.51,10.85,5.96,0,0,0,.01.02.02,4.71.88,5.68-1.36,4.45-3.12-.91-1.31-2.96-.51-2.96.34,0,.64-.26.97-.73,1.19-2.35-.14-6.19-1.9-10.53-5.65-.82-.71-1.78-1.77-2.81-3.03,1.18-.17,2.38-.46,3.61-.76,1.66-.41,3.37-.83,5.29-1.02,4.26-.43,10.92,8.82,12.8,16.05.1.38.44.63.81.63.07,0,.14,0,.21-.03.45-.12.72-.57.6-1.02-1.91-7.37-8.86-17.9-14.59-17.29-2.03.21-3.88.66-5.51,1.06-1.6.39-3.06.75-4.45.84-.92-1.18-1.89-2.46-2.87-3.77-2.8-3.72-5.7-7.57-8.12-9.71-3.47-3.08-9.73-3.91-15.25-4.65-.26-.03-.51-.07-.76-.1-3.17-2.72-6.8-4.47-9.28-5.09-3.66-.92-8.44.74-7.98,4.58.61,5.08,3.14,1.23,5.09,1.16ZM41.38,141.77c.67.89,1.34,1.77,1.98,2.62-.07-.02-.15-.02-.22-.04-1.78-.43-6.59-4.12-11.25-7.68-3.79-2.9-7.68-5.87-10.58-7.62-.23-.28-.48-.53-.72-.79,4.89.67,10.08,1.56,12.89,4.04,2.29,2.03,5.14,5.81,7.89,9.46Z"/>
      <path class="cls-1" d="M120.23,187.9c-.03-.46-.45-.8-.89-.78-2.17.15-4.02,1.05-5.15,2.47,0-.05.03-.09.04-.13.12-.68.09-1.47-.59-1.59-.68-.12-.82.89-.94,1.58-.2,1.14-2.52,1.16-4.2,1.06-1.76-.11-3.77-1.2-3.83-2.47-.03-.69-.63-1.23-1.31-1.19-.69.03-1.23.62-1.19,1.31.12,2.46,2.62,4.34,6.07,4.55.22.01.44.02.66.02,1.96,0,3.43-.44,4.35-1.33-.3,1.02-.39,2.34.11,3.99.11.36.44.6.8.6.08,0,.16-.01.24-.04.44-.13.69-.6.56-1.04-.49-1.62-.36-2.99.39-4.07.81-1.18,2.31-1.92,4.12-2.05.46-.03.81-.43.78-.89Z"/>
      <path class="cls-1" d="M134.04,6.28c.54,0,1.55-1.59,1.67-2.24.16-.92-.72-4.04-1.67-4.04s-1.83,3.12-1.67,4.04c.12.66,1.13,2.24,1.67,2.24Z"/>
      <path class="cls-1" d="M214.07,86.5l2.02.61.64,2.01c.17.54.9.65,1.22.18l1.2-1.73h2.11c.57.01.9-.64.55-1.1l-1.28-1.68.66-2c.18-.54-.34-1.05-.88-.87l-1.99.69-1.7-1.25c-.46-.34-1.11,0-1.1.57l.04,2.11-1.71,1.23c-.46.33-.34,1.05.2,1.22Z"/>
      <path class="cls-1" d="M202.88,140.4c-.92-1.44-3.66-1.77-4.64-1.37-.98.39-3.89,2.55-3.26,3.65.79,1.37,4.5.27,5.62.3,1.52.05,3.2-1.14,2.28-2.58Z"/>
      <path class="cls-1" d="M46.82,87.58h2.11s1.2,1.72,1.2,1.72c.33.47,1.05.36,1.22-.18l.64-2.01,2.02-.61c.55-.16.67-.89.2-1.22l-1.71-1.23.04-2.11c.01-.57-.64-.91-1.1-.57l-1.7,1.25-1.99-.69c-.54-.19-1.06.32-.88.87l.66,2-1.28,1.68c-.35.45-.02,1.11.55,1.11Z"/>
      <path class="cls-1" d="M73.11,142.67c.63-1.1-2.28-3.26-3.26-3.65-.98-.39-3.72-.07-4.64,1.37-.92,1.44.76,2.63,2.28,2.58,1.12-.04,4.83,1.07,5.62-.3Z"/>
      <path class="cls-1" d="M120.97,46.25c-2.7-4.56-15.71-14.55-26.32-17.71-10-2.98-18.71-2.38-19.25,5.47-.5,7.32,6.75,6.69,5.81,1.89l.46.11c1.3.3,2.64.62,5.8.69,0,0,.01,0,.02,0,.45,0,.83-.36.84-.82.01-.46-.35-.85-.82-.86-2.7-.06-3.94-.3-5.1-.56.09-.51.31-1.16.52-1.65h0c.23-.59-.03-1.11-.48-1.24-.43-.12-.83.13-1.1.72-.26.63-.53,1.42-.61,2.15-1.39-3.77,1.29-4.53,4.21-4.55,3-.03,13.84,2.02,20.46,5.98,5.82,3.48,12.18,7.49,13.65,9.63,1.56,2.27,2.91,2.46,1.91.77Z"/>
      <path class="cls-1" d="M147.1,46.25c2.7-4.56,15.71-14.55,26.32-17.71,10-2.98,18.71-2.38,19.25,5.47.5,7.32-6.75,6.69-5.81,1.89l-.46.11c-1.3.3-2.64.62-5.8.69,0,0-.01,0-.02,0-.45,0-.83-.36-.84-.82-.01-.46.35-.85.82-.86,2.7-.06,3.94-.3,5.1-.56-.09-.51-.31-1.16-.52-1.65h0c-.23-.59.03-1.11.48-1.24.43-.12.83.13,1.1.72.26.63.53,1.42.61,2.15,1.39-3.77-1.29-4.53-4.21-4.55-3-.03-13.84,2.02-20.46,5.98-5.82,3.48-12.18,7.49-13.65,9.63-1.56,2.27-2.91,2.46-1.91.77Z"/>
      <path class="cls-1" d="M90.35,37.75c-.58-2.63-1.68-2.1-1.26,0,.4,2.1,3.4,8.29,3.58,9.15-.05.19-.57-.07-.97-.25-.51-.34-1-.72-1.44-1.13-.22-.41-.5-.91-.68-1.44h-.01s0,0,0,0c0,0,0,0,0,0-.01-.04-.02-.07-.04-.11,0,0,0-.01,0-.02-.06-.17-.11-.32-.15-.51-.03-.13-.07-.27-.1-.44-.74-.2-1.92-.43-2.9-.47-.54-.02-1.13,0-1.74.06-.38.03-.77.06-1.16.1,0,0,0,0,0,0,0,0,0,0,0,0,.18.17.44.47.63.69.06.08.12.14.16.18.05.06.08.12.14.17.01.01.02.02.02.04,1.13,1.25,4.5,3.35,6.05,3.97,1.87.75,5.34,1.84,7.77,2.51h.01l.25.05s.06.01.08.01c-3.94-4.79-7.64-9.93-8.22-12.56Z"/>
      <path class="cls-1" d="M177.75,37.75c.58-2.63,1.68-2.1,1.26,0-.4,2.1-3.4,8.29-3.58,9.15.05.19.57-.07.97-.25.51-.34,1-.72,1.44-1.13.22-.41.5-.91.68-1.44h.01s0,0,0,0c0,0,0,0,0,0,.01-.04.02-.07.04-.11,0,0,0-.01,0-.02.06-.17.11-.32.15-.51.03-.13.07-.27.1-.44.74-.2,1.92-.43,2.9-.47.54-.02,1.13,0,1.74.06.38.03.77.06,1.16.1,0,0,0,0,0,0,0,0,0,0,0,0-.18.17-.44.47-.63.69-.06.08-.12.14-.16.18-.05.06-.08.12-.14.17-.01.01-.02.02-.02.04-1.13,1.25-4.5,3.35-6.05,3.97-1.87.75-5.34,1.84-7.77,2.51h-.01l-.25.05s-.06.01-.08.01c3.94-4.79,7.64-9.93,8.22-12.56Z"/>
      <path class="cls-1" d="M169.18,38c-1.09.66-6.62,4.2-12.72,8.16.21-2.89-3.52-3.78-5.84-.93-1.19,1.46.12,2.64,1.19,2.14,1.03-.48,2.02-1.58,2.14.43-5.34,3.48-10.7,7.02-13.6,9.05h-12.64c-2.89-2.02-8.26-5.57-13.6-9.05.12-2,1.11-.9,2.14-.43,1.08.5,2.39-.67,1.19-2.14-2.32-2.85-6.05-1.95-5.84.93-6.09-3.96-11.62-7.5-12.72-8.16-1.24-.75-2.29.37-.98,1.34,3.52,2.6,18.56,12.99,24.72,17.73,2.5,1.92,6.19,5.23,8.62,7.7,1.44,1.46,2.4,2.87,2.78,2.87.38,0,1.34-1.41,2.78-2.87,2.44-2.47,6.12-5.78,8.62-7.7,6.16-4.74,21.2-15.13,24.72-17.73,1.31-.97.26-2.09-.98-1.34ZM137.63,61.06c-.65.42-2.13,1.38-3.45,3.22h0s-.07.08-.12.08h-.02c-.06,0-.12-.04-.15-.09,0-.01-.01-.03-.01-.04-1.3-1.8-2.76-2.75-3.39-3.15-.06-.04-.1-.12-.08-.19.02-.07.07-.13.14-.13.25-.02.44-.03.65-.03,1.07,0,2,.32,2.85.98.85-.66,1.78-.98,2.85-.98.21,0,.4.01.55.02.07,0,.18.06.2.13.02.07.04.15-.02.19Z"/>
    </g>
  </g>
</svg>