<?xml version="1.0" encoding="UTF-8"?>
<svg id="_レイヤー_2" data-name="レイヤー_2" xmlns="http://www.w3.org/2000/svg" viewBox="0 0 1282.22 982.21">
  <defs>
    <style>
      .cls-1 {
        fill: #0f131e;
      }

      .cls-2 {
        fill: none;
        stroke: #0f131e;
        stroke-miterlimit: 10;
      }
    </style>
  </defs>
  <g id="_レイヤー_2-2" data-name="レイヤー_2">
    <g>
      <path class="cls-1" d="M665.06,105.13c-.24,0-.46-.06-.66-.18-.82-.51-.74-1.77.25-3.75h0c4.36-8.71,16.02-26.98,24.27-27.87,3-.33,5.26.31,6.73,1.9,1.58,1.7,1.8,4.12,1.51,5.67-.3,1.62-1.74,3.22-3.58,3.98-1.85.76-3.81.58-5.57-.52-3.98,2.68-15.05,12.43-19.48,18.33-.98,1.31-2.4,2.44-3.48,2.44ZM665.55,101.65c-.89,1.78-.71,2.39-.62,2.45.26.16,1.56-.35,2.81-2.01,4.67-6.23,16.13-16.26,20-18.75l.28-.18.27.19c1.54,1.06,3.28,1.27,4.91.6,1.52-.63,2.74-1.96,2.98-3.24.25-1.33.06-3.38-1.26-4.81-1.24-1.34-3.23-1.88-5.89-1.59-7.76.84-19.38,19.12-23.48,27.33h0Z"/>
      <path class="cls-1" d="M700.08,210.22c-.25,0-.49-.04-.72-.14-1.27-.51-1.62-2.26-.95-4.66,5.26-18.73,12.52-30.64,21.6-35.39,4.96-2.6,12.83-3.51,14.59-.83,1,1.52-.1,3.6-3.28,6.17-10.47,8.47-21.5,21.25-26.83,31.07h0c-1.27,2.34-2.99,3.78-4.4,3.78ZM729.77,168.6c-2.72,0-6.3.75-9.3,2.32-8.82,4.62-15.92,16.32-21.1,34.77-.62,2.2-.19,3.24.36,3.46.86.35,2.54-.75,3.87-3.19h0c5.39-9.92,16.52-22.82,27.08-31.37,2.6-2.1,3.72-3.87,3.07-4.84-.5-.76-2.01-1.15-3.99-1.15Z"/>
      <path class="cls-1" d="M646.84,624.85c-.62,0-1.28-.15-1.97-.5-2.37-1.19-2.05-4.23-.96-6.69.04-.11.09-.23.14-.33.05-.12.1-.22.12-.3.33-.61.65-1.13,1.03-1.66,80.54-105.6,124.52-320.64,136.08-384.03.09-.48.16-.9.23-1.25-1.67,1.12-3.51,2.33-5.52,3.66-12.51,8.25-31.42,20.71-57.33,41.81-39.66,32.27-72.26,64.31-74.08,66.52-.12.12-.21.19-.28.24-.07.06-.1.11-.13.14-.05.07-.09.12-.13.16-.15.15-.33.23-.46.29-.23.17-.49.3-.84.44-.24.12-.5.19-.74.25l-.12.02c-.12,0-.23.01-.34.03-.26.03-.54.04-.87,0-.11-.01-.22-.03-.31-.03l-.23-.04c-.22-.05-.48-.12-.72-.24-.21-.11-.45-.22-.69-.39-.15-.06-.31-.13-.46-.27-.14-.09-.23-.21-.29-.32-.11-.07-.23-.16-.33-.31-2.09-2.47-34.56-34.36-74.05-66.49-25.91-21.1-44.82-33.56-57.33-41.81-2.01-1.33-3.85-2.54-5.52-3.66.06.35.14.77.23,1.25,11.56,63.39,55.54,278.43,136.02,384.02.39.54.71,1.06,1,1.59.47.84,1.55,3.48.94,5.48-.26.87-.81,1.51-1.61,1.92-2,1.03-4.02.48-6.17-1.67-.15-.21-.25-.3-.34-.4-.71-.82-1.2-1.51-1.5-1.93l-.08-.11c-84.22-118.55-131.06-333.38-140.82-399.29-.53-3.91-.84-7.21.67-8.22,1.87-1.3,7.16,2.11,7.21,2.14,21.15,13.41,45.69,31.48,72.95,53.69,33.86,27.5,62.97,55.28,71.86,64.18,11.02-10.99,39.69-38.01,71.91-64.18,26.79-21.83,51.21-39.84,72.6-53.51l.3-.19s5.29-3.45,7.26-2.14c1.49,1.04,1.18,4.56.61,8.22-9.7,65.84-56.38,280.51-140.76,399.28l-.08.12c-.29.42-.79,1.11-1.47,1.9-.12.12-.21.21-.3.35l-.07.08c-1.04,1-2.5,2.17-4.24,2.17ZM782.95,227.92l-.23,1.19c-.07.37-.22,1.19-.45,2.42-11.57,63.45-55.6,278.68-136.26,384.44-.34.48-.65.96-.92,1.46,0,.03-.06.16-.12.31-.04.1-.09.2-.14.32-.32.72-1.76,4.28.49,5.4,1.58.81,3.14.36,5.04-1.46.12-.17.24-.3.37-.42.63-.72,1.1-1.39,1.39-1.79l.08-.12c84.27-118.62,130.9-333.08,140.59-398.85h0c.66-4.27.59-6.7-.19-7.25-.89-.59-4.24.87-6.15,2.15l-.3.19c-21.36,13.65-45.75,31.63-72.51,53.44-32.54,26.43-61.45,53.73-72.19,64.46l-.35.35-.35-.36c-8.44-8.49-37.84-36.61-72.13-64.46-27.22-22.19-51.73-40.23-72.86-53.63-1.92-1.28-5.25-2.75-6.11-2.16-1.12.75-.55,4.98-.24,7.25,9.76,65.84,56.54,280.46,140.65,398.85l.08.11c.28.4.76,1.07,1.41,1.83.11.11.24.24.38.44,1.77,1.75,3.36,2.23,4.94,1.41.56-.29.92-.72,1.11-1.32.51-1.66-.48-4.01-.86-4.7-.27-.5-.58-.98-.93-1.48-80.6-105.75-124.63-320.98-136.2-384.43-.22-1.23-.37-2.04-.45-2.42l-.23-1.19,1,.68c1.92,1.3,4.09,2.72,6.5,4.32,12.53,8.26,31.46,20.74,57.41,41.87,39.72,32.32,72.39,64.44,74.22,66.66l.06.09s.02-.02.06,0l.15.07.08.15s.03.07.05.1c.12.09.15.12.28.16l.14.07c.19.14.39.24.6.35.14.07.33.12.51.16l.06.02c.11,0,.23.02.36.03.24.03.46.02.65,0,.12-.01.25-.03.38-.03.19-.05.36-.09.52-.17.31-.13.49-.22.66-.35l.19-.1s.13-.06.16-.08c.07-.11.14-.19.23-.28.04-.04.09-.08.16-.13.04-.02.08-.05.12-.1,1.8-2.18,34.47-34.31,74.19-66.62,25.95-21.13,44.89-33.61,57.41-41.87,2.41-1.59,4.58-3.02,6.5-4.31l1.01-.68Z"/>
      <path class="cls-1" d="M652.72,522.21l.46-1.39c5.15-15.63,9.1-28.04,10.21-31.77,1.46-4.91,4.65-7.97,12.67-12.12,8.3-4.3,19.79-10.79,25.5-14.93,2.36-4.8,3.33-9.25,3.48-15.83.05-2.11,1.57-3.03,2.98-3.03,1.54.02,3.18,1.14,3.18,3.18,0,8.93-1.42,16.64-4.1,22.3l-.07.11c-.62.73-5.03,3.84-12.18,8.85-7.79,5.46-16.61,11.65-18.7,13.69-7.54,15.74-10.63,20.88-13.38,25.16l-.08.12-.13.06c-2.75,1.32-5.7,2.81-8.63,4.79l-1.21.82ZM707.98,444.12c-.88,0-1.91.54-1.94,2.06-.15,6.7-1.21,11.44-3.64,16.36l-.05.11-.1.07c-5.73,4.16-17.35,10.74-25.73,15.08-7.74,4.01-10.81,6.92-12.17,11.52-1.08,3.63-4.84,15.44-9.77,30.44,2.54-1.61,5.05-2.88,7.43-4.02,2.71-4.23,5.8-9.4,13.28-25.01l.1-.14c2.04-2.04,11-8.32,18.89-13.86,5.5-3.86,11.19-7.85,11.95-8.64,2.6-5.52,3.97-13.06,3.97-21.8,0-1.42-1.1-2.17-2.19-2.18h-.02Z"/>
      <path class="cls-1" d="M744.64,285.81c-1.02,0-2.05-.41-3.06-1.23h0c-1.49-1.21-2.12-2.64-1.86-4.24.8-4.91,9.73-9.76,13.93-11.34l.8-.3-.13.84c-.65,4.26-3.61,14.2-8.21,15.98-.49.19-.98.29-1.48.29ZM753.19,270.27c-4.46,1.86-11.84,6.3-12.48,10.24-.2,1.24.29,2.32,1.5,3.3h0c1.21.98,2.37,1.24,3.54.79,3.72-1.44,6.54-9.58,7.43-14.33Z"/>
      <path class="cls-1" d="M659.33,267.74c-2.05,0-4.11-.07-6.18-.21l-.56-.04.1-.55c1.19-6.39,17.97-22.17,33.12-24.02l.79-.1-.26.75c-1.62,4.77-6.89,17.1-11.99,22.69l-.11.12-.16.03c-4.42.86-9.51,1.31-14.75,1.31ZM653.82,266.57c7,.42,14.04.03,19.91-1.09,4.47-4.99,9.42-15.94,11.4-21.45-14.29,2.21-29.44,16.7-31.31,22.54Z"/>
      <path class="cls-1" d="M728.02,602.65c-1.03,0-2.02-.49-2.64-1.32-.53-.71-.75-1.58-.62-2.45.13-.87.58-1.64,1.29-2.17,4.87-3.63,12.22-8.77,21.53-15.28l.44-.3c22.87-15.98,57.44-40.13,94.29-69.25,51.81-40.93,100.24-87.93,103.82-154.18.05-.9.46-1.75,1.14-2.35.66-.57,1.49-.85,2.34-.77.86.05,1.67.43,2.26,1.09s.89,1.5.84,2.38c-1.63,30.11-12.07,58.19-31.9,85.77.27-.16.53-.32.79-.47l.37-.22c1.5-.88,4.61-2.73,6.39-2.07.54.2.93.61,1.13,1.2.64,1.88-3.54,6.4-4.92,7.19-7.35,4.23-24.79,22.15-24.96,22.33-.26.22-22.71,19.17-27.34,31.03-.5,1.27-.93,2.69-1.35,4.06-1.03,3.36-1.77,5.79-3.17,5.79h-.11c-.33-.01-.8-.15-1.25-.75-1.15-1.5-1.82-5.57-.91-9.53.09-.41.2-.8.3-1.17-6.08,5.16-12.44,10.35-19.39,15.84-36.98,29.22-71.62,53.42-94.55,69.44l-.32.22c-9.34,6.53-16.73,11.69-21.54,15.28-.57.43-1.26.66-1.97.66ZM949.34,355.56c-.52,0-1.02.19-1.42.54-.48.42-.77,1.01-.8,1.64-3.6,66.64-52.21,113.84-104.2,154.91-36.88,29.14-71.46,53.3-94.34,69.29l-.43.3c-9.3,6.5-16.65,11.64-21.5,15.26-.49.37-.81.9-.9,1.51-.09.61.07,1.21.43,1.71.74.98,2.24,1.2,3.22.47,4.83-3.6,12.21-8.76,21.56-15.3l.32-.22c22.92-16.01,57.55-40.21,94.5-69.41,7.44-5.88,14.2-11.42,20.67-16.94l1.36-1.16-.56,1.7c-.27.82-.56,1.72-.79,2.73-.82,3.56-.28,7.37.73,8.7.17.22.34.35.47.35h.09c.66,0,1.59-3.06,2.21-5.08.43-1.39.87-2.83,1.38-4.13,4.71-12.1,26.66-30.62,27.59-31.4.68-.71,17.67-18.17,25.14-22.46,1.43-.82,4.83-4.94,4.47-6-.1-.3-.27-.48-.53-.58-1.33-.5-4.38,1.31-5.53,1.99l-.38.22c-1,.58-2,1.22-3.05,1.97l-2.56,1.82,1.86-2.52c20.78-28.14,31.69-56.75,33.35-87.48.03-.61-.17-1.2-.58-1.66s-.97-.73-1.59-.76c-.07,0-.13,0-.2,0Z"/>
      <path class="cls-1" d="M875.44,371.43c-.29,0-.58-.02-.88-.08-3.72-.67-3.98-4.32-4.14-6.51-.05-.7-.1-1.41-.25-1.66-.39-.65-1.07-1.16-1.87-1.76-1.96-1.47-4.65-3.47-4.92-9.41-.13-2.96,1.48-5.95,4.21-7.8,2.39-1.62,5.1-2.02,7.26-1.05,5.36,2.41,8.73,5.81,10.01,10.11,1.22,4.09.38,8.97-2.25,13.07-.57.9-3.46,5.09-7.18,5.09ZM872.33,343.65c-1.36,0-2.82.48-4.18,1.4-2.44,1.66-3.89,4.32-3.77,6.93.25,5.46,2.62,7.23,4.52,8.65.84.63,1.64,1.23,2.13,2.05.26.45.32,1.17.38,2.1.16,2.14.37,5.06,3.32,5.6,3.59.65,6.69-4.03,7.03-4.56,2.47-3.85,3.27-8.43,2.13-12.24-1.19-4.01-4.38-7.2-9.46-9.48-.65-.29-1.37-.44-2.11-.44Z"/>
      <path class="cls-1" d="M1000.75,314.92l-.42-2.32c-1.64-9.1-3.19-17.69-7.26-27.2l-.81-1.9,1.59,1.32c3.93,3.26,8.33,7.38,11.46,13.3,3.41-3.31,11.84-5.52,18.18-3.41l1.29.43-1.26.51c-9.44,3.79-15.58,10.59-22.08,18.44l-.69.83ZM994.78,286.93c3.53,8.86,4.99,16.96,6.53,25.5l.04.21c6.03-7.24,11.88-13.53,20.46-17.34-6.37-1.44-13.91,1.23-16.24,4.02l-.49.59-.34-.68c-2.67-5.31-6.41-9.19-9.96-12.28Z"/>
      <path class="cls-1" d="M936.38,440.22c-.67,0-1.31-.2-1.86-.57-1.5-1.02-1.89-3.08-.87-4.59h0c25.6-37.62,32.38-92.76,15.44-125.53-.63-1.22-.44-2.72.49-3.73.93-1.02,2.41-1.35,3.68-.84,12.34,4.96,20.39,17.74,23.26,36.94l.27,1.57c1.26,7.01,4.59,25.6-9.18,52.9-.82,1.61-2.81,2.27-4.43,1.46-1.62-.83-2.28-2.82-1.46-4.44,12.79-25.35,9.84-41.76,8.58-48.77l-.3-1.75c-1.7-11.33-5.22-19.95-10.48-25.67,12.4,35.85,4.16,85.45-20.41,121.57-.61.9-1.63,1.44-2.73,1.44ZM952.03,305.73c-.64,0-1.26.26-1.71.75-.64.71-.78,1.75-.34,2.6,17.09,33.07,10.28,88.66-15.5,126.55h0c-.71,1.05-.44,2.48.61,3.2,1.01.69,2.51.41,3.2-.61,24.88-36.58,32.91-87.06,19.54-122.77l-.74-1.97,1.54,1.42c6.31,5.82,10.47,15.18,12.36,27.82l.3,1.73c1.28,7.11,4.26,23.75-8.67,49.39-.57,1.13-.11,2.52,1.02,3.09,1.13.56,2.52.1,3.09-1.02,13.61-27,10.33-45.35,9.09-52.26l-.28-1.6c-2.82-18.84-10.65-31.34-22.65-36.17-.28-.11-.57-.17-.85-.17Z"/>
      <path class="cls-1" d="M990.9,548.1c-3.24,0-5.88-2.64-5.88-5.88s2.64-5.88,5.88-5.88,5.88,2.64,5.88,5.88-2.64,5.88-5.88,5.88ZM990.9,537.34c-2.69,0-4.88,2.19-4.88,4.88s2.19,4.88,4.88,4.88,4.88-2.19,4.88-4.88-2.19-4.88-4.88-4.88Z"/>
      <polygon class="cls-1" points="1037.58 305.17 1035.68 302.95 1037.02 303.16 1036.95 303.65 1037.07 303.17 1037.52 303.21 1037.59 303.67 1037.58 305.17"/>
      <path class="cls-1" d="M1053.01,305.19l-1.55-.02c-4.01-.05-8.55-.11-14.44-1.01l-.43-.07v-.43c.05-5.95.71-10.44,1.3-14.4l.23-1.56.33-.08c1.18-.28,2.47-.57,3.84-.87,7.19-1.61,17.03-3.82,21.71-6.66l2.65-1.61-2.01,2.36c-3.54,4.16-7.29,13.53-10.02,20.36-.52,1.31-1.02,2.55-1.48,3.67l-.13.31ZM1037.59,303.24c5.61.83,10,.88,13.88.93h.87c.42-1.02.87-2.15,1.35-3.33,2.55-6.38,5.65-14.13,8.83-18.84-5.15,2.4-13.3,4.23-20.01,5.73-1.24.28-2.42.54-3.5.79l-.13.88c-.57,3.83-1.21,8.16-1.28,13.83Z"/>
      <path class="cls-1" d="M1032.7,558.04s-.08,0-.12,0c-.94-.02-1.83-.34-2.59-.9-1.98-1.49-2.37-4.32-.88-6.31,2.83-3.75,18.31-27.56,28.56-43.92,1.31-2.1,4.1-2.74,6.2-1.42h0c1.02.64,1.73,1.64,2,2.81.27,1.17.07,2.38-.57,3.4-10.57,16.87-26.02,40.61-29,44.56-.86,1.13-2.19,1.79-3.6,1.79ZM1061.49,505.8c-1.17,0-2.31.58-2.97,1.64-10.26,16.38-25.77,40.23-28.61,43.99-1.16,1.54-.85,3.75.69,4.91.59.44,1.28.69,2.01.7,1.13.03,2.21-.49,2.9-1.39,2.97-3.93,18.39-27.64,28.95-44.49.5-.79.66-1.73.45-2.64s-.76-1.69-1.55-2.18h0c-.58-.36-1.22-.53-1.85-.53Z"/>
      <path class="cls-1" d="M1069.29,499.77c-.9,0-1.79-.24-2.58-.74-1.18-.75-1.96-1.96-2.21-3.41s.08-2.93.9-4.22,2.03-2.21,3.43-2.61c1.42-.4,2.85-.21,4.03.54,1.18.75,1.96,1.96,2.21,3.41.24,1.43-.08,2.93-.89,4.22-1.14,1.8-3.03,2.81-4.88,2.81ZM1070.28,489.59c-.39,0-.78.06-1.17.17-1.16.33-2.18,1.1-2.86,2.18h0c-.68,1.08-.95,2.33-.75,3.52.19,1.17.82,2.14,1.75,2.73,1.95,1.24,4.68.45,6.08-1.76.68-1.08.95-2.33.75-3.52-.19-1.17-.82-2.14-1.76-2.73-.61-.39-1.31-.59-2.05-.59Z"/>
      <path class="cls-1" d="M720.07,871.27c-1.81,0-3.89-.25-6.25-.84-4.76-1.2-8.05-4.28-9.26-8.68-1.3-4.73.06-9.68,2.13-11.74.91-.91,1.92-1.24,2.93-.96l.49.14-.14.48c-.79,2.7-.65,4.94.42,6.66,1.12,1.79,3.25,3.01,6.34,3.63.07-5.13,2.42-8.74,6.35-9.71,3.55-.89,7.29.8,8.91,3.99,1.98,3.92,1.43,9.06-1.33,12.52-1.5,1.88-4.67,4.51-10.58,4.51ZM708.85,849.96c-.59.03-1.1.41-1.45.76-1.83,1.81-3.06,6.45-1.88,10.77.78,2.86,2.9,6.56,8.54,7.97h0c7.06,1.77,12.67.59,15.81-3.33,2.53-3.16,3.03-7.86,1.22-11.44-1.41-2.78-4.67-4.24-7.77-3.47-3.6.9-5.69,4.39-5.59,9.34v.6s-.58-.1-.58-.1c-3.69-.62-6.25-2.03-7.6-4.19-1.15-1.84-1.38-4.16-.69-6.9Z"/>
      <path class="cls-1" d="M805.53,899.07l-.58-.09c-2.93-.48-5.17-3.84-5.56-8.37-.49-5.62,1.96-13.24,10.48-16.21h0c12.38-4.31,18.3-.44,20.73,2.26,3.37,3.74,4.01,9.44,1.63,14.54-1.69,3.6-7.33,5.71-12.58,4.7-4.74-.91-7.7-4.05-8.19-8.65-5.93,1.74-5.93,6.16-5.93,11.24v.59ZM810.2,875.34c-7.98,2.77-10.27,9.91-9.81,15.17.33,3.74,1.96,6.58,4.15,7.33.01-4.99.3-10,7.26-11.73l.59-.15.03.6c.25,4.44,2.96,7.48,7.43,8.34,4.75.91,10-.98,11.48-4.14,2.21-4.73,1.64-10-1.46-13.44-2.26-2.51-7.82-6.1-19.66-1.98h0Z"/>
      <path class="cls-1" d="M776.2,774.47l1.44-1.3c20.48-18.57,105.99-50.85,127.07-47.98l1.17.16-31.14,24.28c-.79.2-79.02,20.22-96.65,24.4l-1.89.45ZM901.8,726.02c-23.79,0-100.46,29.14-121.92,46.55,20.51-4.95,91.38-23.08,94.51-23.88l28.96-22.62c-.49-.03-1.01-.05-1.55-.05Z"/>
      <path class="cls-1" d="M842.06,858.62c-8.74,0-16.58-2.48-21.7-7.09-5.57-5.02-8.02-12.49-7.09-21.6,1.34-13.07,8.78-21.98,20.4-24.45,10.36-2.2,21.98,1.56,25.9,8.39,1.3,2.32,2.24,4.82,2.65,7.04v.26c0,1.68-.94,3.21-2.36,3.81-.86.37-2.63.68-4.74-1.36-.25-.25-.45-.5-.65-.83-4.26-6.42-9.78-9.09-15.52-7.49-6.16,1.72-11.39,8.28-11.66,14.63-.21,5.03,2.66,8.91,8.09,10.92,20.46,7.59,40.4-25.79,53.6-47.88l2.16-3.6.38.13c95.59,33.11,209.91-34.64,228.46-49.35l2.54-2.01-1.81,2.69c-26.36,39.01-75.73,57.15-112.51,65.5-41.67,9.46-83.77,10.06-104.07,5.77-9.91,16.09-35.87,42.08-51.94,45.46-3.44.72-6.84,1.06-10.12,1.06ZM839.82,805.85c-1.98,0-3.98.2-5.94.61-11.17,2.37-18.32,10.96-19.62,23.57-.91,8.91,1.37,15.89,6.77,20.76,6.8,6.13,18.66,8.35,30.95,5.79,15.67-3.3,42.03-29.76,51.48-45.31l.19-.3.35.08c20.06,4.34,62.22,3.78,103.99-5.7,35.79-8.12,83.54-25.54,110.12-62.52-24.71,17.84-134.2,79.45-226.52,47.76l-1.74,2.91c-13.37,22.38-33.57,56.19-54.8,48.31-7.91-2.94-8.87-8.72-8.74-11.9.29-6.86,5.73-13.7,12.39-15.55,3.59-1,10.52-1.3,16.64,7.92.17.28.32.47.5.66,1.25,1.21,2.55,1.62,3.65,1.16,1.04-.44,1.76-1.63,1.76-2.89v-.17c-.38-2.03-1.28-4.42-2.53-6.64-2.98-5.2-10.76-8.52-18.88-8.52Z"/>
      <path class="cls-1" d="M1174.6,546.62c-2.14,0-4.08-.47-5.77-1.43l-.89-.51.95-.39c29.86-12.19,37.9-58.5,35.27-72.32-.73-3.84-2.6-6.48-5.56-7.85-5.33-2.45-12.73-.08-15.28,1.38-3.48,1.99-11.43,10.44-10.34,14.13.4,1.35,2.09,1.96,5.05,1.83,6.66-2.94,12.33-2.39,15.19,1.48,2.94,3.99,2.01,10.18-2.26,15.06h0c-2.62,2.99-9.31,3.94-15.56,2.19-9.12-2.54-15.39-9.84-17.21-20.03-2.25-12.68,14.19-26.83,29.84-30.53,12.85-3.04,22.41,1.44,25.55,12.01,9.94,33.4-4.53,63.71-22.18,77.73-5.97,4.74-11.88,7.23-16.8,7.23ZM1170.27,544.79c5.2,2.22,12.76-.04,20.5-6.19,17.39-13.82,31.65-43.71,21.84-76.66-4.29-14.41-18.46-12.72-24.36-11.32-15.23,3.61-31.25,17.23-29.09,29.39,2.47,13.91,12.35,18.09,16.49,19.24,6.49,1.81,12.49.46,14.54-1.89h0c3.96-4.53,4.87-10.21,2.21-13.81-2.57-3.48-7.83-3.9-14.06-1.12l-.18.04c-3.54.19-5.61-.67-6.16-2.54-1.34-4.56,7.64-13.47,10.81-15.28,2.81-1.61,10.47-4.07,16.2-1.42,3.26,1.5,5.32,4.39,6.12,8.57,2.64,13.86-5.34,59.99-34.87,73Z"/>
      <path class="cls-1" d="M1076.9,614.81c-4.56,0-9.63-.81-15.25-2.65-7.36-2.4-12-6.91-13.07-12.69-.93-5.06,1.09-10.6,5.02-13.79,2.97-2.4,6.54-3.01,9.8-1.66h0c3.94,1.63,6.21,4.83,6.24,8.79.02,2.8-1.15,5.57-2.75,6.76,7.02,5.26,28.07-.55,38.11-4.99l1.1-.49-.43,1.12c-4,10.37-13.41,19.59-28.77,19.6ZM1059.88,584.3c-1.95,0-3.88.73-5.65,2.16-3.66,2.97-5.54,8.12-4.67,12.83,1,5.4,5.4,9.64,12.4,11.92,23.2,7.58,36.95-2.71,42.32-15.24-10.04,4.19-31.69,10.32-38.59,3.88l-.56-.52.7-.3c1.37-.59,2.83-3.13,2.81-6.22-.01-2.08-.76-5.86-5.62-7.87h0c-1.03-.43-2.09-.64-3.14-.64Z"/>
      <path class="cls-1" d="M1087.71,653.67c-2,0-3.77-.84-5.18-2.49-1.63-1.9-2.05-5.35-1.18-9.71,2.26-11.3,12.52-27.42,29.71-36.1,20.18-10.19,32.9-6.98,33.43-6.84l1.62.43-1.6.53c-17.6,5.79-37.12,23.3-40.96,36.72-2.5,8.76-8.46,16.02-14.16,17.26-.58.13-1.14.19-1.69.19ZM1138.59,598.99c-5.59,0-15.03,1.2-27.07,7.28-16.14,8.15-26.9,23.98-29.18,35.41-.81,4.05-.47,7.2.96,8.86h0c1.54,1.8,3.58,2.48,5.9,1.97,5.37-1.17,11.01-8.14,13.41-16.56,3.85-13.47,22.12-30.23,39.75-36.75-.93-.11-2.2-.2-3.77-.2Z"/>
      <path class="cls-1" d="M1099.9,733l-1.03-2.68c-10.81-27.98,21.88-53.64,59.29-79.64,26.26-18.25,70.23-33.93,98.36-28.58,9,1.71,15.5,5.48,19.31,11.2,6.66,9.99,8.18,21.59,4.27,32.68-4.59,13.04-15.91,23.81-29.56,28.12l-1.04.33.43-1c2.81-6.57,4.23-15.12,5.47-22.67,1.26-7.65,2.35-14.26,4.59-17.45l.08-.12.13-.06c6.29-2.65,9.26-5.84,8.37-8.98-1.99-7-23.4-13.87-53.76-9.14-18.72,2.91-46.7,18.33-73.02,40.23-25.77,21.45-42.25,43-41.96,54.88l.07,2.87ZM1244.61,622.08c-25.24,0-60.37,11.7-85.88,29.43-36,25.01-67.59,49.67-59.74,76.08,3.82-28.14,76.23-87.42,115.67-93.56,29.4-4.57,52.52,1.53,54.88,9.86.6,2.13.25,6.26-8.81,10.12-2.05,3.06-3.11,9.49-4.34,16.92-1.19,7.23-2.53,15.37-5.12,21.89,12.89-4.42,23.52-14.74,27.89-27.16,3.8-10.78,2.32-22.08-4.16-31.79h0c-3.66-5.49-9.94-9.12-18.67-10.77-3.57-.68-7.51-1-11.72-1Z"/>
      <path class="cls-1" d="M950.38,770.3c-.38,0-.76-.05-1.13-.15-1.16-.3-2.14-1.03-2.75-2.07-.61-1.04-.78-2.25-.48-3.41,9.18-35.42,42.74-85.88,70.26-83.02,9.69.99,18.54,3.16,26.34,5.08,7.45,1.83,14.43,3.55,20.99,4,4.43-5.67,9.08-11.84,13.57-17.81,13.39-17.79,27.24-36.18,38.85-46.46,16.71-14.8,46.68-18.81,73.13-22.34l3.53-.48c16.07-13.77,33.48-21.6,44.42-24.34,11.69-2.92,25.08-.36,32.57,6.23,4.82,4.24,6.96,9.85,6.21,16.2-.85,7.12-2.51,11.08-5.22,12.44-3.11,1.56-6.87-.6-10.85-2.89-2.96-1.71-6.03-3.47-8.75-3.56-8.58-.26-38.09,6.41-59.19,12.59-13.21,6.26-35.68,23.46-57.4,40.1-25.05,19.18-46.66,35.72-56.93,38.2-3.01.73-6.17,1.12-9.65,1.19-7.54,9.46-13.22,15.73-17.86,19.74-18.42,15.91-37.34,26.31-51.95,28.57h0s-.1.09-.1.09l-.13.02c-15.61,2.93-21.03-1.42-22.88-4.27-2.06-3.19-1.65-7.46,1.11-11.44,2.6-3.75,6.9-4.03,10.06-3.04,2.99.94,5.01,2.93,5.01,4.96,0,2.61.93,4.16,3.11,5.16,12.72-.82,31.36-10.85,49.9-26.86,3.39-2.93,7.59-7.43,12.81-13.75-5.19-.79-10.32-2.01-16.42-3.51-7.91-1.94-16.09-3.95-25.19-4.88-20.11-2.06-51.73,41.97-60.63,76.33-.51,1.99-2.3,3.37-4.35,3.37ZM1013.98,682.53c-26.6,0-58.13,48.26-66.98,82.39-.24.91-.1,1.85.37,2.65.47.8,1.23,1.38,2.14,1.61,1.92.51,3.79-.68,4.26-2.51,9-34.71,41.15-79.17,61.7-77.07,9.17.94,17.38,2.96,25.32,4.9,6.42,1.58,11.76,2.85,17.21,3.63l.88.13-.56.69c-5.6,6.81-9.89,11.43-13.5,14.55-18.76,16.2-37.69,26.33-50.62,27.11h-.12s-.11-.04-.11-.04c-2.64-1.17-3.81-3.06-3.81-6.12,0-1.54-1.81-3.23-4.3-4.01-2.82-.88-6.64-.65-8.94,2.65-2.52,3.63-2.93,7.49-1.09,10.32,2.9,4.47,10.8,5.88,21.69,3.87,0,0,0,0,0,0l.11-.1.15-.02c14.46-2.17,33.27-12.51,51.62-28.36,4.62-3.99,10.31-10.28,17.88-19.79l.15-.19h.24c3.5-.05,6.66-.43,9.67-1.17,10.06-2.43,31.6-18.92,56.54-38.01,21.78-16.68,44.29-33.91,57.67-40.25,21.25-6.23,50.9-12.95,59.58-12.66,2.97.1,6.15,1.92,9.22,3.69,3.74,2.15,7.28,4.18,9.91,2.87,2.35-1.18,3.89-5,4.68-11.67.72-6.02-1.31-11.32-5.87-15.33-7.25-6.39-20.27-8.86-31.67-6.02-10.86,2.72-28.15,10.5-44.12,24.22l-.11.1-3.83.52c-26.3,3.52-56.12,7.5-72.6,22.1-11.53,10.21-25.35,28.57-38.72,46.32-4.55,6.05-9.26,12.3-13.75,18.03l-.16.21-.26-.02c-6.73-.43-13.83-2.18-21.36-4.03-7.84-1.93-16.65-4.09-26.28-5.07-.73-.08-1.47-.11-2.21-.11ZM1073.28,691.33l.82-1.07c3.01-3.92,6.08-8.01,9.2-12.15l.28-.37c13.17-17.49,26.78-35.56,37.77-45.29,13.52-11.97,37.98-16.17,61.87-19.45l1.37-.19-.93,1.02c-.36.39-.72.78-1.08,1.17-.78.83-1.58,1.69-2.32,2.59l-.13.11c-14.09,8.49-33.44,23.3-50.51,36.38h0l-.3-.4.28.42c-22.27,17.05-45.29,34.68-53.91,36.76-.21.05-.42.08-.64.12-.15.02-.3.05-.45.08l-1.32.28ZM1181.98,614.18c-23.3,3.23-46.91,7.46-59.96,19.02-10.91,9.66-24.49,27.69-37.62,45.13l-.29.38c-2.85,3.78-5.65,7.51-8.41,11.11,8.61-2.31,31.32-19.7,53.29-36.52l.33.38-.3-.4c17.06-13.07,36.4-27.87,50.53-36.39.74-.9,1.54-1.75,2.3-2.57.04-.05.09-.09.13-.14Z"/>
      <path class="cls-1" d="M638.78,982.21c-.63,0-1.22-.21-1.75-.63-2.31-1.83-2.99-7.37-3.19-10.5-1.22-19.01-14.52-38.19-33.12-47.73-11.59-5.94-23.93-5.97-29.64-2.97-2.36,1.24-2.81,2.49-2.93,3.44-.7,5.31.43,6.83.67,7.08.47.5,1.72.72,3.42.6,1.71-.13,3.38.41,4.7,1.54,1.33,1.14,2.14,2.71,2.27,4.45.27,3.57-2.41,6.7-5.98,6.97-7.27.58-11.54-2.2-13.85-4.63-3.76-3.97-5.14-9.92-4.11-17.71.74-5.62,4.21-10.33,9.78-13.25,10.46-5.49,27.57-4.29,41.61,2.92,19.18,9.84,30.24,30.74,34.44,47.78,4.21-17.05,15.26-37.94,34.45-47.78,14.04-7.22,31.16-8.42,41.61-2.92,5.57,2.92,9.04,7.63,9.78,13.25,1.03,7.78-.35,13.74-4.11,17.71-2.3,2.43-6.58,5.21-13.85,4.63-3.57-.27-6.25-3.4-5.98-6.97.13-1.73.94-3.31,2.27-4.45,1.32-1.13,2.99-1.67,4.71-1.54,1.7.12,2.94-.1,3.42-.6.23-.25,1.37-1.76.67-7.07-.13-.95-.58-2.21-2.93-3.44-5.72-2.99-18.05-2.97-29.65,2.97-18.59,9.54-31.9,28.73-33.12,47.73-.2,3.14-.88,8.67-3.19,10.5-.67.53-1.42.73-2.24.59-.7-.12-1.3-.31-1.83-.58-.53.27-1.13.46-1.83.58-.17.03-.33.04-.49.04ZM581.06,917.42c5.99,0,13.2,1.48,20.12,5.03,18.89,9.7,32.42,29.21,33.66,48.56.15,2.39.73,8.13,2.81,9.78.44.35.91.48,1.45.39.69-.11,1.26-.31,1.74-.59l.25-.15.25.15c.49.28,1.06.48,1.75.59.54.09,1.01-.04,1.46-.39,2.08-1.65,2.66-7.39,2.81-9.78,1.24-19.35,14.76-38.86,33.66-48.56,11.89-6.1,24.62-6.08,30.57-2.97,2.79,1.47,3.31,3.1,3.46,4.2.72,5.46-.41,7.34-.93,7.89-.88.94-2.78,1.02-4.22.92-1.45-.12-2.86.34-3.98,1.3-1.13.96-1.81,2.3-1.92,3.76-.23,3.02,2.04,5.67,5.06,5.9,6.88.55,10.89-2.05,13.05-4.32,3.54-3.74,4.83-9.42,3.85-16.89-.69-5.29-3.98-9.73-9.25-12.5h0c-10.19-5.35-26.92-4.15-40.69,2.93-19.67,10.09-30.67,32.03-34.41,49.21l-.49,2.24-.49-2.24c-3.74-17.17-14.74-39.12-34.41-49.21-13.77-7.08-30.51-8.28-40.69-2.93-5.27,2.77-8.56,7.21-9.25,12.5-.99,7.47.31,13.15,3.85,16.89,2.15,2.27,6.17,4.87,13.04,4.32,3.02-.23,5.29-2.88,5.06-5.9-.11-1.46-.79-2.8-1.92-3.76-1.12-.96-2.53-1.42-3.98-1.3-1.44.1-3.34.02-4.22-.92-.52-.55-1.66-2.43-.93-7.89.15-1.1.66-2.73,3.46-4.2,2.48-1.3,6.15-2.06,10.44-2.06Z"/>
      <path class="cls-1" d="M736.23,937.7c-.44,0-.88-.06-1.3-.19-2.37-.72-3.72-3.23-3.01-5.6,2.29-7.6,1.69-14.01-1.79-19.05-3.79-5.49-10.83-8.98-19.31-9.57-1.2-.08-2.29-.63-3.08-1.54-.79-.91-1.18-2.07-1.09-3.26.17-2.48,2.26-4.3,4.79-4.18,9.63.67,18.16,4.49,23.74,10.56-.17-1.49-.12-2.76.15-3.8.46-1.77,1.58-2.86,3.24-3.15,3.58-.63,4.39,4.02,4.98,7.4l.1.55c.68,3.84,7.25,5.4,19.53,4.63,8.03-.51,17.58-5.56,17.86-11.31.08-1.73.85-3.32,2.14-4.5,1.29-1.17,2.95-1.76,4.66-1.68,3.58.17,6.35,3.23,6.17,6.81-.59,12.03-12.7,21.18-29.47,22.24-1.07.07-2.14.1-3.17.1-8.74,0-15.41-1.81-19.86-5.4,1.27,5.42.95,11.37-.97,17.73-.57,1.89-2.34,3.21-4.31,3.21ZM711.16,895.3c-1.86,0-3.4,1.4-3.53,3.26-.07.93.24,1.83.85,2.54.61.71,1.47,1.13,2.4,1.2,8.79.61,16.1,4.26,20.07,10,3.66,5.3,4.31,11.99,1.92,19.9-.55,1.85.5,3.8,2.34,4.36.33.1.66.15,1.01.15,1.53,0,2.91-1.03,3.35-2.49,2.05-6.81,2.23-13.13.54-18.78l-.56-1.86,1.39,1.36c4.22,4.13,11.09,6.23,20.42,6.23,1.01,0,2.06-.03,3.11-.1,16.24-1.03,27.97-9.79,28.53-21.29.15-3.03-2.2-5.61-5.22-5.76h0c-1.45-.07-2.85.43-3.94,1.42-1.1.99-1.74,2.34-1.81,3.8-.31,6.35-10.18,11.71-18.79,12.26-13.05.82-19.78-.97-20.58-5.46l-.1-.55c-.68-3.85-1.43-7.01-3.82-6.59-1.28.23-2.09,1.02-2.45,2.42-.3,1.17-.29,2.71.04,4.59.02.1.05.19.08.28.04.11.07.22.1.35l.44,2.07-1.32-1.66c-5.33-6.69-14.17-10.93-24.25-11.64-.07,0-.14,0-.2,0Z"/>
      <circle class="cls-1" cx="641.11" cy="125.12" r=".5"/>
      <path class="cls-2" d="M665.86,36.98c-15.8,4.06-24.77,19.3-24.77,25.22,0-2.99-2.26-8.24-6.43-13.32-4.23-5.02-10.38-9.88-18.34-11.91-15.8-4.06-26.64,18.4-11.96,35.32,14.73,16.93,30.13,39.95,36.74,52.82,6.66-12.87,22.01-35.89,36.74-52.82,14.73-16.93,3.89-39.39-11.96-35.32ZM667.73,68.47c-8.29,11.17-26.24,33.46-26.63,38.82-.17-2.71-4.74-9.59-10.33-17.21-5.59-7.67-12.13-16.03-16.25-21.61-8.46-11.46-7.45-18.51-3.89-20.65,6.55-3.84,25.05,14.95,25.62,26.52.23,5.47.9,10.55,1.75,14.33.06.23.11.45.17.68.51,1.19,1.64,1.98,2.93,1.98s2.43-.79,2.93-1.92c.17-.35.28-1.3.28-1.3.79-3.67,1.41-8.52,1.69-13.77.56-11.57,19.07-30.36,25.56-26.52,3.61,2.14,4.63,9.2-3.84,20.65Z"/>
      <path class="cls-1" d="M617.16,105.13c-1.08,0-2.5-1.13-3.48-2.44-4.42-5.9-15.49-15.65-19.47-18.33-1.76,1.1-3.72,1.28-5.57.52-1.84-.76-3.28-2.36-3.58-3.98-.29-1.55-.07-3.97,1.51-5.67,1.47-1.59,3.74-2.23,6.73-1.9,8.25.89,19.91,19.17,24.27,27.87.99,1.98,1.08,3.24.25,3.75-.2.12-.42.18-.66.18ZM594.19,83.16l.28.18c3.87,2.49,15.33,12.52,20,18.75,1.25,1.66,2.55,2.17,2.81,2.01.09-.06.27-.67-.62-2.45-4.1-8.21-15.72-26.49-23.48-27.33-2.67-.29-4.65.25-5.89,1.59-1.32,1.43-1.5,3.48-1.26,4.81.24,1.28,1.46,2.61,2.98,3.24,1.63.67,3.37.46,4.91-.6l.27-.19Z"/>
      <path class="cls-1" d="M582.14,210.22c-1.42,0-3.13-1.43-4.4-3.78-5.33-9.82-16.37-22.6-26.83-31.07h0c-3.18-2.57-4.28-4.65-3.28-6.17,1.76-2.68,9.63-1.77,14.59.83,9.07,4.75,16.34,16.66,21.6,35.39.67,2.4.32,4.14-.95,4.66-.23.09-.47.14-.72.14ZM551.54,174.6c10.56,8.54,21.69,21.44,27.08,31.37,1.33,2.44,3.01,3.54,3.87,3.19.55-.22.98-1.26.36-3.46-5.18-18.46-12.28-30.16-21.1-34.77-5.19-2.72-12.11-2.97-13.29-1.17-.64.98.48,2.74,3.07,4.84h0Z"/>
      <path class="cls-1" d="M629.5,522.21l-1.21-.82c-2.93-1.99-5.88-3.48-8.63-4.79l-.13-.06-.08-.12c-2.75-4.27-5.84-9.41-13.38-25.16-2.09-2.04-10.91-8.22-18.69-13.68-7.15-5.01-11.56-8.12-12.19-8.86l-.07-.11c-2.68-5.66-4.1-13.37-4.1-22.3,0-2.04,1.64-3.17,3.17-3.18,1.36.01,2.93.93,2.98,3.03.15,6.58,1.13,11.03,3.48,15.83,5.72,4.14,17.21,10.63,25.51,14.93,8.02,4.16,11.22,7.22,12.67,12.12,1.1,3.7,5.05,16.09,10.21,31.77l.46,1.39ZM620.22,515.75c2.37,1.14,4.89,2.41,7.43,4.02-4.37-13.3-8.52-26.23-9.77-30.44-1.36-4.6-4.44-7.51-12.17-11.52h0c-8.38-4.35-20.01-10.92-25.73-15.08l-.1-.07-.05-.11c-2.43-4.91-3.49-9.65-3.64-16.36-.04-1.53-1.1-2.09-1.97-2.06-1.09.01-2.19.77-2.19,2.18,0,8.75,1.37,16.28,3.97,21.8.76.79,6.45,4.78,11.96,8.64,7.9,5.54,16.85,11.81,18.89,13.85l.1.14c7.47,15.61,10.57,20.78,13.28,25.01Z"/>
      <path class="cls-1" d="M519.55,283.19c-1.63,0-2.94-1.68-3.34-4.3-.27-1.76-.48-3.45-.68-5.07-.73-5.85-1.48-11.89-5.17-23.78-.24-1.18.26-2.3,1.28-2.91.93-.56,2.03-.5,2.81.14,6.42,5.29,16.66,11.46,23.02,12.48,1.15.18,1.92.97,2.02,2.04.13,1.4-.96,3.35-3.66,4.31h0c-2.95,1.06-8.25.46-11.57-.8.26,2.73-.2,6.64-.72,11.09l-.06.48c-.54,4.61-2.36,6.28-3.89,6.31-.01,0-.03,0-.04,0ZM512.99,247.74c-.31,0-.6.1-.84.24-.49.3-1,.95-.83,1.81,3.7,11.92,4.46,18.01,5.19,23.9.21,1.7.41,3.3.68,5.05.31,2.05,1.3,3.47,2.38,3.45,1.14-.02,2.48-1.71,2.91-5.43l.06-.48c.54-4.68,1.06-9.09.61-11.68l-.16-.94.87.4c2.96,1.38,8.69,2.16,11.63,1.11h0c2.1-.75,3.1-2.22,3-3.28-.06-.63-.48-1.03-1.18-1.15-6.53-1.05-16.98-7.33-23.5-12.7-.26-.21-.54-.29-.82-.29Z"/>
      <path class="cls-1" d="M762.67,283.19s-.03,0-.04,0c-1.53-.03-3.35-1.7-3.89-6.31l-.05-.46c-.52-4.46-.97-8.37-.72-11.1-3.32,1.26-8.62,1.85-11.57.8h0c-2.7-.96-3.79-2.91-3.66-4.31.1-1.08.87-1.86,2.02-2.04,6.36-1.02,16.61-7.2,23.02-12.48.78-.64,1.88-.7,2.81-.14,1.02.61,1.52,1.74,1.29,2.87-3.69,11.93-4.45,17.98-5.18,23.82-.2,1.63-.41,3.31-.68,5.08-.4,2.62-1.71,4.3-3.34,4.3ZM759.23,263.66l-.16.94c-.45,2.59.07,7.02.61,11.7l.05.46c.43,3.72,1.77,5.41,2.91,5.43,1.09.04,2.06-1.4,2.38-3.45.27-1.75.47-3.35.68-5.05.73-5.89,1.49-11.98,5.2-23.95.16-.81-.35-1.46-.84-1.76-.44-.27-1.11-.39-1.66.05-6.52,5.37-16.97,11.65-23.5,12.7-.7.11-1.12.52-1.18,1.15-.1,1.06.9,2.53,3,3.28h0c2.94,1.05,8.67.27,11.63-1.11l.87-.4Z"/>
      <path class="cls-1" d="M537.58,285.81c-.49,0-.98-.1-1.48-.29-4.64-1.8-7.54-11.54-8.21-15.98l-.13-.84.8.3c4.2,1.58,13.14,6.43,13.93,11.34.26,1.6-.37,3.03-1.86,4.24-1.01.82-2.03,1.23-3.05,1.23ZM529.03,270.27c.9,4.75,3.71,12.89,7.44,14.33,1.17.45,2.33.2,3.54-.79h0c1.21-.98,1.7-2.06,1.5-3.3-.64-3.94-8.02-8.38-12.48-10.24Z"/>
      <path class="cls-2" d="M996.15,334.14c.56-30.92-18-68.79-36.4-83.52-4.57-3.67-9.82-7.45-15.46-11.23,10.44-.73,23.02-5.3,32.39-16.93.28,5.25,6.09,38.48,23.76,33.29-9.48-5.14-10.67-34.42-1.75-56.2,1.64-4.06,1.18-8.35-3.89-6.38-11.34,4.57-23.7,27.37-38.37,31.77-14.62,4.4-35.61-14.5-43.56-18.11-8.01-3.61-10.83-6.38-23.7-1.75,11.06,1.81,14.39,6.32,17.16,8.3,1.13.79,3.89,3.84,7.11,7.51.06.06.11.11.17.17q0,.06.06.11c-.45-.23-.9-.45-1.35-.73h-.06c-7.34-3.67-19.47-8.92-26.58-9.88-13.99,17.32-40.91,31.04-77.93,36.17-2.31,5.42-5.08,14.9-7.84,25.05,2.37-11.34,4.06-19.58,5.42-24.55.56-2.14-.73-4.35-2.88-4.91-2.14-.56-4.34.73-4.91,2.88-1.41,5.36-3.22,14.11-5.7,26.24-4.18,20.2-9.93,47.85-18.56,83.46-13.37,54.85-49.55,186.16-89.16,255.06-36.51,63.65-43.73,107.1-36.85,157.16,0,.06.06.06.06.11-2.26,1.86-4.46,3.84-6.21,5.76-1.69-1.92-3.89-3.89-6.15-5.76v-.11c6.88-50.05-.28-93.5-36.85-157.16-39.56-68.9-75.73-200.21-89.1-255.06-8.69-35.61-14.39-63.26-18.56-83.46-2.54-12.13-4.35-20.88-5.76-26.24-.56-2.14-2.76-3.44-4.85-2.88-2.14.56-3.44,2.77-2.88,4.91,1.3,4.97,3.05,13.26,5.36,24.55-2.71-10.1-5.53-19.64-7.84-25.05-37.02-5.14-63.93-18.85-77.93-36.17-7.67,1.13-20.93,7-27.93,10.61,3.27-3.78,6.15-7,7.34-7.79,2.77-1.98,6.09-6.49,17.15-8.3-12.92-4.63-15.69-1.86-23.7,1.75-8.01,3.61-28.95,22.52-43.62,18.11-14.62-4.4-26.97-27.2-38.37-31.77-5.02-1.98-5.47,2.31-3.84,6.38,8.92,21.78,7.67,51.07-1.75,56.2,17.66,5.19,23.48-28.05,23.76-33.29,9.37,11.62,21.95,16.2,32.33,16.93-5.64,3.78-10.83,7.56-15.46,11.23-18.4,14.73-36.96,52.59-36.4,83.52-6.43-15.63-24.15-31.37-37.07-26.69,14.62,12.19,30.87,42.55,36.96,70.14,6.09,27.59,16.31,100.44,79.23,193.21-28.72-12.19-37.3-14.11-40.29-1.69-3.5,14.39,56.26,62.98,129.11,107.44,35.04,21.44,86,57.05,96.1,64.27-61.28-23.19-132.16-54.57-206.19-118.95-2.6-7.22-3.55-10.21-3.55-10.21l-25.96-12.7,11.85,26.47,11.85,3.33s43.11,41.93,95.54,70.65c-43.62-7.17-92.38-11.62-103.04,5.25-10.67,16.82,5.3,14.05,12.53,8.58,7.17-5.53,44.69-8.3,86.11.51,41.36,8.86,168.33,56.32,190.45,67.94-11.06,10.5-18.79,13.2-35.89,7.73-17.15-5.53-15.46-14.05-12.13-13.83,5.7.4,7.9-7.56,2.71-11.96-7.79-6.72-20.43-1.3-19.3,8.13,1.13,9.37,11.06,32,59.65,29.79-18.79,17.1-32,52.03-25.96,71.78,5.81,19.02,23.64,30.08,40.63,14.5-5.3,1.41-9.03.56-11.17-1.75-4.23-4.51-3.16-11.51-3.5-17.72-.56-9.42,2.65-44.24,26.41-58.91,23.76,14.67,26.97,49.49,26.41,58.91-.34,6.21.73,13.2-3.44,17.72-2.2,2.31-5.93,3.16-11.23,1.75,16.99,15.57,34.87,4.51,40.63-14.5,6.04-19.75-7.17-54.68-25.96-71.78,48.59,2.2,58.52-20.43,59.65-29.79,1.13-9.42-11.51-14.84-19.3-8.13-5.19,4.4-2.99,12.36,2.77,11.96,3.27-.23,4.97,8.3-12.19,13.83-17.1,5.47-24.83,2.77-35.89-7.73,22.12-11.62,149.09-59.08,190.45-67.94,41.42-8.8,78.94-6.04,86.17-.51,7.17,5.47,23.14,8.24,12.47-8.58-10.67-16.87-59.42-12.41-103.04-5.25,52.48-28.72,95.54-70.65,95.54-70.65l11.85-3.33,11.85-26.47-25.96,12.7s-.96,2.99-3.56,10.21c-74.04,64.39-144.91,95.76-206.19,118.95,10.1-7.22,61.06-42.83,96.1-64.27,72.85-44.47,132.61-93.05,129.11-107.44-2.99-12.41-11.57-10.5-40.29,1.69,62.92-92.77,73.13-165.62,79.23-193.21,6.09-27.59,22.35-57.95,36.96-70.14-12.92-4.68-30.58,11.06-37.07,26.69ZM520.16,433.79c-10.89-9.2-26.07-20.48-41.59-18.96,16.31,8.01,50,50.22,55.41,69.13,9.25,31.54,19.92,63.65,31.77,91.64-33.74-19.3-124.6-84.64-139.89-114.95,39.39,12.41,38.09-29.23,25.68-39.16-12.41-9.93-18.79-3.05-20.43,2.77-1.64,5.76,6.88,13.77,14.33,4.68,8.3,3.84,12.47,25.9-11.85,24.26-24.26-1.64-40.57-46.1-45.54-78.66-4.97-32.56,6.55-62.19,38.94-65.68,24.49-2.65,48.3,15.97,76.12,55.87,4.4,18.17,10.1,42.32,17.04,69.07ZM494.6,328.66c.62,2.77,1.3,5.64,1.92,8.52-8.58-11.68-25.56-28.78-54.62-35.21-52.54-11.74-64.89,39.44-64.89,79.45-15.97-40.86,9.42-86.9,48.81-87.75,36.51-.79,57.73,17.61,68.79,34.99ZM330.56,478.03c21.73,52.99,110.32,137.07,130.92,148.07-.96-5.93-1.75-9.93-2.48-21.78,4.35,12.13,15.46,38.94,23.53,50.73-16.53-13.6-64.05-46.72-88.65-64.78-9.25-16.2-41.59-59.25-63.31-112.24ZM343.82,584.01c-7.39-8.07,1.47-15.41,33.86,5.53,32.33,20.99,69.97,41.14,114.04,92.38-70.25-35.49-140.57-89.78-147.9-97.91ZM628.68,762.44c-1.75-1.24-3.33-2.37-4.46-3.22-9.99-7.62-61.06-38.65-112.63-87.24-51.52-48.59-46.72-77.99-51.13-107.1-11.4,5.93-9.59,23.93-9.59,39.78-31.26-18.06-68.05-64.05-93.84-97.91-25.73-33.86-68.79-142.82-57.39-176.68,11.4-33.86,32.39-42.66,88.42-64.22-17.15-3.84-36.9-5.7-61.56,2.31,62.58-56.03,139.83-3.95,145.08,0,4.85,3.72,6.04,7.9,15.97,28.72.11.34.17.73.23,1.07-28.55-31.88-117.43-40.8-137.35,9.31-21.33,53.72-.45,105.97,33.24,145.02,33.52,38.77,134.42,107.33,197.22,155.12,1.13,2.09,2.26,4.12,3.44,6.15,3.1,5.42,5.98,10.61,8.69,15.74,4.8,18.51,9.65,45.88.79,55.58-3.95,4.23-9.93,7.05-16.93,6.43-10.33-.96-21.16-15.69-25.62-23.36-7.22-12.58,8.69-18.34,10.89-22.29,5.3-9.59-10.67-17.66-16.93-19.86-4.63-1.64-14.73-3.89-21.56,8.63-4.01,7.45-.11,25.73,7.39,38.65,8.97,15.52,25.39,28.5,42.66,30.92,23.19,3.16,29.91-6.88,34.82-12.19,3.89-4.23,5.64-9.71,6.15-15.63,10.95,29.57,14.61,55.7,13.99,86.22ZM787.64,328.66c11.06-17.38,32.28-35.78,68.73-34.99,39.44.85,64.84,46.89,48.81,87.75,0-40.01-12.3-91.19-64.84-79.45-29.06,6.43-46.05,23.53-54.68,35.21.68-2.88,1.35-5.76,1.97-8.52ZM748.2,483.96c2.71-9.42,12.53-24.72,23.64-38.65,11.17-13.88,23.64-26.47,31.77-30.47-15.46-1.52-30.7,9.76-41.59,18.96,7-26.75,12.7-50.9,17.04-69.07,27.88-39.9,51.63-58.52,76.18-55.87,32.33,3.5,43.9,33.12,38.94,65.68-5.02,32.56-21.27,77.03-45.6,78.66-24.26,1.64-20.14-20.43-11.85-24.26,7.45,9.09,16.03,1.07,14.33-4.68-1.64-5.81-7.96-12.7-20.37-2.77-12.47,9.93-13.71,51.58,25.62,39.16-15.24,30.3-106.14,95.65-139.89,114.95,11.91-27.99,22.51-60.1,31.77-91.64ZM938.36,584.01c-7.34,8.13-77.65,62.41-147.9,97.91,44.07-51.24,81.71-71.38,114.04-92.38,32.39-20.94,41.25-13.6,33.86-5.53ZM888.37,590.27c-24.66,18.06-72.17,51.18-88.71,64.78,8.07-11.79,19.19-38.6,23.53-50.73-.73,11.85-1.52,15.86-2.48,21.78,20.6-11,109.19-95.08,130.92-148.07-21.72,52.99-54.06,96.04-63.26,112.24ZM925.16,506.75c-25.79,33.86-62.58,79.85-93.84,97.91,0-15.86,1.81-33.86-9.59-39.78-4.4,29.12.39,58.52-51.13,107.1-51.52,48.59-102.65,79.62-112.63,87.24-1.07.85-2.65,1.98-4.4,3.22-.62-30.53,3.05-56.66,13.94-86.22.56,5.93,2.31,11.4,6.21,15.63,4.85,5.3,11.62,15.35,34.76,12.19,17.32-2.43,33.74-15.41,42.72-30.92,7.45-12.92,11.4-31.21,7.34-38.65-6.77-12.53-16.93-10.27-21.5-8.63-6.26,2.2-22.29,10.27-16.93,19.86,2.2,3.95,18.06,9.71,10.83,22.29-4.4,7.67-15.29,22.4-25.56,23.36-7,.62-13.04-2.2-16.93-6.43-8.86-9.71-4.01-37.07.73-55.58,2.77-5.14,5.59-10.33,8.75-15.74,1.13-2.03,2.26-4.06,3.39-6.15,62.86-47.8,163.7-116.36,197.22-155.12,33.74-39.05,54.62-91.3,33.24-145.02-19.86-50.11-108.8-41.19-137.35-9.31.11-.4.17-.73.23-1.07,9.99-20.82,11.17-25,15.97-28.72,5.25-3.95,82.5-56.03,145.08,0-24.66-8.01-44.41-6.15-61.57-2.31,56.03,21.56,77.03,30.36,88.43,64.22,11.4,33.86-31.66,142.82-57.39,176.68Z"/>
      <path class="cls-1" d="M313.93,597.87l-17.89-2.75-.1-.29c-.03-.08-2.68-8.22-3.76-13.83-25.29-21.74-51.17-57.89-72.89-101.84-22.2-44.9-37.63-93.3-43.45-136.27-3.99-29.68-1.22-64.32,7.42-92.67,7.51-24.67,23.2-57.25,55.28-72.4,17.94-8.46,35.9-8.96,53.39-1.49,21.91,9.37,36.5,28.77,39.11,36.6.05.2.1.36.15.52.08.26.17.53.21.81v.02c.18,1.91-.97,3.78-2.74,4.46-2.3.77-4.76.19-6.15-1.44l-.09-.08c-.68-.89-1.33-1.95-2.12-3.39-5.68-10.52-35.47-45.49-77.49-24.51-48.52,24.29-57.53,90.86-56.55,142.42,1.05,57.61,49.83,155.98,68.58,183.73-2.87-13.57-7.21-36.76,6.59-46.5,6.77-4.75,15.19-6.43,23.7-4.74,9.75,1.94,18.55,8.08,24.13,16.85,6.6,10.31,5.04,16.99,3.52,20.06-1.72,3.47-5.01,5.8-8.58,6.1-3.45.28-6.47-.93-8.29-3.32-1.76-2.32-3.24-6.79-.28-14.89-.67-3.18-9.71-11.73-18.39-12.65-6.33-.67-10.95,2.73-13.75,10.11-9.1,24.16,21.11,71,34.65,90.18l11.97,3.31,3.83,17.88ZM296.8,594.22l15.85,2.44-3.4-15.87-11.73-3.24-.1-.15c-13.58-19.22-44.17-66.58-34.88-91.26,3.71-9.8,10.09-11.25,14.79-10.75,9.05.97,18.74,9.95,19.3,13.62l.02.13-.04.12c-2.23,6.05-2.2,11.05.1,14.07,1.6,2.11,4.3,3.18,7.41,2.92,3.23-.26,6.21-2.39,7.77-5.54,1.43-2.88,2.87-9.18-3.47-19.08-5.44-8.54-13.99-14.52-23.48-16.4-8.25-1.64-16.39-.01-22.93,4.58-13.82,9.75-8.63,34.03-5.84,47.07l.68,3.18-1.4-1.95c-17.61-24.65-69.1-127-70.18-186.33-.63-33.23,3.07-61.92,11.02-85.26,9.54-28,25.04-47.54,46.08-58.08,42.74-21.34,73.04,14.23,78.82,24.93.75,1.37,1.4,2.42,1.99,3.21l.07.06c1.15,1.35,3.18,1.81,5.08,1.18,1.14-.44,2.24-1.76,2.09-3.42-.03-.21-.1-.42-.17-.64-.05-.17-.11-.35-.16-.54-2.55-7.65-16.92-26.71-38.54-35.96-17.22-7.36-34.9-6.87-52.57,1.47-31.74,15-47.29,47.32-54.75,71.79-8.59,28.22-11.35,62.7-7.38,92.24,11.87,87.56,62.88,191.92,116.13,237.59l.13.11.03.17c.94,4.95,3.18,12.06,3.67,13.58Z"/>
      <path class="cls-1" d="M968.38,597.87l3.83-17.88,11.97-3.31c13.54-19.18,43.75-66.02,34.65-90.18-2.8-7.38-7.42-10.79-13.75-10.11-8.68.93-17.72,9.48-18.39,12.65,2.96,8.1,1.48,12.57-.28,14.89-1.82,2.39-4.83,3.6-8.29,3.32-3.58-.29-6.87-2.63-8.58-6.1-1.52-3.07-3.08-9.75,3.52-20.06,5.58-8.77,14.37-14.91,24.13-16.85,8.52-1.69,16.93,0,23.7,4.74,13.8,9.74,9.46,32.93,6.59,46.5,18.75-27.75,67.53-126.12,68.58-183.73.99-51.56-8.03-118.13-56.55-142.42-42.02-20.98-71.81,13.99-77.49,24.51-.78,1.44-1.44,2.5-2.07,3.33l-.16.17c-1.36,1.6-3.82,2.18-6.1,1.42-1.79-.69-2.94-2.56-2.77-4.47v-.02c.04-.28.13-.55.21-.81.05-.16.1-.32.14-.48,2.62-7.87,17.21-27.27,39.12-36.63,17.49-7.48,35.45-6.98,53.39,1.49,32.07,15.15,47.76,47.74,55.28,72.4,8.63,28.35,11.41,62.99,7.42,92.66-5.82,42.97-21.25,91.37-43.45,136.27-21.72,43.94-47.6,80.1-72.89,101.84-1.09,5.61-3.74,13.75-3.76,13.83l-.1.29-17.89,2.75ZM973.05,580.8l-3.4,15.87,15.85-2.44c.49-1.52,2.73-8.63,3.67-13.58l.03-.17.13-.11c53.26-45.67,104.27-150.04,116.13-237.6,3.97-29.54,1.21-64.02-7.38-92.24-7.45-24.47-23-56.79-54.75-71.79-17.67-8.34-35.35-8.83-52.57-1.47-21.62,9.24-36,28.31-38.56,35.99-.04.15-.09.33-.15.51-.07.22-.14.43-.17.64-.15,1.66.95,2.98,2.11,3.42,1.88.62,3.9.16,5.03-1.16l.14-.14c.55-.74,1.2-1.79,1.95-3.16,5.77-10.69,36.08-46.27,78.82-24.92,21.04,10.53,36.54,30.07,46.08,58.08,7.95,23.34,11.66,52.03,11.02,85.26-1.08,59.33-52.56,161.68-70.18,186.33l-1.4,1.95.68-3.18c2.79-13.04,7.97-37.32-5.85-47.07-6.54-4.59-14.68-6.22-22.93-4.58-9.49,1.88-18.04,7.86-23.48,16.4-6.34,9.9-4.89,16.2-3.47,19.08,1.56,3.16,4.54,5.28,7.77,5.54,3.1.26,5.8-.81,7.41-2.92,2.29-3.02,2.33-8.02.1-14.07l-.04-.12.02-.13c.55-3.67,10.24-12.65,19.3-13.62,4.7-.5,11.08.95,14.79,10.75,9.29,24.68-21.29,72.04-34.88,91.26l-.1.15-11.73,3.24Z"/>
      <path class="cls-1" d="M641.22,261.91l-.3-.02c-11.9-3.9-19.29-19.31-16.77-28.72,1.36-5.09,5.51-7.42,11.46-6.5-3.45-7.22.55-13.08,5.2-15.99l.12-.08h.29l.18.08c4.65,2.9,8.65,8.77,5.2,15.99,5.95-.92,10.1,1.41,11.46,6.5,2.52,9.42-4.87,24.83-16.77,28.73l-.08.02ZM633.14,227.46c-4.18,0-6.98,2.05-8.02,5.96-2.38,8.89,4.94,23.76,15.99,27.47,11.05-3.71,18.37-18.58,15.99-27.47-1.3-4.86-5.32-6.84-11.3-5.59l-1.07.22.53-.96c4.84-8.68-2.13-14.09-4.15-15.42-2.02,1.33-8.99,6.74-4.14,15.42l.53.96-1.07-.22c-1.17-.24-2.27-.37-3.28-.37Z"/>
      <path class="cls-1" d="M622.89,267.74c-5.24,0-10.33-.45-14.75-1.31l-.16-.03-.11-.12c-5.11-5.6-10.37-17.93-11.99-22.69l-.26-.75.79.1c15.15,1.85,31.93,17.63,33.11,24.02l.1.55-.56.04c-2.06.14-4.13.21-6.17.21ZM608.49,265.48c5.87,1.13,12.91,1.51,19.91,1.09-1.87-5.85-17.01-20.34-31.31-22.54,1.98,5.51,6.93,16.45,11.4,21.45Z"/>
      <path class="cls-1" d="M554.2,602.65c-.72,0-1.4-.23-1.97-.66-4.83-3.6-12.24-8.78-21.63-15.34l-.22-.16c-22.93-16.02-57.57-40.23-94.55-69.44-6.97-5.51-13.33-10.7-19.39-15.84.11.38.21.76.3,1.17.91,3.95.24,8.02-.91,9.53-.45.59-.92.73-1.23.75h-.13c-1.4,0-2.14-2.43-3.17-5.79-.42-1.37-.85-2.79-1.35-4.06-4.62-11.86-27.07-30.81-27.3-31-.21-.21-17.65-18.14-25-22.36-1.38-.79-5.55-5.31-4.92-7.19.2-.58.59-1,1.13-1.2,1.78-.66,4.89,1.19,6.39,2.07l.37.22c.26.15.53.31.79.47-19.83-27.57-30.27-55.66-31.9-85.77-.1-1.81,1.3-3.37,3.11-3.47.85-.08,1.68.19,2.34.76.68.59,1.1,1.45,1.14,2.36,3.58,66.24,52.01,113.25,103.82,154.17,36.85,29.12,71.42,53.27,94.29,69.25l.39.27c9.33,6.52,16.71,11.67,21.58,15.31,1.46,1.09,1.76,3.16.67,4.62-.62.83-1.61,1.32-2.64,1.32ZM414.42,498.17l1.36,1.16c6.45,5.5,13.21,11.04,20.67,16.94,36.96,29.2,71.59,53.4,94.5,69.41l.16.11c9.45,6.6,16.87,11.79,21.71,15.4.98.73,2.48.51,3.22-.47.76-1.01.55-2.46-.47-3.22-4.86-3.63-12.23-8.78-21.56-15.29l-.39-.27c-22.88-15.99-57.46-40.14-94.33-69.28-51.99-41.07-100.59-88.27-104.2-154.91-.03-.64-.32-1.24-.8-1.65-.45-.39-1.02-.58-1.6-.52h-.02c-1.27.07-2.24,1.15-2.17,2.42,1.66,30.73,12.57,59.34,33.34,87.48l1.85,2.51-2.55-1.81c-1.06-.75-2.06-1.4-3.05-1.96l-.38-.22c-1.15-.68-4.2-2.49-5.53-1.99-.26.1-.43.28-.53.58-.36,1.06,3.04,5.18,4.47,6,7.47,4.3,24.46,21.76,25.18,22.5.89.75,22.83,19.27,27.55,31.36.51,1.31.95,2.74,1.38,4.13.62,2.02,1.56,5.08,2.21,5.08h.11c.11,0,.28-.13.45-.35,1.01-1.33,1.55-5.14.73-8.7-.23-1-.51-1.9-.79-2.73l-.56-1.7Z"/>
      <path class="cls-1" d="M406.79,371.43c-3.72,0-6.6-4.19-7.18-5.08-2.62-4.1-3.46-8.98-2.25-13.07,1.28-4.3,4.65-7.7,10.01-10.11h0c2.16-.97,4.87-.58,7.26,1.05,2.73,1.86,4.34,4.85,4.21,7.8-.27,5.93-2.96,7.94-4.92,9.41-.8.59-1.48,1.11-1.87,1.76-.14.24-.2.96-.25,1.66-.16,2.18-.42,5.84-4.14,6.51-.3.05-.59.08-.87.08ZM409.89,343.65c-.75,0-1.46.14-2.11.44h0c-5.08,2.28-8.27,5.47-9.46,9.48-1.14,3.81-.34,8.39,2.13,12.24.34.53,3.45,5.21,7.04,4.56,2.95-.53,3.17-3.46,3.32-5.6.07-.92.12-1.65.38-2.1.49-.82,1.28-1.42,2.13-2.05,1.9-1.42,4.27-3.19,4.52-8.65.12-2.61-1.33-5.27-3.77-6.93-1.35-.92-2.82-1.4-4.17-1.4Z"/>
      <path class="cls-1" d="M281.47,314.92l-.69-.83c-6.49-7.85-12.64-14.65-22.08-18.44l-1.26-.51,1.29-.43c6.33-2.11,14.76.1,18.17,3.41,3.13-5.93,7.54-10.04,11.46-13.3l1.59-1.32-.81,1.9c-4.07,9.51-5.62,18.1-7.26,27.2l-.42,2.32ZM260.41,295.29c8.59,3.82,14.43,10.11,20.46,17.34l.04-.21c1.54-8.54,3-16.64,6.53-25.5-3.55,3.1-7.3,6.97-9.97,12.29l-.34.68-.49-.59c-2.33-2.79-9.87-5.46-16.24-4.02Z"/>
      <path class="cls-1" d="M345.84,440.22c-1.09,0-2.11-.54-2.73-1.44-24.57-36.11-32.81-85.72-20.4-121.57-5.27,5.72-8.79,14.34-10.49,25.66l-.3,1.75c-1.26,7.02-4.21,23.43,8.58,48.77.81,1.62.16,3.61-1.46,4.44-.78.4-1.66.47-2.5.2-.84-.27-1.53-.86-1.94-1.66-13.77-27.31-10.43-45.9-9.18-52.89l.28-1.59c2.87-19.18,10.91-31.96,23.26-36.92,1.27-.52,2.75-.18,3.68.84.93,1.02,1.12,2.52.49,3.74-16.94,32.76-10.16,87.9,15.44,125.53,1.02,1.5.63,3.56-.87,4.59-.56.37-1.2.57-1.86.57ZM325.14,313.49l-.74,1.97c-13.38,35.71-5.35,86.19,19.53,122.77.69,1.01,2.16,1.3,3.2.6,1.04-.71,1.32-2.15.6-3.19-25.78-37.9-32.59-93.49-15.5-126.55h0c.44-.85.31-1.89-.34-2.6-.65-.71-1.68-.94-2.56-.58-12,4.83-19.84,17.33-22.65,36.16l-.28,1.59c-1.24,6.93-4.53,25.28,9.08,52.28.28.56.76.97,1.36,1.16.58.19,1.19.14,1.73-.14,1.13-.58,1.59-1.96,1.02-3.09-12.94-25.64-9.95-42.29-8.67-49.39l.3-1.74c1.89-12.63,6.05-21.99,12.37-27.81l1.54-1.42Z"/>
      <path class="cls-1" d="M291.33,548.1c-3.24,0-5.88-2.64-5.88-5.88s2.64-5.88,5.88-5.88,5.88,2.64,5.88,5.88-2.64,5.88-5.88,5.88ZM291.33,537.34c-2.69,0-4.88,2.19-4.88,4.88s2.19,4.88,4.88,4.88,4.88-2.19,4.88-4.88-2.19-4.88-4.88-4.88Z"/>
      <path class="cls-1" d="M229.21,305.19l-.13-.31c-.46-1.12-.95-2.35-1.47-3.66-2.73-6.84-6.48-16.21-10.02-20.37l-2.01-2.36,2.65,1.61c4.68,2.84,14.52,5.05,21.71,6.66,1.37.31,2.66.6,3.84.87l.33.08.23,1.55c.59,3.96,1.25,8.45,1.3,14.4v.43s-.42.07-.42.07c-5.89.9-10.43.96-14.44,1.01l-1.55.02ZM219.7,282c3.18,4.71,6.28,12.46,8.84,18.85.47,1.18.92,2.3,1.34,3.33h.87c3.88-.06,8.26-.11,13.88-.94-.07-5.67-.71-10-1.28-13.83l-.13-.88c-1.08-.25-2.26-.52-3.5-.79-6.71-1.51-14.86-3.34-20.02-5.73Z"/>
      <polygon class="cls-1" points="244.64 305.17 244.64 303.38 245.06 303.18 246.37 302.98 245.52 304.14 244.64 305.17"/>
      <path class="cls-1" d="M249.52,558.04c-1.41,0-2.75-.66-3.6-1.79-2.97-3.94-18.42-27.68-29-44.57-1.32-2.1-.68-4.88,1.42-6.2,2.1-1.32,4.89-.68,6.2,1.42,10.25,16.37,25.74,40.18,28.56,43.92,1.49,1.99,1.09,4.81-.88,6.31-.76.57-1.65.88-2.59.91h0s-.08,0-.12,0ZM220.73,505.8c-.64,0-1.28.17-1.85.53-1.63,1.03-2.13,3.19-1.11,4.82,10.57,16.87,25.99,40.57,28.95,44.49.68.9,1.76,1.43,2.89,1.39h0c.73-.02,1.42-.26,2.01-.7,1.54-1.16,1.84-3.36.68-4.91-2.84-3.76-18.34-27.6-28.61-43.99-.66-1.06-1.8-1.64-2.97-1.64Z"/>
      <path class="cls-1" d="M212.93,499.78c-.48,0-.97-.07-1.45-.21-1.4-.4-2.62-1.32-3.43-2.61s-1.13-2.79-.89-4.22c.24-1.45,1.03-2.67,2.21-3.41,1.18-.75,2.61-.94,4.03-.54,1.4.4,2.62,1.32,3.43,2.61,1.69,2.68,1.11,6.1-1.31,7.63h0c-.78.49-1.66.74-2.58.74ZM211.94,489.59c-.73,0-1.43.2-2.05.59-.94.59-1.56,1.56-1.76,2.73-.2,1.19.07,2.44.75,3.52.68,1.08,1.7,1.85,2.86,2.18,1.14.32,2.28.17,3.22-.42,1.95-1.24,2.4-4.04,1-6.25-.68-1.08-1.7-1.85-2.86-2.18-.39-.11-.79-.17-1.17-.17Z"/>
      <path class="cls-1" d="M562.15,871.27c-5.91,0-9.08-2.63-10.58-4.52-2.76-3.45-3.31-8.6-1.33-12.52,1.62-3.2,5.36-4.88,8.91-3.99,3.93.98,6.27,4.59,6.35,9.71,3.08-.61,5.21-1.83,6.34-3.63,1.07-1.72,1.22-3.96.42-6.66l-.14-.48.49-.14c1-.28,2.01.05,2.93.96,2.07,2.06,3.43,7.01,2.13,11.74-1.21,4.4-4.5,7.48-9.26,8.68-2.36.59-4.44.84-6.25.84ZM557.23,851.01c-2.54,0-4.95,1.39-6.1,3.68-1.81,3.58-1.31,8.28,1.22,11.44,3.13,3.92,8.75,5.1,15.81,3.33,5.64-1.42,7.75-5.12,8.54-7.97,1.19-4.32-.05-8.95-1.88-10.77-.35-.35-.86-.72-1.45-.76.69,2.74.46,5.06-.69,6.9-1.35,2.16-3.91,3.57-7.6,4.19l-.59.1v-.6c.11-4.95-1.98-8.44-5.58-9.34-.56-.14-1.12-.21-1.67-.21Z"/>
      <path class="cls-1" d="M476.69,899.07v-.59c0-5.09,0-9.5-5.93-11.24-.49,4.6-3.44,7.74-8.19,8.65-5.25,1.01-10.89-1.1-12.57-4.7-2.38-5.09-1.74-10.8,1.63-14.54,2.43-2.69,8.35-6.56,20.73-2.25,8.52,2.96,10.97,10.58,10.48,16.21-.39,4.53-2.63,7.89-5.56,8.37l-.58.09ZM469.84,885.97l.59.15c6.96,1.74,7.25,6.74,7.26,11.73,2.19-.74,3.82-3.58,4.15-7.33.46-5.27-1.84-12.4-9.82-15.18h0c-11.83-4.12-17.39-.53-19.66,1.98-3.1,3.44-3.68,8.71-1.46,13.44,1.48,3.16,6.73,5.06,11.48,4.14,4.47-.86,7.17-3.9,7.43-8.34l.03-.6Z"/>
      <path class="cls-1" d="M506.02,774.47l-1.89-.45c-17.63-4.18-95.86-24.19-96.65-24.4l-.18-.09-30.96-24.19,1.17-.16c21.09-2.88,106.6,29.41,127.07,47.98l1.44,1.3ZM407.83,748.68c3.14.8,74,18.93,94.51,23.88-21.95-17.82-101.68-47.9-123.47-46.51l28.96,22.62Z"/>
      <path class="cls-1" d="M440.35,858.66c-3.33,0-6.8-.36-10.35-1.1h0c-16.04-3.39-41.98-29.38-51.88-45.47-20.31,4.29-62.41,3.68-104.09-5.77-36.78-8.35-86.16-26.49-112.49-65.5l-1.81-2.68,2.54,2.01c18.55,14.71,132.87,82.46,228.46,49.35l.38-.13,2.16,3.6c13.2,22.09,33.14,55.48,53.6,47.89,5.42-2.01,8.29-5.89,8.09-10.91-.26-6.34-5.49-12.91-11.66-14.64-5.76-1.62-11.3,1.05-15.59,7.5-.04.08-.12.2-.21.32-.06.08-.11.15-.16.24l-.1.13c-2.17,2.17-3.95,1.88-4.83,1.51-1.41-.59-2.4-2.17-2.4-3.85v-.27c.53-2.46,1.47-4.96,2.66-7.03,3.87-6.81,15.44-10.58,25.79-8.4,11.65,2.45,19.1,11.37,20.45,24.46.95,9.11-1.48,16.57-7.03,21.59-5.16,4.66-12.83,7.13-21.53,7.13ZM430.21,856.58c12.33,2.56,24.21.34,31-5.8,5.38-4.86,7.64-11.84,6.71-20.74-1.3-12.63-8.46-21.22-19.66-23.58-9.96-2.09-21.05,1.46-24.72,7.92-1.13,1.97-2.03,4.34-2.53,6.69v.12c0,1.29.73,2.49,1.78,2.92,1.11.46,2.42.02,3.68-1.24.03-.06.12-.18.2-.3.06-.08.11-.15.16-.24,6.18-9.28,13.13-8.97,16.73-7.96,6.66,1.87,12.1,8.7,12.38,15.56.13,3.18-.83,8.95-8.74,11.89-2.14.8-4.28,1.17-6.4,1.17-18.85,0-36.39-29.36-48.41-49.48l-1.74-2.9c-18.36,6.3-37.41,8.92-56.32,8.92-76.2,0-150.41-42.39-170.2-56.68,26.55,36.98,74.31,54.4,110.1,62.52,41.78,9.48,83.95,10.04,104.01,5.7l.35-.08.19.3c9.45,15.54,35.78,42,51.42,45.31h0Z"/>
      <path class="cls-1" d="M377.41,843.09l-.32-.97c-3.82-11.47-9.7-17.74-19.05-20.32l-1-.28.84-.61c5.59-4.04,16.07-3.16,21.17,1.76,2.73,2.64,6.23,8.7-1.07,19.56l-.57.84ZM359.37,821.16c8.83,2.77,14.54,8.9,18.34,19.68,4.58-7.24,4.82-13.4.65-17.43-4.94-4.78-14.01-5.06-18.98-2.25Z"/>
      <path class="cls-1" d="M904.77,843.09l-.57-.85c-7.3-10.87-3.8-16.92-1.07-19.56,5.09-4.92,15.58-5.8,21.17-1.76l.84.61-1,.28c-9.35,2.58-15.23,8.85-19.05,20.32l-.32.97ZM915.08,819.36c-4.07,0-8.36,1.25-11.25,4.05-4.17,4.03-3.93,10.2.65,17.43,3.8-10.78,9.51-16.91,18.34-19.68-2.07-1.17-4.84-1.8-7.73-1.8Z"/>
      <path class="cls-1" d="M107.62,546.62c-4.92,0-10.83-2.49-16.8-7.23-17.65-14.02-32.11-44.33-22.18-77.73,3.14-10.56,12.69-15.05,25.55-12.01,15.65,3.71,32.1,17.85,29.84,30.53-1.81,10.19-8.08,17.49-17.21,20.03-6.26,1.74-12.95.8-15.56-2.19-4.27-4.88-5.2-11.08-2.26-15.06,2.86-3.87,8.53-4.42,15.19-1.48,2.96.14,4.66-.48,5.05-1.83,1.08-3.69-6.87-12.14-10.34-14.13-2.56-1.46-9.96-3.84-15.28-1.38-2.95,1.36-4.82,4-5.56,7.85-2.63,13.81,5.41,60.13,35.27,72.32l.95.39-.89.51c-1.69.96-3.64,1.43-5.77,1.43ZM86.62,449.73c-6.4,0-14.06,2.28-17.02,12.22-9.8,32.95,4.45,62.84,21.84,76.66,7.74,6.15,15.3,8.41,20.5,6.19-29.53-13.01-37.51-59.14-34.87-73,.8-4.18,2.86-7.06,6.12-8.57,5.73-2.64,13.39-.18,16.2,1.42,3.17,1.81,12.15,10.72,10.81,15.28-.55,1.87-2.62,2.73-6.16,2.54l-.18-.04c-6.24-2.78-11.49-2.36-14.06,1.12-2.66,3.6-1.75,9.28,2.21,13.81,2.05,2.35,8.05,3.69,14.54,1.89,4.13-1.15,14.02-5.33,16.49-19.24,2.16-12.16-13.86-25.78-29.09-29.39-1.83-.43-4.46-.9-7.34-.9Z"/>
      <path class="cls-1" d="M205.32,614.81c-15.36,0-24.77-9.22-28.76-19.6l-.43-1.12,1.1.49c10.03,4.43,31.09,10.25,38.11,4.99-1.6-1.19-2.77-3.96-2.75-6.76.03-3.96,2.3-7.16,6.24-8.79,3.26-1.35,6.83-.74,9.8,1.66,3.94,3.19,5.96,8.73,5.02,13.79-1.07,5.78-5.71,10.29-13.07,12.69-5.62,1.83-10.7,2.65-15.25,2.65ZM177.95,595.97c5.37,12.53,19.12,22.81,42.32,15.24,7-2.29,11.4-6.52,12.4-11.92.87-4.71-1.01-9.87-4.67-12.83-2.72-2.2-5.84-2.74-8.79-1.52-4.86,2.01-5.61,5.79-5.62,7.87-.02,3.09,1.44,5.63,2.81,6.22l.7.3-.56.52c-6.9,6.44-28.56.3-38.59-3.88Z"/>
      <path class="cls-1" d="M194.51,653.67c-.55,0-1.11-.06-1.69-.19-5.7-1.25-11.66-8.51-14.16-17.26-3.84-13.43-23.36-30.93-40.96-36.72l-1.6-.53,1.62-.43c.53-.14,13.25-3.35,33.43,6.84,17.19,8.68,27.46,24.8,29.71,36.1.87,4.36.45,7.81-1.18,9.71-1.41,1.65-3.18,2.49-5.18,2.49ZM139.86,599.19c17.63,6.52,35.91,23.29,39.75,36.75h0c2.41,8.42,8.05,15.39,13.41,16.56,2.32.51,4.36-.18,5.9-1.97,1.43-1.66,1.77-4.81.96-8.86-2.28-11.42-13.04-27.25-29.18-35.4-15.42-7.79-26.59-7.57-30.84-7.08Z"/>
      <path class="cls-1" d="M182.32,733l.07-2.87c.28-11.89-16.19-33.43-41.96-54.88-26.32-21.91-54.3-37.32-73.02-40.23-30.36-4.72-51.78,2.14-53.76,9.14-.89,3.14,2.08,6.33,8.37,8.98l.13.06.08.12c2.24,3.19,3.33,9.8,4.59,17.45,1.25,7.55,2.66,16.1,5.47,22.67l.43,1-1.04-.33c-13.64-4.31-24.97-15.08-29.56-28.12-3.9-11.09-2.39-22.69,4.27-32.68,3.82-5.72,10.31-9.49,19.31-11.2,28.13-5.34,72.1,10.34,98.36,28.58h0c37.41,26,70.1,51.65,59.29,79.64l-1.03,2.68ZM47.96,632.46c6.06,0,12.65.48,19.6,1.57,39.45,6.14,111.86,65.42,115.68,93.56,7.85-26.41-23.75-51.06-59.74-76.08-29.76-20.68-72.63-33.17-97.6-28.42-8.73,1.66-15.01,5.28-18.67,10.77-6.48,9.72-7.96,21.01-4.16,31.79,4.37,12.42,15,22.74,27.89,27.16-2.59-6.52-3.93-14.67-5.12-21.89-1.23-7.43-2.29-13.87-4.34-16.92-9.06-3.86-9.41-7.99-8.81-10.12,1.8-6.36,15.72-11.42,35.28-11.42Z"/>
      <path class="cls-1" d="M331.84,770.3c-2.05,0-3.84-1.39-4.35-3.37-8.9-34.33-40.49-78.34-60.63-76.32-9.11.93-17.28,2.94-25.19,4.88-6.11,1.5-11.25,2.72-16.42,3.51,5.3,6.4,9.38,10.78,12.82,13.75,18.54,16.01,37.18,26.04,49.91,26.86,2.17-1.01,3.1-2.55,3.1-5.16,0-2.03,2.01-4.03,5.01-4.96,3.16-.99,7.45-.71,10.06,3.04,2.76,3.97,3.17,8.25,1.11,11.44-1.85,2.85-7.27,7.2-22.88,4.27l-.13-.02-.11-.09c-14.62-2.26-33.54-12.66-51.95-28.57-4.64-4.01-10.32-10.28-17.87-19.74-3.47-.06-6.63-.45-9.65-1.18-10.27-2.48-31.88-19.02-56.91-38.19-21.74-16.65-44.2-33.85-57.49-40.14-21.03-6.15-50.52-12.83-59.12-12.56h0c-2.72.09-5.78,1.85-8.75,3.56-3.98,2.29-7.74,4.45-10.85,2.89-2.72-1.36-4.38-5.32-5.23-12.44-.76-6.36,1.39-11.96,6.21-16.2,7.49-6.59,20.88-9.16,32.57-6.23,10.95,2.74,28.35,10.57,44.42,24.34l3.51.47c26.47,3.54,56.45,7.55,73.15,22.35,11.59,10.26,25.45,28.67,38.86,46.46,4.51,5.99,9.17,12.18,13.56,17.8,6.57-.45,13.55-2.16,20.93-3.98,7.88-1.93,16.72-4.11,26.42-5.1,27.5-2.92,61.06,47.56,70.25,83.02.3,1.16.13,2.38-.48,3.41-.61,1.04-1.59,1.77-2.75,2.07-.37.1-.75.15-1.13.15ZM268.16,689.54c20.59,0,51.5,43.24,60.3,77.14.47,1.83,2.36,3.01,4.26,2.51.91-.23,1.67-.8,2.14-1.61.47-.81.61-1.75.37-2.65-9.11-35.13-42.17-85.16-69.18-82.28-9.63.99-18.44,3.15-26.22,5.06-7.59,1.87-14.7,3.61-21.44,4.04l-.26.02-.16-.21c-4.44-5.68-9.17-11.95-13.74-18.02-13.38-17.76-27.21-36.12-38.72-46.32-16.48-14.6-46.3-18.58-72.61-22.1l-3.82-.52-.11-.1c-15.97-13.72-33.26-21.51-44.12-24.22-11.39-2.85-24.41-.37-31.66,6.01-4.56,4.02-6.59,9.32-5.88,15.33.79,6.67,2.33,10.48,4.68,11.67,2.63,1.32,6.17-.71,9.91-2.87,3.07-1.77,6.25-3.59,9.22-3.69h0c8.68-.28,38.33,6.43,59.51,12.63,13.46,6.37,35.96,23.6,57.73,40.26,24.96,19.11,46.49,35.6,56.56,38.02,3.01.73,6.18,1.11,9.67,1.16h.24s.15.19.15.19c7.58,9.51,13.26,15.8,17.88,19.79,18.35,15.85,37.16,26.18,51.62,28.36l.14.02.12.1c10.89,2.01,18.79.61,21.69-3.87,1.84-2.83,1.43-6.69-1.09-10.32-2.29-3.3-6.12-3.54-8.94-2.65-2.49.78-4.3,2.47-4.3,4.01,0,3.06-1.17,4.95-3.8,6.12l-.11.05h-.12c-12.95-.79-31.87-10.92-50.63-27.11-3.6-3.11-7.89-7.73-13.5-14.55l-.57-.69.88-.13c5.43-.77,10.78-2.04,17.21-3.62,7.94-1.95,16.15-3.96,25.33-4.91.46-.05.93-.07,1.4-.07ZM208.93,691.31l-1.31-.27c-.15-.03-.29-.05-.44-.08-.21-.03-.43-.07-.64-.12-8.62-2.09-31.65-19.71-53.92-36.76-17.09-13.09-36.44-27.9-50.53-36.39l-.13-.11c-.73-.88-1.52-1.73-2.29-2.55-.37-.4-.75-.8-1.12-1.21l-.92-1.02,1.36.19c23.9,3.28,48.36,7.48,61.87,19.45,10.99,9.73,24.6,27.81,37.76,45.29h0c3.22,4.27,6.39,8.48,9.48,12.52l.81,1.06ZM102.68,616.89c14.13,8.53,33.47,23.33,50.53,36.39,21.99,16.84,44.71,34.23,53.32,36.54-2.84-3.72-5.75-7.58-8.69-11.48h0c-13.14-17.44-26.72-35.48-37.63-45.14-13.04-11.55-36.66-15.78-59.96-19.02.05.06.11.12.16.17.76.81,1.54,1.65,2.27,2.54Z"/>
      <path class="cls-1" d="M545.99,937.7c-2,0-3.73-1.29-4.31-3.2-1.92-6.36-2.24-12.31-.97-17.73-4.45,3.58-11.12,5.39-19.86,5.39-1.03,0-2.1-.03-3.17-.1-16.77-1.06-28.89-10.21-29.47-22.24-.17-3.58,2.6-6.63,6.17-6.81,1.71-.08,3.37.51,4.66,1.68,1.3,1.17,2.06,2.77,2.14,4.5.28,5.75,9.83,10.8,17.86,11.31,12.28.77,18.85-.79,19.53-4.63l.1-.55c.59-3.39,1.41-8.02,4.98-7.4,1.66.29,2.79,1.39,3.25,3.15.27,1.04.32,2.32.15,3.8,5.57-6.07,14.11-9.89,23.73-10.56,2.44-.13,4.63,1.78,4.8,4.18h0c.17,2.47-1.7,4.63-4.18,4.8-8.48.59-15.52,4.08-19.31,9.57-3.48,5.04-4.08,11.44-1.79,19.05.71,2.37-.64,4.89-3.01,5.6-.42.13-.85.19-1.3.19ZM542.66,913.57l-.56,1.86c-1.69,5.65-1.51,11.97.54,18.77.44,1.47,1.82,2.49,3.35,2.49.34,0,.68-.05,1.01-.15,1.85-.56,2.9-2.51,2.35-4.36-2.38-7.91-1.74-14.6,1.92-19.9,3.96-5.75,11.28-9.39,20.07-10,1.93-.14,3.38-1.81,3.25-3.73h0c-.13-1.87-1.83-3.35-3.74-3.25-10.08.7-18.92,4.94-24.25,11.63l-1.32,1.65.44-2.07c.03-.12.06-.24.1-.35.03-.09.06-.18.08-.27.33-1.87.35-3.41.04-4.58-.36-1.4-1.17-2.19-2.45-2.42-2.39-.42-3.14,2.74-3.82,6.59l-.1.55c-.8,4.49-7.53,6.27-20.58,5.45-8.62-.55-18.49-5.91-18.8-12.26-.07-1.46-.72-2.81-1.82-3.8-1.1-.99-2.5-1.5-3.94-1.42-3.03.15-5.37,2.73-5.22,5.76.56,11.51,12.29,20.26,28.53,21.29,1.05.06,2.1.1,3.11.1,9.33,0,16.2-2.1,20.42-6.23l1.39-1.36Z"/>
      <path class="cls-1" d="M641.11,31.02c-2.95,0-7.91-7.98-8.47-11.12-.68-3.79,2.09-14.14,5.39-18.07,2.03-2.42,4.13-2.42,6.16,0,3.29,3.93,6.06,14.29,5.39,18.07-.56,3.14-5.52,11.12-8.47,11.12ZM641.11.99c-.72,0-1.5.49-2.31,1.47-3.31,3.95-5.74,14.06-5.17,17.26.58,3.28,5.38,10.3,7.48,10.3s6.9-7.02,7.48-10.3c.57-3.19-1.86-13.31-5.17-17.26-.82-.98-1.59-1.47-2.31-1.47Z"/>
      <path class="cls-1" d="M1039.47,429.19c-.19,0-.38-.01-.57-.04-1.44-.21-2.61-1.21-3.05-2.6l-2.99-9.35-9.4-2.83c-1.39-.42-2.41-1.57-2.65-3.01-.24-1.44.34-2.85,1.53-3.71l7.97-5.74-.21-9.81c-.03-1.45.75-2.78,2.04-3.45,1.29-.67,2.82-.55,3.99.31l7.92,5.81,9.27-3.23c1.37-.48,2.87-.14,3.91.88s1.4,2.51.94,3.89l-3.07,9.32,5.94,7.82c.88,1.16,1.02,2.69.37,3.99-.65,1.3-1.95,2.1-3.39,2.1h-.02l-9.82-.04-5.6,8.06c-.72,1.04-1.87,1.63-3.1,1.63ZM1033.89,389.22c-.44,0-.88.11-1.3.32-.96.5-1.53,1.45-1.5,2.54l.22,10.34-8.39,6.04c-.88.64-1.3,1.66-1.12,2.73.18,1.07.91,1.9,1.95,2.21l9.9,2.99,3.15,9.85c.33,1.04,1.17,1.75,2.25,1.91,1.08.16,2.09-.28,2.71-1.17l5.9-8.5,10.34.05h.01c1.08,0,2.02-.58,2.5-1.55.49-.97.38-2.07-.27-2.94l-6.26-8.24,3.24-9.82c.34-1.03.08-2.1-.69-2.87-.78-.76-1.85-1-2.88-.65l-9.77,3.4-8.34-6.12c-.5-.37-1.07-.55-1.64-.55Z"/>
      <path class="cls-1" d="M941.41,686.17c-4.26,0-7.96-.82-9.52-3.55-.6-1.05-.65-2.31-.15-3.74,1.99-5.7,12.21-12.89,16-14.41,4.91-1.96,18.2-.42,22.77,6.76h0c2.04,3.2,1.36,5.83.42,7.46-1.95,3.41-6.9,5.8-11.77,5.62-1.4-.04-3.73.3-6.43.71-3.51.53-7.63,1.14-11.32,1.14ZM952.9,664.68c-1.93,0-3.61.25-4.8.72-3.55,1.42-13.56,8.47-15.42,13.81-.4,1.15-.38,2.13.07,2.92,2.57,4.5,12.55,3,19.83,1.91,2.75-.41,5.12-.77,6.61-.72,4.53.14,9.09-2,10.87-5.12,1.14-2,1-4.23-.4-6.43-3.12-4.9-11.01-7.09-16.76-7.09Z"/>
      <path class="cls-1" d="M242.75,429.19c-1.23,0-2.39-.6-3.11-1.63l-5.6-8.06-9.82.04c-1.46.05-2.76-.8-3.41-2.1-.65-1.3-.51-2.83.37-3.99l5.94-7.82-3.07-9.32c-.46-1.38-.09-2.87.94-3.89,1.04-1.02,2.53-1.36,3.91-.88l9.27,3.23,7.92-5.81c1.17-.86,2.7-.98,3.99-.31,1.29.67,2.07,1.99,2.04,3.45l-.21,9.81,7.97,5.74c1.18.85,1.77,2.27,1.53,3.71-.24,1.43-1.25,2.59-2.65,3.01l-9.4,2.83-2.99,9.35c-.44,1.39-1.61,2.38-3.05,2.6-.19.03-.38.04-.57.04ZM234.56,418.49l5.9,8.5c.62.89,1.63,1.33,2.71,1.17,1.07-.16,1.91-.88,2.25-1.91l3.15-9.85,9.9-2.99c1.04-.31,1.77-1.14,1.95-2.21.18-1.07-.24-2.09-1.12-2.73l-8.39-6.04.22-10.34c.02-1.09-.54-2.04-1.5-2.54-.96-.5-2.06-.42-2.94.23l-8.34,6.12-9.77-3.4c-1.03-.36-2.1-.12-2.88.65-.78.76-1.04,1.83-.7,2.87l3.24,9.82-6.25,8.24c-.66.87-.76,1.96-.28,2.94.48.97,1.42,1.55,2.5,1.55h.01l10.34-.05Z"/>
      <path class="cls-1" d="M340.81,686.17c-3.69,0-7.81-.62-11.32-1.14-2.7-.4-5.03-.75-6.43-.71-4.87.16-9.82-2.21-11.77-5.62-.93-1.64-1.62-4.26.42-7.46,4.57-7.18,17.86-8.73,22.77-6.76,3.78,1.51,14.01,8.71,15.99,14.41.5,1.44.45,2.69-.15,3.74h0c-1.56,2.73-5.26,3.55-9.52,3.55ZM323.31,683.31c1.5,0,3.75.34,6.33.72,7.28,1.09,17.26,2.58,19.83-1.91h0c.45-.78.47-1.77.07-2.92-1.86-5.34-11.87-12.39-15.42-13.81-4.71-1.89-17.4-.17-21.56,6.37-1.4,2.2-1.54,4.43-.4,6.43,1.77,3.11,6.34,5.24,10.87,5.12.09,0,.18,0,.28,0Z"/>
      <path class="cls-1" d="M579.28,227.41c-2.24,0-6.36-3.68-10.19-9.27-7.27-10.59-40.62-31.24-65.08-45.86-31.46-18.8-83.3-28.66-97.54-28.51-10.34.09-16.76,2.16-19.64,6.33-2.11,3.06-2.33,7.37-.66,12.84.6-3.12,1.72-6.18,2.63-8.37,1.4-3.04,3.53-4.38,5.86-3.71,1.14.33,2.06,1.11,2.59,2.19.37.76.53,1.61.47,2.5l.71-.78-1.15,2.69c-1.1,2.56-1.97,5.25-2.37,7.31,5.29,1.2,11.23,2.28,23.79,2.57,1.2.03,2.32.52,3.15,1.39.83.87,1.27,2.01,1.24,3.21-.06,2.42-2.07,4.4-4.49,4.4h-.18c-15.07-.35-21.51-1.86-27.74-3.31l-1.48-.34c1.03,6.28-.79,11.61-5.03,14.71-4.06,2.96-9.46,3.21-14.09.66-7.02-3.88-10.58-13.02-9.75-25.08.81-11.77,5.47-20.69,13.87-26.52,15.31-10.62,43.29-10.65,78.78-.07,49.96,14.89,112.97,62.73,126.06,84.88h0c2.34,3.95,1.87,5.39,1.07,5.91-.23.15-.51.22-.83.22ZM406.74,142.78c14.72,0,66.36,9.87,97.78,28.65,24.53,14.66,58.01,35.4,65.39,46.15,5.08,7.4,8.91,9.25,9.66,8.77.26-.17.52-1.31-1.39-4.55h0c-13.02-22.03-75.73-69.61-125.48-84.44-35.19-10.48-62.86-10.51-77.92-.06-8.13,5.64-12.66,14.31-13.44,25.76-.8,11.66,2.57,20.45,9.24,24.13,4.29,2.37,9.28,2.14,13.02-.59,4.09-2.98,5.73-8.25,4.5-14.46l-.15-.76,2.97.69c6.19,1.45,12.58,2.94,27.62,3.28h.01c1.96,0,3.52-1.53,3.57-3.41.02-.94-.32-1.82-.96-2.5-.64-.68-1.51-1.06-2.45-1.08-13.02-.31-19-1.45-24.46-2.7l-.46-.1.08-.47c.36-2.16,1.29-5.11,2.48-7.91l.03-.07c.51-1.29.51-2.57,0-3.6-.41-.83-1.11-1.42-1.98-1.67-1.83-.53-3.49.59-4.67,3.15-1.08,2.59-2.46,6.47-2.87,10.12l-.23,2.1-.73-1.99c-2.47-6.71-2.43-11.98.12-15.68,3.08-4.46,9.77-6.67,20.46-6.76.09,0,.19,0,.28,0Z"/>
      <path class="cls-1" d="M702.85,227.41c-.31,0-.59-.07-.83-.22-.8-.51-1.27-1.95,1.07-5.91h0c13.09-22.16,76.1-70,126.06-84.88,35.49-10.57,63.46-10.55,78.78.07,8.4,5.82,13.06,14.74,13.87,26.52.83,12.06-2.73,21.2-9.75,25.08-4.63,2.56-10.03,2.31-14.09-.66-4.24-3.1-6.06-8.43-5.03-14.71l-1.47.34c-6.24,1.46-12.68,2.96-27.83,3.31h-.1c-2.42,0-4.44-1.97-4.5-4.39-.03-1.2.41-2.34,1.24-3.21s1.95-1.36,3.15-1.39c12.56-.29,18.51-1.37,23.79-2.57-.4-2.06-1.27-4.75-2.37-7.31l-1.35-3.15.9,1.08c-.03-.84.13-1.64.48-2.35.53-1.08,1.45-1.86,2.59-2.19,2.33-.68,4.46.67,5.85,3.69.92,2.2,2.04,5.27,2.64,8.39,1.68-5.47,1.46-9.78-.66-12.84-2.88-4.17-9.31-6.24-19.64-6.33-.09,0-.18,0-.28,0-14.63,0-66,9.83-97.26,28.51-24.45,14.61-57.81,35.26-65.08,45.86-3.84,5.59-7.95,9.27-10.19,9.27ZM703.95,221.79c-1.92,3.24-1.65,4.39-1.39,4.55.75.47,4.58-1.37,9.66-8.77,7.38-10.75,40.85-31.49,65.39-46.15,31.62-18.9,83.77-28.81,98.06-28.65,10.69.09,17.38,2.31,20.46,6.76,2.55,3.69,2.59,8.97.12,15.68l-.73,1.99-.23-2.1c-.41-3.66-1.79-7.53-2.88-10.14-1.17-2.54-2.83-3.66-4.66-3.13-.87.25-1.57.85-1.98,1.67-.51,1.03-.51,2.31,0,3.6l.02.06c.35.83.68,1.68.98,2.51l.12.31-.02-.02c.66,1.88,1.16,3.68,1.4,5.13l.08.47-.46.1c-5.46,1.25-11.44,2.4-24.46,2.7-.94.02-1.81.4-2.45,1.08-.64.68-.99,1.56-.96,2.5.04,1.89,1.61,3.42,3.5,3.42,15.13-.35,21.52-1.84,27.7-3.29l2.98-.69-.15.76c-1.23,6.21.42,11.48,4.5,14.46,3.74,2.73,8.73,2.96,13.02.59,6.67-3.68,10.04-12.48,9.24-24.13-.79-11.45-5.31-20.12-13.44-25.76-15.06-10.44-42.73-10.42-77.92.06-49.76,14.82-112.47,62.41-125.48,84.44h0Z"/>
      <path class="cls-1" d="M472.64,241.47h-1.06c-.13,0-.34,0-.54-.07l-1.13-.22c-11.67-3.25-28.16-8.42-37.28-12.05-7.71-3.07-23.79-13.26-29.08-19.09l-.13-.17c-.21-.19-.37-.39-.52-.59l-.9-1.08c-.58-.67-2.03-2.33-2.96-3.25l-.77-.75,1.08-.12c1.91-.22,3.8-.37,5.58-.5,3.46-.26,6.13-.34,8.39-.26,4.73.17,10.47,1.31,13.95,2.24l.3.08.06.31c.13.69.28,1.33.47,2.06.22.86.43,1.57.72,2.38l.23.62c.87,2.44,2.09,4.69,3.17,6.67l.04.07c1.89,1.78,4.1,3.52,6.76,5.31l.58.25c.94.42,2.61,1.17,3.21,1.17h0c-.5-1.83-2.76-7.05-5.36-13.04-4.67-10.77-10.48-24.18-11.68-30.43-.97-4.94-.29-8.67,1.65-9.07,2.02-.42,4.08,2.98,5.37,8.87,3.19,14.5,25.91,43.71,39.17,59.83l.67.82ZM470.02,240.19l.31.05c-13.42-16.38-35.36-44.81-38.52-59.21-1.38-6.3-3.26-8.3-4.19-8.11-.94.2-1.86,2.84-.87,7.9,1.17,6.14,7.21,20.06,11.61,30.22,2.88,6.64,5.15,11.88,5.49,13.51l.02.11-.03.11c-.06.26-.23.47-.47.58-.74.36-2.08-.19-4.19-1.14l-.65-.29c-2.81-1.89-5.09-3.68-7.03-5.51l-.17-.26c-1-1.85-2.25-4.14-3.14-6.56l-.14-.23-.29-.69h.1s0,0,0,0c-.29-.79-.51-1.53-.73-2.42-.17-.64-.3-1.21-.42-1.81-3.45-.9-8.91-1.97-13.43-2.13-2.23-.08-4.86,0-8.28.26-1.46.11-3,.22-4.55.39.82.87,1.75,1.93,2.31,2.58l.75.88c.08.09.14.17.19.25.14.19.26.35.42.47.08.08.18.18.24.3,5.28,5.76,21.05,15.74,28.64,18.76,8.98,3.57,25.76,8.84,37.02,11.99Z"/>
      <path class="cls-1" d="M810.73,241.47h-1.06l.67-.82c13.26-16.12,35.99-45.33,39.17-59.83h0c1.29-5.89,3.35-9.29,5.37-8.87,1.94.4,2.62,4.14,1.65,9.08-1.19,6.25-7.01,19.65-11.68,30.43-2.63,6.06-4.91,11.32-5.37,13.1.48,0,2.25-.79,3.23-1.23l.66-.29c2.59-1.75,4.8-3.49,6.68-5.27l.03-.06c1.08-1.98,2.3-4.23,3.17-6.68l.2-.53c.32-.91.53-1.62.75-2.47.19-.73.34-1.37.47-2.07l.06-.31.3-.08c3.48-.93,9.22-2.07,13.95-2.24,2.26-.08,4.93,0,8.39.26,1.78.13,3.67.28,5.58.5l1.1.12-.79.75c-.93.92-2.38,2.58-2.96,3.25l-.9,1.08c-.15.2-.3.41-.52.6v.03l-.13.14c-5.28,5.83-21.37,16.02-29.08,19.09-9.12,3.63-25.61,8.8-37.18,12.04l-.13.02-1.1.21c-.2.07-.41.07-.54.07ZM850.5,181.04h0c-3.16,14.39-25.1,42.83-38.52,59.21l.32-.06c11.27-3.15,28.04-8.42,37.01-11.98,7.58-3.02,23.36-12.99,28.63-18.75.06-.12.14-.21.2-.26.2-.17.32-.33.46-.52l.94-1.13c.55-.64,1.47-1.69,2.28-2.55h-.12s.04-.04.04-.04c-1.52-.16-3.02-.27-4.44-.37-3.43-.26-6.06-.34-8.28-.26-4.52.16-9.98,1.23-13.43,2.13-.12.6-.26,1.18-.42,1.82-.21.83-.42,1.54-.7,2.34h.14s-.35.73-.35.73l-.08.34h-.11c-.89,2.4-2.12,4.66-3.11,6.49l-.17.26c-1.94,1.83-4.21,3.62-6.95,5.47l-.73.33c-2.11.95-3.45,1.5-4.19,1.14-.24-.12-.41-.32-.47-.58l-.03-.11.02-.11c.33-1.63,2.61-6.87,5.49-13.51,4.41-10.16,10.44-24.08,11.61-30.22,1-5.06.07-7.71-.87-7.91-.92-.2-2.81,1.81-4.19,8.11Z"/>
      <path class="cls-1" d="M641.11,324.26c-1.25,0-2.97-1.92-6.43-5.92-1.97-2.27-4.41-5.1-7.21-7.93-11.88-12.05-29.58-27.85-41.17-36.76-19.11-14.69-56.81-41.28-84.33-60.7-14.97-10.56-27.89-19.67-33.79-24.03-3.47-2.56-3.53-5.22-2.53-6.72,1.2-1.8,4.34-2.58,7.78-.5,5.1,3.08,30.9,19.59,59.98,38.48-.06-5.25,2.64-9.45,7.35-11.32,5.77-2.3,14.65-.87,21.49,7.5,2.7,3.31,3.14,6.79,1.18,9.3-1.73,2.23-4.81,2.92-7.49,1.68-1-.46-1.98-1.04-2.93-1.6-2-1.18-3.88-2.29-4.99-1.69-.86.46-1.4,2.01-1.59,4.61,21.1,13.76,49.31,32.31,64.62,42.99h60.1c15.3-10.68,43.52-29.23,64.62-42.99-.19-2.6-.72-4.15-1.59-4.61-1.11-.59-3,.52-4.99,1.69-.95.56-1.93,1.13-2.93,1.6-2.67,1.24-5.75.55-7.49-1.68-1.96-2.52-1.51-6,1.19-9.3,6.83-8.37,15.71-9.8,21.48-7.5,4.71,1.88,7.41,6.07,7.35,11.32,29.08-18.89,54.88-35.4,59.98-38.48h0c3.44-2.08,6.57-1.29,7.78.5,1,1.5.94,4.16-2.53,6.72-5.91,4.36-18.83,13.48-33.8,24.04-27.52,19.41-65.21,46-84.32,60.69-11.58,8.9-29.28,24.71-41.17,36.76-2.79,2.83-5.23,5.66-7.2,7.93-3.46,4-5.18,5.93-6.43,5.93ZM469.37,181.44c-1.32,0-2.35.52-2.88,1.31-.76,1.13-.61,3.22,2.29,5.36,5.9,4.35,18.82,13.46,33.78,24.02,27.53,19.42,65.23,46.02,84.36,60.72,11.62,8.93,29.36,24.77,41.27,36.85,2.81,2.85,5.27,5.7,7.25,7.98,2.48,2.87,4.82,5.58,5.67,5.58.85,0,3.19-2.71,5.68-5.58,1.97-2.28,4.43-5.12,7.24-7.98,11.91-12.08,29.66-27.92,41.27-36.85,19.13-14.7,56.83-41.3,84.36-60.72,14.96-10.56,27.89-19.67,33.79-24.02,2.9-2.14,3.05-4.23,2.29-5.36-.94-1.41-3.52-1.96-6.43-.21h0c-5.15,3.11-31.37,19.89-60.77,38.99l-.85.55.07-1.01c.39-5.26-2.11-9.48-6.68-11.31-5.43-2.17-13.83-.78-20.34,7.2-2.38,2.92-2.82,5.93-1.17,8.06,1.45,1.86,4.03,2.43,6.28,1.39.96-.44,1.91-1.01,2.84-1.55,2.24-1.32,4.36-2.57,5.97-1.72,1.26.67,1.94,2.49,2.14,5.73l.02.29-.24.16c-21.18,13.82-49.65,32.53-64.97,43.23l-.13.09h-60.73l-.13-.09c-15.33-10.7-43.79-29.41-64.97-43.23l-.24-.16.02-.29c.2-3.24.88-5.06,2.14-5.73,1.61-.85,3.73.39,5.97,1.72.93.55,1.88,1.11,2.84,1.55,2.25,1.04,4.83.47,6.28-1.39,1.65-2.12,1.21-5.14-1.17-8.06-6.51-7.98-14.91-9.37-20.34-7.2-4.57,1.82-7.07,6.05-6.68,11.3l.07,1.01-.85-.55c-29.41-19.11-55.63-35.88-60.77-38.99-1.28-.78-2.5-1.1-3.55-1.1ZM641.15,308.59c-.58,0-1.03-.27-1.25-.71-.04-.07-.06-.14-.08-.21-6.17-8.49-13.07-12.95-16.02-14.86-.49-.32-.74-.93-.6-1.46.15-.57.59-.97,1.13-1,1.29-.08,2.15-.13,3.14-.13,5.1,0,9.56,1.49,13.63,4.54,4.07-3.05,8.53-4.54,13.63-4.54,1.01,0,1.88.05,2.68.1.47.03,1.25.36,1.41.98.1.37.28,1.05-.31,1.43h-.01c-3.03,1.97-10.12,6.56-16.34,15.25l-.29.41-.07-.05c-.16.13-.38.24-.65.24ZM627.48,291.21c-.96,0-1.8.05-3.08.13-.15,0-.21.21-.23.26-.03.11.05.29.17.36,3,1.94,10.04,6.5,16.34,15.19l.07.1.02.12c.07.16.17.22.29.22h0c.08,0,.14-.02.26-.19l.29-.42.03.02c6.24-8.56,13.25-13.11,16.29-15.08,0-.08-.05-.25-.07-.36-.04-.08-.31-.23-.51-.25-.79-.05-1.63-.1-2.61-.1-5,0-9.36,1.49-13.33,4.56l-.31.24-.31-.24c-3.97-3.07-8.33-4.56-13.33-4.56ZM657.97,291.91l.28.41-.27-.42s0,0,0,0Z"/>
    </g>
  </g>
</svg>