<svg xmlns="http://www.w3.org/2000/svg" width="1481.04" height="380.848" viewBox="0 0 1481.04 380.848"><path d="M151.232-191.216c-27.744.816-51.136.816-86.5.816-15.776,0-28.56,0-44.336-.272l-.816,2.72c6.528,2.72,9.248,8.432,9.248,17.408V-20.128c0,8.16-2.72,15.5-8.16,17.68l.816,2.72c5.984-.544,12.24-.544,18.224-.544,6.8,0,15.232.272,22.032.544l.272-2.992c-7.344-3.536-10.88-8.7-10.88-18.768V-99.28H77.792c12.24,0,22.3.544,28.288,2.72,1.9-5.984,6.256-15.5,8.7-19.04l-1.9-1.088c-5.168,3.264-17.952,4.9-34,4.9H51.136v-65.824h57.392c18.5,0,27.472,1.36,33.456,4.08A63.379,63.379,0,0,1,151.232-191.216Zm180.336,2.448-.544-1.9c-3.808.272-12.784.544-16.592.544-4.352,0-12.24-.272-16.592-.544L297.3-188.5c6.8,3.536,9.792,8.7,9.792,18.5V-65.008c0,35.36-22.3,53.312-55.488,53.312-32.368,0-51.68-17.952-51.68-51.136v-103.36c0-12.512,1.632-17.68,7.616-22.3l-.816-2.176c-6.8.544-12.784.544-18.224.544-8.432,0-11.152-.272-19.584-.816l-.544,2.72c7.072,4.08,9.248,11.7,9.248,24.752V-60.928c0,37.808,27.2,62.56,70.72,62.56,45.152,0,73.44-25.3,73.44-68.544V-171.36C321.776-179.52,325.04-185.232,331.568-188.768ZM505.648-54.944c0-29.1-18.768-44.608-52.224-50.048v-.816c19.04-5.984,35.632-20.672,35.632-41.616,0-29.1-24.752-43.248-63.648-43.248-11.424,0-20.128.272-28.56.272s-23.392,0-31.824-.272l-1.632,3.264c4.9,2.448,8.976,7.072,8.976,13.6v155.04c0,5.712-1.9,12.24-8.7,16.592L364.48.272C381.888,0,389.5,0,403.648,0c10.88,0,14.144.272,29.92.272C475.456.272,505.648-17.952,505.648-54.944Zm-39.984-88.944c0,21.216-14.688,34-43.52,34H394.4v-68c13.328-.272,19.04-.544,27.2-.544C452.336-178.432,465.664-164.288,465.664-143.888Zm16.592,90.3c0,27.2-16.32,41.888-46.784,41.888-17.68,0-24.48-.544-41.072-1.088V-97.92h34.816C462.672-97.92,482.256-82.144,482.256-53.584ZM694.688-188.768l-.544-1.9c-3.808.272-12.784.544-16.592.544-4.352,0-12.24-.272-16.592-.544l-.544,2.176c6.8,3.536,9.792,8.7,9.792,18.5V-65.008c0,35.36-22.3,53.312-55.488,53.312-32.368,0-51.68-17.952-51.68-51.136v-103.36c0-12.512,1.632-17.68,7.616-22.3l-.816-2.176c-6.8.544-12.784.544-18.224.544-8.432,0-11.152-.272-19.584-.816l-.544,2.72c7.072,4.08,9.248,11.7,9.248,24.752V-60.928c0,37.808,27.2,62.56,70.72,62.56,45.152,0,73.44-25.3,73.44-68.544V-171.36C684.9-179.52,688.16-185.232,694.688-188.768ZM889.44-2.176c-8.432-3.536-13.056-8.16-22.576-20.944L801.04-110.976l46.24-57.936c9.52-11.968,15.776-16.592,22.576-19.312l-.816-2.448c-4.624.272-10.064.544-14.688.544-6.8,0-15.232-.272-20.944-.544l-1.088,2.448c3.808,1.632,5.44,3.536,5.44,6.8,0,2.72-4.08,8.976-9.248,15.776L757.792-74.8v-95.744c0-9.792,2.992-14.688,9.248-17.68l-.816-2.448c-6.256.272-12.24.544-18.768.544-7.616,0-12.512,0-20.128-.544l-.816,2.72c7.072,2.176,8.976,8.432,8.976,16.592V-17.68c0,7.888-4.352,12.784-10.064,14.96L725.7.272c5.168-.544,17.136-.544,22.3-.544,6.8,0,11.968,0,18.768.544l.544-2.448c-5.712-3.536-9.52-7.344-9.52-15.5v-38.9L787.44-93.568l48.416,65.28c4.9,6.528,9.52,14.688,9.52,18.768,0,3.536-1.632,5.44-5.712,7.344l.544,2.448c7.616-.544,17.68-.544,25.84-.544,7.616,0,14.96.272,22.576.544Zm60.384-.272C942.48-5.984,938.4-10.064,938.4-19.584V-171.9c0-8.7,4.352-13.6,11.152-16.32l-1.088-2.448c-6.256.544-14.688.544-21.488.544s-13.328,0-20.128-.544l-1.088,2.72c7.072,2.72,10.336,7.344,10.336,17.952V-19.312c0,9.52-3.808,13.328-11.7,16.864l.544,2.72c7.072-.544,14.688-.544,22.576-.544,6.8,0,14.688,0,21.488.544ZM159.12,127.616c0-29.92-20.944-42.432-67.728-53.312C47.328,63.968,40.256,56.624,40.256,39.76c0-16.592,15.776-31.28,44.064-31.28,30.464,0,46.24,8.432,56.848,20.672l2.992-.544,2.72-23.12C130.288-.5,112.336-3.76,88.672-3.76c-40.8,0-69.088,21.76-69.088,50.32S36.72,85.184,86.5,96.88c41.888,9.792,51.952,17.952,51.952,38.08,0,25.3-23.12,42.432-57.664,42.432-32.912,0-57.392-13.056-67.184-34l-3.264.816,1.632,32.1c19.04,8.432,37.808,13.328,65.824,13.328C123.216,189.632,159.12,165.968,159.12,127.616ZM350.608-.5l-.544-2.176c-3.808.272-13.328.544-20.4.544-7.616,0-14.688-.272-20.4-.544L308.72-.5c7.888,3.264,9.248,8.7,9.248,19.584v59.84H218.416V15.552c0-8.432,2.992-12.784,8.976-15.776l-.544-2.448c-6.256.544-12.512.544-19.856.544-6.256,0-13.6,0-18.224-.544L187.952-.5c5.984,2.176,8.16,5.712,8.16,17.136V166.784c0,11.424-2.992,16.592-11.7,19.04l.816,2.448c7.888-.544,13.872-.544,22.3-.544,7.072,0,14.416,0,20.4.544l1.088-2.72c-7.888-3.536-10.608-5.984-10.608-19.856V91.984h99.552v75.888c0,8.976-2.448,14.416-13.056,17.952l.544,2.448c6.528-.272,15.776-.544,23.392-.544,6.256,0,14.144.272,20.672.544l.544-2.72c-7.344-2.992-9.792-7.344-9.792-16.592V20.72C340.272,8.48,342.992,2.768,350.608-.5Zm78.064,186.048c-7.344-3.536-11.424-7.616-11.424-17.136V16.1c0-8.7,4.352-13.6,11.152-16.32l-1.088-2.448c-6.256.544-14.688.544-21.488.544s-13.328,0-20.128-.544L384.608.048C391.68,2.768,394.944,7.392,394.944,18V168.688c0,9.52-3.808,13.328-11.7,16.864l.544,2.72c7.072-.544,14.688-.544,22.576-.544,6.8,0,14.688,0,21.488.544Zm381.888,0c-11.152-3.808-17.68-10.88-22.848-22.576L711.824-7.568H707.2c0,6.528-2.72,14.688-8.16,25.568L627.232,161.344c-4.9,9.248-7.616,13.056-11.7,15.232-25.024-13.872-46.512-44.608-63.1-86.224,30.464-4.9,53.584-20.4,53.584-48.96,0-29.92-27.472-43.792-60.656-43.792-14.144,0-30.464.272-44.88.272-13.6,0-23.936,0-37.536-.544l-.816,2.448c7.616,4.08,9.792,11.152,9.792,17.136V168.144c0,8.976-2.72,14.688-9.248,17.68l1.088,2.448c7.888-.544,12.512-.544,20.128-.544s11.968-.272,20.672.544l1.36-2.992c-8.432-3.536-11.7-8.16-11.7-19.312V91.984h31.008C553.52,153.456,589.7,188,635.392,188c5.712,0,8.432,0,15.776.272l.816-2.72c-7.072-3.808-10.608-6.256-10.608-13.6,0-5.712,1.632-11.152,5.712-19.584L673.2,99.056h62.56L760.24,155.9c3.536,8.16,4.9,13.328,4.9,18.224,0,4.352-3.808,9.248-8.7,11.424l.816,2.72c8.7-.544,18.768-.544,28.016-.544,10.064,0,16.864-.272,24.752.544ZM582.08,43.3c0,25.024-22.3,36.448-48.96,36.448-13.6,0-25.84-.272-38.9-.272V10.384c15.776-.272,28.288-.544,45.7-.544C568.48,9.84,582.08,20.176,582.08,43.3Zm148.24,43.52H679.184l27.2-55.488Zm260.032,99.008c-8.432-3.536-13.056-8.16-22.576-20.944L901.952,77.024l46.24-57.936C957.712,7.12,963.968,2.5,970.768-.224l-.816-2.448c-4.624.272-10.064.544-14.688.544-6.8,0-15.232-.272-20.944-.544L933.232-.224c3.808,1.632,5.44,3.536,5.44,6.8,0,2.72-4.08,8.976-9.248,15.776L858.7,113.2V17.456c0-9.792,2.992-14.688,9.248-17.68l-.816-2.448c-6.256.272-12.24.544-18.768.544-7.616,0-12.512,0-20.128-.544l-.816,2.72C834.5,2.224,836.4,8.48,836.4,16.64V170.32c0,7.888-4.352,12.784-10.064,14.96l.272,2.992c5.168-.544,17.136-.544,22.3-.544,6.8,0,11.968,0,18.768.544l.544-2.448c-5.712-3.536-9.52-7.344-9.52-15.5v-38.9l29.648-36.992,48.416,65.28c4.9,6.528,9.52,14.688,9.52,18.768,0,3.536-1.632,5.44-5.712,7.344l.544,2.448c7.616-.544,17.68-.544,25.84-.544,7.616,0,14.96.272,22.576.544Zm205.088-.272c-11.152-3.808-17.68-10.88-22.848-22.576L1096.7-7.568h-4.624c0,6.528-2.448,13.6-8.16,25.024l-72.352,143.888c-7.072,14.144-13.872,20.4-23.392,23.664l.544,3.264c7.888-.544,12.512-.544,20.672-.544,9.248,0,16.864.272,26.112.544l.816-2.72c-7.072-3.808-10.608-6.256-10.608-13.6,0-5.712,1.632-11.152,5.712-19.584l26.112-53.312h62.56l24.48,56.848c3.536,8.16,4.9,13.328,4.9,18.224,0,4.352-3.808,9.248-8.7,11.424l.816,2.72c8.7-.544,19.312-.544,28.56-.544,10.064,0,16.864-.272,24.752.544Zm-80.784-98.736H1063.52l27.472-55.488Zm308.176,98.464c-11.424-4.624-14.416-9.248-15.5-22.848l-9.792-142.8C1396.448,9.568,1399.712,3.04,1407.6.32l-.816-2.992c-6.256.544-10.608.544-17.952.544-6.256,0-13.6,0-17.408-.272-1.088,5.712-7.888,20.4-19.312,42.7l-38.9,77.248-40.8-78.88C1259.36,13.1,1255.008,3.856,1253.648-2.4c-4.352,0-11.968.272-21.488.272-5.44,0-12.512-.272-14.688-.544l-.544,2.72c7.344,4.08,10.88,10.336,9.792,22.576l-9.792,142.8c-1.088,11.968-3.808,16.32-13.056,20.128l.816,2.72c6.528-.544,12.784-.544,19.312-.544,7.344,0,13.056,0,20.128.544l.816-2.992c-13.056-5.44-14.416-9.248-13.328-21.488l9.52-138.448,66.1,126.48h2.448l65.552-127.568,9.792,140.08c1.088,10.88-2.448,17.408-11.968,20.944l.544,2.992c8.976-.544,16.592-.544,25.84-.544,7.616,0,14.96.272,22.576.544Zm68.544.272c-7.344-3.536-11.424-7.616-11.424-17.136V16.1c0-8.7,4.352-13.6,11.152-16.32l-1.088-2.448c-6.256.544-14.688.544-21.488.544s-13.328,0-20.128-.544l-1.088,2.72c7.072,2.72,10.336,7.344,10.336,17.952V168.688c0,9.52-3.808,13.328-11.7,16.864l.544,2.72c7.072-.544,14.688-.544,22.576-.544,6.8,0,14.688,0,21.488.544Z" transform="translate(-10.336 191.216)" fill="#fff"/></svg>