<svg xmlns="http://www.w3.org/2000/svg" width="1186.703" height="520.001" viewBox="0 0 1186.703 520.001"><g transform="translate(0 0.001)"><path d="M792.563,519.358a50.808,50.808,0,0,1-36.785-8.062c-11.583-7.737-18.23-19.115-19.746-33.824-2.941-28.513,14.529-66.654,44.5-97.157,46.258-47.338,86.524-66.224,167.372-98.038l1.08-.425.375-1.1c6.4-18.935,11.328-35.5,15.684-50.114,3.091-10.4,5.767-19.38,8.267-26.808.855-2.626.245-4.106-.42-4.886a3.134,3.134,0,0,0-2.881-1.07,4.937,4.937,0,0,0-3.126,2.161c-15.814,20.981-57.5,63.753-82.138,67.459a15.094,15.094,0,0,1-9.343-1.13c-6.437-3.4-9.728-9.608-9.783-18.47l-.035-5.3-4.071,3.4c-5.747,4.8-11.893,9.418-18.8,14.114-15.354,10.428-33.95,18.685-46.278,20.541-4.006.6-7.252.505-9.388-.275a11.28,11.28,0,0,1-6.732-6.622c-5.156-12.934,5.527-38.756,17.84-64.733,7.742-16.5,8.157-26.452,1.28-30.444a9.978,9.978,0,0,0-6.522-.89c-10.028,1.51-28.028,13.819-49.384,33.774-27.168,25.387-51.81,58.346-62.778,83.964-.57,1.25-1.265,2.051-1.891,2.141a3.936,3.936,0,0,1-2.641-1.28c-2.331-2.076-4.151-5.712-4.1-7.342.01-.13.165-1.305,1.986-6.647l2.646-7.782-6.537,4.991c-3.976,3.036-7.6,5.662-11.418,8.257a175.7,175.7,0,0,1-15.969,9.643c5.917-3.251,11.708-6.882,16.685-10.193,5.817-3.936,11.378-8.112,17.025-12.769l.52-.43.235-.63c5.161-13.934,12.558-32.314,14.774-37.035,3.751-7.982,6.787-16.315,3.676-23.142-3.041-6.9.775-13.274,6.562-22.916.94-1.57,1.92-3.211,2.916-4.926.83-1.43,2.776-4.786,4.086-4.986.77-.115,3.211.605,9.208,9.753,2.166,3.086,1.17,7.667.25,9.9-.935,2.341-4.926,10.908-9.147,19.981-2.241,4.806-4.606,9.893-6.782,14.609,0,0-6.487,15.394-4.3,16.285,6.032,2.456,14.709-9.513,14.709-9.513,5.877-6.607,15.609-17.2,28.633-30.113,26.773-26.477,49.809-42.822,63.2-44.838a12.116,12.116,0,0,1,6.957.655c4.866,2.226,7.872,5.251,9.218,9.268,3.426,10.233-4.581,25.027-10.433,35.835l-1.716,3.186c-1.5,2.786-3.146,5.742-4.831,8.777-10.243,18.415-20.841,37.466-17.385,47.863a9.679,9.679,0,0,0,5.427,5.987c2.436,1.1,5.707,1.355,9.713.755,10.138-1.525,25.622-8.7,41.412-19.21a222.521,222.521,0,0,0,21.856-16.875l.685-.605.14-.905c2.876-19.12,18.22-45.678,36.5-63.143,20.471-19.791,44.192-32.559,66.8-35.96,19.365-2.911,35.74,1.645,44.918,12.508,1.916,2.181,2.761,4.281,2.461,6.112a4.949,4.949,0,0,1-2.541,3.431,2.693,2.693,0,0,1-.925.36c-1.861.28-4.581-4.111-6.377-7.017-6.477-10.883-18.52-15.889-33.029-13.709-17.925,2.7-38.416,15.664-59.257,37.511A192.518,192.518,0,0,0,893.987,207l-.46.7.04.83c.14,2.631-2.956,7.612-9.188,14.8l-.205.23-.14.275c-10.3,20.361-11.4,34.85-3.021,39.766a12.108,12.108,0,0,0,8.052,1.17c20.941-3.146,63.043-44.958,78.072-65.773,16.755-23.2,19.29-33.234,20.246-37.01l.13-.52a5.1,5.1,0,0,1,1.22-2.746c-.01.015.62.055,1.956,1.4,5,5.031,9.113,15.329,7.352,23.847-2.251,11.113-5.221,15.574-6.562,15.774l-.225,0-.38.045c-3.736.56-6.327,7.442-19.185,45.873-2.541,7.592-5.322,15.909-8.337,24.757l-1.935,5.662,5.386-2.6c34.9-16.87,64.663-37.551,86.064-59.8,2.771-2.726,3.306-6.887,3.831-10.913.415-3.206.845-6.522,2.451-8.3l.385-.42c2.866-3.146,6.437-7.062,8.117-7.312.055-.01.555.3,1.11,2.016.9,2.481-5.021,16.02-15.909,26.8l-1.375,1.325c-10.788,10.443-36.055,34.895-89.31,59.742l-.96.445-.345,1c-13.884,40.181-26.9,74.256-39.8,104.184C894.3,442.986,842.677,511.816,792.573,519.358h-.01M943.435,284.4c-72.6,28.943-117.358,51.68-160.52,95.617-26.072,26.547-43.307,67.334-40.1,94.867,1.39,11.9,6.547,20.976,14.909,26.247,9.2,5.852,19.635,7.957,31,6.247,43.7-6.567,93.506-68.144,120.124-125.58,15.814-34.56,28.558-66.279,37.881-94.286l1.7-5.1ZM67.665,395.068c-1.655.25-4.781-.97-7.732-4.236-3.966-4.4-5.562-10.023-4.266-15.049,10.463-40.756,37.055-103.354,69.394-163.371l2.711-5.021-5.532,1.415a61.962,61.962,0,0,1-6.132,1.255c-21.176,3.186-28.348-8.622-29.568-11.023a18.391,18.391,0,0,1-1.665-4.056,41.769,41.769,0,0,1,7.522,1.21c8.417,1.775,21.131,4.456,36.44,2.156,1-.155,2.016-.325,3.041-.52l1.14-.22.57-1.01c23.041-41.021,47.533-79.882,68.964-109.426l5.4-7.437-8.422,3.681C170,96.314,123.68,114.524,62.643,123.7q-7.337,1.1-14.949,2.031c-8.943,1.345-15,1.14-21.621-3.746-10.058-7.612-10.758-10.3-10.588-11.108.525-2.5,10.588-4.9,21.246-7.452l6.612-1.59c3.356-.83,6.4-1.455,9.068-1.856,9.958-1.5,14.059.075,19.255,2.066a52.038,52.038,0,0,0,16.595,3.916,140.153,140.153,0,0,0,29.7-1.5c31.054-4.666,63.768-18.035,94.5-31.779l.6-.27,1.13-1.555c16.895-23.452,24.642-27.743,27.758-28.208a1.994,1.994,0,0,1,2.021.6,16.748,16.748,0,0,1,4.156,9.338l.485,3.236,3-1.32c91.426-40.261,123.32-50.489,143.075-53.46A89.841,89.841,0,0,1,411.256.042c9.533.25,16.255,3.711,19.991,10.283,7.142,12.564,1.68,32.524.3,35-.71,1.265-1.435,1.68-1.72,1.72a5.9,5.9,0,0,1-.105-1.225c.475-9.153-2.111-16.365-7.692-21.421-8.947-8.117-25.492-10.428-49.169-6.867-31.6,4.751-76.116,20.1-125.34,43.2l-1.005.47-.325,1.06c-3.831,12.458-16.245,31.514-28.678,33.384-16.98,2.551-40.246,32.2-75.446,96.127L139.41,196.6l5.371-1.17C167,190.6,188.849,180.078,204.8,172.4c8.647-4.166,15.474-7.452,19.586-8.527,2.006-.48,3.921-.865,5.7-1.135,10.673-1.605,15.209,1.03,17.975,10.433.115.42.2.775.265,1.07-.645-.22-1.43-.52-2.121-.78-4.051-1.535-10.173-3.856-17.37-3l-1.08.145c-10.968,1.65-24.672,7.437-42.017,14.764-14.424,6.087-30.779,12.994-49.294,19.05l-.965.315-.475.905C95.017,282.521,75.017,367.925,69.84,392.267c-.53,2.556-1.725,2.736-2.176,2.8m243.168-40.691a64.921,64.921,0,0,1-10.633.74c-6.452-.075-10.973-2.081-13.089-5.8-1.791-3.151-1.73-7.5.065-12.093-1.685,4.5-1.56,8.527.4,11.513,2.5,3.806,7.542,5.532,14.979,5.116.9-.065,1.761-.165,2.621-.29,13.969-2.1,28.893-12.814,46.968-33.724,8.007-9.088,14.579-19.4,19.41-27.353l2.536-4.171-.09,0,.505-.92c11.523-21.041,20.826-47.943,9.1-54.53a11.823,11.823,0,0,0-7.362-.99c-24.527,3.686-77.822,65.723-99.6,96.552-8.037,11.433-13.059,29.283-13.269,30.038-.325.985-.8,1.675-1.22,1.74-.505.075-1.605-.3-3.061-1.585-2.646-2.346-4.281-5.687-4.241-6.952.175-3.611,8.988-29.818,17.6-53.815,3.826-10.543,32.934-77.942,54.185-127.156,12.754-29.533,22.831-52.86,23.937-55.776l.73-1.981c3.431-9.323,5.322-14.459,2.4-24.647-2.5-8.732,3.966-20.316,9.673-30.529l.56-1.015c1.866-3.336,3.711-5.231,5.341-5.477,2.341-.35,5.707,2.566,10.008,8.677,2.121,3.016,1.125,7.6.2,9.833-.99,2.486-3.731,8.7-7.2,16.58-4.621,10.478-10.378,23.527-14.774,34.075-28.768,68.764-77.932,189.473-79.337,193.809-.6,1.826-.45,3.4.42,4.426l.9,1.065,1.75-.07a4.579,4.579,0,0,0,2.851-2.031c54.625-69.009,82.8-86.019,96.807-88.125a16.572,16.572,0,0,1,8.587.73,15.161,15.161,0,0,1,8.672,8.918c3.986,10.088,1.215,27.548-7.242,45.563l-1.415,3.021-.34,0-.71,1.37c-8.382,16.2-20.561,30.9-27.073,38.226-12.789,13.894-32.174,24.267-50.554,27.033m302.46-45.813c-3.681.56-6.712.45-8.757-.3-6.657-2.506-9.573-6.837-9.728-14.469l-.105-5.422.44-.41.13-.865c1.41-9.473,5.852-22.676,13.974-41.562l.64-1.36c3.131-6.612,5.6-11.838,2.586-18.46-3.046-6.9.775-13.274,6.562-22.926.94-1.565,1.915-3.2,2.911-4.911.83-1.435,2.776-4.791,4.091-4.986.77-.115,3.206.6,9.2,9.748,2.536,3.611,2.661,8.112,2.031,9.633-1.1,3.341-6.437,14.329-10.733,23.156l-3.566,7.347.05.675c.15,1.851-.975,7.132-10.178,21.771-9.808,23.747-10.763,36.525-3.211,40.6,2.356,1.265,5.5,1.615,9.338,1.035a40.977,40.977,0,0,0,6.457-1.58,64.972,64.972,0,0,1-12.133,3.281m-76.081,10.623a79.158,79.158,0,0,1-15.429.805c-19.115-.975-33.97-14.714-41.492-27.253-4.441-7.392-4.871-11.928-4.386-12.969,1.2-2.546,2.446-3.221,3.951-3.446a25.394,25.394,0,0,1,6.007.28c1.731.2,3.631.42,5.717.52a16.032,16.032,0,0,0,3.1-.18c10.718-1.61,27.863-13.094,35.27-23.627,5.487-8.112,7.627-17.19,5.757-24.312-.88-3.346-2.626-5.812-4.916-6.957a9.426,9.426,0,0,0-5.572-.52c-7.947,1.19-22.531,8.8-41.032,26.3,18.365-18.205,39.746-38.251,55.646-40.641a18.355,18.355,0,0,1,5.216-.085c5.737.78,9.188,3.246,10.538,7.527,3.826,12.073-9.4,34.755-19.831,44.458-14.619,13.624-29.178,19.125-38.821,21.336-.835.2-3.491,1.16-3.216,5.392.57,8.557,12.694,26.327,32.9,28.363a73.116,73.116,0,0,0,18.255-.465c15.865-2.386,31.939-10.043,45.748-21.711l-.005.005c-11.353,10.443-29.838,23.632-53.4,27.178m-119.148,17.78c-.465.07-1.4-.245-2.626-1.33-2.636-2.341-4.321-6.042-4.276-7.462.12-2.5,6.157-18.17,11.008-30.769l.835-2.181-.875-.535.925.415.945-2.466c2.551-6.632,5.031-13.159,6.992-18.61,3.876-10.688,32.549-78.777,53.485-128.491,11.958-28.393,21.4-50.819,22.481-53.665l.72-1.966c3.436-9.333,5.327-14.469,2.411-24.662-2.506-8.732,3.961-20.311,9.663-30.524l.57-1.015c1.861-3.341,3.706-5.231,5.336-5.477C528,27.875,531.37,30.8,535.666,36.9c2.121,3.021,1.13,7.6.205,9.828-1,2.516-3.751,8.752-7.182,16.525-4.626,10.5-10.393,23.567-14.8,34.135-29.518,70.57-76.782,187.938-79.182,194.625a3.886,3.886,0,0,0,.49,3.936,3.289,3.289,0,0,0,3.031,1.085,4.808,4.808,0,0,0,2.5-1.255c1.105-1.15,2.841-3.236,5.246-6.137,6.157-7.422,16.21-19.55,29.343-32.944a407.131,407.131,0,0,0-38.426,47.6l-.915,1.345.86,1.385c2.1,3.371,2.611,5.847,2.451,6.707a15.334,15.334,0,0,1-3.336-2.591l-2.206-2.131-1.645,2.6a148.572,148.572,0,0,0-12.328,23.091c-.52,1.34-1.155,2.176-1.706,2.261M299.41,320.1a91.19,91.19,0,0,1,21.941-15.834A104.713,104.713,0,0,0,299.41,320.1m355.38-149.772c-1.976.3-4.141-.64-6.432-2.786-6.532-6.127-6.527-7.317.11-21.166,1.911-3.841,2.031-5.086,2.081-6.962a15.972,15.972,0,0,1,.125-1.836,1.688,1.688,0,0,1,1.505-1.545,3.882,3.882,0,0,1,3.131,1.25c7.622,8.4,10.753,15.364,9.183,20.576-2.626,7.352-6.177,11.938-9.7,12.469" transform="translate(61.882 0)" fill="#fff"/><path d="M1179.081,104.335c65.818-69.489-315.2-39.261-353.439-35.715C579.658,87.22,314.328,142.781,88.8,212.95c-27.6,13.774-62.127,17.9-88.8,36.48,19.505,6.737,47.878-8.942,67.964-15.4C331.558,130.522,619.8,92.852,903.078,68.15c78.9-1.225,163.826-14.759,240.833,8.032,22.371,6.927,36.05,6.352,10.713,24.412-28.438,15.549,18.29,17.07,24.457,3.741" transform="translate(0 236.283)" fill="#fff"/></g></svg>