<?xml version="1.0" encoding="UTF-8"?>
<svg id="_レイヤー_2" data-name="レイヤー 2" xmlns="http://www.w3.org/2000/svg" viewBox="0 0 1071.38 298.91">
  <defs>
    <style>
      .cls-1 {
        fill: #ecb6f6;
      }

      .cls-2 {
        isolation: isolate;
      }

      .cls-3 {
        fill: #eadbff;
      }

      .cls-4 {
        fill: #acebfb;
      }
    </style>
  </defs>
  <g id="_レイヤー_1-2" data-name="レイヤー 1">
    <g>
      <g class="cls-2">
        <path class="cls-3" d="M47.02,141.17h-24.62c-5.26,0-9.08-2.09-11.37-6.21-2.24-4.02-3.38-11.34-3.38-21.75V32.19c0-15.49,4.96-23.34,14.75-23.34h18.38c13.11,0,23.79,5.89,31.72,17.5,7.9,11.55,11.9,27.66,11.9,47.9,0,6.51-.4,12.93-1.19,19.07-.79,6.15-2.12,12.21-3.96,18.04-1.84,5.84-4.17,10.98-6.93,15.29-2.78,4.33-6.36,7.87-10.66,10.52-4.31,2.66-9.23,4.01-14.64,4.01ZM22.39,9.84c-9.25,0-13.75,7.31-13.75,22.35v81.02c0,10.24,1.09,17.39,3.25,21.26,2.13,3.83,5.57,5.7,10.5,5.7h24.62c5.22,0,9.97-1.3,14.11-3.86,4.17-2.57,7.65-6.01,10.34-10.21,2.71-4.23,5.01-9.29,6.82-15.05,1.81-5.77,3.13-11.78,3.92-17.87.79-6.1,1.18-12.47,1.18-18.94,0-20.03-3.94-35.95-11.73-47.34-7.74-11.32-18.14-17.06-30.9-17.06h-18.38ZM37.02,115.06h-.5V35.51l.52.03c2.73.13,5.1.77,7.04,1.89,1.94,1.13,3.74,3.06,5.36,5.74,1.61,2.67,2.85,6.6,3.69,11.7.83,5.07,1.26,11.33,1.26,18.61,0,6.51-.28,12.25-.82,17.05-.54,4.81-1.28,8.81-2.2,11.89-.93,3.12-2.16,5.66-3.65,7.56-1.51,1.92-3.13,3.26-4.82,3.99-1.68.73-3.66,1.1-5.88,1.1ZM37.51,36.56v77.5c1.89-.05,3.57-.39,4.99-1.01,1.54-.66,3.03-1.91,4.43-3.69,1.41-1.8,2.58-4.23,3.48-7.23.9-3.03,1.63-6.97,2.17-11.72.54-4.76.81-10.46.81-16.94,0-7.22-.42-13.43-1.24-18.45-.82-4.97-2.02-8.79-3.56-11.34-1.53-2.54-3.22-4.35-5.01-5.4-1.68-.97-3.71-1.55-6.07-1.72Z"/>
        <path class="cls-3" d="M107.52,141.17c-5,0-8.74-2.09-11.12-6.2-2.33-4.02-3.5-11.28-3.5-21.56V32.19c0-15.62,4.92-23.54,14.62-23.54,4.96,0,8.76,1.48,11.31,4.39,2.56,2.94,3.81,8.64,3.81,17.42v81.41c0,10.02-1.24,17.46-3.68,22.12-2.5,4.76-6.35,7.18-11.44,7.18ZM107.52,9.65c-9.17,0-13.63,7.37-13.63,22.54v81.22c0,10.11,1.13,17.19,3.37,21.06,2.22,3.84,5.57,5.7,10.26,5.7s8.21-2.17,10.56-6.65c2.37-4.52,3.57-11.8,3.57-21.66V30.46c0-8.41-1.2-14.05-3.56-16.76-2.35-2.69-5.9-4.05-10.56-4.05Z"/>
        <path class="cls-3" d="M177.14,142.51c-9.31,0-17.72-2.62-24.98-7.77-7.25-5.15-13.07-12.94-17.29-23.16-4.21-10.19-6.35-22.43-6.35-36.38,0-20.74,4.15-37.37,12.33-49.43,8.23-12.12,19.3-18.27,32.91-18.27,5.35,0,10.24.62,14.51,1.84,4.28,1.23,7.89,2.9,10.72,4.97,2.83,2.08,5.23,4.61,7.12,7.52,1.89,2.91,3.26,6.03,4.07,9.27.8,3.23,1.2,6.63,1.2,10.1,0,2.46-.26,4.85-.76,7.12-.51,2.28-1.43,4.59-2.74,6.86-1.34,2.31-3.4,4.22-6.14,5.66-2.72,1.44-6.04,2.17-9.86,2.17-5.66,0-9.34-1.34-10.93-3.99-1.56-2.6-2.32-8.37-2.32-17.63,0-3.67-1.51-5.46-4.63-5.46s-6.14,2.93-8.54,8.72c-2.46,5.93-3.71,16.01-3.71,29.95,0,12.92,1.43,22.44,4.26,28.3,2.77,5.74,6.05,8.65,9.74,8.65,1.15,0,2.18-.34,3.14-1.05.96-.71,1.77-1.81,2.4-3.25.59-1.35.91-2.99.95-4.89-1.9-.09-3.58-.7-4.99-1.82-1.52-1.2-2.65-2.73-3.34-4.53-.69-1.77-1.03-3.74-1.03-5.84,0-4.69.83-8.27,2.46-10.65,1.67-2.44,4.54-3.67,8.53-3.67h15.12c4.96,0,8.88,1.68,11.63,4.98,2.73,3.28,4.12,9.07,4.12,17.21,0,11.84-3.74,22.32-11.12,31.13-7.4,8.84-16.32,13.33-26.51,13.33ZM173.77,8.5c-13.26,0-24.06,6-32.09,17.83-8.07,11.89-12.16,28.33-12.16,48.87,0,13.82,2.11,25.94,6.27,36,4.15,10.04,9.85,17.69,16.95,22.73,7.09,5.04,15.3,7.59,24.4,7.59,9.88,0,18.54-4.36,25.74-12.97,7.22-8.64,10.88-18.9,10.88-30.5,0-7.91-1.31-13.48-3.88-16.58-2.56-3.07-6.21-4.62-10.87-4.62h-15.12c-3.64,0-6.24,1.09-7.72,3.24-1.52,2.21-2.29,5.6-2.29,10.09,0,1.98.33,3.83.97,5.49.63,1.63,1.65,3.02,3.03,4.11,1.36,1.08,3,1.62,4.88,1.62h.5v.5c0,2.23-.35,4.17-1.04,5.77-.7,1.61-1.62,2.84-2.72,3.66-1.13.83-2.38,1.25-3.73,1.25-4.11,0-7.68-3.1-10.63-9.21-2.89-5.99-4.36-15.66-4.36-28.73,0-14.08,1.27-24.28,3.79-30.33,2.57-6.19,5.76-9.33,9.46-9.33,2.56,0,5.62,1.12,5.62,6.45,0,8.95.73,14.71,2.18,17.12,1.4,2.32,4.79,3.5,10.08,3.5,3.65,0,6.81-.69,9.39-2.05,2.57-1.36,4.5-3.13,5.74-5.28,1.26-2.19,2.15-4.4,2.63-6.58.49-2.19.74-4.51.74-6.9,0-3.4-.39-6.72-1.17-9.87-.78-3.13-2.1-6.15-3.93-8.97-1.83-2.81-4.15-5.26-6.88-7.26-2.73-2-6.23-3.62-10.41-4.82-4.19-1.2-8.98-1.8-14.24-1.8Z"/>
        <path class="cls-3" d="M238.27,141.17c-5,0-8.74-2.09-11.12-6.2-2.33-4.02-3.5-11.28-3.5-21.56V32.19c0-15.62,4.92-23.54,14.62-23.54,4.96,0,8.76,1.48,11.31,4.39,2.56,2.94,3.81,8.64,3.81,17.42v81.41c0,10.02-1.24,17.46-3.68,22.12-2.5,4.76-6.35,7.18-11.44,7.18ZM238.27,9.65c-9.17,0-13.63,7.37-13.63,22.54v81.22c0,10.11,1.13,17.19,3.37,21.06,2.22,3.84,5.57,5.7,10.26,5.7s8.21-2.17,10.56-6.65c2.37-4.52,3.57-11.8,3.57-21.66V30.46c0-8.41-1.2-14.05-3.56-16.76-2.35-2.69-5.9-4.05-10.56-4.05Z"/>
        <path class="cls-3" d="M296.27,141.17c-5.09,0-8.83-2.12-11.12-6.31-2.24-4.09-3.42-11.37-3.5-21.64l-.25-70.35h-10.13c-5.36,0-9.45-1.34-12.16-3.98-2.71-2.65-4.09-7.35-4.09-13.99,0-4.02.54-7.25,1.61-9.61,1.09-2.41,2.75-4.14,4.93-5.14,2.14-.99,5.03-1.49,8.58-1.49h53.5c4.8,0,8.34,1.35,10.51,4.02,2.15,2.64,3.24,7.21,3.24,13.56,0,4.28-.63,7.68-1.87,10.11-1.26,2.46-2.96,4.19-5.05,5.12-2.05.92-4.73,1.39-7.95,1.39h-11.13v69.01c0,7.31-.6,13.2-1.77,17.51-1.19,4.37-2.87,7.46-4.98,9.18-2.12,1.73-4.94,2.61-8.38,2.61ZM270.14,9.65c-3.41,0-6.16.47-8.17,1.39-1.96.9-3.46,2.47-4.44,4.65-1.01,2.23-1.52,5.32-1.52,9.2,0,6.36,1.27,10.83,3.79,13.28,2.52,2.45,6.37,3.7,11.47,3.7h11.12l.25,71.34c.08,10.11,1.22,17.23,3.38,21.17,2.13,3.9,5.49,5.79,10.25,5.79,3.2,0,5.81-.8,7.75-2.38,1.95-1.59,3.51-4.5,4.65-8.67,1.15-4.23,1.73-10.03,1.73-17.25V41.87h12.12c3.08,0,5.62-.44,7.55-1.3,1.88-.84,3.42-2.41,4.57-4.67,1.17-2.29,1.76-5.54,1.76-9.66,0-6.12-1.01-10.47-3.01-12.93-1.97-2.43-5.25-3.66-9.74-3.66h-53.5Z"/>
        <path class="cls-3" d="M399.02,141.17c-5.64,0-9.69-1.62-12.03-4.81-2.3-3.15-3.47-8.09-3.47-14.69v-9.68h-19.76v9.68c0,6.61-1.17,11.55-3.47,14.69-2.34,3.19-6.38,4.81-12.03,4.81-2.43,0-4.46-.55-6.03-1.62-1.57-1.07-2.95-2.88-4.11-5.39-1.14-2.47-2-6.11-2.54-10.81-.54-4.67-.96-10.36-1.25-16.93-.29-6.54-.44-14.97-.44-25.08,0-8.82.61-17.02,1.82-24.37,1.21-7.36,2.86-13.69,4.9-18.82,2.04-5.12,4.39-9.71,6.99-13.63,2.6-3.93,5.48-7.04,8.56-9.25,3.06-2.19,6.09-3.86,8.99-4.96,6.43-2.43,13.08-2.15,19.43.58,3.46,1.49,7,4.08,10.54,7.69,3.52,3.6,6.64,8.13,9.28,13.47,2.63,5.32,4.81,12.31,6.48,20.76,1.67,8.44,2.51,18.04,2.51,28.51,0,16.83-.4,29.47-1.19,37.58-.8,8.17-2.17,13.95-4.07,17.2-1.96,3.35-5.03,5.05-9.12,5.05ZM362.77,110.99h21.74v10.67c0,6.39,1.1,11.13,3.28,14.11,2.14,2.92,5.92,4.4,11.22,4.4,3.76,0,6.46-1.49,8.26-4.55,1.83-3.12,3.15-8.77,3.94-16.79.79-8.08,1.18-20.69,1.18-37.49,0-10.41-.84-19.94-2.49-28.32-1.65-8.37-3.81-15.27-6.4-20.52-2.59-5.24-5.65-9.69-9.1-13.22-3.44-3.52-6.88-6.04-10.22-7.47-6.12-2.63-12.5-2.91-18.69-.57-2.82,1.07-5.77,2.7-8.76,4.83-2.98,2.13-5.78,5.16-8.31,8.99-2.55,3.86-4.87,8.39-6.89,13.45-2.02,5.07-3.65,11.33-4.85,18.62-1.2,7.3-1.81,15.44-1.81,24.21,0,10.09.15,18.51.44,25.03.29,6.55.71,12.22,1.25,16.86.53,4.59,1.36,8.13,2.46,10.51,1.08,2.34,2.35,4.02,3.77,4.98,1.41.96,3.25,1.45,5.47,1.45,5.31,0,9.08-1.48,11.22-4.4,2.18-2.97,3.28-7.72,3.28-14.11v-10.67ZM384.52,85.49h-21.74v-23.15c0-8.35.86-14.02,2.62-17.32,1.79-3.36,4.61-5.06,8.38-5.06,2.36,0,4.34.65,5.88,1.94,1.53,1.28,2.75,3.63,3.6,6.98.84,3.29,1.26,7.7,1.26,13.08v23.54ZM363.77,84.5h19.76v-22.54c0-5.3-.42-9.62-1.23-12.84-.8-3.14-1.91-5.32-3.27-6.46-1.36-1.13-3.13-1.71-5.25-1.71-3.42,0-5.87,1.48-7.5,4.54-1.66,3.11-2.5,8.78-2.5,16.85v22.16Z"/>
        <path class="cls-3" d="M469.64,141.17h-32.64c-3.92-.13-7.12-1.1-9.53-2.88-2.41-1.79-4.24-4.75-5.43-8.8-1.17-3.99-1.77-9.4-1.77-16.08V32.19c0-6.84,1.33-12.52,3.95-16.86,2.67-4.43,6.26-6.67,10.68-6.67,5.13,0,8.98,1.48,11.44,4.4,2.48,2.94,3.68,8.63,3.68,17.41v76.5h20.88c4.96,0,8.51,1.15,10.56,3.43,2.06,2.3,3.07,6.8,3.07,13.77s-1.16,11.64-3.54,13.81c-2.33,2.12-6.15,3.2-11.33,3.2ZM437.03,140.18h32.62c4.93,0,8.52-.99,10.67-2.94,2.13-1.94,3.21-6.34,3.21-13.07s-.95-11.03-2.81-13.11c-1.85-2.06-5.16-3.1-9.82-3.1h-21.87V30.46c0-8.41-1.16-14.06-3.45-16.77-2.27-2.69-5.86-4.05-10.68-4.05-4.1,0-7.32,2.02-9.82,6.19-2.53,4.19-3.8,9.69-3.8,16.35v81.22c0,6.58.58,11.9,1.73,15.79,1.13,3.84,2.84,6.63,5.07,8.29,2.24,1.66,5.25,2.56,8.96,2.69Z"/>
        <path class="cls-3" d="M94.64,297.57c-3.9,0-7.12-1.65-9.58-4.9-2.43-3.21-3.71-8.44-3.79-15.56v-47.11l-14.65,46.1c-1.35,4.14-2.81,7.14-4.35,8.91-1.59,1.83-3.53,2.76-5.75,2.76-2.84,0-5.25-1.53-7.17-4.55-1.84-2.9-4.26-8.19-7.17-15.74l-13.54-37.83v51.48c0,5.57-.85,9.73-2.52,12.36-1.71,2.7-4.32,4.07-7.73,4.07-3.83,0-6.66-1.33-8.41-3.97-1.74-2.6-2.58-7.5-2.58-14.96v-83.71c0-9.9,1.5-17.48,4.44-22.52,3-5.13,8.1-7.73,15.18-7.73,2.68,0,5.04.71,7.04,2.11,1.97,1.38,3.47,2.99,4.46,4.77.96,1.74,1.92,3.93,2.85,6.51l16.3,54.74,17.26-53.77c3.14-9.4,8.9-14.17,17.1-14.17,3.84,0,7.18,1.03,9.92,3.07,2.74,2.04,4.92,5.35,6.49,9.83,1.55,4.45,2.34,10.09,2.34,16.77v83.52c-.09,12.94-5.51,19.5-16.12,19.5ZM82.26,223.6v53.51c.08,6.89,1.29,11.93,3.59,14.96,2.29,3.03,5.17,4.51,8.79,4.51,10.1,0,15.04-6.06,15.13-18.51v-83.52c0-6.57-.77-12.1-2.28-16.44-1.5-4.3-3.57-7.45-6.14-9.37-2.57-1.91-5.71-2.88-9.33-2.88-7.83,0-13.12,4.41-16.15,13.48l-18.24,56.82-17.21-57.79c-.9-2.5-1.83-4.64-2.77-6.33-.92-1.65-2.32-3.15-4.16-4.44-1.82-1.28-4-1.93-6.46-1.93-6.7,0-11.51,2.44-14.32,7.24-2.86,4.89-4.31,12.3-4.31,22.02v83.71c0,7.16.81,12.01,2.42,14.41,1.58,2.37,4.06,3.52,7.59,3.52,3.1,0,5.35-1.18,6.89-3.61,1.57-2.47,2.36-6.45,2.36-11.83v-57.2l15.46,43.21c2.88,7.47,5.27,12.71,7.08,15.55,1.75,2.75,3.82,4.09,6.33,4.09,1.95,0,3.59-.79,5-2.42,1.45-1.67,2.85-4.55,4.15-8.56l16.59-52.2Z"/>
        <path class="cls-3" d="M176.64,297.57h-40.5c-5.09,0-8.87-2.12-11.25-6.3-2.32-4.09-3.5-11.37-3.5-21.65v-81.02c0-15.62,4.96-23.54,14.75-23.54h40.5c4.94,0,8.7,1.21,11.16,3.6,2.46,2.39,3.71,6.71,3.71,12.84,0,5.74-1.07,9.82-3.19,12.14-2.13,2.34-5.64,3.52-10.43,3.52h-26.75v21.47h21c4.55,0,7.81,1.16,9.7,3.44,1.86,2.26,2.8,6.11,2.8,11.45,0,4.48-1.13,7.74-3.36,9.69-2.21,1.93-5.66,2.91-10.26,2.91h-19.75v19.36l26.63.19c4.78,0,8.29,1.12,10.42,3.32,2.12,2.2,3.2,6.09,3.2,11.58,0,6.25-1.25,10.7-3.7,13.21-2.46,2.52-6.22,3.8-11.17,3.8ZM136.14,166.05c-9.25,0-13.75,7.37-13.75,22.54v81.02c0,10.11,1.13,17.23,3.37,21.16,2.22,3.9,5.61,5.8,10.38,5.8h40.5c4.67,0,8.19-1.18,10.46-3.5,2.27-2.32,3.42-6.53,3.42-12.52,0-5.22-.98-8.88-2.92-10.89-1.94-2-5.2-3.02-9.71-3.02l-27.62-.2v-21.34h20.75c4.36,0,7.59-.89,9.61-2.66,2-1.75,3.02-4.75,3.02-8.94,0-5.1-.87-8.74-2.57-10.82-1.69-2.04-4.69-3.08-8.93-3.08h-22v-23.46h27.75c4.5,0,7.76-1.08,9.7-3.2,1.95-2.13,2.93-5.99,2.93-11.47,0-5.85-1.15-9.93-3.41-12.12-2.27-2.2-5.79-3.31-10.47-3.31h-40.5Z"/>
        <path class="cls-3" d="M235.64,298.91c-4.61,0-9.14-.72-13.47-2.14-4.32-1.42-8.15-3.31-11.39-5.64-3.23-2.32-6.12-4.93-8.58-7.76-2.48-2.84-4.38-5.79-5.64-8.77-1.27-2.99-1.92-5.83-1.92-8.45,0-2.9.63-5.41,1.89-7.46,1.3-2.13,3.23-3.21,5.74-3.21,1.84,0,6.04,1.68,12.85,5.14,6.56,3.34,11.91,5.03,15.9,5.03,3.45,0,5.13-1.78,5.13-5.46,0-1.1-.14-2.11-.42-3.02-.27-.9-.75-1.82-1.42-2.73-.68-.93-1.46-1.81-2.32-2.62-.87-.82-2.08-1.88-3.6-3.15l-4.62-3.84c-1.54-1.28-3.56-2.94-6.06-4.99-2.5-2.05-4.94-4.12-7.26-6.16-3.11-2.71-5.82-6.12-8.04-10.12-2.22-3.98-3.85-8-4.86-11.93-1-3.92-1.52-7.62-1.52-10.97,0-10.83,3.2-19.79,9.51-26.64,6.32-6.86,15.4-10.34,26.99-10.34,9.99,0,18.64,3.21,25.71,9.54,7.08,6.34,10.67,13.19,10.67,20.34,0,1.97-.29,3.68-.85,5.08-.58,1.43-1.31,2.47-2.17,3.1-.88.64-1.84.96-2.85.96-1.63,0-3.94-1.2-7.06-3.66-2.97-2.34-6.32-4.72-9.96-7.08-3.57-2.3-6.89-3.47-9.86-3.47-4.63,0-6.88,2.85-6.88,8.72,0,1.84.38,3.61,1.14,5.26.77,1.67,2.02,3.44,3.72,5.24,1.73,1.84,3.44,3.47,5.08,4.86,1.66,1.4,3.9,3.25,6.87,5.66,2.94,2.39,5.42,4.49,7.39,6.25,6.43,5.65,11.01,11.12,13.61,16.27,2.61,5.17,3.93,11.19,3.93,17.89,0,26.7-11.9,40.24-35.37,40.24ZM202.27,256.48c-2.17,0-3.77.89-4.89,2.74-1.15,1.9-1.74,4.23-1.74,6.94,0,2.48.62,5.19,1.83,8.06,1.22,2.88,3.07,5.75,5.48,8.51,2.42,2.77,5.25,5.33,8.42,7.6,3.15,2.27,6.89,4.12,11.11,5.5,4.22,1.38,8.65,2.09,13.16,2.09,22.81,0,34.38-13.2,34.38-39.25,0-6.54-1.29-12.41-3.82-17.44-2.54-5.04-7.05-10.41-13.38-15.98-1.96-1.76-4.44-3.85-7.36-6.23-2.97-2.41-5.22-4.26-6.88-5.67-1.67-1.41-3.41-3.07-5.17-4.93-1.78-1.88-3.09-3.74-3.9-5.51-.82-1.78-1.23-3.69-1.23-5.68,0-6.44,2.65-9.71,7.87-9.71,3.16,0,6.66,1.22,10.39,3.63,3.67,2.37,7.05,4.77,10.04,7.13,2.89,2.29,5.06,3.45,6.44,3.45.82,0,1.56-.25,2.27-.77.71-.52,1.33-1.41,1.83-2.67.52-1.28.78-2.86.78-4.71,0-6.86-3.48-13.45-10.33-19.6-6.88-6.16-15.3-9.28-25.04-9.28-11.3,0-20.14,3.37-26.26,10.02-6.13,6.66-9.24,15.4-9.24,25.97,0,3.27.5,6.88,1.48,10.72.98,3.85,2.59,7.78,4.76,11.69,2.17,3.9,4.8,7.21,7.83,9.85,2.31,2.03,4.75,4.09,7.24,6.13,2.5,2.05,4.52,3.71,6.06,4.99l4.62,3.84c1.54,1.28,2.77,2.35,3.65,3.19.9.85,1.71,1.78,2.43,2.75.74,1,1.27,2.02,1.58,3.03.3,1,.46,2.12.46,3.31,0,4.22-2.12,6.45-6.12,6.45s-9.65-1.73-16.35-5.14c-6.57-3.34-10.74-5.03-12.4-5.03Z"/>
        <path class="cls-3" d="M317.39,298.91c-4.61,0-9.14-.72-13.47-2.14-4.32-1.41-8.15-3.31-11.39-5.64-3.22-2.32-6.11-4.92-8.58-7.76-2.48-2.84-4.38-5.79-5.65-8.77-1.27-2.99-1.92-5.84-1.92-8.45,0-2.89.63-5.4,1.89-7.46,1.3-2.13,3.23-3.21,5.74-3.21,1.84,0,6.04,1.68,12.85,5.14,6.56,3.34,11.91,5.03,15.9,5.03,3.45,0,5.13-1.78,5.13-5.46,0-1.1-.14-2.11-.42-3.02-.27-.9-.75-1.82-1.42-2.73-.68-.93-1.46-1.81-2.32-2.62-.86-.81-2.07-1.87-3.6-3.15l-4.62-3.84c-1.54-1.28-3.56-2.94-6.06-4.99-2.52-2.06-4.96-4.13-7.26-6.16-3.11-2.71-5.82-6.12-8.04-10.12-2.22-3.98-3.85-8-4.86-11.93-1-3.92-1.52-7.62-1.52-10.97,0-10.83,3.2-19.79,9.51-26.64,6.32-6.86,15.4-10.34,26.99-10.34,9.99,0,18.64,3.21,25.71,9.54,7.08,6.34,10.67,13.18,10.67,20.34,0,1.98-.29,3.69-.85,5.08-.58,1.43-1.31,2.47-2.17,3.1-.88.64-1.84.96-2.85.96-1.63,0-3.94-1.2-7.06-3.66-2.96-2.34-6.31-4.72-9.96-7.08-3.57-2.3-6.89-3.47-9.86-3.47-4.63,0-6.88,2.85-6.88,8.72,0,1.84.38,3.61,1.14,5.26.77,1.67,2.02,3.44,3.72,5.24,1.73,1.84,3.44,3.47,5.08,4.86,1.66,1.4,3.9,3.25,6.87,5.66,2.92,2.38,5.41,4.48,7.39,6.25,6.43,5.65,11.01,11.13,13.61,16.27,2.61,5.17,3.93,11.19,3.93,17.89,0,26.7-11.9,40.24-35.37,40.24ZM284.02,256.48c-2.17,0-3.77.89-4.89,2.74-1.15,1.9-1.74,4.23-1.74,6.94,0,2.48.62,5.19,1.83,8.06,1.22,2.88,3.07,5.75,5.48,8.51,2.42,2.77,5.25,5.33,8.42,7.6,3.16,2.27,6.9,4.12,11.12,5.5,4.22,1.38,8.65,2.09,13.16,2.09,22.81,0,34.38-13.2,34.38-39.25,0-6.54-1.29-12.41-3.82-17.44-2.54-5.03-7.05-10.41-13.38-15.98-1.98-1.77-4.45-3.86-7.36-6.23-2.97-2.41-5.22-4.26-6.88-5.67-1.67-1.41-3.41-3.07-5.17-4.93-1.78-1.89-3.09-3.74-3.9-5.51-.82-1.78-1.23-3.69-1.23-5.68,0-6.44,2.65-9.71,7.87-9.71,3.16,0,6.66,1.22,10.39,3.63,3.68,2.38,7.05,4.78,10.04,7.13,2.89,2.29,5.06,3.45,6.44,3.45.82,0,1.56-.25,2.27-.77.71-.52,1.33-1.41,1.83-2.67.52-1.28.78-2.86.78-4.71,0-6.86-3.48-13.45-10.33-19.6-6.88-6.16-15.3-9.28-25.04-9.28-11.3,0-20.14,3.37-26.26,10.02-6.13,6.66-9.24,15.4-9.24,25.97,0,3.27.5,6.88,1.48,10.72.98,3.85,2.59,7.78,4.76,11.69,2.17,3.9,4.8,7.21,7.83,9.85,2.3,2.02,4.73,4.08,7.24,6.13,2.5,2.05,4.52,3.71,6.06,4.99l4.62,3.84c1.55,1.29,2.78,2.36,3.65,3.19.9.85,1.71,1.78,2.43,2.75.74,1,1.27,2.02,1.58,3.03.3,1,.46,2.12.46,3.31,0,4.22-2.12,6.45-6.12,6.45s-9.65-1.73-16.35-5.14c-6.57-3.34-10.74-5.03-12.4-5.03Z"/>
        <path class="cls-3" d="M423.26,297.57c-5.64,0-9.69-1.62-12.03-4.81-2.3-3.14-3.47-8.09-3.47-14.69v-9.68h-19.76v9.68c0,6.6-1.17,11.55-3.47,14.69-2.34,3.19-6.38,4.81-12.03,4.81-2.43,0-4.46-.55-6.03-1.62-1.57-1.07-2.95-2.88-4.11-5.38-1.14-2.47-2-6.11-2.54-10.81-.54-4.66-.96-10.35-1.25-16.93-.29-6.54-.44-14.97-.44-25.08,0-8.83.61-17.02,1.82-24.37,1.21-7.36,2.86-13.69,4.9-18.82,2.04-5.12,4.39-9.71,6.98-13.63,2.6-3.93,5.48-7.05,8.56-9.25,3.06-2.19,6.08-3.86,8.99-4.96,6.43-2.43,13.08-2.15,19.43.58,3.46,1.49,7,4.08,10.54,7.69,3.52,3.6,6.64,8.14,9.28,13.47,2.63,5.32,4.81,12.31,6.48,20.76,1.67,8.44,2.51,18.04,2.51,28.51,0,16.83-.4,29.47-1.19,37.58-.8,8.17-2.16,13.95-4.07,17.2-1.96,3.35-5.03,5.05-9.12,5.05ZM387.02,267.39h21.74v10.67c0,6.39,1.1,11.14,3.28,14.11,2.14,2.92,5.92,4.41,11.22,4.41,3.76,0,6.46-1.49,8.26-4.55,1.83-3.12,3.15-8.77,3.93-16.79.79-8.08,1.18-20.69,1.18-37.49,0-10.41-.84-19.94-2.49-28.32-1.65-8.37-3.8-15.27-6.4-20.52-2.59-5.24-5.65-9.69-9.1-13.22-3.44-3.52-6.88-6.04-10.22-7.47-6.12-2.63-12.5-2.9-18.69-.57-2.82,1.07-5.77,2.7-8.76,4.83-2.98,2.13-5.78,5.16-8.31,8.99-2.56,3.86-4.87,8.39-6.89,13.45-2.02,5.06-3.65,11.33-4.85,18.62-1.2,7.29-1.81,15.44-1.81,24.21,0,10.09.15,18.51.44,25.03.29,6.55.71,12.23,1.25,16.86.53,4.6,1.36,8.13,2.46,10.51,1.08,2.34,2.35,4.02,3.77,4.98,1.41.96,3.25,1.45,5.47,1.45,5.31,0,9.08-1.48,11.22-4.4,2.18-2.97,3.28-7.72,3.28-14.11v-10.67ZM408.76,241.89h-21.74v-23.15c0-8.24.88-14.06,2.62-17.32,1.79-3.36,4.61-5.06,8.38-5.06,2.36,0,4.34.65,5.88,1.94,1.54,1.28,2.75,3.63,3.6,6.98.84,3.3,1.27,7.7,1.27,13.08v23.54ZM388.01,240.9h19.76v-22.54c0-5.3-.42-9.62-1.23-12.84-.8-3.14-1.9-5.32-3.27-6.46-1.36-1.13-3.13-1.71-5.25-1.71-3.42,0-5.87,1.48-7.5,4.54-1.66,3.11-2.5,8.78-2.5,16.85v22.16Z"/>
        <path class="cls-3" d="M491.76,298.91c-9.32,0-17.72-2.62-24.98-7.77-7.25-5.15-13.07-12.94-17.3-23.16-4.21-10.19-6.35-22.43-6.35-36.38,0-20.74,4.15-37.37,12.33-49.43,8.23-12.12,19.3-18.27,32.91-18.27,5.35,0,10.24.62,14.51,1.84,4.28,1.23,7.89,2.9,10.72,4.97,2.83,2.08,5.22,4.61,7.12,7.52,1.89,2.91,3.26,6.03,4.07,9.27.8,3.23,1.2,6.63,1.2,10.1,0,2.46-.26,4.85-.76,7.12-.51,2.28-1.43,4.59-2.74,6.86-1.33,2.31-3.4,4.22-6.14,5.66-2.72,1.44-6.04,2.17-9.86,2.17-5.66,0-9.34-1.34-10.93-3.99-1.56-2.6-2.32-8.37-2.32-17.63,0-3.67-1.51-5.46-4.63-5.46s-6.14,2.93-8.54,8.72c-2.46,5.93-3.71,16.01-3.71,29.95,0,12.92,1.43,22.44,4.26,28.3,2.77,5.74,6.05,8.65,9.74,8.65,1.15,0,2.18-.34,3.14-1.05.96-.71,1.77-1.81,2.4-3.25.59-1.35.91-2.99.95-4.89-1.9-.09-3.58-.7-4.99-1.82-1.52-1.2-2.65-2.73-3.34-4.53-.69-1.77-1.03-3.74-1.03-5.84,0-4.69.83-8.27,2.46-10.65,1.67-2.44,4.54-3.67,8.53-3.67h15.12c4.96,0,8.88,1.68,11.63,4.98,2.73,3.28,4.12,9.07,4.12,17.21,0,11.84-3.74,22.32-11.12,31.13-7.4,8.84-16.32,13.33-26.51,13.33ZM488.39,164.9c-13.26,0-24.06,6-32.09,17.83-8.07,11.89-12.16,28.33-12.16,48.87,0,13.82,2.11,25.94,6.27,36,4.15,10.04,9.85,17.69,16.95,22.73,7.09,5.04,15.3,7.59,24.4,7.59,9.88,0,18.54-4.36,25.74-12.97,7.22-8.64,10.88-18.9,10.88-30.5,0-7.91-1.31-13.48-3.88-16.58-2.56-3.07-6.21-4.62-10.87-4.62h-15.12c-3.64,0-6.24,1.09-7.72,3.24-1.52,2.21-2.29,5.6-2.29,10.09,0,1.98.33,3.83.97,5.49.63,1.64,1.65,3.02,3.03,4.11,1.36,1.08,3,1.62,4.88,1.62h.5v.5c0,2.23-.35,4.17-1.04,5.77-.7,1.61-1.62,2.84-2.72,3.66-1.13.83-2.38,1.25-3.73,1.25-4.11,0-7.68-3.1-10.63-9.21-2.89-5.99-4.36-15.66-4.36-28.73,0-14.08,1.28-24.28,3.79-30.33,2.57-6.19,5.76-9.33,9.46-9.33,2.56,0,5.62,1.12,5.62,6.45,0,8.95.73,14.71,2.18,17.12,1.4,2.32,4.79,3.5,10.07,3.5,3.65,0,6.81-.69,9.39-2.05,2.57-1.36,4.5-3.13,5.74-5.28,1.26-2.18,2.14-4.4,2.63-6.58.49-2.19.74-4.51.74-6.9,0-3.4-.39-6.72-1.17-9.87-.78-3.13-2.1-6.15-3.93-8.97-1.83-2.81-4.15-5.26-6.88-7.26-2.73-2-6.23-3.62-10.41-4.82-4.19-1.2-8.98-1.8-14.24-1.8Z"/>
        <path class="cls-3" d="M593.39,297.57h-40.5c-5.09,0-8.87-2.12-11.24-6.3-2.32-4.09-3.5-11.37-3.5-21.65v-81.02c0-15.62,4.96-23.54,14.75-23.54h40.5c4.94,0,8.7,1.21,11.16,3.6,2.46,2.39,3.71,6.71,3.71,12.84,0,5.73-1.07,9.82-3.19,12.14-2.13,2.34-5.64,3.52-10.43,3.52h-26.75v21.47h21c4.55,0,7.81,1.16,9.7,3.44,1.86,2.26,2.8,6.11,2.8,11.45,0,4.48-1.13,7.74-3.36,9.69-2.21,1.93-5.66,2.91-10.26,2.91h-19.75v19.36l26.63.19c4.78,0,8.29,1.12,10.42,3.32,2.12,2.2,3.2,6.09,3.2,11.58,0,6.25-1.25,10.7-3.7,13.21-2.46,2.52-6.22,3.8-11.17,3.8ZM552.89,166.05c-9.25,0-13.75,7.37-13.75,22.54v81.02c0,10.11,1.13,17.23,3.37,21.16,2.22,3.9,5.61,5.8,10.38,5.8h40.5c4.67,0,8.19-1.18,10.46-3.5,2.27-2.32,3.42-6.53,3.42-12.52,0-5.22-.98-8.88-2.92-10.89-1.94-2-5.2-3.02-9.71-3.02l-27.62-.2v-21.34h20.75c4.36,0,7.59-.89,9.61-2.66,2-1.75,3.02-4.75,3.02-8.94,0-5.1-.87-8.74-2.57-10.82-1.69-2.04-4.69-3.08-8.93-3.08h-22v-23.46h27.75c4.5,0,7.76-1.08,9.7-3.2,1.95-2.13,2.93-5.99,2.93-11.47,0-5.85-1.15-9.93-3.41-12.12-2.27-2.2-5.79-3.31-10.47-3.31h-40.5Z"/>
        <path class="cls-3" d="M690.14,297.38h-29c-5.26,0-9.08-2.09-11.37-6.21-2.24-4.02-3.38-11.27-3.38-21.55v-81.22c0-4.38.51-8.3,1.52-11.66,1.02-3.4,2.69-6.19,4.95-8.29,2.29-2.13,5.08-3.21,8.28-3.21h28.62c8.45.13,15.58,3.71,21.2,10.65,5.59,6.91,8.42,15.9,8.42,26.71,0,3.47-.19,6.56-.57,9.19-.38,2.65-.95,5.04-1.71,7.11-.76,2.07-1.66,3.92-2.68,5.48-.93,1.43-2.05,2.88-3.34,4.31,7.58,7.07,11.42,16.57,11.42,28.25,0,5.14-.66,10.12-1.96,14.82-1.3,4.7-3.26,9.04-5.81,12.91-2.58,3.89-6.03,7.02-10.24,9.28-4.22,2.27-9.05,3.42-14.36,3.42ZM689.76,166.24h-28.62c-2.94,0-5.5.99-7.6,2.94-2.13,1.98-3.71,4.62-4.67,7.84-.98,3.27-1.48,7.1-1.48,11.38v81.22c0,10.11,1.09,17.2,3.25,21.07,2.13,3.83,5.57,5.7,10.5,5.7h29c5.14,0,9.82-1.11,13.89-3.3,4.07-2.19,7.4-5.2,9.88-8.96,2.5-3.78,4.41-8.03,5.69-12.63,1.27-4.61,1.92-9.5,1.92-14.55,0-11.57-3.86-20.95-11.46-27.86l-.37-.34.34-.37c1.39-1.51,2.59-3.04,3.57-4.54.97-1.5,1.84-3.27,2.58-5.28.73-2,1.29-4.33,1.66-6.91.37-2.58.56-5.62.56-9.05,0-10.58-2.76-19.36-8.2-26.09-5.42-6.7-12.3-10.15-20.43-10.28ZM675.76,271.46h-.5v-34.21h.5c4.7,0,8.46.5,11.17,1.47,2.76.99,4.91,2.71,6.38,5.1,1.46,2.37,2.2,5.76,2.2,10.05,0,6.53-1.66,11.15-4.94,13.73-3.24,2.56-8.22,3.85-14.81,3.85ZM676.26,238.24v32.22c6.11-.06,10.71-1.29,13.7-3.63,3.03-2.38,4.56-6.74,4.56-12.95,0-4.11-.69-7.32-2.05-9.53-1.35-2.2-3.33-3.77-5.87-4.69-2.51-.9-5.98-1.38-10.34-1.41ZM675.76,218.47h-.5v-30.37h.5c6.41,0,11.07,1.03,13.86,3.07,2.83,2.08,4.27,5.93,4.27,11.44,0,4.05-.76,7.27-2.27,9.58-1.51,2.32-3.57,3.97-6.12,4.9-2.5.91-5.78,1.38-9.73,1.38ZM676.26,189.09v28.38c3.62-.04,6.61-.48,8.9-1.31,2.34-.85,4.23-2.37,5.63-4.51,1.4-2.15,2.11-5.19,2.11-9.04,0-5.18-1.3-8.76-3.86-10.64-2.54-1.86-6.83-2.83-12.77-2.88Z"/>
        <path class="cls-3" d="M772.2,298.72c-8.29,0-15.83-2.59-22.43-7.69-6.58-5.09-11.92-12.81-15.85-22.96-3.92-10.12-5.91-22.19-5.91-35.89,0-20.74,4.13-37.46,12.27-49.71,8.19-12.31,18.95-18.56,31.98-18.56s23.81,6.24,32.04,18.56c8.18,12.25,12.33,28.98,12.33,49.72,0,13.69-2.01,25.77-5.97,35.89-3.97,10.15-9.35,17.88-15.97,22.96h0c-6.64,5.1-14.21,7.69-22.49,7.69ZM772.26,164.9c-12.68,0-23.16,6.09-31.15,18.11-8.03,12.08-12.1,28.62-12.1,49.16,0,13.58,1.96,25.53,5.84,35.53,3.87,9.98,9.09,17.56,15.53,22.54,6.42,4.96,13.76,7.48,21.82,7.48s15.42-2.52,21.88-7.48h0c6.48-4.98,11.75-12.56,15.65-22.54,3.92-10.01,5.9-21.96,5.9-35.53,0-20.54-4.09-37.08-12.17-49.16-8.03-12.02-18.54-18.11-31.21-18.11ZM772.26,270.69c-2.85,0-5.38-2.03-7.5-6.02-2.06-3.87-3.59-8.7-4.55-14.36-.96-5.63-1.45-11.73-1.45-18.13s.51-12.63,1.51-18.51c1-5.91,2.53-10.99,4.54-15.11,2.08-4.26,4.58-6.42,7.45-6.42s5.51,2.16,7.63,6.42c2.05,4.12,3.56,9.17,4.48,15.02.92,5.83,1.38,12.09,1.38,18.6s-.44,12.5-1.32,18.12c-.88,5.66-2.37,10.49-4.43,14.37-2.13,4-4.73,6.02-7.75,6.02ZM772.26,193.12c-2.45,0-4.65,1.97-6.55,5.87-1.97,4.04-3.47,9.03-4.46,14.84-.99,5.83-1.49,12.01-1.49,18.35s.48,12.39,1.43,17.97c.94,5.55,2.44,10.28,4.45,14.06,1.94,3.65,4.17,5.5,6.62,5.5,2.62,0,4.93-1.85,6.87-5.5,2.01-3.78,3.46-8.5,4.32-14.05.87-5.58,1.31-11.63,1.31-17.97s-.46-12.67-1.37-18.45c-.91-5.75-2.38-10.71-4.39-14.74-1.94-3.89-4.21-5.87-6.74-5.87Z"/>
        <path class="cls-3" d="M887.64,297.57c-5.64,0-9.69-1.62-12.03-4.81-2.3-3.14-3.47-8.09-3.47-14.69v-9.68h-19.76v9.68c0,6.61-1.17,11.55-3.47,14.69-2.34,3.19-6.38,4.81-12.03,4.81-2.43,0-4.46-.55-6.03-1.62-1.57-1.07-2.95-2.88-4.11-5.39-1.14-2.47-2-6.11-2.54-10.81-.54-4.65-.96-10.35-1.25-16.93-.29-6.54-.44-14.97-.44-25.08,0-8.82.61-17.02,1.82-24.37,1.21-7.36,2.86-13.69,4.9-18.82,2.04-5.12,4.39-9.71,6.98-13.63,2.6-3.93,5.49-7.05,8.56-9.25,3.06-2.19,6.09-3.86,8.99-4.96,6.43-2.43,13.08-2.15,19.43.58,3.46,1.49,7,4.08,10.53,7.69,3.52,3.6,6.64,8.13,9.28,13.47,2.63,5.32,4.81,12.3,6.48,20.76,1.67,8.44,2.51,18.04,2.51,28.51,0,16.82-.4,29.47-1.19,37.58-.79,8.17-2.16,13.95-4.07,17.2-1.96,3.35-5.03,5.05-9.12,5.05ZM851.39,267.39h21.74v10.67c0,6.39,1.1,11.14,3.28,14.11,2.14,2.92,5.92,4.41,11.22,4.41,3.76,0,6.46-1.49,8.26-4.55,1.83-3.12,3.15-8.77,3.93-16.79.79-8.09,1.19-20.7,1.19-37.49,0-10.41-.84-19.94-2.49-28.32-1.65-8.37-3.81-15.28-6.4-20.52-2.59-5.24-5.65-9.69-9.1-13.22-3.44-3.52-6.88-6.04-10.22-7.47-6.12-2.63-12.5-2.91-18.69-.57-2.82,1.07-5.77,2.69-8.76,4.83-2.98,2.13-5.78,5.16-8.31,8.99-2.55,3.86-4.87,8.38-6.89,13.45-2.02,5.07-3.65,11.33-4.85,18.62-1.2,7.3-1.81,15.44-1.81,24.21,0,10.09.15,18.51.44,25.03.29,6.56.71,12.23,1.25,16.86.53,4.59,1.36,8.13,2.46,10.51,1.08,2.34,2.35,4.02,3.77,4.98,1.41.96,3.25,1.45,5.47,1.45,5.31,0,9.08-1.48,11.22-4.4,2.18-2.97,3.28-7.72,3.28-14.11v-10.67ZM873.13,241.89h-21.74v-23.15c0-8.24.88-14.06,2.62-17.32,1.79-3.36,4.61-5.06,8.38-5.06,2.36,0,4.34.65,5.88,1.94,1.55,1.3,2.73,3.58,3.6,6.98.84,3.29,1.26,7.7,1.26,13.08v23.54ZM852.38,240.9h19.76v-22.54c0-5.3-.42-9.62-1.23-12.84-.8-3.14-1.91-5.32-3.28-6.46-1.36-1.13-3.12-1.71-5.24-1.71-3.42,0-5.87,1.48-7.5,4.54-1.66,3.11-2.5,8.78-2.5,16.85v22.16Z"/>
        <path class="cls-3" d="M971.14,297.57c-5.06,0-8.83-1.65-11.21-4.91-2.34-3.21-3.53-8.12-3.53-14.6,0-7.86-.5-13.99-1.49-18.22-.97-4.16-2.22-6.87-3.7-8.08-1.49-1.2-3.61-1.81-6.31-1.81l-6.38.18v18.14c0,19.44-5.09,29.3-15.12,29.3-5.09,0-8.87-2.12-11.24-6.3-2.32-4.09-3.5-11.37-3.5-21.65v-81.02c0-7.49,1.35-13.3,4.02-17.27,2.71-4.03,6.32-6.08,10.72-6.08h26.25c10.35,0,18.85,3.77,25.25,11.21,6.38,7.42,9.62,17.06,9.62,28.64,0,8.74-1.22,15.69-3.61,20.66-2.2,4.56-5.65,8.06-10.27,10.42,3.55.94,6.89,3.92,9.94,8.88,3.45,5.62,5.2,12.72,5.2,21.09s-.53,15.04-1.58,19.6c-1.08,4.7-2.59,7.77-4.61,9.4-2,1.6-4.84,2.41-8.44,2.41ZM944.87,248.96c2.95,0,5.28.68,6.95,2.03,1.69,1.37,3.01,4.19,4.05,8.63,1,4.31,1.51,10.51,1.51,18.45,0,6.27,1.12,10.98,3.34,14.01,2.18,2.99,5.68,4.5,10.41,4.5,3.37,0,6-.74,7.81-2.19,1.82-1.46,3.25-4.43,4.26-8.84,1.03-4.49,1.55-11,1.55-19.38s-1.7-15.11-5.05-20.57c-3.32-5.4-6.93-8.33-10.75-8.69l-1.9-.18,1.75-.77c5.11-2.24,8.88-5.81,11.19-10.61,2.33-4.84,3.51-11.64,3.51-20.23,0-11.34-3.16-20.76-9.38-28-6.21-7.21-14.45-10.87-24.5-10.87h-26.25c-4.11,0-7.35,1.84-9.9,5.64-2.56,3.8-3.85,9.43-3.85,16.71v81.02c0,10.11,1.13,17.23,3.37,21.16,2.22,3.9,5.61,5.8,10.38,5.8,9.38,0,14.13-9.52,14.13-28.3v-19.11l7.36-.21ZM938.01,221.35h-.5v-34.21h.5c7,0,12.06,1.2,15.06,3.56,3.03,2.39,4.56,6.79,4.56,13.06s-1.64,11.15-4.87,13.73c-3.2,2.56-8.16,3.85-14.75,3.85ZM938.51,188.13v32.22c6.1-.06,10.69-1.28,13.63-3.63,2.99-2.39,4.5-6.75,4.5-12.96s-1.41-10.09-4.19-12.28c-2.75-2.17-7.44-3.29-13.94-3.35Z"/>
        <path class="cls-3" d="M1034.01,297.57h-24.62c-5.26,0-9.08-2.09-11.37-6.21-2.24-4.02-3.38-11.34-3.38-21.75v-81.02c0-15.49,4.96-23.34,14.75-23.34h18.38c13.11,0,23.79,5.89,31.72,17.5,7.9,11.55,11.9,27.66,11.9,47.9,0,6.51-.4,12.93-1.19,19.07-.79,6.15-2.12,12.22-3.96,18.04-1.84,5.84-4.17,10.98-6.93,15.29-2.78,4.33-6.36,7.87-10.66,10.52-4.31,2.66-9.23,4.01-14.63,4.01ZM1009.39,166.24c-9.25,0-13.75,7.31-13.75,22.35v81.02c0,10.24,1.09,17.39,3.25,21.26,2.13,3.83,5.57,5.7,10.5,5.7h24.62c5.22,0,9.97-1.3,14.11-3.86,4.17-2.57,7.65-6.01,10.34-10.21,2.71-4.23,5.01-9.29,6.82-15.05,1.81-5.77,3.13-11.78,3.92-17.87.79-6.1,1.18-12.47,1.18-18.94,0-20.03-3.94-35.95-11.73-47.34-7.74-11.32-18.14-17.06-30.9-17.06h-18.38ZM1024.01,271.46h-.5v-79.55l.52.03c2.73.13,5.1.77,7.04,1.89,1.94,1.13,3.74,3.06,5.36,5.74,1.61,2.67,2.85,6.6,3.69,11.7.83,5.07,1.26,11.33,1.26,18.61,0,6.51-.28,12.25-.82,17.05-.54,4.81-1.28,8.81-2.2,11.89-.93,3.12-2.16,5.67-3.65,7.56-1.5,1.92-3.13,3.26-4.82,3.99-1.68.73-3.66,1.1-5.88,1.1ZM1024.51,192.96v77.5c1.89-.05,3.56-.39,4.99-1.01,1.54-.67,3.03-1.91,4.43-3.69,1.41-1.79,2.58-4.22,3.48-7.23.9-3.03,1.63-6.97,2.17-11.72.54-4.76.81-10.46.81-16.94,0-7.23-.42-13.43-1.24-18.45-.82-4.97-2.02-8.78-3.56-11.34-1.53-2.54-3.22-4.35-5.01-5.4-1.68-.97-3.71-1.55-6.07-1.72Z"/>
      </g>
      <g class="cls-2">
        <path class="cls-4" d="M32.88,1.34c13,0,23.44,5.76,31.31,17.28,7.88,11.52,11.81,27.39,11.81,47.62,0,6.53-.4,12.86-1.19,19.01-.79,6.14-2.11,12.13-3.94,17.95-1.83,5.83-4.12,10.88-6.87,15.17-2.75,4.29-6.25,7.75-10.5,10.37-4.25,2.62-9.04,3.94-14.37,3.94H14.5c-5.08,0-8.73-1.98-10.94-5.95-2.21-3.97-3.31-11.14-3.31-21.5V24.19C.25,8.96,5,1.34,14.5,1.34h18.38ZM29.13,106.56c2.17,0,4.06-.35,5.69-1.06,1.63-.7,3.17-1.98,4.62-3.84,1.46-1.85,2.64-4.32,3.56-7.39.92-3.07,1.64-7.01,2.19-11.81.54-4.8.81-10.46.81-16.99,0-7.3-.42-13.47-1.25-18.53-.83-5.06-2.04-8.9-3.62-11.52-1.58-2.62-3.31-4.48-5.19-5.57-1.88-1.09-4.15-1.69-6.81-1.82v78.53Z"/>
        <path class="cls-1" d="M114.25,103.87c0,9.98-1.21,17.28-3.62,21.89-2.42,4.61-6.08,6.91-11,6.91s-8.4-1.98-10.69-5.95c-2.29-3.97-3.44-11.07-3.44-21.31V24.19c0-15.36,4.71-23.04,14.13-23.04,4.83,0,8.48,1.41,10.94,4.22,2.46,2.82,3.69,8.51,3.69,17.09v81.41Z"/>
        <path class="cls-4" d="M171.25,33.41c0-3.97-1.71-5.95-5.12-5.95s-6.5,3.01-9,9.02c-2.5,6.02-3.75,16.07-3.75,30.14,0,13.06,1.44,22.56,4.31,28.51,2.87,5.95,6.27,8.93,10.19,8.93,1.25,0,2.39-.38,3.44-1.15,1.04-.77,1.89-1.92,2.56-3.46.67-1.54,1-3.39,1-5.57-2,0-3.73-.58-5.19-1.73-1.46-1.15-2.52-2.59-3.19-4.32-.67-1.73-1-3.62-1-5.66,0-4.61.79-8.06,2.37-10.37,1.58-2.3,4.29-3.46,8.12-3.46h15.13c4.83,0,8.58,1.6,11.25,4.8,2.67,3.2,4,8.83,4,16.9,0,11.78-3.67,22.05-11,30.82-7.33,8.77-16.04,13.15-26.13,13.15-9.25,0-17.48-2.56-24.69-7.68-7.21-5.12-12.92-12.77-17.12-22.94-4.21-10.18-6.31-22.24-6.31-36.19,0-20.74,4.08-37.12,12.25-49.15C141.54,6.02,152.37,0,165.87,0c5.33,0,10.12.61,14.38,1.82,4.25,1.22,7.77,2.85,10.56,4.9,2.79,2.05,5.12,4.51,7,7.39,1.87,2.88,3.21,5.92,4,9.12.79,3.2,1.19,6.53,1.19,9.98,0,2.43-.25,4.77-.75,7.01-.5,2.24-1.4,4.48-2.69,6.72-1.29,2.24-3.27,4.06-5.94,5.47-2.67,1.41-5.88,2.11-9.62,2.11-5.5,0-9-1.25-10.5-3.74-1.5-2.5-2.25-8.29-2.25-17.38Z"/>
        <path class="cls-1" d="M245,103.87c0,9.98-1.21,17.28-3.62,21.89-2.42,4.61-6.08,6.91-11,6.91s-8.4-1.98-10.69-5.95c-2.29-3.97-3.44-11.07-3.44-21.31V24.19c0-15.36,4.71-23.04,14.13-23.04,4.83,0,8.48,1.41,10.94,4.22,2.46,2.82,3.69,8.51,3.69,17.09v81.41Z"/>
        <path class="cls-4" d="M303,103.87c0,7.3-.58,13.09-1.75,17.38-1.17,4.29-2.77,7.27-4.81,8.93-2.04,1.67-4.73,2.5-8.06,2.5-4.92,0-8.48-2.02-10.69-6.05-2.21-4.03-3.36-11.17-3.44-21.41l-.25-70.85h-10.63c-5.25,0-9.19-1.28-11.81-3.84-2.62-2.56-3.94-7.1-3.94-13.63,0-3.97.52-7.1,1.56-9.41,1.04-2.3,2.6-3.94,4.69-4.9,2.08-.96,4.88-1.44,8.38-1.44h53.5c4.67,0,8.04,1.28,10.12,3.84,2.08,2.56,3.13,6.98,3.13,13.25,0,4.22-.61,7.52-1.81,9.89-1.21,2.37-2.81,4-4.81,4.9-2,.9-4.58,1.34-7.75,1.34h-11.63v69.5Z"/>
        <path class="cls-1" d="M376.13,103.49h-20.75v10.18c0,6.53-1.13,11.33-3.37,14.4-2.25,3.07-6.12,4.61-11.63,4.61-2.33,0-4.25-.51-5.75-1.54-1.5-1.02-2.81-2.75-3.94-5.18-1.12-2.43-1.96-5.98-2.5-10.66-.54-4.67-.96-10.3-1.25-16.9-.29-6.59-.44-14.94-.44-25.06,0-8.83.6-16.93,1.81-24.29,1.21-7.36,2.83-13.6,4.88-18.72,2.04-5.12,4.35-9.63,6.94-13.54,2.58-3.9,5.39-6.94,8.44-9.12,3.04-2.17,6-3.81,8.88-4.9,2.87-1.09,5.77-1.63,8.69-1.63,3.5,0,6.96.74,10.37,2.21,3.42,1.47,6.88,4,10.38,7.58,3.5,3.58,6.56,8.03,9.19,13.34,2.63,5.31,4.77,12.19,6.44,20.64,1.67,8.45,2.5,17.92,2.5,28.42,0,16.9-.4,29.41-1.19,37.54-.79,8.13-2.13,13.79-4,16.99-1.87,3.2-4.77,4.8-8.69,4.8-5.5,0-9.37-1.54-11.63-4.61-2.25-3.07-3.37-7.87-3.37-14.4v-10.18ZM365.88,32.45c-3.58,0-6.23,1.6-7.94,4.8-1.71,3.2-2.56,8.9-2.56,17.09v22.66h20.75v-23.04c0-5.38-.42-9.7-1.25-12.96-.83-3.26-1.98-5.5-3.44-6.72-1.46-1.21-3.31-1.82-5.56-1.82Z"/>
        <path class="cls-4" d="M429.13,132.67c-3.83-.13-6.92-1.06-9.25-2.78-2.33-1.73-4.08-4.58-5.25-8.54-1.17-3.97-1.75-9.28-1.75-15.94V24.19c0-6.78,1.29-12.32,3.88-16.61,2.58-4.29,6-6.43,10.25-6.43,5,0,8.69,1.41,11.06,4.22,2.37,2.82,3.56,8.51,3.56,17.09v76.99h21.37c4.83,0,8.23,1.09,10.19,3.26,1.96,2.18,2.94,6.66,2.94,13.44s-1.13,11.39-3.37,13.44c-2.25,2.05-5.92,3.07-11,3.07h-32.63Z"/>
        <path class="cls-1" d="M73.88,218.8l-15.63,49.15c-1.33,4.1-2.75,7.01-4.25,8.74-1.5,1.73-3.29,2.59-5.38,2.59-2.67,0-4.92-1.44-6.75-4.32-1.83-2.88-4.21-8.09-7.12-15.65l-14.5-40.51v54.34c0,5.5-.81,9.54-2.44,12.1-1.63,2.56-4.06,3.84-7.31,3.84-3.67,0-6.33-1.25-8-3.74-1.67-2.5-2.5-7.39-2.5-14.69v-83.71c0-9.86,1.46-17.28,4.38-22.27,2.92-4.99,7.83-7.49,14.75-7.49,2.58,0,4.83.67,6.75,2.02,1.92,1.34,3.35,2.88,4.31,4.61.96,1.73,1.9,3.87,2.81,6.43l16.75,56.26,17.75-55.3c3.08-9.22,8.62-13.82,16.63-13.82,3.75,0,6.96.99,9.62,2.98,2.67,1.99,4.77,5.18,6.31,9.6,1.54,4.42,2.31,9.95,2.31,16.61v83.52c-.08,12.67-5.29,19.01-15.62,19.01-3.75,0-6.81-1.57-9.19-4.7-2.38-3.13-3.61-8.22-3.69-15.26v-50.3Z"/>
        <path class="cls-4" d="M164.25,211.12c4.42,0,7.52,1.09,9.31,3.26,1.79,2.18,2.69,5.89,2.69,11.14,0,4.35-1.06,7.46-3.19,9.31-2.13,1.86-5.44,2.78-9.94,2.78h-20.25v20.35l27.13.19c4.67,0,8.02,1.06,10.06,3.17,2.04,2.11,3.06,5.86,3.06,11.23,0,6.14-1.19,10.43-3.56,12.86-2.38,2.43-5.98,3.65-10.81,3.65h-40.5c-4.92,0-8.52-2.02-10.81-6.05-2.29-4.03-3.44-11.17-3.44-21.41v-81.02c0-15.36,4.75-23.04,14.25-23.04h40.5c4.83,0,8.44,1.15,10.81,3.46,2.37,2.3,3.56,6.47,3.56,12.48,0,5.63-1.02,9.57-3.06,11.81-2.04,2.24-5.4,3.36-10.06,3.36h-27.25v22.46h21.5Z"/>
        <path class="cls-1" d="M224.63,156.21c9.92,0,18.38,3.14,25.37,9.41,7,6.27,10.5,12.93,10.5,19.97,0,1.92-.27,3.55-.81,4.9-.54,1.34-1.21,2.3-2,2.88-.79.58-1.65.86-2.56.86-1.5,0-3.75-1.18-6.75-3.55-3-2.37-6.33-4.73-10-7.1-3.67-2.37-7.04-3.55-10.12-3.55-4.92,0-7.38,3.07-7.38,9.22,0,1.92.4,3.74,1.19,5.47.79,1.73,2.06,3.52,3.81,5.38,1.75,1.86,3.46,3.49,5.12,4.9,1.67,1.41,3.96,3.3,6.88,5.66,2.92,2.37,5.38,4.45,7.38,6.24,6.42,5.63,10.92,11.01,13.5,16.13,2.58,5.12,3.88,11.01,3.88,17.66,0,26.5-11.63,39.74-34.88,39.74-4.58,0-9.02-.71-13.31-2.11-4.29-1.41-8.04-3.26-11.25-5.57-3.21-2.3-6.04-4.86-8.5-7.68-2.46-2.81-4.31-5.69-5.56-8.64-1.25-2.94-1.87-5.69-1.87-8.26,0-2.81.6-5.21,1.81-7.2,1.21-1.98,2.98-2.98,5.31-2.98,1.75,0,5.96,1.7,12.63,5.09,6.67,3.39,12.04,5.09,16.13,5.09,3.75,0,5.62-1.98,5.62-5.95,0-1.15-.15-2.21-.44-3.17-.29-.96-.79-1.92-1.5-2.88-.71-.96-1.5-1.85-2.37-2.69-.87-.83-2.08-1.89-3.63-3.17-1.54-1.28-3.08-2.56-4.62-3.84-1.54-1.28-3.56-2.94-6.06-4.99-2.5-2.05-4.92-4.1-7.25-6.14-3.08-2.69-5.73-6.01-7.94-9.98-2.21-3.97-3.81-7.9-4.81-11.81-1-3.9-1.5-7.52-1.5-10.85,0-10.75,3.13-19.52,9.38-26.3,6.25-6.78,15.12-10.18,26.63-10.18Z"/>
        <path class="cls-4" d="M306.37,156.21c9.92,0,18.38,3.14,25.37,9.41,7,6.27,10.5,12.93,10.5,19.97,0,1.92-.27,3.55-.81,4.9-.54,1.34-1.21,2.3-2,2.88-.79.58-1.65.86-2.56.86-1.5,0-3.75-1.18-6.75-3.55-3-2.37-6.33-4.73-10-7.1-3.67-2.37-7.04-3.55-10.12-3.55-4.92,0-7.38,3.07-7.38,9.22,0,1.92.4,3.74,1.19,5.47.79,1.73,2.06,3.52,3.81,5.38,1.75,1.86,3.46,3.49,5.12,4.9,1.67,1.41,3.96,3.3,6.88,5.66,2.92,2.37,5.38,4.45,7.38,6.24,6.42,5.63,10.92,11.01,13.5,16.13,2.58,5.12,3.88,11.01,3.88,17.66,0,26.5-11.63,39.74-34.88,39.74-4.58,0-9.02-.71-13.31-2.11-4.29-1.41-8.04-3.26-11.25-5.57-3.21-2.3-6.04-4.86-8.5-7.68-2.46-2.81-4.31-5.69-5.56-8.64-1.25-2.94-1.87-5.69-1.87-8.26,0-2.81.6-5.21,1.81-7.2,1.21-1.98,2.98-2.98,5.31-2.98,1.75,0,5.96,1.7,12.63,5.09,6.67,3.39,12.04,5.09,16.13,5.09,3.75,0,5.62-1.98,5.62-5.95,0-1.15-.15-2.21-.44-3.17-.29-.96-.79-1.92-1.5-2.88-.71-.96-1.5-1.85-2.37-2.69-.87-.83-2.08-1.89-3.63-3.17-1.54-1.28-3.08-2.56-4.62-3.84-1.54-1.28-3.56-2.94-6.06-4.99-2.5-2.05-4.92-4.1-7.25-6.14-3.08-2.69-5.73-6.01-7.94-9.98-2.21-3.97-3.81-7.9-4.81-11.81-1-3.9-1.5-7.52-1.5-10.85,0-10.75,3.13-19.52,9.38-26.3,6.25-6.78,15.12-10.18,26.63-10.18Z"/>
        <path class="cls-1" d="M400.37,259.89h-20.75v10.18c0,6.53-1.13,11.33-3.37,14.4-2.25,3.07-6.12,4.61-11.63,4.61-2.33,0-4.25-.51-5.75-1.54-1.5-1.02-2.81-2.75-3.94-5.18-1.12-2.43-1.96-5.98-2.5-10.66-.54-4.67-.96-10.3-1.25-16.9-.29-6.59-.44-14.94-.44-25.06,0-8.83.6-16.93,1.81-24.29,1.21-7.36,2.83-13.6,4.88-18.72,2.04-5.12,4.35-9.63,6.94-13.54,2.58-3.9,5.39-6.94,8.44-9.12,3.04-2.17,6-3.81,8.88-4.9,2.87-1.09,5.77-1.63,8.69-1.63,3.5,0,6.96.74,10.37,2.21,3.42,1.47,6.88,4,10.38,7.58,3.5,3.58,6.56,8.03,9.19,13.34,2.63,5.31,4.77,12.19,6.44,20.64,1.67,8.45,2.5,17.92,2.5,28.42,0,16.9-.4,29.41-1.19,37.54-.79,8.13-2.13,13.79-4,16.99-1.87,3.2-4.77,4.8-8.69,4.8-5.5,0-9.37-1.54-11.63-4.61-2.25-3.07-3.37-7.87-3.37-14.4v-10.18ZM390.12,188.85c-3.58,0-6.23,1.6-7.94,4.8-1.71,3.2-2.56,8.9-2.56,17.09v22.66h20.75v-23.04c0-5.38-.42-9.7-1.25-12.96-.83-3.26-1.98-5.5-3.44-6.72-1.46-1.21-3.31-1.82-5.56-1.82Z"/>
        <path class="cls-4" d="M485.87,189.81c0-3.97-1.71-5.95-5.12-5.95s-6.5,3.01-9,9.02c-2.5,6.02-3.75,16.07-3.75,30.14,0,13.06,1.44,22.56,4.31,28.51,2.87,5.95,6.27,8.93,10.19,8.93,1.25,0,2.39-.38,3.44-1.15,1.04-.77,1.89-1.92,2.56-3.46.67-1.54,1-3.39,1-5.57-2,0-3.73-.58-5.19-1.73-1.46-1.15-2.52-2.59-3.19-4.32-.67-1.73-1-3.62-1-5.66,0-4.61.79-8.06,2.37-10.37,1.58-2.3,4.29-3.46,8.12-3.46h15.13c4.83,0,8.58,1.6,11.25,4.8,2.67,3.2,4,8.83,4,16.9,0,11.78-3.67,22.05-11,30.82-7.33,8.77-16.04,13.15-26.13,13.15-9.25,0-17.48-2.56-24.69-7.68-7.21-5.12-12.92-12.77-17.12-22.94-4.21-10.18-6.31-22.24-6.31-36.19,0-20.74,4.08-37.12,12.25-49.15,8.17-12.03,19-18.05,32.5-18.05,5.33,0,10.12.61,14.38,1.82,4.25,1.22,7.77,2.85,10.56,4.9,2.79,2.05,5.12,4.51,7,7.39,1.87,2.88,3.21,5.92,4,9.12.79,3.2,1.19,6.53,1.19,9.98,0,2.43-.25,4.77-.75,7.01-.5,2.24-1.4,4.48-2.69,6.72-1.29,2.24-3.27,4.06-5.94,5.47-2.67,1.41-5.88,2.11-9.62,2.11-5.5,0-9-1.25-10.5-3.74-1.5-2.5-2.25-8.29-2.25-17.38Z"/>
        <path class="cls-1" d="M581,211.12c4.42,0,7.52,1.09,9.31,3.26,1.79,2.18,2.69,5.89,2.69,11.14,0,4.35-1.06,7.46-3.19,9.31-2.13,1.86-5.44,2.78-9.94,2.78h-20.25v20.35l27.13.19c4.67,0,8.02,1.06,10.06,3.17,2.04,2.11,3.06,5.86,3.06,11.23,0,6.14-1.19,10.43-3.56,12.86-2.38,2.43-5.98,3.65-10.81,3.65h-40.5c-4.92,0-8.52-2.02-10.81-6.05-2.29-4.03-3.44-11.17-3.44-21.41v-81.02c0-15.36,4.75-23.04,14.25-23.04h40.5c4.83,0,8.44,1.15,10.81,3.46,2.37,2.3,3.56,6.47,3.56,12.48,0,5.63-1.02,9.57-3.06,11.81-2.04,2.24-5.4,3.36-10.06,3.36h-27.25v22.46h21.5Z"/>
        <path class="cls-4" d="M702.5,220.72c7.75,7.04,11.63,16.45,11.63,28.22,0,5.12-.65,10.02-1.94,14.69-1.29,4.67-3.21,8.93-5.75,12.77-2.54,3.84-5.9,6.88-10.06,9.12-4.17,2.24-8.87,3.36-14.12,3.36h-29c-5.08,0-8.73-1.98-10.94-5.95-2.21-3.97-3.31-11.07-3.31-21.31v-81.22c0-4.35.5-8.19,1.5-11.52,1-3.33,2.6-6.01,4.81-8.06,2.21-2.05,4.85-3.07,7.94-3.07h28.62c8.33.13,15.27,3.62,20.81,10.46,5.54,6.85,8.31,15.65,8.31,26.4,0,3.46-.19,6.5-.56,9.12-.37,2.62-.94,4.96-1.69,7.01-.75,2.05-1.63,3.84-2.63,5.38s-2.21,3.07-3.62,4.61ZM685.5,194.61c0-5.38-1.36-9.05-4.06-11.04-2.71-1.98-7.23-2.98-13.56-2.98v29.38c3.92,0,7.1-.45,9.56-1.34,2.46-.89,4.42-2.46,5.87-4.7,1.46-2.24,2.19-5.34,2.19-9.31ZM687.12,245.87c0-4.22-.71-7.49-2.13-9.79-1.42-2.3-3.46-3.94-6.12-4.9-2.67-.96-6.33-1.44-11-1.44v33.22c6.5,0,11.33-1.25,14.5-3.74,3.17-2.5,4.75-6.94,4.75-13.34Z"/>
        <path class="cls-1" d="M786.49,282.64c-6.58,5.06-13.98,7.58-22.19,7.58s-15.58-2.53-22.12-7.58c-6.54-5.06-11.77-12.64-15.69-22.75-3.92-10.11-5.87-22.01-5.87-35.71,0-20.74,4.06-37.21,12.19-49.44,8.13-12.22,18.64-18.34,31.56-18.34s23.46,6.11,31.63,18.34c8.17,12.22,12.25,28.7,12.25,49.44,0,13.7-1.98,25.6-5.94,35.71-3.96,10.11-9.23,17.7-15.81,22.75ZM764.37,262.19c2.83,0,5.27-1.92,7.31-5.76,2.04-3.84,3.5-8.57,4.38-14.21.87-5.63,1.31-11.65,1.31-18.05s-.46-12.7-1.37-18.53c-.92-5.82-2.4-10.78-4.44-14.88-2.04-4.1-4.44-6.14-7.19-6.14s-5,2.05-7,6.14c-2,4.1-3.5,9.09-4.5,14.98-1,5.89-1.5,12.03-1.5,18.43s.48,12.42,1.44,18.05c.96,5.63,2.46,10.37,4.5,14.21,2.04,3.84,4.39,5.76,7.06,5.76Z"/>
        <path class="cls-4" d="M864.74,259.89h-20.75v10.18c0,6.53-1.13,11.33-3.37,14.4-2.25,3.07-6.12,4.61-11.63,4.61-2.33,0-4.25-.51-5.75-1.54-1.5-1.02-2.81-2.75-3.94-5.18-1.12-2.43-1.96-5.98-2.5-10.66-.54-4.67-.96-10.3-1.25-16.9-.29-6.59-.44-14.94-.44-25.06,0-8.83.6-16.93,1.81-24.29,1.21-7.36,2.83-13.6,4.88-18.72,2.04-5.12,4.35-9.63,6.94-13.54,2.58-3.9,5.39-6.94,8.44-9.12,3.04-2.17,6-3.81,8.88-4.9,2.87-1.09,5.77-1.63,8.69-1.63,3.5,0,6.96.74,10.37,2.21,3.42,1.47,6.88,4,10.38,7.58,3.5,3.58,6.56,8.03,9.19,13.34,2.63,5.31,4.77,12.19,6.44,20.64,1.67,8.45,2.5,17.92,2.5,28.42,0,16.9-.4,29.41-1.19,37.54-.79,8.13-2.13,13.79-4,16.99-1.87,3.2-4.77,4.8-8.69,4.8-5.5,0-9.37-1.54-11.63-4.61-2.25-3.07-3.37-7.87-3.37-14.4v-10.18ZM854.49,188.85c-3.58,0-6.23,1.6-7.94,4.8-1.71,3.2-2.56,8.9-2.56,17.09v22.66h20.75v-23.04c0-5.38-.42-9.7-1.25-12.96-.83-3.26-1.98-5.5-3.44-6.72-1.46-1.21-3.31-1.82-5.56-1.82Z"/>
        <path class="cls-1" d="M930.12,260.27c0,19.2-4.88,28.8-14.63,28.8-4.92,0-8.52-2.02-10.81-6.05-2.29-4.03-3.44-11.17-3.44-21.41v-81.02c0-7.42,1.31-13.09,3.94-16.99,2.63-3.9,6.06-5.86,10.31-5.86h26.25c10.25,0,18.54,3.68,24.87,11.04,6.33,7.36,9.5,16.8,9.5,28.32,0,8.71-1.19,15.52-3.56,20.45-2.37,4.93-6.19,8.54-11.44,10.85,4,.38,7.71,3.36,11.13,8.93,3.42,5.57,5.12,12.51,5.12,20.83s-.52,14.95-1.56,19.49c-1.04,4.54-2.52,7.58-4.44,9.12-1.92,1.54-4.62,2.3-8.12,2.3-4.92,0-8.52-1.57-10.81-4.7-2.29-3.13-3.44-7.9-3.44-14.3,0-7.94-.5-14.05-1.5-18.34-1-4.29-2.29-7.07-3.88-8.35-1.58-1.28-3.79-1.92-6.62-1.92l-6.88.19v18.62ZM949.24,195.76c0-6.14-1.46-10.37-4.38-12.67-2.92-2.3-7.83-3.46-14.75-3.46v33.22c6.5,0,11.31-1.25,14.44-3.74,3.12-2.5,4.69-6.94,4.69-13.34Z"/>
        <path class="cls-4" d="M1019.87,157.74c13,0,23.44,5.76,31.31,17.28,7.88,11.52,11.81,27.39,11.81,47.62,0,6.53-.4,12.86-1.19,19.01-.79,6.14-2.11,12.13-3.94,17.95-1.83,5.83-4.12,10.88-6.87,15.17-2.75,4.29-6.25,7.75-10.5,10.37-4.25,2.62-9.04,3.94-14.37,3.94h-24.63c-5.08,0-8.73-1.98-10.94-5.95-2.21-3.97-3.31-11.14-3.31-21.5v-81.02c0-15.23,4.75-22.85,14.25-22.85h18.38ZM1016.12,262.96c2.17,0,4.06-.35,5.69-1.06,1.63-.7,3.17-1.98,4.62-3.84,1.46-1.85,2.64-4.32,3.56-7.39.92-3.07,1.64-7.01,2.19-11.81.54-4.8.81-10.46.81-16.99,0-7.3-.42-13.47-1.25-18.53-.83-5.06-2.04-8.9-3.62-11.52-1.58-2.62-3.31-4.48-5.19-5.57-1.88-1.09-4.15-1.69-6.81-1.82v78.53Z"/>
      </g>
    </g>
  </g>
</svg>