<?xml version="1.0" encoding="UTF-8"?>
<svg id="_レイヤー_2" data-name="レイヤー 2" xmlns="http://www.w3.org/2000/svg" viewBox="0 0 669.44 139.56">
  <defs>
    <style>
      .cls-1 {
        fill: #ecb6f6;
      }

      .cls-2 {
        isolation: isolate;
      }

      .cls-3 {
        fill: #eadbff;
      }

      .cls-4 {
        fill: #acebfb;
      }
    </style>
  </defs>
  <g id="_レイヤー_1-2" data-name="レイヤー 1">
    <g id="_グループ_1813" data-name="グループ 1813">
      <g id="ALBUM-2" class="cls-2">
        <g class="cls-2">
          <path class="cls-3" d="M106.26,138.4c-8.53,0-14.65-1.59-18.19-4.73-3.55-3.16-5.35-8.13-5.35-14.77v-9.68h-30.87v9.68c0,6.65-1.8,11.62-5.35,14.77-3.53,3.14-9.65,4.73-18.19,4.73-3.64,0-6.68-.53-9.04-1.58-2.38-1.06-4.48-2.86-6.25-5.35-1.76-2.48-3.08-6.14-3.92-10.86-.83-4.67-1.48-10.37-1.93-16.95-.45-6.55-.67-14.99-.67-25.09,0-8.83.94-17.04,2.8-24.41,1.86-7.37,4.4-13.72,7.54-18.86,3.14-5.13,6.76-9.72,10.73-13.63,3.99-3.92,8.39-7.02,13.1-9.22,4.68-2.18,9.3-3.84,13.72-4.93,9.78-2.4,19.86-2.13,29.53.58,5.27,1.48,10.68,4.05,16.08,7.65,5.39,3.6,10.18,8.12,14.23,13.46,4.05,5.33,7.4,12.33,9.97,20.8,2.56,8.46,3.86,18.07,3.86,28.56,0,16.84-.62,29.5-1.83,37.61-1.23,8.19-3.33,14-6.27,17.25-2.96,3.29-7.58,4.96-13.72,4.96ZM50.85,108.22h32.87v10.68c0,6.35,1.69,11.07,5.02,14.03,3.35,2.97,9.24,4.48,17.52,4.48,5.84,0,10.21-1.56,12.97-4.63,2.8-3.11,4.82-8.74,6.02-16.73,1.21-8.07,1.82-20.67,1.82-37.46,0-10.39-1.29-19.9-3.82-28.27-2.53-8.35-5.83-15.24-9.81-20.48-3.98-5.25-8.69-9.7-13.99-13.23-5.31-3.54-10.62-6.07-15.79-7.52-9.51-2.66-19.42-2.94-29.03-.57-4.36,1.07-8.92,2.71-13.54,4.86-4.6,2.14-8.92,5.18-12.82,9.02-3.92,3.86-7.48,8.38-10.58,13.44-3.1,5.05-5.6,11.31-7.43,18.58-1.84,7.28-2.77,15.42-2.77,24.17,0,10.08.23,18.5.67,25.02.44,6.55,1.09,12.21,1.91,16.84.81,4.58,2.08,8.09,3.75,10.45,1.67,2.35,3.63,4.04,5.84,5.02,2.23.99,5.13,1.49,8.63,1.49,8.28,0,14.18-1.51,17.52-4.48,3.33-2.96,5.02-7.68,5.02-14.03v-10.68ZM83.72,82.72h-32.87v-23.16c0-8.27,1.36-14.13,4.05-17.41,2.71-3.31,6.94-4.98,12.58-4.98,3.52,0,6.48.63,8.78,1.88,2.34,1.27,4.19,3.62,5.51,6.98,1.3,3.31,1.95,7.74,1.95,13.14v23.54ZM51.85,81.72h30.87v-22.54c0-5.28-.63-9.58-1.89-12.78-1.23-3.13-2.93-5.31-5.05-6.46-2.16-1.17-4.95-1.76-8.3-1.76-5.32,0-9.29,1.55-11.8,4.62-2.54,3.09-3.82,8.74-3.82,16.77v22.16Z"/>
          <path class="cls-3" d="M212.82,138.4h-50.12c-5.93-.13-10.78-1.08-14.42-2.83-3.68-1.77-6.47-4.73-8.3-8.79-1.81-4.01-2.73-9.44-2.73-16.14V29.42c0-6.88,2.05-12.58,6.09-16.95,4.05-4.37,9.47-6.59,16.11-6.59,7.75,0,13.57,1.46,17.3,4.33,3.76,2.9,5.67,8.78,5.67,17.48v76.49h32.33c7.5,0,12.86,1.13,15.94,3.36,3.13,2.27,4.72,6.93,4.72,13.84s-1.83,11.74-5.43,13.87c-3.52,2.08-9.29,3.14-17.15,3.14ZM162.72,137.4h50.11c7.68,0,13.28-1.01,16.64-3,3.28-1.94,4.94-6.32,4.94-13.01s-1.45-10.96-4.3-13.03c-2.91-2.1-8.07-3.17-15.36-3.17h-33.33V27.7c0-8.37-1.78-13.99-5.28-16.69-3.54-2.73-9.16-4.12-16.69-4.12-6.36,0-11.53,2.11-15.38,6.27-3.86,4.17-5.82,9.65-5.82,16.27v81.22c0,6.56.89,11.85,2.64,15.73,1.73,3.84,4.37,6.63,7.83,8.3,3.5,1.69,8.21,2.61,14,2.73Z"/>
          <path class="cls-3" d="M313.43,138.21h-44.54c-7.93,0-13.71-2.06-17.18-6.13-3.46-4.04-5.21-11.32-5.21-21.64V29.23c0-4.4.79-8.35,2.35-11.73,1.57-3.41,4.13-6.19,7.59-8.28,3.46-2.09,7.65-3.14,12.45-3.14h43.97c12.86.13,23.72,3.69,32.28,10.58,8.6,6.92,12.95,15.93,12.95,26.79,0,3.48-.29,6.58-.88,9.23-.58,2.66-1.47,5.07-2.65,7.15-1.17,2.07-2.55,3.92-4.11,5.49-1.4,1.4-3.08,2.82-5.01,4.22,11.58,7.07,17.45,16.57,17.45,28.26,0,5.16-1.01,10.17-3.02,14.88-2,4.71-5.01,9.06-8.94,12.93-3.95,3.88-9.21,6.99-15.64,9.24-6.42,2.25-13.78,3.39-21.86,3.39ZM312.85,7.08h-43.96c-4.62,0-8.63,1.01-11.93,3-3.29,1.99-5.71,4.62-7.2,7.85-1.5,3.25-2.26,7.05-2.26,11.31v81.22c0,10.07,1.67,17.13,4.97,20.99,3.27,3.83,8.8,5.78,16.42,5.78h44.54c7.97,0,15.21-1.12,21.53-3.33,6.29-2.2,11.43-5.23,15.27-9.01,3.84-3.78,6.77-8.02,8.72-12.61,1.95-4.59,2.94-9.47,2.94-14.49,0-11.53-5.93-20.88-17.61-27.79l-.67-.39.63-.45c2.14-1.51,3.99-3.04,5.5-4.55,1.5-1.5,2.83-3.27,3.95-5.27,1.12-1.99,1.98-4.3,2.54-6.87.57-2.58.85-5.61.85-9.01,0-10.54-4.23-19.29-12.58-26.01-8.39-6.74-19.04-10.23-31.66-10.35ZM291.35,112.29h-.5v-34.22h.5c7.17,0,12.89.49,17.01,1.46,4.17.98,7.42,2.67,9.66,5.04,2.26,2.39,3.4,5.8,3.4,10.14,0,6.57-2.55,11.21-7.57,13.79-4.92,2.52-12.49,3.8-22.5,3.8ZM291.85,79.08v32.21c9.61-.04,16.85-1.28,21.54-3.69,4.73-2.43,7.02-6.65,7.02-12.9,0-4.07-1.05-7.25-3.13-9.45-2.1-2.22-5.18-3.82-9.16-4.75-3.95-.93-9.42-1.41-16.28-1.43ZM291.35,59.3h-.5v-30.38h.5c9.75,0,16.83,1.02,21.05,3.03,4.33,2.07,6.53,5.93,6.53,11.49,0,4.09-1.18,7.34-3.51,9.66-2.3,2.3-5.42,3.93-9.26,4.84-3.79.9-8.78,1.36-14.8,1.36ZM291.85,29.92v28.38c5.73-.02,10.46-.47,14.07-1.33,3.67-.87,6.62-2.41,8.79-4.57,2.13-2.13,3.21-5.14,3.21-8.96,0-5.21-1.95-8.68-5.96-10.59-4-1.91-10.77-2.89-20.12-2.93Z"/>
          <path class="cls-3" d="M435.39,139.56c-20.76,0-36.72-4.56-46.17-13.19-9.6-8.76-14.47-22.13-14.47-39.73V29.42c0-6.88,2.08-12.58,6.18-16.95,4.11-4.37,9.37-6.59,15.63-6.59,7.62,0,13.5,1.45,17.48,4.32,4.02,2.9,6.06,8.79,6.06,17.49v62.59c.12,3.99.78,7.21,1.96,9.57,1.16,2.32,2.73,3.95,4.66,4.86,1.8.85,5.2,1.39,8.66,1.39,3.25,0,7.75-.39,9.7-1.12,1.93-.72,3.36-1.88,4.25-3.43.93-1.6,1.55-3.23,1.86-4.84.31-1.63.47-3.8.47-6.43V27.5c0-4.39.56-8.13,1.66-11.12,1.12-3.03,2.87-5.31,5.19-6.78,2.27-1.43,4.65-2.42,7.07-2.95,2.4-.52,5.31-.78,8.65-.78,7.52,0,13.26,1.86,17.05,5.52,3.8,3.67,5.72,9.73,5.72,18.02v57.22c0,18.75-4.61,32.41-13.7,40.6-8.82,7.95-25.84,12.32-47.94,12.32ZM396.56,6.88c-5.97,0-10.98,2.11-14.9,6.27-3.92,4.17-5.91,9.65-5.91,16.26v57.22c0,17.31,4.76,30.43,14.14,38.99,9.26,8.46,24.99,12.93,45.5,12.93,21.84,0,38.63-4.28,47.27-12.06,8.87-7.99,13.37-21.4,13.37-39.85V29.42c0-8.01-1.82-13.83-5.42-17.3-3.6-3.47-9.1-5.24-16.36-5.24-3.27,0-6.11.25-8.44.76-2.3.5-4.58,1.45-6.75,2.81-2.14,1.34-3.75,3.46-4.79,6.28-1.06,2.87-1.6,6.5-1.6,10.77v62.79c0,2.7-.17,4.93-.49,6.62-.33,1.72-1,3.45-1.98,5.15-1.01,1.76-2.62,3.06-4.77,3.87-2.08.78-6.63,1.18-10.05,1.18-2.86,0-6.75-.39-9.08-1.49-2.14-1-3.87-2.79-5.13-5.32-1.25-2.49-1.94-5.85-2.07-10V27.7c0-8.37-1.9-13.98-5.65-16.68-3.8-2.74-9.49-4.13-16.89-4.13Z"/>
          <path class="cls-3" d="M644.94,138.4c-5.86,0-10.71-1.62-14.44-4.82-3.75-3.22-5.71-8.48-5.84-15.63v-48.15l-23.05,47.21c-2.08,4.15-4.32,7.15-6.68,8.92-2.38,1.79-5.26,2.69-8.56,2.69-4.22,0-7.82-1.5-10.72-4.47-2.83-2.9-6.54-8.2-11.02-15.74l-21.34-38.82v52.39c0,5.61-1.31,9.8-3.88,12.44-2.58,2.65-6.48,3.99-11.59,3.99-5.74,0-9.99-1.31-12.64-3.89-2.68-2.62-3.99-7.54-3.99-15.04V35.76c0-9.94,2.3-17.55,6.85-22.61,4.56-5.08,12.3-7.65,23.03-7.65,4.02,0,7.58.69,10.58,2.06,3,1.37,5.28,2.96,6.8,4.74,1.49,1.75,2.96,3.94,4.38,6.51l25.31,55.33,26.8-54.35c4.81-9.36,13.55-14.1,25.99-14.1,5.81,0,10.85,1.02,15,3.02,4.17,2.02,7.51,5.33,9.92,9.82,2.4,4.47,3.61,10.14,3.61,16.84v83.52c-.13,12.95-8.38,19.51-24.5,19.51ZM624.71,67.41l.95.22v50.3c.12,6.85,1.97,11.86,5.49,14.88,3.54,3.04,8.17,4.58,13.79,4.58,15.69,0,23.37-6.06,23.5-18.51V35.38c0-6.54-1.17-12.05-3.49-16.37-2.31-4.3-5.5-7.46-9.47-9.39-4.01-1.94-8.91-2.92-14.57-2.92-12.03,0-20.47,4.56-25.09,13.55l-27.72,56.23-26.17-57.21c-1.37-2.48-2.8-4.62-4.25-6.32-1.42-1.66-3.59-3.17-6.45-4.48-2.86-1.31-6.28-1.97-10.16-1.97-10.43,0-17.92,2.46-22.28,7.32-4.38,4.87-6.59,12.25-6.59,21.94v83.71c0,7.12,1.24,11.94,3.69,14.33,2.45,2.39,6.47,3.6,11.94,3.6,4.83,0,8.49-1.24,10.87-3.69,2.39-2.45,3.6-6.4,3.6-11.75v-54.34l.94-.24,22.27,40.51c4.43,7.46,8.08,12.7,10.86,15.54,2.71,2.77,6.07,4.17,10.01,4.17,3.07,0,5.75-.84,7.96-2.49,2.23-1.67,4.38-4.55,6.38-8.56l24-49.15Z"/>
        </g>
      </g>
      <g id="ALBUM-3" class="cls-2">
        <g class="cls-2">
          <path class="cls-4" d="M76.22,102.72h-31.87v10.18c0,6.53-1.73,11.33-5.18,14.4-3.46,3.07-9.41,4.61-17.86,4.61-3.58,0-6.53-.51-8.83-1.54-2.3-1.02-4.32-2.75-6.05-5.18s-3.01-5.98-3.84-10.66c-.83-4.67-1.47-10.3-1.92-16.9-.45-6.59-.67-14.94-.67-25.06,0-8.83.93-16.93,2.78-24.29,1.85-7.36,4.35-13.6,7.49-18.72,3.13-5.12,6.69-9.63,10.66-13.54,3.97-3.9,8.29-6.94,12.96-9.12,4.67-2.17,9.22-3.81,13.63-4.89,4.42-1.09,8.86-1.63,13.34-1.63,5.38,0,10.69.74,15.94,2.21,5.25,1.47,10.56,4,15.94,7.58,5.38,3.58,10.08,8.03,14.11,13.34,4.03,5.31,7.33,12.19,9.89,20.64,2.56,8.45,3.84,17.92,3.84,28.42,0,16.9-.61,29.41-1.82,37.54-1.22,8.13-3.26,13.79-6.14,16.99-2.88,3.2-7.33,4.8-13.34,4.8-8.45,0-14.4-1.54-17.86-4.61-3.46-3.07-5.18-7.87-5.18-14.4v-10.18ZM60.48,31.68c-5.5,0-9.57,1.6-12.19,4.8-2.62,3.2-3.94,8.9-3.94,17.09v22.66h31.87v-23.04c0-5.38-.64-9.7-1.92-12.96-1.28-3.26-3.04-5.5-5.28-6.72-2.24-1.21-5.09-1.82-8.54-1.82Z"/>
        </g>
        <g class="cls-2">
          <path class="cls-1" d="M155.71,131.9c-5.89-.12-10.63-1.05-14.21-2.78-3.58-1.73-6.27-4.58-8.06-8.54-1.79-3.96-2.69-9.28-2.69-15.94V23.42c0-6.78,1.98-12.32,5.95-16.61,3.97-4.29,9.22-6.43,15.74-6.43,7.68,0,13.34,1.41,16.99,4.22,3.65,2.82,5.47,8.51,5.47,17.09v76.99h32.83c7.42,0,12.64,1.09,15.65,3.26,3.01,2.18,4.51,6.66,4.51,13.44s-1.73,11.39-5.18,13.44c-3.46,2.05-9.09,3.07-16.9,3.07h-50.11Z"/>
        </g>
        <g class="cls-2">
          <path class="cls-4" d="M337.53,63.55c11.9,7.04,17.86,16.45,17.86,28.22,0,5.12-.99,10.02-2.98,14.69-1.99,4.67-4.93,8.93-8.83,12.77-3.91,3.84-9.06,6.88-15.46,9.12-6.4,2.24-13.63,3.36-21.7,3.36h-44.54c-7.81,0-13.41-1.98-16.8-5.95-3.39-3.97-5.09-11.07-5.09-21.31V23.23c0-4.35.77-8.19,2.3-11.52,1.54-3.33,4-6.02,7.39-8.06,3.39-2.04,7.46-3.07,12.19-3.07h43.97c12.8.13,23.45,3.62,31.97,10.46,8.51,6.85,12.77,15.65,12.77,26.4,0,3.46-.29,6.5-.86,9.12-.58,2.62-1.44,4.96-2.59,7.01-1.15,2.05-2.5,3.84-4.03,5.38-1.54,1.54-3.39,3.07-5.57,4.61ZM311.42,37.44c0-5.38-2.08-9.05-6.24-11.04-4.16-1.98-11.11-2.98-20.83-2.98v29.38c6.01,0,10.91-.45,14.69-1.34,3.77-.89,6.78-2.46,9.02-4.71,2.24-2.24,3.36-5.34,3.36-9.31ZM313.92,88.71c0-4.22-1.09-7.49-3.26-9.79-2.18-2.3-5.31-3.94-9.41-4.89-4.1-.96-9.73-1.44-16.9-1.44v33.22c9.98,0,17.41-1.25,22.27-3.74,4.86-2.5,7.3-6.94,7.3-13.34Z"/>
        </g>
        <g class="cls-2">
          <path class="cls-1" d="M489.52,23.42v57.22c0,18.69-4.51,32.1-13.54,40.22-9.02,8.13-26.22,12.19-47.6,12.19s-36.3-4.35-45.83-13.06c-9.54-8.7-14.3-21.82-14.3-39.36V23.42c0-6.78,2.02-12.32,6.05-16.61,4.03-4.29,9.12-6.43,15.26-6.43,7.55,0,13.28,1.41,17.18,4.22,3.9,2.82,5.86,8.51,5.86,17.09v62.59c.13,4.1.8,7.36,2.02,9.79,1.22,2.43,2.85,4.13,4.9,5.09,2.05.96,5.67,1.44,8.87,1.44s5.82-.38,7.87-1.15c2.05-.77,5.46-2.04,6.51-3.65,1.3-1.99,1.6-3.33,1.92-4.99.32-1.66.48-3.84.48-6.53V21.5c0-4.35.54-8,1.63-10.94,1.09-2.94,2.75-5.12,4.99-6.53,2.24-1.41,4.54-2.37,6.91-2.88,2.37-.51,5.21-.77,8.54-.77,7.42,0,12.99,1.79,16.7,5.38,3.71,3.58,5.57,9.47,5.57,17.66Z"/>
        </g>
        <g class="cls-2">
          <path class="cls-4" d="M618.16,61.63l-24,49.15c-2.05,4.1-4.22,7.01-6.53,8.74-2.3,1.73-5.06,2.59-8.26,2.59-4.1,0-7.55-1.44-10.37-4.32-2.82-2.88-6.47-8.09-10.94-15.65l-22.27-40.51v54.34c0,5.51-1.25,9.54-3.74,12.1-2.5,2.56-6.24,3.84-11.23,3.84-5.63,0-9.73-1.25-12.29-3.74-2.56-2.5-3.84-7.39-3.84-14.69V29.76c0-9.86,2.24-17.28,6.72-22.27,4.48-4.99,12.03-7.49,22.66-7.49,3.97,0,7.42.67,10.37,2.02,2.94,1.34,5.15,2.88,6.62,4.61,1.47,1.73,2.91,3.87,4.32,6.43l25.73,56.26,27.26-55.29c4.73-9.22,13.25-13.82,25.54-13.82,5.76,0,10.69.99,14.78,2.97,4.09,1.99,7.33,5.19,9.7,9.6,2.37,4.42,3.55,9.95,3.55,16.61v83.52c-.13,12.67-8.13,19.01-24,19.01-5.76,0-10.46-1.57-14.11-4.7-3.65-3.13-5.54-8.22-5.66-15.26v-50.3Z"/>
        </g>
      </g>
    </g>
  </g>
</svg>