<?xml version="1.0" encoding="UTF-8"?>
<svg id="_レイヤー_2" data-name="レイヤー 2" xmlns="http://www.w3.org/2000/svg" viewBox="0 0 692.17 140.52">
  <defs>
    <style>
      .cls-1 {
        fill: #ecb6f6;
      }

      .cls-2 {
        isolation: isolate;
      }

      .cls-3 {
        fill: #eadbff;
      }

      .cls-4 {
        fill: #acebfb;
      }
    </style>
  </defs>
  <g id="_レイヤー_1-2" data-name="レイヤー 1">
    <g id="_グループ_1813" data-name="グループ 1813">
      <g id="MERCH-2" class="cls-2">
        <g class="cls-2">
          <path class="cls-3" d="M140.25,139.17c-5.86,0-10.71-1.62-14.44-4.83-3.75-3.22-5.71-8.48-5.84-15.63v-48.15l-23.05,47.21c-2.07,4.15-4.32,7.15-6.68,8.92-2.38,1.79-5.26,2.69-8.56,2.69-4.22,0-7.83-1.5-10.73-4.47-2.84-2.9-6.54-8.2-11.02-15.74l-21.34-38.82v52.39c0,5.61-1.31,9.8-3.88,12.44-2.58,2.65-6.48,3.99-11.59,3.99-5.74,0-9.99-1.31-12.64-3.89-2.69-2.62-3.99-7.54-3.99-15.04V36.53c0-9.94,2.3-17.54,6.85-22.61,4.56-5.08,12.3-7.65,23.03-7.65,4.02,0,7.58.69,10.58,2.06,3,1.37,5.28,2.96,6.8,4.74,1.49,1.75,2.96,3.94,4.38,6.52l25.31,55.33,26.8-54.35c4.81-9.36,13.55-14.1,25.98-14.1,5.8,0,10.85,1.02,15,3.03,4.17,2.02,7.51,5.33,9.92,9.81,2.4,4.47,3.61,10.14,3.61,16.84v83.52c-.13,12.95-8.38,19.51-24.5,19.51ZM120.02,68.18l.95.22v50.3c.12,6.85,1.97,11.86,5.49,14.88,3.54,3.04,8.17,4.58,13.79,4.58,15.69,0,23.37-6.06,23.5-18.51V36.14c0-6.54-1.17-12.05-3.49-16.37-2.31-4.3-5.5-7.46-9.47-9.39-4.01-1.94-8.91-2.93-14.57-2.93-12.03,0-20.47,4.56-25.09,13.55l-27.73,56.23-26.17-57.21c-1.37-2.48-2.8-4.62-4.25-6.32-1.42-1.66-3.59-3.17-6.45-4.48-2.87-1.31-6.28-1.97-10.16-1.97-10.43,0-17.93,2.46-22.28,7.32-4.38,4.87-6.59,12.25-6.59,21.94v83.71c0,7.12,1.24,11.94,3.69,14.33,2.45,2.39,6.47,3.6,11.94,3.6,4.83,0,8.49-1.24,10.87-3.69,2.39-2.45,3.6-6.4,3.6-11.75v-54.34l.94-.24,22.27,40.51c4.42,7.46,8.08,12.7,10.86,15.54,2.7,2.77,6.07,4.17,10.01,4.17,3.07,0,5.75-.84,7.96-2.49,2.23-1.67,4.38-4.55,6.38-8.56l24-49.15Z"/>
          <path class="cls-3" d="M264.28,139.17h-62.21c-7.67,0-13.38-2.09-16.98-6.22-3.58-4.1-5.4-11.42-5.4-21.74V30.19c0-15.62,7.53-23.54,22.39-23.54h62.21c7.49,0,13.16,1.19,16.87,3.53,3.79,2.39,5.71,6.73,5.71,12.9,0,5.78-1.65,9.89-4.91,12.21-3.21,2.29-8.5,3.45-15.75,3.45h-41.36v21.46h32.52c6.86,0,11.78,1.13,14.61,3.37,2.87,2.27,4.32,6.15,4.32,11.53,0,4.53-1.73,7.81-5.15,9.75-3.32,1.89-8.54,2.85-15.51,2.85h-30.6v19.35l41.17.19c7.23,0,12.53,1.09,15.73,3.25,3.27,2.2,4.92,6.12,4.92,11.65,0,6.29-1.92,10.76-5.69,13.28-3.71,2.48-9.39,3.73-16.88,3.73ZM202.07,7.65c-14.39,0-21.39,7.37-21.39,22.54v81.02c0,10.07,1.74,17.16,5.16,21.08,3.4,3.9,8.86,5.88,16.23,5.88h62.21c7.29,0,12.78-1.2,16.33-3.56,3.48-2.32,5.25-6.51,5.25-12.45,0-5.17-1.51-8.81-4.48-10.82-3.04-2.05-8.14-3.08-15.18-3.08l-42.16-.19v-21.35h31.6c6.79,0,11.85-.92,15.02-2.72,3.12-1.77,4.64-4.68,4.64-8.88,0-5.06-1.33-8.67-3.94-10.75-2.65-2.09-7.36-3.16-13.99-3.16h-33.52v-23.46h42.36c7.03,0,12.13-1.1,15.16-3.27,2.98-2.13,4.5-5.96,4.5-11.4,0-5.8-1.76-9.86-5.24-12.06-3.55-2.24-9.05-3.38-16.34-3.38h-62.21Z"/>
          <path class="cls-3" d="M393.11,139.17c-7.65,0-13.34-1.62-16.94-4.83-3.61-3.22-5.45-8.16-5.45-14.68,0-7.84-.77-13.95-2.27-18.17-1.49-4.15-3.41-6.86-5.71-8.08-2.35-1.24-5.7-1.86-9.94-1.86l-10.06.18v18.13c0,19.44-7.73,29.3-22.96,29.3-7.67,0-13.38-2.09-16.98-6.22-3.58-4.1-5.4-11.42-5.4-21.74V30.19c0-7.53,2.09-13.37,6.2-17.35,4.11-3.98,9.56-6,16.19-6h40.32c15.78,0,28.74,3.75,38.51,11.14,9.81,7.43,14.79,17.09,14.79,28.72,0,8.78-1.87,15.75-5.57,20.75-3.35,4.52-8.58,7.99-15.57,10.33,5.36.93,10.41,3.89,15.05,8.8,5.31,5.64,8.01,12.76,8.01,21.17s-.82,15.08-2.43,19.65c-1.64,4.65-4.01,7.81-7.06,9.4-3,1.57-7.28,2.36-12.71,2.36ZM352.78,90.56c4.42,0,7.92.67,10.42,1.98,2.54,1.34,4.62,4.24,6.19,8.63,1.55,4.32,2.33,10.55,2.33,18.5,0,6.22,1.72,10.91,5.11,13.93,3.41,3.04,8.88,4.58,16.28,4.58,5.27,0,9.39-.76,12.25-2.25,2.81-1.47,5.02-4.44,6.58-8.84,1.57-4.47,2.37-10.97,2.37-19.32s-2.6-15.04-7.74-20.49c-5.14-5.45-10.77-8.4-16.75-8.77l-.11-.98c7.92-2.26,13.74-5.85,17.3-10.67,3.57-4.81,5.37-11.59,5.37-20.15,0-11.3-4.84-20.69-14.39-27.92-9.6-7.26-22.35-10.94-37.91-10.94h-40.32c-6.36,0-11.57,1.92-15.49,5.72-3.91,3.79-5.9,9.39-5.9,16.63v81.02c0,10.07,1.74,17.16,5.16,21.08,3.4,3.9,8.86,5.88,16.23,5.88,14.78,0,21.96-9.26,21.96-28.3v-19.12l11.05-.2ZM342.23,62.95h-.5V28.73h.5c10.65,0,18.35,1.18,22.88,3.51,4.64,2.39,6.99,6.8,6.99,13.12s-2.51,11.21-7.47,13.79c-4.85,2.52-12.39,3.8-22.41,3.8ZM342.73,29.73v32.21c9.61-.04,16.82-1.28,21.45-3.69,4.66-2.42,6.93-6.64,6.93-12.9s-2.11-10-6.45-12.23c-4.32-2.22-11.69-3.36-21.93-3.4Z"/>
          <path class="cls-3" d="M491.99,140.52c-10,0-19.39-1.53-27.91-4.54-8.53-3.01-16.05-7.37-22.34-12.96-6.3-5.59-11.32-12.73-14.91-21.2-3.59-8.47-5.42-18.1-5.42-28.61,0-20.78,6.32-37.44,18.78-49.51,12.45-12.07,28.98-18.19,49.12-18.19,10.25,0,19.88,1.76,28.6,5.22,8.74,3.47,15.78,8.36,20.93,14.54,5.17,6.21,7.8,13.1,7.8,20.48,0,8.53-2.88,16.35-8.56,23.26-5.71,6.94-13.2,10.46-22.27,10.46-5.2,0-9.95-1.45-14.11-4.31-4.22-2.9-6.36-7.11-6.36-12.51,0-2.51,1.22-6.01,3.61-10.42,2.32-4.26,3.49-7.28,3.49-8.98,0-2.56-1.04-4.69-3.18-6.53-2.14-1.83-4.71-2.76-7.64-2.76-5.92,0-10.88,3.44-14.73,10.21-3.91,6.87-5.89,14.76-5.89,23.46,0,6.68,1.28,12.78,3.79,18.12,2.51,5.33,6.19,9.62,10.96,12.75,4.75,3.13,10.35,4.72,16.62,4.72,4.65,0,9.17-.92,13.44-2.74,4.29-1.83,7.8-3.87,10.44-6.07,2.7-2.25,5.53-4.33,8.4-6.18,2.95-1.9,5.59-2.86,7.85-2.86,2.95,0,5.52,1.18,7.66,3.52,2.12,2.33,3.2,4.8,3.2,7.35,0,2.75-.82,5.98-2.44,9.61-1.62,3.62-4.19,7.5-7.66,11.55-3.47,4.05-7.57,7.82-12.18,11.21-4.63,3.41-10.46,6.28-17.32,8.52-6.88,2.25-14.19,3.38-21.75,3.38ZM489.3,6.5c-19.87,0-36.16,6.02-48.42,17.91-12.26,11.88-18.47,28.29-18.47,48.79,0,10.38,1.79,19.88,5.33,28.22,3.54,8.34,8.47,15.35,14.66,20.84,6.2,5.5,13.6,9.8,22.01,12.77,8.42,2.97,17.69,4.48,27.58,4.48,7.46,0,14.67-1.12,21.44-3.33,6.76-2.21,12.5-5.03,17.04-8.38,4.55-3.35,8.59-7.07,12.01-11.06,3.41-3.97,5.93-7.77,7.51-11.3,1.56-3.5,2.36-6.6,2.36-9.2,0-2.29-.99-4.53-2.94-6.67-1.94-2.12-4.27-3.2-6.93-3.2-2.07,0-4.53.91-7.31,2.7-2.84,1.83-5.63,3.89-8.3,6.11-2.71,2.26-6.31,4.36-10.68,6.22-4.39,1.87-9.05,2.82-13.83,2.82-6.47,0-12.25-1.64-17.17-4.88-4.92-3.23-8.73-7.66-11.31-13.17-2.58-5.47-3.89-11.71-3.89-18.55,0-8.88,2.02-16.94,6.02-23.96,4.04-7.11,9.29-10.72,15.6-10.72,3.18,0,5.97,1.01,8.29,3,2.35,2.01,3.53,4.47,3.53,7.29,0,1.89-1.18,4.99-3.61,9.46-2.32,4.25-3.49,7.6-3.49,9.94,0,5.05,1.99,8.98,5.93,11.68,3.99,2.74,8.55,4.14,13.54,4.14,8.76,0,16-3.39,21.5-10.09,5.53-6.72,8.33-14.34,8.33-22.63,0-7.14-2.54-13.82-7.56-19.84-5.04-6.05-11.95-10.85-20.54-14.26-8.61-3.42-18.1-5.15-28.23-5.15Z"/>
          <path class="cls-3" d="M669.2,139.17c-7.54,0-13.16-2.09-16.7-6.22-3.52-4.11-5.3-11.42-5.3-21.73l-.19-21.2h-38.17v19.85c0,10.56-1.85,18.17-5.49,22.59-3.67,4.45-9.54,6.71-17.47,6.71s-13.16-2.09-16.7-6.22c-3.52-4.11-5.3-11.42-5.3-21.73l-.58-81.02c0-8.05,2.09-14.05,6.21-17.84,4.11-3.78,9.62-5.7,16.37-5.7,7.76,0,13.58,1.46,17.3,4.33,3.76,2.9,5.67,8.79,5.67,17.48v31.76h37.98v-30.03c0-5.44,1.02-10.01,3.04-13.59,2.03-3.6,4.69-6.18,7.9-7.69,3.19-1.5,7.04-2.26,11.44-2.26,7.5,0,13.25,1.45,17.1,4.32,3.89,2.91,5.87,8.79,5.87,17.49v81.41c0,10.44-1.91,18.01-5.69,22.5-3.8,4.51-9.61,6.8-17.28,6.8ZM607.84,89.02h40.16l.2,22.19c0,10.07,1.7,17.17,5.06,21.09,3.34,3.9,8.7,5.87,15.94,5.87s12.92-2.17,16.51-6.45c3.62-4.3,5.45-11.66,5.45-21.85V28.46c0-8.37-1.84-13.98-5.46-16.69-3.67-2.74-9.23-4.12-16.5-4.12-4.26,0-7.96.73-11.02,2.16-3.03,1.42-5.53,3.87-7.46,7.28-1.93,3.43-2.91,7.83-2.91,13.1v31.03h-39.98V28.46c0-8.37-1.78-13.99-5.28-16.69-3.54-2.73-9.16-4.12-16.69-4.12-6.5,0-11.77,1.83-15.69,5.44-3.91,3.6-5.89,9.35-5.89,17.1l.58,81.02c0,10.07,1.7,17.17,5.06,21.09,3.34,3.9,8.7,5.87,15.94,5.87,7.62,0,13.24-2.13,16.7-6.35,3.49-4.24,5.26-11.63,5.26-21.95v-20.85Z"/>
        </g>
      </g>
      <g id="MERCH-3" class="cls-2">
        <g class="cls-2">
          <path class="cls-4" d="M113.47,62.4l-24,49.15c-2.05,4.1-4.22,7.01-6.53,8.74-2.3,1.73-5.06,2.59-8.26,2.59-4.1,0-7.55-1.44-10.37-4.32-2.82-2.88-6.47-8.09-10.94-15.65l-22.27-40.51v54.34c0,5.5-1.25,9.54-3.74,12.1-2.5,2.56-6.24,3.84-11.23,3.84-5.63,0-9.73-1.25-12.29-3.74-2.56-2.5-3.84-7.39-3.84-14.69V30.53C0,20.67,2.24,13.25,6.72,8.26,11.2,3.26,18.75.77,29.38.77c3.97,0,7.42.67,10.37,2.02,2.94,1.34,5.15,2.88,6.62,4.61,1.47,1.73,2.91,3.87,4.32,6.43l25.73,56.26,27.26-55.3c4.73-9.22,13.25-13.82,25.54-13.82,5.76,0,10.69.99,14.78,2.98,4.09,1.99,7.33,5.18,9.7,9.6,2.37,4.42,3.55,9.95,3.55,16.61v83.52c-.13,12.67-8.13,19.01-24,19.01-5.76,0-10.46-1.57-14.11-4.7-3.65-3.13-5.54-8.22-5.66-15.26v-50.3Z"/>
        </g>
        <g class="cls-2">
          <path class="cls-1" d="M250.37,54.72c6.78,0,11.55,1.09,14.3,3.26,2.75,2.18,4.13,5.89,4.13,11.14,0,4.35-1.63,7.46-4.9,9.31-3.26,1.86-8.35,2.78-15.26,2.78h-31.1v20.35l41.66.19c7.17,0,12.32,1.06,15.46,3.17,3.13,2.11,4.7,5.86,4.7,11.23,0,6.14-1.82,10.43-5.47,12.86-3.65,2.43-9.19,3.65-16.61,3.65h-62.21c-7.55,0-13.09-2.02-16.61-6.05-3.52-4.03-5.28-11.17-5.28-21.41V24.19c0-15.36,7.3-23.04,21.89-23.04h62.21c7.42,0,12.96,1.15,16.61,3.46,3.65,2.3,5.47,6.47,5.47,12.48,0,5.63-1.57,9.57-4.7,11.81-3.14,2.24-8.29,3.36-15.46,3.36h-41.86v22.46h33.02Z"/>
        </g>
        <g class="cls-2">
          <path class="cls-4" d="M335.23,103.87c0,19.2-7.49,28.8-22.46,28.8-7.55,0-13.09-2.02-16.61-6.05-3.52-4.03-5.28-11.17-5.28-21.41V24.19c0-7.42,2.02-13.09,6.05-16.99,4.03-3.9,9.31-5.86,15.84-5.86h40.32c15.74,0,28.48,3.68,38.21,11.04,9.73,7.36,14.59,16.8,14.59,28.32,0,8.71-1.82,15.52-5.47,20.45-3.65,4.93-9.5,8.54-17.57,10.85,6.14.38,11.84,3.36,17.09,8.93,5.25,5.57,7.87,12.51,7.87,20.83s-.8,14.95-2.4,19.49c-1.6,4.54-3.87,7.58-6.82,9.12-2.95,1.54-7.1,2.3-12.48,2.3-7.55,0-13.09-1.57-16.61-4.7-3.52-3.13-5.28-7.9-5.28-14.3,0-7.94-.77-14.05-2.3-18.34-1.54-4.29-3.52-7.07-5.95-8.35-2.43-1.28-5.83-1.92-10.18-1.92l-10.56.19v18.62ZM364.61,39.36c0-6.14-2.24-10.37-6.72-12.67-4.48-2.3-12.03-3.46-22.66-3.46v33.22c9.98,0,17.38-1.25,22.18-3.74,4.8-2.5,7.2-6.94,7.2-13.34Z"/>
        </g>
        <g class="cls-2">
          <path class="cls-1" d="M498.81,37.25c0-2.69-1.12-4.99-3.36-6.91-2.24-1.92-4.9-2.88-7.97-2.88-6.14,0-11.2,3.49-15.17,10.46-3.97,6.98-5.95,14.88-5.95,23.71,0,6.79,1.28,12.9,3.84,18.34,2.56,5.44,6.27,9.76,11.14,12.96,4.86,3.2,10.49,4.8,16.9,4.8,4.73,0,9.28-.93,13.63-2.78,4.35-1.85,7.87-3.9,10.56-6.14,2.69-2.24,5.47-4.29,8.35-6.14,2.88-1.85,5.41-2.78,7.58-2.78,2.81,0,5.25,1.12,7.3,3.36,2.05,2.24,3.07,4.58,3.07,7.01,0,2.69-.8,5.83-2.4,9.41-1.6,3.58-4.13,7.39-7.58,11.42-3.46,4.03-7.49,7.75-12.1,11.14-4.61,3.39-10.34,6.21-17.18,8.45-6.85,2.24-14.05,3.36-21.6,3.36-9.98,0-19.23-1.5-27.74-4.51-8.51-3.01-15.91-7.3-22.18-12.86-6.27-5.57-11.2-12.58-14.78-21.02-3.58-8.45-5.38-17.92-5.38-28.42,0-20.74,6.21-37.12,18.62-49.15,12.41-12.03,28.67-18.05,48.77-18.05,10.24,0,19.71,1.73,28.42,5.18,8.7,3.46,15.62,8.26,20.74,14.4,5.12,6.14,7.68,12.86,7.68,20.16,0,8.45-2.82,16.1-8.45,22.94-5.63,6.85-12.93,10.27-21.89,10.27-5.12,0-9.73-1.41-13.82-4.22-4.1-2.81-6.14-6.85-6.14-12.1,0-2.43,1.18-5.82,3.55-10.18,2.37-4.35,3.55-7.42,3.55-9.22Z"/>
        </g>
        <g class="cls-2">
          <path class="cls-4" d="M687.54,103.87c0,10.37-1.86,17.76-5.57,22.18-3.71,4.42-9.35,6.62-16.9,6.62s-12.86-2.02-16.32-6.05c-3.46-4.03-5.18-11.17-5.18-21.41l-.19-21.7h-39.17v20.35c0,10.5-1.79,17.92-5.38,22.27-3.58,4.35-9.28,6.53-17.09,6.53s-12.86-2.02-16.32-6.05c-3.46-4.03-5.18-11.17-5.18-21.41l-.58-81.02c0-7.93,2.02-13.76,6.05-17.47,4.03-3.71,9.38-5.57,16.03-5.57,7.68,0,13.34,1.41,16.99,4.22,3.65,2.82,5.47,8.51,5.47,17.09v32.26h38.98v-30.53c0-5.38.99-9.82,2.98-13.34,1.98-3.52,4.54-6.01,7.68-7.49,3.13-1.47,6.88-2.21,11.23-2.21,7.42,0,13.02,1.41,16.8,4.22,3.77,2.82,5.66,8.51,5.66,17.09v81.41Z"/>
        </g>
      </g>
    </g>
  </g>
</svg>