<svg xmlns="http://www.w3.org/2000/svg" width="194.308" height="44.64" viewBox="0 0 194.308 44.64"><path d="M18.6.62A25.917,25.917,0,0,1,10.664-.5a18.37,18.37,0,0,1-6.51-3.782A4.354,4.354,0,0,1,2.48-7.564a3.5,3.5,0,0,1,1.054-2.511A3.415,3.415,0,0,1,6.076-11.16a3.284,3.284,0,0,1,2.108.744A18.251,18.251,0,0,0,13.02-7.44a15.169,15.169,0,0,0,5.58.93,11.165,11.165,0,0,0,5.983-1.55A4.49,4.49,0,0,0,27.094-11.9a4.929,4.929,0,0,0-2.48-4.371q-2.48-1.581-7.874-2.387Q3.162-20.646,3.162-31.31A11.426,11.426,0,0,1,5.208-38.1a12.919,12.919,0,0,1,5.58-4.4,19.743,19.743,0,0,1,7.874-1.519,22.531,22.531,0,0,1,7.347,1.178,17.816,17.816,0,0,1,5.735,3.1,4.137,4.137,0,0,1,1.8,3.286,3.5,3.5,0,0,1-1.054,2.511,3.347,3.347,0,0,1-2.48,1.085,2.72,2.72,0,0,1-1.674-.558,16.376,16.376,0,0,0-4.5-2.387,14.9,14.9,0,0,0-5.177-1.085,10.666,10.666,0,0,0-6.045,1.457,4.431,4.431,0,0,0-2.139,3.813,4.444,4.444,0,0,0,2.2,4.03,20.878,20.878,0,0,0,6.913,2.232,35.858,35.858,0,0,1,8.525,2.387A10.88,10.88,0,0,1,32.922-19a12.191,12.191,0,0,1,1.612,6.665,11.131,11.131,0,0,1-2.2,6.851A14.151,14.151,0,0,1,26.474-.961,19.632,19.632,0,0,1,18.6.62ZM73.1-43.4a3.771,3.771,0,0,1,2.79,1.054,3.691,3.691,0,0,1,1.054,2.728V-3.782a3.609,3.609,0,0,1-1.116,2.7A3.922,3.922,0,0,1,72.974,0a3.691,3.691,0,0,1-2.666-1.085,3.609,3.609,0,0,1-1.116-2.7V-18.228H49.414V-3.782a3.517,3.517,0,0,1-1.178,2.7A3.9,3.9,0,0,1,45.508,0a3.738,3.738,0,0,1-2.759-1.085,3.661,3.661,0,0,1-1.085-2.7V-39.618a3.609,3.609,0,0,1,1.116-2.7A3.922,3.922,0,0,1,45.632-43.4,3.691,3.691,0,0,1,48.3-42.315a3.609,3.609,0,0,1,1.116,2.7v14.26H69.192v-14.26a3.517,3.517,0,0,1,1.178-2.7A3.9,3.9,0,0,1,73.1-43.4ZM120.28-4.836a4.172,4.172,0,0,1,.31,1.488,3.511,3.511,0,0,1-1.054,2.635A3.374,3.374,0,0,1,117.118.31,3.251,3.251,0,0,1,115.1-.372a4.432,4.432,0,0,1-1.4-1.86l-3.224-7.5H92.008L88.784-2.17A3.814,3.814,0,0,1,87.451-.341,3.262,3.262,0,0,1,85.5.31a3.248,3.248,0,0,1-2.449-.868,3.251,3.251,0,0,1-.837-2.356A4.1,4.1,0,0,1,82.4-4.092L97.836-41.168a4.114,4.114,0,0,1,1.488-1.922,3.248,3.248,0,0,1,2.232-.558,3.632,3.632,0,0,1,2.077.651,3.673,3.673,0,0,1,1.4,1.829ZM95.046-16.864h12.4l-6.262-14.508ZM159.9-6.076a3.652,3.652,0,0,1,1.271,1.3,3.305,3.305,0,0,1,.465,1.674,3.2,3.2,0,0,1-.744,2.046A3.5,3.5,0,0,1,158.038.062,5.567,5.567,0,0,1,155.31-.62q-4.464-2.542-4.464-10.354a4.5,4.5,0,0,0-1.457-3.534,6.079,6.079,0,0,0-4.185-1.3H133.61V-3.782a4.057,4.057,0,0,1-.9,2.728A2.981,2.981,0,0,1,130.324,0a4.809,4.809,0,0,1-3.131-1.085,3.345,3.345,0,0,1-1.333-2.7V-39.618a3.661,3.661,0,0,1,1.085-2.7,3.661,3.661,0,0,1,2.7-1.085H147.5a11.492,11.492,0,0,1,6.076,1.736,12.813,12.813,0,0,1,4.557,4.774,13.692,13.692,0,0,1,1.705,6.82,12.089,12.089,0,0,1-1.674,6.045,13.339,13.339,0,0,1-4.34,4.681,9.5,9.5,0,0,1,4.278,7.316,10.423,10.423,0,0,1,.186,1.922,19.75,19.75,0,0,0,.5,2.759A2.045,2.045,0,0,0,159.9-6.076ZM147.188-22.2a3.087,3.087,0,0,0,2.17-1.054,8,8,0,0,0,1.736-2.821,10.5,10.5,0,0,0,.682-3.813,7.438,7.438,0,0,0-.682-3.193,6.541,6.541,0,0,0-1.736-2.325,3.388,3.388,0,0,0-2.17-.868H133.61V-22.2ZM193.006-7.13a3.661,3.661,0,0,1,2.7,1.085,3.447,3.447,0,0,1,1.085,2.511A3.29,3.29,0,0,1,195.7-.992a3.847,3.847,0,0,1-2.7.992h-20.77a3.661,3.661,0,0,1-2.7-1.085,3.661,3.661,0,0,1-1.085-2.7V-39.618a3.661,3.661,0,0,1,1.085-2.7,3.661,3.661,0,0,1,2.7-1.085h20.77a3.78,3.78,0,0,1,2.7,1.023,3.459,3.459,0,0,1,1.085,2.635,3.239,3.239,0,0,1-1.054,2.511,3.892,3.892,0,0,1-2.728.961H176.2v10.54h14.012a3.78,3.78,0,0,1,2.7,1.023A3.459,3.459,0,0,1,194-22.072a3.239,3.239,0,0,1-1.054,2.511,3.892,3.892,0,0,1-2.728.961H176.2V-7.13Z" transform="translate(-2.48 44.02)" fill="#fff"/></svg>