<svg xmlns="http://www.w3.org/2000/svg" viewBox="0 0 384.92 199.29"><defs><style>.a{fill:#1d7df6;}</style></defs><polygon class="a" points="101.28 106.47 101.28 101.28 106.47 101.28 106.47 98.01 101.28 98.01 101.28 92.82 98.01 92.82 98.01 98.01 92.82 98.01 92.82 101.28 98.01 101.28 98.01 106.47 101.28 106.47"/><polygon class="a" points="8.46 106.47 8.46 101.28 13.65 101.28 13.65 98.01 8.46 98.01 8.46 92.82 5.19 92.82 5.19 98.01 0 98.01 0 101.28 5.19 101.28 5.19 106.47 8.46 106.47"/><polygon class="a" points="286.91 13.65 286.91 8.46 292.1 8.46 292.1 5.19 286.91 5.19 286.91 0 283.65 0 283.65 5.19 278.45 5.19 278.45 8.46 283.65 8.46 283.65 13.65 286.91 13.65"/><polygon class="a" points="286.91 106.47 286.91 101.28 292.1 101.28 292.1 98.01 286.91 98.01 286.91 92.82 283.65 92.82 283.65 98.01 278.45 98.01 278.45 101.28 283.65 101.28 283.65 106.47 286.91 106.47"/><polygon class="a" points="194.09 13.65 194.09 8.46 199.29 8.46 199.29 5.19 194.09 5.19 194.09 0 190.83 0 190.83 5.19 185.64 5.19 185.64 8.46 190.83 8.46 190.83 13.65 194.09 13.65"/><polygon class="a" points="194.09 106.47 194.09 101.28 199.29 101.28 199.29 98.01 194.09 98.01 194.09 92.82 190.83 92.82 190.83 98.01 185.64 98.01 185.64 101.28 190.83 101.28 190.83 106.47 194.09 106.47"/><polygon class="a" points="379.73 13.65 379.73 8.46 384.92 8.46 384.92 5.19 379.73 5.19 379.73 0 376.46 0 376.46 5.19 371.27 5.19 371.27 8.46 376.46 8.46 376.46 13.65 379.73 13.65"/><polygon class="a" points="379.73 106.47 379.73 101.28 384.92 101.28 384.92 98.01 379.73 98.01 379.73 92.82 376.46 92.82 376.46 98.01 371.27 98.01 371.27 101.28 376.46 101.28 376.46 106.47 379.73 106.47"/><polygon class="a" points="101.28 199.29 101.28 194.09 106.47 194.09 106.47 190.83 101.28 190.83 101.28 185.64 98.01 185.64 98.01 190.83 92.82 190.83 92.82 194.09 98.01 194.09 98.01 199.29 101.28 199.29"/><polygon class="a" points="8.46 199.29 8.46 194.09 13.65 194.09 13.65 190.83 8.46 190.83 8.46 185.64 5.19 185.64 5.19 190.83 0 190.83 0 194.09 5.19 194.09 5.19 199.29 8.46 199.29"/></svg>