<svg xmlns="http://www.w3.org/2000/svg" viewBox="0 0 319.02 319.02"><defs><style>.a{fill:#1d7df6;}.b{fill:none;stroke:#1d7df6;stroke-miterlimit:10;stroke-width:0.5px;}</style></defs><polygon class="a" points="13.65 5.19 8.46 5.19 8.46 0 5.19 0 5.19 5.19 0 5.19 0 8.46 5.19 8.46 5.19 13.65 8.46 13.65 8.46 8.46 13.65 8.46 13.65 5.19"/><rect class="b" x="6.82" y="6.82" width="185.64" height="185.64"/><line class="b" x1="192.46" y1="192.46" x2="6.82" y2="6.82"/><line class="b" x1="192.46" y1="6.82" x2="6.82" y2="192.46"/><polygon class="a" points="199.29 5.19 194.09 5.19 194.09 0 190.83 0 190.83 5.19 185.64 5.19 185.64 8.46 190.83 8.46 190.83 13.65 194.09 13.65 194.09 8.46 199.29 8.46 199.29 5.19"/><polygon class="a" points="13.65 190.83 8.46 190.83 8.46 185.64 5.19 185.64 5.19 190.83 0 190.83 0 194.09 5.19 194.09 5.19 199.29 8.46 199.29 8.46 194.09 13.65 194.09 13.65 190.83"/><polygon class="a" points="199.29 190.83 194.09 190.83 194.09 185.64 190.83 185.64 190.83 190.83 185.64 190.83 185.64 194.09 190.83 194.09 190.83 199.29 194.09 199.29 194.09 194.09 199.29 194.09 199.29 190.83"/><polygon class="a" points="319.02 190.83 313.83 190.83 313.83 185.64 310.56 185.64 310.56 190.83 305.37 190.83 305.37 194.09 310.56 194.09 310.56 199.29 313.83 199.29 313.83 194.09 319.02 194.09 319.02 190.83"/><polygon class="a" points="319.02 310.56 313.83 310.56 313.83 305.37 310.56 305.37 310.56 310.56 305.37 310.56 305.37 313.83 310.56 313.83 310.56 319.02 313.83 319.02 313.83 313.83 319.02 313.83 319.02 310.56"/><polygon class="a" points="199.29 310.56 194.09 310.56 194.09 305.37 190.83 305.37 190.83 310.56 185.64 310.56 185.64 313.83 190.83 313.83 190.83 319.02 194.09 319.02 194.09 313.83 199.29 313.83 199.29 310.56"/><rect class="b" x="192.46" y="192.46" width="119.73" height="119.73"/><line class="b" x1="312.19" y1="312.19" x2="192.46" y2="192.46"/><line class="b" x1="312.19" y1="192.46" x2="192.46" y2="312.19"/></svg>