<svg width="646" height="154" viewBox="0 0 646 154" fill="none" xmlns="http://www.w3.org/2000/svg">
<g clip-path="url(#clip0_210_834)">
<path d="M128.134 15.9257C128.1 15.985 128.032 15.985 127.973 15.9257L116.444 3.5832V16.434C116.444 19.0431 117.604 20.5933 120.338 20.5933C120.533 20.5933 120.533 20.7881 120.338 20.7881C118.188 20.7881 117.105 20.7034 116.275 20.7034C115.547 20.7034 114.591 20.7881 112.644 20.7881C112.449 20.7881 112.449 20.5933 112.644 20.5933C115.09 20.5933 116.14 19.204 116.14 16.849L116.106 5.27743C116.114 1.55012 115.623 1.38917 112.881 1.38917C112.686 1.38917 112.652 1.19434 112.881 1.19434C115.124 1.19434 115.522 1.27905 116.377 1.27905H116.605L128.024 13.5707L137.444 1.27905H138.629C139.484 1.27905 139.882 1.19434 142.125 1.19434C142.354 1.19434 142.32 1.38917 142.125 1.38917C139.383 1.38917 138.892 1.5586 138.892 5.27743V16.6796C138.892 20.3985 139.391 20.5679 142.125 20.5679C142.32 20.5679 142.354 20.7627 142.125 20.7627C139.882 20.7627 139.484 20.678 138.629 20.678L137.673 20.7034C136.818 20.7034 136.42 20.8135 134.177 20.839C133.949 20.839 133.982 20.6441 134.177 20.6441C136.92 20.5848 137.377 20.4239 137.377 16.705V1.82967L128.235 13.7655L129.259 14.8753C128.929 15.0955 128.337 15.5445 128.134 15.9342V15.9257Z" fill="white"/>
<path d="M143.784 14.1804C143.784 9.8516 147.678 6.54785 152.663 6.54785C157.649 6.54785 160.984 9.3518 160.984 13.2909C160.984 17.679 157.09 20.9742 152.138 20.9742C147.187 20.9742 143.784 18.0602 143.784 14.1719V14.1804ZM159.926 14.6547C159.926 10.9613 156.134 7.13236 151.504 7.13236C147.576 7.13236 144.868 9.74148 144.868 12.9012C144.868 16.8403 148.829 20.449 153.29 20.449C157.056 20.449 159.926 17.8992 159.926 14.6463V14.6547Z" fill="white"/>
<path d="M162.237 20.7877C162.042 20.7877 162.042 20.5929 162.237 20.5929C164.776 20.5929 164.945 19.9575 164.945 17.8143V11.1221C164.945 9.18223 164.717 7.90309 162.736 7.90309C162.634 7.87768 162.634 7.76755 162.736 7.73367C164.285 7.4287 165.241 7.12374 166.139 6.53923C166.206 6.47993 166.333 6.51382 166.333 6.56465V11.8676L165.834 19.0257H166.062C167.053 9.4279 171.082 6.53923 173.985 6.53923C177.252 6.53923 178.446 9.28389 178.446 12.6131V13.0536C179.106 9.47025 180.858 6.59006 183.897 6.59006C187.13 6.59006 188.256 8.78409 189.111 12.6131L190.271 17.8313C190.736 19.9406 190.897 20.5759 193.436 20.5759C193.631 20.5759 193.631 20.7708 193.436 20.7708C191.489 20.7708 191.32 20.6861 190.567 20.6861H189.509C188.747 20.6861 188.586 20.7708 186.639 20.7708C186.445 20.7708 186.445 20.5759 186.639 20.5759C189.179 20.5759 189.348 19.9406 188.849 17.8313L187.723 12.9773C186.8 8.9281 185.514 7.20845 183.533 7.20845C180.13 7.20845 178.742 10.9273 178.446 15.9761V17.8059C178.446 19.9406 178.607 20.5844 181.154 20.5844C181.349 20.5844 181.349 20.7792 181.154 20.7792C179.208 20.7792 179.038 20.6945 178.285 20.6945H177.227C176.465 20.6945 176.304 20.7792 174.358 20.7792C174.163 20.7792 174.163 20.5844 174.358 20.5844C176.897 20.5844 177.066 19.9491 177.066 17.8059V12.6978C177.066 10.9527 176.575 7.19998 173.266 7.19998C170.159 7.19998 167.29 11.1984 166.367 18.7462C166.469 20.1609 166.926 20.5759 169.042 20.5759C169.237 20.5759 169.237 20.7708 169.042 20.7708C167.095 20.7708 166.926 20.6861 166.173 20.6861H165.114C164.353 20.6861 164.192 20.7708 162.245 20.7708L162.237 20.7877Z" fill="white"/>
<path d="M193.698 14.1804C193.698 9.8516 197.592 6.54785 202.578 6.54785C207.563 6.54785 210.898 9.3518 210.898 13.2909C210.898 17.679 207.004 20.9742 202.053 20.9742C197.101 20.9742 193.698 18.0602 193.698 14.1719V14.1804ZM209.84 14.6547C209.84 10.9613 206.048 7.13236 201.418 7.13236C197.491 7.13236 194.782 9.74148 194.782 12.9012C194.782 16.8403 198.743 20.449 203.204 20.449C206.971 20.449 209.84 17.8992 209.84 14.6463V14.6547Z" fill="white"/>
<path d="M212.752 18.2635C214.14 17.0182 214.597 16.1796 215.587 14.4345C215.782 14.2143 215.917 14.4091 215.85 14.5446C215.325 15.5188 214.893 16.2389 214.368 16.9335C214.766 18.9581 216.154 20.7116 219.912 20.7116C222.189 20.7116 224.729 19.9069 224.729 17.823C224.729 16.1287 223.408 15.324 221.724 14.6293C220.539 14.1295 219.117 13.8246 217.83 13.4095C215.655 12.6894 214.03 11.7407 214.03 9.82619C214.03 7.65757 217.331 6.54785 219.574 6.54785C222.443 6.54785 225.253 7.71687 225.846 9.07226C224.627 10.0719 223.671 11.5458 223.104 12.681C222.968 12.8165 222.74 12.681 222.875 12.5115C223.205 11.8762 223.637 11.1816 224.094 10.5717C224.356 8.71647 222.342 6.8274 219.54 6.8274C217.297 6.8274 215.249 7.93712 215.249 9.46193C215.249 10.8258 216.408 11.6814 218.118 12.2405C219.244 12.6301 220.564 12.9351 221.783 13.3502C224.094 14.1295 226.108 15.324 226.108 17.374C226.108 19.6527 222.875 20.9573 219.972 20.9573C215.841 20.9573 213.539 19.5934 212.743 18.2635H212.752Z" fill="white"/>
<path d="M245.263 20.7033C246.093 20.7033 246.778 20.1188 247.049 19.619C247.151 19.5089 247.379 19.5597 247.312 19.7037C246.948 20.3391 246.288 20.949 245.103 20.949C243.35 20.949 242.656 20.1188 242.656 18.4246V14.7312L243.02 11.1817H242.851C242.258 14.765 239.685 20.9744 235.064 20.9744C230.874 20.9744 230.044 18.4246 230.044 15.0615V11.1733C230.044 9.23337 229.816 7.95423 227.835 7.95423C227.734 7.92882 227.734 7.81869 227.835 7.7848C229.384 7.53914 230.248 7.06476 231.238 6.59037C231.306 6.53107 231.407 6.53107 231.433 6.59037V14.9683C231.433 19.0514 233.219 20.2713 235.622 20.2713C240.439 20.2713 242.521 12.4439 242.521 10.9191V10.3092C242.453 8.86911 242.021 7.95423 240.346 7.95423C240.244 7.92882 240.244 7.81869 240.346 7.7848C241.895 7.53914 242.758 7.06476 243.748 6.59037C243.816 6.53107 243.909 6.53107 243.943 6.59037V17.7723C243.943 20.3814 244.408 20.6864 245.263 20.6864V20.7033Z" fill="white"/>
<path d="M256.495 20.7029H247.481V20.6436L259.729 7.07279H254.481C253.423 7.07279 250.884 7.81825 249.724 9.51248C249.292 10.6815 248.734 11.4863 248.107 12.5367C248.006 12.7061 247.709 12.596 247.913 12.3419C248.539 11.2321 249.732 9.95298 250.156 6.57299C250.156 6.48828 250.291 6.48828 250.35 6.54758C251.112 6.91184 253.186 6.82713 254.413 6.82713H261.608V6.91184L249.428 20.4572H254.515C256.597 20.4572 258.908 19.8219 260.592 18.5682C261.185 16.7892 261.447 16.0437 262.209 14.3495C262.31 14.1293 262.573 14.214 262.505 14.3749C261.879 15.9844 261.049 17.5093 260.296 20.9231C260.296 21.0078 260.194 21.0078 260.135 20.9824C259.28 20.7029 258.019 20.7029 256.504 20.7029H256.495Z" fill="white"/>
<path d="M280.331 20.7033C281.161 20.7033 281.846 20.1188 282.117 19.619C282.219 19.5089 282.447 19.5597 282.38 19.7037C282.016 20.3391 281.355 20.949 280.17 20.949C278.418 20.949 277.724 20.1188 277.724 18.4246V14.7312L278.088 11.1817H277.919C277.326 14.765 274.753 20.9744 270.132 20.9744C265.942 20.9744 265.112 18.4246 265.112 15.0615V11.1733C265.112 9.23337 264.884 7.95423 262.903 7.95423C262.802 7.92882 262.802 7.81869 262.903 7.7848C264.452 7.53914 265.315 7.06476 266.306 6.59037C266.373 6.53107 266.475 6.53107 266.5 6.59037V14.9683C266.5 19.0514 268.286 20.2713 270.69 20.2713C275.507 20.2713 277.589 12.4439 277.589 10.9191V10.3092C277.521 8.86911 277.089 7.95423 275.413 7.95423C275.312 7.92882 275.312 7.81869 275.413 7.7848C276.962 7.53914 277.826 7.06476 278.816 6.59037C278.884 6.53107 278.977 6.53107 279.011 6.59037V17.7723C279.011 20.3814 279.476 20.6864 280.331 20.6864V20.7033Z" fill="white"/>
<path d="M308.526 1.3892C308.331 1.3892 308.331 1.19436 308.526 1.19436C310.473 1.19436 311.463 1.27907 312.191 1.27907C312.919 1.27907 313.875 1.19436 315.822 1.19436C316.017 1.19436 316.017 1.3892 315.822 1.3892C313.376 1.3892 312.326 2.77847 312.326 5.13345V20.678C312.326 20.7881 312.191 20.8136 312.098 20.7034L294.238 2.88859V16.434C294.238 19.0431 295.296 20.5933 297.734 20.5933C297.928 20.5933 297.928 20.7881 297.734 20.7881C295.787 20.7881 294.797 20.7034 294.103 20.7034C293.409 20.7034 292.384 20.7881 290.438 20.7881C290.243 20.7881 290.243 20.5933 290.438 20.5933C292.909 20.5933 293.933 19.204 293.933 16.8491V6.07375C293.933 1.60945 293.434 1.41461 290.7 1.41461C290.505 1.41461 290.471 1.16895 290.7 1.16895C292.943 1.16895 293.341 1.27907 294.196 1.27907H294.458L312.022 18.7381V5.54853C312.022 2.93942 310.997 1.3892 308.526 1.3892Z" fill="white"/>
<path d="M317.439 13.935C317.439 9.80107 321.569 6.58203 326.318 6.58203C329.721 6.58203 332.658 8.60664 332.658 11.2158C332.658 11.58 332.624 11.7156 332.522 12.1052H319.055C319.022 12.3509 318.988 12.605 318.988 12.8846C318.988 16.6627 321.434 20.0427 326.216 20.0427C330.474 20.0427 332.886 17.9927 334.334 14.2993C334.435 14.1298 334.698 14.2145 334.596 14.4094C332.912 18.6534 330.042 20.9576 325.514 20.9576C320.698 20.9576 317.422 17.8487 317.422 13.935H317.439ZM329.585 11.8511C330.44 11.8511 330.804 11.4106 330.804 10.6821C330.804 8.65746 329.484 6.8277 326.013 6.8277C323.533 6.8277 319.707 8.4118 319.081 11.8511H329.577H329.585Z" fill="white"/>
<path d="M335.036 20.7877C334.841 20.7877 334.841 20.5929 335.036 20.5929C337.575 20.5929 337.745 19.9575 337.745 17.8143V11.1221C337.745 9.18223 337.516 7.90309 335.536 7.90309C335.434 7.87768 335.434 7.76755 335.536 7.73367C337.085 7.4287 338.041 7.12374 338.938 6.53923C339.006 6.47993 339.133 6.51382 339.133 6.56465V11.8676L338.633 19.0257H338.803C339.962 10.0378 344.779 6.53923 348.114 6.53923C350.949 6.53923 351.745 8.53843 352.6 12.6131L353.725 17.8313C354.157 19.9406 354.318 20.5759 356.866 20.5759C357.06 20.5759 357.06 20.7708 356.866 20.7708C354.919 20.7708 354.75 20.6861 353.996 20.6861H352.904C352.143 20.6861 351.982 20.7708 350.035 20.7708C349.84 20.7708 349.84 20.5759 350.035 20.5759C352.574 20.5759 352.744 19.9406 352.312 17.8313L351.127 12.198C350.297 8.25888 349.078 7.31011 347.267 7.31011C343.966 7.31011 340.14 11.2238 339.175 18.636C339.243 20.0761 339.675 20.5759 341.85 20.5759C342.045 20.5759 342.045 20.7708 341.85 20.7708C339.903 20.7708 339.734 20.6861 338.981 20.6861H337.922C337.161 20.6861 337 20.7708 335.053 20.7708L335.036 20.7877Z" fill="white"/>
<path d="M357.12 13.935C357.12 9.80107 361.251 6.58203 365.999 6.58203C369.402 6.58203 372.339 8.60664 372.339 11.2158C372.339 11.58 372.305 11.7156 372.203 12.1052H358.737C358.703 12.3509 358.669 12.605 358.669 12.8846C358.669 16.6627 361.115 20.0427 365.897 20.0427C370.155 20.0427 372.567 17.9927 374.015 14.2993C374.116 14.1298 374.379 14.2145 374.277 14.4094C372.593 18.6534 369.723 20.9576 365.195 20.9576C360.379 20.9576 357.103 17.8487 357.103 13.935H357.12ZM369.266 11.8511C370.121 11.8511 370.485 11.4106 370.485 10.6821C370.485 8.65746 369.165 6.8277 365.694 6.8277C363.214 6.8277 359.388 8.4118 358.762 11.8511H369.258H369.266Z" fill="white"/>
<path d="M383.071 20.788C382.843 20.788 382.877 20.5932 383.071 20.5932C385.814 20.5932 386.305 20.4238 386.305 16.7049V2.10914L382.741 4.46412C382.513 4.57424 382.445 4.35399 382.606 4.24387L387.591 0.940118C387.727 0.829993 387.854 0.855406 387.854 0.965531L387.82 16.7049C387.82 20.4238 388.319 20.5932 391.053 20.5932C391.248 20.5932 391.282 20.788 391.053 20.788C388.81 20.788 388.412 20.7033 387.557 20.7033H386.567C385.712 20.7033 385.314 20.788 383.071 20.788Z" fill="white"/>
<path d="M393.076 18.2635C394.464 17.0182 394.922 16.1796 395.912 14.4345C396.107 14.2143 396.242 14.4091 396.174 14.5446C395.65 15.5188 395.218 16.2389 394.693 16.9335C395.091 18.9581 396.479 20.7116 400.237 20.7116C402.514 20.7116 405.053 19.9069 405.053 17.823C405.053 16.1287 403.733 15.324 402.049 14.6293C400.864 14.1295 399.442 13.8246 398.155 13.4095C395.98 12.6894 394.354 11.7407 394.354 9.82619C394.354 7.65757 397.656 6.54785 399.899 6.54785C402.768 6.54785 405.578 7.71687 406.171 9.07226C404.952 10.0719 403.995 11.5458 403.428 12.681C403.293 12.8165 403.064 12.681 403.2 12.5115C403.53 11.8762 403.961 11.1816 404.419 10.5717C404.681 8.71647 402.666 6.8274 399.865 6.8274C397.622 6.8274 395.573 7.93712 395.573 9.46193C395.573 10.8258 396.733 11.6814 398.443 12.2405C399.568 12.6301 400.889 12.9351 402.108 13.3502C404.419 14.1295 406.433 15.324 406.433 17.374C406.433 19.6527 403.2 20.9573 400.296 20.9573C396.166 20.9573 393.864 19.5934 393.068 18.2635H393.076Z" fill="white"/>
<path d="M410.403 7.07335H407.923C407.762 7.07335 407.694 6.87852 407.923 6.82769C410.073 6.13305 411.326 4.93862 411.622 2.3888C411.656 2.27868 411.817 2.30409 411.817 2.3888V6.82769H420.205C420.399 6.82769 420.433 7.07335 420.205 7.07335H411.783V15.5953C411.783 18.0689 412.341 20.7034 415.482 20.7034C419.511 20.7034 421.288 17.9842 422.744 14.2908C422.846 14.1214 423.108 14.2061 423.006 14.4009C421.322 18.645 419.341 20.9491 415.448 20.9491C411.554 20.9491 410.395 18.7551 410.395 16.0951V7.07335H410.403Z" fill="white"/>
<path d="M446.495 20.7882C446.266 20.7882 446.266 20.5934 446.495 20.5934C449.796 20.5934 449.965 19.6785 448.645 17.0101L447.392 14.5111C445.479 14.5111 443.498 14.4857 441.585 14.4857C440.197 14.4857 437.032 14.5111 435.872 14.5111L434.552 16.7898C433.197 19.1194 434.154 20.5934 437.421 20.5934C437.65 20.5934 437.65 20.7882 437.421 20.7882C434.814 20.7882 433.494 20.7035 432.537 20.7035C432.072 20.7035 431.411 20.7882 430.091 20.7882C429.955 20.7882 429.955 20.5934 430.091 20.5934C431.741 20.5934 432.867 19.1194 434.221 16.7898L441.848 3.49857L440.993 1.77892C440.97 1.73939 440.982 1.71115 441.027 1.69421C441.492 1.52479 441.882 1.32995 442.186 0.999576C442.186 0.999576 442.22 0.974163 442.254 0.999576L450.211 17.0101C451.531 19.6446 452.293 20.5934 454.206 20.5934C454.341 20.5934 454.341 20.7882 454.206 20.7882C452.657 20.7882 452.361 20.7035 451.76 20.7035H450.702C449.677 20.7035 449.22 20.7882 446.512 20.7882H446.495ZM441.535 14.24C443.448 14.24 445.428 14.2654 447.248 14.2654L442 3.80353L435.99 14.2654C438.005 14.2654 440.316 14.24 441.535 14.24Z" fill="white"/>
<path d="M454.748 20.7878C454.553 20.7878 454.553 20.5929 454.748 20.5929C457.287 20.5929 457.456 19.9576 457.456 17.8144V3.49814C457.456 2.08346 456.898 1.38882 454.849 1.80391C454.748 1.82932 454.714 1.7192 454.815 1.69378C456.068 1.30411 457.922 0.448524 458.641 0.024966C458.709 -0.0343321 458.836 -0.000447445 458.836 0.109678V17.8144C458.836 19.9491 458.997 20.5929 461.544 20.5929C461.739 20.5929 461.739 20.7878 461.544 20.7878C459.598 20.7878 459.428 20.7031 458.675 20.7031H457.617C456.855 20.7031 456.694 20.7878 454.748 20.7878Z" fill="white"/>
<path d="M466.598 19.8729C466.132 19.8729 464.981 20.0423 464.752 20.7031C464.719 20.7878 464.592 20.7878 464.592 20.7031C464.752 19.7035 464.854 18.8987 464.854 18.0092V3.49814C464.854 2.08346 464.295 1.38882 462.247 1.80391C462.145 1.82932 462.112 1.7192 462.213 1.69378C463.466 1.30411 465.32 0.448524 466.039 0.024966C466.107 -0.0343321 466.234 -0.000447444 466.234 0.109678V11.4017L465.87 18.3989H466.031C466.462 9.48725 471.05 6.54776 475.409 6.54776C478.38 6.54776 480.86 8.74179 480.86 12.9858C480.86 16.9503 477.263 20.9487 472.506 20.9487C469.399 20.9487 468.375 19.8644 466.598 19.8644V19.8729ZM479.142 13.4348C479.142 9.27547 476.899 7.16615 474.326 7.16615C470.17 7.16615 466.632 11.0798 466.301 18.238V18.3735C467.486 19.3731 470.297 20.7031 472.506 20.7031C476.069 20.7031 479.142 18.7632 479.142 13.4348Z" fill="white"/>
<path d="M499.516 20.7033C500.345 20.7033 501.031 20.1188 501.301 19.619C501.403 19.5089 501.632 19.5597 501.564 19.7037C501.2 20.3391 500.54 20.949 499.355 20.949C497.603 20.949 496.908 20.1188 496.908 18.4246V14.7312L497.272 11.1817H497.103C496.511 14.765 493.937 20.9744 489.316 20.9744C485.126 20.9744 484.297 18.4246 484.297 15.0615V11.1733C484.297 9.23337 484.068 7.95423 482.087 7.95423C481.986 7.92882 481.986 7.81869 482.087 7.7848C483.636 7.53914 484.5 7.06476 485.49 6.59037C485.558 6.53107 485.659 6.53107 485.685 6.59037V14.9683C485.685 19.0514 487.471 20.2713 489.875 20.2713C494.691 20.2713 496.773 12.4439 496.773 10.9191V10.3092C496.705 8.86911 496.282 7.95423 494.598 7.95423C494.496 7.92882 494.496 7.81869 494.598 7.7848C496.147 7.53914 497.01 7.06476 498 6.59037C498.068 6.53107 498.161 6.53107 498.195 6.59037V17.7723C498.195 20.3814 498.661 20.6864 499.516 20.6864V20.7033Z" fill="white"/>
<path d="M502.156 20.7877C501.962 20.7877 501.962 20.5929 502.156 20.5929C504.696 20.5929 504.865 19.9575 504.865 17.8143V11.1221C504.865 9.18223 504.636 7.90309 502.656 7.90309C502.554 7.87768 502.554 7.76755 502.656 7.73367C504.205 7.4287 505.161 7.12374 506.058 6.53923C506.126 6.47993 506.253 6.51382 506.253 6.56465V11.8676L505.762 19.0257H505.991C506.981 9.4279 511.01 6.53923 513.913 6.53923C517.18 6.53923 518.374 9.28389 518.374 12.6131V13.0536C519.034 9.47025 520.786 6.59006 523.825 6.59006C527.058 6.59006 528.184 8.78409 529.039 12.6131L530.199 17.8313C530.664 19.9406 530.825 20.5759 533.364 20.5759C533.559 20.5759 533.559 20.7708 533.364 20.7708C531.418 20.7708 531.248 20.6861 530.495 20.6861H529.437C528.675 20.6861 528.514 20.7708 526.567 20.7708C526.373 20.7708 526.373 20.5759 526.567 20.5759C529.107 20.5759 529.276 19.9406 528.777 17.8313L527.651 12.9773C526.728 8.9281 525.442 7.20845 523.461 7.20845C520.058 7.20845 518.679 10.9273 518.374 15.9761V17.8059C518.374 19.9406 518.535 20.5844 521.083 20.5844C521.277 20.5844 521.277 20.7792 521.083 20.7792C519.136 20.7792 518.966 20.6945 518.213 20.6945H517.155C516.393 20.6945 516.232 20.7792 514.286 20.7792C514.091 20.7792 514.091 20.5844 514.286 20.5844C516.825 20.5844 516.994 19.9491 516.994 17.8059V12.6978C516.994 10.9527 516.503 7.19998 513.194 7.19998C510.087 7.19998 507.218 11.1984 506.295 18.7462C506.397 20.1609 506.854 20.5759 508.97 20.5759C509.165 20.5759 509.165 20.7708 508.97 20.7708C507.023 20.7708 506.854 20.6861 506.101 20.6861H505.043C504.281 20.6861 504.12 20.7708 502.173 20.7708L502.156 20.7877Z" fill="white"/>
</g>
<g clip-path="url(#clip1_210_834)">
<path d="M19.2966 129.479H19.3941C19.3941 131.293 20.0613 132.913 23.4948 132.913V133.482H6.2373V132.913C9.6708 132.913 10.338 131.293 10.338 129.479V72.0843C10.338 70.2701 9.6708 68.5608 6.2373 68.5608V68.0811H19.2666L19.2966 129.487V129.479Z" fill="white"/>
<path d="M103.762 118.706C98.7093 129.667 89.8482 134.532 81.077 134.532C68.4975 134.532 56.1055 124.239 56.1055 107.079C56.1055 89.9191 66.8783 79.8135 81.4594 79.8135C92.8019 79.8135 102.143 86.9653 102.143 98.3079L93.2742 98.2104H65.7238C65.3414 100.399 65.154 102.693 65.154 105.167C65.154 121.465 75.447 129.472 85.65 129.472C92.607 129.472 99.474 125.753 102.997 118.414L103.762 118.699V118.706ZM66.1061 96.4037H93.0793C92.5995 87.9174 88.2139 81.7251 80.5898 81.7251C72.9656 81.7251 68.1002 87.3477 66.0986 96.4037H66.1061Z" fill="white"/>
<path d="M159.523 125.378C157.334 131.57 153.9 134.531 149.23 134.531C144.559 134.531 142.843 131.675 142.843 127.38V119.943C139.124 129.951 130.068 134.719 122.159 134.719C114.25 134.719 107.863 130.236 107.863 121.944C107.863 99.7317 142.85 105.834 142.85 92.3924C142.753 86.9573 139.799 81.2373 133.892 81.2373C121.597 81.2373 122.354 94.6789 116.162 94.6789C113.875 94.6789 112.346 93.3445 112.346 91.1555C112.346 85.0531 121.687 79.2432 133.03 79.2432C147.993 79.2432 151.329 87.2497 151.329 95.6385V124.711C151.329 127.477 152.761 128.811 154.478 128.811C156.097 128.811 157.911 127.664 159.148 125.191L159.53 125.378H159.523ZM142.843 98.0225C137.025 105.842 116.724 105.557 116.724 120.325C116.724 126.428 121.11 129.569 126.26 129.569C133.697 129.569 142.843 122.994 142.843 109.358V98.015V98.0225Z" fill="white"/>
<path d="M208.259 118.706C203.206 129.667 194.345 134.532 185.574 134.532C172.994 134.532 160.602 124.239 160.602 107.079C160.602 89.9191 171.375 79.8135 185.956 79.8135C197.299 79.8135 206.64 85.5335 206.64 91.6358C206.64 93.9223 205.118 95.2567 202.921 95.2567C196.729 95.2567 197.486 81.7176 185.094 81.7176C175.753 81.7176 169.651 91.156 169.651 105.167C169.651 121.465 179.944 129.472 190.147 129.472C197.104 129.472 203.971 125.753 207.494 118.414L208.259 118.699V118.706Z" fill="white"/>
<path d="M268.345 125.378C266.156 131.571 262.625 134.532 257.955 134.532C253.284 134.532 251.568 131.676 251.568 127.38V95.5414C251.568 88.1047 245.278 84.4837 238.411 84.4837C232.503 84.4837 226.206 87.1526 223.065 92.3028V129.479C223.065 131.293 223.83 132.913 227.166 132.913V133.482H210.486V132.913C213.919 132.913 214.586 131.293 214.586 129.479V65.0373C214.586 63.223 213.919 61.6038 210.486 61.6038V61.034L222.69 57.4131H223.073V89.9189C227.93 83.0519 235.75 79.5284 242.999 79.5284C252.055 79.5284 260.061 84.8661 260.061 95.6389V124.711C260.061 127.477 261.493 128.812 263.21 128.812C264.829 128.812 266.733 127.665 267.978 125.191L268.36 125.378H268.345Z" fill="white"/>
<path d="M310.387 67.6156C310.387 69.8047 308.865 71.2365 306.669 71.2365C300.469 71.2365 302.951 59.7965 292.463 59.6991C286.36 59.6991 282.455 64.467 282.455 71.424V80.5775H300.469V82.3917H282.455V129.673C282.552 131.39 283.219 133.01 286.555 133.01V133.579H269.875V133.01C273.309 133.01 273.976 131.39 273.976 129.576V74.1903C273.976 65.8014 280.176 57.7949 292.275 57.7949C303.618 57.7949 310.387 62.7503 310.387 67.6156Z" fill="white"/>
<path d="M361.275 125.475C359.086 131.675 355.555 134.629 350.884 134.629C346.214 134.629 344.595 131.773 344.595 127.477V124.141C339.737 131.098 331.918 134.531 324.578 134.531C315.62 134.531 307.516 129.194 307.516 118.421V87.7294C307.516 85.9152 306.849 84.2959 303.415 84.2959V83.7262L315.62 80.0078L316.002 80.1053V118.518C316.002 125.955 322.292 129.576 329.249 129.576C335.066 129.576 341.453 126.907 344.595 121.757V87.7294C344.595 85.9152 343.83 84.2959 340.404 84.2959V83.7262H340.501L352.609 80.0078L352.991 80.1053V124.816C352.991 127.485 354.423 128.916 356.139 128.916C357.759 128.916 359.573 127.679 360.907 125.295L361.29 125.483L361.275 125.475Z" fill="white"/>
<path d="M379.574 133.01V133.58H362.894V133.01C366.328 133.01 366.995 131.391 366.995 129.577V65.0373C366.995 63.223 366.328 61.6038 362.894 61.6038V61.034L375.099 57.4131H375.481V129.577C375.481 131.391 376.246 133.01 379.582 133.01H379.574Z" fill="white"/>
<path d="M490.353 125.476C488.164 131.676 483.869 134.629 479.198 134.629C474.528 134.629 471.574 131.773 471.574 125.386V82.3923H464.902V81.725L479.678 67.6162H480.06V80.578H488.067V82.3923H480.06V124.809C480.06 127.478 482.062 128.909 484.251 128.909C486.44 128.909 488.734 127.672 489.971 125.289L490.353 125.476Z" fill="white"/>
<path d="M544.097 107.079C544.097 121.855 535.611 134.532 517.791 134.532C499.972 134.532 491.575 121.855 491.575 107.079C491.575 92.3029 499.964 79.626 517.791 79.626C535.618 79.626 544.097 92.2055 544.097 107.079ZM535.131 107.079C535.131 93.3525 529.599 81.6276 517.784 81.6276C505.969 81.6276 500.534 93.3525 500.534 107.079C500.534 120.805 506.066 132.433 517.784 132.433C529.501 132.433 535.131 120.805 535.131 107.079Z" fill="white"/>
<path d="M578.612 79.2438C582.803 79.2438 585.951 81.148 586.049 84.484C586.146 86.0059 584.902 87.7226 583.095 87.7226C581.378 87.7226 580.044 87.1529 578.904 86.0059C577.188 84.2891 575.186 83.5245 572.997 83.5245C568.514 83.5245 563.461 86.8605 560.417 92.2956V129.472C560.417 131.286 561.182 132.905 564.518 132.905V133.475H547.838V132.905C551.271 132.905 551.939 131.286 551.939 129.472V87.4302C551.939 85.616 551.271 83.9967 547.838 83.9967V83.427L560.043 79.8061H560.425V90.0091C565.763 82.4749 573.102 79.2363 578.634 79.2363L578.612 79.2438Z" fill="white"/>
<path d="M18.8318 69.0628C21.5006 62.6756 28.4126 58.5749 35.6095 58.3875C48.039 57.9077 57.9122 66.394 57.9122 79.4533C57.9122 92.5126 42.3415 104.552 24.147 100.519V99.642C41.277 102.048 49.4784 91.7479 49.4784 79.4458C49.4784 67.1437 43.6235 59.9018 34.4775 59.9993C27.3856 60.0968 19.8588 66.1016 18.8318 75.54V69.0553V69.0628Z" fill="white"/>
<path d="M411.217 110.745H412.357C413.114 114.471 414.096 117.612 415.31 120.168C416.517 122.725 417.844 124.831 419.299 126.488C420.746 128.145 422.267 129.427 423.857 130.319C425.446 131.219 427.05 131.871 428.67 132.283C430.289 132.696 431.841 132.943 433.333 133.01C434.817 133.078 436.211 133.115 437.523 133.115C441.182 133.115 444.188 132.561 446.534 131.459C448.881 130.357 450.747 128.955 452.127 127.268C453.506 125.574 454.473 123.744 455.028 121.78C455.583 119.816 455.86 118.002 455.86 116.345C455.86 113.931 455.41 111.862 454.511 110.13C453.611 108.406 452.472 106.937 451.092 105.73C449.713 104.523 448.206 103.541 446.587 102.776C444.968 102.019 443.431 101.427 441.976 101.014L430.072 97.3934C424.479 95.6692 420.251 93.3902 417.387 90.5564C414.523 87.7302 413.091 83.9293 413.091 79.1689C413.091 76.0653 413.646 73.179 414.748 70.5252C415.85 67.8713 417.402 65.5698 419.411 63.6357C421.413 61.7015 423.812 60.1872 426.608 59.0777C429.404 57.9757 432.456 57.4209 435.769 57.4209C438.183 57.4209 440.207 57.6308 441.826 58.0431C443.446 58.4554 444.848 58.9202 446.017 59.4375C447.187 59.9548 448.244 60.4196 449.173 60.8319C450.103 61.2442 451.055 61.4541 452.022 61.4541C452.922 61.4541 453.521 61.3342 453.836 61.0943C454.144 60.8544 454.578 60.2472 455.133 59.2801H456.58V78.0219H455.335C454.923 75.533 454.211 73.1415 453.214 70.825C452.209 68.5161 450.92 66.4769 449.331 64.7152C447.741 62.9535 445.83 61.5441 443.581 60.4721C441.339 59.4 438.73 58.8678 435.762 58.8678C434.105 58.8678 432.276 59.0927 430.274 59.5425C428.272 59.9923 426.406 60.7719 424.681 61.874C422.957 62.976 421.525 64.4303 420.386 66.2221C419.246 68.0213 418.676 70.2928 418.676 73.0591C418.676 75.2706 419.126 77.1523 420.026 78.7041C420.926 80.2559 422.08 81.5678 423.497 82.6399C424.914 83.7119 426.503 84.604 428.257 85.3312C430.019 86.0584 431.796 86.6956 433.587 87.2504C433.587 87.2504 443.011 90.1291 446.115 91.1861C454.593 94.0724 459.519 97.9932 462.21 104.403C464.586 110.055 464.002 120.168 456.782 127.17C454.488 129.397 451.745 131.211 448.498 132.553C445.252 133.902 441.594 134.57 437.523 134.57C436.076 134.57 434.794 134.555 433.692 134.517C432.59 134.48 431.548 134.397 430.589 134.255C429.622 134.112 428.655 133.962 427.688 133.79C426.72 133.618 425.648 133.355 424.479 133.01C423.1 132.598 421.615 132.111 420.026 131.563C418.437 131.009 417.057 130.731 415.888 130.731C414.853 130.731 414.141 130.941 413.766 131.354C413.384 131.766 413.054 132.321 412.784 133.01H411.232V110.745H411.217Z" fill="white"/>
<path d="M16.6578 63.2154C16.6578 63.2154 13.8241 52.0228 0.000102213 49.7588C0.000102213 49.7588 -0.674604 63.3803 16.6578 63.2154Z" fill="white"/>
<path d="M22.7152 47C22.7152 47 25.6914 54.7441 18.2622 59.7819C18.2622 59.7819 13.3518 52.69 22.7152 47Z" fill="white"/>
<path d="M510.519 112.124C510.519 112.124 513.533 113.601 516.419 111.344C517.214 114.92 520.475 115.7 520.475 115.7C520.475 115.7 522.806 113.293 521.554 109.852C525.205 110.205 526.944 107.341 526.944 107.341C526.944 107.341 525.377 104.38 521.719 104.507C523.181 101.148 520.992 98.5996 520.992 98.5996C520.992 98.5996 517.686 99.1769 516.681 102.693C513.937 100.264 510.841 101.553 510.841 101.553C510.841 101.553 510.369 104.874 513.405 106.921C510.249 108.78 510.519 112.124 510.519 112.124Z" fill="white"/>
<path d="M646 81.2227V81.6949C641.682 81.6949 639.523 83.1043 637.357 88.2696V88.1721L617.543 134.382H617.445V134.479C610.398 149.975 604.858 153.544 596.035 153.828C591.529 154.016 588.336 152.044 588.148 148.663C588.051 147.164 589.37 145.47 591.057 145.47C592.841 145.47 593.966 146.219 595.285 147.164C596.694 148.198 598.291 148.663 600.075 148.663C607.775 148.663 617.355 139.367 612.288 127.342L592.849 84.7011C591.912 82.9169 590.779 81.6949 588.156 81.6949V81.2227H603.936V81.6949C601.117 81.6949 601.117 83.1043 602.055 85.1734L619.994 124.149L635.49 88.2696C637.559 83.4792 636.15 81.6949 630.984 81.6949V81.2227H646.008H646Z" fill="white"/>
</g>
<defs>
<clipPath id="clip0_210_834">
<rect width="421" height="21" fill="white" transform="translate(112.5)"/>
</clipPath>
<clipPath id="clip1_210_834">
<rect width="646" height="106.836" fill="white" transform="translate(0 47)"/>
</clipPath>
</defs>
</svg>
