<svg xmlns="http://www.w3.org/2000/svg" width="395.537" height="514.399" viewBox="0 0 395.537 514.399">
  <g id="グループ_12180" data-name="グループ 12180" transform="translate(-9507.001 -320.035)" opacity="0.7">
    <path id="パス_21760" data-name="パス 21760" d="M310.319,627.458a5.267,5.267,0,0,1,.662-6.875,31.011,31.011,0,0,1,12.3-7.106,31.023,31.023,0,0,1-14.17.987,5.267,5.267,0,0,1-4.393-5.33,31.01,31.01,0,0,1,3.672-13.722,31.007,31.007,0,0,1-9.323,10.717,5.267,5.267,0,0,1-6.875-.661,31.019,31.019,0,0,1-7.106-12.3,31.011,31.011,0,0,1,.986,14.171,5.266,5.266,0,0,1-5.329,4.393,31.007,31.007,0,0,1-13.722-3.672,31.021,31.021,0,0,1,10.717,9.323,5.266,5.266,0,0,1-.662,6.874,31.019,31.019,0,0,1-12.3,7.106,31.009,31.009,0,0,1,14.17-.986,5.267,5.267,0,0,1,4.393,5.329,31.018,31.018,0,0,1-3.672,13.722,31.02,31.02,0,0,1,9.323-10.717,5.267,5.267,0,0,1,6.875.662,31.012,31.012,0,0,1,7.106,12.3,31.024,31.024,0,0,1-.986-14.171,5.266,5.266,0,0,1,5.329-4.393,31.024,31.024,0,0,1,13.722,3.672,31,31,0,0,1-10.717-9.323" transform="translate(10249.878 55.407) rotate(90)" fill="#ceffff" stroke="#88dfff" stroke-linecap="round" stroke-width="1"/>
    <path id="パス_21762" data-name="パス 21762" d="M1236.815,807.421a5.358,5.358,0,0,1-3.425-6.136,31.551,31.551,0,0,1,6.179-13.066,31.562,31.562,0,0,1-11.288,9.028,5.36,5.36,0,0,1-6.761-1.917,31.553,31.553,0,0,1-4.871-13.608,31.547,31.547,0,0,1-1.6,14.366,5.359,5.359,0,0,1-6.136,3.426,31.572,31.572,0,0,1-13.067-6.179,31.547,31.547,0,0,1,9.028,11.287,5.359,5.359,0,0,1-1.916,6.761,31.552,31.552,0,0,1-13.609,4.87,31.565,31.565,0,0,1,14.366,1.6,5.36,5.36,0,0,1,3.426,6.137,31.566,31.566,0,0,1-6.179,13.067,31.551,31.551,0,0,1,11.287-9.029,5.359,5.359,0,0,1,6.761,1.917,31.558,31.558,0,0,1,4.87,13.609,31.563,31.563,0,0,1,1.6-14.365,5.359,5.359,0,0,1,6.136-3.426,31.559,31.559,0,0,1,13.067,6.179,31.563,31.563,0,0,1-9.028-11.287,5.359,5.359,0,0,1,1.917-6.761,31.567,31.567,0,0,1,13.608-4.871,31.547,31.547,0,0,1-14.365-1.6" transform="translate(10350.611 -442.483) rotate(90)" fill="#ceffff" stroke="#88dfff" stroke-linecap="round" stroke-width="1"/>
    <path id="パス_21766" data-name="パス 21766" d="M1194.849,119.475l-3.58,6.2a2.271,2.271,0,0,0,.831,3.1l10.247,5.916a2.271,2.271,0,0,0,3.1-.832l3.58-6.2a2.271,2.271,0,0,0-.831-3.1l-10.248-5.916a2.271,2.271,0,0,0-3.1.831" transform="translate(9996.202 -439.406) rotate(90)" fill="#ceffff" stroke="#ffd4c7" stroke-width="1"/>
    <path id="パス_21768" data-name="パス 21768" d="M1147.623,81.481,1134.835,74.1a2.272,2.272,0,0,0-3.1.831l-3.581,6.2a2.272,2.272,0,0,0,.832,3.1l12.788,7.383a2.271,2.271,0,0,1,.831,3.1l-7.383,12.788a2.271,2.271,0,0,0,.831,3.1l6.2,3.581a2.271,2.271,0,0,0,3.1-.831l22.89-39.645a2.271,2.271,0,0,0-.831-3.1h0l-6.2-3.581a2.271,2.271,0,0,0-3.1.831l-7.384,12.788a2.271,2.271,0,0,1-3.1.831" transform="translate(9968.627 -405.686) rotate(90)" fill="#ceffff" stroke="#ffd4c7" stroke-width="1"/>
    <path id="パス_21778" data-name="パス 21778" d="M1294.245,373.086a3.42,3.42,0,1,1,3.205-6.042h0a12.681,12.681,0,1,0-6.177-7.487,3.422,3.422,0,0,1-6.543,2,19.521,19.521,0,1,1,9.513,11.524" transform="translate(10112.655 -489.041) rotate(90)" fill="#ceffff" stroke="#88dfff" stroke-miterlimit="3.999" stroke-width="1"/>
  </g>
</svg>
