<svg xmlns="http://www.w3.org/2000/svg" width="425.818" height="791.54" viewBox="0 0 425.818 791.54">
  <g id="グループ_12179" data-name="グループ 12179" transform="translate(-10062.26 -196.356)" opacity="0.7">
    <path id="パス_21748" data-name="パス 21748" d="M2.354,678.227a12.451,12.451,0,0,1,15.819-7.732l.023.008,85.05,29.309a12.466,12.466,0,0,1,4.115,21.194l-67.91,59a12.465,12.465,0,0,1-20.412-7.034L11.962,736.52A9.752,9.752,0,1,1,31.109,732.8l4.754,24.488,49.5-43.008-62-21.365,1.707,8.8a9.751,9.751,0,1,1-19.144,3.716L1.9,684.662a12.476,12.476,0,0,1,.456-6.432" transform="translate(10845.826 195.191) rotate(90)" fill="#ceffff" stroke="#ffd4c7" stroke-miterlimit="4.002" stroke-width="1"/>
    <path id="パス_21752" data-name="パス 21752" d="M588.71,5.458a6.74,6.74,0,0,1,8.564-4.186l.012,0,46.047,15.867a6.75,6.75,0,0,1,2.228,11.475L608.794,60.561a6.748,6.748,0,0,1-11.051-3.808l-3.831-19.735A5.28,5.28,0,0,1,604.278,35l2.574,13.258,26.8-23.284L600.086,13.409l.924,4.763a5.279,5.279,0,1,1-10.365,2.012L588.463,8.942a6.758,6.758,0,0,1,.247-3.482" transform="translate(10488.463 -118.235) rotate(90)" fill="#ceffff" stroke="#ffd4c7" stroke-miterlimit="4.002" stroke-width="1"/>
    <path id="パス_21754" data-name="パス 21754" d="M1601.279,154.176a9.042,9.042,0,0,1,7.884,10.067l0,.017L1601.2,229.1a9.053,9.053,0,0,1-14.432,6.127l-52.174-39.318a9.052,9.052,0,0,1,1.911-15.562l24.822-10.536a7.082,7.082,0,0,1,5.537,13.037l-16.675,7.079,38.032,28.66,5.8-47.267-5.99,2.542a7.081,7.081,0,1,1-5.534-13.036l14.14-6a9.062,9.062,0,0,1,4.637-.648" transform="translate(10570.312 -621.841) rotate(90)" fill="#ceffff" stroke="#88dfff" stroke-width="1"/>
    <path id="パス_21756" data-name="パス 21756" d="M1379.255,582.862a11.427,11.427,0,0,1,10.689-10.5A67.287,67.287,0,0,1,1420.3,577.7a67.306,67.306,0,0,1-24.927-18.126,11.429,11.429,0,0,1,.132-14.986,67.283,67.283,0,0,1,25.245-17.683,67.294,67.294,0,0,1-30.444,4.813,11.429,11.429,0,0,1-10.5-10.689,67.307,67.307,0,0,1,5.341-30.357,67.287,67.287,0,0,1-18.126,24.927,11.427,11.427,0,0,1-14.984-.131,67.265,67.265,0,0,1-17.684-25.245,67.321,67.321,0,0,1,4.813,30.444,11.429,11.429,0,0,1-10.689,10.5,67.3,67.3,0,0,1-30.358-5.342,67.29,67.29,0,0,1,24.928,18.126,11.427,11.427,0,0,1-.132,14.985,67.306,67.306,0,0,1-25.245,17.684,67.3,67.3,0,0,1,30.444-4.813,11.427,11.427,0,0,1,10.5,10.69,67.288,67.288,0,0,1-5.343,30.354,67.3,67.3,0,0,1,18.126-24.927,11.429,11.429,0,0,1,14.986.132,67.326,67.326,0,0,1,17.684,25.245,67.261,67.261,0,0,1-4.813-30.444" transform="translate(10749.88 -501.126) rotate(90)" fill="#ceffff" stroke="#ffd4c7" stroke-linecap="round" stroke-miterlimit="4.002" stroke-width="1"/>
    <path id="パス_21770" data-name="パス 21770" d="M183.938,70.911l13.881,7.073a4.943,4.943,0,0,0,6.647-2.159l11.692-22.946A4.943,4.943,0,0,0,214,46.232l-13.881-7.073a4.943,4.943,0,0,0-6.646,2.16l-11.689,22.94a4.942,4.942,0,0,0,2.159,6.646" transform="translate(10508.612 99.256) rotate(90)" fill="#ceffff" stroke="#88dfff" stroke-miterlimit="3.999" stroke-width="1"/>
    <path id="パス_21772" data-name="パス 21772" d="M103.307,122.508,88.72,151.135a4.943,4.943,0,0,0,2.157,6.646l13.884,7.074a4.943,4.943,0,0,0,6.647-2.161l14.587-28.627a4.942,4.942,0,0,1,6.646-2.16L161.268,146.5a4.942,4.942,0,0,0,6.646-2.159l7.073-13.882a4.941,4.941,0,0,0-2.159-6.646L84.079,78.586a4.942,4.942,0,0,0-6.646,2.16L70.358,94.629a4.942,4.942,0,0,0,2.159,6.646l28.628,14.587a4.942,4.942,0,0,1,2.159,6.646" transform="translate(10529.676 158.784) rotate(90)" fill="#ceffff" stroke="#88dfff" stroke-miterlimit="3.999" stroke-width="1"/>
    <path id="パス_21780" data-name="パス 21780" d="M481.187,783.383a4.843,4.843,0,1,1-.4,9.677l-.1-.005a17.958,17.958,0,1,0,12.406,5.917,4.843,4.843,0,0,1,7.2-6.481,27.643,27.643,0,1,1-19.1-9.108" transform="translate(10906.479 -45.447) rotate(90)" fill="#ceffff" stroke="#88dfff" stroke-width="1"/>
  </g>
</svg>
