<svg xmlns="http://www.w3.org/2000/svg" width="2009.248" height="1036.032" viewBox="0 0 2009.248 1036.032">
  <g id="グループ_6313" data-name="グループ 6313" transform="translate(1380.627 1377.004)">
    <path id="パス_21748" data-name="パス 21748" d="M3.4,691.171A31.613,31.613,0,0,1,43.57,671.538l.058.02,215.95,74.418a31.652,31.652,0,0,1,10.448,53.815L97.6,949.6a31.648,31.648,0,0,1-51.828-17.861L27.8,839.182a24.762,24.762,0,1,1,48.614-9.447l12.071,62.176,125.689-109.2L56.756,728.462,61.09,750.8a24.758,24.758,0,1,1-48.609,9.436L2.245,707.511A31.678,31.678,0,0,1,3.4,691.181" transform="translate(-1381.281 -1299.34)" fill="#ceffff" stroke="#ffd4c7" stroke-miterlimit="4.002" stroke-width="2"/>
    <path id="パス_21754" data-name="パス 21754" d="M1709.464,154.281a22.958,22.958,0,0,1,20.018,25.562l-.006.044-20.215,164.64a22.986,22.986,0,0,1-36.645,15.557l-132.474-99.832a22.984,22.984,0,0,1,4.852-39.514l63.026-26.752a17.982,17.982,0,0,1,14.059,33.1l-42.339,17.973,96.566,72.769,14.735-120.015-15.21,6.455a17.98,17.98,0,1,1-14.05-33.1l35.9-15.241a23.01,23.01,0,0,1,11.774-1.646" transform="translate(-1102.049 -1393.501)" fill="#ceffff" stroke="#88dfff" stroke-width="2"/>
    <path id="パス_21756" data-name="パス 21756" d="M1504.832,725.439a29.014,29.014,0,0,1,27.139-26.666,170.845,170.845,0,0,1,77.073,13.567,170.9,170.9,0,0,1-63.293-46.024,29.02,29.02,0,0,1,.336-38.051,170.835,170.835,0,0,1,64.1-44.9,170.867,170.867,0,0,1-77.3,12.22,29.019,29.019,0,0,1-26.67-27.141,170.894,170.894,0,0,1,13.562-77.08,170.847,170.847,0,0,1-46.024,63.293,29.014,29.014,0,0,1-38.046-.333,170.791,170.791,0,0,1-44.9-64.1,170.938,170.938,0,0,1,12.22,77.3,29.018,29.018,0,0,1-27.14,26.67,170.885,170.885,0,0,1-77.082-13.563,170.847,170.847,0,0,1,63.293,46.024,29.014,29.014,0,0,1-.335,38.047,170.894,170.894,0,0,1-64.1,44.9,170.884,170.884,0,0,1,77.3-12.221,29.015,29.015,0,0,1,26.673,27.143,170.848,170.848,0,0,1-13.567,77.073,170.893,170.893,0,0,1,46.024-63.293,29.018,29.018,0,0,1,38.05.335,170.945,170.945,0,0,1,44.9,64.1,170.784,170.784,0,0,1-12.22-77.3" transform="translate(-1154.651 -1332.131)" fill="#ceffff" stroke="#ffd4c7" stroke-linecap="round" stroke-miterlimit="4.002" stroke-width="2"/>
    <path id="パス_21770" data-name="パス 21770" d="M188.087,120.609l35.245,17.959a12.551,12.551,0,0,0,16.878-5.481L269.9,74.825a12.55,12.55,0,0,0-5.486-16.877L229.165,39.989a12.549,12.549,0,0,0-16.876,5.484l-29.678,58.246a12.549,12.549,0,0,0,5.482,16.876" transform="translate(-1348.494 -1414.588)" fill="#ceffff" stroke="#88dfff" stroke-miterlimit="3.999" stroke-width="2"/>
    <path id="パス_21772" data-name="パス 21772" d="M154.847,190.937,117.81,263.624a12.55,12.55,0,0,0,5.477,16.876l35.253,17.962a12.55,12.55,0,0,0,16.877-5.486l37.037-72.686a12.547,12.547,0,0,1,16.876-5.484l72.686,37.037a12.549,12.549,0,0,0,16.875-5.482l17.96-35.248a12.547,12.547,0,0,0-5.482-16.875L106.026,79.417A12.547,12.547,0,0,0,89.151,84.9L71.188,120.152a12.549,12.549,0,0,0,5.482,16.875l72.688,37.037a12.548,12.548,0,0,1,5.482,16.876" transform="translate(-1368.839 -1407.389)" fill="#ceffff" stroke="#88dfff" stroke-miterlimit="3.999" stroke-width="2"/>
  </g>
</svg>
