<svg xmlns="http://www.w3.org/2000/svg" width="1513.076" height="1081.542" viewBox="0 0 1513.076 1081.542">
  <g id="グループ_6314" data-name="グループ 6314" transform="translate(1276.085 1421.619)">
    <path id="パス_21752" data-name="パス 21752" d="M589.279,12.466A17.114,17.114,0,0,1,611.024,1.837l.031.012L727.971,42.137a17.138,17.138,0,0,1,5.656,29.137l-93.353,81.1a17.134,17.134,0,0,1-28.059-9.669L602.487,92.6a13.406,13.406,0,0,1,26.32-5.116l6.535,33.662L703.39,62.026,618.164,32.655l2.346,12.094a13.4,13.4,0,1,1-26.317,5.108l-5.542-28.545a17.161,17.161,0,0,1,.627-8.84" transform="translate(-1274.163 -1421.474)" fill="#ceffff" stroke="#ffd4c7" stroke-miterlimit="4.002" stroke-width="2"/>
    <path id="パス_21760" data-name="パス 21760" d="M380.413,680.232a13.373,13.373,0,0,1,1.682-17.455,78.739,78.739,0,0,1,31.229-18.043,78.769,78.769,0,0,1-35.979,2.5,13.373,13.373,0,0,1-11.155-13.532,78.738,78.738,0,0,1,9.322-34.841,78.731,78.731,0,0,1-23.671,27.212,13.374,13.374,0,0,1-17.457-1.679,78.759,78.759,0,0,1-18.043-31.23,78.739,78.739,0,0,1,2.5,35.98,13.371,13.371,0,0,1-13.53,11.154,78.726,78.726,0,0,1-34.841-9.323,78.764,78.764,0,0,1,27.212,23.672A13.372,13.372,0,0,1,296,672.107a78.763,78.763,0,0,1-31.229,18.043,78.733,78.733,0,0,1,35.979-2.5,13.372,13.372,0,0,1,11.155,13.53,78.757,78.757,0,0,1-9.325,34.841,78.763,78.763,0,0,1,23.672-27.211,13.373,13.373,0,0,1,17.455,1.682,78.74,78.74,0,0,1,18.043,31.229,78.771,78.771,0,0,1-2.5-35.98,13.371,13.371,0,0,1,13.531-11.154,78.773,78.773,0,0,1,34.841,9.322,78.717,78.717,0,0,1-27.211-23.672" transform="translate(-1333.242 -1313.335)" fill="#ceffff" stroke="#88dfff" stroke-linecap="round" stroke-width="2"/>
    <path id="パス_21762" data-name="パス 21762" d="M1309.865,846.975a13.606,13.606,0,0,1-8.7-15.581,80.115,80.115,0,0,1,15.688-33.176,80.141,80.141,0,0,1-28.66,22.923,13.608,13.608,0,0,1-17.168-4.866,80.11,80.11,0,0,1-12.368-34.553A80.1,80.1,0,0,1,1254.6,818.2a13.607,13.607,0,0,1-15.581,8.7,80.159,80.159,0,0,1-33.177-15.688,80.1,80.1,0,0,1,22.923,28.659,13.606,13.606,0,0,1-4.865,17.168,80.106,80.106,0,0,1-34.554,12.366,80.153,80.153,0,0,1,36.476,4.055,13.608,13.608,0,0,1,8.7,15.582,80.144,80.144,0,0,1-15.688,33.177A80.116,80.116,0,0,1,1247.5,899.29a13.608,13.608,0,0,1,17.168,4.866,80.122,80.122,0,0,1,12.366,34.554,80.134,80.134,0,0,1,4.057-36.474,13.606,13.606,0,0,1,15.579-8.7,80.123,80.123,0,0,1,33.177,15.689,80.141,80.141,0,0,1-22.923-28.66,13.606,13.606,0,0,1,4.866-17.168,80.146,80.146,0,0,1,34.553-12.367,80.1,80.1,0,0,1-36.474-4.057" transform="translate(-1174.427 -1278.908)" fill="#ceffff" stroke="#88dfff" stroke-linecap="round" stroke-width="2"/>
    <path id="パス_21766" data-name="パス 21766" d="M1200.828,121.223l-9.089,15.744a5.767,5.767,0,0,0,2.11,7.877l26.018,15.022a5.767,5.767,0,0,0,7.877-2.112l9.089-15.744a5.767,5.767,0,0,0-2.11-7.876L1208.7,119.112a5.767,5.767,0,0,0-7.876,2.111" transform="translate(-1164.132 -1400.032)" fill="#ceffff" stroke="#ffd4c7" stroke-width="2"/>
    <path id="パス_21768" data-name="パス 21768" d="M1178.06,104.192,1145.59,85.445a5.769,5.769,0,0,0-7.878,2.11l-9.093,15.749a5.768,5.768,0,0,0,2.112,7.877l32.47,18.746a5.766,5.766,0,0,1,2.111,7.875l-18.746,32.47a5.767,5.767,0,0,0,2.11,7.876l15.749,9.093a5.767,5.767,0,0,0,7.876-2.11l58.118-100.663a5.766,5.766,0,0,0-2.111-7.876l0,0L1212.556,67.5a5.766,5.766,0,0,0-7.876,2.111l-18.748,32.47a5.767,5.767,0,0,1-7.876,2.11" transform="translate(-1175.657 -1409.457)" fill="#ceffff" stroke="#ffd4c7" stroke-width="2"/>
    <path id="パス_21778" data-name="パス 21778" d="M1310.212,429.679a8.683,8.683,0,1,1,8.138-15.341l.007,0a32.2,32.2,0,1,0-15.685-19.011,8.688,8.688,0,0,1-16.614,5.087,49.567,49.567,0,1,1,24.153,29.261" transform="translate(-1147.169 -1360.233)" fill="#ceffff" stroke="#88dfff" stroke-miterlimit="3.999" stroke-width="2"/>
    <path id="パス_21780" data-name="パス 21780" d="M525.96,783.441a12.3,12.3,0,1,1-1.024,24.571l-.263-.013a45.6,45.6,0,1,0,31.5,15.025,12.3,12.3,0,0,1,18.272-16.456,70.188,70.188,0,1,1-48.485-23.127" transform="translate(-1299.04 -1278.611)" fill="#ceffff" stroke="#88dfff" stroke-width="2"/>
    <path id="パス_21782" data-name="パス 21782" d="M168.467,553.359a6.148,6.148,0,1,1,12.287.472c0,.044,0,.087-.006.131a22.8,22.8,0,1,0,7.461-15.775,6.148,6.148,0,0,1-8.258-9.108,35.093,35.093,0,1,1-11.484,24.28" transform="translate(-1443.502 -1348.697)" fill="#ceffff" stroke="#ffd4c7" stroke-linecap="round" stroke-width="2"/>
  </g>
</svg>
