<svg xmlns="http://www.w3.org/2000/svg" width="213.502" height="431.116" viewBox="0 0 213.502 431.116">
  <g id="グループ_12181" data-name="グループ 12181" transform="translate(-9591.768 -1338.505)" opacity="0.7">
    <path id="パス_21750" data-name="パス 21750" d="M973.534,326.412a3.4,3.4,0,0,1,3.749,3.01v.007l2.646,24.421a3.4,3.4,0,0,1-4.759,3.481L952.7,347.41a3.4,3.4,0,0,1-.635-5.861l8.184-5.986a2.663,2.663,0,1,1,3.145,4.3l-5.5,4.021,16.381,7.231-1.929-17.8-1.975,1.444a2.662,2.662,0,1,1-3.143-4.3l4.662-3.41a3.4,3.4,0,0,1,1.642-.635" transform="translate(10107.354 789.168) rotate(90)" fill="#ceffff" stroke="#ffd4c7" stroke-linecap="round" stroke-width="1"/>
    <path id="パス_21758" data-name="パス 21758" d="M614.9,300.59a4,4,0,0,1,.5-5.227,23.58,23.58,0,0,1,9.352-5.4,23.584,23.584,0,0,1-10.775.75,4,4,0,0,1-3.34-4.053,23.582,23.582,0,0,1,2.792-10.433,23.576,23.576,0,0,1-7.089,8.149,4,4,0,0,1-5.227-.5,23.583,23.583,0,0,1-5.4-9.352,23.572,23.572,0,0,1,.75,10.775,4,4,0,0,1-4.052,3.34,23.575,23.575,0,0,1-10.434-2.792,23.59,23.59,0,0,1,8.149,7.088,4.005,4.005,0,0,1-.5,5.228,23.589,23.589,0,0,1-9.352,5.4,23.578,23.578,0,0,1,10.775-.75,4.005,4.005,0,0,1,3.34,4.052,23.59,23.59,0,0,1-2.792,10.434,23.577,23.577,0,0,1,7.089-8.149,4,4,0,0,1,5.227.5,23.579,23.579,0,0,1,5.4,9.352,23.586,23.586,0,0,1-.75-10.775,4,4,0,0,1,4.052-3.34,23.594,23.594,0,0,1,10.434,2.792,23.573,23.573,0,0,1-8.149-7.089" transform="translate(10079.64 987.052) rotate(90)" fill="#ceffff" stroke="#88dfff" stroke-linecap="round" stroke-width="1"/>
    <path id="パス_21764" data-name="パス 21764" d="M868.493,688.434a2.551,2.551,0,0,1,1.279-3.088,15.016,15.016,0,0,1,6.7-1.551,15.028,15.028,0,0,1-6.7-1.55,2.551,2.551,0,0,1-1.28-3.091,15.022,15.022,0,0,1,3.643-5.835,15.016,15.016,0,0,1-5.835,3.644,2.551,2.551,0,0,1-3.087-1.279,15.02,15.02,0,0,1-1.552-6.7,15.015,15.015,0,0,1-1.55,6.7,2.55,2.55,0,0,1-3.091,1.28,15.014,15.014,0,0,1-5.833-3.643,15.028,15.028,0,0,1,3.644,5.835,2.551,2.551,0,0,1-1.28,3.091,15.023,15.023,0,0,1-6.7,1.549,15.015,15.015,0,0,1,6.7,1.551,2.551,2.551,0,0,1,1.28,3.091,15.024,15.024,0,0,1-3.644,5.835,15.023,15.023,0,0,1,5.835-3.644,2.551,2.551,0,0,1,3.091,1.28,15.014,15.014,0,0,1,1.55,6.7,15.019,15.019,0,0,1,1.55-6.706,2.551,2.551,0,0,1,3.091-1.28,15.024,15.024,0,0,1,5.835,3.644,15.009,15.009,0,0,1-3.643-5.835" transform="translate(10290.381 844.633) rotate(90)" fill="#ceffff" stroke="#ffd4c7" stroke-linecap="round" stroke-width="1"/>
    <path id="パス_21774" data-name="パス 21774" d="M753.51,632.011l1.262-4.4a1.453,1.453,0,0,0-1-1.8l-7.276-2.087a1.453,1.453,0,0,0-1.8,1l-1.262,4.4a1.453,1.453,0,0,0,1,1.8l7.276,2.086a1.453,1.453,0,0,0,1.8-1" transform="translate(10266.173 899.909) rotate(90)" fill="#ceffff" stroke="#88dfff" stroke-width="1"/>
    <path id="パス_21776" data-name="パス 21776" d="M773.218,626.675l9.08,2.6a1.453,1.453,0,0,0,1.8-1l1.263-4.4a1.453,1.453,0,0,0-1-1.8l-9.079-2.6a1.453,1.453,0,0,1-1-1.8l2.6-9.08a1.454,1.454,0,0,0-1-1.8l-4.4-1.262a1.452,1.452,0,0,0-1.8,1l-8.072,28.148a1.453,1.453,0,0,0,1,1.8l4.4,1.262a1.453,1.453,0,0,0,1.8-1l2.6-9.08a1.453,1.453,0,0,1,1.8-1" transform="translate(10256.459 890.196) rotate(90)" fill="#ceffff" stroke="#88dfff" stroke-width="1"/>
    <path id="パス_21782" data-name="パス 21782" d="M168.441,533.131a2.421,2.421,0,1,1,4.839.186c0,.017,0,.034,0,.052a8.979,8.979,0,1,0,2.938-6.213,2.421,2.421,0,0,1-3.252-3.587,13.821,13.821,0,1,1-4.523,9.562" transform="translate(10219.445 1170.583) rotate(90)" fill="#ceffff" stroke="#ffd4c7" stroke-linecap="round" stroke-width="1"/>
  </g>
</svg>
