<svg xmlns="http://www.w3.org/2000/svg" width="513.679" height="542.019" viewBox="0 0 513.679 542.019">
  <g id="グループ_6315" data-name="グループ 6315" transform="translate(695.663 1097.294)">
    <path id="パス_21750" data-name="パス 21750" d="M1008.726,326.444a8.631,8.631,0,0,1,9.52,7.642l0,.017,6.718,62.008a8.643,8.643,0,0,1-12.082,8.837l-57.06-25.188a8.642,8.642,0,0,1-1.612-14.882l20.779-15.2a6.761,6.761,0,1,1,7.986,10.913L969.018,370.8l41.593,18.36-4.9-45.2-5.015,3.667a6.76,6.76,0,1,1-7.981-10.913l11.837-8.659a8.637,8.637,0,0,1,4.17-1.612" transform="translate(-1208.007 -1362.045)" fill="#ceffff" stroke="#ffd4c7" stroke-linecap="round" stroke-width="2" opacity="0.5"/>
    <path id="パス_21758" data-name="パス 21758" d="M668.2,340.718a10.169,10.169,0,0,1,1.278-13.272,59.871,59.871,0,0,1,23.745-13.719,59.883,59.883,0,0,1-27.358,1.9,10.168,10.168,0,0,1-8.482-10.29,59.877,59.877,0,0,1,7.088-26.491,59.868,59.868,0,0,1-18,20.692,10.168,10.168,0,0,1-13.272-1.278,59.881,59.881,0,0,1-13.72-23.745,59.851,59.851,0,0,1,1.9,27.358,10.168,10.168,0,0,1-10.287,8.482,59.859,59.859,0,0,1-26.492-7.09,59.9,59.9,0,0,1,20.692,18,10.17,10.17,0,0,1-1.278,13.273,59.9,59.9,0,0,1-23.745,13.72,59.868,59.868,0,0,1,27.358-1.905,10.17,10.17,0,0,1,8.481,10.289,59.9,59.9,0,0,1-7.09,26.492,59.863,59.863,0,0,1,18-20.691,10.169,10.169,0,0,1,13.272,1.278,59.871,59.871,0,0,1,13.719,23.745,59.884,59.884,0,0,1-1.9-27.358,10.168,10.168,0,0,1,10.289-8.482,59.909,59.909,0,0,1,26.492,7.088,59.854,59.854,0,0,1-20.691-18" transform="translate(-1275.637 -1371.516)" fill="#ceffff" stroke="#88dfff" stroke-linecap="round" stroke-width="2" opacity="0.5"/>
    <path id="パス_21764" data-name="パス 21764" d="M901.8,718.373a6.477,6.477,0,0,1,3.249-7.839,38.127,38.127,0,0,1,17.017-3.939,38.157,38.157,0,0,1-17.016-3.936,6.478,6.478,0,0,1-3.25-7.849,38.142,38.142,0,0,1,9.25-14.815,38.124,38.124,0,0,1-14.815,9.251A6.477,6.477,0,0,1,888.4,686a38.139,38.139,0,0,1-3.94-17.016A38.122,38.122,0,0,1,880.524,686a6.475,6.475,0,0,1-7.849,3.25A38.125,38.125,0,0,1,857.865,680a38.159,38.159,0,0,1,9.251,14.815,6.477,6.477,0,0,1-3.251,7.849,38.149,38.149,0,0,1-17.016,3.932,38.123,38.123,0,0,1,17.016,3.939,6.477,6.477,0,0,1,3.251,7.849,38.146,38.146,0,0,1-9.251,14.815,38.145,38.145,0,0,1,14.815-9.251,6.477,6.477,0,0,1,7.849,3.251,38.124,38.124,0,0,1,3.936,17.016,38.132,38.132,0,0,1,3.936-17.027,6.478,6.478,0,0,1,7.849-3.251,38.146,38.146,0,0,1,14.816,9.251,38.113,38.113,0,0,1-9.25-14.815" transform="translate(-1226.963 -1299.493)" fill="#ceffff" stroke="#ffd4c7" stroke-linecap="round" stroke-width="2" opacity="0.5"/>
    <path id="パス_21774" data-name="パス 21774" d="M769.094,644.85l3.2-11.178a3.688,3.688,0,0,0-2.528-4.562l-18.474-5.3a3.69,3.69,0,0,0-4.564,2.53l-3.2,11.178a3.69,3.69,0,0,0,2.53,4.563l18.474,5.3a3.689,3.689,0,0,0,4.562-2.528" transform="translate(-1245.855 -1307.766)" fill="#ceffff" stroke="#88dfff" stroke-width="2" opacity="0.5"/>
    <path id="パス_21776" data-name="パス 21776" d="M791.152,659.284l23.055,6.611a3.688,3.688,0,0,0,4.562-2.528l3.206-11.179a3.69,3.69,0,0,0-2.531-4.562l-23.053-6.611a3.688,3.688,0,0,1-2.53-4.561l6.612-23.056a3.691,3.691,0,0,0-2.53-4.561l-11.178-3.2a3.688,3.688,0,0,0-4.562,2.528l-20.494,71.47a3.69,3.69,0,0,0,2.53,4.562l11.178,3.2a3.69,3.69,0,0,0,4.562-2.528l6.611-23.056a3.69,3.69,0,0,1,4.562-2.528" transform="translate(-1242.535 -1311.086)" fill="#ceffff" stroke="#88dfff" stroke-width="2" opacity="0.5"/>
  </g>
</svg>
