<svg width="267" height="292" viewBox="0 0 267 292" fill="none" xmlns="http://www.w3.org/2000/svg">
<g clip-path="url(#clip0_23_3999)">
<path d="M36.7226 167.092C36.7226 119.197 75.5737 80.3539 123.477 80.3539C123.531 80.3539 123.585 80.3539 123.639 80.3539C130.509 80.3539 135.925 74.8587 135.763 67.9897C135.682 64.5148 136.033 60.9321 136.922 57.2686C140.909 40.7561 154.892 28.0686 171.731 25.8598C175.934 25.321 180.057 25.4018 183.963 26.0483C199.132 28.5266 214.543 24.4052 227.395 16.0007C239.222 8.26974 252.613 2.7476 267 0H0V292C0 260.591 9.78012 231.445 26.4845 207.471C33.8936 196.804 37.4231 184.116 36.8304 171.132C36.7765 169.786 36.7226 168.412 36.7226 167.038V167.092Z" fill="url(#paint0_linear_23_3999)"/>
</g>
<defs>
<linearGradient id="paint0_linear_23_3999" x1="133.5" y1="0" x2="133.5" y2="292" gradientUnits="userSpaceOnUse">
<stop stop-color="white"/>
<stop offset="1" stop-color="#FFEF78"/>
</linearGradient>
<clipPath id="clip0_23_3999">
<rect width="267" height="292" fill="white"/>
</clipPath>
</defs>
</svg>
