<svg width="292" height="267" viewBox="0 0 292 267" fill="none" xmlns="http://www.w3.org/2000/svg">
<g clip-path="url(#clip0_32_3)">
<path d="M167.092 230.277C119.197 230.277 80.3539 191.426 80.3539 143.523C80.3539 143.469 80.3539 143.415 80.3539 143.361C80.3539 136.491 74.8587 131.075 67.9897 131.237C64.5148 131.318 60.9321 130.967 57.2686 130.078C40.7561 126.091 28.0686 112.108 25.8598 95.2686C25.321 91.0656 25.4018 86.9434 26.0483 83.0368C28.5266 67.8681 24.4052 52.457 16.0007 39.6055C8.26974 27.7777 2.7476 14.3873 0 1.27637e-05L1.16709e-05 267L292 267C260.591 267 231.445 257.22 207.471 240.516C196.804 233.106 184.116 229.577 171.132 230.17C169.786 230.224 168.412 230.277 167.038 230.277L167.092 230.277Z" fill="url(#paint0_linear_32_3)"/>
</g>
<defs>
<linearGradient id="paint0_linear_32_3" x1="5.83547e-06" y1="133.5" x2="292" y2="133.5" gradientUnits="userSpaceOnUse">
<stop stop-color="white"/>
<stop offset="1" stop-color="#FFEF78"/>
</linearGradient>
<clipPath id="clip0_32_3">
<rect width="267" height="292" fill="white" transform="translate(1.16709e-05 267) rotate(-90)"/>
</clipPath>
</defs>
</svg>
