<svg xmlns="http://www.w3.org/2000/svg" width="41" height="44" viewBox="0 0 41 44">
  <g transform="translate(-0.394 0.227)">
    <path id="多角形_2" data-name="多角形 2" d="M17.645,7.72a5,5,0,0,1,8.71,0L39.794,31.543A5,5,0,0,1,35.439,39H8.561a5,5,0,0,1-4.355-7.457Z" transform="translate(0.394 43.773) rotate(-90)" fill="#1eaab1"/>
    <path id="多角形_2_-_アウトライン" data-name="多角形 2 - アウトライン" d="M22,5.177A4.952,4.952,0,0,0,17.645,7.72L4.206,31.543A5,5,0,0,0,8.561,39H35.439a5,5,0,0,0,4.355-7.457L26.355,7.72A4.952,4.952,0,0,0,22,5.177m0-2a6.951,6.951,0,0,1,6.1,3.561L41.536,30.561A7,7,0,0,1,35.439,41H8.561a7,7,0,0,1-6.1-10.439L15.9,6.737A6.951,6.951,0,0,1,22,3.177Z" transform="translate(0.394 43.773) rotate(-90)" fill="#fff"/>
  </g>
</svg>
