<svg xmlns="http://www.w3.org/2000/svg" width="40" height="44" viewBox="0 0 40 44">
  <g transform="translate(-255.394 0.227)">
    <path id="多角形_3" data-name="多角形 3" d="M17.673,7.474a5,5,0,0,1,8.654,0L39.655,30.495A5,5,0,0,1,35.328,38H8.672a5,5,0,0,1-4.327-7.505Z" transform="translate(295.394 -0.227) rotate(90)" fill="#1eaab1"/>
    <path id="多角形_3_-_アウトライン" data-name="多角形 3 - アウトライン" d="M22,4.979a4.953,4.953,0,0,0-4.327,2.495L4.345,30.495A5,5,0,0,0,8.672,38H35.328a5,5,0,0,0,4.327-7.505L26.327,7.474A4.953,4.953,0,0,0,22,4.979m0-2a6.93,6.93,0,0,1,6.058,3.493L41.386,29.493A7,7,0,0,1,35.328,40H8.672A7,7,0,0,1,2.614,29.493L15.942,6.472A6.93,6.93,0,0,1,22,2.979Z" transform="translate(295.394 -0.227) rotate(90)" fill="#fff"/>
  </g>
</svg>
