<svg xmlns="http://www.w3.org/2000/svg" width="622.694" height="49.408" viewBox="0 0 622.694 49.408"><g transform="translate(-1181.483 -1361.203)"><path d="M3.276-29.4V0h5V-29.4Zm41.412,0V-9.66L23.226-30.87V0H28.1V-19.74L49.56,1.47V-29.4ZM61.53-24.864l7.728.042V0h5V-24.864l7.77.042V-29.4H61.53Zm38.556,10.836L109.452,0h5.964l-9.954-14.028ZM94.038-29.4V0h4.956V-29.4Zm2.94,4.284H102.9a7.03,7.03,0,0,1,2.961.588,4.622,4.622,0,0,1,2,1.68,4.809,4.809,0,0,1,.714,2.688,4.834,4.834,0,0,1-.714,2.667,4.573,4.573,0,0,1-2,1.7,7.03,7.03,0,0,1-2.961.588H96.978v4.074h6.132a12.78,12.78,0,0,0,5.565-1.134,8.634,8.634,0,0,0,3.675-3.192,8.841,8.841,0,0,0,1.3-4.83,8.736,8.736,0,0,0-1.3-4.809,8.685,8.685,0,0,0-3.675-3.171A12.78,12.78,0,0,0,103.11-29.4H96.978ZM131-14.7a11.179,11.179,0,0,1,1.281-5.4,9.448,9.448,0,0,1,3.549-3.717,9.939,9.939,0,0,1,5.166-1.344,9.991,9.991,0,0,1,5.229,1.344A9.347,9.347,0,0,1,149.73-20.1a11.33,11.33,0,0,1,1.26,5.4,11.179,11.179,0,0,1-1.281,5.4,9.495,9.495,0,0,1-3.528,3.717,9.909,9.909,0,0,1-5.187,1.344,9.939,9.939,0,0,1-5.166-1.344A9.448,9.448,0,0,1,132.279-9.3,11.179,11.179,0,0,1,131-14.7Zm-5.25,0a16.141,16.141,0,0,0,1.134,6.09,14.6,14.6,0,0,0,3.171,4.872A14.468,14.468,0,0,0,134.9-.525,15.883,15.883,0,0,0,140.994.63,15.837,15.837,0,0,0,147.1-.525a14.753,14.753,0,0,0,4.851-3.213,14.435,14.435,0,0,0,3.192-4.872,16.141,16.141,0,0,0,1.134-6.09,15.936,15.936,0,0,0-1.134-6.09,14.155,14.155,0,0,0-3.213-4.809,14.937,14.937,0,0,0-4.851-3.171,15.935,15.935,0,0,0-6.09-1.134,15.868,15.868,0,0,0-6.027,1.134,14.882,14.882,0,0,0-4.872,3.171,14.155,14.155,0,0,0-3.213,4.809A15.935,15.935,0,0,0,125.748-14.7Zm43.764-14.7V0h5.04V-29.4ZM179,0a16.437,16.437,0,0,0,7.9-1.827,13.276,13.276,0,0,0,5.313-5.124,15.181,15.181,0,0,0,1.911-7.749,15.181,15.181,0,0,0-1.911-7.749,13.276,13.276,0,0,0-5.313-5.124A16.437,16.437,0,0,0,179-29.4h-6.426v4.662h6.3a12.423,12.423,0,0,1,4.032.63,8.915,8.915,0,0,1,3.213,1.89,8.732,8.732,0,0,1,2.142,3.15,11.42,11.42,0,0,1,.777,4.368,11.42,11.42,0,0,1-.777,4.368,8.732,8.732,0,0,1-2.142,3.15,8.915,8.915,0,0,1-3.213,1.89,12.423,12.423,0,0,1-4.032.63h-6.3V0Zm28.14-29.4V-9.66a11.743,11.743,0,0,0,.756,4.347,8.777,8.777,0,0,0,2.2,3.255A9.941,9.941,0,0,0,213.528,0a12.633,12.633,0,0,0,4.326.714A12.633,12.633,0,0,0,222.18,0a9.72,9.72,0,0,0,3.4-2.058,9.124,9.124,0,0,0,2.205-3.255,11.46,11.46,0,0,0,.777-4.347V-29.4h-4.956V-9.87a6.374,6.374,0,0,1-1.47,4.389,5.422,5.422,0,0,1-4.284,1.659,5.41,5.41,0,0,1-4.305-1.659A6.433,6.433,0,0,1,212.1-9.87V-29.4ZM246.96-14.7a10.4,10.4,0,0,1,1.407-5.481,9.936,9.936,0,0,1,3.7-3.612,10.022,10.022,0,0,1,4.977-1.281,12.2,12.2,0,0,1,3.78.546,11.627,11.627,0,0,1,3.045,1.491,12.4,12.4,0,0,1,2.373,2.121V-26.8a13.983,13.983,0,0,0-3.99-2.31,15.55,15.55,0,0,0-5.376-.8,16.406,16.406,0,0,0-6.027,1.092,13.969,13.969,0,0,0-4.851,3.15,14.753,14.753,0,0,0-3.213,4.851,15.837,15.837,0,0,0-1.155,6.111,15.837,15.837,0,0,0,1.155,6.111,14.753,14.753,0,0,0,3.213,4.851,13.969,13.969,0,0,0,4.851,3.15A16.406,16.406,0,0,0,256.872.5a15.55,15.55,0,0,0,5.376-.8,13.983,13.983,0,0,0,3.99-2.31v-5.88a12.4,12.4,0,0,1-2.373,2.121,11.627,11.627,0,0,1-3.045,1.491,12.2,12.2,0,0,1-3.78.546,10.022,10.022,0,0,1-4.977-1.281,9.888,9.888,0,0,1-3.7-3.633A10.43,10.43,0,0,1,246.96-14.7Zm29.568-10.164,7.728.042V0h5V-24.864l7.77.042V-29.4h-20.5ZM309.036-29.4V0h5V-29.4Zm23.52,14.7a11.179,11.179,0,0,1,1.281-5.4,9.448,9.448,0,0,1,3.549-3.717,9.939,9.939,0,0,1,5.166-1.344,9.991,9.991,0,0,1,5.229,1.344,9.347,9.347,0,0,1,3.507,3.717,11.33,11.33,0,0,1,1.26,5.4,11.179,11.179,0,0,1-1.281,5.4,9.495,9.495,0,0,1-3.528,3.717,9.909,9.909,0,0,1-5.187,1.344,9.939,9.939,0,0,1-5.166-1.344A9.448,9.448,0,0,1,333.837-9.3,11.179,11.179,0,0,1,332.556-14.7Zm-5.25,0a16.141,16.141,0,0,0,1.134,6.09,14.6,14.6,0,0,0,3.171,4.872,14.468,14.468,0,0,0,4.851,3.213A15.883,15.883,0,0,0,342.552.63a15.837,15.837,0,0,0,6.111-1.155,14.753,14.753,0,0,0,4.851-3.213,14.435,14.435,0,0,0,3.192-4.872,16.141,16.141,0,0,0,1.134-6.09,15.935,15.935,0,0,0-1.134-6.09,14.155,14.155,0,0,0-3.213-4.809,14.937,14.937,0,0,0-4.851-3.171,15.935,15.935,0,0,0-6.09-1.134,15.868,15.868,0,0,0-6.027,1.134,14.882,14.882,0,0,0-4.872,3.171,14.155,14.155,0,0,0-3.213,4.809A15.935,15.935,0,0,0,327.306-14.7Zm65.226-14.7V-9.66L371.07-30.87V0h4.872V-19.74L397.4,1.47V-29.4Z" transform="translate(1188.154 1392.073)" fill="#1d85f6"/><path d="M26.865,21.937-6.176-2.006l622.694.57,0,4L6.176,2.006,29.212,18.7Z" transform="translate(1798 1408.606) rotate(180)" fill="#1d85f6"/></g></svg>