<svg id="グループ_12212" data-name="グループ 12212" xmlns="http://www.w3.org/2000/svg" xmlns:xlink="http://www.w3.org/1999/xlink" width="1677.617" height="1688.848" viewBox="0 0 1677.617 1688.848">
  <defs>
    <clipPath id="clip-path">
      <rect id="長方形_3537" data-name="長方形 3537" width="1677.617" height="1688.848" fill="#fff"/>
    </clipPath>
  </defs>
  <g id="グループ_12211" data-name="グループ 12211" clip-path="url(#clip-path)">
    <path id="パス_49898" data-name="パス 49898" d="M234.75,85.4l-17.767,6.479L205.208,59.571c-2.317-6.361-5.827-10.344-11.08-8.43-2.22.809-7.063,3.832-4.158,11.809l12.474,34.224-17.767,6.479L155.054,22.378l17.77-6.475,11.187,30.691.2-.071a18.845,18.845,0,0,1,11.752-12.635c11.409-4.155,20.87,2.344,26.61,18.1Z" transform="translate(365.706 37.508)" fill="#fff"/>
    <path id="パス_49899" data-name="パス 49899" d="M241.274,38.4c5.484,22.882-7.318,34.459-20.168,37.542-16.3,3.909-30.194-4.692-34.724-23.607-4.739-19.748,4.494-33.784,20.689-37.67,16.823-4.037,29.968,6.072,34.2,23.735m-31.413-10.26c-6.9,1.652-6.936,11.167-4.981,19.318,2.354,9.824,6.956,16.564,13.223,15.06,5.958-1.427,6.9-9.941,4.645-19.345-2.079-8.672-6.62-16.534-12.887-15.033" transform="translate(436.664 32.5)" fill="#fff"/>
    <rect id="長方形_3530" data-name="長方形 3530" width="18.919" height="86.533" transform="translate(704.28 9.856) rotate(-8.227)" fill="#fff"/>
    <path id="パス_49900" data-name="パス 49900" d="M284.292,37.258c1.236,23.5-13.461,32.558-26.664,33.253-16.739.88-28.83-10.106-29.854-29.532C226.713,20.7,238.344,8.572,254.975,7.7c17.28-.907,28.363,11.426,29.317,29.559m-29.025-15.8c-7.08.369-8.853,9.72-8.41,18.089.527,10.089,3.829,17.552,10.267,17.216,6.116-.322,8.588-8.521,8.081-18.18-.467-8.907-3.5-17.465-9.938-17.125" transform="translate(537.063 18.048)" fill="#fff"/>
    <rect id="長方形_3531" data-name="長方形 3531" width="86.53" height="18.919" transform="translate(855.067 86.471) rotate(-87.864)" fill="#fff"/>
    <path id="パス_49901" data-name="パス 49901" d="M289.357,88.474l-18.8-2.032,6.489-60.159,18.808,2.032Zm-2.183-67.907a9.289,9.289,0,0,1-8.591-10.546A9.673,9.673,0,0,1,297.818,12.1a9.283,9.283,0,0,1-10.643,8.47" transform="translate(638.126 3.248)" fill="#fff"/>
    <path id="パス_49902" data-name="パス 49902" d="M344.687,21.811l-31.06,55.524-17.921-3.553-7.54-63.071,20.027,3.973.739,27.208c.138,5.4.017,10.412-.2,15.953l.316.064c1.827-5.333,3.567-9.7,5.794-14.845l10.878-25.015Z" transform="translate(679.66 25.263)" fill="#fff"/>
    <path id="パス_49903" data-name="パス 49903" d="M352.309,82.7c-6.012.487-13.2-.631-20.078-2.774-18.16-5.673-25.025-19.748-19.386-37.807C318,25.6,332.16,14.14,349.4,19.521c13.75,4.292,20.615,16.571,14.5,36.165a42.982,42.982,0,0,1-2.885,7.433L328.382,52.932c-1.733,7,3.429,12.1,10.915,14.442a46.128,46.128,0,0,0,14.556,2.066Zm-3.429-36.988c1.6-5.129,1.978-12.1-4.279-14.062-6.156-1.921-10.63,4.114-12.444,8.84Z" transform="translate(733.336 42.875)" fill="#fff"/>
    <path id="パス_49904" data-name="パス 49904" d="M412.932,55.125a32.34,32.34,0,0,0-11.486-9.673c-6.519-3.3-11.288-1.74-13.135,1.9-2.089,4.124-.04,7.694,6.885,16.383,9.122,11.248,10.318,21.008,5.652,30.217-6.848,13.522-21.968,17.908-39.9,8.826-7.479-3.788-13.891-9.451-16.373-13.115l10.069-12.736a42.517,42.517,0,0,0,14.163,12c7.1,3.6,12.1,2.277,14.341-2.129,2.281-4.511.188-8.7-5.733-16.041-8.977-11.3-11.325-21.649-6.855-30.469,6.361-12.558,20.954-17.575,38.116-8.877a41.713,41.713,0,0,1,14.459,11.419Z" transform="translate(812.712 63.802)" fill="#fff"/>
    <path id="パス_49905" data-name="パス 49905" d="M428.59,111.268c-13.129,19.8-28.857,24.071-45.428,13.082-16.843-11.167-18.133-26.724-4.887-46.7l26.489-39.954,15.768,10.452L392.795,89.981c-7.07,10.663-6.576,17.7-.752,21.555,6,3.983,12.346,2,19.654-9.021l27.738-41.834L455.2,71.136Z" transform="translate(871.06 88.906)" fill="#fff"/>
    <path id="パス_49906" data-name="パス 49906" d="M442.813,56.181a128.784,128.784,0,0,1,18.126,13.186c8.346,7.113,13.293,13.73,14.482,20.954,1.216,6.687-1.011,14.106-6.029,19.994-14.986,17.585-32.783,9.478-42.681,1.045-1.39-1.186-2.546-2.311-3.456-3.231L404.018,130.7l-14.314-12.2ZM432.872,96.84a40.82,40.82,0,0,0,3.133,2.952c6.707,5.716,13.723,4.776,18.6-.95,4.947-5.807,4.148-12-1.575-16.873a21.765,21.765,0,0,0-4.756-3.2Z" transform="translate(919.145 132.507)" fill="#fff"/>
    <path id="パス_49907" data-name="パス 49907" d="M441.422,166.45,409.069,132.1l60.495-56.961,31.245,33.176-11.5,10.835L471.028,99.739,458.9,111.158l17.317,18.392-11.268,10.613-17.317-18.392-14.089,13.263,19.382,20.581Z" transform="translate(964.819 177.208)" fill="#fff"/>
    <path id="パス_49908" data-name="パス 49908" d="M481.005,154.254c1.615,5.911-.934,11.459-6.126,17.784-5.841,7.076-13.266,15.617-14.872,18.845l-11.752-15.634c1.243-2.277,5.878-8.454,12.595-15.789,6.976-7.53,7.382-11.463,3.57-16.531l-2.193-2.922-25.854,19.436-11.3-15.03,65.449-49.206a143.662,143.662,0,0,1,14.868,16.92c6.65,8.846,18.751,26.905.541,40.6A21.843,21.843,0,0,1,481.348,154Zm-4.642-18.69c4.776,6.358,11.506,7.08,16.914,3.009,7.56-5.679,4.823-12.36,2.176-15.883a24.35,24.35,0,0,0-4.111-4.571l-17.952,13.495Z" transform="translate(1002.57 224.553)" fill="#fff"/>
    <path id="パス_49909" data-name="パス 49909" d="M468.764,211.491l-21.575-41.959L521.07,131.54l20.837,40.528-14.049,7.221-12.188-23.7L500.855,163.2l11.55,22.462-13.763,7.077-11.55-22.462-17.2,8.847,12.927,25.139Z" transform="translate(1054.726 310.247)" fill="#fff"/>
    <path id="パス_49910" data-name="パス 49910" d="M479.647,242.389l-7.466-19.577,11.409-10.788c4.114-3.987,7.617-7.16,11.688-10.667l-.114-.3c-5.253.4-10.146.537-15.654.564l-15.365.111-7.238-18.976,46.577,3.631,31.3-32.518,7.429,19.473L530.68,183.829c-3.825,3.533-7.244,6.331-10.986,9.485l.114.3c5.391-.336,9.427-.608,14.418-.786l15.329-.212,7.271,19.073-45.29-3.886Z" transform="translate(1077.646 362.906)" fill="#fff"/>
    <path id="パス_49911" data-name="パス 49911" d="M545.568,182.6a128.873,128.873,0,0,1,7.177,21.233c2.7,10.623,2.919,18.885-.285,25.465-2.868,6.163-8.971,10.932-16.467,12.84-22.388,5.7-32.232-11.2-35.44-23.8-.45-1.773-.746-3.359-.957-4.635l-28.743,7.312-4.635-18.224Zm-31.6,27.443a41.979,41.979,0,0,0,.85,4.218c2.173,8.541,8.443,11.822,15.732,9.972,7.4-1.884,10.317-7.4,8.46-14.684a21.666,21.666,0,0,0-2.029-5.36Z" transform="translate(1099.609 430.68)" fill="#fff"/>
    <path id="パス_49912" data-name="パス 49912" d="M521.018,279.834c-28.675,3.681-45.284-8.38-47.95-29.169-2.915-22.7,15.275-36.306,37.871-39.2,23.238-2.986,44.175,7.328,47.02,29.5,3.08,23.984-16.9,36.3-36.941,38.872m-7.224-48.7c-15.792,1.918-26.405,8.7-25.189,18.183s13.149,12.944,29.243,10.875c14.391-1.844,25.821-8.188,24.588-17.784-1.283-10.019-14.465-13.1-28.642-11.275" transform="translate(1115.039 497.554)" fill="#fff"/>
    <path id="パス_49913" data-name="パス 49913" d="M474.441,307.025l2.509-52.071,11.812.568,9.743,9.941c14.032,14.771,23.178,23.718,33.055,24.192,6.227.3,11.56-3.211,11.94-11.046.265-5.478-2.267-10.976-4.769-14.868l13.978-4.272c3.406,5.223,6.307,14.294,5.857,23.634-.887,18.358-12.558,26.083-26.194,25.424-14.281-.688-24.988-10.674-34.385-21.139l-6.22-7.184-.212-.01-1.333,27.594Z" transform="translate(1119.003 601.327)" fill="#fff"/>
    <path id="パス_49914" data-name="パス 49914" d="M517.779,282.218c22.711,3.607,40.377,15.01,37.31,34.328-3.3,20.8-25.418,23.7-45.478,20.521-26.324-4.182-40.2-16.833-37.468-34.026,3.271-20.591,25.364-24.044,45.636-20.823m-5.522,36.118c17.3,2.747,27.063,1.578,27.99-4.259.877-5.518-6.865-10.227-25.226-13.149s-27.127-1.152-28.054,4.685c-.709,4.457,3.322,9.233,25.29,12.722" transform="translate(1112.781 663.156)" fill="#fff"/>
    <path id="パス_49915" data-name="パス 49915" d="M465.013,354.546l13.817-50.258,11.4,3.137,7.335,11.822c10.469,17.478,17.438,28.2,26.973,30.825,6.008,1.652,11.98-.608,14.059-8.175,1.454-5.283.185-11.2-1.411-15.543l14.576-1.122c2.183,5.844,3.029,15.325.551,24.343-4.87,17.716-17.948,22.7-31.107,19.087-13.78-3.792-22.049-15.873-28.934-28.131l-4.5-8.37-.2-.057-7.325,26.63Z" transform="translate(1096.767 717.685)" fill="#fff"/>
    <path id="パス_49916" data-name="パス 49916" d="M527.62,403.392l-14.476-5.767,9.941-24.958-11.422-6.17c-.376,1.239-.715,2.378-1.189,3.574-4.7,11.779-16.632,22.872-34,15.95-14.378-5.726-22.439-21.777-14.885-40.746,3.023-7.584,7.6-13.858,10.969-16.8l12.047,8.383a37.024,37.024,0,0,0-8.762,12.705c-2.825,7.087-1.213,15.248,6.371,18.267,8.487,3.382,15.386-1.736,20.2-13.814a50.957,50.957,0,0,0,2.643-8.088l37.482,20.024Z" transform="translate(1081.874 774.741)" fill="#fff"/>
    <rect id="長方形_3532" data-name="長方形 3532" width="46.349" height="46.349" transform="matrix(0.973, -0.231, 0.231, 0.973, 1490.232, 1247.917)" fill="#fff"/>
    <path id="パス_49917" data-name="パス 49917" d="M414.7,434.284l12.386-14.3L453.082,442.5c5.115,4.433,10.116,6.21,13.777,1.985,1.548-1.787,4.312-6.784-2.1-12.346L437.22,408.292l12.387-14.3,65.385,56.642-12.383,14.294-24.692-21.387-.141.161a18.859,18.859,0,0,1-4.131,16.753c-7.95,9.176-19.382,8.091-32.054-2.882Z" transform="translate(978.109 929.266)" fill="#fff"/>
    <path id="パス_49918" data-name="パス 49918" d="M409.17,466.195c-15.95-17.32-10.408-33.68-.678-42.634,12.336-11.362,28.659-10.613,41.841,3.7,13.76,14.942,12.541,31.7.285,43-12.732,11.721-29.142,9.3-41.448-4.064m32.444-6.351c5.216-4.81.615-13.135-5.068-19.305-6.845-7.432-14.15-11.08-18.9-6.71-4.507,4.151-1.179,12.047,5.377,19.164,6.045,6.563,13.841,11.221,18.586,6.851" transform="translate(941.345 980.483)" fill="#fff"/>
    <rect id="長方形_3533" data-name="長方形 3533" width="18.917" height="86.514" transform="matrix(0.794, -0.608, 0.608, 0.794, 1289.637, 1455.645)" fill="#fff"/>
    <path id="パス_49919" data-name="パス 49919" d="M371.473,488.495c-12.548-19.906-4.141-34.986,7.043-42.032,14.18-8.937,30.1-5.253,40.467,11.2,10.828,17.182,6.593,33.445-7.5,42.321-14.633,9.226-30.328,3.876-40.011-11.493m33.042-.373c6-3.782,2.986-12.8-1.485-19.893-5.387-8.547-11.91-13.454-17.364-10.015-5.182,3.265-3.339,11.631,1.817,19.812,4.756,7.543,11.577,13.532,17.031,10.1" transform="translate(861.395 1041.835)" fill="#fff"/>
    <rect id="長方形_3534" data-name="長方形 3534" width="18.915" height="86.511" transform="matrix(0.891, -0.453, 0.453, 0.891, 1171.39, 1528.088)" fill="#fff"/>
    <path id="パス_49920" data-name="パス 49920" d="M334.212,466.7l17.428-7.362,23.544,55.746-17.428,7.359ZM369.1,525a9.62,9.62,0,1,1-5.189,12.578A9.289,9.289,0,0,1,369.1,525" transform="translate(788.263 1083.386)" fill="#fff"/>
    <path id="パス_49921" data-name="パス 49921" d="M315.455,535.775l.208-63.638,17.394-5.592,37.22,51.494-19.443,6.25-13.861-23.433c-2.734-4.655-5.068-9.1-7.567-14.056l-.306.1c.994,5.555,1.592,10.217,2.143,15.8l2.633,27.157Z" transform="translate(744.023 1100.38)" fill="#fff"/>
    <path id="パス_49922" data-name="パス 49922" d="M288.135,481.312c5.018-3.338,11.852-5.847,18.905-7.3,18.63-3.845,31.463,5.142,35.285,23.665,3.5,16.947-3.332,33.834-21.015,37.485-14.109,2.912-26.062-4.5-30.214-24.6a43.606,43.606,0,0,1-1.081-7.9l33.475-6.912c-1.877-6.962-8.867-8.924-16.551-7.335a46.12,46.12,0,0,0-13.733,5.246ZM309.066,512c1.088,5.263,4.138,11.547,10.563,10.22,6.314-1.3,7.3-8.752,6.6-13.763Z" transform="translate(679.587 1115.914)" fill="#fff"/>
    <path id="パス_49923" data-name="パス 49923" d="M286.924,526.324c-3.3,3.886-8.366,6.438-14.7,6.677-12.245.457-22.368-8.527-22.979-24.961-.571-15.362,9.112-29.706,26.086-30.335,19.117-.712,29.67,13.952,30.405,33.717,1.038,27.927-14.375,47.326-38.691,50.059a44.831,44.831,0,0,1-7.826.722l-.534-14.395a58.275,58.275,0,0,0,6.855-.789c13.794-2.129,20.017-11.292,21.817-20.712ZM268.019,506.8c.238,6.445,3.4,13.32,9.952,13.075,3.654-.134,6.667-2.935,8.148-6.542a18.307,18.307,0,0,0,.625-6.264c-.534-8.584-4.151-16.192-10.7-15.95-6.234.232-8.309,8.054-8.024,15.681" transform="translate(587.796 1126.644)" fill="#fff"/>
    <path id="パス_49924" data-name="パス 49924" d="M259.136,551.047,240.163,555.2l.964-16.3-12.551-.746.809-13.619,12.548.742,1.347-22.738c.42-7.083-1.679-9.787-6.183-10.056a16.9,16.9,0,0,0-4.967.245l.759-14.6a41.636,41.636,0,0,1,11.664-.709c18.559,1.1,17.938,16.994,17.532,23.859l-1.484,25.1,7.4.44-.809,13.622-7.4-.44Z" transform="translate(539.113 1125.784)" fill="#fff"/>
    <path id="パス_49925" data-name="パス 49925" d="M209.356,474.076l18.68,2.989-5.431,33.962c-1.065,6.684.064,11.873,5.582,12.756,2.338.373,8.04.087,9.38-8.3l5.75-35.98L262,482.493l-13.656,85.435-18.677-2.982,5.155-32.269-.212-.034a18.827,18.827,0,0,1-16.417,5.323c-11.99-1.918-17.1-12.2-14.452-28.759Z" transform="translate(478.929 1118.142)" fill="#fff"/>
    <path id="パス_49926" data-name="パス 49926" d="M203.126,531.706c-5.286,16.138-17.908,20.487-29.861,16.571a35.613,35.613,0,0,1-9.2-4.373l5.642-13.421a19.85,19.85,0,0,0,4.974,2.421c7.456,2.442,9.834-4.81,11.238-9.1l-10.62-3.483,4.245-12.967,10.522,3.446,14.59-44.531,17.978,5.891-14.59,44.528L215.7,519.2l-4.252,12.974-7.658-2.509Z" transform="translate(386.961 1099.734)" fill="#fff"/>
    <path id="パス_49927" data-name="パス 49927" d="M164.614,457.218c6.029.168,13.051,2.066,19.651,4.947,17.438,7.611,22.727,22.348,15.164,39.685-6.925,15.859-22.244,25.707-38.791,18.479-13.2-5.757-18.687-18.707-10.472-37.519a43.327,43.327,0,0,1,3.671-7.077l31.325,13.673c2.482-6.771-2.092-12.4-9.286-15.543a45.988,45.988,0,0,0-14.237-3.637ZM164,494.361c-2.153,4.924-3.281,11.819,2.727,14.442,5.908,2.576,11.009-2.932,13.327-7.432Z" transform="translate(345.039 1078.382)" fill="#fff"/>
    <path id="パス_49928" data-name="パス 49928" d="M134.2,483.9a25.036,25.036,0,0,0,8.276,8.091c3.654,2.055,6.422,1.508,7.738-.833,1.209-2.153.353-4.363-4.094-10.059-7.03-9-7.446-16.376-3.755-23.177,6.1-10.875,17.871-12.528,31.181-5.061,5.9,3.312,11.019,8.03,13.236,11.987l-9.434,10.234a31.99,31.99,0,0,0-10.331-10.358c-4.128-2.311-6.885-2.012-8.3.517s-.655,4.689,3.476,9.841c7.758,9.894,7.537,17.535,4.487,22.973-5.572,9.935-17.653,13.018-30.029,6.076a36.7,36.7,0,0,1-11.731-10.277Z" transform="translate(294.614 1057.301)" fill="#fff"/>
    <path id="パス_49929" data-name="パス 49929" d="M137.737,456.53c-3.778,5.619-10.553,7.019-15.634,3.6-5.263-3.54-6.516-9.955-2.556-15.842,3.9-5.794,10.2-7.258,15.637-3.6s6.334,10.224,2.553,15.842" transform="translate(276.472 1034.679)" fill="#fff"/>
    <path id="パス_49930" data-name="パス 49930" d="M127.736,413.579c3.009,1.008,8.783,4.252,14.808,9.767,19.423,17.78,16.212,39.752.682,56.72-20.1,21.962-43.876,19.285-59.652,4.843-6.183-5.659-9.307-10.845-10.18-13.394L86.311,462.5a28.381,28.381,0,0,0,7.208,9.952c8.8,8.057,21.69,8.783,34.314-5.014,11.684-12.766,11.439-25.23,1.528-34.3a38.686,38.686,0,0,0-10.187-6.7Z" transform="translate(173.105 975.456)" fill="#fff"/>
    <path id="パス_49931" data-name="パス 49931" d="M74.728,407.287c17.713-15.5,33.918-9.548,42.624.4,11.04,12.615,9.878,28.911-4.756,41.72-15.285,13.377-32.007,11.731-42.976-.8-11.4-13.021-8.558-29.361,5.108-41.317m5.525,32.581c4.672,5.337,13.112.947,19.419-4.571,7.6-6.653,11.436-13.861,7.187-18.717-4.034-4.608-12.01-1.481-19.288,4.887-6.71,5.878-11.564,13.548-7.318,18.4" transform="translate(147.508 938.238)" fill="#fff"/>
    <rect id="長方形_3535" data-name="長方形 3535" width="86.513" height="18.914" transform="translate(144.864 1335.343) rotate(-35.979)" fill="#fff"/>
    <path id="パス_49932" data-name="パス 49932" d="M53.877,369.029c20.222-12.034,35.08-3.241,41.838,8.118,8.568,14.4,4.477,30.22-12.242,40.165-17.451,10.381-33.6,5.733-42.113-8.581-8.843-14.868-3.09-30.419,12.517-39.7M53.4,402.067c3.627,6.1,12.722,3.308,19.926-.974,8.682-5.165,13.753-11.557,10.459-17.1-3.134-5.263-11.543-3.637-19.853,1.306-7.664,4.558-13.827,11.228-10.532,16.766" transform="translate(87.737 856.773)" fill="#fff"/>
    <path id="パス_49933" data-name="パス 49933" d="M41.169,350.262a18.815,18.815,0,0,0,1.572,4.369c2.049,4.376,6.008,7.51,11.557,6.69a17.362,17.362,0,0,0,5.474-1.733l27.446-12.85,8.02,17.132L58.16,381.228c-7.2,3.372-12.662,6.163-17.532,8.682l-6.882-14.7,8.83-4.964-.181-.39c-8.477.645-14.18-3.684-16.276-8.161a19.244,19.244,0,0,1-1.394-3.735Z" transform="translate(58.316 817.809)" fill="#fff"/>
    <path id="パス_49934" data-name="パス 49934" d="M47.308,331.414c.618-6.1,4.991-10.351,12.111-14.388,7.99-4.5,18-9.8,20.655-12.235L85.417,323.6c-1.982,1.679-8.524,5.773-17.434,10.2-9.216,4.517-11.006,8.044-9.276,14.143l1,3.513,31.117-8.84,5.135,18.089L17.191,383.089A142.727,142.727,0,0,1,9.4,361.954C6.377,351.307,1.584,330.1,23.5,323.878a21.852,21.852,0,0,1,23.4,7.654Zm-2.391,19.11c-2.17-7.647-8.188-10.741-14.7-8.89-9.1,2.583-8.944,9.8-7.742,14.039a24.173,24.173,0,0,0,2.193,5.743l21.6-6.136Z" transform="translate(15.907 718.872)" fill="#fff"/>
    <path id="パス_49935" data-name="パス 49935" d="M20.058,312a9.286,9.286,0,0,1-7.647,11.251A9.311,9.311,0,0,1,1.146,315.5,9.248,9.248,0,0,1,8.9,304.23,9.284,9.284,0,0,1,20.058,312M84.492,290.48l3.436,18.6-59.49,10.993L25,301.473Z" transform="translate(2.243 685.118)" fill="#fff"/>
    <path id="パス_49936" data-name="パス 49936" d="M20.646,277.707a25.017,25.017,0,0,0-1.864,11.422c.423,4.171,2.458,6.126,5.132,5.854,2.458-.252,3.772-2.223,5.878-9.132,3.315-10.922,9.115-15.507,16.8-16.4,12.4-1.259,20.518,7.419,22.059,22.6.685,6.737-.232,13.636-2.193,17.723l-13.8-1.837A31.934,31.934,0,0,0,55.2,293.529c-.477-4.7-2.307-6.784-5.2-6.492s-4.212,2.156-6.052,8.5c-3.637,12.037-10.012,16.245-16.212,16.877-11.332,1.152-20.8-6.959-22.23-21.068a36.689,36.689,0,0,1,1.662-15.51Z" transform="translate(12.517 635.244)" fill="#fff"/>
    <path id="パス_49937" data-name="パス 49937" d="M63.281,247.364c2.348,5.552,3.537,12.736,3.657,19.936.306,19.02-10.909,29.952-29.824,30.258-17.3.279-32.618-9.575-32.911-27.628-.232-14.4,9.273-24.769,29.8-25.1a43.707,43.707,0,0,1,7.963.406l.551,34.177c7.2-.547,10.425-7.05,10.3-14.892a46.133,46.133,0,0,0-2.6-14.472ZM29.232,262.212c-5.374.087-12.114,1.914-12.01,8.47.1,6.448,7.238,8.81,12.292,9.048Z" transform="translate(9.905 577.414)" fill="#fff"/>
    <path id="パス_49938" data-name="パス 49938" d="M92.331,213.894,89.09,232.527l-33.458-5.814-4.007,23.08,33.458,5.817-3.241,18.633L0,260.02l3.238-18.633,31.655,5.5L38.906,223.8,7.248,218.3l3.238-18.63Z" transform="translate(0 470.944)" fill="#fff"/>
    <path id="パス_49939" data-name="パス 49939" d="M68.443,184.478a78.468,78.468,0,0,0,13.972,3.17l-4.87,16.266-5.867-.635-.091.309c3.584,4.887,4.01,10.962,2.223,16.931-3.14,10.5-13.233,15-23.013,12.074-15.345-4.588-17.837-20.256-12.826-37.378-4.427-1.323-8.2-.322-10.391,6.989a29.376,29.376,0,0,0-.369,15.48l-12.719-.215a47.012,47.012,0,0,1,1.4-22.687c5.73-19.151,19.295-20.252,32.165-16.4ZM49.481,197.986c-2.247,7.516-1.995,14.546,4.7,16.548,4.739,1.417,7.661-.85,8.615-4.04A8.091,8.091,0,0,0,57,200.237Z" transform="translate(32.314 416.518)" fill="#fff"/>
    <path id="パス_49940" data-name="パス 49940" d="M50.4,160.813a18.725,18.725,0,0,0-2.149,4.118c-1.83,4.477-1.451,9.508,2.915,13.031a17.334,17.334,0,0,0,4.984,2.855L84.2,192.293l-7.16,17.5-37.9-15.5c-7.359-3.016-13.108-5.135-18.264-7.009l6.143-15.023,9.636,3.13.165-.4c-6.22-5.8-6.905-12.927-5.034-17.5a19.835,19.835,0,0,1,1.8-3.56Z" transform="translate(49.238 363.074)" fill="#fff"/>
    <path id="パス_49941" data-name="パス 49941" d="M123.407,146.951l-9.051,16.242L84.874,146.76c-6.663-3.711-11.819-4.618-14.331-.111-2.146,3.852-.38,8.4,4.974,11.386l31.829,17.74-9.055,16.242L67.5,174.854c-5.169-2.878-10.4-4.074-12.971.524-1.357,2.438-1.74,7.765,5.018,11.53l31.735,17.686L82.228,220.84,46.271,200.8c-6.291-3.5-12.027-6.455-17.112-9.041l7.849-14.082L44,180.584l.158-.282a20.376,20.376,0,0,1,.507-18.791c3.61-6.479,9.323-9.448,15.449-8.739l.107-.185a20.706,20.706,0,0,1,.3-19.523c5.753-10.328,16.7-11.856,30.781-4.007Z" transform="translate(68.774 292.666)" fill="#fff"/>
    <path id="パス_49942" data-name="パス 49942" d="M98.61,109.77c18.855,14.1,16.407,31.194,8.49,41.784-10.039,13.431-26.227,15.691-41.808,4.044-16.272-12.168-18.15-28.87-8.171-42.217C67.486,99.52,84.057,98.9,98.61,109.77m-30.724,12.2c-4.252,5.683,1.8,13.028,8.517,18.046,8.094,6.052,15.943,8.3,19.809,3.134,3.664-4.907-1.051-12.061-8.8-17.854-7.144-5.343-15.664-8.49-19.523-3.325" transform="translate(120.288 241.12)" fill="#fff"/>
    <path id="パス_49943" data-name="パス 49943" d="M146.239,115.242l-12.961,13.784-25.606-24.081c-4.621-4.343-9.313-6.1-13-2.186-2.724,2.9-3.483,7.936,2.156,13.243l25.841,24.3-12.961,13.78-29.992-28.2c-5.246-4.934-10.092-9.2-14.388-12.944l11.12-11.822,6.22,4.524.225-.238a20,20,0,0,1,5.065-18.25c8.689-9.239,19.987-7.916,31.419,2.835Z" transform="translate(154.088 191.016)" fill="#fff"/>
    <path id="パス_49944" data-name="パス 49944" d="M127.658,60.516l17.864,41.28c7.338,18.19,10.126,29.233,9.468,38.56a33.006,33.006,0,0,1-7.04,17.743l-13.985-9.26c4.92-6.321,5.545-17.172,3.244-19.869a6.789,6.789,0,0,0-2.321-1.558L83.765,98,99.54,84.523,124.2,102.478c2.885,2.055,6.052,4.44,8.558,6.546l.242-.208c-1.605-2.875-3.624-6.234-5.3-9.186L112.783,73.218Z" transform="translate(197.566 142.731)" fill="#fff"/>
    <rect id="長方形_3536" data-name="長方形 3536" width="46.347" height="46.347" transform="matrix(0.244, -0.97, 0.97, 0.244, 397.492, 175.09)" fill="#fff"/>
  </g>
</svg>
