<svg id="グループ_12210" data-name="グループ 12210" xmlns="http://www.w3.org/2000/svg" xmlns:xlink="http://www.w3.org/1999/xlink" width="938.276" height="936.252" viewBox="0 0 938.276 936.252">
  <defs>
    <clipPath id="clip-path">
      <rect id="長方形_3529" data-name="長方形 3529" width="938.276" height="936.252" fill="#fff"/>
    </clipPath>
  </defs>
  <g id="グループ_12208" data-name="グループ 12208" clip-path="url(#clip-path)">
    <path id="パス_49804" data-name="パス 49804" d="M170.558,34.8l-4.842,1.886-3.431-8.8c-.677-1.732-1.665-2.8-3.094-2.246-.606.234-1.919,1.094-1.071,3.269l3.633,9.326-4.842,1.886-8.631-22.145,4.842-1.888,3.259,8.363.055-.022a5.178,5.178,0,0,1,3.151-3.541c3.11-1.212,5.747.516,7.418,4.808Z" transform="translate(143.575 15.573)" fill="#fff"/>
    <path id="パス_49805" data-name="パス 49805" d="M178,20.426c2.008,6.151-1.246,9.6-4.7,10.731-4.381,1.429-8.375-.624-10.034-5.706-1.732-5.306.49-9.357,4.842-10.776,4.521-1.476,8.343,1.006,9.892,5.751m-8.832-2.12c-1.852.6-1.655,3.212-.943,5.4.862,2.639,2.271,4.387,3.956,3.836,1.6-.522,1.673-2.876.848-5.4-.762-2.328-2.179-4.383-3.862-3.834" transform="translate(157.517 13.798)" fill="#fff"/>
    <rect id="長方形_3515" data-name="長方形 3515" width="5.199" height="23.779" transform="matrix(0.964, -0.266, 0.266, 0.964, 341.472, 16.516)" fill="#fff"/>
    <path id="パス_49806" data-name="パス 49806" d="M198.491,15.492c1.435,6.306-2.122,9.448-5.665,10.253-4.494,1.023-8.282-1.388-9.465-6.6-1.238-5.444,1.344-9.272,5.808-10.288,4.637-1.053,8.218,1.767,9.322,6.635m-8.6-2.921c-1.9.433-1.943,3.047-1.433,5.291.616,2.708,1.86,4.578,3.588,4.185,1.642-.374,1.927-2.708,1.338-5.3-.543-2.391-1.766-4.566-3.494-4.173" transform="translate(177.242 8.363)" fill="#fff"/>
    <rect id="長方形_3516" data-name="長方形 3516" width="5.199" height="23.776" transform="translate(383.334 6.772) rotate(-10.14)" fill="#fff"/>
    <path id="パス_49807" data-name="パス 49807" d="M206.366,7.11a2.55,2.55,0,0,1-3-2.228,2.56,2.56,0,0,1,2.256-3.006,2.544,2.544,0,0,1,3,2.26,2.55,2.55,0,0,1-2.262,2.974m5.167,17.927-5.143.73L204.055,9.315l5.143-.728Z" transform="translate(196.883 1.786)" fill="#fff"/>
    <path id="パス_49808" data-name="パス 49808" d="M227.048,3.837,223.279,20.9l-4.993.484L211.308,5.4l5.58-.541,2.35,7.094c.463,1.407.829,2.736,1.208,4.212l.089-.01c.059-1.547.169-2.834.346-4.362l.878-7.438Z" transform="translate(204.601 3.715)" fill="#fff"/>
    <path id="パス_49809" data-name="パス 49809" d="M238.2,19.214a15.192,15.192,0,0,1-5.446,1.161c-5.22.234-8.308-2.76-8.54-7.952-.215-4.747,2.374-9.03,7.326-9.253,3.954-.177,6.873,2.352,7.125,7.987a11.8,11.8,0,0,1-.047,2.189l-9.381.419c.209,1.97,2.019,2.807,4.171,2.71a12.635,12.635,0,0,0,3.952-.829ZM233.86,9.982c-.067-1.474-.62-3.313-2.419-3.232-1.771.081-2.364,2.057-2.387,3.446Z" transform="translate(217.089 3.061)" fill="#fff"/>
    <path id="パス_49810" data-name="パス 49810" d="M256.395,5.438a8.848,8.848,0,0,0-3.976-1.094c-2-.077-3.015.862-3.057,1.982-.049,1.268.872,1.923,3.6,3.295,3.564,1.76,4.986,4.059,4.877,6.889-.155,4.157-3.423,6.989-8.938,6.781a13.179,13.179,0,0,1-5.588-1.392l1.049-4.332a11.681,11.681,0,0,0,4.911,1.366c2.181.083,3.279-.821,3.33-2.177.053-1.386-.951-2.193-3.271-3.342-3.535-1.787-5.308-4.1-5.206-6.812.146-3.864,3.208-6.79,8.487-6.592A11.458,11.458,0,0,1,257.529,1.2Z" transform="translate(235.589 0)" fill="#fff"/>
    <path id="パス_49811" data-name="パス 49811" d="M272.746,15.38c-.616,6.5-3.875,9.57-9.314,9.054-5.529-.526-7.857-4.129-7.233-10.686L257.444.636l5.173.49-1.3,13.731c-.333,3.5.7,5.141,2.61,5.322,1.97.187,3.251-1.116,3.594-4.732l1.3-13.731L274,2.209Z" transform="translate(247.971 0.616)" fill="#fff"/>
    <path id="パス_49812" data-name="パス 49812" d="M273.207,2.4a35.269,35.269,0,0,1,6.139.478c2.974.461,5.084,1.3,6.4,2.815a6.75,6.75,0,0,1,1.466,5.547c-.974,6.269-6.3,6.934-9.833,6.385-.5-.077-.929-.175-1.273-.258l-1.252,8.048-5.1-.793Zm3.525,10.942c.317.079.632.157,1.157.24,2.392.372,3.9-.856,4.214-2.9a3,3,0,0,0-2.8-3.72,5.93,5.93,0,0,0-1.575-.065Z" transform="translate(261.189 2.319)" fill="#fff"/>
    <path id="パス_49813" data-name="パス 49813" d="M295.129,29.507l-12.683-2.691,4.736-22.334,12.25,2.6-.9,4.247-7.166-1.52-.951,4.48,6.79,1.439-.884,4.159-6.789-1.439-1.1,5.2,7.6,1.612Z" transform="translate(273.481 4.34)" fill="#fff"/>
    <path id="パス_49814" data-name="パス 49814" d="M307.857,21.813c1.35,1.008,1.732,2.641,1.675,4.891a55.014,55.014,0,0,0-.043,6.6L304.3,31.894a30.622,30.622,0,0,1,.065-5.55c.24-2.811-.337-3.732-2.017-4.186l-.97-.262-2.321,8.58-4.99-1.352L299.952,7.4a39.071,39.071,0,0,1,6.08,1.157c2.935.8,8.607,2.667,6.972,8.712a6.006,6.006,0,0,1-5.116,4.427ZM303.7,18.545a3.137,3.137,0,0,0,4.175-2.2,2.859,2.859,0,0,0-2.21-3.811,6.7,6.7,0,0,0-1.663-.3l-1.614,5.956Z" transform="translate(284.736 7.17)" fill="#fff"/>
    <path id="パス_49815" data-name="パス 49815" d="M325.317,39.191l-12.17-4.456L321,13.308l11.753,4.3-1.49,4.074-6.877-2.517-1.571,4.3,6.513,2.386-1.462,3.992-6.515-2.386-1.825,4.988,7.29,2.671Z" transform="translate(303.209 12.886)" fill="#fff"/>
    <path id="パス_49816" data-name="パス 49816" d="M339.5,45.235l-5.291-2.273.057-4.314c0-1.573.043-2.872.13-4.344l-.081-.033c-.925,1.11-1.834,2.1-2.884,3.194l-2.917,3.051-5.125-2.2,9.625-8.489-.427-12.392,5.261,2.26-.136,4.281c-.035,1.431-.138,2.639-.23,3.98l.081.033c.964-1.126,1.683-1.974,2.6-2.992l2.891-3.065,5.153,2.214-9.43,8.19Z" transform="translate(313.122 16.876)" fill="#fff"/>
    <path id="パス_49817" data-name="パス 49817" d="M345.931,23.357a35.516,35.516,0,0,1,5.708,2.315c2.695,1.342,4.454,2.777,5.249,4.625a6.74,6.74,0,0,1-.281,5.73c-2.826,5.68-8.111,4.7-11.308,3.11-.449-.224-.833-.449-1.138-.632l-3.63,7.3-4.625-2.3Zm.047,11.5a11.023,11.023,0,0,0,1.029.579c2.169,1.081,3.976.364,4.9-1.486a3,3,0,0,0-1.539-4.391,6,6,0,0,0-1.48-.541Z" transform="translate(325.246 22.616)" fill="#fff"/>
    <path id="パス_49818" data-name="パス 49818" d="M367.428,46.613c-3.964,6.885-9.367,8.509-14.357,5.633-5.45-3.141-5.4-9.383-2.273-14.807,3.216-5.58,8.956-8.442,14.278-5.373,5.757,3.317,5.127,9.737,2.352,14.547M355.578,40.09c-2.208,3.771-2.492,7.222-.213,8.534s5.015-.72,7.241-4.586c1.992-3.454,2.508-7.009.2-8.336-2.405-1.388-5.273.984-7.233,4.387" transform="translate(337.599 29.834)" fill="#fff"/>
    <path id="パス_49819" data-name="パス 49819" d="M376.677,66.789l-11.725-8.216,1.862-2.659,3.738-.807c5.488-1.092,8.9-1.905,10.463-4.131a2.942,2.942,0,0,0-.817-4.393,7.329,7.329,0,0,0-4.151-1.071L377.1,41.64a11.6,11.6,0,0,1,6.346,2.1c4.135,2.9,4.218,6.739,2.067,9.808-2.252,3.216-6.143,4.242-9.948,4.891l-2.582.39-.034.047,6.214,4.354Z" transform="translate(353.369 40.318)" fill="#fff"/>
    <path id="パス_49820" data-name="パス 49820" d="M380.2,55.777c3.9-4.968,9-7.682,13.221-4.366,4.553,3.574,2.293,9.269-1.151,13.658-4.521,5.757-9.412,7.4-13.174,4.442-4.5-3.537-2.38-9.3,1.1-13.735m7.928,6.151c2.972-3.783,4-6.281,2.718-7.285-1.207-.949-3.372.279-6.527,4.295s-3.9,6.357-2.626,7.359c.978.766,2.661.437,6.434-4.37" transform="translate(364.589 48.367)" fill="#fff"/>
    <path id="パス_49821" data-name="パス 49821" d="M395.382,82.236,384.616,72.8l2.142-2.441,3.8-.4c5.574-.492,9.058-.931,10.851-2.972a2.943,2.943,0,0,0-.335-4.454,7.286,7.286,0,0,0-4.013-1.514l1.472-3.738a11.6,11.6,0,0,1,6.08,2.779c3.795,3.33,3.46,7.159.988,9.977-2.586,2.952-6.564,3.547-10.42,3.781l-2.606.106-.039.045,5.7,5Z" transform="translate(372.409 55.466)" fill="#fff"/>
    <path id="パス_49822" data-name="パス 49822" d="M418.921,73.884l-2.992,3.061-5.277-5.157-2.771,2.244c.272.224.526.431.779.679,2.492,2.435,4.043,6.635.453,10.308-2.97,3.041-7.895,3.389-11.906-.529a12.935,12.935,0,0,1-3.1-4.558l3.4-2.167a10.18,10.18,0,0,0,2.295,3.563c1.5,1.464,3.74,1.919,5.3.315,1.756-1.8,1.187-4.084-1.368-6.58a13.6,13.6,0,0,0-1.771-1.525L411,66.145Z" transform="translate(381.598 64.046)" fill="#fff"/>
    <rect id="長方形_3517" data-name="長方形 3517" width="13.579" height="13.58" transform="translate(808.331 177.085) rotate(-85.669)" fill="#fff"/>
    <path id="パス_49823" data-name="パス 49823" d="M428.137,121.005l-3.045-4.208,7.651-5.535c1.506-1.09,2.295-2.317,1.4-3.559-.382-.526-1.543-1.581-3.433-.213l-8.105,5.863-3.043-4.206L438.8,95.221l3.045,4.208-7.269,5.259.036.047a5.179,5.179,0,0,1,4.22,2.157c1.954,2.7.947,5.688-2.781,8.387Z" transform="translate(406.241 92.199)" fill="#fff"/>
    <path id="パス_49824" data-name="パス 49824" d="M440.938,124c-5.44,3.494-9.6,1.218-11.562-1.836-2.488-3.876-1.512-8.255,2.982-11.142,4.7-3.013,9.172-1.888,11.642,1.962,2.569,4,1.136,8.32-3.063,11.016m-.179-9.078c-1.053-1.636-3.523-.785-5.46.457-2.336,1.5-3.669,3.3-2.71,4.793.909,1.417,3.2.89,5.436-.543,2.061-1.325,3.69-3.212,2.734-4.706" transform="translate(414.453 105.831)" fill="#fff"/>
    <rect id="長方形_3518" data-name="長方形 3518" width="23.765" height="5.196" transform="translate(853.456 243.048) rotate(-30.034)" fill="#fff"/>
    <path id="パス_49825" data-name="パス 49825" d="M450.91,142.58c-5.741,2.978-9.678.331-11.353-2.9-2.122-4.09-.744-8.365,4-10.827,4.954-2.573,9.31-1.037,11.418,3.025,2.193,4.22.364,8.4-4.066,10.7m.657-9.06c-.9-1.73-3.439-1.11-5.484-.049-2.464,1.277-3.96,2.952-3.143,4.523.778,1.5,3.11,1.183,5.47-.041,2.177-1.128,3.974-2.86,3.157-4.433" transform="translate(424.668 123.546)" fill="#fff"/>
    <rect id="長方形_3519" data-name="長方形 3519" width="23.755" height="5.193" transform="translate(872.448 279.116) rotate(-24.779)" fill="#fff"/>
    <path id="パス_49826" data-name="パス 49826" d="M448.586,158.18l-2.01-4.8,15.337-6.424,2.01,4.795Zm16.047-9.542a2.644,2.644,0,1,1,3.452,1.435,2.554,2.554,0,0,1-3.452-1.435" transform="translate(432.403 140.338)" fill="#fff"/>
    <path id="パス_49827" data-name="パス 49827" d="M469.508,167.93l-17.47.659-1.732-4.714,13.717-10.794,1.935,5.267-6.277,4.066c-1.246.8-2.439,1.494-3.773,2.236l.029.083c1.514-.335,2.787-.551,4.314-.766l7.422-1.027Z" transform="translate(436.014 148.222)" fill="#fff"/>
    <path id="パス_49828" data-name="パス 49828" d="M457.3,181.885a15.213,15.213,0,0,1-2.49-4.978c-1.535-4.992.587-8.731,5.549-10.261,4.541-1.4,9.333.03,10.792,4.769,1.163,3.777-.553,7.239-5.938,8.895a11.832,11.832,0,0,1-2.13.5l-2.76-8.969c-1.856.695-2.208,2.657-1.575,4.716a12.652,12.652,0,0,0,1.791,3.614Zm7.841-6.523c1.409-.433,3.047-1.433,2.517-3.153-.52-1.691-2.58-1.767-3.933-1.445Z" transform="translate(439.903 160.862)" fill="#fff"/>
    <path id="パス_49829" data-name="パス 49829" d="M471.963,189.244a5.429,5.429,0,0,1,2.517,3.653c.715,3.291-1.224,6.464-5.641,7.424-4.127.9-8.475-1.029-9.467-5.588-1.118-5.137,2.34-8.7,7.651-9.857,7.5-1.632,13.5,1.6,15.411,8.044a12.09,12.09,0,0,1,.575,2.082l-3.87.84a15.724,15.724,0,0,0-.545-1.815,6.774,6.774,0,0,0-6.657-4.9ZM467.6,195.3c1.732-.376,3.437-1.565,3.055-3.324a2.67,2.67,0,0,0-2.163-1.888,4.993,4.993,0,0,0-1.724.134c-2.3.559-4.181,1.905-3.8,3.665.366,1.675,2.582,1.86,4.631,1.413" transform="translate(444.589 178.603)" fill="#fff"/>
    <path id="パス_49830" data-name="パス 49830" d="M480.368,197.715l2.273,4.83-4.429.74.569,3.409-3.7.616-.569-3.407-6.174,1.031c-1.923.321-2.521,1.049-2.315,2.271a4.668,4.668,0,0,0,.368,1.317l-3.956.691a11.356,11.356,0,0,1-.9-3.084c-.842-5.039,3.454-5.846,5.318-6.159l6.818-1.138-.336-2.01,3.7-.618.337,2.01Z" transform="translate(446.779 189.978)" fill="#fff"/>
    <path id="パス_49831" data-name="パス 49831" d="M464.3,223.672l-.6-5.165,9.391-1.086c1.848-.213,3.137-.9,2.96-2.423-.075-.646-.573-2.134-2.891-1.866l-9.948,1.149-.6-5.165,23.621-2.73.6,5.163-8.92,1.031.006.061a5.168,5.168,0,0,1,2.628,3.946c.384,3.316-1.958,5.43-6.535,5.96Z" transform="translate(447.939 199.836)" fill="#fff"/>
    <path id="パス_49832" data-name="パス 49832" d="M481.548,228.528c4.659-.171,6.978,2.667,7.1,6.117a9.665,9.665,0,0,1-.252,2.785l-3.994-.177a5.389,5.389,0,0,0,.152-1.512c-.079-2.153-2.171-2.076-3.411-2.031l.114,3.067-3.748.14-.11-3.039-12.861.47-.189-5.19,12.859-.47-.081-2.212,3.745-.138.081,2.212Z" transform="translate(449.615 219.153)" fill="#fff"/>
    <path id="パス_49833" data-name="パス 49833" d="M465.224,249.939a15.172,15.172,0,0,1-.827-5.505c.087-5.226,3.265-8.127,8.46-8.042,4.753.077,8.871,2.921,8.788,7.879-.061,3.956-2.765,6.718-8.4,6.625a11.951,11.951,0,0,1-2.183-.181l.154-9.389c-1.978.085-2.925,1.842-2.96,4a12.642,12.642,0,0,0,.586,4Zm9.483-3.773c1.476.026,3.342-.417,3.374-2.218.028-1.771-1.909-2.484-3.3-2.592Z" transform="translate(449.655 228.887)" fill="#fff"/>
    <path id="パス_49834" data-name="パス 49834" d="M476.461,258.979a6.869,6.869,0,0,0,1-3.015c.067-1.149-.4-1.769-1.136-1.811-.677-.039-1.12.439-1.992,2.22-1.376,2.817-3.149,3.807-5.271,3.712-3.417-.2-5.242-2.905-5-7.088a9.977,9.977,0,0,1,1.366-4.71l3.663,1.1a8.755,8.755,0,0,0-1.315,3.8c-.075,1.3.331,1.939,1.126,1.984s1.234-.4,2.012-2.041c1.51-3.1,3.423-3.968,5.131-3.868,3.124.179,5.336,2.791,5.109,6.682a10,10,0,0,1-1.128,4.131Z" transform="translate(449.317 240.407)" fill="#fff"/>
    <path id="パス_49835" data-name="パス 49835" d="M466.773,259.242a3.06,3.06,0,0,1,2.905,3.315,3.225,3.225,0,1,1-2.905-3.315" transform="translate(448.553 250.994)" fill="#fff"/>
    <path id="パス_49836" data-name="パス 49836" d="M460.753,288.016a13.25,13.25,0,0,1,.081-4.871c1.26-7.123,6.826-9.617,13.048-8.519,8.054,1.423,10.938,7.33,9.914,13.114a10.461,10.461,0,0,1-1.6,4.334L478.2,290.41a7.816,7.816,0,0,0,1.244-3.137c.571-3.228-1.161-6.322-6.22-7.216-4.681-.827-7.533,1.067-8.174,4.7a10.6,10.6,0,0,0-.053,3.348Z" transform="translate(445.95 265.669)" fill="#fff"/>
    <path id="パス_49837" data-name="パス 49837" d="M465.3,302.018c-6.295-1.472-7.56-6.043-6.732-9.577,1.049-4.484,4.873-6.832,10.074-5.614,5.434,1.27,7.743,5.265,6.7,9.721-1.081,4.627-5.182,6.609-10.04,5.47m6.389-6.446c.445-1.9-1.886-3.078-4.129-3.6-2.7-.632-4.923-.335-5.326,1.392-.384,1.638,1.59,2.917,4.177,3.523,2.385.559,4.875.413,5.279-1.311" transform="translate(443.795 277.414)" fill="#fff"/>
    <rect id="長方形_3520" data-name="長方形 3520" width="5.196" height="23.771" transform="matrix(0.273, -0.962, 0.962, 0.273, 896.833, 592.288)" fill="#fff"/>
    <path id="パス_49838" data-name="パス 49838" d="M458.842,322.176c-6.129-2.051-6.964-6.72-5.81-10.162,1.461-4.367,5.486-6.352,10.552-4.653,5.293,1.769,7.218,5.964,5.765,10.3-1.508,4.507-5.777,6.1-10.507,4.513m6.962-5.824c.618-1.846-1.592-3.24-3.775-3.974-2.632-.88-4.873-.789-5.434.892-.533,1.594,1.313,3.053,3.832,3.9,2.323.779,4.814.866,5.377-.813" transform="translate(438.226 297.021)" fill="#fff"/>
    <path id="パス_49839" data-name="パス 49839" d="M458.406,331.369a5.182,5.182,0,0,0,.571-1.14,2.935,2.935,0,0,0-.858-3.568,4.782,4.782,0,0,0-1.384-.76l-7.757-3.023,1.886-4.842,10.481,4.084c2.037.793,3.626,1.348,5.053,1.84l-1.622,4.155-2.659-.815-.043.108a4.4,4.4,0,0,1,1.46,4.787,5.234,5.234,0,0,1-.478.984Z" transform="translate(434.728 307.942)" fill="#fff"/>
    <path id="パス_49840" data-name="パス 49840" d="M451.5,348.328c-1.242,1.136-2.919,1.207-5.115.728a55.037,55.037,0,0,0-6.472-1.277l2.35-4.832a30.925,30.925,0,0,1,5.44,1.1c2.714.762,3.726.368,4.488-1.2l.441-.9-7.993-3.885,2.262-4.647,20.23,9.839a39.055,39.055,0,0,1-2.273,5.757c-1.331,2.734-4.232,7.956-9.861,5.218a6.005,6.005,0,0,1-3.391-5.852Zm3.988-3.478a3.137,3.137,0,0,0,1.384,4.513,2.859,2.859,0,0,0,4.155-1.456,6.719,6.719,0,0,0,.6-1.579l-5.548-2.7Z" transform="translate(425.947 322.834)" fill="#fff"/>
    <path id="パス_49841" data-name="パス 49841" d="M436.35,349.548l2.49-4.56,14.593,7.964-2.49,4.562Zm17.47,6.576a2.642,2.642,0,1,1,1.033,3.59,2.551,2.551,0,0,1-1.033-3.59" transform="translate(422.501 334.038)" fill="#fff"/>
    <path id="パス_49842" data-name="パス 49842" d="M441.4,366.467a6.857,6.857,0,0,0,2.289-2.208c.593-.986.467-1.752-.167-2.132-.583-.35-1.193-.13-2.795,1.043-2.527,1.858-4.559,1.913-6.4.844-2.937-1.764-3.3-5.009-1.138-8.6a9.961,9.961,0,0,1,3.4-3.541l2.734,2.675a8.8,8.8,0,0,0-2.927,2.755c-.669,1.112-.61,1.874.075,2.283s1.281.216,2.73-.876c2.781-2.049,4.877-1.929,6.346-1.047,2.685,1.612,3.433,4.954,1.427,8.294a10.135,10.135,0,0,1-2.917,3.141Z" transform="translate(418.1 340.702)" fill="#fff"/>
    <path id="パス_49843" data-name="パス 49843" d="M424.787,370.957a15.16,15.16,0,0,1,2.3-5.068c2.913-4.336,7.157-5.043,11.469-2.147,3.946,2.651,5.856,7.277,3.088,11.392-2.2,3.283-5.974,4.131-10.654.986a11.883,11.883,0,0,1-1.732-1.338l5.236-7.794c-1.708-1-3.454-.045-4.657,1.744a12.689,12.689,0,0,0-1.683,3.673Zm10.007,1.992c1.224.823,3.031,1.468,4.037-.028.988-1.47-.252-3.122-1.356-3.966Z" transform="translate(411.305 350.509)" fill="#fff"/>
    <path id="パス_49844" data-name="パス 49844" d="M411.829,389.5l3.261-4.045,7.261,5.858,4.039-5.009-7.259-5.858,3.261-4.041,17.76,14.323-3.261,4.045-6.869-5.543-4.041,5.009,6.871,5.541-3.264,4.043Z" transform="translate(398.758 364.463)" fill="#fff"/>
    <path id="パス_49845" data-name="パス 49845" d="M406.675,399.119a21.624,21.624,0,0,0-3.088-2.447l3.137-3.452,1.378.852.061-.065a5.163,5.163,0,0,1,1.457-4.462,4.905,4.905,0,0,1,7.139-.26c3.256,2.958,2.016,7.135-1.258,10.786.941.854,2,1.053,3.405-.5a8.07,8.07,0,0,0,1.927-3.795l3.13,1.563a12.922,12.922,0,0,1-3.041,5.458c-3.692,4.066-7.184,2.73-9.918.25Zm6.3-1.1c1.449-1.6,2.222-3.368.8-4.659a1.721,1.721,0,0,0-2.616-.02,2.226,2.226,0,0,0,.219,3.23Z" transform="translate(390.777 375.561)" fill="#fff"/>
    <path id="パス_49846" data-name="パス 49846" d="M403.267,411.416a5.2,5.2,0,0,0,.982-.815,2.936,2.936,0,0,0,.644-3.614,4.794,4.794,0,0,0-.96-1.254l-5.895-5.885,3.673-3.679,7.966,7.952c1.547,1.545,2.779,2.693,3.887,3.716l-3.151,3.155-2.112-1.817-.083.085a4.4,4.4,0,0,1-.581,4.972,5.567,5.567,0,0,1-.836.711Z" transform="translate(385.404 383.596)" fill="#fff"/>
    <path id="パス_49847" data-name="パス 49847" d="M384.228,418.405l3.813-3.393,6.159,6.922c1.392,1.565,2.647,2.265,3.706,1.325.9-.8.856-2.146-.262-3.4l-6.649-7.473,3.814-3.391,6.434,7.229c1.077,1.212,2.327,2,3.407,1.035.573-.512,1.153-1.854-.26-3.443l-6.627-7.452,3.813-3.393,7.513,8.444c1.313,1.476,2.533,2.761,3.618,3.889l-3.307,2.943-1.549-1.386-.067.057a5.59,5.59,0,0,1-1.828,4.826,4.22,4.22,0,0,1-4.793.87l-.045.037a5.687,5.687,0,0,1-1.84,5.035c-2.425,2.159-5.4,1.567-8.343-1.742Z" transform="translate(372.033 390.18)" fill="#fff"/>
    <path id="パス_49848" data-name="パス 49848" d="M377.86,428.794c-3.972-5.106-2.084-9.457.783-11.69,3.635-2.828,8.089-2.252,11.373,1.964,3.427,4.407,2.712,8.967-.9,11.78-3.753,2.919-8.19,1.884-11.256-2.055m9.026-1c1.537-1.2.466-3.582-.947-5.4-1.706-2.191-3.622-3.356-5.021-2.269-1.329,1.035-.6,3.273,1.035,5.369,1.506,1.935,3.535,3.387,4.932,2.3" transform="translate(363.672 402.176)" fill="#fff"/>
    <path id="パス_49849" data-name="パス 49849" d="M363.9,430.166l4.271-2.96,5.5,7.934c.992,1.433,2.151,2.175,3.366,1.332.9-.622,1.39-1.933.179-3.681l-5.551-8.007,4.271-2.96,6.442,9.292c1.126,1.628,2.183,3.049,3.124,4.3l-3.665,2.539-1.411-1.573-.075.053a5.489,5.489,0,0,1-2.405,4.612c-2.864,1.986-5.822.982-8.277-2.561Z" transform="translate(352.346 408.437)" fill="#fff"/>
    <path id="パス_49850" data-name="パス 49850" d="M359.745,453.428l-3.094-11.957c-1.218-5.245-1.506-8.359-.933-10.863a9.061,9.061,0,0,1,2.665-4.515l3.4,3.106c-1.6,1.506-2.234,4.423-1.722,5.253a1.853,1.853,0,0,0,.561.52l12.622,10.15-4.85,2.986-5.928-5.917c-.7-.681-1.455-1.462-2.043-2.14l-.077.047c.313.846.72,1.844,1.049,2.716l2.925,7.8Z" transform="translate(344.154 412.569)" fill="#fff"/>
    <rect id="長方形_3521" data-name="長方形 3521" width="13.59" height="13.589" transform="matrix(0.315, -0.949, 0.949, 0.315, 664.786, 880.736)" fill="#fff"/>
    <path id="パス_49851" data-name="パス 49851" d="M318.936,451.975l4.826-1.935,3.517,8.774c.693,1.728,1.693,2.791,3.118,2.22.6-.244,1.909-1.116,1.041-3.281l-3.728-9.3,4.826-1.937,8.849,22.074-4.826,1.935-3.342-8.336-.053.022a5.181,5.181,0,0,1-3.12,3.574c-3.1,1.242-5.755-.463-7.47-4.74Z" transform="translate(308.813 432.349)" fill="#fff"/>
    <path id="パス_49852" data-name="パス 49852" d="M308.453,463.112c-2.059-6.129,1.165-9.611,4.608-10.766,4.366-1.466,8.377.551,10.077,5.617,1.775,5.289-.407,9.357-4.747,10.814-4.505,1.512-8.349-.935-9.938-5.665m8.847,2.045c1.846-.62,1.626-3.226.894-5.409-.884-2.632-2.309-4.366-3.986-3.8-1.6.537-1.647,2.889-.8,5.409.781,2.325,2.214,4.366,3.9,3.8" transform="translate(298.037 437.536)" fill="#fff"/>
    <rect id="長方形_3522" data-name="長方形 3522" width="5.196" height="23.761" transform="matrix(0.961, -0.275, 0.275, 0.961, 589.142, 896.986)" fill="#fff"/>
    <path id="パス_49853" data-name="パス 49853" d="M287.925,468.225c-1.488-6.3,2.043-9.465,5.578-10.3,4.484-1.059,8.292,1.319,9.52,6.521,1.283,5.434-1.268,9.282-5.722,10.333-4.627,1.092-8.231-1.7-9.377-6.554m8.623,2.848c1.9-.449,1.917-3.063,1.388-5.3-.638-2.7-1.9-4.56-3.622-4.153-1.638.388-1.905,2.726-1.293,5.314.563,2.384,1.8,4.549,3.527,4.141" transform="translate(278.448 443.152)" fill="#fff"/>
    <rect id="長方形_3523" data-name="長方形 3523" width="5.196" height="23.765" transform="matrix(0.983, -0.185, 0.185, 0.983, 549.456, 906.127)" fill="#fff"/>
    <path id="パス_49854" data-name="パス 49854" d="M271.14,462.063l5.137-.776,2.486,16.433-5.137.779Zm5.332,17.886a2.642,2.642,0,1,1-2.234,3,2.551,2.551,0,0,1,2.234-3" transform="translate(262.534 446.647)" fill="#fff"/>
    <path id="パス_49855" data-name="パス 49855" d="M259.413,480.266l3.618-17.108,4.993-.531,7.129,15.935-5.58.594-2.415-7.08c-.478-1.405-.856-2.732-1.25-4.2l-.089.008c-.043,1.549-.144,2.838-.307,4.372L264.7,479.7Z" transform="translate(251.179 447.944)" fill="#fff"/>
    <path id="パス_49856" data-name="パス 49856" d="M247.551,464.8a15.239,15.239,0,0,1,5.438-1.2c5.218-.277,8.334,2.693,8.609,7.885.252,4.747-2.3,9.052-7.257,9.316-3.952.209-6.895-2.3-7.192-7.93a11.771,11.771,0,0,1,.032-2.189l9.379-.5c-.222-1.97-2.039-2.789-4.194-2.677a12.626,12.626,0,0,0-3.946.86Zm4.421,9.2c.077,1.476.648,3.309,2.447,3.214,1.771-.095,2.346-2.077,2.36-3.468Z" transform="translate(239.273 448.864)" fill="#fff"/>
    <path id="パス_49857" data-name="パス 49857" d="M229.518,481.755a8.858,8.858,0,0,0,3.988,1.059c2.01.057,3.011-.89,3.043-2.012.035-1.27-.892-1.917-3.63-3.265-3.586-1.728-5.027-4.013-4.946-6.847.118-4.161,3.362-7.025,8.883-6.867a13.193,13.193,0,0,1,5.6,1.34l-1.01,4.344a11.727,11.727,0,0,0-4.925-1.323c-2.187-.061-3.275.854-3.315,2.212-.039,1.388.972,2.185,3.3,3.315,3.553,1.756,5.35,4.053,5.271,6.769-.108,3.866-3.147,6.824-8.432,6.672a11.471,11.471,0,0,1-4.932-1.146Z" transform="translate(220.734 449.095)" fill="#fff"/>
    <path id="パス_49858" data-name="パス 49858" d="M214.7,472.2c.557-6.5,3.787-9.6,9.225-9.131,5.529.474,7.887,4.053,7.324,10.611l-1.124,13.113-5.177-.445,1.179-13.731c.3-3.5-.744-5.129-2.655-5.293-1.97-.169-3.238,1.144-3.549,4.759l-1.177,13.733-5.176-.445Z" transform="translate(206.79 448.329)" fill="#fff"/>
    <path id="パス_49859" data-name="パス 49859" d="M214.2,484.8a35.644,35.644,0,0,1-6.147-.419c-2.982-.435-5.1-1.252-6.432-2.758a6.751,6.751,0,0,1-1.52-5.537c.915-6.281,6.243-7,9.778-6.481.5.073.931.165,1.279.246l1.175-8.064,5.116.744Zm-3.631-10.916c-.317-.075-.634-.152-1.159-.228-2.4-.35-3.891.9-4.19,2.941a3.01,3.01,0,0,0,2.834,3.7,5.822,5.822,0,0,0,1.573.049Z" transform="translate(193.666 447.134)" fill="#fff"/>
    <path id="パス_49860" data-name="パス 49860" d="M191.724,458.836l12.7,2.573-4.529,22.355-12.26-2.484.858-4.251,7.174,1.453.907-4.484-6.8-1.376.842-4.163,6.8,1.376,1.055-5.208-7.607-1.539Z" transform="translate(181.676 444.273)" fill="#fff"/>
    <path id="パス_49861" data-name="パス 49861" d="M180.218,467.059c-1.356-.994-1.754-2.624-1.718-4.869a54.381,54.381,0,0,0-.02-6.6l5.2,1.358a30.6,30.6,0,0,1-.012,5.547c-.215,2.813.37,3.728,2.055,4.167l.97.252,2.244-8.6,5,1.3-5.676,21.765a39.423,39.423,0,0,1-6.088-1.1c-2.943-.77-8.629-2.586-7.05-8.643a6,6,0,0,1,5.07-4.472Zm4.192,3.23a3.135,3.135,0,0,0-4.153,2.242,2.859,2.859,0,0,0,2.244,3.787,6.619,6.619,0,0,0,1.667.284l1.555-5.97Z" transform="translate(169.297 441.134)" fill="#fff"/>
    <path id="パス_49862" data-name="パス 49862" d="M162.763,449.857l12.209,4.338-7.639,21.5L155.542,471.5l1.453-4.088,6.9,2.45,1.533-4.31-6.537-2.323,1.423-4.005,6.535,2.323,1.781-5.007-7.316-2.6Z" transform="translate(150.605 435.578)" fill="#fff"/>
    <path id="パス_49863" data-name="パス 49863" d="M151.1,444.861l5.31,2.224L156.4,451.4c.014,1.575-.018,2.874-.091,4.348l.083.035c.915-1.122,1.815-2.12,2.854-3.224l2.889-3.078,5.151,2.155-9.554,8.586.541,12.394-5.285-2.214.1-4.283c.024-1.433.112-2.643.195-3.986l-.081-.033c-.957,1.136-1.667,1.992-2.576,3.019l-2.864,3.09-5.177-2.167,9.361-8.278Z" transform="translate(138.056 430.741)" fill="#fff"/>
    <path id="パス_49864" data-name="パス 49864" d="M143.224,464.209a35.351,35.351,0,0,1-5.73-2.269c-2.708-1.321-4.478-2.742-5.289-4.584a6.738,6.738,0,0,1,.232-5.733c2.783-5.708,8.076-4.771,11.288-3.2.453.22.837.441,1.142.624l3.574-7.33,4.645,2.266Zm-.142-11.5a11.255,11.255,0,0,0-1.035-.571c-2.179-1.063-3.98-.331-4.887,1.527a3.008,3.008,0,0,0,1.577,4.383,5.9,5.9,0,0,0,1.486.526Z" transform="translate(127.493 427.692)" fill="#fff"/>
    <path id="パス_49865" data-name="パス 49865" d="M121.212,441.3c3.9-6.914,9.286-8.589,14.3-5.761,5.476,3.09,5.482,9.33,2.405,14.78-3.163,5.606-8.873,8.517-14.221,5.5-5.785-3.263-5.212-9.686-2.484-14.518m11.906,6.413c2.173-3.791,2.423-7.241.136-8.532s-5.009.768-7.2,4.649c-1.958,3.47-2.441,7.029-.126,8.334,2.415,1.364,5.259-1.031,7.188-4.45" transform="translate(115.436 420.447)" fill="#fff"/>
    <path id="パス_49866" data-name="パス 49866" d="M112.35,422.364l11.8,8.113-1.838,2.675-3.73.838c-5.48,1.142-8.891,1.986-10.43,4.224A2.943,2.943,0,0,0,109,442.6a7.312,7.312,0,0,0,4.163,1.035l-1.022,3.882a11.562,11.562,0,0,1-6.367-2.049c-4.161-2.86-4.277-6.7-2.153-9.79,2.226-3.238,6.106-4.295,9.908-4.978l2.576-.413.033-.047-6.251-4.3Z" transform="translate(99.021 408.959)" fill="#fff"/>
    <path id="パス_49867" data-name="パス 49867" d="M107.653,431.37c-3.856,5-8.926,7.759-13.181,4.48-4.58-3.533-2.372-9.245,1.035-13.662,4.468-5.795,9.341-7.475,13.128-4.557,4.531,3.5,2.46,9.274-.982,13.738m-7.981-6.08c-2.937,3.809-3.938,6.314-2.653,7.306,1.216.937,3.368-.309,6.485-4.352s3.846-6.387,2.561-7.377c-.982-.758-2.661-.413-6.393,4.423" transform="translate(88.96 403.015)" fill="#fff"/>
    <path id="パス_49868" data-name="パス 49868" d="M93.93,406.971l10.853,9.351-2.12,2.46-3.8.429c-5.572.539-9.056,1.008-10.829,3.067a2.944,2.944,0,0,0,.372,4.454,7.318,7.318,0,0,0,4.025,1.48l-1.437,3.752a11.644,11.644,0,0,1-6.109-2.728c-3.826-3.3-3.525-7.133-1.077-9.975,2.565-2.976,6.541-3.606,10.394-3.872l2.608-.13.037-.045L91.1,410.26Z" transform="translate(79.379 394.054)" fill="#fff"/>
    <path id="パス_49869" data-name="パス 49869" d="M71.438,413.716,74.4,410.63l5.324,5.112,2.752-2.267c-.276-.224-.529-.429-.785-.675-2.513-2.411-4.1-6.6-.541-10.3,2.945-3.066,7.865-3.456,11.91.429a12.891,12.891,0,0,1,3.139,4.529l-3.379,2.2a10.131,10.131,0,0,0-2.326-3.545c-1.512-1.455-3.755-1.888-5.31-.27-1.738,1.809-1.149,4.094,1.427,6.57a14.025,14.025,0,0,0,1.785,1.51l-8.973,7.467Z" transform="translate(69.171 387.404)" fill="#fff"/>
    <rect id="長方形_3524" data-name="長方形 3524" width="13.589" height="13.588" transform="translate(117.926 774.605) rotate(-86.105)" fill="#fff"/>
    <path id="パス_49870" data-name="パス 49870" d="M60.551,368.935l3.08,4.181-7.6,5.6c-1.5,1.1-2.273,2.336-1.362,3.572.384.522,1.557,1.565,3.433.181l8.054-5.936,3.08,4.181L50.111,394.812l-3.08-4.181,7.222-5.322-.035-.047a5.173,5.173,0,0,1-4.238-2.118c-1.978-2.687-1-5.682,2.708-8.414Z" transform="translate(45.538 357.225)" fill="#fff"/>
    <path id="パス_49871" data-name="パス 49871" d="M45.247,361.454c5.415-3.539,9.6-1.3,11.583,1.742,2.519,3.856,1.581,8.247-2.893,11.17-4.673,3.055-9.158,1.966-11.664-1.866-2.6-3.978-1.2-8.316,2.974-11.046m.254,9.078c1.067,1.632,3.533.762,5.46-.5,2.325-1.517,3.643-3.332,2.673-4.816-.921-1.409-3.21-.866-5.436.59-2.051,1.34-3.665,3.242-2.7,4.726" transform="translate(39.658 348.232)" fill="#fff"/>
    <rect id="長方形_3525" data-name="長方形 3525" width="23.76" height="5.195" transform="translate(63.61 704.057) rotate(-30.588)" fill="#fff"/>
    <path id="パス_49872" data-name="パス 49872" d="M35.144,342.9c5.71-3.031,9.668-.421,11.371,2.785,2.161,4.066.827,8.351-3.891,10.857-4.927,2.616-9.294,1.126-11.441-2.913-2.228-4.2-.443-8.389,3.962-10.729m-.569,9.06c.913,1.72,3.446,1.079,5.48,0,2.45-1.3,3.927-2.99,3.1-4.553-.789-1.486-3.118-1.151-5.464.095-2.165,1.147-3.942,2.9-3.112,4.46" transform="translate(29.263 330.719)" fill="#fff"/>
    <rect id="長方形_3526" data-name="長方形 3526" width="23.771" height="5.197" transform="translate(43.693 666.013) rotate(-25.284)" fill="#fff"/>
    <path id="パス_49873" data-name="パス 49873" d="M24.228,335.479a2.642,2.642,0,1,1-4.854,2.086,2.642,2.642,0,1,1,4.854-2.086M40.178,325.8l2.051,4.773-15.268,6.562-2.051-4.775Z" transform="translate(18.519 315.456)" fill="#fff"/>
    <path id="パス_49874" data-name="パス 49874" d="M17.281,317.349l17.462-.809,1.771,4.7L22.894,332.15l-1.98-5.251,6.241-4.12c1.238-.815,2.427-1.518,3.753-2.269l-.033-.085c-1.508.348-2.781.577-4.3.805l-7.416,1.09Z" transform="translate(16.733 306.493)" fill="#fff"/>
    <path id="パス_49875" data-name="パス 49875" d="M28.333,303.413a15.244,15.244,0,0,1,2.537,4.958c1.584,4.98-.5,8.743-5.456,10.318-4.531,1.443-9.337.057-10.845-4.671-1.2-3.769.484-7.247,5.858-8.96a11.947,11.947,0,0,1,2.132-.52l2.842,8.95c1.85-.715,2.185-2.681,1.531-4.734a12.614,12.614,0,0,0-1.825-3.6Zm-7.784,6.6c-1.407.449-3.037,1.462-2.494,3.179.539,1.689,2.6,1.746,3.95,1.409Z" transform="translate(13.752 293.783)" fill="#fff"/>
    <path id="パス_49876" data-name="パス 49876" d="M16.9,296.314a5.428,5.428,0,0,1-2.553-3.631c-.746-3.283,1.161-6.474,5.57-7.476,4.118-.937,8.483.949,9.52,5.5,1.163,5.125-2.26,8.723-7.558,9.928-7.489,1.7-13.51-1.472-15.486-7.9a11.947,11.947,0,0,1-.594-2.074l3.86-.88a15.725,15.725,0,0,0,.563,1.811,6.771,6.771,0,0,0,6.7,4.838Zm4.307-6.1c-1.728.394-3.423,1.6-3.023,3.354a2.664,2.664,0,0,0,2.181,1.866,4.956,4.956,0,0,0,1.722-.15c2.291-.581,4.163-1.945,3.761-3.7-.378-1.669-2.6-1.832-4.641-1.368" transform="translate(5.613 275.928)" fill="#fff"/>
    <path id="パス_49877" data-name="パス 49877" d="M7.107,286.432l-2.313-4.807,4.419-.777-.6-3.4,3.692-.65.6,3.4,6.163-1.083c1.921-.339,2.512-1.071,2.295-2.291a4.664,4.664,0,0,0-.38-1.313l3.95-.722a11.508,11.508,0,0,1,.927,3.073c.886,5.029-3.4,5.873-5.263,6.2l-6.8,1.193.352,2.008-3.692.648-.352-2.006Z" transform="translate(4.642 266.07)" fill="#fff"/>
    <path id="パス_49878" data-name="パス 49878" d="M24.386,262.431l.646,5.153-9.371,1.173c-1.844.23-3.126.927-2.935,2.448.079.644.592,2.126,2.907,1.838l9.926-1.242.646,5.153L2.631,279.9l-.646-5.153,8.9-1.114-.008-.059a5.175,5.175,0,0,1-2.663-3.919c-.413-3.311,1.907-5.444,6.476-6.015Z" transform="translate(1.922 254.102)" fill="#fff"/>
    <path id="パス_49879" data-name="パス 49879" d="M7.179,254.563c-4.661.213-7.007-2.6-7.164-6.054a9.675,9.675,0,0,1,.228-2.789l4,.142a5.373,5.373,0,0,0-.138,1.514c.1,2.151,2.193,2.057,3.431,2l-.142-3.067,3.748-.171.138,3.037,12.859-.589.238,5.19-12.859.588.1,2.21-3.746.173-.1-2.212Z" transform="translate(0 237.921)" fill="#fff"/>
    <path id="パス_49880" data-name="パス 49880" d="M19.891,234.8a15.175,15.175,0,0,1,.827,5.505c-.087,5.226-3.263,8.127-8.46,8.042-4.753-.077-8.869-2.921-8.788-7.879.063-3.956,2.767-6.718,8.4-6.625a11.97,11.97,0,0,1,2.185.181l-.155,9.389c1.98-.085,2.925-1.842,2.96-4a12.642,12.642,0,0,0-.587-4Zm-9.481,3.773c-1.476-.026-3.344.417-3.374,2.218-.03,1.771,1.909,2.484,3.295,2.592Z" transform="translate(3.358 226.422)" fill="#fff"/>
    <path id="パス_49881" data-name="パス 49881" d="M8.464,224.506a6.84,6.84,0,0,0-.978,3.025c-.057,1.151.413,1.766,1.151,1.8.679.033,1.116-.447,1.974-2.238,1.352-2.83,3.118-3.836,5.243-3.759,3.421.171,5.267,2.864,5.058,7.052a9.966,9.966,0,0,1-1.331,4.724l-3.671-1.069a8.82,8.82,0,0,0,1.285-3.811c.063-1.3-.348-1.939-1.146-1.98s-1.232.411-1.994,2.059c-1.486,3.12-3.393,4-5.1,3.915-3.126-.155-5.364-2.75-5.169-6.645a10.091,10.091,0,0,1,1.094-4.143Z" transform="translate(3.654 216.244)" fill="#fff"/>
    <path id="パス_49882" data-name="パス 49882" d="M12.866,221.342a3.058,3.058,0,0,1-2.933-3.291,2.971,2.971,0,0,1,3.476-2.706,2.956,2.956,0,0,1,2.935,3.289,2.99,2.99,0,0,1-3.478,2.708" transform="translate(9.606 208.493)" fill="#fff"/>
    <path id="パス_49883" data-name="パス 49883" d="M27.023,198.159a13.227,13.227,0,0,1-.037,4.877c-1.191,7.137-6.735,9.682-12.971,8.641C5.945,210.33,3,204.449,3.972,198.653A10.489,10.489,0,0,1,5.537,194.3l4.011,1.628a7.82,7.82,0,0,0-1.214,3.153c-.541,3.232,1.22,6.312,6.289,7.157,4.69.785,7.527-1.138,8.135-4.779a10.573,10.573,0,0,0,.022-3.35Z" transform="translate(3.674 188.134)" fill="#fff"/>
    <path id="パス_49884" data-name="パス 49884" d="M19.3,183.342c6.306,1.421,7.609,5.982,6.812,9.524-1.012,4.492-4.818,6.873-10.03,5.7C10.64,197.34,8.3,193.362,9.3,188.9c1.045-4.637,5.129-6.653,10-5.556m-6.338,6.5c-.429,1.9,1.913,3.065,4.159,3.57,2.706.61,4.927.293,5.316-1.435.37-1.641-1.614-2.907-4.206-3.49-2.391-.539-4.881-.374-5.269,1.354" transform="translate(8.788 177.24)" fill="#fff"/>
    <rect id="長方形_3527" data-name="長方形 3527" width="5.196" height="23.766" transform="translate(15.947 346.327) rotate(-74.669)" fill="#fff"/>
    <path id="パス_49885" data-name="パス 49885" d="M25.554,163.223c6.151,1.992,7.029,6.653,5.911,10.107-1.421,4.379-5.426,6.4-10.511,4.755-5.306-1.72-7.273-5.9-5.863-10.247,1.466-4.521,5.718-6.153,10.463-4.616m-6.9,5.891c-.6,1.852,1.622,3.226,3.813,3.937,2.639.856,4.879.742,5.425-.943.52-1.6-1.34-3.041-3.868-3.86-2.33-.756-4.824-.817-5.369.866" transform="translate(14.184 157.497)" fill="#fff"/>
    <path id="パス_49886" data-name="パス 49886" d="M26.007,153.568a5.351,5.351,0,0,0-.561,1.146,2.938,2.938,0,0,0,.892,3.561,4.794,4.794,0,0,0,1.39.748l7.783,2.954-1.844,4.858-10.516-3.992c-2.041-.777-3.637-1.319-5.064-1.8l1.581-4.167,2.669.791.041-.112a4.392,4.392,0,0,1-1.5-4.769,5.108,5.108,0,0,1,.47-.99Z" transform="translate(17.511 146.981)" fill="#fff"/>
    <path id="パス_49887" data-name="パス 49887" d="M37.6,139.708c1.232-1.148,2.907-1.234,5.11-.777a54.141,54.141,0,0,0,6.481,1.216L46.883,145a30.865,30.865,0,0,1-5.45-1.053c-2.722-.738-3.732-.335-4.478,1.238l-.431.907,8.027,3.814-2.218,4.669-20.322-9.66a39.329,39.329,0,0,1,2.222-5.775c1.307-2.748,4.159-8,9.814-5.308a6.006,6.006,0,0,1,3.444,5.82Zm-3.958,3.513a3.138,3.138,0,0,0-1.425-4.5,2.86,2.86,0,0,0-4.141,1.5,6.676,6.676,0,0,0-.59,1.582l5.574,2.649Z" transform="translate(21.311 128.867)" fill="#fff"/>
    <path id="パス_49888" data-name="パス 49888" d="M32.875,128.739a2.643,2.643,0,1,1-1.065-3.584,2.556,2.556,0,0,1,1.065,3.584M50.4,135.171l-2.452,4.582-14.66-7.845,2.452-4.582Z" transform="translate(26.982 120.841)" fill="#fff"/>
    <path id="パス_49889" data-name="パス 49889" d="M42.169,119.367a6.855,6.855,0,0,0-2.269,2.226c-.585.992-.453,1.754.183,2.13.585.346,1.2.122,2.785-1.065,2.513-1.878,4.543-1.951,6.391-.9,2.95,1.74,3.336,4.982,1.209,8.593a9.988,9.988,0,0,1-3.37,3.568l-2.756-2.653a8.793,8.793,0,0,0,2.9-2.777c.659-1.12.594-1.878-.094-2.283s-1.281-.209-2.722.9c-2.763,2.073-4.86,1.968-6.334,1.1-2.7-1.586-3.474-4.925-1.5-8.282a10.057,10.057,0,0,1,2.891-3.161Z" transform="translate(34.365 113.055)" fill="#fff"/>
    <path id="パス_49890" data-name="パス 49890" d="M59.637,114.159a15.163,15.163,0,0,1-2.252,5.09c-2.872,4.366-7.105,5.112-11.445,2.256-3.97-2.61-5.922-7.216-3.2-11.357,2.171-3.3,5.93-4.186,10.64-1.09a11.869,11.869,0,0,1,1.746,1.325l-5.159,7.84c1.718.988,3.456.012,4.639-1.787a12.616,12.616,0,0,0,1.645-3.687Zm-10.022-1.893c-1.232-.811-3.045-1.437-4.035.065-.972,1.48.281,3.118,1.392,3.954Z" transform="translate(40.16 103.745)" fill="#fff"/>
    <path id="パス_49891" data-name="パス 49891" d="M77.476,101.026,74.25,105.1l-7.316-5.789-4,5.049,7.318,5.789-3.224,4.076-17.9-14.162,3.224-4.076,6.924,5.48,3.994-5.051-6.922-5.476,3.222-4.076Z" transform="translate(47.573 84.108)" fill="#fff"/>
    <path id="パス_49892" data-name="パス 49892" d="M78.592,86.543A21.806,21.806,0,0,0,81.7,88.958L78.6,92.44,77.21,91.6l-.057.069a5.165,5.165,0,0,1-1.417,4.472,4.9,4.9,0,0,1-7.133.327c-3.285-2.925-2.084-7.115,1.155-10.794-.947-.844-2.006-1.035-3.4.529a8.075,8.075,0,0,0-1.891,3.813L61.326,88.48a12.916,12.916,0,0,1,2.986-5.486c3.655-4.1,7.159-2.8,9.916-.34ZM72.3,87.7c-1.435,1.608-2.189,3.389-.756,4.665a1.72,1.72,0,0,0,2.614,0,2.22,2.22,0,0,0-.25-3.226Z" transform="translate(59.38 77.802)" fill="#fff"/>
    <path id="パス_49893" data-name="パス 49893" d="M79.514,74.852a5.206,5.206,0,0,0-.974.823,2.934,2.934,0,0,0-.61,3.618,4.807,4.807,0,0,0,.972,1.244l5.946,5.826-3.637,3.71L73.178,82.2c-1.561-1.527-2.8-2.663-3.919-3.675l3.12-3.185,2.126,1.8.083-.085a4.4,4.4,0,0,1,.535-4.974,5.346,5.346,0,0,1,.827-.716Z" transform="translate(67.061 69.095)" fill="#fff"/>
    <path id="パス_49894" data-name="パス 49894" d="M104.912,71.21l-3.789,3.429L94.9,67.765c-1.407-1.555-2.669-2.246-3.72-1.293-.9.813-.838,2.155.291,3.4L98.19,77.3,94.4,80.724l-6.5-7.18c-1.088-1.2-2.348-1.978-3.421-1.006-.569.516-1.138,1.866.289,3.442l6.7,7.4L87.68,86.81l-7.59-8.385c-1.329-1.468-2.563-2.742-3.657-3.862l3.285-2.974,1.563,1.376.065-.061a5.6,5.6,0,0,1,1.789-4.846,4.222,4.222,0,0,1,4.791-.911l.045-.041a5.675,5.675,0,0,1,1.8-5.053c2.407-2.183,5.391-1.616,8.365,1.669Z" transform="translate(74.007 58.824)" fill="#fff"/>
    <path id="パス_49895" data-name="パス 49895" d="M105.289,56.466c4.017,5.064,2.171,9.432-.675,11.691-3.608,2.862-8.062,2.326-11.384-1.86-3.468-4.37-2.795-8.936.789-11.78,3.724-2.954,8.168-1.958,11.27,1.949M96.275,57.55c-1.525,1.21-.433,3.584,1,5.389,1.726,2.175,3.651,3.32,5.039,2.218,1.319-1.045.567-3.275-1.083-5.356-1.525-1.919-3.566-3.354-4.954-2.252" transform="translate(88.065 51.125)" fill="#fff"/>
    <path id="パス_49896" data-name="パス 49896" d="M121.717,56.461l-4.244,3-5.568-7.883c-1.006-1.425-2.173-2.155-3.378-1.3-.892.632-1.372,1.947-.148,3.685L114,61.911l-4.244,3-6.523-9.235c-1.142-1.618-2.212-3.029-3.161-4.273l3.641-2.573,1.425,1.559.073-.049a5.5,5.5,0,0,1,2.366-4.635c2.846-2.01,5.814-1.031,8.3,2.49Z" transform="translate(96.896 43.251)" fill="#fff"/>
    <path id="パス_49897" data-name="パス 49897" d="M123.847,36.675l3.193,11.934c1.262,5.24,1.575,8.353,1.022,10.859a9.088,9.088,0,0,1-2.626,4.539l-3.431-3.08c1.592-1.518,2.2-4.442,1.683-5.267a1.839,1.839,0,0,0-.567-.516L110.412,45.091l4.828-3.025,5.978,5.871c.7.675,1.466,1.451,2.063,2.124l.075-.049c-.321-.842-.734-1.838-1.071-2.708l-2.99-7.777Z" transform="translate(106.908 35.511)" fill="#fff"/>
    <rect id="長方形_3528" data-name="長方形 3528" width="13.58" height="13.58" transform="matrix(0.307, -0.952, 0.952, 0.307, 252.571, 65.907)" fill="#fff"/>
  </g>
</svg>
