<svg id="グループ_12207" data-name="グループ 12207" xmlns="http://www.w3.org/2000/svg" xmlns:xlink="http://www.w3.org/1999/xlink" width="143.477" height="112.082" viewBox="0 0 143.477 112.082">
  <defs>
    <clipPath id="clip-path">
      <rect id="長方形_3514" data-name="長方形 3514" width="143.477" height="112.082" fill="#93f7f8"/>
    </clipPath>
  </defs>
  <g id="グループ_12206" data-name="グループ 12206" clip-path="url(#clip-path)">
    <path id="パス_49798" data-name="パス 49798" d="M142.346,17.785c-4.635-7.9-20.681-4.948-33.321-1.094l-3.4,1.038,2.592,2.424a53.365,53.365,0,0,1,9.387,11.666l.77,1.335-.012.008.1,1.362c.737,9.768-16.9,29.407-37.007,41.206,0,0-.008,0-.012,0A113.98,113.98,0,0,1,46.669,89c-11.03,2.043-18.926.99-21.11-2.732L24.085,83.43a54.008,54.008,0,0,1-4.223-11.466l-.853-3.438-2.556,2.448C6.906,80.128-3.494,92.693,1.136,100.585c2.155,3.678,6.8,4.988,12.324,4.988,5.581,0,12.055-1.338,17.749-2.916,15.2-4.211,33.774-12.512,52.311-23.382s34.852-23.029,45.949-34.234c8.265-8.353,17.212-19.86,12.877-27.256" transform="translate(0 -3.161)" fill="#93f7f8"/>
    <path id="パス_49799" data-name="パス 49799" d="M30.366,45a24.042,24.042,0,0,0-20.4-20.4.321.321,0,0,1,0-.639,24.043,24.043,0,0,0,20.4-20.4.321.321,0,0,1,.639,0,24.042,24.042,0,0,0,20.4,20.4.321.321,0,0,1,0,.639A24.041,24.041,0,0,0,31.006,45a.321.321,0,0,1-.639,0" transform="translate(-2.388 -0.807)" fill="#93f7f8"/>
    <path id="パス_49800" data-name="パス 49800" d="M145.735,131.445a24.041,24.041,0,0,0-20.4-20.4.321.321,0,0,1,0-.639,24.042,24.042,0,0,0,20.4-20.4.321.321,0,0,1,.639,0,24.042,24.042,0,0,0,20.4,20.4.321.321,0,0,1,0,.639,24.041,24.041,0,0,0-20.4,20.4.321.321,0,0,1-.639,0" transform="translate(-30.872 -22.149)" fill="#93f7f8"/>
    <path id="パス_49801" data-name="パス 49801" d="M50.992,14.457a52.923,52.923,0,0,1,82.557,59.6,20.15,20.15,0,0,0,2.082,3.14A56.018,56.018,0,0,0,48.846,12.225a19.955,19.955,0,0,0,2.146,2.231" transform="translate(-12.06 0)" fill="#93f7f8"/>
    <path id="パス_49802" data-name="パス 49802" d="M109.7,109.015a52.922,52.922,0,0,1-82.554-59.6,20.157,20.157,0,0,0-2.083-3.14,56.018,56.018,0,0,0,86.783,64.971,19.959,19.959,0,0,0-2.146-2.231" transform="translate(-5.155 -11.425)" fill="#93f7f8"/>
    <path id="パス_49803" data-name="パス 49803" d="M110.938,62.432,80.278,44.724a5.156,5.156,0,0,0-7.733,4.467V84.6a5.141,5.141,0,0,0,7.733,4.467l30.661-17.7a5.151,5.151,0,0,0,0-8.927" transform="translate(-17.911 -10.87)" fill="#93f7f8"/>
  </g>
</svg>
