<svg xmlns="http://www.w3.org/2000/svg" width="2220.505" height="1647.453" viewBox="0 0 2220.505 1647.453">
  <g id="グループ_12221" data-name="グループ 12221" transform="translate(4027.126 3400.868)">
    <path id="パス_21748" data-name="パス 21748" d="M4.1,50.472a74.716,74.716,0,0,1,94.929-46.4c.045.017.089.031.137.048L609.553,180A74.809,74.809,0,0,1,634.247,307.19L226.716,661.252a74.8,74.8,0,0,1-122.494-42.213L61.758,400.292a58.523,58.523,0,1,1,114.9-22.327l28.529,146.95L502.244,266.822,130.19,138.607,140.434,191.4A58.515,58.515,0,1,1,25.548,213.7L1.355,89.09a74.87,74.87,0,0,1,2.739-38.6" transform="matrix(0.951, -0.309, 0.309, 0.951, -4025.766, -2514.846)" fill="#ceffff" stroke="#88dfff" stroke-miterlimit="4.002" stroke-width="2"/>
    <path id="パス_21756" data-name="パス 21756" d="M1918.283,1194.862a86.918,86.918,0,0,1,81.3-79.884,511.8,511.8,0,0,1,230.887,40.642,511.956,511.956,0,0,1-189.608-137.875,86.936,86.936,0,0,1,1.006-113.99A511.775,511.775,0,0,1,2233.89,769.25a511.868,511.868,0,0,1-231.572,36.607,86.933,86.933,0,0,1-79.895-81.308,511.944,511.944,0,0,1,40.628-230.909,511.809,511.809,0,0,1-137.875,189.609,86.917,86.917,0,0,1-113.975-1,511.634,511.634,0,0,1-134.508-192.025A512.081,512.081,0,0,1,1613.3,721.8a86.931,86.931,0,0,1-81.305,79.895,511.923,511.923,0,0,1-230.917-40.631,511.81,511.81,0,0,1,189.608,137.875,86.916,86.916,0,0,1-1,113.979,511.951,511.951,0,0,1-192.021,134.509,511.922,511.922,0,0,1,231.572-36.61,86.921,86.921,0,0,1,79.905,81.312,511.814,511.814,0,0,1-40.641,230.888A511.938,511.938,0,0,1,1706.373,1233.4a86.93,86.93,0,0,1,113.985,1,512.1,512.1,0,0,1,134.509,192.025,511.618,511.618,0,0,1-36.607-231.572" transform="translate(-4040.89 -3180.224)" fill="#ceffff" stroke="#88dfff" stroke-linecap="round" stroke-miterlimit="4.002" stroke-width="2"/>
    <g id="グループ_12216" data-name="グループ 12216" transform="translate(-3995.766 -3305.888)">
      <path id="パス_21770" data-name="パス 21770" d="M199.18,253.484l92.364,47.064a32.891,32.891,0,0,0,44.231-14.365l77.8-152.683A32.89,32.89,0,0,0,399.2,89.272L306.832,42.209a32.888,32.888,0,0,0-44.225,14.371L184.831,209.222A32.887,32.887,0,0,0,199.2,253.446" transform="translate(164.074 -38.62)" fill="#ceffff" stroke="#88dfff" stroke-miterlimit="3.999" stroke-width="2"/>
      <path id="パス_21772" data-name="パス 21772" d="M292.648,373.893,195.586,564.382a32.89,32.89,0,0,0,14.352,44.225l92.386,47.073A32.889,32.889,0,0,0,346.551,641.3l97.062-190.486a32.881,32.881,0,0,1,44.225-14.371l190.486,97.062a32.887,32.887,0,0,0,44.225-14.368l47.067-92.373a32.88,32.88,0,0,0-14.368-44.225L164.706,81.637a32.881,32.881,0,0,0-44.225,14.371L73.408,188.39a32.886,32.886,0,0,0,14.368,44.225l190.489,97.062A32.884,32.884,0,0,1,292.632,373.9" transform="translate(-69.819 44.142)" fill="#ceffff" stroke="#88dfff" stroke-miterlimit="3.999" stroke-width="2"/>
    </g>
    <path id="パス_21778" data-name="パス 21778" d="M1459.03,957.15a57.738,57.738,0,1,1,54.118-102.01l.047.024c104.44,55.471,234.068,15.783,289.548-88.657s15.775-234.067-88.665-289.539-234.068-15.783-289.539,88.657a214.112,214.112,0,0,0-15.642,163.12,57.772,57.772,0,0,1-110.48,33.83c-53.325-174.059,44.542-358.379,218.592-411.712s358.379,44.541,411.7,218.591-44.541,358.379-218.591,411.7A329.579,329.579,0,0,1,1459.03,957.15" transform="translate(-4022.542 -3736.153)" fill="#ceffff" stroke="#88dfff" stroke-miterlimit="3.999" stroke-width="2"/>
  </g>
</svg>
