<svg xmlns="http://www.w3.org/2000/svg" width="1532.759" height="1193.376" viewBox="0 0 1532.759 1193.376">
  <g id="グループ_12220" data-name="グループ 12220" transform="translate(3528.017 3200.722)">
    <path id="パス_49947" data-name="パス 49947" d="M1443.386,655.674a20.409,20.409,0,0,1,19.09-18.757,120.173,120.173,0,0,1,54.213,9.543,120.21,120.21,0,0,1-44.52-32.373,20.413,20.413,0,0,1,.236-26.765,120.166,120.166,0,0,1,45.087-31.582,120.188,120.188,0,0,1-54.374,8.6,20.412,20.412,0,0,1-18.759-19.091,120.2,120.2,0,0,1,9.539-54.218,120.174,120.174,0,0,1-32.373,44.52,20.408,20.408,0,0,1-26.762-.235,120.131,120.131,0,0,1-31.583-45.088,120.238,120.238,0,0,1,8.6,54.373,20.412,20.412,0,0,1-19.091,18.759,120.2,120.2,0,0,1-54.22-9.54,120.174,120.174,0,0,1,44.52,32.373,20.408,20.408,0,0,1-.235,26.762,120.207,120.207,0,0,1-45.087,31.583,120.2,120.2,0,0,1,54.373-8.6,20.409,20.409,0,0,1,18.762,19.092,120.175,120.175,0,0,1-9.542,54.213,120.2,120.2,0,0,1,32.373-44.52,20.411,20.411,0,0,1,26.764.235,120.245,120.245,0,0,1,31.583,45.088,120.127,120.127,0,0,1-8.6-54.373" transform="matrix(0.921, -0.391, 0.391, 0.921, -4913.572, -2154.406)" fill="#ceffff" stroke="#88dfff" stroke-linecap="round" stroke-miterlimit="4.002" stroke-width="2"/>
    <path id="パス_49946" data-name="パス 49946" d="M1.284,15.821A23.421,23.421,0,0,1,31.041,1.276l.043.015,159.99,55.134a23.45,23.45,0,0,1,7.741,39.87L71.068,207.281a23.447,23.447,0,0,1-38.4-13.232l-13.311-68.57a18.345,18.345,0,1,1,36.016-7l8.943,46.064,93.119-80.9L40.81,43.449,44.021,60A18.343,18.343,0,1,1,8.009,66.989L.425,27.927a23.469,23.469,0,0,1,.859-12.1" transform="matrix(-0.848, 0.53, -0.53, -0.848, -3014.038, -3018.671)" fill="#ceffff" stroke="#88dfff" stroke-miterlimit="4.002" stroke-width="2"/>
    <g id="グループ_12217" data-name="グループ 12217" transform="translate(-1961.899 -2878.54) rotate(108)">
      <path id="パス_21770" data-name="パス 21770" d="M187.068,108.409l30,15.286a10.683,10.683,0,0,0,14.366-4.666L256.7,69.438a10.683,10.683,0,0,0-4.67-14.365l-30-15.286a10.682,10.682,0,0,0-14.364,4.668L182.408,94.032a10.682,10.682,0,0,0,4.667,14.364" transform="translate(-69.082 -38.62)" fill="#ceffff" stroke="#88dfff" stroke-miterlimit="3.999" stroke-width="2"/>
      <path id="パス_21772" data-name="パス 21772" d="M142.195,174.139,110.669,236.01a10.683,10.683,0,0,0,4.662,14.364l30.007,15.289a10.682,10.682,0,0,0,14.365-4.67l31.526-61.871a10.68,10.68,0,0,1,14.364-4.668l61.871,31.526a10.682,10.682,0,0,0,14.364-4.667l15.288-30a10.68,10.68,0,0,0-4.667-14.364L100.639,79.213A10.68,10.68,0,0,0,86.274,83.88l-15.29,30.006a10.682,10.682,0,0,0,4.667,14.364l61.872,31.526a10.681,10.681,0,0,1,4.667,14.364" transform="translate(-69.819 -38.359)" fill="#ceffff" stroke="#88dfff" stroke-miterlimit="3.999" stroke-width="2"/>
    </g>
    <path id="パス_49945" data-name="パス 49945" d="M1336.948,524.444a17.5,17.5,0,0,1,16.4-30.911l.014.007a64.882,64.882,0,1,0-31.6-38.308,17.506,17.506,0,0,1-33.478,10.251,99.879,99.879,0,1,1,48.67,58.961" transform="matrix(0.309, 0.951, -0.951, 0.309, -2975.082, -3699.237)" fill="#ceffff" stroke="#88dfff" stroke-miterlimit="3.999" stroke-width="2"/>
  </g>
</svg>
