<svg width="663" height="512" viewBox="0 0 663 512" fill="none" xmlns="http://www.w3.org/2000/svg">
<path d="M25.4076 286.582C30.879 288.947 36.5649 290.13 42.1435 290.13C58.4503 290.13 74.0061 280.67 80.8722 264.653C100.397 219.72 148.138 187.687 196.951 186.827C220.231 186.397 238.791 167.155 238.361 143.721C237.932 120.61 219.158 102.228 196.2 102.228H195.449C113.378 103.733 36.243 155.438 3.52218 231.007C-5.81132 252.399 4.05858 277.338 25.4076 286.582Z" fill="#141414" fill-opacity="0.06"/>
<path d="M398.426 98.8956C406.579 110.613 419.667 116.847 432.97 116.847C441.338 116.847 449.813 114.375 457.216 109.108C498.412 79.8689 556.344 76.1066 601.08 99.5406C621.786 110.505 647.319 102.443 658.047 81.6963C668.882 60.9498 660.944 35.4734 640.238 24.6164C568.145 -13.222 475.025 -6.98725 408.617 39.9882C389.628 53.4251 385.015 79.7614 398.426 98.8956Z" fill="#141414" fill-opacity="0.06"/>
<path d="M211.005 339.255C203.28 359.464 203.066 381.823 206.499 403.107C211.112 432.454 222.806 461.262 243.618 482.439C264.431 503.615 295.113 515.977 324.294 510.818C353.475 505.55 379.222 480.719 381.475 451.158C426.426 467.605 495.408 429.336 512.144 384.403C515.899 403.86 530.704 420.844 549.585 427.079C568.359 433.314 590.352 428.691 605.05 415.362C627.579 394.83 629.832 360.217 626.613 329.796C623.395 298.729 615.992 267.233 598.184 241.649C580.375 216.066 550.658 197.146 519.546 198.866C488.435 200.586 458.718 227.03 459.147 258.204C435.223 242.187 403.361 238.855 376.647 249.604C349.934 260.354 318.394 287.12 312.171 315.176C301.014 296.687 276.125 289.162 255.419 295.29C234.714 301.417 218.729 319.046 211.005 339.255Z" fill="#141414" fill-opacity="0.06"/>
</svg>
