<svg width="111" height="111" viewBox="0 0 111 111" fill="none" xmlns="http://www.w3.org/2000/svg">
<path d="M110.76 55.38C110.76 51.66 107.48 48.19 101.85 45.29C100.23 44.45 99.68 42.41 100.67 40.88C104.1 35.55 105.2 30.91 103.34 27.69C101.48 24.47 96.91 23.11 90.58 23.41C88.76 23.5 87.26 22 87.35 20.18C87.65 13.85 86.29 9.28 83.07 7.42C79.85 5.56 75.21 6.67 69.88 10.09C68.34 11.08 66.3 10.53 65.47 8.91C62.57 3.28 59.1 0 55.38 0C51.66 0 48.19 3.28 45.29 8.91C44.45 10.53 42.41 11.08 40.88 10.09C35.55 6.66 30.91 5.56 27.69 7.42C24.47 9.28 23.11 13.85 23.41 20.18C23.5 22 22 23.5 20.18 23.41C13.85 23.11 9.28 24.47 7.42 27.69C5.56 30.91 6.67 35.55 10.09 40.88C11.08 42.42 10.53 44.46 8.91 45.29C3.28 48.19 0 51.66 0 55.38C0 59.1 3.28 62.56 8.91 65.47C10.53 66.31 11.08 68.35 10.09 69.88C6.66 75.21 5.56 79.85 7.42 83.07C9.28 86.29 13.85 87.65 20.18 87.35C22 87.26 23.5 88.76 23.41 90.58C23.11 96.91 24.47 101.48 27.69 103.34C30.91 105.2 35.55 104.09 40.88 100.67C42.42 99.68 44.46 100.23 45.29 101.85C48.19 107.48 51.66 110.76 55.38 110.76C59.1 110.76 62.56 107.48 65.47 101.85C66.31 100.23 68.35 99.68 69.88 100.67C75.21 104.1 79.85 105.2 83.07 103.34C86.29 101.48 87.65 96.91 87.35 90.58C87.26 88.76 88.76 87.26 90.58 87.35C96.91 87.65 101.48 86.29 103.34 83.07C105.2 79.85 104.09 75.21 100.67 69.88C99.68 68.34 100.23 66.3 101.85 65.47C107.48 62.57 110.76 59.1 110.76 55.38Z" fill="#FF97B6"/>
</svg>
