<?xml version="1.0" encoding="UTF-8"?>
<svg id="_レイヤー_2" data-name="レイヤー 2" xmlns="http://www.w3.org/2000/svg" viewBox="0 0 165.13 165.13">
  <defs>
    <style>
      .cls-1 {
        fill: none;
      }

      .cls-1, .cls-2 {
        stroke-width: 0px;
      }

      .cls-2 {
        fill: #fff;
      }
    </style>
  </defs>
  <g id="_レイヤー_1-2" data-name="レイヤー 1">
    <g>
      <path class="cls-1" d="m165.13,82.57c0-5.65-5.07-10.91-13.76-15.29-2.18-1.1-2.91-3.84-1.58-5.88,5.34-8.14,7.1-15.22,4.28-20.12-2.83-4.9-9.85-6.91-19.56-6.36-2.44.14-4.44-1.87-4.3-4.3.55-9.71-1.46-16.73-6.36-19.56s-11.98-1.06-20.12,4.28c-2.04,1.34-4.78.61-5.88-1.58-4.38-8.69-9.63-13.76-15.29-13.76s-10.91,5.07-15.29,13.76c-1.1,2.18-3.84,2.91-5.88,1.58-8.14-5.34-15.22-7.1-20.12-4.28-4.9,2.83-6.91,9.85-6.36,19.56.14,2.44-1.87,4.44-4.3,4.3-9.71-.55-16.73,1.46-19.56,6.36-2.83,4.9-1.06,11.98,4.28,20.12,1.34,2.04.61,4.78-1.58,5.88-8.69,4.38-13.76,9.63-13.76,15.29s5.07,10.91,13.76,15.29c2.18,1.1,2.91,3.84,1.58,5.88-5.34,8.14-7.1,15.22-4.28,20.12,2.83,4.9,9.85,6.91,19.56,6.36,2.44-.14,4.44,1.87,4.3,4.3-.55,9.71,1.46,16.73,6.36,19.56,4.9,2.83,11.98,1.06,20.12-4.28,2.04-1.34,4.78-.61,5.88,1.58,4.38,8.69,9.63,13.76,15.29,13.76s10.91-5.07,15.29-13.76c1.1-2.18,3.84-2.91,5.88-1.58,8.14,5.34,15.22,7.1,20.12,4.28s6.91-9.85,6.36-19.56c-.14-2.44,1.87-4.44,4.3-4.3,9.71.55,16.73-1.46,19.56-6.36,2.83-4.9,1.06-11.98-4.28-20.12-1.34-2.04-.61-4.78,1.58-5.88,8.69-4.38,13.76-9.63,13.76-15.29Z"/>
      <path class="cls-2" d="m82.57,163.36c-5.35,0-10.52-4.66-14.96-13.47-.51-1.02-1.43-1.77-2.53-2.06-1.09-.29-2.27-.1-3.22.52-8.25,5.41-15.06,6.86-19.69,4.18-4.63-2.67-6.78-9.29-6.22-19.14.06-1.14-.36-2.25-1.16-3.05-.75-.75-1.77-1.17-2.82-1.17-.08,0-.15,0-.23,0-9.85.56-16.47-1.59-19.14-6.22-2.67-4.63-1.23-11.44,4.18-19.69.62-.95.81-2.13.52-3.22-.29-1.09-1.04-2.02-2.06-2.53-8.81-4.44-13.47-9.61-13.47-14.96s4.66-10.52,13.47-14.96c1.02-.51,1.77-1.43,2.06-2.53.29-1.09.1-2.27-.52-3.22-5.41-8.25-6.86-15.06-4.18-19.69,2.4-4.15,7.96-6.31,16.18-6.31.95,0,1.94.03,2.96.09.08,0,.15,0,.23,0,1.06,0,2.07-.42,2.82-1.17.8-.8,1.22-1.91,1.16-3.05-.56-9.85,1.59-16.47,6.22-19.14,4.63-2.67,11.44-1.23,19.69,4.18.95.62,2.13.81,3.22.52,1.09-.29,2.02-1.04,2.53-2.06,4.44-8.81,9.61-13.47,14.96-13.47s10.52,4.66,14.96,13.47c.51,1.02,1.43,1.77,2.53,2.06,1.09.29,2.27.1,3.22-.52,8.25-5.41,15.06-6.86,19.69-4.18,4.63,2.67,6.78,9.29,6.22,19.14-.06,1.14.36,2.25,1.16,3.05.75.75,1.77,1.17,2.82,1.17.08,0,.15,0,.23,0,9.85-.56,16.47,1.59,19.14,6.22,2.67,4.63,1.23,11.44-4.18,19.69-.62.95-.81,2.13-.52,3.22s1.04,2.02,2.06,2.53c8.81,4.44,13.47,9.61,13.47,14.96s-4.66,10.52-13.47,14.96c-1.02.51-1.77,1.43-2.06,2.53-.29,1.09-.1,2.27.52,3.22,5.41,8.25,6.86,15.06,4.18,19.69-2.67,4.63-9.29,6.78-19.14,6.22-.08,0-.15,0-.23,0-1.06,0-2.07.42-2.82,1.17-.8.8-1.22,1.91-1.16,3.05.56,9.85-1.59,16.47-6.22,19.14-4.63,2.67-11.44,1.23-19.69-4.18-.95-.62-2.13-.81-3.22-.52-1.09.29-2.02,1.04-2.53,2.06-4.44,8.81-9.61,13.47-14.96,13.47Zm-18.51-15.67c.34,0,.69.04,1.03.14,1.1.29,2.02,1.05,2.53,2.06,4.44,8.81,9.61,13.46,14.95,13.46s10.51-4.66,14.95-13.46c.51-1.02,1.44-1.77,2.53-2.06,1.1-.29,2.27-.1,3.23.52,8.25,5.41,15.05,6.85,19.68,4.18,4.63-2.67,6.78-9.29,6.22-19.14-.06-1.14.36-2.25,1.16-3.05.75-.75,1.77-1.17,2.83-1.17.08,0,.15,0,.23,0,1.02.06,2.01.09,2.96.09,8.22,0,13.78-2.16,16.18-6.3,2.67-4.63,1.23-11.43-4.18-19.68-.63-.95-.82-2.13-.52-3.23.29-1.1,1.05-2.02,2.06-2.53,8.81-4.44,13.46-9.61,13.46-14.95s-4.66-10.51-13.46-14.95c-1.02-.51-1.77-1.44-2.06-2.53-.29-1.1-.1-2.27.52-3.23,5.41-8.25,6.85-15.05,4.18-19.68-2.4-4.15-7.96-6.31-16.18-6.31-.95,0-1.94.03-2.96.09-.08,0-.15,0-.23,0-1.06,0-2.08-.42-2.83-1.17-.8-.8-1.23-1.92-1.16-3.05.56-9.85-1.59-16.47-6.22-19.14-4.63-2.67-11.43-1.23-19.68,4.18-.95.62-2.13.81-3.23.52-1.1-.29-2.02-1.05-2.53-2.06-4.44-8.81-9.61-13.46-14.95-13.46s-10.51,4.66-14.95,13.46c-.51,1.02-1.44,1.77-2.53,2.06-1.09.29-2.27.1-3.23-.52-8.25-5.41-15.05-6.86-19.68-4.18-4.63,2.67-6.78,9.29-6.22,19.14.06,1.14-.36,2.25-1.16,3.05-.75.75-1.77,1.17-2.83,1.17-.08,0-.15,0-.23,0-1.02-.06-2.01-.09-2.96-.09-8.22,0-13.78,2.16-16.18,6.31-2.67,4.63-1.22,11.43,4.18,19.68.63.95.82,2.13.52,3.23s-1.05,2.02-2.06,2.53c-8.81,4.44-13.46,9.61-13.46,14.95s4.66,10.51,13.46,14.95c1.02.51,1.77,1.44,2.06,2.53s.1,2.27-.52,3.23c-5.41,8.25-6.85,15.05-4.18,19.68,2.67,4.63,9.29,6.78,19.14,6.22.08,0,.15,0,.23,0,1.06,0,2.08.42,2.83,1.17.8.8,1.23,1.92,1.16,3.05-.56,9.85,1.59,16.46,6.22,19.14,4.63,2.67,11.43,1.23,19.68-4.18.66-.43,1.43-.66,2.2-.66Z"/>
      <path class="cls-2" d="m82.57,161.59c-5.23,0-10.29-4.56-14.64-13.17-.5-.99-1.4-1.73-2.47-2.01-1.07-.29-2.22-.1-3.15.51-8.07,5.29-14.73,6.71-19.26,4.09-4.53-2.61-6.63-9.09-6.09-18.73.06-1.11-.35-2.2-1.13-2.98-.73-.73-1.73-1.14-2.76-1.14-.07,0-.15,0-.22,0-1,.06-1.97.09-2.9.09-8.04,0-13.49-2.11-15.83-6.17-2.62-4.53-1.2-11.19,4.09-19.26.61-.93.79-2.08.51-3.14-.29-1.07-1.02-1.97-2.01-2.47-8.62-4.34-13.17-9.4-13.17-14.64s4.56-10.29,13.17-14.64c.99-.5,1.73-1.4,2.01-2.47.29-1.07.1-2.22-.51-3.15-5.29-8.07-6.71-14.73-4.09-19.26,2.34-4.06,7.79-6.17,15.83-6.17.93,0,1.89.03,2.89.09.07,0,.15,0,.22,0,1.03,0,2.03-.41,2.76-1.14.78-.78,1.2-1.87,1.13-2.98-.55-9.64,1.56-16.11,6.09-18.73,4.53-2.61,11.19-1.2,19.26,4.09.93.61,2.08.8,3.15.51s1.97-1.02,2.47-2.01c4.34-8.62,9.41-13.17,14.64-13.17s10.29,4.56,14.63,13.17c.5.99,1.4,1.73,2.47,2.01,1.07.29,2.21.1,3.15-.51,8.07-5.29,14.73-6.71,19.26-4.09,4.53,2.62,6.63,9.09,6.09,18.73-.06,1.11.35,2.2,1.13,2.98.73.73,1.72,1.14,2.76,1.14.07,0,.15,0,.22,0,1-.06,1.96-.09,2.89-.09,8.04,0,13.49,2.11,15.83,6.17,2.62,4.53,1.2,11.19-4.09,19.26-.61.93-.79,2.08-.51,3.15.29,1.07,1.02,1.97,2.01,2.47,8.62,4.34,13.17,9.4,13.17,14.64s-4.56,10.29-13.17,14.64c-.99.5-1.73,1.4-2.01,2.47-.29,1.07-.1,2.22.51,3.15,5.29,8.07,6.71,14.73,4.09,19.26-2.34,4.06-7.79,6.17-15.83,6.17-.93,0-1.9-.03-2.9-.09-.07,0-.15,0-.22,0-1.03,0-2.03.41-2.76,1.14-.78.78-1.2,1.87-1.13,2.98.55,9.64-1.56,16.11-6.09,18.73-4.53,2.61-11.19,1.2-19.26-4.09-.93-.61-2.08-.79-3.15-.51-1.07.29-1.97,1.02-2.47,2.01-4.34,8.62-9.4,13.17-14.63,13.17Zm-18.11-15.33c.34,0,.68.04,1.01.13,1.07.29,1.98,1.02,2.48,2.02,4.34,8.61,9.4,13.17,14.62,13.17s10.28-4.55,14.62-13.17c.5-1,1.41-1.73,2.48-2.02,1.07-.29,2.22-.1,3.16.51,8.07,5.29,14.72,6.7,19.25,4.09,4.53-2.61,6.63-9.08,6.08-18.71-.06-1.11.35-2.2,1.14-2.99.73-.73,1.73-1.14,2.77-1.14.07,0,.15,0,.22,0,1,.06,1.97.09,2.9.09,8.04,0,13.48-2.11,15.82-6.17,2.61-4.52,1.2-11.18-4.09-19.25-.61-.93-.8-2.08-.51-3.16.29-1.07,1.02-1.98,2.02-2.48,8.61-4.34,13.17-9.4,13.17-14.62s-4.55-10.28-13.17-14.62c-1-.5-1.73-1.41-2.02-2.48-.29-1.07-.1-2.22.51-3.16,5.29-8.07,6.7-14.72,4.09-19.25-2.34-4.06-7.78-6.17-15.82-6.17-.93,0-1.89.03-2.89.09-.07,0-.15,0-.22,0-1.04,0-2.03-.41-2.77-1.14-.79-.79-1.2-1.88-1.14-2.99.55-9.63-1.55-16.1-6.08-18.71-4.52-2.61-11.18-1.2-19.25,4.09-.93.61-2.08.8-3.16.51-1.07-.29-1.98-1.02-2.48-2.02-4.34-8.61-9.4-13.17-14.62-13.17s-10.28,4.55-14.62,13.17c-.5,1-1.41,1.73-2.48,2.02-1.07.29-2.22.1-3.16-.51-8.06-5.29-14.72-6.7-19.25-4.09-4.52,2.61-6.63,9.08-6.08,18.71.06,1.11-.35,2.2-1.14,2.99-.73.73-1.73,1.14-2.77,1.14-.07,0-.15,0-.22,0-1-.06-1.96-.09-2.89-.09-8.04,0-13.48,2.11-15.82,6.17-2.61,4.53-1.2,11.18,4.09,19.25.61.93.8,2.08.51,3.16-.29,1.07-1.02,1.98-2.02,2.48-8.61,4.34-13.17,9.4-13.17,14.62s4.55,10.28,13.17,14.62c1,.5,1.73,1.41,2.02,2.48.29,1.07.1,2.22-.51,3.16-5.29,8.06-6.7,14.72-4.09,19.25,2.34,4.06,7.78,6.17,15.82,6.17.93,0,1.9-.03,2.9-.09.07,0,.15,0,.22,0,1.04,0,2.04.41,2.77,1.14.79.79,1.2,1.88,1.14,2.99-.55,9.63,1.55,16.1,6.08,18.71,4.52,2.61,11.18,1.2,19.25-4.09.65-.42,1.4-.64,2.15-.64Z"/>
      <path class="cls-2" d="m82.57,159.82c-5.12,0-10.06-4.45-14.31-12.88-.49-.97-1.37-1.69-2.41-1.97-1.04-.28-2.16-.1-3.07.5-7.89,5.17-14.4,6.56-18.83,4-4.43-2.56-6.49-8.89-5.95-18.31.06-1.08-.34-2.14-1.11-2.91-.71-.71-1.68-1.11-2.69-1.11-.07,0-.14,0-.22,0-9.42.54-15.75-1.52-18.31-5.95-2.56-4.43-1.17-10.94,4-18.83.6-.91.78-2.03.5-3.07-.28-1.04-1-1.92-1.97-2.41-8.43-4.25-12.88-9.2-12.88-14.31s4.46-10.06,12.88-14.31c.97-.49,1.69-1.37,1.97-2.41.28-1.04.1-2.16-.5-3.07-5.17-7.89-6.56-14.4-4-18.83,2.29-3.97,7.62-6.04,15.48-6.04.91,0,1.85.03,2.83.08.07,0,.14,0,.22,0,1.01,0,1.98-.4,2.69-1.11.76-.76,1.17-1.82,1.11-2.91-.54-9.42,1.52-15.75,5.95-18.31,4.43-2.56,10.94-1.17,18.83,4,.91.6,2.03.78,3.07.5,1.04-.28,1.92-1,2.41-1.97,4.25-8.43,9.19-12.88,14.31-12.88s10.06,4.45,14.31,12.88c.49.97,1.37,1.69,2.41,1.97,1.04.28,2.16.1,3.07-.5,7.89-5.17,14.4-6.56,18.83-4,4.43,2.56,6.49,8.89,5.95,18.31-.06,1.08.34,2.14,1.11,2.91.71.71,1.68,1.11,2.69,1.11.07,0,.14,0,.22,0,9.42-.54,15.75,1.52,18.31,5.95,2.56,4.43,1.17,10.94-4,18.83-.6.91-.78,2.03-.5,3.07.28,1.04,1,1.92,1.97,2.41,8.43,4.25,12.88,9.19,12.88,14.31s-4.45,10.06-12.88,14.31c-.97.49-1.69,1.37-1.97,2.41-.28,1.04-.1,2.16.5,3.07,5.17,7.89,6.56,14.4,4,18.83-2.29,3.97-7.62,6.04-15.48,6.04-.91,0-1.85-.03-2.83-.08-.07,0-.14,0-.22,0-1.01,0-1.98.4-2.69,1.11-.76.76-1.17,1.82-1.11,2.91.54,9.42-1.52,15.75-5.95,18.31-4.43,2.56-10.94,1.18-18.83-4-.91-.59-2.03-.78-3.07-.5-1.04.28-1.92,1-2.41,1.97-4.25,8.43-9.19,12.88-14.31,12.88Zm-17.7-15c.33,0,.66.04.99.13,1.05.28,1.94,1,2.43,1.98,4.24,8.42,9.18,12.87,14.29,12.87s10.05-4.45,14.29-12.87c.49-.98,1.38-1.7,2.43-1.98,1.05-.28,2.18-.1,3.09.5,7.88,5.17,14.39,6.55,18.81,4,4.42-2.55,6.48-8.88,5.94-18.29-.06-1.09.34-2.16,1.11-2.93.72-.72,1.7-1.12,2.71-1.12.07,0,.14,0,.22,0,.98.06,1.92.08,2.83.08,7.85,0,13.17-2.06,15.46-6.02,2.55-4.42,1.17-10.93-4-18.81-.6-.91-.78-2.04-.5-3.09s1-1.94,1.98-2.43c8.42-4.24,12.87-9.18,12.87-14.29s-4.45-10.05-12.87-14.29c-.98-.49-1.7-1.38-1.98-2.43-.28-1.05-.1-2.18.5-3.09,5.17-7.88,6.55-14.39,4-18.81-2.29-3.96-7.61-6.02-15.46-6.02-.91,0-1.85.03-2.83.08-.07,0-.15,0-.22,0-1.01,0-1.99-.4-2.71-1.12-.77-.77-1.17-1.84-1.11-2.93.54-9.41-1.52-15.74-5.94-18.29-4.42-2.55-10.92-1.17-18.81,4-.91.6-2.04.78-3.09.5-1.05-.28-1.94-1-2.43-1.98-4.24-8.42-9.18-12.87-14.29-12.87s-10.05,4.45-14.29,12.87c-.49.98-1.38,1.7-2.43,1.98-1.05.28-2.18.1-3.09-.5-7.88-5.17-14.39-6.55-18.81-4-4.42,2.55-6.48,8.88-5.94,18.29.06,1.09-.34,2.16-1.11,2.93-.72.72-1.69,1.12-2.71,1.12-.07,0-.15,0-.22,0-.98-.06-1.92-.08-2.83-.08-7.85,0-13.17,2.06-15.46,6.02-2.55,4.42-1.17,10.93,4,18.81.6.91.78,2.04.5,3.09-.28,1.05-1,1.94-1.98,2.43-8.42,4.24-12.87,9.18-12.87,14.29s4.45,10.05,12.87,14.29c.98.49,1.7,1.38,1.98,2.43.28,1.05.1,2.18-.5,3.09-5.17,7.88-6.55,14.39-4,18.81,2.29,3.96,7.61,6.02,15.46,6.02.91,0,1.85-.03,2.83-.08.07,0,.15,0,.22,0,1.01,0,1.99.4,2.71,1.12.77.77,1.17,1.84,1.11,2.93-.54,9.41,1.52,15.74,5.94,18.29,4.42,2.55,10.92,1.17,18.81-4,.63-.41,1.36-.63,2.1-.63Z"/>
      <path class="cls-2" d="m82.57,158.05c-5,0-9.83-4.35-13.99-12.59-.48-.95-1.33-1.65-2.35-1.92-1.02-.27-2.11-.1-3,.48-7.71,5.06-14.07,6.41-18.4,3.91-4.33-2.5-6.34-8.69-5.82-17.89.06-1.06-.33-2.09-1.08-2.84-.75-.75-1.79-1.14-2.84-1.08-.95.05-1.88.08-2.77.08-7.69,0-12.89-2.02-15.13-5.9-2.5-4.33-1.15-10.69,3.91-18.41.58-.89.76-1.98.49-3-.27-1.02-.97-1.88-1.92-2.35-8.23-4.15-12.59-8.99-12.59-13.99s4.35-9.84,12.59-13.99c.95-.48,1.65-1.33,1.92-2.35.27-1.02.1-2.11-.49-3-5.06-7.71-6.41-14.08-3.91-18.41,2.5-4.33,8.69-6.34,17.89-5.82,1.06.06,2.09-.33,2.84-1.08.75-.75,1.14-1.78,1.08-2.84-.52-9.21,1.49-15.39,5.82-17.89,4.33-2.5,10.7-1.15,18.4,3.91.89.58,1.98.76,3,.48s1.88-.97,2.35-1.92c4.15-8.23,8.99-12.59,13.99-12.59s9.83,4.35,13.99,12.59c.48.95,1.34,1.65,2.36,1.92,1.02.27,2.11.1,3-.49,7.71-5.06,14.08-6.41,18.41-3.91,4.33,2.5,6.34,8.69,5.82,17.89-.06,1.06.33,2.09,1.08,2.84.7.7,1.64,1.08,2.63,1.08.07,0,.14,0,.21,0,.95-.05,1.88-.08,2.76-.08,7.69,0,12.89,2.02,15.13,5.9,2.5,4.33,1.15,10.69-3.91,18.41-.58.89-.76,1.98-.49,3,.27,1.02.97,1.88,1.92,2.35,8.23,4.15,12.59,8.99,12.59,13.99s-4.35,9.84-12.59,13.99c-.95.48-1.65,1.34-1.92,2.35-.27,1.02-.1,2.11.49,3,5.06,7.71,6.41,14.08,3.91,18.41-2.5,4.33-8.69,6.34-17.89,5.82-1.06-.06-2.09.33-2.84,1.08-.75.75-1.14,1.78-1.08,2.84.52,9.21-1.49,15.39-5.82,17.89-4.33,2.5-10.7,1.15-18.4-3.91-.89-.58-1.98-.76-3-.48-1.02.27-1.88.97-2.35,1.92-4.15,8.23-8.99,12.59-13.99,12.59Zm-17.3-14.66c.32,0,.65.04.96.13,1.03.28,1.89.98,2.37,1.93,4.14,8.22,8.97,12.57,13.96,12.57s9.81-4.35,13.96-12.57c.48-.95,1.35-1.66,2.37-1.93,1.02-.28,2.13-.1,3.02.49,7.7,5.05,14.05,6.4,18.37,3.91,4.32-2.49,6.33-8.67,5.8-17.87-.06-1.07.33-2.11,1.09-2.86.7-.7,1.66-1.09,2.65-1.09.07,0,.14,0,.21,0,.95.05,1.88.08,2.76.08,7.67,0,12.87-2.01,15.1-5.88,2.49-4.32,1.14-10.67-3.91-18.37-.59-.89-.76-1.99-.49-3.02.28-1.03.98-1.89,1.93-2.37,8.22-4.14,12.57-8.97,12.57-13.96s-4.35-9.81-12.57-13.96c-.95-.48-1.66-1.35-1.93-2.37-.28-1.03-.1-2.13.49-3.02,5.05-7.7,6.4-14.05,3.91-18.37-2.49-4.32-8.67-6.33-17.87-5.8-.07,0-.14,0-.21,0-.99,0-1.95-.39-2.65-1.09-.75-.75-1.15-1.8-1.09-2.86.52-9.19-1.48-15.37-5.8-17.86-4.32-2.49-10.67-1.14-18.37,3.91-.89.59-2,.76-3.02.49-1.03-.28-1.89-.98-2.38-1.94-4.14-8.22-8.97-12.57-13.96-12.57s-9.81,4.35-13.96,12.57c-.48.95-1.35,1.66-2.37,1.93-1.03.28-2.13.1-3.02-.49-7.7-5.05-14.05-6.4-18.37-3.91-4.32,2.49-6.33,8.67-5.8,17.86.06,1.07-.34,2.11-1.09,2.86-.7.7-1.66,1.09-2.65,1.09-.07,0-.14,0-.21,0-9.2-.52-15.37,1.48-17.87,5.8-2.49,4.32-1.14,10.67,3.91,18.37.59.89.76,2,.49,3.02-.28,1.03-.98,1.89-1.93,2.37-8.22,4.14-12.57,8.97-12.57,13.96s4.35,9.81,12.57,13.96c.95.48,1.66,1.35,1.94,2.37.27,1.03.1,2.13-.49,3.02-5.05,7.7-6.4,14.05-3.91,18.37,2.49,4.32,8.68,6.32,17.87,5.8.07,0,.14,0,.21,0,.99,0,1.95.39,2.65,1.09.75.75,1.15,1.8,1.09,2.86-.52,9.19,1.48,15.37,5.8,17.87,4.32,2.49,10.67,1.14,18.37-3.91.62-.41,1.33-.62,2.06-.62Z"/>
      <path class="cls-2" d="m82.57,156.28c-4.88,0-9.61-4.25-13.66-12.29-.46-.92-1.3-1.6-2.3-1.87-1-.27-2.06-.09-2.92.47-7.53,4.94-13.74,6.26-17.98,3.82-4.23-2.44-6.19-8.49-5.68-17.48.06-1.03-.33-2.04-1.05-2.77-.68-.68-1.6-1.06-2.56-1.06-.07,0-.14,0-.21,0-.93.05-1.83.08-2.7.08-7.5,0-12.59-1.97-14.78-5.76-2.44-4.23-1.12-10.45,3.82-17.98.57-.86.74-1.93.47-2.92-.27-.99-.95-1.83-1.87-2.3-8.04-4.05-12.29-8.78-12.29-13.66s4.25-9.61,12.29-13.66c.92-.46,1.61-1.3,1.87-2.3.27-.99.09-2.06-.47-2.92-4.94-7.53-6.26-13.75-3.82-17.98,2.19-3.79,7.27-5.76,14.78-5.76.87,0,1.77.03,2.7.08.07,0,.14,0,.21,0,.96,0,1.88-.38,2.56-1.06.73-.73,1.11-1.74,1.05-2.77-.51-8.99,1.45-15.03,5.68-17.48,4.23-2.44,10.45-1.12,17.98,3.82.86.57,1.93.74,2.92.47.99-.27,1.83-.95,2.3-1.87,4.05-8.04,8.78-12.29,13.66-12.29s9.61,4.25,13.66,12.29c.47.92,1.3,1.61,2.3,1.87.99.27,2.06.09,2.92-.47,7.53-4.94,13.75-6.26,17.98-3.82,4.23,2.44,6.19,8.48,5.68,17.48-.06,1.03.33,2.04,1.05,2.77.68.68,1.6,1.06,2.56,1.06.07,0,.14,0,.21,0,.93-.05,1.83-.08,2.7-.08,7.5,0,12.59,1.97,14.77,5.76,2.44,4.23,1.12,10.45-3.82,17.98-.57.86-.74,1.93-.47,2.93.27.99.95,1.83,1.87,2.3,8.04,4.05,12.29,8.78,12.29,13.66s-4.25,9.61-12.29,13.66c-.92.46-1.61,1.3-1.87,2.3s-.09,2.06.47,2.92c4.94,7.53,6.26,13.75,3.82,17.98-2.19,3.79-7.27,5.76-14.78,5.76-.87,0-1.77-.03-2.7-.08-.07,0-.14,0-.21,0-.96,0-1.88.38-2.56,1.06-.73.73-1.11,1.74-1.05,2.77.51,8.99-1.45,15.03-5.68,17.48-4.23,2.44-10.45,1.12-17.98-3.82-.86-.57-1.93-.74-2.92-.47-.99.27-1.83.95-2.3,1.87-4.05,8.04-8.78,12.29-13.66,12.29Zm-16.89-14.33c.32,0,.63.04.94.12,1,.27,1.85.96,2.32,1.89,4.05,8.03,8.76,12.27,13.63,12.27s9.58-4.24,13.63-12.27c.47-.93,1.31-1.62,2.32-1.89,1-.27,2.08-.1,2.96.48,7.52,4.93,13.72,6.25,17.94,3.81,4.22-2.43,6.17-8.46,5.67-17.44-.06-1.04.33-2.06,1.06-2.8.73-.74,1.75-1.12,2.8-1.06,8.98.51,15.01-1.45,17.44-5.66,2.43-4.22,1.11-10.42-3.81-17.94-.57-.87-.75-1.95-.48-2.96.27-1,.96-1.85,1.89-2.32,8.03-4.05,12.27-8.76,12.27-13.63s-4.24-9.58-12.27-13.63c-.93-.47-1.62-1.32-1.89-2.32-.27-1-.1-2.08.48-2.96,4.93-7.52,6.25-13.72,3.81-17.94-2.43-4.22-8.46-6.18-17.44-5.66-1.04.06-2.06-.33-2.8-1.06-.74-.74-1.12-1.76-1.06-2.8.51-8.98-1.45-15.01-5.67-17.44-4.21-2.43-10.42-1.11-17.94,3.81-.87.57-1.95.75-2.96.48-1-.27-1.85-.96-2.32-1.89-4.05-8.03-8.76-12.27-13.63-12.27s-9.58,4.24-13.63,12.27c-.47.93-1.32,1.62-2.32,1.89-1.01.27-2.08.09-2.96-.48-7.52-4.93-13.72-6.25-17.94-3.81-4.22,2.43-6.17,8.47-5.67,17.44.06,1.04-.33,2.06-1.06,2.8-.69.69-1.62,1.07-2.59,1.07-.07,0-.14,0-.21,0-8.98-.51-15.01,1.45-17.44,5.66-2.43,4.22-1.11,10.42,3.82,17.94.57.87.75,1.95.48,2.96-.27,1-.96,1.85-1.89,2.32-8.03,4.05-12.27,8.76-12.27,13.63s4.24,9.58,12.27,13.63c.93.47,1.62,1.32,1.89,2.32.27,1,.1,2.08-.48,2.95-4.93,7.52-6.25,13.72-3.82,17.94,2.18,3.78,7.25,5.74,14.74,5.74.87,0,1.77-.03,2.7-.08.07,0,.14,0,.21,0,.97,0,1.9.38,2.59,1.07.74.74,1.12,1.76,1.06,2.8-.51,8.98,1.45,15.01,5.67,17.44,4.21,2.44,10.42,1.11,17.94-3.81.6-.4,1.31-.6,2.01-.6Z"/>
      <path class="cls-2" d="m82.57,154.51c-4.77,0-9.38-4.15-13.34-12-.45-.9-1.27-1.56-2.24-1.82-.97-.26-2.01-.09-2.85.46-7.35,4.82-13.42,6.11-17.55,3.72-4.13-2.38-6.05-8.28-5.55-17.06.06-1.01-.32-1.99-1.03-2.7-.66-.66-1.56-1.03-2.5-1.03-.07,0-.13,0-.2,0-.91.05-1.79.08-2.63.08-7.33,0-12.29-1.92-14.42-5.63-2.38-4.13-1.1-10.2,3.72-17.55.55-.84.72-1.88.46-2.85-.26-.97-.92-1.79-1.82-2.24-7.85-3.96-12-8.57-12-13.34s4.15-9.38,12-13.33c.9-.45,1.56-1.27,1.82-2.24.26-.97.09-2.01-.46-2.85-4.82-7.35-6.11-13.42-3.72-17.55,2.14-3.7,7.1-5.63,14.42-5.63.85,0,1.73.03,2.64.08.07,0,.13,0,.2,0,.94,0,1.84-.37,2.5-1.03.71-.71,1.08-1.69,1.03-2.7-.5-8.78,1.42-14.68,5.55-17.06,4.13-2.38,10.2-1.1,17.55,3.72.84.55,1.88.72,2.85.46.97-.26,1.79-.92,2.24-1.82,3.96-7.85,8.57-12,13.33-12s9.38,4.15,13.33,12c.45.9,1.27,1.56,2.24,1.82.97.26,2.01.09,2.85-.46,7.35-4.82,13.42-6.11,17.55-3.72,4.13,2.38,6.05,8.28,5.55,17.06-.06,1.01.32,1.99,1.03,2.7.66.66,1.56,1.03,2.5,1.03.07,0,.13,0,.2,0,.91-.05,1.79-.08,2.64-.08,7.33,0,12.29,1.92,14.42,5.63,2.38,4.13,1.1,10.2-3.72,17.55-.55.84-.72,1.88-.46,2.85.26.97.92,1.79,1.82,2.24,7.85,3.96,12,8.57,12,13.33s-4.15,9.38-12,13.34c-.9.45-1.56,1.27-1.82,2.24-.26.97-.09,2.01.46,2.85,4.82,7.35,6.11,13.42,3.72,17.55-2.38,4.13-8.28,6.05-17.06,5.55-.07,0-.13,0-.2,0-.94,0-1.84.37-2.5,1.03-.71.71-1.08,1.69-1.03,2.7.5,8.78-1.42,14.68-5.55,17.06-4.13,2.39-10.2,1.1-17.55-3.72-.84-.55-1.88-.72-2.85-.46-.97.26-1.79.92-2.24,1.82-3.96,7.85-8.57,12-13.33,12Zm-16.48-13.99c.31,0,.62.04.92.12.98.26,1.81.94,2.27,1.85,3.95,7.83,8.55,11.97,13.29,11.97s9.35-4.14,13.29-11.97c.46-.91,1.29-1.58,2.27-1.85.98-.26,2.03-.09,2.89.47,7.34,4.81,13.39,6.1,17.5,3.72,4.11-2.37,6.02-8.26,5.53-17.02-.06-1.02.32-2.02,1.04-2.73.67-.67,1.58-1.05,2.53-1.05.07,0,.14,0,.2,0,.91.05,1.79.08,2.63.08,7.31,0,12.26-1.92,14.38-5.6,2.37-4.11,1.09-10.17-3.72-17.5-.56-.85-.73-1.91-.47-2.89.26-.98.94-1.81,1.85-2.27,7.83-3.95,11.97-8.54,11.97-13.29s-4.14-9.35-11.97-13.29c-.91-.46-1.58-1.29-1.85-2.27-.26-.98-.09-2.03.47-2.89,4.81-7.34,6.1-13.39,3.72-17.5-2.13-3.69-7.08-5.6-14.38-5.6-.85,0-1.72.03-2.64.08-.07,0-.14,0-.2,0-.95,0-1.86-.37-2.53-1.05-.72-.72-1.1-1.72-1.04-2.73.5-8.76-1.41-14.64-5.53-17.02-4.11-2.37-10.17-1.09-17.5,3.72-.85.56-1.91.73-2.89.47-.98-.26-1.81-.94-2.27-1.85-3.95-7.83-8.54-11.98-13.29-11.98s-9.35,4.14-13.29,11.98c-.46.91-1.29,1.58-2.27,1.85-.98.26-2.03.09-2.89-.47-7.33-4.81-13.39-6.1-17.5-3.72-4.11,2.37-6.02,8.26-5.53,17.02.06,1.02-.32,2.02-1.04,2.73-.67.67-1.58,1.05-2.53,1.05-.07,0-.14,0-.2,0-8.76-.5-14.64,1.41-17.02,5.53-2.38,4.11-1.09,10.16,3.72,17.5.56.85.73,1.91.47,2.89-.26.98-.94,1.81-1.85,2.27-7.83,3.95-11.98,8.54-11.98,13.29s4.14,9.35,11.98,13.29c.91.46,1.58,1.29,1.85,2.27.26.98.09,2.03-.47,2.89-4.81,7.34-6.1,13.39-3.72,17.5,2.13,3.69,7.08,5.6,14.38,5.6.85,0,1.72-.03,2.63-.08.07,0,.14,0,.2,0,.95,0,1.86.38,2.53,1.05.72.72,1.1,1.71,1.04,2.73-.5,8.76,1.41,14.64,5.53,17.02,4.11,2.37,10.17,1.09,17.5-3.72.59-.39,1.28-.59,1.97-.59Z"/>
      <path class="cls-2" d="m82.57,152.74c-4.65,0-9.15-4.05-13.01-11.71-.44-.88-1.24-1.52-2.18-1.78-.94-.25-1.96-.09-2.78.45-7.17,4.7-13.09,5.96-17.12,3.63-4.03-2.33-5.9-8.08-5.41-16.64.06-.98-.31-1.94-1-2.63-.65-.65-1.52-1.01-2.43-1.01-.07,0-.13,0-.2,0-.89.05-1.75.08-2.57.08-7.15,0-11.99-1.88-14.07-5.49-2.33-4.03-1.07-9.95,3.63-17.12.54-.82.7-1.83.45-2.78-.25-.94-.9-1.74-1.78-2.18-7.66-3.86-11.71-8.36-11.71-13.01s4.05-9.15,11.71-13.01c.88-.44,1.52-1.24,1.78-2.18s.09-1.96-.45-2.78c-4.7-7.17-5.96-13.09-3.63-17.12,2.08-3.61,6.93-5.49,14.07-5.49.83,0,1.68.02,2.57.08.07,0,.13,0,.2,0,.91,0,1.79-.36,2.43-1.01.69-.69,1.05-1.65,1-2.63-.49-8.56,1.39-14.32,5.41-16.64,4.03-2.33,9.95-1.07,17.12,3.63.82.54,1.83.7,2.78.45.94-.25,1.74-.9,2.18-1.78,3.86-7.66,8.36-11.71,13.01-11.71s9.15,4.05,13.01,11.71c.44.88,1.24,1.52,2.18,1.78.94.25,1.96.09,2.78-.45,7.17-4.7,13.09-5.96,17.12-3.63,4.03,2.33,5.9,8.08,5.41,16.64-.06.98.31,1.94,1,2.63.65.65,1.52,1.01,2.43,1.01.07,0,.13,0,.2,0,.89-.05,1.75-.08,2.57-.08,7.15,0,11.99,1.88,14.07,5.49,2.33,4.03,1.07,9.95-3.63,17.12-.54.82-.7,1.83-.45,2.78s.9,1.74,1.78,2.18c7.66,3.86,11.71,8.36,11.71,13.01s-4.05,9.15-11.71,13.01c-.88.44-1.52,1.24-1.78,2.18-.25.94-.09,1.96.45,2.78,4.7,7.17,5.96,13.09,3.63,17.12-2.08,3.61-6.93,5.49-14.07,5.49-.83,0-1.68-.02-2.57-.08-.98-.05-1.94.31-2.63,1-.69.69-1.05,1.65-1,2.63.49,8.56-1.39,14.32-5.41,16.64-4.03,2.33-9.95,1.07-17.12-3.63-.82-.54-1.83-.7-2.78-.45-.94.25-1.74.9-2.18,1.78-3.86,7.66-8.36,11.71-13.01,11.71Zm-16.08-13.65c.3,0,.6.04.9.12.96.26,1.77.91,2.21,1.8,3.85,7.64,8.33,11.68,12.96,11.68s9.11-4.04,12.96-11.68c.45-.89,1.25-1.55,2.21-1.8.96-.26,1.99-.09,2.82.46,7.15,4.69,13.05,5.95,17.06,3.63,4.01-2.32,5.87-8.05,5.39-16.59-.06-.99.31-1.97,1.01-2.67.65-.66,1.55-1.02,2.47-1.02.07,0,.13,0,.2,0,8.54.49,14.28-1.38,16.59-5.39,2.32-4.01,1.06-9.91-3.63-17.06-.55-.83-.71-1.86-.46-2.82s.91-1.77,1.8-2.21c7.64-3.85,11.68-8.33,11.68-12.96s-4.04-9.11-11.68-12.96c-.89-.45-1.55-1.26-1.8-2.21-.26-.96-.09-1.99.46-2.82,4.69-7.15,5.95-13.05,3.63-17.06-2.07-3.59-6.9-5.46-14.02-5.46-.83,0-1.68.02-2.57.08-.07,0-.13,0-.2,0-.93,0-1.82-.37-2.47-1.02-.7-.7-1.07-1.67-1.01-2.67.49-8.54-1.38-14.28-5.39-16.59-4.01-2.31-9.91-1.06-17.06,3.63-.83.55-1.86.71-2.82.46-.96-.26-1.77-.91-2.21-1.8-3.85-7.64-8.33-11.68-12.96-11.68s-9.11,4.04-12.96,11.68c-.45.89-1.26,1.55-2.21,1.81s-1.99.09-2.82-.46c-7.16-4.69-13.06-5.95-17.06-3.63-4.01,2.31-5.87,8.05-5.39,16.59.06.99-.31,1.97-1.01,2.67-.65.66-1.55,1.02-2.47,1.02-.07,0-.13,0-.2,0-.89-.05-1.74-.08-2.57-.08-7.13,0-11.95,1.87-14.02,5.46-2.32,4.01-1.06,9.91,3.63,17.06.55.83.71,1.86.46,2.82s-.91,1.77-1.8,2.21c-7.64,3.85-11.68,8.33-11.68,12.96s4.04,9.11,11.68,12.96c.89.45,1.55,1.26,1.8,2.21s.09,1.99-.46,2.82c-4.69,7.15-5.95,13.05-3.63,17.06,2.07,3.59,6.9,5.46,14.02,5.46.83,0,1.68-.02,2.57-.08,1-.06,1.97.31,2.67,1.02.7.7,1.07,1.67,1.01,2.67-.49,8.54,1.38,14.28,5.39,16.59,4.01,2.32,9.91,1.06,17.06-3.63.58-.38,1.25-.57,1.92-.57Z"/>
      <path class="cls-2" d="m82.57,150.97c-4.54,0-8.92-3.95-12.69-11.41-.43-.85-1.2-1.48-2.12-1.73-.92-.25-1.9-.09-2.7.44-6.99,4.59-12.76,5.81-16.69,3.54-3.93-2.27-5.75-7.88-5.28-16.23.05-.95-.3-1.89-.97-2.56-.63-.63-1.48-.98-2.37-.98-.06,0-.13,0-.19,0-8.35.47-13.96-1.35-16.23-5.28-2.27-3.93-1.04-9.7,3.54-16.69.52-.8.68-1.78.44-2.7-.25-.92-.88-1.69-1.73-2.12-7.47-3.76-11.41-8.15-11.41-12.69s3.95-8.92,11.41-12.68c.85-.43,1.48-1.2,1.73-2.12s.09-1.9-.44-2.7c-4.58-6.99-5.81-12.76-3.54-16.69,2.03-3.52,6.75-5.35,13.72-5.35.81,0,1.64.02,2.51.07.06,0,.13,0,.19,0,.89,0,1.74-.35,2.37-.98.67-.67,1.03-1.61.97-2.56-.47-8.35,1.35-13.96,5.28-16.23,3.93-2.27,9.7-1.04,16.69,3.54.8.52,1.78.68,2.7.44.92-.25,1.69-.88,2.12-1.73,3.76-7.47,8.15-11.41,12.69-11.41s8.92,3.95,12.69,11.41c.43.85,1.2,1.48,2.12,1.73.92.25,1.91.09,2.7-.44,6.99-4.59,12.76-5.81,16.69-3.54,3.93,2.27,5.75,7.88,5.28,16.23-.05.95.3,1.89.97,2.56.63.63,1.48.98,2.37.98.06,0,.13,0,.19,0,8.35-.47,13.96,1.35,16.23,5.28,2.27,3.93,1.04,9.7-3.54,16.69-.52.8-.68,1.78-.44,2.7s.88,1.69,1.73,2.12c7.47,3.76,11.41,8.15,11.41,12.68s-3.95,8.92-11.41,12.69c-.85.43-1.48,1.2-1.73,2.12-.25.92-.09,1.9.44,2.7,4.58,6.99,5.81,12.76,3.54,16.69-2.03,3.52-6.75,5.35-13.72,5.35-.81,0-1.64-.02-2.5-.07-.06,0-.13,0-.19,0-.89,0-1.74.35-2.37.98-.67.67-1.03,1.61-.97,2.56.47,8.35-1.35,13.96-5.28,16.23-3.93,2.27-9.7,1.04-16.69-3.54-.8-.52-1.78-.68-2.7-.44-.92.25-1.69.88-2.12,1.73-3.76,7.47-8.15,11.41-12.69,11.41Zm-15.67-13.32c.29,0,.59.04.88.12.94.25,1.72.89,2.16,1.76,3.75,7.44,8.12,11.38,12.63,11.38s8.88-3.94,12.63-11.38c.44-.87,1.23-1.51,2.16-1.76.93-.25,1.94-.09,2.75.44,6.97,4.57,12.72,5.8,16.63,3.54,3.91-2.26,5.72-7.85,5.25-16.17-.06-.97.31-1.92.99-2.61.64-.64,1.51-1,2.41-1,.06,0,.13,0,.19,0,8.32.48,13.91-1.34,16.17-5.25,2.26-3.91,1.03-9.66-3.54-16.63-.53-.81-.7-1.82-.45-2.75.25-.94.89-1.72,1.76-2.16,7.44-3.75,11.38-8.12,11.38-12.63s-3.93-8.88-11.38-12.63c-.87-.44-1.51-1.23-1.76-2.16-.25-.94-.09-1.94.45-2.75,4.57-6.97,5.79-12.72,3.54-16.63-2.25-3.91-7.85-5.72-16.17-5.25-.07,0-.13,0-.19,0-.9,0-1.77-.36-2.41-1-.68-.69-1.05-1.63-.99-2.61.47-8.32-1.34-13.91-5.25-16.17-3.9-2.25-9.66-1.03-16.63,3.54-.81.53-1.82.7-2.75.44-.94-.25-1.72-.89-2.16-1.76-3.75-7.44-8.12-11.38-12.63-11.38s-8.88,3.94-12.63,11.38c-.44.87-1.23,1.51-2.16,1.76-.93.25-1.94.09-2.75-.44-6.97-4.57-12.72-5.8-16.63-3.54-3.91,2.25-5.72,7.85-5.25,16.17.06.97-.31,1.92-.99,2.61-.64.64-1.51,1-2.41,1-.06,0-.13,0-.19,0-8.32-.47-13.92,1.34-16.17,5.25-2.26,3.91-1.03,9.66,3.54,16.63.53.81.7,1.82.45,2.75-.25.94-.89,1.72-1.76,2.16-7.44,3.75-11.38,8.12-11.38,12.63s3.94,8.88,11.38,12.63c.87.44,1.51,1.23,1.76,2.16.25.94.09,1.94-.45,2.75-4.57,6.97-5.79,12.72-3.54,16.63,2.25,3.91,7.85,5.73,16.17,5.25.07,0,.13,0,.19,0,.9,0,1.77.36,2.41,1,.68.69,1.05,1.63.99,2.61-.47,8.32,1.34,13.92,5.25,16.17,3.91,2.26,9.66,1.03,16.63-3.54.56-.37,1.22-.56,1.88-.56Z"/>
      <path class="cls-2" d="m82.57,149.2c-4.42,0-8.69-3.85-12.36-11.12-.42-.83-1.17-1.44-2.07-1.68-.89-.24-1.85-.08-2.63.42-6.81,4.47-12.44,5.66-16.26,3.45-3.83-2.21-5.61-7.68-5.15-15.81.05-.93-.29-1.83-.95-2.49-.61-.61-1.44-.95-2.3-.95-.06,0-.12,0-.19,0-.84.05-1.66.07-2.44.07-6.79,0-11.39-1.78-13.37-5.22-2.21-3.83-1.02-9.45,3.45-16.26.51-.78.66-1.74.42-2.63-.24-.89-.85-1.65-1.68-2.06-7.27-3.67-11.12-7.94-11.12-12.36s3.84-8.69,11.12-12.36c.83-.42,1.44-1.17,1.68-2.06.24-.89.08-1.85-.42-2.63-4.47-6.81-5.66-12.44-3.45-16.26,1.98-3.43,6.58-5.22,13.37-5.22.78,0,1.6.02,2.44.07.93.05,1.83-.29,2.49-.95.65-.65,1-1.56.95-2.49-.46-8.13,1.32-13.6,5.15-15.81,3.83-2.21,9.45-1.02,16.26,3.45.78.51,1.73.66,2.63.43.89-.24,1.65-.85,2.06-1.68,3.67-7.27,7.94-11.12,12.36-11.12s8.69,3.85,12.36,11.12c.42.83,1.17,1.44,2.06,1.68.9.24,1.85.08,2.63-.43,6.81-4.47,12.44-5.66,16.26-3.45,3.83,2.21,5.61,7.68,5.15,15.81-.05.93.29,1.83.95,2.49.61.61,1.44.95,2.3.95.06,0,.12,0,.19,0,8.13-.46,13.6,1.32,15.81,5.14,2.21,3.83,1.02,9.45-3.45,16.26-.51.78-.67,1.73-.43,2.63.24.89.85,1.65,1.68,2.07,7.27,3.67,11.12,7.94,11.12,12.36s-3.84,8.69-11.12,12.36c-.83.42-1.44,1.17-1.68,2.07-.24.89-.08,1.85.43,2.63,4.47,6.81,5.66,12.44,3.45,16.26-1.98,3.43-6.58,5.22-13.37,5.22-.78,0-1.6-.02-2.44-.07-.06,0-.12,0-.19,0-.86,0-1.69.34-2.3.95-.65.65-1,1.56-.95,2.49.46,8.13-1.32,13.6-5.15,15.81-3.82,2.21-9.45,1.02-16.26-3.45-.78-.51-1.74-.66-2.63-.42-.89.24-1.65.85-2.07,1.68-3.67,7.27-7.94,11.12-12.36,11.12Zm-15.26-12.98c.29,0,.57.04.86.11.91.24,1.68.87,2.11,1.72,3.65,7.25,7.91,11.08,12.3,11.08s8.64-3.83,12.3-11.08c.43-.85,1.2-1.47,2.11-1.72.91-.25,1.89-.09,2.68.43,6.79,4.45,12.39,5.64,16.19,3.45,3.8-2.2,5.57-7.64,5.11-15.75-.05-.95.3-1.87.97-2.54.67-.67,1.59-1.02,2.54-.97,8.1.46,13.55-1.31,15.75-5.11,2.2-3.8,1-9.4-3.45-16.19-.52-.79-.68-1.77-.43-2.68.24-.91.87-1.68,1.72-2.11,7.25-3.65,11.08-7.91,11.08-12.3s-3.83-8.65-11.08-12.3c-.85-.43-1.47-1.2-1.72-2.11-.24-.91-.09-1.89.43-2.68,4.45-6.79,5.64-12.39,3.45-16.19-2.2-3.8-7.65-5.57-15.75-5.11-.95.05-1.87-.3-2.54-.97-.67-.67-1.02-1.59-.97-2.54.46-8.11-1.31-13.55-5.11-15.75-3.81-2.2-9.4-1-16.19,3.45-.79.52-1.77.68-2.68.43-.91-.24-1.68-.87-2.11-1.72-3.65-7.25-7.91-11.08-12.3-11.08s-8.65,3.83-12.3,11.08c-.43.85-1.2,1.47-2.11,1.72-.91.25-1.89.09-2.68-.43-6.79-4.45-12.39-5.64-16.19-3.45-3.8,2.2-5.57,7.64-5.11,15.75.05.95-.3,1.87-.97,2.54s-1.59,1.02-2.54.97c-8.11-.46-13.55,1.31-15.75,5.11-2.2,3.8-1,9.4,3.45,16.19.52.79.68,1.77.43,2.68-.24.91-.87,1.68-1.72,2.11-7.25,3.65-11.08,7.91-11.08,12.3s3.83,8.65,11.08,12.3c.85.43,1.47,1.2,1.72,2.11.25.91.09,1.89-.43,2.68-4.45,6.79-5.64,12.39-3.45,16.19s7.65,5.57,15.75,5.11c.06,0,.13,0,.19,0,.88,0,1.73.35,2.35.97.67.67,1.02,1.59.97,2.54-.46,8.1,1.31,13.55,5.11,15.75,3.8,2.19,9.4,1,16.19-3.45.55-.36,1.19-.55,1.83-.55Z"/>
      <path class="cls-2" d="m82.57,147.43c-4.3,0-8.47-3.74-12.04-10.83-.41-.81-1.14-1.4-2.01-1.64-.87-.23-1.8-.08-2.56.41-6.63,4.35-12.11,5.51-15.83,3.36-3.73-2.15-5.46-7.48-5.01-15.39.05-.9-.28-1.78-.92-2.42-.59-.59-1.4-.93-2.24-.93-.06,0-.12,0-.18,0-.82.05-1.61.07-2.38.07-6.61,0-11.09-1.74-13.02-5.08-2.15-3.73-.99-9.2,3.36-15.84.5-.75.65-1.69.41-2.56-.23-.87-.83-1.6-1.64-2.01-7.08-3.57-10.83-7.73-10.83-12.04s3.74-8.47,10.83-12.03c.81-.41,1.4-1.14,1.64-2.01.23-.87.08-1.8-.41-2.56-4.35-6.63-5.51-12.11-3.36-15.84,2.15-3.73,7.48-5.46,15.39-5.01.06,0,.12,0,.18,0,.84,0,1.65-.33,2.24-.93.64-.64.97-1.52.92-2.42-.45-7.92,1.28-13.24,5.01-15.39,3.73-2.15,9.2-.99,15.83,3.36.75.5,1.69.65,2.56.41.87-.23,1.6-.83,2.01-1.64,3.57-7.08,7.73-10.83,12.04-10.83s8.47,3.74,12.04,10.83c.41.81,1.14,1.4,2.01,1.64.87.23,1.8.08,2.56-.41,6.63-4.35,12.11-5.51,15.83-3.36,3.73,2.15,5.46,7.48,5.01,15.39-.05.9.28,1.78.92,2.42.59.59,1.4.93,2.24.93.06,0,.12,0,.18,0,.82-.05,1.61-.07,2.38-.07,6.61,0,11.09,1.74,13.02,5.08,2.15,3.73.99,9.2-3.36,15.84-.5.76-.65,1.69-.41,2.56.23.87.83,1.6,1.64,2.01,7.08,3.57,10.83,7.73,10.83,12.03s-3.74,8.47-10.83,12.04c-.81.41-1.4,1.14-1.64,2.01-.23.87-.08,1.8.41,2.56,4.35,6.63,5.51,12.11,3.36,15.84-2.15,3.73-7.47,5.46-15.39,5.01-.06,0-.12,0-.18,0-.84,0-1.65.33-2.24.93-.64.64-.97,1.52-.92,2.42.45,7.92-1.28,13.24-5.01,15.39-3.73,2.15-9.21.99-15.83-3.36-.75-.49-1.69-.65-2.56-.41-.87.23-1.6.83-2.01,1.64-3.57,7.08-7.73,10.83-12.04,10.83Zm-14.86-12.64c.28,0,.56.04.83.11.89.24,1.64.85,2.06,1.67,3.55,7.05,7.69,10.78,11.97,10.78s8.41-3.73,11.97-10.78c.42-.83,1.17-1.44,2.06-1.67.89-.24,1.84-.08,2.62.42,6.61,4.33,12.06,5.49,15.76,3.36,3.7-2.14,5.42-7.44,4.97-15.32-.05-.92.29-1.83.94-2.48.65-.65,1.56-1,2.48-.94,7.89.44,13.19-1.27,15.32-4.97,2.14-3.7.98-9.15-3.35-15.76-.51-.77-.66-1.73-.42-2.62.24-.89.85-1.64,1.68-2.05,7.05-3.56,10.78-7.69,10.78-11.97s-3.73-8.41-10.78-11.97c-.83-.42-1.44-1.17-1.68-2.05s-.08-1.84.42-2.62c4.33-6.61,5.49-12.05,3.35-15.76-1.91-3.32-6.37-5.04-12.95-5.04-.76,0-1.55.02-2.37.07-.92.05-1.83-.29-2.48-.94s-1-1.55-.94-2.48c.45-7.89-1.27-13.19-4.97-15.32-3.7-2.14-9.15-.98-15.76,3.36-.77.51-1.73.66-2.62.42s-1.64-.85-2.06-1.67c-3.56-7.05-7.69-10.78-11.97-10.78s-8.41,3.73-11.97,10.78c-.42.83-1.17,1.44-2.06,1.67-.89.24-1.84.08-2.62-.42-6.61-4.33-12.06-5.49-15.76-3.36-3.7,2.14-5.42,7.44-4.97,15.32.05.92-.29,1.83-.94,2.48-.61.61-1.44.95-2.29.95-.06,0-.12,0-.18,0-7.89-.44-13.19,1.27-15.32,4.97-2.14,3.7-.98,9.15,3.35,15.76.51.77.66,1.73.42,2.62s-.85,1.64-1.68,2.05c-7.05,3.56-10.78,7.69-10.78,11.97s3.73,8.41,10.78,11.97c.83.42,1.44,1.17,1.68,2.05.24.89.08,1.84-.42,2.62-4.33,6.61-5.49,12.05-3.35,15.76,2.14,3.7,7.43,5.42,15.32,4.97.06,0,.12,0,.18,0,.86,0,1.69.34,2.29.95.65.65.99,1.55.94,2.48-.45,7.89,1.27,13.19,4.97,15.32,3.7,2.14,9.15.98,15.76-3.36.53-.35,1.16-.53,1.78-.53Z"/>
      <path class="cls-2" d="m82.57,145.66c-4.19,0-8.24-3.64-11.71-10.53-.4-.78-1.11-1.36-1.95-1.59-.84-.23-1.75-.08-2.48.4-6.45,4.23-11.78,5.36-15.41,3.27-3.63-2.09-5.31-7.27-4.88-14.98.05-.88-.28-1.73-.89-2.35s-1.47-.95-2.35-.89c-7.71.44-12.88-1.25-14.98-4.88-2.09-3.63-.96-8.96,3.27-15.41.48-.73.63-1.64.4-2.48-.23-.84-.8-1.55-1.59-1.95-6.89-3.47-10.53-7.52-10.53-11.71s3.64-8.24,10.53-11.71c.78-.39,1.36-1.1,1.59-1.95s.08-1.75-.4-2.48c-4.23-6.45-5.36-11.78-3.27-15.41,2.09-3.63,7.28-5.31,14.98-4.88.88.05,1.73-.28,2.35-.89.62-.62.94-1.47.89-2.35-.44-7.7,1.25-12.88,4.88-14.98,3.62-2.09,8.95-.96,15.41,3.27.73.48,1.64.63,2.48.4.84-.23,1.55-.81,1.95-1.59,3.47-6.89,7.52-10.53,11.71-10.53s8.24,3.64,11.71,10.53c.4.78,1.11,1.36,1.95,1.59.84.23,1.75.08,2.48-.4,6.45-4.23,11.78-5.36,15.41-3.27,3.63,2.09,5.31,7.27,4.88,14.98-.05.88.28,1.73.89,2.35.62.62,1.48.94,2.35.89,7.7-.44,12.88,1.25,14.98,4.88s.96,8.96-3.27,15.41c-.48.73-.63,1.64-.4,2.48.23.84.81,1.55,1.59,1.95,6.89,3.47,10.53,7.52,10.53,11.71s-3.64,8.24-10.53,11.71c-.78.4-1.36,1.11-1.59,1.95-.23.84-.08,1.75.4,2.48,4.23,6.45,5.36,11.78,3.27,15.41-2.09,3.63-7.27,5.31-14.98,4.88-.06,0-.12,0-.18,0-.81,0-1.6.32-2.17.9-.62.62-.94,1.47-.89,2.35.44,7.7-1.25,12.88-4.88,14.98-3.63,2.09-8.96.97-15.41-3.27-.73-.48-1.64-.63-2.48-.4-.84.23-1.55.81-1.95,1.59-3.47,6.89-7.52,10.53-11.71,10.53Zm-14.45-12.31c.27,0,.54.04.81.11.87.23,1.6.83,2,1.63,3.46,6.86,7.48,10.49,11.64,10.49s8.18-3.63,11.64-10.49c.41-.8,1.14-1.4,2-1.63.87-.23,1.79-.08,2.55.41,6.42,4.21,11.72,5.34,15.32,3.26,3.6-2.08,5.27-7.23,4.83-14.9-.05-.9.28-1.78.92-2.41.63-.63,1.52-.97,2.41-.92,7.67.43,12.82-1.24,14.9-4.83s.95-8.9-3.26-15.32c-.49-.75-.64-1.68-.41-2.55s.83-1.6,1.63-2c6.86-3.46,10.49-7.48,10.49-11.64s-3.63-8.18-10.49-11.64c-.8-.41-1.4-1.14-1.63-2-.23-.87-.08-1.79.41-2.55,4.21-6.42,5.34-11.72,3.26-15.32-2.08-3.6-7.22-5.27-14.9-4.83-.89.05-1.78-.28-2.41-.92-.63-.63-.97-1.51-.92-2.41.44-7.67-1.23-12.82-4.83-14.9-3.6-2.08-8.9-.95-15.32,3.26-.75.49-1.68.64-2.55.41-.87-.23-1.6-.83-2-1.63-3.46-6.86-7.48-10.49-11.64-10.49s-8.18,3.63-11.64,10.49c-.41.8-1.13,1.4-2,1.63-.86.23-1.79.08-2.55-.41-6.42-4.21-11.72-5.34-15.32-3.26-3.6,2.08-5.27,7.23-4.83,14.9.05.9-.28,1.78-.92,2.41-.63.63-1.52.97-2.41.92-.8-.05-1.57-.07-2.31-.07-6.4,0-10.73,1.68-12.59,4.9-2.08,3.6-.95,8.9,3.26,15.32.49.75.64,1.68.41,2.55-.23.87-.83,1.6-1.63,2-6.86,3.46-10.49,7.48-10.49,11.64s3.63,8.18,10.49,11.64c.8.41,1.4,1.13,1.63,2,.23.87.08,1.8-.41,2.55-4.21,6.42-5.34,11.72-3.26,15.32,2.08,3.6,7.23,5.27,14.9,4.83.9-.05,1.78.28,2.41.92.63.63.97,1.51.92,2.41-.44,7.67,1.24,12.82,4.83,14.9,3.6,2.08,8.89.95,15.32-3.26.52-.34,1.13-.52,1.74-.52Z"/>
      <path class="cls-2" d="m82.57,143.89c-4.07,0-8.01-3.54-11.39-10.24-.38-.76-1.07-1.32-1.89-1.54-.82-.22-1.7-.08-2.41.39-6.27,4.11-11.45,5.21-14.98,3.17-3.53-2.04-5.17-7.07-4.74-14.56.05-.85-.27-1.68-.87-2.28-.56-.56-1.32-.87-2.11-.87-.06,0-.11,0-.17,0-.78.04-1.53.07-2.25.07-6.25,0-10.49-1.64-12.31-4.81-2.04-3.53-.94-8.71,3.17-14.98.47-.71.61-1.59.39-2.41-.22-.82-.78-1.51-1.54-1.89-6.7-3.38-10.24-7.31-10.24-11.39s3.54-8.01,10.24-11.38c.76-.38,1.32-1.07,1.54-1.89.22-.82.08-1.7-.39-2.41-4.11-6.27-5.21-11.45-3.17-14.98,2.04-3.53,7.07-5.16,14.56-4.74.84.05,1.68-.27,2.28-.87.6-.6.92-1.43.87-2.28-.43-7.49,1.21-12.52,4.74-14.56,3.53-2.04,8.71-.94,14.98,3.17.71.47,1.59.61,2.41.39.82-.22,1.51-.78,1.89-1.54,3.38-6.7,7.31-10.24,11.39-10.24s8.01,3.54,11.39,10.24c.38.76,1.07,1.32,1.89,1.54s1.7.08,2.41-.39c6.27-4.11,11.45-5.21,14.98-3.17,3.53,2.04,5.17,7.07,4.74,14.56-.05.85.27,1.68.87,2.28.6.6,1.43.92,2.28.87,7.5-.43,12.52,1.21,14.56,4.74,2.04,3.53.94,8.71-3.17,14.98-.47.71-.61,1.59-.39,2.41.22.82.78,1.51,1.54,1.89,6.7,3.38,10.24,7.31,10.24,11.38s-3.54,8.01-10.24,11.39c-.76.38-1.32,1.07-1.54,1.89-.22.82-.08,1.7.39,2.41,4.11,6.27,5.21,11.45,3.17,14.98-2.04,3.53-7.07,5.16-14.56,4.74-.06,0-.11,0-.17,0-.79,0-1.55.31-2.11.87-.6.6-.92,1.43-.87,2.28.43,7.49-1.21,12.52-4.74,14.56-3.53,2.04-8.71.94-14.98-3.17-.71-.47-1.59-.61-2.41-.39-.82.22-1.51.78-1.89,1.54-3.38,6.7-7.31,10.24-11.39,10.24Zm-14.04-11.97c.26,0,.53.03.79.1.84.23,1.55.8,1.95,1.59,3.36,6.67,7.27,10.19,11.3,10.19s7.95-3.52,11.3-10.19c.39-.78,1.1-1.36,1.95-1.59.84-.23,1.75-.08,2.48.4,6.24,4.09,11.39,5.19,14.88,3.17,3.5-2.02,5.12-7.02,4.7-14.48-.05-.88.28-1.73.89-2.35.58-.58,1.36-.9,2.17-.9.06,0,.12,0,.17,0,7.45.42,12.46-1.2,14.48-4.7,2.02-3.5.92-8.64-3.17-14.88-.48-.73-.63-1.64-.4-2.48.23-.84.8-1.55,1.59-1.95,6.67-3.36,10.19-7.27,10.19-11.3s-3.52-7.94-10.19-11.3c-.78-.39-1.36-1.1-1.59-1.95-.23-.84-.08-1.75.4-2.48,4.09-6.24,5.19-11.39,3.17-14.88-2.02-3.5-7.02-5.12-14.48-4.7-.06,0-.12,0-.18,0-.81,0-1.6-.32-2.17-.9-.62-.62-.94-1.47-.89-2.35.42-7.45-1.2-12.46-4.7-14.48-3.5-2.02-8.64-.92-14.88,3.17-.73.48-1.64.63-2.48.4-.84-.23-1.55-.8-1.95-1.59-3.36-6.67-7.27-10.19-11.3-10.19s-7.95,3.52-11.3,10.19c-.39.78-1.1,1.36-1.95,1.59-.85.23-1.75.08-2.48-.4-6.24-4.09-11.39-5.19-14.88-3.17-3.49,2.02-5.12,7.02-4.7,14.48.05.88-.27,1.73-.89,2.35s-1.48.94-2.35.89c-.77-.04-1.52-.07-2.24-.07-6.22,0-10.42,1.63-12.23,4.76-2.02,3.5-.92,8.64,3.17,14.88.48.73.63,1.64.4,2.48-.23.84-.8,1.55-1.59,1.95-6.67,3.36-10.19,7.27-10.19,11.3s3.52,7.95,10.19,11.3c.78.39,1.36,1.1,1.59,1.95.23.84.08,1.75-.4,2.48-4.09,6.24-5.19,11.39-3.17,14.88,2.02,3.5,7.03,5.12,14.48,4.7.06,0,.12,0,.17,0,.81,0,1.6.32,2.18.9.62.62.94,1.47.89,2.35-.42,7.45,1.2,12.46,4.7,14.48,3.5,2.02,8.64.92,14.88-3.17.51-.33,1.1-.5,1.69-.5Z"/>
      <path class="cls-2" d="m82.57,142.12c-3.96,0-7.78-3.44-11.06-9.95-.37-.74-1.04-1.28-1.83-1.49-.79-.21-1.64-.07-2.33.38-6.09,4-11.12,5.06-14.55,3.08-3.43-1.98-5.02-6.87-4.61-14.14.05-.82-.26-1.63-.84-2.21-.54-.54-1.28-.85-2.05-.85-.05,0-.11,0-.16,0-.75.04-1.48.06-2.18.06-6.07,0-10.19-1.6-11.96-4.67-1.98-3.43-.91-8.46,3.08-14.55.45-.69.59-1.54.38-2.33s-.76-1.46-1.49-1.83c-6.51-3.28-9.94-7.1-9.94-11.06s3.44-7.78,9.94-11.06c.74-.37,1.28-1.04,1.49-1.83s.08-1.64-.38-2.33c-4-6.09-5.06-11.12-3.08-14.55,1.98-3.43,6.87-5.01,14.14-4.61.82.05,1.63-.26,2.21-.84.58-.58.89-1.39.84-2.21-.41-7.27,1.18-12.17,4.61-14.14,3.43-1.98,8.46-.91,14.55,3.08.69.45,1.54.59,2.33.38.79-.21,1.46-.76,1.83-1.49,3.28-6.51,7.1-9.95,11.06-9.95s7.78,3.44,11.06,9.95c.37.74,1.04,1.28,1.83,1.49.79.21,1.64.07,2.33-.38,6.09-4,11.12-5.06,14.55-3.08s5.02,6.87,4.61,14.14c-.05.82.26,1.63.84,2.21s1.39.89,2.21.84c7.28-.41,12.16,1.18,14.14,4.61,1.98,3.43.91,8.46-3.08,14.55-.45.69-.59,1.54-.38,2.33.21.79.76,1.46,1.5,1.83,6.5,3.28,9.94,7.1,9.94,11.06s-3.44,7.78-9.94,11.06c-.74.37-1.28,1.04-1.5,1.83-.21.79-.07,1.64.38,2.33,4,6.09,5.06,11.12,3.08,14.55-1.98,3.43-6.87,5.02-14.14,4.61-.05,0-.11,0-.16,0-.77,0-1.5.3-2.05.85-.58.58-.89,1.39-.84,2.21.41,7.27-1.18,12.16-4.61,14.14-3.43,1.98-8.46.91-14.55-3.08-.69-.45-1.54-.59-2.33-.38-.79.21-1.46.76-1.83,1.49-3.28,6.51-7.1,9.95-11.06,9.95Zm-13.64-11.64c.26,0,.52.03.77.1.82.22,1.51.78,1.9,1.54,3.26,6.47,7.06,9.89,10.97,9.89s7.71-3.42,10.97-9.89c.38-.76,1.08-1.33,1.9-1.55.82-.22,1.7-.08,2.41.39,6.06,3.97,11.06,5.04,14.45,3.08,3.39-1.96,4.97-6.82,4.56-14.05-.05-.85.27-1.68.87-2.29.56-.56,1.32-.87,2.12-.87.06,0,.11,0,.17,0,7.23.41,12.09-1.16,14.05-4.56,1.96-3.39.89-8.39-3.08-14.45-.47-.71-.61-1.59-.39-2.41.22-.82.78-1.51,1.54-1.9,6.47-3.26,9.89-7.05,9.89-10.97s-3.42-7.71-9.89-10.97c-.76-.38-1.33-1.07-1.54-1.9-.22-.82-.08-1.7.39-2.41,3.97-6.06,5.04-11.06,3.08-14.45-1.96-3.39-6.82-4.97-14.05-4.56-.06,0-.11,0-.17,0-.79,0-1.55-.31-2.11-.87-.6-.6-.92-1.43-.87-2.29.41-7.23-1.16-12.09-4.56-14.05-3.39-1.96-8.39-.89-14.45,3.08-.71.47-1.59.61-2.41.39-.82-.22-1.51-.78-1.9-1.54-3.26-6.47-7.05-9.89-10.97-9.89s-7.71,3.42-10.97,9.89c-.38.76-1.07,1.32-1.89,1.54-.82.22-1.7.08-2.41-.39-6.06-3.97-11.05-5.04-14.45-3.08-3.39,1.96-4.97,6.82-4.56,14.05.05.85-.27,1.68-.87,2.29-.56.56-1.32.87-2.11.87-.06,0-.11,0-.17,0-7.23-.42-12.09,1.17-14.05,4.56-1.96,3.39-.89,8.39,3.08,14.45.47.71.61,1.59.39,2.41-.22.82-.78,1.51-1.54,1.89-6.47,3.26-9.89,7.06-9.89,10.97s3.42,7.71,9.89,10.97c.76.38,1.32,1.07,1.54,1.9.22.82.08,1.7-.39,2.41-3.97,6.06-5.04,11.06-3.08,14.45,1.96,3.39,6.81,4.97,14.05,4.56.06,0,.11,0,.17,0,.79,0,1.55.31,2.12.88.6.6.92,1.43.87,2.28-.41,7.23,1.17,12.09,4.56,14.05,3.39,1.96,8.39.89,14.45-3.08.49-.32,1.07-.49,1.64-.49Z"/>
      <path class="cls-2" d="m82.57,140.35c-3.84,0-7.55-3.34-10.73-9.65-.36-.71-1.01-1.24-1.78-1.45-.77-.2-1.59-.07-2.26.37-5.91,3.88-10.79,4.91-14.12,2.99-3.33-1.92-4.87-6.67-4.47-13.73.05-.8-.25-1.58-.81-2.14-.53-.53-1.24-.82-1.98-.82-.05,0-.11,0-.16,0-7.06.41-11.8-1.14-13.73-4.47s-.89-8.21,2.99-14.12c.44-.67.57-1.49.37-2.26s-.73-1.42-1.45-1.77c-6.31-3.18-9.65-6.89-9.65-10.74s3.34-7.55,9.65-10.73c.71-.36,1.24-1.01,1.45-1.77.21-.77.07-1.59-.37-2.26-3.88-5.91-4.91-10.8-2.99-14.12,1.92-3.33,6.67-4.88,13.73-4.47.8.05,1.58-.25,2.14-.81s.86-1.34.81-2.14c-.4-7.06,1.15-11.81,4.47-13.73,3.32-1.92,8.21-.89,14.12,2.99.67.44,1.49.57,2.26.37.77-.21,1.42-.73,1.77-1.45,3.18-6.31,6.89-9.65,10.73-9.65s7.55,3.34,10.73,9.65c.36.71,1.01,1.24,1.78,1.45.77.21,1.59.07,2.26-.37,5.91-3.88,10.8-4.91,14.12-2.99,3.33,1.92,4.87,6.67,4.47,13.73-.04.8.25,1.58.81,2.14s1.35.86,2.14.81c7.06-.4,11.81,1.14,13.73,4.47s.89,8.21-2.99,14.12c-.44.67-.57,1.49-.37,2.26.21.77.73,1.42,1.45,1.77,6.31,3.18,9.65,6.89,9.65,10.73s-3.34,7.55-9.65,10.74c-.71.36-1.24,1.01-1.45,1.77s-.07,1.59.37,2.26c3.88,5.91,4.91,10.8,2.99,14.12-1.92,3.33-6.66,4.88-13.73,4.47-.05,0-.11,0-.16,0-.74,0-1.46.29-1.98.82-.56.56-.86,1.34-.81,2.14.4,7.06-1.14,11.81-4.47,13.73-3.33,1.92-8.21.89-14.12-2.99-.67-.44-1.49-.57-2.26-.37-.77.21-1.42.73-1.78,1.45-3.18,6.31-6.89,9.65-10.73,9.65Zm-13.23-11.3c.25,0,.5.03.75.1.8.21,1.47.76,1.84,1.5,3.16,6.28,6.84,9.59,10.64,9.59s7.48-3.32,10.64-9.59c.37-.74,1.04-1.29,1.84-1.5.8-.21,1.65-.08,2.35.38,5.88,3.85,10.72,4.89,14.01,2.99,3.29-1.9,4.82-6.61,4.42-13.63-.05-.83.26-1.64.84-2.22s1.39-.89,2.22-.84c.73.04,1.43.06,2.11.06,5.85,0,9.81-1.53,11.51-4.48,1.9-3.29.87-8.14-2.99-14.01-.46-.69-.59-1.55-.38-2.35s.76-1.47,1.5-1.84c6.28-3.16,9.59-6.84,9.59-10.64s-3.32-7.48-9.59-10.64c-.74-.37-1.29-1.04-1.5-1.84-.21-.8-.08-1.65.38-2.35,3.85-5.88,4.89-10.72,2.99-14.01-1.9-3.29-6.61-4.82-13.63-4.42-.83.05-1.64-.26-2.22-.84s-.89-1.39-.84-2.22c.4-7.02-1.13-11.73-4.42-13.63-3.29-1.9-8.13-.87-14.01,2.99-.69.45-1.55.59-2.35.38-.8-.21-1.47-.76-1.84-1.5-3.16-6.28-6.84-9.59-10.64-9.59s-7.48,3.32-10.64,9.59c-.37.74-1.04,1.29-1.84,1.5-.8.21-1.65.08-2.35-.38-5.88-3.85-10.72-4.89-14.01-2.99s-4.82,6.61-4.42,13.63c.05.83-.26,1.64-.84,2.22-.58.58-1.4.89-2.22.84-7.02-.4-11.73,1.13-13.63,4.42s-.87,8.13,2.99,14.01c.46.69.59,1.55.38,2.35-.21.8-.76,1.47-1.5,1.84-6.28,3.16-9.59,6.84-9.59,10.64s3.32,7.48,9.59,10.64c.74.37,1.29,1.04,1.5,1.84s.08,1.65-.38,2.35c-3.85,5.88-4.89,10.72-2.99,14.01,1.9,3.29,6.62,4.82,13.63,4.42.82-.05,1.64.26,2.22.85s.89,1.39.84,2.22c-.4,7.02,1.13,11.73,4.42,13.63,3.29,1.9,8.13.87,14.01-2.99.48-.31,1.04-.48,1.6-.48Z"/>
      <path class="cls-2" d="m82.57,138.58c-3.73,0-7.33-3.24-10.41-9.36-.35-.69-.97-1.2-1.72-1.4-.74-.2-1.54-.07-2.19.35-5.73,3.76-10.47,4.76-13.69,2.9-3.23-1.86-4.73-6.47-4.34-13.31.04-.77-.24-1.53-.79-2.07-.51-.51-1.2-.79-1.92-.79-.05,0-.1,0-.15,0-6.84.39-11.45-1.11-13.31-4.34-1.86-3.23-.86-7.96,2.9-13.69.42-.65.55-1.44.35-2.19s-.71-1.37-1.4-1.72c-6.12-3.08-9.36-6.68-9.36-10.41s3.24-7.33,9.36-10.41c.69-.35,1.2-.97,1.4-1.72.2-.74.07-1.54-.35-2.19-3.76-5.73-4.76-10.47-2.9-13.69,1.86-3.23,6.46-4.73,13.31-4.34.77.05,1.53-.24,2.07-.79.54-.54.83-1.3.79-2.07-.39-6.84,1.11-11.45,4.34-13.31,3.22-1.86,7.96-.86,13.69,2.9.65.42,1.45.55,2.19.35.74-.2,1.37-.71,1.72-1.4,3.08-6.12,6.68-9.36,10.41-9.36s7.33,3.24,10.41,9.36c.35.69.97,1.2,1.72,1.4.74.2,1.54.07,2.19-.35,5.73-3.76,10.47-4.76,13.69-2.9,3.23,1.86,4.73,6.47,4.34,13.31-.04.77.24,1.53.79,2.07.51.51,1.2.79,1.92.79.05,0,.1,0,.16,0,.71-.04,1.39-.06,2.05-.06,5.72,0,9.59,1.5,11.26,4.4,1.86,3.23.86,7.96-2.9,13.69-.42.65-.55,1.44-.35,2.19s.71,1.37,1.4,1.72c6.12,3.08,9.36,6.68,9.36,10.41s-3.24,7.33-9.36,10.41c-.69.35-1.2.97-1.4,1.72s-.07,1.54.35,2.19c3.76,5.73,4.76,10.47,2.9,13.69-1.86,3.23-6.47,4.73-13.31,4.34-.78-.04-1.53.24-2.07.79-.54.54-.83,1.3-.79,2.07.39,6.84-1.11,11.45-4.34,13.31-3.22,1.86-7.96.86-13.69-2.9-.65-.42-1.44-.55-2.19-.35-.74.2-1.37.71-1.72,1.4-3.08,6.12-6.68,9.36-10.41,9.36Zm-12.82-10.96c.24,0,.49.03.73.1.77.21,1.43.74,1.79,1.46,3.06,6.08,6.63,9.3,10.31,9.3s7.24-3.21,10.31-9.3c.36-.72,1.01-1.25,1.79-1.46.77-.21,1.6-.07,2.28.37,5.69,3.73,10.39,4.74,13.58,2.9,3.19-1.84,4.67-6.41,4.28-13.2-.05-.8.25-1.59.82-2.16.57-.57,1.35-.86,2.16-.82,6.8.38,11.36-1.09,13.21-4.28,1.84-3.19.84-7.88-2.9-13.58-.44-.67-.58-1.5-.37-2.28.21-.77.74-1.43,1.46-1.79,6.08-3.06,9.3-6.63,9.3-10.31s-3.21-7.24-9.3-10.31c-.72-.36-1.25-1.01-1.46-1.79-.21-.77-.07-1.6.37-2.28,3.73-5.69,4.74-10.39,2.9-13.58-1.65-2.85-5.49-4.34-11.16-4.34-.66,0-1.34.02-2.05.06-.8.04-1.59-.25-2.16-.82s-.87-1.35-.82-2.16c.39-6.8-1.09-11.36-4.28-13.2-3.19-1.84-7.88-.84-13.58,2.9-.67.44-1.51.57-2.28.37-.77-.21-1.43-.74-1.79-1.46-3.06-6.08-6.63-9.3-10.31-9.3s-7.24,3.21-10.31,9.3c-.36.72-1.01,1.25-1.79,1.46-.77.21-1.6.07-2.28-.37-5.69-3.73-10.39-4.73-13.58-2.9-3.19,1.84-4.67,6.41-4.28,13.2.05.8-.25,1.59-.82,2.16-.57.57-1.36.86-2.16.82-6.8-.39-11.37,1.09-13.21,4.28-1.84,3.19-.84,7.88,2.9,13.58.44.67.58,1.5.37,2.28-.21.77-.74,1.43-1.46,1.79-6.08,3.06-9.3,6.63-9.3,10.31s3.21,7.24,9.3,10.31c.72.36,1.25,1.01,1.46,1.79.21.77.07,1.61-.37,2.28-3.73,5.69-4.74,10.39-2.9,13.58,1.84,3.19,6.41,4.67,13.21,4.28.8-.04,1.59.25,2.16.82.57.57.87,1.35.82,2.16-.39,6.8,1.09,11.36,4.28,13.2,3.19,1.84,7.88.84,13.58-2.9.47-.31,1.01-.46,1.55-.46Z"/>
      <path class="cls-2" d="m82.57,136.81c-3.61,0-7.1-3.13-10.08-9.06-.34-.67-.94-1.16-1.66-1.35-.72-.19-1.49-.07-2.11.34-5.55,3.64-10.14,4.61-13.27,2.81-3.13-1.8-4.58-6.26-4.2-12.89.04-.75-.23-1.47-.76-2-.49-.49-1.16-.77-1.85-.77-.05,0-.1,0-.15,0-6.63.38-11.09-1.08-12.89-4.2-1.8-3.13-.83-7.71,2.81-13.27.41-.62.53-1.4.34-2.11-.19-.72-.69-1.32-1.35-1.66-5.93-2.99-9.06-6.48-9.06-10.09s3.13-7.1,9.06-10.08c.67-.34,1.16-.94,1.35-1.66.19-.72.07-1.49-.34-2.11-3.64-5.55-4.61-10.14-2.81-13.27,1.62-2.8,5.37-4.26,10.91-4.26.64,0,1.3.02,1.99.06.75.04,1.47-.23,2-.76.53-.53.8-1.25.76-2-.38-6.63,1.08-11.09,4.2-12.89,3.12-1.8,7.71-.83,13.27,2.81.62.41,1.39.53,2.11.34.72-.19,1.32-.69,1.66-1.35,2.99-5.93,6.48-9.06,10.08-9.06s7.1,3.13,10.08,9.06c.34.67.94,1.16,1.66,1.35.72.19,1.49.07,2.11-.34,5.55-3.64,10.14-4.61,13.27-2.81,3.12,1.8,4.58,6.26,4.2,12.89-.04.75.24,1.48.76,2,.53.53,1.25.81,2,.76,6.63-.38,11.09,1.08,12.89,4.2,1.8,3.13.83,7.71-2.81,13.27-.41.62-.53,1.39-.34,2.11.19.72.69,1.32,1.35,1.66,5.93,2.99,9.06,6.48,9.06,10.08s-3.13,7.1-9.06,10.09c-.67.34-1.16.94-1.35,1.66-.19.72-.07,1.49.34,2.11,3.64,5.55,4.61,10.14,2.81,13.27-1.62,2.8-5.37,4.26-10.91,4.26-.64,0-1.3-.02-1.99-.06-.05,0-.1,0-.15,0-.69,0-1.36.27-1.85.77-.53.53-.8,1.25-.76,2,.38,6.63-1.08,11.09-4.2,12.89-3.13,1.81-7.71.83-13.27-2.81-.62-.41-1.4-.53-2.11-.34-.72.19-1.32.69-1.66,1.35-2.99,5.93-6.48,9.06-10.08,9.06Zm-12.42-10.63c.24,0,.47.03.7.09.75.2,1.38.72,1.74,1.42,2.97,5.89,6.42,9,9.98,9s7.01-3.11,9.98-9c.35-.7.98-1.21,1.73-1.41.75-.2,1.56-.07,2.21.36,5.51,3.61,10.05,4.58,13.14,2.8,3.08-1.78,4.51-6.2,4.14-12.78-.04-.78.25-1.54.8-2.09.51-.51,1.21-.8,1.94-.8.05,0,.1,0,.16,0,.68.04,1.34.06,1.98.06,5.49,0,9.2-1.44,10.8-4.2,1.78-3.08.81-7.63-2.8-13.14-.43-.65-.56-1.46-.36-2.21.2-.75.72-1.38,1.42-1.74,5.89-2.97,9-6.42,9-9.98s-3.11-7.01-9-9.98c-.7-.35-1.21-.98-1.42-1.74-.2-.75-.07-1.56.36-2.21,3.61-5.51,4.58-10.06,2.8-13.14-1.6-2.76-5.31-4.2-10.8-4.2-.64,0-1.3.02-1.98.06-.78.04-1.54-.25-2.09-.8-.55-.55-.84-1.31-.8-2.09.37-6.58-1.06-11-4.14-12.78-3.08-1.78-7.63-.81-13.14,2.8-.65.43-1.46.56-2.21.36-.75-.2-1.38-.72-1.73-1.41-2.97-5.89-6.42-9-9.98-9s-7.01,3.11-9.98,9c-.35.7-.98,1.21-1.74,1.42-.75.2-1.56.07-2.21-.36-5.51-3.62-10.06-4.58-13.14-2.8-3.08,1.78-4.52,6.2-4.14,12.78.04.78-.25,1.54-.79,2.09-.55.55-1.31.84-2.09.8-6.58-.38-11,1.06-12.78,4.14-1.78,3.08-.81,7.63,2.8,13.14.43.65.56,1.46.36,2.21-.2.75-.72,1.38-1.42,1.74-5.89,2.97-9,6.42-9,9.98s3.11,7.01,9,9.98c.7.35,1.21.98,1.42,1.74.2.75.07,1.56-.36,2.21-3.61,5.51-4.58,10.06-2.8,13.14,1.78,3.08,6.2,4.52,12.78,4.14.79-.04,1.54.25,2.09.8s.84,1.31.79,2.09c-.37,6.58,1.06,11,4.14,12.78,3.08,1.78,7.63.81,13.14-2.8.45-.3.98-.45,1.5-.45Z"/>
      <path class="cls-2" d="m82.57,135.04c-3.49,0-6.87-3.03-9.76-8.77-.32-.64-.91-1.12-1.6-1.3-.69-.19-1.44-.07-2.04.33-5.37,3.52-9.81,4.46-12.84,2.72-3.03-1.75-4.43-6.06-4.07-12.48.04-.72-.23-1.42-.73-1.93s-1.21-.78-1.93-.73c-6.42.36-10.73-1.04-12.48-4.07-1.75-3.03-.81-7.46,2.72-12.84.4-.6.52-1.35.33-2.04-.19-.69-.66-1.28-1.31-1.6-5.74-2.89-8.77-6.27-8.77-9.76s3.03-6.87,8.77-9.76c.64-.32,1.12-.91,1.31-1.6.19-.69.07-1.44-.33-2.04-3.52-5.37-4.46-9.81-2.72-12.84,1.75-3.03,6.05-4.43,12.48-4.07.72.04,1.42-.23,1.93-.73.51-.51.77-1.21.73-1.93-.36-6.42,1.04-10.73,4.07-12.48,3.03-1.75,7.46-.81,12.84,2.72.6.39,1.35.52,2.04.33.69-.19,1.28-.66,1.6-1.3,2.89-5.74,6.27-8.77,9.76-8.77s6.87,3.03,9.76,8.77c.32.64.91,1.12,1.6,1.31.69.19,1.43.06,2.04-.33,5.38-3.52,9.81-4.46,12.84-2.72,3.03,1.75,4.43,6.06,4.07,12.48-.04.72.23,1.42.73,1.93.51.51,1.22.78,1.93.73,6.41-.37,10.73,1.04,12.48,4.07s.81,7.46-2.72,12.84c-.4.6-.52,1.35-.33,2.04.19.69.66,1.28,1.31,1.6,5.74,2.89,8.77,6.27,8.77,9.76s-3.03,6.87-8.77,9.76c-.64.32-1.12.91-1.31,1.6-.19.69-.07,1.44.33,2.04,3.52,5.37,4.46,9.81,2.72,12.84-1.75,3.03-6.06,4.43-12.48,4.07-.71-.04-1.42.23-1.93.73-.51.51-.77,1.21-.73,1.93.36,6.42-1.04,10.73-4.07,12.48-3.02,1.75-7.46.81-12.84-2.72-.6-.4-1.34-.51-2.04-.33-.69.19-1.28.66-1.6,1.3-2.89,5.74-6.27,8.77-9.76,8.77Zm-12.01-10.29c.23,0,.46.03.68.09.73.2,1.34.69,1.68,1.37,2.87,5.69,6.2,8.7,9.65,8.7s6.78-3.01,9.64-8.7c.34-.68.96-1.18,1.68-1.37.73-.2,1.51-.07,2.14.35,5.33,3.49,9.72,4.43,12.7,2.71,2.98-1.72,4.37-5.99,4-12.36-.04-.76.24-1.5.77-2.03s1.27-.82,2.03-.77c.66.04,1.3.06,1.92.06,5.31,0,8.9-1.39,10.44-4.06,1.72-2.98.78-7.37-2.71-12.7-.42-.63-.54-1.41-.35-2.14.2-.73.7-1.34,1.37-1.68,5.69-2.87,8.7-6.2,8.7-9.65s-3.01-6.78-8.7-9.65c-.68-.34-1.18-.95-1.37-1.68-.2-.73-.07-1.51.35-2.14,3.5-5.33,4.43-9.72,2.71-12.7-1.72-2.98-6-4.36-12.36-4-.75.05-1.5-.24-2.03-.77-.53-.53-.81-1.27-.77-2.03.36-6.36-1.02-10.64-4-12.36-2.98-1.72-7.37-.78-12.7,2.71-.63.41-1.41.54-2.14.35-.73-.2-1.34-.7-1.68-1.37-2.87-5.69-6.2-8.7-9.64-8.7s-6.78,3.01-9.65,8.7c-.34.68-.95,1.18-1.68,1.37-.73.2-1.51.07-2.14-.35-5.33-3.49-9.72-4.43-12.7-2.71-2.98,1.72-4.37,5.99-4,12.36.04.76-.24,1.49-.77,2.03-.5.5-1.18.78-1.88.78-.05,0-.1,0-.15,0-6.37-.36-10.64,1.02-12.36,4-1.72,2.98-.78,7.37,2.71,12.7.42.63.54,1.41.35,2.14-.2.73-.7,1.34-1.37,1.68-5.69,2.87-8.7,6.2-8.7,9.65s3.01,6.78,8.7,9.65c.68.34,1.18.95,1.37,1.68.2.73.07,1.51-.35,2.14-3.49,5.33-4.43,9.72-2.71,12.7,1.72,2.98,5.99,4.37,12.36,4,.05,0,.1,0,.15,0,.7,0,1.38.28,1.88.78.53.53.81,1.27.77,2.03-.36,6.36,1.02,10.64,4,12.36,2.98,1.72,7.37.78,12.7-2.71.44-.29.95-.44,1.46-.44Z"/>
      <path class="cls-2" d="m82.57,133.27c-3.38,0-6.64-2.93-9.43-8.48-.31-.62-.88-1.08-1.54-1.26-.67-.18-1.38-.06-1.96.32-5.19,3.41-9.48,4.31-12.41,2.62-2.92-1.69-4.29-5.86-3.93-12.06.04-.69-.22-1.37-.71-1.86-.49-.49-1.17-.75-1.86-.71-6.19.36-10.37-1.01-12.06-3.93-1.69-2.93-.78-7.22,2.62-12.41.38-.58.5-1.3.32-1.96s-.64-1.23-1.26-1.54c-5.55-2.79-8.48-6.06-8.48-9.44s2.93-6.64,8.48-9.44c.62-.31,1.08-.88,1.26-1.54s.06-1.38-.32-1.96c-3.41-5.19-4.31-9.48-2.62-12.41,1.69-2.93,5.86-4.28,12.06-3.93.69.04,1.37-.22,1.86-.71s.75-1.17.71-1.86c-.35-6.2,1.01-10.37,3.93-12.06,2.92-1.69,7.21-.78,12.41,2.62.58.38,1.3.5,1.96.32.67-.18,1.23-.64,1.54-1.26,2.79-5.55,6.06-8.48,9.43-8.48s6.64,2.93,9.43,8.48c.31.62.88,1.08,1.54,1.26.67.18,1.38.06,1.97-.32,5.19-3.41,9.49-4.31,12.41-2.62,2.92,1.69,4.29,5.86,3.93,12.06-.04.69.22,1.37.71,1.86s1.17.74,1.86.71c6.2-.35,10.37,1.01,12.06,3.93,1.69,2.92.78,7.22-2.62,12.41-.38.58-.5,1.3-.32,1.97.18.67.64,1.23,1.26,1.54,5.55,2.79,8.48,6.06,8.48,9.44s-2.93,6.64-8.48,9.44c-.62.31-1.08.87-1.26,1.54s-.06,1.38.32,1.97c3.41,5.19,4.31,9.48,2.62,12.41-1.69,2.92-5.86,4.29-12.06,3.93-.69-.04-1.37.22-1.86.71s-.75,1.17-.71,1.86c.35,6.2-1.01,10.37-3.93,12.06-2.92,1.69-7.22.78-12.41-2.62-.58-.38-1.3-.5-1.97-.32-.67.18-1.23.64-1.54,1.26-2.79,5.55-6.06,8.48-9.43,8.48Zm-11.6-9.95c.22,0,.44.03.66.09.71.19,1.3.67,1.63,1.33,2.77,5.5,5.99,8.4,9.31,8.4s6.54-2.91,9.31-8.4c.33-.65.92-1.14,1.63-1.33.7-.19,1.46-.07,2.08.33,5.15,3.38,9.39,4.28,12.27,2.62,2.88-1.66,4.21-5.79,3.86-11.93-.04-.73.23-1.45.75-1.96.52-.52,1.23-.79,1.96-.75,6.14.35,10.27-.99,11.93-3.86,1.66-2.88.75-7.12-2.62-12.27-.4-.61-.53-1.37-.34-2.08.19-.71.67-1.3,1.33-1.63,5.5-2.77,8.4-5.99,8.4-9.31s-2.91-6.54-8.4-9.31c-.66-.33-1.14-.92-1.33-1.63-.19-.71-.07-1.46.34-2.08,3.38-5.15,4.28-9.39,2.62-12.27-1.66-2.88-5.78-4.21-11.93-3.86-.73.05-1.45-.23-1.96-.75-.52-.52-.79-1.23-.75-1.96.35-6.15-.99-10.27-3.86-11.93-2.88-1.66-7.12-.76-12.27,2.62-.61.4-1.37.52-2.08.33-.71-.19-1.3-.67-1.63-1.33-2.77-5.5-5.99-8.4-9.31-8.4s-6.54,2.91-9.31,8.4c-.33.65-.92,1.14-1.63,1.33s-1.46.07-2.07-.34c-5.15-3.38-9.39-4.28-12.27-2.62-2.88,1.66-4.21,5.79-3.86,11.93.04.73-.23,1.45-.75,1.96-.52.52-1.24.8-1.97.75-6.15-.35-10.27.99-11.93,3.86-1.66,2.88-.75,7.12,2.62,12.27.4.61.52,1.37.34,2.08-.19.71-.67,1.3-1.33,1.63-5.5,2.77-8.4,5.99-8.4,9.31s2.91,6.54,8.4,9.31c.66.33,1.14.92,1.33,1.63.19.71.07,1.46-.34,2.08-3.38,5.15-4.28,9.39-2.62,12.27,1.66,2.88,5.78,4.21,11.93,3.86.73-.05,1.45.23,1.97.75.52.52.79,1.23.75,1.96-.35,6.15.99,10.27,3.86,11.93,2.88,1.66,7.12.76,12.27-2.62.42-.28.92-.42,1.41-.42Z"/>
      <path class="cls-2" d="m82.57,131.5c-3.26,0-6.41-2.83-9.11-8.18-.3-.6-.84-1.04-1.48-1.21-.64-.17-1.33-.06-1.89.31-5.01,3.29-9.16,4.16-11.98,2.53-2.83-1.63-4.14-5.66-3.8-11.64.04-.67-.21-1.32-.68-1.79-.47-.47-1.12-.71-1.79-.68-5.98.34-10.01-.97-11.64-3.8-1.63-2.82-.75-6.97,2.53-11.98.37-.56.48-1.25.31-1.89-.17-.64-.61-1.18-1.21-1.48-5.35-2.7-8.18-5.85-8.18-9.11s2.83-6.41,8.18-9.11c.6-.3,1.04-.84,1.21-1.48.17-.64.06-1.33-.31-1.89-3.29-5.01-4.16-9.16-2.53-11.98,1.63-2.83,5.66-4.14,11.64-3.8.67.03,1.32-.21,1.79-.68.47-.47.72-1.12.68-1.79-.34-5.99.97-10.01,3.8-11.64,2.82-1.63,6.97-.75,11.98,2.53.56.37,1.25.48,1.89.31.64-.17,1.18-.61,1.49-1.21,2.7-5.35,5.85-8.18,9.11-8.18s6.41,2.83,9.11,8.18c.3.6.84,1.04,1.48,1.21.64.17,1.33.06,1.89-.31,5.01-3.29,9.16-4.16,11.98-2.53,2.83,1.63,4.14,5.66,3.8,11.64-.04.67.21,1.32.68,1.79.47.47,1.13.72,1.79.68,5.98-.34,10.01.97,11.64,3.8,1.63,2.82.75,6.97-2.53,11.98-.37.56-.48,1.25-.31,1.89.17.64.61,1.18,1.21,1.48,5.35,2.7,8.18,5.85,8.18,9.11s-2.83,6.41-8.18,9.11c-.6.3-1.04.84-1.21,1.48-.17.64-.06,1.33.31,1.89,3.29,5.01,4.16,9.16,2.53,11.98-1.63,2.82-5.66,4.14-11.64,3.8-.66-.03-1.32.21-1.79.68-.47.47-.72,1.12-.68,1.79.34,5.99-.97,10.01-3.8,11.64-2.82,1.63-6.97.75-11.98-2.53-.56-.37-1.25-.48-1.89-.31-.64.17-1.18.61-1.48,1.21-2.7,5.35-5.85,8.18-9.11,8.18Zm-11.2-9.62c.21,0,.43.03.64.08.68.18,1.26.65,1.58,1.28,2.67,5.3,5.78,8.1,8.98,8.1s6.31-2.8,8.98-8.1c.32-.63.89-1.1,1.58-1.28s1.42-.06,2.01.32c4.96,3.26,9.06,4.13,11.83,2.53,2.78-1.6,4.06-5.58,3.73-11.51-.04-.71.22-1.4.72-1.9.5-.5,1.2-.77,1.9-.72,5.93.34,9.91-.95,11.51-3.73,1.6-2.77.73-6.87-2.53-11.83-.39-.59-.51-1.33-.32-2.01.18-.68.65-1.26,1.29-1.58,5.3-2.67,8.1-5.78,8.1-8.98s-2.8-6.31-8.1-8.98c-.63-.32-1.1-.89-1.29-1.58s-.06-1.41.32-2.01c3.26-4.97,4.13-9.06,2.53-11.83-1.6-2.78-5.58-4.06-11.51-3.73-.7.04-1.4-.22-1.9-.72-.5-.5-.76-1.19-.72-1.9.34-5.93-.95-9.91-3.73-11.51s-6.87-.73-11.83,2.53c-.59.39-1.32.51-2.01.32-.68-.18-1.26-.65-1.58-1.28-2.67-5.3-5.78-8.1-8.98-8.1s-6.31,2.8-8.98,8.1c-.32.63-.89,1.1-1.58,1.28-.68.18-1.42.06-2.01-.32-4.96-3.25-9.06-4.13-11.83-2.53-2.78,1.6-4.06,5.58-3.73,11.51.04.71-.22,1.4-.72,1.9-.5.5-1.2.76-1.9.72-.62-.04-1.21-.05-1.79-.05-4.94,0-8.29,1.29-9.72,3.78-1.6,2.77-.73,6.86,2.53,11.83.39.59.51,1.32.32,2.01s-.65,1.26-1.29,1.58c-5.3,2.67-8.1,5.78-8.1,8.98s2.8,6.31,8.1,8.98c.63.32,1.1.89,1.29,1.58.18.68.06,1.41-.32,2.01-3.26,4.97-4.13,9.06-2.53,11.83,1.6,2.77,5.58,4.06,11.51,3.73.7-.04,1.4.22,1.9.72s.76,1.19.72,1.9c-.34,5.93.95,9.91,3.73,11.51,2.77,1.6,6.86.73,11.83-2.53.41-.27.89-.41,1.37-.41Z"/>
      <path class="cls-2" d="m82.57,129.73c-3.15,0-6.18-2.73-8.79-7.89-.29-.57-.81-1-1.43-1.16-.62-.16-1.28-.06-1.82.29-4.83,3.17-8.83,4.01-11.55,2.44-2.72-1.57-3.99-5.46-3.66-11.23.04-.64-.2-1.27-.65-1.72-.45-.45-1.08-.69-1.72-.65-5.78.32-9.65-.94-11.23-3.66-1.57-2.73-.73-6.72,2.44-11.55.35-.54.46-1.2.29-1.82s-.59-1.14-1.16-1.43c-5.16-2.6-7.89-5.64-7.89-8.79s2.73-6.18,7.89-8.79c.57-.29,1-.81,1.16-1.43s.06-1.28-.29-1.82c-3.17-4.83-4.01-8.83-2.44-11.55,1.57-2.72,5.46-3.99,11.23-3.66.64.04,1.27-.2,1.72-.65.45-.45.69-1.08.65-1.72-.33-5.77.94-9.65,3.66-11.23,2.73-1.57,6.72-.73,11.55,2.44.54.35,1.2.46,1.82.29.62-.17,1.14-.59,1.43-1.16,2.6-5.16,5.64-7.89,8.79-7.89s6.18,2.73,8.79,7.89c.29.57.81,1,1.43,1.16.62.16,1.28.06,1.82-.29,4.83-3.17,8.83-4.01,11.55-2.44,2.72,1.57,3.99,5.45,3.66,11.23-.04.64.2,1.27.65,1.72.45.45,1.08.69,1.72.65,5.76-.33,9.65.94,11.22,3.66,1.57,2.73.73,6.72-2.44,11.55-.35.54-.46,1.2-.29,1.82s.59,1.14,1.16,1.43c5.16,2.6,7.89,5.64,7.89,8.79s-2.73,6.18-7.89,8.79c-.57.29-1,.81-1.16,1.43s-.06,1.28.29,1.82c3.17,4.83,4.01,8.83,2.44,11.55s-5.46,3.99-11.22,3.66c-.64-.04-1.27.2-1.72.65-.45.45-.69,1.08-.65,1.72.33,5.77-.94,9.65-3.66,11.23-2.73,1.57-6.72.73-11.55-2.44-.54-.35-1.2-.46-1.82-.29-.62.17-1.14.59-1.43,1.16-2.6,5.16-5.64,7.89-8.79,7.89Zm-10.79-9.28c.21,0,.42.03.62.08.66.18,1.21.63,1.52,1.24,2.57,5.11,5.57,7.81,8.65,7.81s6.08-2.7,8.65-7.81c.31-.61.86-1.06,1.52-1.24.66-.18,1.37-.06,1.94.31,4.78,3.14,8.72,3.98,11.39,2.44,2.67-1.54,3.91-5.38,3.59-11.09-.04-.68.21-1.35.7-1.84.45-.45,1.06-.7,1.7-.7.05,0,.09,0,.14,0,5.71.32,9.54-.92,11.09-3.59,1.54-2.67.7-6.61-2.44-11.39-.38-.57-.49-1.28-.31-1.94s.63-1.21,1.24-1.52c5.11-2.57,7.81-5.57,7.81-8.65s-2.7-6.08-7.81-8.65c-.61-.31-1.06-.86-1.24-1.52s-.06-1.37.31-1.94c3.14-4.78,3.98-8.72,2.44-11.39-1.54-2.67-5.37-3.91-11.09-3.59-.04,0-.09,0-.14,0-.64,0-1.25-.25-1.7-.7-.48-.48-.74-1.15-.7-1.84.32-5.71-.92-9.54-3.59-11.09-2.67-1.54-6.61-.7-11.39,2.44-.57.38-1.28.49-1.94.31-.66-.18-1.21-.63-1.52-1.24-2.57-5.11-5.57-7.81-8.65-7.81s-6.08,2.7-8.65,7.81c-.31.61-.86,1.06-1.52,1.24-.66.18-1.37.06-1.94-.31-4.78-3.14-8.72-3.98-11.39-2.44-2.67,1.54-3.91,5.38-3.59,11.09.04.68-.21,1.35-.7,1.84-.45.45-1.06.7-1.7.7-.05,0-.09,0-.14,0-5.72-.32-9.54.92-11.09,3.59-1.54,2.67-.7,6.61,2.44,11.39.38.57.49,1.28.31,1.94s-.63,1.21-1.24,1.52c-5.11,2.57-7.81,5.56-7.81,8.65s2.7,6.08,7.81,8.65c.61.31,1.06.86,1.24,1.52s.06,1.37-.31,1.94c-3.14,4.78-3.98,8.72-2.44,11.39,1.54,2.67,5.37,3.91,11.09,3.59.04,0,.09,0,.14,0,.64,0,1.25.25,1.7.7.48.48.74,1.15.7,1.84-.32,5.71.92,9.54,3.59,11.09,2.67,1.54,6.61.7,11.39-2.44.4-.26.86-.39,1.32-.39Z"/>
      <path class="cls-2" d="m82.57,127.96c-3.03,0-5.96-2.63-8.46-7.6-.28-.55-.78-.96-1.37-1.12-.59-.16-1.23-.06-1.74.28-4.65,3.05-8.5,3.86-11.13,2.35-2.62-1.52-3.84-5.25-3.53-10.81.04-.62-.19-1.22-.63-1.65s-1.04-.66-1.65-.63c-5.57.31-9.29-.91-10.81-3.53-1.51-2.62-.7-6.47,2.35-11.12.34-.52.44-1.15.28-1.74-.16-.59-.57-1.09-1.12-1.37-4.97-2.5-7.6-5.43-7.6-8.46s2.63-5.96,7.6-8.46c.55-.28.96-.78,1.12-1.37.16-.59.06-1.23-.28-1.74-3.05-4.65-3.86-8.5-2.35-11.12,1.52-2.62,5.26-3.84,10.81-3.53.61.03,1.22-.19,1.65-.63.43-.43.66-1.04.63-1.65-.32-5.56.9-9.29,3.53-10.81,2.62-1.52,6.47-.7,11.13,2.35.52.34,1.15.44,1.74.28.59-.16,1.09-.57,1.37-1.12,2.5-4.97,5.43-7.6,8.46-7.6s5.96,2.63,8.46,7.6c.28.55.78.96,1.37,1.12.59.16,1.23.05,1.74-.28,4.65-3.05,8.5-3.86,11.13-2.35,2.62,1.51,3.84,5.25,3.53,10.81-.04.62.19,1.22.63,1.65.43.43,1.04.67,1.65.63,5.56-.31,9.29.9,10.81,3.53,1.51,2.62.7,6.47-2.35,11.12-.34.52-.44,1.15-.28,1.74.16.59.57,1.09,1.12,1.37,4.97,2.5,7.6,5.43,7.6,8.46s-2.63,5.96-7.6,8.46c-.55.28-.96.78-1.12,1.37-.16.59-.06,1.23.28,1.74,3.05,4.65,3.86,8.5,2.35,11.12-1.51,2.62-5.24,3.84-10.81,3.53-.61-.04-1.22.19-1.65.63-.43.43-.66,1.04-.63,1.65.32,5.56-.9,9.29-3.53,10.81-2.63,1.51-6.47.7-11.13-2.35-.52-.34-1.15-.44-1.74-.28-.59.16-1.09.57-1.37,1.12-2.5,4.97-5.43,7.6-8.46,7.6Zm-10.38-8.94c.2,0,.4.03.6.08.64.17,1.17.61,1.47,1.2,2.48,4.91,5.35,7.51,8.32,7.51s5.84-2.6,8.32-7.51c.3-.59.83-1.03,1.47-1.2.64-.17,1.32-.06,1.87.3,4.6,3.02,8.39,3.83,10.96,2.34,2.57-1.48,3.76-5.17,3.45-10.66-.04-.66.21-1.31.67-1.77.43-.44,1.03-.68,1.64-.68.04,0,.09,0,.13,0,5.49.31,9.18-.88,10.66-3.45,1.48-2.57.67-6.36-2.34-10.96-.36-.55-.47-1.23-.3-1.87.17-.64.61-1.17,1.2-1.47,4.91-2.48,7.51-5.35,7.51-8.32s-2.6-5.84-7.51-8.32c-.59-.3-1.03-.83-1.2-1.47-.17-.64-.06-1.32.3-1.87,3.02-4.6,3.83-8.39,2.34-10.96-1.48-2.57-5.18-3.76-10.66-3.45-.04,0-.09,0-.13,0-.61,0-1.21-.24-1.64-.68-.47-.47-.71-1.11-.67-1.77.31-5.49-.88-9.18-3.45-10.66-2.57-1.48-6.36-.67-10.96,2.34-.55.36-1.24.47-1.87.3-.64-.17-1.17-.61-1.47-1.2-2.48-4.91-5.35-7.51-8.32-7.51s-5.84,2.6-8.32,7.51c-.3.59-.83,1.03-1.47,1.2-.64.17-1.32.06-1.87-.3-4.6-3.02-8.39-3.83-10.96-2.34-2.57,1.48-3.76,5.17-3.45,10.66.04.66-.21,1.31-.67,1.77-.47.47-1.1.71-1.77.67-5.5-.31-9.18.88-10.66,3.45-1.48,2.57-.67,6.36,2.34,10.96.36.55.47,1.24.3,1.87s-.61,1.17-1.2,1.47c-4.91,2.48-7.51,5.35-7.51,8.32s2.6,5.84,7.51,8.32c.59.3,1.03.83,1.2,1.47.17.64.06,1.32-.3,1.87-3.02,4.6-3.83,8.39-2.34,10.96,1.48,2.57,5.17,3.76,10.66,3.45.04,0,.09,0,.13,0,.61,0,1.21.24,1.64.68.47.47.71,1.11.67,1.77-.31,5.49.88,9.18,3.45,10.66,2.57,1.48,6.36.67,10.96-2.34.38-.25.83-.38,1.28-.38Z"/>
      <path class="cls-2" d="m82.57,126.19c-2.92,0-5.73-2.53-8.13-7.3-.27-.53-.74-.92-1.31-1.07-.57-.15-1.18-.05-1.67.27-4.47,2.93-8.17,3.71-10.7,2.26-2.52-1.46-3.7-5.05-3.39-10.39.03-.59-.19-1.17-.6-1.58-.42-.42-1-.63-1.58-.6-5.34.3-8.94-.87-10.39-3.39s-.68-6.22,2.26-10.7c.32-.49.42-1.1.27-1.67s-.54-1.05-1.07-1.31c-4.78-2.41-7.3-5.22-7.3-8.14s2.52-5.73,7.3-8.13c.53-.27.92-.74,1.07-1.31.15-.57.05-1.18-.27-1.67-2.93-4.47-3.71-8.17-2.26-10.7,1.46-2.52,5.04-3.7,10.39-3.39.58.03,1.17-.19,1.58-.6.42-.42.63-.99.6-1.58-.3-5.34.87-8.93,3.39-10.39,2.53-1.46,6.22-.68,10.7,2.26.49.32,1.1.42,1.67.27.57-.15,1.05-.54,1.31-1.07,2.41-4.78,5.22-7.3,8.13-7.3s5.73,2.53,8.13,7.3c.27.53.74.92,1.31,1.07.57.15,1.18.05,1.67-.27,4.47-2.93,8.17-3.72,10.7-2.26,2.52,1.46,3.7,5.05,3.39,10.39-.03.59.19,1.17.6,1.58.42.42.99.63,1.58.6,5.33-.3,8.93.87,10.39,3.39,1.46,2.52.68,6.22-2.26,10.7-.32.49-.42,1.1-.27,1.67.15.57.54,1.05,1.07,1.31,4.78,2.41,7.3,5.22,7.3,8.13s-2.52,5.73-7.3,8.14c-.53.27-.92.74-1.07,1.31s-.05,1.18.27,1.67c2.93,4.47,3.71,8.17,2.26,10.7-1.46,2.52-5.05,3.7-10.39,3.39-.59-.03-1.17.19-1.58.6-.42.42-.63.99-.6,1.58.3,5.34-.87,8.94-3.39,10.39-2.52,1.46-6.22.68-10.7-2.26-.49-.33-1.1-.42-1.67-.27-.57.15-1.05.54-1.31,1.07-2.41,4.78-5.22,7.3-8.13,7.3Zm-9.98-8.61c.19,0,.39.03.58.08.61.16,1.13.59,1.42,1.15,2.38,4.72,5.14,7.21,7.99,7.21s5.61-2.49,7.99-7.21c.29-.57.8-.99,1.42-1.15.61-.16,1.27-.06,1.8.29,4.42,2.9,8.06,3.68,10.52,2.25,2.47-1.42,3.61-4.96,3.31-10.24-.04-.64.2-1.26.65-1.71s1.08-.68,1.71-.65c5.27.3,8.81-.85,10.24-3.31s.65-6.1-2.25-10.52c-.35-.53-.46-1.19-.29-1.8.17-.61.59-1.13,1.16-1.42,4.72-2.38,7.21-5.14,7.21-7.99s-2.49-5.61-7.21-7.99c-.57-.29-.99-.8-1.16-1.42-.16-.61-.06-1.27.29-1.81,2.9-4.42,3.67-8.06,2.25-10.52-1.42-2.47-4.96-3.61-10.24-3.31-.64.03-1.26-.2-1.71-.65s-.69-1.07-.65-1.71c.3-5.27-.85-8.81-3.31-10.24-2.46-1.42-6.1-.64-10.52,2.25-.53.35-1.19.45-1.8.29-.61-.16-1.13-.59-1.42-1.15-2.38-4.72-5.14-7.21-7.99-7.21s-5.61,2.49-7.99,7.21c-.29.57-.8.99-1.42,1.15-.62.16-1.27.06-1.8-.29-4.42-2.9-8.06-3.68-10.52-2.25-2.47,1.42-3.61,4.96-3.31,10.24.04.64-.2,1.26-.65,1.71-.45.45-1.07.69-1.71.65-5.27-.3-8.81.85-10.24,3.31-1.42,2.47-.64,6.1,2.25,10.52.35.53.46,1.19.29,1.81-.17.61-.59,1.13-1.16,1.42-4.72,2.38-7.21,5.14-7.21,7.99s2.49,5.61,7.21,7.99c.57.29.99.8,1.16,1.42.16.61.06,1.27-.29,1.8-2.9,4.42-3.67,8.06-2.25,10.52,1.42,2.46,4.96,3.61,10.24,3.31.63-.04,1.26.2,1.71.65.45.45.69,1.07.65,1.71-.3,5.27.84,8.81,3.31,10.24,2.46,1.42,6.1.65,10.52-2.25.37-.24.8-.37,1.23-.37Z"/>
      <path class="cls-2" d="m82.57,124.42c-2.8,0-5.5-2.42-7.81-7.01-.25-.5-.71-.88-1.25-1.02-.54-.14-1.12-.05-1.6.26-4.29,2.82-7.84,3.57-10.27,2.17-2.42-1.4-3.55-4.85-3.26-9.98.03-.56-.18-1.11-.57-1.51-.4-.4-.95-.61-1.51-.57-5.12.29-8.58-.83-9.98-3.26-1.4-2.42-.65-5.97,2.17-10.27.31-.47.4-1.05.26-1.6s-.52-1-1.02-1.25c-4.59-2.31-7.01-5.01-7.01-7.81s2.42-5.5,7.01-7.81c.5-.25.88-.71,1.02-1.25.15-.54.05-1.12-.26-1.6-2.82-4.29-3.56-7.85-2.17-10.27,1.4-2.42,4.85-3.55,9.98-3.26.56.03,1.11-.18,1.51-.57.4-.4.61-.95.57-1.51-.29-5.13.84-8.58,3.26-9.98,2.42-1.4,5.97-.65,10.27,2.17.47.31,1.05.4,1.6.26.54-.15,1-.52,1.25-1.02,2.31-4.59,5.01-7.01,7.81-7.01s5.5,2.42,7.81,7.01c.25.5.71.88,1.25,1.02.54.15,1.12.05,1.6-.26,4.29-2.81,7.84-3.56,10.27-2.17,2.42,1.4,3.55,4.85,3.26,9.98-.03.56.18,1.11.57,1.51.4.4.95.6,1.51.57,5.13-.29,8.58.84,9.97,3.26,1.4,2.42.65,5.97-2.16,10.27-.31.47-.4,1.05-.26,1.6.15.54.52,1,1.02,1.25,4.58,2.31,7.01,5.01,7.01,7.81s-2.42,5.5-7.01,7.81c-.5.25-.88.71-1.02,1.25s-.05,1.12.26,1.6c2.82,4.29,3.56,7.84,2.16,10.27-1.4,2.42-4.84,3.55-9.97,3.26-.56-.03-1.11.18-1.51.57-.4.4-.61.95-.57,1.51.29,5.13-.84,8.58-3.26,9.98-2.42,1.4-5.97.65-10.27-2.17-.47-.31-1.05-.4-1.6-.26-.54.15-1,.52-1.25,1.02-2.31,4.59-5.01,7.01-7.81,7.01Zm-9.57-8.27c.19,0,.37.02.55.07.59.16,1.09.56,1.36,1.11,2.28,4.52,4.93,6.91,7.65,6.91s5.38-2.39,7.65-6.91c.28-.55.77-.95,1.36-1.11.59-.16,1.22-.06,1.74.28,4.23,2.78,7.72,3.53,10.08,2.16,2.36-1.36,3.46-4.76,3.17-9.81-.04-.61.19-1.21.62-1.64.43-.43,1.03-.66,1.64-.63,5.05.29,8.45-.81,9.81-3.17s.62-5.85-2.16-10.09c-.34-.51-.44-1.15-.28-1.74.16-.59.56-1.09,1.11-1.36,4.52-2.28,6.91-4.93,6.91-7.65s-2.39-5.38-6.91-7.65c-.55-.28-.95-.77-1.11-1.36s-.06-1.22.28-1.74c2.78-4.24,3.52-7.72,2.16-10.09s-4.76-3.46-9.81-3.17c-.61.04-1.21-.19-1.64-.62-.43-.43-.66-1.03-.62-1.64.29-5.06-.81-8.45-3.17-9.81-2.36-1.36-5.85-.62-10.08,2.16-.51.34-1.15.44-1.74.28-.59-.16-1.09-.56-1.36-1.11-2.28-4.52-4.93-6.91-7.65-6.91s-5.38,2.39-7.65,6.91c-.28.55-.77.95-1.36,1.11-.59.16-1.22.06-1.74-.28-4.24-2.78-7.72-3.52-10.08-2.16-2.36,1.36-3.46,4.76-3.17,9.81.04.61-.19,1.21-.62,1.64-.43.43-1.03.66-1.64.62-5.06-.29-8.45.81-9.82,3.17s-.62,5.85,2.16,10.09c.34.51.44,1.15.28,1.74s-.56,1.09-1.11,1.36c-4.52,2.28-6.91,4.93-6.91,7.65s2.39,5.38,6.91,7.65c.55.28.95.77,1.11,1.36.16.59.06,1.22-.28,1.74-2.78,4.24-3.52,7.72-2.16,10.09s4.76,3.46,9.82,3.17c.61-.03,1.21.19,1.64.63.43.43.66,1.03.62,1.64-.29,5.06.81,8.45,3.17,9.81,2.36,1.37,5.85.62,10.08-2.16.35-.23.77-.35,1.18-.35Z"/>
      <path class="cls-2" d="m82.57,122.65c-2.68,0-5.27-2.32-7.49-6.72-.24-.48-.68-.84-1.2-.97-.52-.14-1.07-.05-1.52.25-4.11,2.7-7.52,3.42-9.84,2.07-2.32-1.34-3.4-4.65-3.12-9.56.03-.54-.17-1.06-.55-1.44-.38-.38-.91-.58-1.44-.55-4.91.28-8.22-.8-9.56-3.12-1.34-2.32-.62-5.73,2.07-9.84.29-.45.38-1,.25-1.52-.14-.52-.49-.95-.97-1.19-4.39-2.21-6.71-4.8-6.71-7.49s2.32-5.27,6.71-7.48c.48-.24.84-.68.97-1.19.14-.52.05-1.07-.25-1.52-2.7-4.11-3.42-7.52-2.07-9.84,1.34-2.32,4.65-3.41,9.56-3.12.53.03,1.06-.17,1.44-.55s.58-.9.55-1.44c-.28-4.91.8-8.22,3.12-9.56,2.32-1.34,5.73-.62,9.84,2.07.45.29,1,.38,1.52.25.52-.14.95-.49,1.2-.97,2.21-4.39,4.8-6.72,7.49-6.72s5.27,2.32,7.49,6.72c.24.48.68.84,1.2.97.52.14,1.07.05,1.52-.25,4.11-2.7,7.52-3.42,9.84-2.07,2.32,1.34,3.4,4.65,3.12,9.56-.03.54.17,1.06.55,1.44.38.38.91.58,1.44.55,4.92-.28,8.22.8,9.56,3.12,1.34,2.32.62,5.73-2.07,9.84-.3.45-.39,1-.25,1.52s.49.95.97,1.2c4.39,2.21,6.72,4.8,6.72,7.48s-2.32,5.27-6.72,7.49c-.48.24-.84.68-.97,1.2s-.05,1.07.25,1.52c2.7,4.11,3.41,7.52,2.07,9.84-1.34,2.32-4.65,3.4-9.56,3.12-.53-.03-1.06.17-1.44.55-.38.38-.58.9-.55,1.44.28,4.91-.8,8.22-3.12,9.56s-5.73.63-9.84-2.07c-.45-.29-1-.38-1.52-.25-.52.14-.95.49-1.2.97-2.21,4.39-4.8,6.72-7.49,6.72Zm-9.17-7.94c.18,0,.36.02.53.07.57.15,1.04.54,1.31,1.07,2.18,4.33,4.71,6.62,7.32,6.62s5.14-2.29,7.32-6.62c.27-.53.74-.92,1.31-1.07.57-.15,1.18-.05,1.67.27,4.05,2.66,7.39,3.37,9.65,2.07,2.26-1.31,3.31-4.55,3.03-9.39-.03-.59.19-1.17.6-1.58.42-.42.99-.64,1.58-.6,4.84.28,8.09-.77,9.39-3.03,1.3-2.26.59-5.6-2.07-9.65-.32-.49-.42-1.1-.27-1.67.15-.57.54-1.05,1.07-1.31,4.33-2.18,6.62-4.71,6.62-7.32s-2.29-5.14-6.62-7.32c-.53-.27-.92-.74-1.07-1.31-.15-.57-.05-1.18.27-1.67,2.66-4.05,3.37-7.39,2.07-9.65s-4.56-3.31-9.39-3.03c-.04,0-.08,0-.12,0-.55,0-1.07-.22-1.46-.6-.42-.42-.63-.99-.6-1.58.28-4.84-.77-8.09-3.03-9.39-2.26-1.31-5.6-.59-9.65,2.07-.49.32-1.1.42-1.67.27-.57-.15-1.04-.54-1.31-1.07-2.18-4.33-4.71-6.62-7.32-6.62s-5.14,2.29-7.32,6.62c-.27.53-.74.92-1.31,1.07-.57.15-1.18.05-1.67-.27-4.05-2.66-7.39-3.37-9.65-2.07-2.26,1.31-3.31,4.55-3.03,9.39.03.59-.19,1.17-.6,1.58-.39.39-.92.6-1.46.6-.04,0-.08,0-.12,0-4.84-.28-8.09.77-9.39,3.03-1.3,2.26-.59,5.6,2.07,9.65.32.49.42,1.1.27,1.67-.15.57-.54,1.04-1.07,1.31-4.33,2.18-6.62,4.71-6.62,7.32s2.29,5.14,6.62,7.32c.53.27.92.74,1.07,1.31.15.57.05,1.18-.27,1.67-2.66,4.05-3.37,7.39-2.07,9.65,1.3,2.26,4.54,3.31,9.39,3.03.59-.03,1.16.19,1.58.6.42.42.63.99.6,1.58-.28,4.84.77,8.09,3.03,9.39,2.26,1.3,5.6.59,9.65-2.07.34-.22.74-.34,1.14-.34Z"/>
      <path class="cls-2" d="m82.57,120.88c-2.57,0-5.04-2.22-7.16-6.42-.23-.46-.64-.79-1.14-.93-.49-.13-1.02-.05-1.45.23-3.93,2.58-7.19,3.27-9.41,1.98-2.22-1.28-3.26-4.44-2.99-9.14.03-.51-.16-1.01-.52-1.37s-.86-.55-1.37-.52c-4.69.26-7.86-.77-9.14-2.99-1.28-2.22-.6-5.48,1.98-9.41.28-.43.37-.96.23-1.45s-.47-.91-.93-1.14c-4.2-2.12-6.42-4.59-6.42-7.16s2.22-5.04,6.42-7.16c.46-.23.8-.65.93-1.14.13-.49.05-1.02-.23-1.45-2.58-3.93-3.27-7.19-1.98-9.41s4.45-3.25,9.14-2.99c.52.03,1.01-.16,1.37-.52.36-.36.55-.86.52-1.37-.27-4.7.77-7.86,2.99-9.14,2.22-1.28,5.48-.6,9.41,1.98.43.28.96.36,1.45.23.49-.13.91-.47,1.14-.93,2.12-4.2,4.59-6.42,7.16-6.42s5.04,2.22,7.16,6.42c.23.46.64.79,1.14.93.49.13,1.02.05,1.45-.23,3.94-2.58,7.19-3.27,9.41-1.98,2.22,1.28,3.26,4.44,2.99,9.14-.03.51.16,1.01.52,1.37.36.36.86.55,1.37.52,4.71-.27,7.86.77,9.14,2.99,1.28,2.22.6,5.48-1.98,9.41-.28.43-.37.96-.23,1.45.13.49.47.91.93,1.14,4.2,2.12,6.42,4.59,6.42,7.16s-2.22,5.04-6.42,7.16c-.46.23-.8.65-.93,1.14s-.05,1.02.23,1.45c2.58,3.93,3.26,7.19,1.98,9.41-1.28,2.22-4.44,3.25-9.14,2.99-.03,0-.07,0-.1,0-.48,0-.93.19-1.27.52-.36.36-.55.86-.52,1.37.27,4.7-.77,7.86-2.99,9.14-2.22,1.28-5.48.6-9.41-1.98-.43-.28-.96-.37-1.45-.23-.49.13-.91.47-1.14.93-2.12,4.2-4.59,6.42-7.16,6.42Zm-8.76-7.6c.17,0,.34.02.51.07.54.15,1,.52,1.26,1.02,2.08,4.13,4.5,6.32,6.99,6.32s4.91-2.18,6.99-6.32c.25-.51.71-.88,1.26-1.02.55-.14,1.13-.05,1.6.26,3.87,2.54,7.05,3.22,9.21,1.98,2.16-1.25,3.16-4.35,2.89-8.97-.03-.56.18-1.12.58-1.52s.95-.6,1.52-.58c4.63.27,7.72-.74,8.97-2.9,1.25-2.16.56-5.34-1.98-9.21-.31-.47-.4-1.06-.26-1.6s.52-1,1.02-1.26c4.13-2.08,6.32-4.5,6.32-6.99s-2.18-4.91-6.32-6.99c-.5-.25-.88-.71-1.02-1.26s-.05-1.13.26-1.6c2.54-3.87,3.22-7.06,1.98-9.21s-4.34-3.15-8.97-2.9c-.55.03-1.12-.18-1.52-.58-.4-.4-.61-.95-.58-1.52.26-4.62-.74-7.72-2.89-8.97-2.16-1.25-5.34-.56-9.21,1.98-.47.31-1.06.4-1.6.26-.54-.15-1-.52-1.26-1.02-2.08-4.13-4.5-6.32-6.99-6.32s-4.91,2.18-6.99,6.32c-.25.51-.71.88-1.26,1.02-.54.15-1.13.05-1.6-.26-3.87-2.54-7.06-3.22-9.21-1.98-2.16,1.24-3.16,4.35-2.89,8.97.03.56-.18,1.12-.58,1.52-.4.4-.96.6-1.52.58-4.62-.26-7.72.74-8.97,2.9-1.25,2.16-.56,5.34,1.98,9.21.31.47.4,1.06.26,1.6s-.52,1-1.02,1.26c-4.13,2.08-6.32,4.5-6.32,6.99s2.18,4.91,6.32,6.99c.5.25.88.71,1.02,1.26s.05,1.13-.26,1.6c-2.54,3.87-3.22,7.06-1.98,9.21,1.25,2.16,4.35,3.16,8.97,2.9.58-.03,1.12.18,1.52.58.4.4.61.95.58,1.52-.26,4.62.74,7.72,2.89,8.97,2.16,1.24,5.34.56,9.21-1.98.33-.21.71-.33,1.09-.33Z"/>
      <path class="cls-2" d="m82.57,119.11c-2.45,0-4.81-2.12-6.83-6.13-.22-.43-.61-.75-1.08-.88s-.97-.04-1.37.22c-3.75,2.46-6.86,3.12-8.98,1.89-2.12-1.23-3.11-4.24-2.86-8.73.03-.49-.15-.96-.5-1.3-.34-.34-.82-.52-1.3-.49-4.48.25-7.5-.73-8.72-2.85-1.23-2.12-.57-5.23,1.89-8.98.27-.41.35-.91.22-1.38-.12-.47-.45-.86-.88-1.08-4.01-2.02-6.13-4.38-6.13-6.84s2.12-4.81,6.13-6.83c.43-.22.75-.61.88-1.08.12-.47.04-.97-.22-1.38-2.46-3.75-3.12-6.86-1.89-8.98,1.23-2.12,4.25-3.11,8.72-2.85.03,0,.06,0,.1,0,.45,0,.88-.18,1.2-.5.34-.34.52-.82.5-1.3-.25-4.48.73-7.5,2.86-8.73,2.12-1.23,5.23-.57,8.98,1.89.41.27.91.35,1.38.22.47-.13.86-.45,1.08-.88,2.02-4.01,4.38-6.13,6.83-6.13s4.81,2.12,6.83,6.13c.22.43.61.75,1.08.88.47.12.97.04,1.38-.22,3.75-2.46,6.86-3.12,8.98-1.89s3.11,4.24,2.86,8.73c-.03.49.15.96.49,1.3.32.32.75.5,1.2.5.03,0,.07,0,.1,0,4.48-.25,7.5.73,8.72,2.85,1.23,2.12.57,5.23-1.89,8.98-.27.41-.35.91-.22,1.37s.45.86.88,1.08c4.01,2.02,6.13,4.38,6.13,6.83s-2.12,4.81-6.13,6.84c-.43.22-.75.61-.88,1.08s-.04.97.22,1.37c2.46,3.76,3.12,6.86,1.89,8.98-1.23,2.12-4.25,3.11-8.72,2.85-.48-.02-.96.15-1.3.5s-.52.82-.49,1.3c.25,4.48-.73,7.5-2.86,8.73s-5.23.57-8.98-1.89c-.41-.27-.91-.35-1.37-.22-.47.13-.86.45-1.08.88-2.02,4.01-4.38,6.13-6.83,6.13Zm-8.35-7.26c.16,0,.33.02.49.06.52.14.96.5,1.21.98,1.98,3.94,4.29,6.02,6.66,6.02s4.67-2.08,6.66-6.02c.24-.48.68-.84,1.21-.98.52-.14,1.08-.05,1.53.25,3.69,2.42,6.72,3.07,8.78,1.88,2.05-1.19,3.01-4.14,2.76-8.54-.03-.54.17-1.07.55-1.45.38-.38.92-.59,1.45-.55,4.4.25,7.36-.7,8.54-2.76,1.19-2.05.53-5.09-1.88-8.78-.3-.45-.39-1.01-.25-1.53s.5-.96.98-1.2c3.94-1.98,6.02-4.29,6.02-6.66s-2.08-4.67-6.02-6.66c-.48-.24-.84-.68-.98-1.2-.14-.52-.05-1.08.25-1.53,2.42-3.69,3.07-6.72,1.88-8.78-1.19-2.05-4.14-3.01-8.54-2.76-.54.04-1.07-.17-1.45-.55-.38-.38-.58-.91-.55-1.45.25-4.4-.7-7.36-2.76-8.54-2.05-1.19-5.09-.53-8.78,1.88-.45.3-1.01.39-1.53.25-.52-.14-.96-.5-1.2-.98-1.98-3.94-4.29-6.02-6.66-6.02s-4.67,2.08-6.66,6.02c-.24.48-.68.84-1.2.98-.52.14-1.08.05-1.53-.25-3.69-2.42-6.72-3.07-8.78-1.88-2.05,1.19-3.01,4.14-2.76,8.54.03.54-.17,1.07-.55,1.45-.38.38-.92.58-1.45.55-4.39-.25-7.36.7-8.54,2.76-1.19,2.05-.53,5.09,1.88,8.78.3.45.39,1.01.25,1.53s-.5.96-.98,1.2c-3.94,1.98-6.02,4.29-6.02,6.66s2.08,4.67,6.02,6.66c.48.24.84.68.98,1.2.14.52.05,1.08-.25,1.53-2.42,3.69-3.07,6.72-1.88,8.78s4.14,3,8.54,2.76c.54-.04,1.07.17,1.45.55.38.38.58.91.55,1.45-.25,4.4.7,7.36,2.76,8.54,2.05,1.19,5.09.53,8.78-1.88.31-.21.68-.31,1.04-.31Z"/>
      <path class="cls-2" d="m82.57,117.34c-2.33,0-4.59-2.02-6.51-5.83-.21-.41-.58-.71-1.02-.83-.44-.12-.92-.04-1.3.21-3.57,2.34-6.53,2.97-8.55,1.8-2.02-1.17-2.96-4.04-2.72-8.31.03-.46-.14-.91-.47-1.23-.32-.32-.78-.49-1.23-.47-4.28.24-7.14-.7-8.31-2.72-1.17-2.02-.55-4.98,1.8-8.56.25-.38.33-.86.21-1.3-.12-.44-.42-.81-.83-1.02-3.82-1.92-5.83-4.17-5.83-6.51s2.02-4.59,5.83-6.51c.41-.21.71-.58.83-1.02.12-.44.04-.92-.21-1.3-2.34-3.58-2.97-6.53-1.8-8.56,1.17-2.02,4.04-2.96,8.31-2.72.46.02.91-.14,1.23-.47.32-.32.5-.77.47-1.23-.24-4.27.7-7.14,2.72-8.31,2.02-1.17,4.98-.54,8.55,1.8.39.25.86.33,1.3.21.44-.12.81-.42,1.02-.83,1.92-3.82,4.18-5.83,6.51-5.83s4.59,2.02,6.51,5.83c.21.41.58.71,1.02.83.44.12.92.04,1.3-.21,3.57-2.34,6.54-2.97,8.55-1.8,2.02,1.17,2.96,4.04,2.72,8.31-.03.46.14.91.47,1.23.32.32.77.49,1.23.47,4.27-.24,7.14.7,8.31,2.72,1.17,2.02.54,4.98-1.8,8.56-.25.38-.33.86-.21,1.3.12.44.42.81.83,1.02,3.82,1.92,5.84,4.17,5.84,6.51s-2.02,4.59-5.84,6.51c-.41.21-.71.58-.83,1.02-.12.44-.04.92.21,1.3,2.34,3.57,2.96,6.53,1.8,8.56-1.17,2.02-4.05,2.96-8.31,2.72-.46-.02-.91.14-1.23.47s-.49.77-.47,1.23c.24,4.27-.7,7.14-2.72,8.31-2.02,1.17-4.98.55-8.55-1.8-.38-.25-.86-.33-1.3-.21-.44.12-.81.42-1.02.83-1.92,3.82-4.18,5.83-6.51,5.83Zm-7.95-6.93c.16,0,.31.02.47.06.5.13.92.48,1.15.94,1.89,3.74,4.07,5.72,6.33,5.72s4.44-1.98,6.33-5.72c.23-.46.65-.8,1.15-.94.5-.14,1.03-.05,1.47.24,3.51,2.3,6.39,2.92,8.34,1.79,1.95-1.13,2.86-3.93,2.62-8.12-.03-.52.16-1.02.53-1.39.37-.37.87-.56,1.39-.53,4.19.24,6.99-.67,8.12-2.62,1.13-1.95.51-4.83-1.79-8.34-.28-.43-.37-.97-.24-1.47.13-.5.47-.92.94-1.15,3.74-1.89,5.72-4.07,5.72-6.33s-1.98-4.44-5.72-6.33c-.46-.23-.8-.65-.94-1.15-.13-.5-.05-1.03.24-1.47,2.3-3.51,2.92-6.39,1.79-8.34-1.13-1.95-3.94-2.86-8.12-2.62-.51.02-1.02-.16-1.39-.53-.37-.36-.56-.87-.53-1.39.24-4.19-.67-6.99-2.62-8.12-1.95-1.12-4.83-.51-8.34,1.79-.43.28-.97.37-1.47.24-.5-.13-.92-.48-1.15-.94-1.89-3.74-4.07-5.72-6.33-5.72s-4.44,1.98-6.33,5.72c-.23.46-.65.8-1.15.94-.5.14-1.03.05-1.47-.24-3.51-2.3-6.39-2.92-8.34-1.79-1.95,1.13-2.86,3.93-2.62,8.12.03.52-.16,1.02-.53,1.39-.36.36-.86.55-1.39.53-4.19-.24-6.99.67-8.12,2.62-1.13,1.95-.51,4.83,1.79,8.34.28.43.37.97.24,1.47-.13.5-.48.92-.94,1.15-3.74,1.89-5.72,4.07-5.72,6.33s1.98,4.44,5.72,6.33c.46.23.8.65.94,1.15s.05,1.03-.24,1.47c-2.3,3.51-2.92,6.39-1.79,8.34,1.13,1.95,3.93,2.85,8.12,2.62.51-.04,1.02.16,1.39.53.37.36.56.87.53,1.39-.24,4.19.67,6.99,2.62,8.12,1.95,1.12,4.83.51,8.34-1.79.3-.2.65-.3,1-.3Z"/>
      <path class="cls-2" d="m82.57,115.57c-2.22,0-4.36-1.92-6.19-5.54-.2-.39-.55-.67-.96-.79-.42-.11-.87-.04-1.23.2-3.4,2.23-6.21,2.81-8.13,1.71-1.92-1.11-2.82-3.84-2.59-7.89.02-.43-.14-.86-.44-1.16-.31-.3-.73-.46-1.16-.44-4.04.23-6.78-.66-7.89-2.59-1.11-1.92-.52-4.73,1.71-8.13.24-.36.31-.81.2-1.23-.11-.42-.4-.77-.79-.96-3.62-1.83-5.54-3.97-5.54-6.19s1.92-4.36,5.54-6.19c.39-.2.67-.55.79-.96s.04-.86-.2-1.23c-2.23-3.4-2.82-6.21-1.71-8.13,1.11-1.92,3.84-2.81,7.89-2.59.03,0,.06,0,.09,0,.4,0,.79-.16,1.07-.44.3-.31.47-.73.44-1.16-.23-4.05.66-6.78,2.59-7.89,1.92-1.11,4.73-.52,8.13,1.71.36.24.81.31,1.23.2.42-.11.77-.4.96-.79,1.83-3.63,3.97-5.54,6.19-5.54s4.36,1.92,6.18,5.54c.2.39.55.67.96.79.42.11.87.04,1.23-.2,3.39-2.23,6.21-2.82,8.13-1.71,1.92,1.11,2.82,3.84,2.59,7.89-.02.43.14.86.44,1.16.31.31.73.47,1.16.44,4.05-.23,6.78.66,7.89,2.59,1.11,1.92.52,4.73-1.71,8.13-.24.36-.31.81-.2,1.23.11.42.4.77.79.96,3.62,1.83,5.54,3.97,5.54,6.19s-1.92,4.36-5.54,6.19c-.39.2-.67.55-.79.96-.11.42-.04.86.2,1.23,2.23,3.39,2.82,6.21,1.71,8.13-1.11,1.92-3.85,2.82-7.89,2.59-.43-.03-.86.14-1.16.44-.3.31-.47.73-.44,1.16.23,4.05-.66,6.78-2.59,7.89-1.92,1.11-4.73.52-8.13-1.71-.36-.24-.81-.31-1.23-.2-.42.11-.77.4-.96.79-1.83,3.63-3.96,5.54-6.18,5.54Zm-7.54-6.59c.15,0,.3.02.45.06.48.13.88.45,1.1.89,1.79,3.55,3.86,5.43,6,5.43s4.21-1.88,6-5.43c.22-.44.62-.77,1.1-.89.48-.13.98-.04,1.4.23,3.32,2.18,6.05,2.77,7.9,1.7,1.85-1.07,2.71-3.73,2.48-7.7-.03-.49.15-.98.5-1.32.35-.35.83-.53,1.32-.5,3.96.22,6.63-.63,7.7-2.48,1.07-1.85.48-4.58-1.7-7.9-.27-.41-.35-.92-.23-1.4.13-.48.45-.88.89-1.1,3.55-1.79,5.42-3.86,5.42-6s-1.88-4.21-5.42-6c-.44-.22-.77-.62-.9-1.1-.13-.48-.04-.98.23-1.4,2.18-3.32,2.77-6.06,1.7-7.9-1.07-1.85-3.72-2.71-7.7-2.48-.49.03-.98-.16-1.32-.5-.35-.35-.53-.83-.5-1.32.22-3.97-.63-6.63-2.48-7.7-1.85-1.07-4.58-.48-7.9,1.7-.41.27-.92.35-1.4.23-.47-.13-.88-.45-1.1-.89-1.79-3.55-3.86-5.43-6-5.43s-4.21,1.88-6,5.43c-.22.44-.62.77-1.1.89-.48.13-.99.05-1.4-.23-3.32-2.18-6.06-2.77-7.9-1.7-1.85,1.07-2.71,3.73-2.48,7.7.03.49-.16.98-.5,1.32-.35.35-.82.53-1.32.5-3.98-.23-6.63.63-7.7,2.48-1.07,1.85-.48,4.58,1.7,7.9.27.41.35.92.23,1.4-.13.48-.45.88-.89,1.1-3.55,1.79-5.42,3.86-5.42,6s1.88,4.21,5.42,6c.44.22.77.62.89,1.1.13.48.04.98-.23,1.4-2.18,3.32-2.77,6.06-1.7,7.9,1.07,1.85,3.73,2.71,7.7,2.48.49-.03.97.15,1.32.5.35.35.53.83.5,1.32-.22,3.97.63,6.63,2.48,7.7,1.85,1.07,4.58.48,7.9-1.7.29-.19.62-.28.95-.28Z"/>
      <path class="cls-2" d="m82.57,113.8c-2.1,0-4.13-1.81-5.86-5.25-.18-.36-.51-.63-.91-.74-.39-.1-.81-.04-1.15.19-3.22,2.11-5.88,2.67-7.7,1.62-1.82-1.05-2.67-3.64-2.45-7.48.02-.41-.13-.81-.42-1.09-.29-.29-.69-.44-1.09-.41-3.84.21-6.42-.63-7.47-2.45-1.05-1.82-.49-4.48,1.61-7.7.22-.34.29-.76.19-1.15-.11-.39-.37-.72-.74-.91-3.43-1.73-5.25-3.76-5.25-5.86s1.81-4.13,5.25-5.86c.36-.18.63-.51.74-.91.1-.39.04-.81-.19-1.15-2.11-3.21-2.67-5.88-1.61-7.7,1.05-1.82,3.64-2.67,7.47-2.45.41.03.8-.13,1.09-.41s.44-.69.42-1.09c-.22-3.84.63-6.42,2.45-7.48,1.82-1.05,4.48-.49,7.7,1.62.34.22.76.29,1.15.19s.72-.37.91-.74c1.73-3.43,3.76-5.25,5.86-5.25s4.13,1.81,5.86,5.25c.18.36.51.63.91.74.39.1.81.04,1.15-.19,3.21-2.11,5.88-2.67,7.7-1.62,1.82,1.05,2.67,3.64,2.45,7.48-.02.41.13.8.42,1.09.29.29.68.44,1.09.42,3.84-.22,6.42.63,7.47,2.45,1.05,1.82.49,4.48-1.61,7.7-.22.34-.29.76-.19,1.15.11.39.37.72.74.91,3.43,1.73,5.25,3.76,5.25,5.86s-1.81,4.13-5.25,5.86c-.36.18-.63.51-.74.91-.1.39-.04.81.19,1.15,2.11,3.22,2.67,5.88,1.61,7.7s-3.64,2.67-7.47,2.45c-.4-.03-.8.13-1.09.42-.29.29-.44.68-.42,1.09.22,3.84-.63,6.42-2.45,7.48-1.82,1.05-4.48.49-7.7-1.62-.34-.22-.76-.29-1.15-.19-.39.1-.72.37-.91.74-1.73,3.43-3.76,5.25-5.86,5.25Zm-7.13-6.25c.14,0,.28.02.42.06.45.12.83.43,1.04.85,1.69,3.35,3.65,5.13,5.67,5.13s3.97-1.77,5.66-5.13c.21-.42.59-.73,1.05-.85.45-.12.94-.04,1.33.22,3.14,2.06,5.72,2.62,7.47,1.61,1.75-1.01,2.55-3.52,2.34-7.27-.03-.47.15-.93.48-1.26s.79-.5,1.26-.48c3.75.21,6.26-.6,7.27-2.34,1.01-1.75.45-4.33-1.61-7.47-.26-.39-.34-.88-.21-1.33.12-.45.43-.83.85-1.04,3.35-1.69,5.13-3.65,5.13-5.66s-1.77-3.97-5.13-5.66c-.42-.21-.73-.59-.85-1.04-.12-.45-.04-.94.21-1.33,2.06-3.14,2.62-5.72,1.61-7.47-1.01-1.75-3.53-2.56-7.27-2.34-.47.02-.93-.15-1.26-.48-.33-.33-.51-.79-.48-1.26.21-3.75-.6-6.26-2.34-7.27-1.75-1.01-4.33-.45-7.47,1.61-.39.26-.88.33-1.33.22-.45-.12-.83-.43-1.05-.85-1.69-3.35-3.65-5.13-5.66-5.13s-3.97,1.77-5.66,5.13c-.21.42-.59.73-1.05.85-.45.12-.94.04-1.33-.22-3.14-2.06-5.72-2.62-7.47-1.61-1.75,1.01-2.55,3.52-2.34,7.27.03.47-.15.93-.48,1.26-.33.33-.79.5-1.26.48-3.75-.22-6.26.6-7.27,2.34s-.45,4.33,1.61,7.47c.26.39.34.88.21,1.33-.12.45-.43.83-.85,1.04-3.35,1.69-5.13,3.65-5.13,5.66s1.77,3.97,5.13,5.66c.42.21.73.59.85,1.04.12.45.04.94-.21,1.33-2.06,3.14-2.62,5.72-1.61,7.47,1.01,1.74,3.52,2.56,7.27,2.34.47-.02.93.15,1.26.48s.51.79.48,1.26c-.21,3.75.6,6.27,2.34,7.27,1.75,1.01,4.33.45,7.47-1.61.27-.18.59-.27.91-.27Z"/>
      <path class="cls-2" d="m82.57,112.03c-1.99,0-3.9-1.71-5.54-4.95-.17-.34-.48-.59-.85-.69-.37-.1-.76-.04-1.08.17-3.04,1.99-5.55,2.52-7.27,1.52-1.72-.99-2.52-3.44-2.32-7.06.02-.38-.12-.75-.39-1.02-.27-.27-.64-.41-1.02-.39-3.64.21-6.06-.59-7.06-2.32-.99-1.72-.47-4.24,1.52-7.27.21-.32.27-.71.17-1.08-.1-.37-.35-.68-.69-.85-3.24-1.63-4.95-3.55-4.95-5.54s1.71-3.9,4.95-5.54c.34-.17.59-.48.69-.85.1-.37.03-.76-.17-1.08-1.99-3.04-2.52-5.55-1.52-7.27.99-1.72,3.42-2.53,7.06-2.32.37.02.75-.12,1.02-.39.27-.27.41-.64.39-1.02-.21-3.62.59-6.06,2.32-7.06,1.72-.99,4.24-.47,7.27,1.52.32.21.71.27,1.08.17.37-.1.68-.35.85-.69,1.63-3.24,3.55-4.95,5.54-4.95s3.9,1.71,5.54,4.95c.17.34.48.59.85.69.37.1.76.03,1.08-.17,3.03-1.99,5.55-2.52,7.27-1.52,1.72.99,2.52,3.44,2.32,7.06-.02.38.12.75.39,1.02.27.27.65.42,1.02.39,3.63-.21,6.06.59,7.06,2.32s.47,4.24-1.52,7.27c-.21.32-.27.71-.17,1.08.1.37.35.68.69.85,3.24,1.63,4.96,3.55,4.96,5.54s-1.71,3.9-4.96,5.54c-.34.17-.59.48-.69.85-.1.37-.03.76.17,1.08,1.99,3.04,2.52,5.55,1.52,7.27-.99,1.72-3.42,2.53-7.06,2.32-.38-.03-.75.12-1.02.39-.27.27-.41.64-.39,1.02.21,3.62-.59,6.06-2.32,7.06-1.72.99-4.24.47-7.27-1.52-.32-.21-.71-.27-1.08-.17-.37.1-.68.35-.85.69-1.63,3.24-3.55,4.95-5.54,4.95Zm-6.73-5.92c.14,0,.27.02.4.05.43.12.79.41.99.81,1.59,3.16,3.44,4.83,5.33,4.83s3.74-1.67,5.33-4.83c.2-.4.56-.69.99-.81.43-.12.89-.04,1.26.2,2.96,1.94,5.39,2.47,7.03,1.52,1.64-.95,2.4-3.32,2.2-6.85-.03-.44.14-.88.45-1.19.31-.32.75-.48,1.2-.46,3.52.2,5.9-.56,6.85-2.2.95-1.64.42-4.07-1.52-7.03-.25-.37-.32-.83-.21-1.26.12-.43.41-.79.81-.99,3.16-1.59,4.83-3.44,4.83-5.33s-1.67-3.74-4.83-5.33c-.4-.2-.69-.56-.81-.99-.11-.43-.04-.89.21-1.26,1.94-2.96,2.46-5.39,1.52-7.03s-3.32-2.41-6.85-2.2c-.44.03-.88-.14-1.2-.46-.31-.31-.48-.75-.45-1.19.2-3.53-.56-5.9-2.2-6.85-1.64-.95-4.08-.42-7.03,1.52-.37.24-.84.32-1.26.2-.43-.11-.79-.41-.99-.81-1.59-3.16-3.44-4.83-5.33-4.83s-3.74,1.67-5.33,4.83c-.2.4-.56.69-.99.81-.43.12-.89.04-1.26-.2-2.96-1.94-5.39-2.46-7.03-1.52-1.64.95-2.4,3.32-2.2,6.85.03.45-.14.88-.46,1.2s-.75.48-1.2.45c-3.53-.2-5.9.56-6.85,2.2-.95,1.64-.42,4.07,1.52,7.03.25.37.32.83.2,1.26-.11.43-.41.79-.81.99-3.16,1.59-4.83,3.44-4.83,5.33s1.67,3.74,4.83,5.33c.4.2.69.56.81.99.12.43.04.89-.2,1.26-1.94,2.96-2.46,5.39-1.52,7.03s3.32,2.4,6.85,2.2c.45-.02.88.14,1.2.45.31.31.48.75.46,1.2-.2,3.53.56,5.9,2.2,6.85,1.64.95,4.07.42,7.03-1.52.26-.17.56-.26.86-.26Z"/>
      <path class="cls-2" d="m82.57,110.26c-1.87,0-3.67-1.61-5.21-4.66-.16-.32-.45-.55-.79-.64-.34-.09-.71-.03-1,.16-2.86,1.87-5.22,2.37-6.84,1.43-1.62-.94-2.38-3.23-2.18-6.64.02-.35-.11-.7-.36-.95s-.61-.38-.95-.36c-3.42.19-5.71-.56-6.64-2.18-.94-1.62-.44-3.99,1.43-6.84.2-.3.25-.66.16-1-.09-.34-.33-.63-.64-.79-3.05-1.54-4.66-3.34-4.66-5.21s1.61-3.67,4.66-5.21c.32-.16.55-.45.64-.79s.03-.71-.16-1.01c-1.87-2.86-2.37-5.22-1.43-6.84.94-1.62,3.23-2.38,6.64-2.18.34.02.7-.11.95-.36s.38-.6.36-.95c-.19-3.41.56-5.71,2.18-6.64,1.62-.94,3.99-.44,6.84,1.43.3.2.66.25,1.01.16.34-.09.63-.33.79-.64,1.54-3.05,3.34-4.66,5.21-4.66s3.67,1.61,5.21,4.66c.16.32.45.55.79.64.34.09.71.03,1.01-.16,2.86-1.87,5.22-2.37,6.84-1.43,1.62.94,2.38,3.23,2.18,6.64-.02.35.11.7.36.95.23.23.55.36.88.36.02,0,.05,0,.07,0,3.42-.2,5.71.56,6.64,2.18.94,1.62.44,3.99-1.43,6.84-.2.3-.25.66-.16,1.01s.33.63.64.79c3.05,1.54,4.66,3.34,4.66,5.21s-1.61,3.67-4.66,5.21c-.32.16-.55.45-.64.79-.09.34-.03.71.16,1,1.87,2.86,2.37,5.22,1.43,6.84-.94,1.62-3.23,2.38-6.64,2.18-.02,0-.05,0-.07,0-.33,0-.65.13-.88.36-.25.25-.38.6-.36.95.19,3.41-.56,5.71-2.18,6.64-1.62.94-3.99.44-6.84-1.43-.3-.19-.66-.25-1.01-.16-.34.09-.63.33-.79.64-1.54,3.05-3.34,4.66-5.21,4.66Zm-6.32-5.58c.13,0,.26.02.38.05.41.11.75.39.94.76,1.5,2.96,3.22,4.53,5,4.53s3.51-1.57,5-4.53c.19-.38.53-.66.94-.76.41-.11.84-.04,1.2.19,2.78,1.82,5.05,2.31,6.6,1.42,1.54-.89,2.25-3.11,2.06-6.42-.02-.42.13-.83.43-1.13.3-.3.71-.45,1.13-.43,3.32.19,5.54-.53,6.42-2.06.89-1.54.4-3.82-1.42-6.6-.23-.35-.3-.79-.19-1.19.11-.41.39-.75.76-.94,2.96-1.49,4.53-3.22,4.53-5s-1.57-3.51-4.53-5c-.38-.19-.66-.53-.76-.94-.11-.41-.04-.84.19-1.2,1.82-2.78,2.31-5.06,1.42-6.6-.89-1.54-3.11-2.25-6.42-2.06-.42.02-.83-.13-1.13-.43-.3-.3-.45-.71-.43-1.13.19-3.31-.53-5.54-2.06-6.42-1.54-.89-3.82-.4-6.6,1.42-.35.23-.79.3-1.2.19-.41-.11-.75-.39-.94-.76-1.5-2.96-3.22-4.53-5-4.53s-3.51,1.57-5,4.53c-.19.38-.53.66-.94.76-.41.11-.84.04-1.2-.19-2.78-1.82-5.06-2.31-6.6-1.42-1.54.89-2.25,3.11-2.06,6.42.02.42-.13.83-.43,1.13s-.72.45-1.13.43c-3.32-.19-5.54.53-6.42,2.06-.89,1.54-.4,3.82,1.42,6.6.23.35.3.79.19,1.2-.11.41-.39.75-.76.94-2.96,1.49-4.53,3.22-4.53,5s1.57,3.51,4.53,5c.38.19.66.53.76.94.11.41.04.84-.19,1.19-1.82,2.78-2.31,5.06-1.42,6.6.89,1.54,3.11,2.25,6.42,2.06.43-.02.83.13,1.13.43.3.3.45.71.43,1.13-.19,3.31.53,5.54,2.06,6.42s3.82.4,6.6-1.42c.24-.16.53-.24.81-.24Z"/>
      <path class="cls-2" d="m82.57,108.49c-1.76,0-3.45-1.51-4.89-4.37-.15-.29-.42-.51-.73-.6-.32-.09-.66-.03-.93.15-2.68,1.75-4.89,2.22-6.42,1.34-1.52-.88-2.23-3.03-2.05-6.22.02-.33-.1-.65-.34-.88-.23-.23-.55-.36-.88-.33-3.19.18-5.35-.53-6.23-2.05-.88-1.52-.42-3.74,1.34-6.41.18-.28.24-.61.15-.93-.08-.32-.3-.58-.6-.73-2.86-1.44-4.37-3.13-4.37-4.89s1.51-3.45,4.37-4.89c.29-.15.51-.41.6-.73.08-.32.03-.66-.15-.93-1.75-2.68-2.22-4.89-1.34-6.41.88-1.52,3.03-2.23,6.22-2.05.33.02.65-.1.88-.33.23-.23.35-.55.34-.88-.18-3.19.53-5.35,2.05-6.23,1.52-.88,3.74-.41,6.42,1.34.28.18.62.23.93.15.32-.08.58-.3.73-.6,1.44-2.86,3.13-4.37,4.89-4.37s3.45,1.51,4.88,4.37c.15.29.42.51.73.6.32.08.65.03.93-.15,2.68-1.75,4.89-2.22,6.41-1.34,1.52.88,2.23,3.03,2.05,6.23-.02.33.1.65.33.88.23.23.55.36.88.34,3.19-.18,5.35.53,6.22,2.05s.42,3.74-1.34,6.41c-.18.28-.24.61-.15.93.08.32.3.58.6.73,2.86,1.44,4.37,3.13,4.37,4.89s-1.51,3.45-4.37,4.89c-.29.15-.51.42-.6.73-.08.32-.03.66.15.93,1.75,2.68,2.22,4.89,1.34,6.41s-3.02,2.23-6.22,2.05c-.33-.03-.65.1-.88.34-.23.23-.35.55-.33.88.18,3.19-.53,5.35-2.05,6.22-1.52.88-3.74.41-6.41-1.34-.28-.18-.62-.24-.93-.15-.32.08-.58.3-.73.6-1.44,2.86-3.13,4.37-4.88,4.37Zm-5.91-5.24c.12,0,.24.02.36.05.38.1.71.37.89.72,1.4,2.77,3.01,4.23,4.67,4.23s3.27-1.46,4.67-4.23c.18-.36.5-.62.89-.72.38-.1.79-.04,1.13.18,2.59,1.7,4.72,2.16,6.16,1.33,1.44-.83,2.1-2.9,1.93-6-.02-.4.12-.79.41-1.07.28-.28.68-.43,1.07-.41,3.1.18,5.17-.49,6-1.93.83-1.44.37-3.57-1.33-6.16-.22-.33-.29-.74-.18-1.13.1-.38.37-.71.72-.89,2.77-1.4,4.23-3.01,4.23-4.67s-1.46-3.27-4.23-4.67c-.36-.18-.62-.5-.72-.89-.1-.38-.04-.79.18-1.13,1.7-2.59,2.16-4.72,1.33-6.16s-2.9-2.1-6-1.93c-.38.03-.79-.12-1.07-.41-.28-.28-.43-.67-.41-1.07.18-3.1-.49-5.17-1.93-6-1.44-.83-3.57-.37-6.16,1.33-.33.22-.74.29-1.13.18-.38-.1-.71-.37-.89-.72-1.4-2.77-3.01-4.23-4.67-4.23s-3.27,1.46-4.67,4.23c-.18.36-.5.62-.88.72-.38.1-.79.04-1.13-.18-2.59-1.7-4.72-2.16-6.16-1.33-1.44.83-2.1,2.9-1.93,6,.02.4-.13.79-.41,1.07-.28.28-.68.43-1.07.41-3.1-.18-5.17.49-6,1.93-.83,1.44-.37,3.57,1.33,6.16.22.33.29.74.18,1.13-.1.38-.37.71-.72.89-2.77,1.4-4.23,3.01-4.23,4.67s1.46,3.27,4.23,4.67c.36.18.62.5.72.89.1.38.04.79-.18,1.13-1.7,2.59-2.16,4.72-1.33,6.16.83,1.44,2.9,2.1,6,1.93.38-.02.79.12,1.07.41.28.28.43.67.41,1.07-.18,3.1.49,5.17,1.93,6,1.44.83,3.57.37,6.16-1.33.23-.15.5-.23.77-.23Z"/>
      <path class="cls-2" d="m82.57,106.72c-1.64,0-3.22-1.41-4.56-4.07-.14-.27-.38-.47-.67-.55-.29-.08-.6-.03-.86.14-2.5,1.64-4.57,2.07-5.99,1.25-1.42-.82-2.08-2.83-1.91-5.81.02-.3-.1-.6-.31-.81-.21-.21-.51-.33-.81-.31-2.98.17-4.99-.49-5.81-1.91-.82-1.42-.39-3.49,1.25-5.99.17-.25.22-.57.14-.86s-.28-.54-.55-.67c-2.67-1.34-4.07-2.92-4.07-4.56s1.41-3.22,4.07-4.56c.27-.14.47-.38.55-.67.08-.29.03-.6-.14-.86-1.64-2.5-2.07-4.57-1.25-5.99.82-1.42,2.83-2.08,5.81-1.91.3.02.6-.09.81-.31.21-.21.33-.51.31-.81-.17-2.98.49-4.99,1.91-5.81,1.42-.82,3.49-.39,5.99,1.25.25.17.57.22.86.14.29-.08.54-.28.67-.55,1.34-2.67,2.92-4.07,4.56-4.07s3.22,1.41,4.56,4.07c.14.27.38.47.67.55.29.08.6.03.86-.14,2.5-1.64,4.57-2.07,5.99-1.25,1.42.82,2.08,2.83,1.91,5.81-.02.3.09.6.31.81.21.21.51.33.81.31,2.98-.17,4.99.49,5.81,1.91.82,1.42.39,3.49-1.25,5.99-.17.25-.22.57-.14.86s.28.54.55.67c2.67,1.34,4.07,2.92,4.07,4.56s-1.41,3.22-4.07,4.56c-.27.14-.47.38-.55.67-.08.29-.03.6.14.86,1.64,2.5,2.07,4.57,1.25,5.99-.82,1.42-2.83,2.08-5.81,1.91-.3-.02-.6.09-.81.31-.21.21-.33.51-.31.81.17,2.98-.49,4.99-1.91,5.81-1.42.82-3.49.39-5.99-1.25-.25-.17-.57-.21-.86-.14-.29.08-.54.28-.67.55-1.34,2.67-2.92,4.07-4.56,4.07Zm-5.51-4.91c.11,0,.23.01.34.04.36.1.66.34.83.68,1.3,2.58,2.8,3.94,4.34,3.94s3.04-1.36,4.34-3.94c.17-.33.47-.58.83-.68.36-.1.75-.03,1.06.17,2.41,1.58,4.39,2.01,5.72,1.24,1.33-.77,1.95-2.7,1.79-5.58-.02-.37.12-.74.38-1,.26-.26.64-.41,1-.38,2.88.17,4.81-.46,5.58-1.79.77-1.33.34-3.31-1.24-5.72-.21-.31-.27-.7-.17-1.06.1-.36.34-.66.68-.83,2.58-1.3,3.94-2.8,3.94-4.34s-1.36-3.04-3.94-4.34c-.33-.17-.58-.47-.68-.83-.1-.36-.03-.75.17-1.06,1.58-2.41,2.01-4.39,1.24-5.72-.77-1.33-2.7-1.96-5.58-1.79-.36.02-.74-.12-1-.38s-.4-.63-.38-1c.16-2.88-.46-4.81-1.79-5.58-1.33-.77-3.31-.34-5.72,1.24-.31.21-.7.27-1.06.17-.36-.1-.66-.34-.83-.68-1.3-2.57-2.8-3.94-4.34-3.94s-3.04,1.36-4.34,3.94c-.17.33-.47.58-.83.68-.36.1-.75.03-1.06-.17-2.41-1.58-4.39-2.01-5.72-1.24-1.33.77-1.95,2.7-1.79,5.58.02.37-.12.74-.38,1-.26.26-.64.4-1,.38-2.88-.17-4.81.45-5.58,1.79-.77,1.33-.34,3.31,1.24,5.72.21.31.27.7.17,1.06s-.34.66-.68.83c-2.58,1.3-3.94,2.8-3.94,4.34s1.36,3.04,3.94,4.34c.33.17.58.47.68.83s.03.75-.17,1.06c-1.58,2.41-2.01,4.39-1.24,5.72.77,1.33,2.7,1.95,5.58,1.79.36-.02.74.12,1,.38.26.26.4.63.38,1-.16,2.88.46,4.81,1.79,5.58,1.33.77,3.31.34,5.72-1.24.22-.14.47-.22.72-.22Z"/>
    </g>
  </g>
</svg>