<?xml version="1.0" encoding="UTF-8"?>
<svg id="_レイヤー_2" data-name="レイヤー 2" xmlns="http://www.w3.org/2000/svg" viewBox="0 0 165.38 165.38">
  <defs>
    <style>
      .cls-1 {
        fill: none;
      }

      .cls-1, .cls-2 {
        stroke-width: 0px;
      }

      .cls-2 {
        fill: #fff;
      }
    </style>
  </defs>
  <g id="_レイヤー_1-2" data-name="レイヤー 1">
    <g>
      <path class="cls-2" d="m82.69,165.38c-5.51,0-10.84-4.78-15.4-13.83-.51-1.01-1.42-1.75-2.51-2.04-1.08-.29-2.25-.1-3.19.52-8.47,5.56-15.47,7.04-20.25,4.28-4.77-2.76-6.99-9.56-6.42-19.68.06-1.13-.35-2.23-1.15-3.02-.79-.8-1.9-1.21-3.02-1.15-10.11.57-16.92-1.65-19.67-6.42-2.76-4.77-1.28-11.78,4.28-20.25.62-.94.81-2.11.52-3.19s-1.04-2-2.04-2.51c-9.05-4.56-13.83-9.88-13.83-15.4s4.78-10.84,13.83-15.4c1.01-.51,1.75-1.42,2.04-2.51s.1-2.25-.52-3.19c-5.56-8.47-7.04-15.48-4.28-20.25,2.76-4.77,9.55-6.99,19.67-6.42,1.12.06,2.23-.35,3.02-1.15s1.21-1.9,1.15-3.02c-.57-10.12,1.65-16.92,6.42-19.68,4.77-2.76,11.78-1.28,20.25,4.28.94.62,2.11.81,3.19.52,1.08-.29,2-1.04,2.51-2.04,4.56-9.05,9.88-13.83,15.4-13.83s10.84,4.78,15.4,13.83c.51,1.01,1.42,1.75,2.51,2.04,1.09.29,2.25.1,3.19-.52,8.47-5.56,15.48-7.03,20.25-4.28,4.77,2.76,6.99,9.56,6.42,19.68-.06,1.13.35,2.23,1.15,3.02.79.79,1.9,1.21,3.02,1.15,10.1-.58,16.92,1.64,19.68,6.42,2.76,4.77,1.28,11.78-4.28,20.25-.62.94-.81,2.11-.52,3.19.29,1.08,1.04,2,2.04,2.51,9.05,4.56,13.83,9.88,13.83,15.4s-4.78,10.84-13.83,15.4c-1.01.51-1.75,1.42-2.04,2.51-.29,1.09-.1,2.25.52,3.19,5.56,8.47,7.04,15.47,4.28,20.25s-9.56,6.99-19.68,6.42c-1.12-.06-2.23.35-3.02,1.15-.79.79-1.21,1.9-1.15,3.02.58,10.12-1.64,16.92-6.42,19.68-4.77,2.76-11.78,1.28-20.25-4.28-.94-.62-2.11-.81-3.19-.52-1.08.29-2,1.04-2.51,2.04-4.56,9.05-9.88,13.83-15.4,13.83Zm-18.92-16.26c.36,0,.73.05,1.08.14,1.15.31,2.12,1.1,2.66,2.17,4.51,8.96,9.76,13.69,15.17,13.69s10.66-4.73,15.17-13.69c.54-1.07,1.51-1.86,2.67-2.17,1.15-.31,2.39-.11,3.39.55,8.39,5.5,15.3,6.98,19.99,4.27,4.69-2.71,6.86-9.43,6.29-19.44-.07-1.2.38-2.37,1.22-3.21.84-.84,2.01-1.28,3.21-1.22,10.03.57,16.74-1.61,19.45-6.29,2.71-4.69,1.23-11.6-4.27-19.99-.66-1-.86-2.24-.55-3.4.31-1.15,1.1-2.12,2.17-2.67,8.96-4.51,13.69-9.76,13.69-15.17s-4.73-10.66-13.69-15.17c-1.07-.54-1.86-1.51-2.17-2.67-.31-1.15-.11-2.39.55-3.4,5.5-8.39,6.98-15.3,4.27-19.99s-9.43-6.87-19.45-6.29c-1.21.07-2.37-.38-3.21-1.22-.84-.84-1.29-2.02-1.22-3.21.57-10.01-1.61-16.74-6.29-19.44-4.69-2.71-11.6-1.23-19.99,4.27-1,.66-2.24.86-3.39.55-1.15-.31-2.13-1.1-2.67-2.17C93.35,4.98,88.1.25,82.69.25s-10.66,4.73-15.17,13.69c-.54,1.07-1.51,1.86-2.66,2.17-1.16.31-2.39.11-3.4-.55-8.39-5.5-15.3-6.98-19.99-4.27-4.69,2.71-6.86,9.43-6.29,19.44.07,1.2-.38,2.37-1.22,3.21-.84.85-2.02,1.28-3.21,1.22-10.01-.57-16.74,1.61-19.44,6.29-2.71,4.69-1.23,11.6,4.27,19.99.66,1,.86,2.24.55,3.39-.31,1.15-1.1,2.13-2.17,2.67C4.99,72.03.25,77.28.25,82.69s4.74,10.66,13.69,15.17c1.07.54,1.86,1.51,2.17,2.67.31,1.15.11,2.39-.55,3.39-5.5,8.39-6.98,15.3-4.27,19.99,2.71,4.69,9.42,6.87,19.44,6.29,1.2-.06,2.37.38,3.21,1.22.84.84,1.29,2.02,1.22,3.21-.57,10.01,1.61,16.74,6.29,19.44,4.69,2.71,11.6,1.23,19.99-4.27.69-.46,1.5-.69,2.31-.69Z"/>
      <path class="cls-2" d="m82.69,162.69c-5.33,0-10.48-4.63-14.89-13.38-.49-.98-1.38-1.7-2.43-1.98-1.05-.28-2.18-.1-3.09.5-8.2,5.37-14.97,6.8-19.58,4.14-4.62-2.67-6.76-9.25-6.21-19.03.06-1.09-.34-2.16-1.11-2.93-.77-.77-1.84-1.18-2.93-1.11-9.79.56-16.37-1.59-19.03-6.21-2.67-4.62-1.23-11.39,4.14-19.58.6-.91.78-2.04.5-3.09-.28-1.05-1-1.94-1.98-2.43-8.75-4.41-13.38-9.56-13.38-14.89s4.63-10.48,13.38-14.89c.98-.49,1.7-1.38,1.98-2.43.28-1.05.1-2.18-.5-3.09-5.37-8.2-6.8-14.97-4.14-19.58,2.67-4.62,9.25-6.77,19.03-6.21.07,0,.15,0,.22,0,1.01,0,1.99-.4,2.71-1.12.77-.77,1.18-1.84,1.11-2.93-.56-9.78,1.59-16.36,6.21-19.03,4.61-2.67,11.39-1.23,19.58,4.14.92.6,2.04.78,3.09.5,1.05-.28,1.94-1,2.43-1.98,4.41-8.75,9.56-13.38,14.89-13.38s10.48,4.63,14.89,13.38c.49.98,1.38,1.7,2.43,1.98,1.05.28,2.18.1,3.09-.5,8.2-5.37,14.97-6.8,19.58-4.14,4.62,2.67,6.76,9.25,6.21,19.03-.06,1.09.34,2.16,1.11,2.93.77.77,1.84,1.19,2.93,1.11,9.78-.56,16.37,1.59,19.03,6.21,2.67,4.62,1.23,11.39-4.14,19.58-.6.91-.78,2.04-.5,3.09.28,1.05,1,1.94,1.98,2.43,8.75,4.41,13.38,9.56,13.38,14.89s-4.63,10.48-13.38,14.89c-.98.49-1.7,1.38-1.98,2.43-.28,1.05-.1,2.18.5,3.09,5.37,8.2,6.8,14.97,4.14,19.58-2.67,4.62-9.25,6.76-19.03,6.21-1.08-.06-2.16.34-2.93,1.11-.77.77-1.18,1.84-1.11,2.93.56,9.78-1.59,16.36-6.21,19.03-4.62,2.67-11.39,1.23-19.58-4.14-.91-.6-2.04-.78-3.09-.5-1.05.28-1.94,1-2.43,1.98-4.41,8.75-9.56,13.38-14.89,13.38Zm-18.31-15.72c.35,0,.7.05,1.05.14,1.12.3,2.05,1.06,2.58,2.1,4.37,8.67,9.45,13.25,14.68,13.25s10.32-4.58,14.68-13.25c.52-1.04,1.46-1.8,2.58-2.1,1.12-.3,2.31-.11,3.28.53,8.12,5.32,14.8,6.75,19.34,4.13,4.54-2.62,6.64-9.13,6.09-18.82-.07-1.16.37-2.29,1.18-3.11.76-.76,1.8-1.19,2.87-1.19.08,0,.15,0,.23,0,9.69.55,16.2-1.56,18.82-6.09s1.19-11.23-4.13-19.34c-.64-.97-.83-2.17-.53-3.28.3-1.11,1.06-2.05,2.1-2.57,8.67-4.37,13.25-9.45,13.25-14.69s-4.58-10.32-13.25-14.68c-1.04-.52-1.8-1.46-2.1-2.58-.3-1.12-.11-2.31.53-3.28,5.32-8.12,6.75-14.81,4.13-19.34-2.62-4.54-9.13-6.65-18.82-6.09-1.17.07-2.29-.37-3.1-1.18-.82-.82-1.25-1.95-1.18-3.11.55-9.69-1.56-16.2-6.09-18.82s-11.23-1.19-19.34,4.13c-.97.63-2.16.83-3.28.53s-2.05-1.06-2.58-2.1c-4.37-8.67-9.45-13.25-14.68-13.25s-10.32,4.58-14.68,13.25c-.52,1.04-1.46,1.8-2.58,2.1-1.11.3-2.31.11-3.28-.53-8.12-5.32-14.81-6.75-19.34-4.13-4.54,2.62-6.64,9.13-6.09,18.82.07,1.16-.37,2.29-1.18,3.11-.82.82-1.94,1.24-3.11,1.18-9.69-.55-16.2,1.56-18.82,6.09-2.62,4.54-1.19,11.22,4.13,19.34.64.97.83,2.16.53,3.28-.3,1.11-1.06,2.05-2.1,2.58-8.67,4.37-13.25,9.45-13.25,14.68s4.58,10.32,13.25,14.69c1.04.52,1.8,1.46,2.1,2.57.3,1.12.11,2.31-.53,3.28-5.32,8.12-6.75,14.81-4.13,19.34s9.13,6.64,18.82,6.09c1.15-.07,2.29.36,3.11,1.18s1.25,1.95,1.18,3.1c-.55,9.69,1.55,16.2,6.09,18.82,4.54,2.62,11.23,1.19,19.34-4.13.67-.44,1.45-.67,2.23-.67Z"/>
      <path class="cls-2" d="m82.69,159.99c-5.15,0-10.12-4.47-14.38-12.92-.48-.94-1.33-1.64-2.35-1.92-1.02-.27-2.11-.1-2.99.48-7.92,5.19-14.46,6.58-18.92,4-4.46-2.58-6.53-8.93-6-18.38.06-1.06-.33-2.09-1.08-2.83-.75-.75-1.78-1.14-2.84-1.08-9.45.53-15.81-1.54-18.38-6-2.58-4.46-1.19-11,4-18.92.58-.88.76-1.98.48-2.99-.27-1.02-.97-1.88-1.92-2.35-8.45-4.26-12.92-9.24-12.92-14.38s4.47-10.12,12.92-14.38c.95-.48,1.64-1.33,1.92-2.35.27-1.02.1-2.11-.48-2.99-5.19-7.92-6.57-14.46-4-18.92,2.58-4.46,8.94-6.53,18.38-6,1.05.06,2.09-.33,2.84-1.08.74-.75,1.14-1.78,1.08-2.83-.54-9.45,1.54-15.81,6-18.39,4.46-2.57,11-1.19,18.92,4,.89.58,1.98.76,2.99.48,1.02-.27,1.88-.97,2.35-1.92,4.26-8.46,9.24-12.92,14.38-12.92s10.12,4.47,14.39,12.92c.48.95,1.33,1.64,2.35,1.92,1.02.27,2.11.1,3-.48,7.92-5.19,14.46-6.57,18.92-4,4.46,2.57,6.53,8.93,6,18.39-.06,1.06.33,2.09,1.08,2.83.75.75,1.78,1.14,2.84,1.08,9.45-.54,15.81,1.53,18.38,6,2.57,4.46,1.19,11-4,18.92-.58.89-.76,1.98-.48,2.99s.97,1.87,1.92,2.35c8.46,4.26,12.92,9.23,12.92,14.38s-4.47,10.12-12.92,14.38c-.95.48-1.64,1.33-1.92,2.35s-.1,2.11.48,2.99c5.19,7.92,6.58,14.46,4,18.92-2.58,4.46-8.94,6.53-18.38,6-1.06-.06-2.09.33-2.84,1.08-.74.74-1.14,1.78-1.08,2.83.54,9.45-1.54,15.81-6,18.38-4.46,2.57-11,1.19-18.92-4-.88-.58-1.98-.76-2.99-.48-1.02.27-1.88.97-2.35,1.92-4.26,8.46-9.24,12.92-14.39,12.92Zm-17.69-15.18c.34,0,.68.04,1.01.13,1.08.29,1.98,1.03,2.49,2.03,4.22,8.38,9.13,12.81,14.2,12.81s9.97-4.43,14.2-12.81c.5-1,1.41-1.74,2.49-2.02,1.08-.29,2.23-.1,3.16.51,7.85,5.14,14.31,6.53,18.7,3.99,4.39-2.53,6.42-8.82,5.89-18.19-.06-1.12.35-2.21,1.14-3,.79-.79,1.88-1.21,3-1.14,9.37.53,15.66-1.5,18.19-5.89,2.53-4.39,1.15-10.85-3.99-18.7-.61-.94-.8-2.09-.51-3.17.29-1.08,1.03-1.98,2.02-2.48,8.38-4.22,12.81-9.13,12.81-14.2s-4.43-9.97-12.81-14.2c-1-.5-1.74-1.41-2.02-2.48-.29-1.08-.1-2.23.51-3.17,5.15-7.85,6.53-14.31,3.99-18.7-2.53-4.39-8.81-6.42-18.19-5.89-1.12.06-2.21-.35-3-1.14-.79-.79-1.2-1.88-1.14-3,.53-9.37-1.5-15.66-5.89-18.19-4.38-2.53-10.85-1.15-18.7,3.99-.93.61-2.09.8-3.17.51-1.08-.29-1.98-1.03-2.48-2.03-4.22-8.38-9.13-12.81-14.2-12.81s-9.97,4.43-14.2,12.81c-.5,1-1.41,1.74-2.49,2.02-1.08.29-2.23.1-3.16-.51-7.85-5.14-14.31-6.53-18.7-3.99-4.39,2.53-6.42,8.82-5.89,18.19.06,1.12-.35,2.21-1.14,3-.79.79-1.88,1.2-3,1.14-9.36-.53-15.66,1.5-18.19,5.89s-1.15,10.85,3.99,18.7c.61.94.8,2.09.51,3.16-.29,1.08-1.03,1.98-2.03,2.49-8.38,4.22-12.81,9.13-12.81,14.2s4.43,9.97,12.81,14.2c1,.5,1.74,1.41,2.03,2.49.29,1.08.1,2.23-.51,3.16-5.15,7.85-6.53,14.31-3.99,18.7s8.83,6.42,18.19,5.89c1.12-.07,2.21.35,3,1.14.79.79,1.2,1.88,1.14,3-.53,9.37,1.5,15.66,5.89,18.19,4.39,2.53,10.85,1.15,18.7-3.99.65-.42,1.4-.64,2.16-.64Z"/>
      <path class="cls-2" d="m82.69,157.29c-4.97,0-9.77-4.31-13.88-12.47-.46-.91-1.29-1.59-2.27-1.85-.98-.26-2.04-.09-2.89.47-7.64,5.01-13.95,6.35-18.25,3.86s-6.3-8.62-5.78-17.74c.06-1.02-.32-2.02-1.04-2.74-.67-.67-1.59-1.05-2.54-1.05-.07,0-.14,0-.2,0-9.12.52-15.26-1.48-17.74-5.78s-1.15-10.62,3.86-18.25c.56-.86.73-1.91.47-2.89s-.94-1.81-1.85-2.27c-8.16-4.11-12.47-8.91-12.47-13.88s4.31-9.77,12.47-13.88c.91-.46,1.59-1.29,1.85-2.27s.09-2.04-.47-2.89c-5.01-7.64-6.35-13.95-3.86-18.25,2.48-4.3,8.61-6.3,17.74-5.78,1.03.05,2.02-.32,2.74-1.04.72-.72,1.1-1.72,1.04-2.74-.52-9.12,1.48-15.25,5.78-17.74,4.3-2.48,10.62-1.15,18.25,3.86.86.56,1.91.73,2.89.47.98-.26,1.81-.94,2.27-1.85,4.11-8.16,8.91-12.47,13.88-12.47s9.77,4.31,13.88,12.47c.46.91,1.29,1.59,2.27,1.85.99.26,2.04.09,2.9-.47,7.64-5.01,13.95-6.34,18.25-3.86,4.3,2.48,6.3,8.62,5.78,17.74-.06,1.02.32,2.02,1.04,2.74.72.72,1.7,1.1,2.74,1.04,9.13-.52,15.26,1.48,17.74,5.78,2.48,4.3,1.15,10.61-3.86,18.25-.56.86-.73,1.91-.47,2.89.26.98.94,1.81,1.85,2.27,8.16,4.11,12.47,8.91,12.47,13.88s-4.31,9.77-12.47,13.88c-.91.46-1.59,1.29-1.85,2.27s-.09,2.04.47,2.89c5.01,7.64,6.34,13.95,3.86,18.25-2.48,4.3-8.61,6.3-17.74,5.78-1.01-.06-2.02.32-2.74,1.04-.72.72-1.1,1.72-1.04,2.74.52,9.12-1.48,15.26-5.78,17.74-4.3,2.48-10.61,1.15-18.25-3.86-.85-.56-1.91-.73-2.9-.47-.98.26-1.81.94-2.27,1.85-4.11,8.16-8.91,12.47-13.88,12.47Zm-17.07-14.64c.33,0,.65.04.97.13,1.04.28,1.91.99,2.4,1.95,4.08,8.09,8.82,12.37,13.71,12.37s9.63-4.28,13.71-12.37c.49-.96,1.36-1.67,2.39-1.95,1.04-.28,2.15-.1,3.05.49,7.57,4.97,13.82,6.3,18.05,3.85,4.24-2.45,6.2-8.52,5.69-17.56-.06-1.08.34-2.13,1.1-2.89.76-.76,1.81-1.16,2.89-1.1,9.04.52,15.12-1.45,17.56-5.69,2.45-4.24,1.11-10.48-3.85-18.05-.59-.9-.77-2.01-.49-3.05.28-1.04.99-1.91,1.95-2.4,8.09-4.08,12.37-8.82,12.37-13.71s-4.28-9.63-12.37-13.71c-.96-.48-1.67-1.36-1.95-2.4-.28-1.04-.1-2.15.49-3.05,4.97-7.58,6.3-13.82,3.85-18.05-2.44-4.23-8.52-6.2-17.56-5.69-1.09.06-2.13-.34-2.89-1.1-.76-.76-1.16-1.81-1.1-2.89.51-9.04-1.45-15.12-5.69-17.56-4.24-2.45-10.48-1.11-18.05,3.85-.9.59-2.01.77-3.05.49-1.04-.28-1.91-.99-2.39-1.95-4.08-8.09-8.82-12.37-13.71-12.37s-9.63,4.28-13.71,12.37c-.48.96-1.36,1.67-2.39,1.95-1.04.28-2.15.1-3.05-.49-7.58-4.97-13.82-6.3-18.05-3.85-4.24,2.45-6.2,8.52-5.69,17.56.06,1.08-.34,2.13-1.1,2.89-.76.76-1.8,1.16-2.89,1.1-9.04-.52-15.12,1.45-17.56,5.69-2.45,4.24-1.11,10.48,3.86,18.05.59.9.77,2.01.49,3.05-.28,1.04-.99,1.91-1.95,2.39-8.09,4.08-12.37,8.82-12.37,13.71s4.28,9.63,12.37,13.71c.96.49,1.67,1.36,1.95,2.4.28,1.04.1,2.15-.49,3.05-4.97,7.57-6.3,13.82-3.86,18.05,2.45,4.23,8.51,6.2,17.56,5.69,1.07-.06,2.13.34,2.89,1.1.76.76,1.16,1.81,1.1,2.89-.51,9.04,1.45,15.12,5.69,17.56,4.23,2.45,10.48,1.11,18.05-3.85.62-.41,1.35-.62,2.08-.62Z"/>
      <path class="cls-2" d="m82.69,154.6c-4.79,0-9.41-4.16-13.37-12.02-.44-.88-1.25-1.53-2.2-1.79-.95-.25-1.97-.09-2.79.45-7.36,4.83-13.45,6.12-17.59,3.72-4.15-2.39-6.07-8.3-5.57-17.09.06-.99-.31-1.95-1.01-2.65-.65-.65-1.53-1.01-2.45-1.01-.07,0-.13,0-.2,0-8.79.5-14.7-1.43-17.09-5.57-2.39-4.15-1.11-10.23,3.72-17.59.54-.83.71-1.85.45-2.79-.25-.95-.91-1.75-1.79-2.2-7.86-3.96-12.02-8.59-12.02-13.37s4.16-9.41,12.02-13.37c.88-.44,1.54-1.24,1.79-2.2.25-.95.09-1.97-.45-2.79-4.83-7.36-6.12-13.44-3.72-17.59,2.39-4.15,8.3-6.08,17.09-5.57.98.05,1.95-.31,2.65-1.01.7-.7,1.06-1.66,1.01-2.65-.5-8.79,1.43-14.7,5.57-17.09,4.14-2.39,10.23-1.11,17.59,3.72.83.54,1.85.71,2.79.45.95-.25,1.75-.91,2.2-1.79,3.96-7.86,8.58-12.02,13.37-12.02s9.41,4.16,13.37,12.02c.44.88,1.25,1.53,2.2,1.79.95.25,1.97.09,2.79-.45,7.36-4.83,13.44-6.12,17.59-3.72,4.15,2.39,6.07,8.3,5.57,17.09-.06.99.31,1.95,1.01,2.65.7.7,1.65,1.06,2.65,1.01,8.8-.5,14.7,1.43,17.09,5.57,2.39,4.15,1.11,10.23-3.72,17.59-.54.83-.71,1.85-.45,2.8s.91,1.75,1.79,2.19c7.86,3.96,12.02,8.59,12.02,13.37s-4.16,9.41-12.02,13.37c-.88.44-1.53,1.24-1.79,2.19s-.09,1.97.45,2.8c4.83,7.36,6.11,13.44,3.72,17.59-2.39,4.14-8.29,6.07-17.09,5.57-.99-.06-1.95.31-2.65,1.01-.7.7-1.06,1.66-1.01,2.65.5,8.79-1.43,14.7-5.57,17.09-4.14,2.39-10.23,1.11-17.59-3.72-.83-.54-1.84-.71-2.79-.45-.95.25-1.75.91-2.2,1.79-3.96,7.86-8.59,12.02-13.37,12.02Zm-16.46-14.1c.31,0,.63.04.94.12,1,.27,1.84.95,2.3,1.88,3.93,7.8,8.5,11.92,13.22,11.92s9.29-4.12,13.22-11.92c.47-.93,1.31-1.61,2.3-1.88,1-.27,2.07-.1,2.93.47,7.3,4.79,13.32,6.08,17.41,3.72,4.08-2.36,5.98-8.21,5.49-16.93-.06-1.04.33-2.05,1.06-2.78s1.73-1.12,2.78-1.06c8.72.49,14.58-1.4,16.93-5.49s1.07-10.1-3.72-17.41c-.57-.87-.74-1.94-.47-2.94.27-1,.95-1.84,1.88-2.3,7.8-3.93,11.92-8.5,11.92-13.22s-4.12-9.29-11.92-13.22c-.93-.47-1.61-1.31-1.88-2.3-.27-1-.09-2.07.47-2.94,4.79-7.3,6.07-13.32,3.72-17.41-2.36-4.09-8.22-5.98-16.93-5.49-1.04.06-2.05-.33-2.78-1.06-.73-.73-1.12-1.74-1.06-2.78.5-8.72-1.4-14.58-5.49-16.93-4.08-2.36-10.1-1.07-17.41,3.72-.87.57-1.94.74-2.93.47-1-.27-1.84-.95-2.3-1.88-3.93-7.8-8.5-11.92-13.22-11.92s-9.29,4.12-13.22,11.92c-.47.93-1.31,1.61-2.31,1.88-1,.27-2.07.09-2.93-.47-7.3-4.79-13.32-6.07-17.41-3.72-4.08,2.36-5.98,8.21-5.49,16.93.06,1.04-.33,2.05-1.06,2.78s-1.73,1.12-2.78,1.06c-8.72-.5-14.58,1.4-16.93,5.49-2.36,4.08-1.07,10.1,3.72,17.41.57.87.74,1.94.47,2.93-.27,1-.95,1.84-1.88,2.3-7.8,3.93-11.92,8.5-11.92,13.22s4.12,9.29,11.92,13.22c.93.47,1.61,1.31,1.88,2.3.27,1,.09,2.07-.47,2.93-4.79,7.3-6.08,13.32-3.72,17.41,2.36,4.08,8.21,5.98,16.93,5.49,1.04-.06,2.05.33,2.78,1.06.73.73,1.12,1.74,1.06,2.78-.5,8.72,1.4,14.58,5.49,16.93,4.08,2.36,10.1,1.07,17.41-3.72.6-.39,1.3-.6,2-.6Z"/>
      <path class="cls-2" d="m82.69,151.9c-4.61,0-9.05-4-12.87-11.56-.43-.85-1.2-1.48-2.12-1.73-.92-.24-1.9-.09-2.7.44-7.08,4.65-12.94,5.88-16.92,3.58-3.99-2.3-5.84-7.99-5.36-16.45.05-.95-.3-1.88-.97-2.55-.63-.63-1.48-.98-2.36-.98-.06,0-.13,0-.19,0-8.46.48-14.15-1.37-16.45-5.36-2.3-3.99-1.06-9.84,3.58-16.93.52-.8.68-1.78.44-2.7-.25-.92-.87-1.69-1.72-2.12-7.57-3.81-11.57-8.26-11.57-12.87s4-9.05,11.57-12.87c.85-.43,1.48-1.2,1.72-2.12.25-.92.09-1.9-.44-2.7-4.65-7.08-5.88-12.94-3.58-16.93,2.3-3.99,7.98-5.85,16.45-5.36.96.05,1.88-.3,2.55-.97s1.02-1.6.97-2.55c-.48-8.46,1.37-14.15,5.36-16.45,3.99-2.3,9.84-1.06,16.92,3.58.8.52,1.78.68,2.7.44.92-.25,1.69-.87,2.12-1.73,3.81-7.57,8.26-11.56,12.87-11.56s9.05,4,12.87,11.56c.43.85,1.2,1.48,2.12,1.73.92.25,1.9.09,2.7-.44,7.08-4.65,12.94-5.88,16.92-3.58,3.99,2.3,5.84,7.99,5.36,16.45-.05.95.3,1.88.97,2.55.67.67,1.59,1.02,2.55.97,8.45-.48,14.15,1.37,16.45,5.36,2.3,3.99,1.06,9.84-3.58,16.93-.52.8-.68,1.78-.44,2.7.25.92.87,1.69,1.72,2.12,7.57,3.81,11.57,8.26,11.57,12.87s-4,9.05-11.57,12.87c-.85.43-1.48,1.2-1.72,2.12s-.09,1.9.44,2.7c4.64,7.08,5.88,12.94,3.58,16.93-2.3,3.99-8,5.84-16.45,5.36-.96-.05-1.88.3-2.55.97-.67.67-1.03,1.6-.97,2.55.48,8.46-1.37,14.15-5.36,16.45-3.99,2.3-9.84,1.06-16.92-3.58-.8-.52-1.78-.68-2.7-.44-.92.25-1.69.87-2.12,1.73-3.81,7.57-8.26,11.56-12.87,11.56Zm-15.84-13.56c.3,0,.6.04.9.12.96.26,1.77.91,2.21,1.8,3.79,7.51,8.19,11.48,12.73,11.48s8.94-3.97,12.73-11.48c.45-.89,1.25-1.55,2.21-1.8.96-.26,1.99-.09,2.82.46,7.03,4.61,12.83,5.85,16.76,3.58,3.93-2.27,5.76-7.91,5.28-16.31-.06-1,.31-1.97,1.02-2.67.7-.7,1.66-1.07,2.67-1.01,8.4.48,14.04-1.35,16.31-5.28,2.27-3.93,1.03-9.73-3.58-16.76-.55-.83-.71-1.86-.46-2.82.26-.96.91-1.77,1.8-2.21,7.51-3.78,11.48-8.19,11.48-12.73s-3.97-8.94-11.48-12.73c-.89-.45-1.55-1.26-1.8-2.21-.26-.96-.09-1.99.46-2.82,4.61-7.03,5.85-12.83,3.58-16.76-2.27-3.93-7.91-5.76-16.31-5.28-1,.06-1.97-.31-2.67-1.01-.7-.7-1.07-1.67-1.02-2.67.48-8.4-1.35-14.04-5.28-16.31-3.93-2.27-9.73-1.03-16.76,3.58-.83.55-1.86.71-2.82.46-.96-.26-1.76-.91-2.21-1.8-3.79-7.51-8.19-11.48-12.73-11.48s-8.94,3.97-12.73,11.48c-.45.89-1.26,1.55-2.21,1.8-.96.26-1.99.09-2.82-.46-7.03-4.61-12.83-5.85-16.76-3.58-3.93,2.27-5.76,7.91-5.28,16.31.06,1-.31,1.97-1.02,2.67s-1.68,1.08-2.67,1.02c-8.41-.47-14.04,1.35-16.31,5.28-2.27,3.93-1.03,9.73,3.58,16.76.55.83.71,1.86.46,2.82-.26.96-.91,1.77-1.8,2.21-7.51,3.79-11.48,8.19-11.48,12.73s3.97,8.94,11.48,12.73c.89.45,1.55,1.26,1.8,2.21.26.96.09,1.99-.46,2.82-4.61,7.03-5.85,12.83-3.58,16.76,2.27,3.93,7.91,5.76,16.31,5.28.99-.05,1.97.31,2.67,1.02.7.7,1.07,1.67,1.02,2.67-.48,8.4,1.35,14.04,5.28,16.31,3.93,2.27,9.73,1.03,16.76-3.58.58-.38,1.25-.57,1.92-.57Z"/>
      <path class="cls-2" d="m82.69,149.2c-4.42,0-8.7-3.84-12.36-11.11-.41-.82-1.16-1.43-2.04-1.66-.88-.24-1.83-.08-2.59.42-6.81,4.46-12.43,5.66-16.26,3.44-3.83-2.21-5.61-7.68-5.15-15.8.05-.92-.29-1.81-.93-2.46-.6-.6-1.42-.94-2.28-.94-.06,0-.12,0-.18,0-8.13.46-13.59-1.32-15.8-5.15-2.21-3.83-1.02-9.45,3.44-16.26.5-.77.66-1.71.42-2.6-.24-.88-.84-1.63-1.66-2.04-7.27-3.66-11.11-7.94-11.11-12.36s3.84-8.7,11.11-12.36c.82-.41,1.42-1.16,1.66-2.04.24-.88.08-1.83-.42-2.6-4.46-6.81-5.65-12.43-3.44-16.26,2.21-3.83,7.68-5.61,15.8-5.15.92.05,1.81-.29,2.46-.94.65-.65.99-1.54.93-2.46-.46-8.13,1.32-13.59,5.15-15.8,3.83-2.21,9.45-1.02,16.26,3.44.77.5,1.71.66,2.6.42.88-.24,1.62-.84,2.04-1.66,3.66-7.27,7.94-11.11,12.36-11.11s8.7,3.84,12.36,11.11c.41.82,1.16,1.43,2.04,1.66.88.24,1.83.08,2.6-.42,6.81-4.46,12.43-5.66,16.26-3.44,3.83,2.21,5.61,7.68,5.15,15.8-.05.92.29,1.81.93,2.46.65.65,1.55.99,2.46.93,8.12-.46,13.59,1.32,15.8,5.15,2.21,3.83,1.02,9.45-3.44,16.26-.5.77-.66,1.71-.42,2.6s.84,1.63,1.66,2.04c7.27,3.66,11.11,7.94,11.11,12.36s-3.84,8.7-11.11,12.36c-.82.41-1.42,1.16-1.66,2.04-.24.88-.08,1.83.42,2.6,4.46,6.81,5.65,12.43,3.44,16.26-2.21,3.83-7.68,5.61-15.8,5.15-.91-.05-1.81.29-2.46.93-.65.65-.99,1.54-.93,2.46.46,8.13-1.32,13.59-5.15,15.8-3.83,2.21-9.45,1.02-16.26-3.44-.77-.5-1.71-.66-2.6-.42-.88.24-1.63.84-2.04,1.66-3.66,7.27-7.94,11.11-12.36,11.11Zm-15.23-13.02c.29,0,.58.04.86.11.92.25,1.69.88,2.12,1.73,3.64,7.22,7.87,11.04,12.24,11.04s8.6-3.82,12.24-11.04c.43-.85,1.21-1.48,2.12-1.73.92-.25,1.91-.09,2.71.44,6.76,4.43,12.33,5.62,16.12,3.44,3.78-2.18,5.54-7.61,5.08-15.68-.05-.95.3-1.89.97-2.56.67-.67,1.61-1.03,2.56-.97,8.07.46,13.49-1.3,15.68-5.08,2.18-3.78,1-9.36-3.44-16.12-.52-.8-.68-1.79-.44-2.71.25-.92.88-1.69,1.73-2.12,7.22-3.64,11.04-7.87,11.04-12.24s-3.82-8.6-11.04-12.24c-.85-.43-1.49-1.2-1.73-2.12-.25-.92-.09-1.91.44-2.71,4.43-6.76,5.62-12.34,3.44-16.12-2.19-3.78-7.6-5.54-15.68-5.08-.95.05-1.89-.3-2.56-.97-.67-.67-1.03-1.61-.97-2.56.46-8.07-1.3-13.49-5.08-15.68-3.79-2.18-9.36-1-16.12,3.44-.8.52-1.79.68-2.71.44-.92-.25-1.69-.88-2.12-1.73-3.64-7.22-7.87-11.04-12.24-11.04s-8.6,3.82-12.24,11.04c-.43.85-1.21,1.48-2.12,1.73-.92.25-1.91.09-2.71-.44-6.76-4.43-12.34-5.62-16.12-3.44-3.78,2.18-5.54,7.61-5.08,15.68.05.95-.3,1.89-.97,2.56-.67.67-1.61,1.03-2.56.97-8.07-.46-13.5,1.3-15.68,5.08-2.18,3.78-1,9.36,3.44,16.12.52.8.68,1.79.44,2.7-.25.92-.88,1.69-1.73,2.12-7.22,3.64-11.04,7.87-11.04,12.24s3.82,8.6,11.04,12.24c.85.43,1.48,1.2,1.73,2.12.25.92.09,1.91-.44,2.71-4.43,6.76-5.62,12.34-3.44,16.12,2.18,3.78,7.6,5.54,15.68,5.08.95-.05,1.89.3,2.56.97.67.67,1.03,1.61.97,2.56-.46,8.07,1.3,13.49,5.08,15.68,3.79,2.18,9.36,1,16.12-3.44.55-.36,1.2-.55,1.84-.55Z"/>
      <path class="cls-2" d="m82.69,146.51c-4.24,0-8.34-3.69-11.86-10.66-.4-.79-1.11-1.37-1.96-1.6-.85-.23-1.76-.08-2.5.4-6.53,4.28-11.92,5.42-15.6,3.3s-5.38-7.36-4.94-15.16c.05-.88-.28-1.74-.9-2.36-.58-.58-1.37-.9-2.19-.9-.06,0-.12,0-.18,0-7.79.45-13.04-1.26-15.16-4.94-2.12-3.67-.98-9.07,3.3-15.6.48-.74.63-1.65.4-2.5-.23-.85-.81-1.56-1.6-1.96-6.97-3.51-10.66-7.61-10.66-11.86s3.69-8.34,10.66-11.85c.79-.4,1.37-1.11,1.6-1.96s.08-1.76-.4-2.5c-4.28-6.53-5.42-11.92-3.3-15.6,2.12-3.67,7.37-5.38,15.16-4.94.06,0,.12,0,.18,0,.82,0,1.61-.32,2.19-.9.62-.62.95-1.48.9-2.36-.44-7.8,1.26-13.04,4.94-15.16,3.67-2.12,9.07-.98,15.6,3.3.74.48,1.65.63,2.5.4.85-.23,1.56-.81,1.96-1.6,3.51-6.97,7.61-10.66,11.86-10.66s8.34,3.69,11.86,10.66c.4.79,1.11,1.37,1.96,1.6.85.23,1.76.08,2.5-.4,6.53-4.28,11.92-5.42,15.6-3.3,3.67,2.12,5.38,7.36,4.94,15.16-.05.88.28,1.74.9,2.36.58.58,1.37.9,2.19.9.06,0,.12,0,.18,0,7.79-.44,13.04,1.26,15.16,4.94,2.12,3.67.98,9.07-3.3,15.6-.48.74-.63,1.65-.4,2.5s.81,1.56,1.6,1.96c6.97,3.51,10.66,7.61,10.66,11.85s-3.69,8.34-10.66,11.85c-.79.4-1.37,1.11-1.6,1.96-.23.85-.08,1.76.4,2.5,4.28,6.53,5.42,11.92,3.3,15.6s-7.37,5.38-15.16,4.94c-.06,0-.12,0-.18,0-.82,0-1.61.32-2.19.9-.62.62-.95,1.48-.9,2.36.44,7.8-1.26,13.04-4.94,15.16-3.67,2.12-9.07.98-15.6-3.3-.74-.48-1.65-.63-2.5-.4-.85.23-1.56.81-1.96,1.6-3.51,6.97-7.61,10.66-11.86,10.66Zm-14.61-12.48c.28,0,.55.04.83.11.88.24,1.62.84,2.03,1.66,3.49,6.93,7.56,10.6,11.75,10.6s8.26-3.66,11.75-10.6c.41-.82,1.15-1.42,2.03-1.66.88-.24,1.82-.08,2.59.42,6.49,4.26,11.84,5.4,15.47,3.3,3.63-2.1,5.32-7.3,4.88-15.05-.05-.91.29-1.81.93-2.45.6-.6,1.42-.94,2.27-.94.06,0,.12,0,.18,0,7.75.44,12.95-1.25,15.05-4.88,2.1-3.63.96-8.98-3.3-15.48-.5-.77-.65-1.71-.42-2.59.24-.88.84-1.62,1.66-2.03,6.93-3.49,10.6-7.56,10.6-11.75s-3.66-8.26-10.6-11.75c-.82-.41-1.42-1.15-1.66-2.03-.24-.88-.08-1.82.42-2.59,4.26-6.49,5.4-11.84,3.3-15.48-2.1-3.63-7.3-5.32-15.05-4.88-.91.05-1.81-.29-2.45-.93-.64-.64-.98-1.54-.93-2.45.44-7.75-1.25-12.95-4.88-15.05-3.63-2.1-8.98-.96-15.47,3.3-.77.5-1.71.65-2.59.42-.88-.24-1.62-.84-2.03-1.66-3.49-6.93-7.56-10.59-11.75-10.59s-8.26,3.66-11.75,10.59c-.41.82-1.15,1.42-2.03,1.66-.88.24-1.83.08-2.59-.42-6.49-4.26-11.84-5.4-15.48-3.3-3.63,2.1-5.32,7.3-4.88,15.05.05.91-.29,1.81-.93,2.45-.64.64-1.54.98-2.45.93-7.75-.44-12.96,1.25-15.05,4.88-2.1,3.63-.96,8.98,3.3,15.48.5.77.66,1.71.42,2.59s-.84,1.62-1.66,2.03c-6.93,3.49-10.6,7.56-10.6,11.75s3.66,8.26,10.6,11.75c.82.41,1.42,1.15,1.66,2.03s.08,1.82-.42,2.59c-4.26,6.49-5.4,11.84-3.3,15.48,2.1,3.63,7.3,5.32,15.05,4.88.06,0,.12,0,.18,0,.85,0,1.67.34,2.27.94.65.64.99,1.54.93,2.45-.44,7.75,1.25,12.95,4.88,15.05s8.98.96,15.48-3.3c.53-.35,1.14-.53,1.76-.53Z"/>
      <path class="cls-2" d="m82.69,143.81c-4.06,0-7.98-3.53-11.35-10.21-.38-.76-1.07-1.32-1.88-1.53-.81-.22-1.69-.08-2.4.39-6.25,4.1-11.41,5.19-14.93,3.16-3.52-2.03-5.15-7.05-4.73-14.51.05-.85-.27-1.67-.86-2.27-.6-.6-1.43-.91-2.27-.86-7.47.42-12.48-1.21-14.51-4.73-2.03-3.52-.94-8.68,3.16-14.93.46-.71.61-1.58.39-2.4-.22-.81-.78-1.5-1.53-1.88-6.68-3.36-10.21-7.29-10.21-11.35s3.53-7.98,10.21-11.35c.76-.38,1.32-1.07,1.53-1.88.22-.81.08-1.69-.39-2.4-4.1-6.25-5.19-11.42-3.16-14.93,2.03-3.52,7.05-5.15,14.51-4.73.06,0,.11,0,.17,0,.79,0,1.54-.31,2.1-.87.6-.6.91-1.42.86-2.27-.42-7.46,1.21-12.48,4.73-14.51,3.52-2.03,8.68-.94,14.93,3.16.71.46,1.58.61,2.4.39s1.5-.78,1.88-1.53c3.37-6.68,7.29-10.21,11.35-10.21s7.98,3.53,11.35,10.21c.38.76,1.07,1.32,1.88,1.53.82.22,1.69.08,2.4-.39,6.25-4.1,11.41-5.2,14.93-3.16,3.52,2.03,5.15,7.05,4.72,14.51-.05.85.27,1.67.86,2.27.56.56,1.32.87,2.1.87.06,0,.11,0,.17,0,7.46-.42,12.48,1.21,14.51,4.73,2.03,3.52.94,8.68-3.16,14.93-.46.71-.61,1.58-.39,2.4.22.81.78,1.5,1.53,1.88,6.68,3.37,10.21,7.29,10.21,11.35s-3.53,7.98-10.21,11.35c-.76.38-1.32,1.07-1.53,1.88-.22.81-.08,1.69.39,2.4,4.1,6.25,5.19,11.41,3.16,14.93-2.03,3.52-7.05,5.15-14.51,4.73-.06,0-.11,0-.17,0-.79,0-1.54.31-2.1.87-.6.6-.91,1.42-.86,2.27.42,7.46-1.21,12.48-4.72,14.51-3.52,2.03-8.68.94-14.93-3.16-.71-.46-1.58-.61-2.4-.39-.81.22-1.5.78-1.88,1.53-3.37,6.68-7.29,10.21-11.35,10.21Zm-14-11.94c.26,0,.53.03.79.1.84.23,1.55.8,1.94,1.58,3.35,6.64,7.24,10.15,11.26,10.15s7.92-3.51,11.26-10.15c.39-.78,1.1-1.36,1.94-1.58.84-.23,1.75-.08,2.48.4,6.22,4.08,11.35,5.17,14.83,3.16,3.48-2.01,5.1-7,4.68-14.42-.05-.87.28-1.73.89-2.34.58-.57,1.36-.9,2.17-.9.06,0,.12,0,.17,0,7.43.42,12.41-1.2,14.42-4.68,2.01-3.48.92-8.61-3.16-14.83-.48-.73-.62-1.63-.4-2.48.23-.84.8-1.55,1.58-1.94,6.64-3.35,10.15-7.24,10.15-11.26s-3.51-7.92-10.15-11.26c-.78-.39-1.36-1.1-1.58-1.94s-.08-1.74.4-2.48c4.08-6.22,5.17-11.35,3.16-14.83-2.01-3.48-7-5.1-14.42-4.68-.06,0-.12,0-.17,0-.81,0-1.59-.32-2.17-.9-.62-.62-.94-1.47-.89-2.34.42-7.43-1.19-12.41-4.68-14.42-3.48-2.01-8.61-.92-14.83,3.16-.73.48-1.63.63-2.48.4-.84-.23-1.55-.8-1.94-1.58-3.35-6.64-7.24-10.15-11.26-10.15s-7.92,3.51-11.26,10.15c-.39.78-1.1,1.36-1.94,1.58-.84.22-1.74.08-2.47-.4-6.22-4.08-11.35-5.17-14.83-3.16-3.48,2.01-5.1,7-4.68,14.42.05.87-.28,1.73-.89,2.34-.62.62-1.46.94-2.34.89-.77-.04-1.52-.07-2.23-.07-6.2,0-10.39,1.62-12.19,4.74-2.01,3.48-.92,8.61,3.16,14.83.48.73.63,1.63.4,2.47-.23.84-.8,1.55-1.58,1.94-6.64,3.35-10.15,7.24-10.15,11.26s3.51,7.92,10.15,11.26c.78.39,1.36,1.1,1.58,1.94s.08,1.74-.4,2.48c-4.08,6.22-5.17,11.35-3.16,14.83,2.01,3.48,7,5.09,14.42,4.68.88-.05,1.73.27,2.34.89.62.62.94,1.47.89,2.34-.42,7.43,1.2,12.41,4.68,14.42,3.48,2.01,8.61.92,14.83-3.16.51-.33,1.09-.5,1.69-.5Z"/>
      <path class="cls-2" d="m82.69,141.12c-3.88,0-7.63-3.37-10.84-9.75-.37-.73-1.02-1.26-1.8-1.47-.78-.21-1.62-.07-2.3.37-5.97,3.92-10.91,4.96-14.27,3.02-3.36-1.94-4.92-6.73-4.51-13.87.05-.81-.26-1.6-.83-2.18-.57-.57-1.37-.87-2.18-.83-.74.04-1.45.06-2.14.06-5.96,0-9.99-1.57-11.73-4.58-1.94-3.36-.89-8.29,3.02-14.27.45-.68.58-1.52.37-2.3-.21-.78-.75-1.44-1.47-1.8-6.38-3.21-9.75-6.96-9.75-10.84s3.37-7.63,9.75-10.84c.73-.37,1.26-1.02,1.47-1.8.21-.78.07-1.62-.37-2.3-3.92-5.98-4.96-10.91-3.02-14.27,1.94-3.36,6.74-4.92,13.87-4.51.05,0,.11,0,.16,0,.75,0,1.48-.3,2.01-.83.57-.57.87-1.37.83-2.18-.41-7.13,1.15-11.93,4.51-13.87,3.36-1.94,8.29-.89,14.27,3.02.68.45,1.51.58,2.3.37.78-.21,1.44-.75,1.8-1.47,3.21-6.38,6.96-9.75,10.84-9.75s7.63,3.37,10.84,9.75c.37.73,1.02,1.26,1.8,1.47.78.21,1.62.07,2.3-.37,5.98-3.92,10.91-4.96,14.27-3.02,3.36,1.94,4.92,6.73,4.51,13.87-.05.81.26,1.6.83,2.18.57.57,1.37.88,2.18.83.74-.04,1.45-.06,2.14-.06,5.96,0,9.99,1.57,11.73,4.58,1.94,3.36.89,8.29-3.02,14.27-.45.68-.58,1.52-.37,2.3.21.78.75,1.44,1.47,1.81,6.38,3.22,9.75,6.96,9.75,10.84s-3.37,7.63-9.75,10.84c-.73.37-1.26,1.02-1.47,1.81-.21.78-.07,1.62.37,2.3,3.92,5.97,4.96,10.91,3.02,14.27-1.94,3.36-6.74,4.92-13.87,4.51-.8-.05-1.6.25-2.18.83s-.87,1.37-.83,2.18c.41,7.13-1.16,11.93-4.51,13.87-3.36,1.94-8.29.89-14.27-3.02-.68-.45-1.51-.58-2.3-.37-.78.21-1.44.75-1.8,1.47-3.21,6.38-6.96,9.75-10.84,9.75Zm-13.38-11.4c.25,0,.5.03.75.1.8.22,1.48.77,1.85,1.51,3.2,6.35,6.93,9.71,10.77,9.71s7.57-3.36,10.77-9.71c.38-.75,1.05-1.3,1.85-1.51.81-.21,1.66-.08,2.36.38,5.95,3.9,10.85,4.95,14.19,3.02,3.33-1.92,4.88-6.69,4.48-13.8-.05-.83.26-1.65.85-2.23.55-.55,1.29-.85,2.07-.85.06,0,.11,0,.17,0,7.1.41,11.87-1.14,13.8-4.48,1.92-3.33.88-8.24-3.02-14.19-.46-.7-.6-1.56-.38-2.36s.77-1.48,1.51-1.85c6.35-3.2,9.71-6.93,9.71-10.77s-3.36-7.57-9.71-10.77c-.75-.38-1.29-1.05-1.51-1.85-.21-.8-.08-1.66.38-2.36,3.9-5.95,4.95-10.85,3.02-14.19-1.92-3.33-6.7-4.88-13.8-4.48-.06,0-.11,0-.17,0-.77,0-1.52-.31-2.07-.85-.59-.59-.9-1.4-.85-2.23.4-7.1-1.14-11.87-4.48-13.8-3.33-1.92-8.24-.88-14.19,3.02-.7.46-1.56.6-2.36.38-.8-.21-1.48-.77-1.85-1.51-3.2-6.35-6.93-9.71-10.77-9.71s-7.57,3.36-10.77,9.71c-.38.75-1.05,1.3-1.85,1.51-.8.22-1.66.08-2.36-.38-5.95-3.9-10.85-4.95-14.19-3.02-3.33,1.92-4.88,6.69-4.48,13.8.05.83-.26,1.65-.85,2.23-.55.55-1.29.85-2.07.85-.05,0-.11,0-.17,0-7.11-.4-11.87,1.14-13.8,4.48s-.88,8.24,3.02,14.19c.46.7.6,1.56.38,2.36s-.77,1.48-1.51,1.85c-6.35,3.2-9.71,6.93-9.71,10.77s3.36,7.57,9.71,10.77c.75.38,1.3,1.05,1.51,1.85s.08,1.66-.38,2.36c-3.9,5.95-4.95,10.85-3.02,14.19,1.92,3.33,6.7,4.88,13.8,4.48.06,0,.11,0,.17,0,.77,0,1.52.31,2.07.85.59.59.9,1.4.85,2.23-.4,7.1,1.14,11.87,4.48,13.8,3.33,1.92,8.24.88,14.19-3.02.48-.32,1.04-.48,1.61-.48Z"/>
      <path class="cls-2" d="m82.69,138.42c-3.7,0-7.27-3.22-10.34-9.3-.35-.69-.98-1.21-1.73-1.41-.75-.2-1.55-.07-2.2.35-5.7,3.74-10.4,4.73-13.6,2.88-3.2-1.85-4.69-6.42-4.3-13.22.04-.78-.24-1.53-.79-2.08-.51-.51-1.21-.8-1.93-.8-.05,0-.1,0-.15,0-6.8.38-11.37-1.1-13.22-4.3-1.85-3.2-.85-7.91,2.88-13.6.43-.65.56-1.45.36-2.2-.2-.75-.71-1.38-1.41-1.73-6.08-3.07-9.3-6.64-9.3-10.34s3.22-7.27,9.3-10.34c.69-.35,1.21-.98,1.41-1.73.2-.75.07-1.55-.36-2.2-3.73-5.7-4.73-10.4-2.88-13.6,1.85-3.2,6.42-4.69,13.22-4.3.05,0,.1,0,.15,0,.72,0,1.42-.29,1.93-.8.55-.55.83-1.31.79-2.08-.39-6.8,1.1-11.37,4.3-13.22,3.2-1.85,7.9-.85,13.6,2.89.65.43,1.45.56,2.2.35.75-.2,1.38-.71,1.73-1.41,3.07-6.08,6.64-9.3,10.34-9.3s7.27,3.22,10.34,9.3c.35.69.98,1.21,1.73,1.41.75.2,1.55.07,2.2-.35,5.7-3.74,10.4-4.73,13.6-2.89,3.2,1.85,4.69,6.42,4.3,13.22-.04.78.24,1.53.79,2.08.51.51,1.21.8,1.93.8.05,0,.1,0,.15,0,6.8-.39,11.37,1.1,13.22,4.3,1.85,3.2.85,7.9-2.88,13.6-.43.65-.56,1.45-.36,2.2s.71,1.38,1.41,1.73c6.08,3.07,9.3,6.64,9.3,10.34s-3.22,7.27-9.3,10.34c-.69.35-1.21.98-1.41,1.73s-.07,1.55.36,2.2c3.74,5.7,4.73,10.4,2.88,13.6-1.66,2.87-5.5,4.36-11.18,4.36-.66,0-1.34-.02-2.04-.06-.05,0-.1,0-.15,0-.72,0-1.42.29-1.93.8-.55.55-.84,1.31-.79,2.08.39,6.8-1.1,11.37-4.3,13.22-3.2,1.85-7.9.85-13.6-2.88-.65-.43-1.45-.55-2.2-.36-.75.2-1.38.71-1.73,1.41-3.07,6.08-6.64,9.3-10.34,9.3Zm-12.76-10.86c.24,0,.48.03.72.09.76.2,1.41.73,1.76,1.44,3.06,6.06,6.61,9.27,10.29,9.27s7.23-3.2,10.29-9.27c.36-.71,1-1.23,1.76-1.44.76-.2,1.58-.07,2.25.36,5.68,3.72,10.36,4.72,13.54,2.88,3.18-1.84,4.66-6.39,4.27-13.17-.05-.79.25-1.57.81-2.13s1.33-.86,2.13-.81c.7.04,1.38.06,2.04.06,5.66,0,9.48-1.48,11.13-4.33,1.84-3.18.84-7.86-2.88-13.54-.43-.66-.57-1.48-.36-2.25.2-.76.73-1.41,1.44-1.76,6.06-3.06,9.27-6.61,9.27-10.29s-3.2-7.23-9.27-10.29c-.71-.36-1.23-1-1.44-1.76-.21-.76-.07-1.58.36-2.25,3.72-5.68,4.72-10.36,2.88-13.54-1.64-2.85-5.47-4.33-11.13-4.33-.66,0-1.34.02-2.04.06-.05,0-.11,0-.16,0-.74,0-1.45-.29-1.97-.81-.56-.56-.85-1.33-.81-2.13.38-6.78-1.09-11.33-4.27-13.17-3.18-1.84-7.87-.84-13.54,2.88-.66.44-1.48.57-2.25.36-.76-.2-1.41-.73-1.76-1.44-3.06-6.06-6.61-9.27-10.29-9.27s-7.23,3.2-10.29,9.27c-.36.71-1,1.23-1.76,1.44-.76.21-1.58.07-2.25-.36-5.68-3.72-10.36-4.72-13.54-2.88-3.18,1.84-4.66,6.39-4.27,13.17.05.79-.25,1.57-.81,2.12-.52.52-1.23.81-1.97.81-.05,0-.11,0-.16,0-.7-.04-1.38-.06-2.04-.06-5.66,0-9.48,1.48-11.13,4.33-1.84,3.18-.84,7.86,2.88,13.54.44.66.57,1.48.36,2.24-.2.76-.73,1.41-1.44,1.76-6.06,3.06-9.27,6.61-9.27,10.29s3.2,7.23,9.27,10.29c.71.36,1.23,1,1.44,1.76.2.76.07,1.58-.36,2.24-3.72,5.68-4.72,10.36-2.88,13.54,1.84,3.18,6.39,4.66,13.17,4.27.05,0,.11,0,.16,0,.74,0,1.45.29,1.97.81.56.56.85,1.33.81,2.12-.39,6.78,1.09,11.33,4.27,13.17s7.86.84,13.54-2.88c.46-.3.99-.46,1.53-.46Z"/>
      <path class="cls-2" d="m82.69,135.72c-3.51,0-6.91-3.06-9.83-8.85-.33-.66-.93-1.15-1.65-1.34-.71-.19-1.48-.07-2.1.34-5.42,3.55-9.89,4.5-12.94,2.75-3.04-1.76-4.46-6.11-4.09-12.58.04-.74-.23-1.47-.76-1.99-.49-.49-1.15-.76-1.84-.76-.05,0-.1,0-.15,0-.67.04-1.32.06-1.94.06-5.4,0-9.06-1.42-10.63-4.15-1.76-3.04-.81-7.52,2.75-12.94.41-.62.53-1.39.34-2.1-.19-.71-.68-1.31-1.34-1.65-5.79-2.92-8.85-6.32-8.85-9.83s3.06-6.91,8.85-9.83c.66-.33,1.15-.93,1.34-1.65.19-.71.07-1.48-.34-2.1-3.55-5.42-4.5-9.89-2.75-12.94,1.76-3.04,6.11-4.46,12.58-4.09.05,0,.1,0,.15,0,.69,0,1.35-.27,1.84-.76.52-.52.8-1.25.76-1.99-.37-6.47,1.05-10.82,4.09-12.58,3.04-1.76,7.52-.81,12.94,2.75.62.41,1.39.53,2.1.34.71-.19,1.31-.68,1.65-1.34,2.92-5.79,6.32-8.85,9.83-8.85s6.92,3.06,9.83,8.85c.33.66.93,1.15,1.65,1.34.71.19,1.48.07,2.1-.34,5.42-3.55,9.9-4.5,12.94-2.75,3.04,1.76,4.46,6.11,4.09,12.58-.04.74.23,1.47.76,1.99.49.49,1.15.76,1.84.76.05,0,.1,0,.15,0,.67-.04,1.32-.06,1.94-.06,5.4,0,9.06,1.42,10.63,4.15,1.76,3.04.81,7.52-2.75,12.94-.41.62-.53,1.39-.34,2.1.19.71.68,1.31,1.34,1.65,5.79,2.92,8.85,6.32,8.85,9.83s-3.06,6.91-8.85,9.83c-.66.33-1.15.94-1.34,1.65-.19.71-.07,1.48.34,2.1,3.55,5.42,4.5,9.89,2.75,12.94-1.58,2.73-5.23,4.15-10.63,4.15-.62,0-1.27-.02-1.94-.06-.05,0-.1,0-.15,0-.69,0-1.35.27-1.84.76-.52.52-.8,1.25-.76,1.99.37,6.47-1.05,10.82-4.09,12.58-3.04,1.76-7.52.81-12.94-2.75-.62-.41-1.39-.53-2.1-.34-.71.19-1.31.68-1.65,1.34-2.92,5.79-6.32,8.85-9.83,8.85Zm-12.15-10.32c.23,0,.46.03.68.09.72.19,1.33.69,1.67,1.36,2.91,5.77,6.3,8.83,9.8,8.83s6.89-3.05,9.8-8.83c.34-.67.95-1.17,1.67-1.36.72-.2,1.5-.07,2.13.34,5.41,3.55,9.87,4.49,12.9,2.74,3.03-1.75,4.44-6.09,4.07-12.54-.04-.75.24-1.49.77-2.02.5-.5,1.17-.77,1.87-.77.05,0,.1,0,.15,0,.67.04,1.32.06,1.94.06,5.38,0,9.03-1.41,10.6-4.13,1.75-3.03.8-7.49-2.74-12.9-.41-.63-.54-1.41-.34-2.13.19-.72.69-1.33,1.36-1.67,5.77-2.91,8.83-6.3,8.83-9.8s-3.05-6.89-8.83-9.8c-.67-.34-1.17-.95-1.36-1.67-.19-.72-.07-1.5.34-2.13,3.54-5.41,4.49-9.87,2.74-12.9-1.75-3.03-6.09-4.44-12.54-4.07-.05,0-.1,0-.15,0-.7,0-1.37-.28-1.87-.77-.53-.53-.81-1.27-.77-2.02.37-6.46-1.04-10.79-4.07-12.54-3.03-1.75-7.49-.8-12.9,2.74-.63.41-1.41.54-2.13.34-.72-.19-1.33-.69-1.67-1.36-2.91-5.77-6.3-8.83-9.8-8.83s-6.89,3.05-9.8,8.83c-.34.67-.95,1.17-1.67,1.36-.72.19-1.5.07-2.13-.34-5.41-3.55-9.87-4.5-12.9-2.74-3.03,1.75-4.44,6.09-4.07,12.54.04.75-.24,1.49-.77,2.02-.5.49-1.17.77-1.87.77-.05,0-.1,0-.15,0-.67-.04-1.32-.06-1.94-.06-5.39,0-9.03,1.41-10.6,4.13-1.75,3.03-.8,7.49,2.74,12.9.41.63.54,1.41.34,2.13-.19.72-.69,1.33-1.36,1.67-5.77,2.91-8.83,6.3-8.83,9.8s3.05,6.89,8.83,9.8c.67.34,1.17.95,1.36,1.67.19.72.07,1.5-.34,2.13-3.54,5.41-4.49,9.87-2.74,12.9,1.57,2.72,5.21,4.13,10.6,4.13.62,0,1.27-.02,1.94-.06.05,0,.1,0,.15,0,.7,0,1.37.28,1.87.77.53.53.81,1.27.77,2.02-.37,6.46,1.04,10.79,4.07,12.54,3.03,1.75,7.49.8,12.9-2.74.44-.29.94-.43,1.45-.43Z"/>
      <path class="cls-2" d="m82.69,133.03c-3.33,0-6.56-2.9-9.33-8.39-.32-.63-.89-1.1-1.57-1.28-.68-.18-1.41-.06-2,.32-5.14,3.37-9.38,4.27-12.27,2.61-2.89-1.67-4.23-5.79-3.88-11.93.04-.71-.22-1.4-.72-1.89-.46-.46-1.1-.72-1.75-.72-.05,0-.09,0-.14,0-6.14.35-10.27-.99-11.93-3.88-1.67-2.89-.76-7.13,2.61-12.27.39-.59.5-1.32.32-2-.18-.68-.65-1.25-1.28-1.57-5.49-2.77-8.39-5.99-8.39-9.33s2.9-6.56,8.39-9.33c.63-.32,1.1-.89,1.28-1.57.18-.68.06-1.41-.32-2-3.37-5.14-4.27-9.39-2.61-12.27,1.67-2.89,5.79-4.23,11.93-3.88.05,0,.09,0,.14,0,.66,0,1.29-.26,1.75-.72.5-.5.76-1.19.72-1.89-.35-6.14.99-10.26,3.88-11.93,2.89-1.67,7.13-.77,12.27,2.61.59.39,1.32.51,2,.32.68-.18,1.25-.65,1.57-1.28,2.77-5.49,5.99-8.39,9.33-8.39s6.56,2.9,9.33,8.39c.32.63.89,1.1,1.57,1.28.68.18,1.41.06,2-.32,5.14-3.37,9.39-4.27,12.27-2.61,2.89,1.67,4.23,5.79,3.88,11.93-.04.71.22,1.4.72,1.89.46.46,1.1.72,1.75.72.05,0,.09,0,.14,0,6.14-.35,10.26.99,11.93,3.88,1.67,2.89.76,7.13-2.61,12.27-.39.59-.5,1.32-.32,2,.18.68.65,1.25,1.28,1.57,5.49,2.77,8.39,5.99,8.39,9.33s-2.9,6.56-8.39,9.33c-.63.32-1.1.89-1.28,1.57-.18.68-.06,1.41.32,2,3.37,5.14,4.27,9.39,2.61,12.27-1.67,2.89-5.79,4.23-11.93,3.88-.71-.04-1.4.22-1.89.72-.5.5-.76,1.19-.72,1.89.35,6.14-.99,10.26-3.88,11.93-2.89,1.67-7.13.77-12.27-2.61-.59-.39-1.32-.51-2-.32-.68.18-1.25.65-1.57,1.28-2.77,5.49-5.99,8.39-9.33,8.39Zm-11.53-9.78c.21,0,.43.03.64.08.69.18,1.26.65,1.58,1.29,2.76,5.48,5.98,8.38,9.31,8.38s6.54-2.9,9.31-8.38c.32-.64.9-1.11,1.58-1.29.69-.18,1.42-.06,2.02.33,5.14,3.37,9.37,4.27,12.25,2.6,2.88-1.66,4.22-5.78,3.87-11.91-.04-.71.22-1.41.73-1.91.47-.47,1.11-.73,1.77-.73.05,0,.09,0,.14,0,.64.04,1.25.05,1.84.05,5.12,0,8.58-1.34,10.07-3.92,1.66-2.88.76-7.12-2.6-12.25-.39-.6-.51-1.33-.33-2.02s.65-1.26,1.29-1.58c5.48-2.76,8.38-5.98,8.38-9.31s-2.9-6.54-8.38-9.31c-.64-.32-1.11-.9-1.29-1.58-.18-.69-.06-1.42.33-2.02,3.37-5.14,4.27-9.37,2.6-12.25-1.66-2.88-5.78-4.22-11.91-3.87-.05,0-.1,0-.14,0-.66,0-1.3-.26-1.77-.73-.5-.5-.77-1.2-.73-1.91.35-6.13-.99-10.25-3.87-11.91-2.88-1.66-7.12-.76-12.25,2.61-.59.39-1.33.51-2.01.33-.69-.18-1.26-.65-1.58-1.29-2.76-5.48-5.98-8.38-9.31-8.38s-6.54,2.9-9.31,8.38c-.32.64-.9,1.11-1.58,1.29-.69.18-1.42.06-2.01-.33-5.14-3.37-9.37-4.27-12.25-2.61-2.88,1.66-4.22,5.78-3.87,11.91.04.71-.22,1.41-.73,1.91-.47.47-1.1.73-1.77.73-.05,0-.09,0-.14,0-.64-.04-1.25-.05-1.84-.05-5.12,0-8.58,1.34-10.07,3.92-1.66,2.88-.76,7.12,2.61,12.25.39.6.51,1.33.33,2.02-.18.69-.65,1.26-1.29,1.58-5.48,2.76-8.38,5.98-8.38,9.31s2.9,6.54,8.38,9.31c.64.32,1.11.9,1.29,1.58s.06,1.42-.33,2.02c-3.37,5.13-4.27,9.37-2.61,12.25,1.49,2.58,4.95,3.92,10.07,3.92.59,0,1.21-.02,1.84-.05.05,0,.1,0,.14,0,.66,0,1.3.26,1.77.73.5.5.77,1.2.73,1.91-.35,6.13.99,10.25,3.87,11.91,2.88,1.66,7.12.76,12.25-2.6.41-.27.89-.41,1.37-.41Z"/>
      <path class="cls-1" d="m130.33,82.69c0-3.26-2.93-6.29-7.94-8.82-1.26-.63-1.68-2.21-.91-3.39,3.08-4.69,4.1-8.78,2.47-11.61-1.63-2.82-5.68-3.99-11.29-3.67-1.41.08-2.56-1.08-2.48-2.48.32-5.61-.84-9.66-3.67-11.29s-6.91-.61-11.61,2.47c-1.18.77-2.76.35-3.39-.91-2.53-5.01-5.56-7.94-8.82-7.94s-6.29,2.93-8.82,7.94c-.63,1.26-2.21,1.68-3.39.91-4.69-3.08-8.78-4.1-11.61-2.47-2.82,1.63-3.99,5.68-3.67,11.29.08,1.41-1.08,2.56-2.48,2.48-5.61-.32-9.66.84-11.29,3.67-1.63,2.82-.61,6.91,2.47,11.61.77,1.18.35,2.76-.91,3.39-5.01,2.53-7.94,5.56-7.94,8.82s2.93,6.29,7.94,8.82c1.26.63,1.68,2.21.91,3.39-3.08,4.69-4.1,8.78-2.47,11.61,1.63,2.82,5.68,3.99,11.29,3.67,1.41-.08,2.56,1.08,2.48,2.48-.32,5.61.84,9.66,3.67,11.29,2.82,1.63,6.91.61,11.61-2.47,1.18-.77,2.76-.35,3.39.91,2.53,5.01,5.56,7.94,8.82,7.94s6.29-2.93,8.82-7.94c.63-1.26,2.21-1.68,3.39-.91,4.69,3.08,8.78,4.1,11.61,2.47s3.99-5.68,3.67-11.29c-.08-1.41,1.08-2.56,2.48-2.48,5.61.32,9.66-.84,11.29-3.67,1.63-2.82.61-6.91-2.47-11.61-.77-1.18-.35-2.76.91-3.39,5.01-2.53,7.94-5.56,7.94-8.82Z"/>
    </g>
  </g>
</svg>