<svg xmlns="http://www.w3.org/2000/svg" width="297" height="50" viewBox="0 0 297 50">
  <g id="x_hashpost" transform="translate(0 -0.057)">
    <rect id="長方形_396" data-name="長方形 396" width="297" height="50" rx="25" transform="translate(0 0.057)"/>
    <path id="パス_49587" data-name="パス 49587" d="M-92.984,0l.337-2.826h-1.115V-4.063H-92.5l.224-1.782h-1.186V-7.082h1.343l.313-2.507h1.116L-91-7.082h1.642l.316-2.507h1.126l-.3,2.507h1.17v1.237h-1.321L-88.6-4.063h1.255v1.237h-1.4L-89.077,0h-1.136l.334-2.826h-1.632L-91.858,0Zm1.606-4.063h1.645l.221-1.782h-1.645ZM-85.316,0V-10.373h1.908v2.616L-83.5-6.392a5.2,5.2,0,0,1,.99-.74,2.538,2.538,0,0,1,1.3-.323,1.941,1.941,0,0,1,1.712.77,3.709,3.709,0,0,1,.537,2.147V0h-1.908V-4.3a2.085,2.085,0,0,0-.247-1.183A.91.91,0,0,0-81.9-5.82a1.425,1.425,0,0,0-.773.206,4.463,4.463,0,0,0-.735.608V0ZM-73.7.179a3.427,3.427,0,0,1-1.712-.453A3.426,3.426,0,0,1-76.7-1.582,4.059,4.059,0,0,1-77.2-3.639,4.052,4.052,0,0,1-76.7-5.7,3.433,3.433,0,0,1-75.409-7,3.427,3.427,0,0,1-73.7-7.456a3.445,3.445,0,0,1,1.31.256,3.328,3.328,0,0,1,1.117.748,3.591,3.591,0,0,1,.775,1.2,4.273,4.273,0,0,1,.286,1.615A4.05,4.05,0,0,1-70.7-1.582,3.451,3.451,0,0,1-71.991-.274,3.392,3.392,0,0,1-73.7.179Zm0-1.555a1.291,1.291,0,0,0,.84-.28,1.7,1.7,0,0,0,.521-.791,3.668,3.668,0,0,0,.176-1.193,3.644,3.644,0,0,0-.176-1.192,1.709,1.709,0,0,0-.521-.788A1.287,1.287,0,0,0-73.7-5.9a1.287,1.287,0,0,0-.84.281,1.733,1.733,0,0,0-.525.788,3.576,3.576,0,0,0-.179,1.192,3.6,3.6,0,0,0,.179,1.193,1.723,1.723,0,0,0,.525.791A1.291,1.291,0,0,0-73.7-1.375Zm7.15,1.555A1.825,1.825,0,0,1-67.609-.1a1.505,1.505,0,0,1-.565-.777,3.645,3.645,0,0,1-.171-1.172v-8.328h1.908v8.406a.668.668,0,0,0,.124.46.354.354,0,0,0,.254.131.9.9,0,0,0,.111-.007l.146-.02.233,1.417a2.532,2.532,0,0,1-.4.114A2.869,2.869,0,0,1-66.547.179Zm5.6,0a3.427,3.427,0,0,1-1.712-.453,3.426,3.426,0,0,1-1.294-1.308,4.06,4.06,0,0,1-.492-2.057A4.052,4.052,0,0,1-63.955-5.7,3.433,3.433,0,0,1-62.661-7a3.427,3.427,0,0,1,1.712-.453,3.445,3.445,0,0,1,1.31.256,3.328,3.328,0,0,1,1.117.748,3.591,3.591,0,0,1,.775,1.2,4.273,4.273,0,0,1,.286,1.615,4.05,4.05,0,0,1-.493,2.057A3.451,3.451,0,0,1-59.243-.274,3.392,3.392,0,0,1-60.949.179Zm0-1.555a1.291,1.291,0,0,0,.84-.28,1.7,1.7,0,0,0,.521-.791,3.668,3.668,0,0,0,.176-1.193,3.644,3.644,0,0,0-.176-1.192,1.709,1.709,0,0,0-.521-.788,1.287,1.287,0,0,0-.84-.281,1.287,1.287,0,0,0-.84.281,1.733,1.733,0,0,0-.525.788,3.576,3.576,0,0,0-.179,1.192,3.6,3.6,0,0,0,.179,1.193,1.723,1.723,0,0,0,.525.791A1.291,1.291,0,0,0-60.949-1.375ZM-53.8.179A1.825,1.825,0,0,1-54.86-.1a1.505,1.505,0,0,1-.565-.777A3.644,3.644,0,0,1-55.6-2.045v-8.328h1.908v8.406a.668.668,0,0,0,.124.46.354.354,0,0,0,.254.131.9.9,0,0,0,.111-.007l.146-.02.233,1.417a2.532,2.532,0,0,1-.4.114A2.869,2.869,0,0,1-53.8.179ZM-51.243,0V-7.277h1.908V0Zm.957-8.458a1.125,1.125,0,0,1-.8-.285,1,1,0,0,1-.3-.765.977.977,0,0,1,.3-.748,1.128,1.128,0,0,1,.8-.284,1.134,1.134,0,0,1,.8.284.967.967,0,0,1,.309.748.991.991,0,0,1-.309.765A1.13,1.13,0,0,1-50.286-8.458ZM-45.39,0l-2.488-7.277h1.929l1.054,3.629q.152.535.3,1.091t.3,1.113h.062q.152-.556.3-1.113t.285-1.091l1.067-3.629h1.84L-43.178,0Zm9.1.179A3.74,3.74,0,0,1-38.13-.275a3.336,3.336,0,0,1-1.3-1.31,4.112,4.112,0,0,1-.483-2.054,4.252,4.252,0,0,1,.281-1.589,3.665,3.665,0,0,1,.764-1.2,3.362,3.362,0,0,1,1.091-.762,3.126,3.126,0,0,1,1.251-.262,2.989,2.989,0,0,1,1.681.445,2.763,2.763,0,0,1,1.019,1.23,4.441,4.441,0,0,1,.344,1.8,4.739,4.739,0,0,1-.025.5,2.851,2.851,0,0,1-.062.38h-4.491a2.259,2.259,0,0,0,.357.992,1.793,1.793,0,0,0,.7.606,2.188,2.188,0,0,0,.968.207,2.685,2.685,0,0,0,.837-.128,3.743,3.743,0,0,0,.794-.374l.644,1.174a4.691,4.691,0,0,1-1.191.584A4.218,4.218,0,0,1-36.288.179ZM-38.1-4.38h2.977a1.86,1.86,0,0,0-.337-1.167A1.238,1.238,0,0,0-36.5-5.983a1.489,1.489,0,0,0-.713.179,1.575,1.575,0,0,0-.57.533A2.157,2.157,0,0,0-38.1-4.38ZM-31.465,0V-7.866a3.5,3.5,0,0,1,.254-1.365,2.071,2.071,0,0,1,.81-.964,2.677,2.677,0,0,1,1.465-.356,3.867,3.867,0,0,1,.788.074,4.031,4.031,0,0,1,.6.168L-27.9-8.883a1.831,1.831,0,0,0-.771-.167.811.811,0,0,0-.654.272,1.345,1.345,0,0,0-.231.877V0Zm-.979-5.773V-7.192l1.091-.085h3.175v1.5Zm8.7,5.952a3.74,3.74,0,0,1-1.842-.454,3.336,3.336,0,0,1-1.3-1.31,4.112,4.112,0,0,1-.483-2.054,4.252,4.252,0,0,1,.281-1.589,3.665,3.665,0,0,1,.764-1.2,3.362,3.362,0,0,1,1.091-.762,3.126,3.126,0,0,1,1.251-.262,2.989,2.989,0,0,1,1.681.445,2.763,2.763,0,0,1,1.019,1.23,4.441,4.441,0,0,1,.344,1.8,4.738,4.738,0,0,1-.025.5,2.851,2.851,0,0,1-.062.38h-4.491a2.259,2.259,0,0,0,.357.992,1.793,1.793,0,0,0,.7.606,2.188,2.188,0,0,0,.968.207,2.685,2.685,0,0,0,.837-.128,3.743,3.743,0,0,0,.794-.374l.644,1.174a4.691,4.691,0,0,1-1.191.584A4.218,4.218,0,0,1-23.74.179ZM-25.547-4.38h2.977a1.86,1.86,0,0,0-.337-1.167,1.238,1.238,0,0,0-1.045-.435,1.489,1.489,0,0,0-.713.179,1.575,1.575,0,0,0-.57.533A2.157,2.157,0,0,0-25.547-4.38ZM-17.025.179A4.132,4.132,0,0,1-18.5-.105a4.6,4.6,0,0,1-1.295-.732l.867-1.209a4.977,4.977,0,0,0,.964.589,2.367,2.367,0,0,0,.985.214,1.233,1.233,0,0,0,.8-.216.694.694,0,0,0,.258-.558.582.582,0,0,0-.219-.46,2.2,2.2,0,0,0-.57-.337q-.351-.149-.733-.292a6.95,6.95,0,0,1-.908-.446,2.38,2.38,0,0,1-.743-.671,1.693,1.693,0,0,1-.295-1.015,2.028,2.028,0,0,1,.333-1.153,2.228,2.228,0,0,1,.941-.782,3.367,3.367,0,0,1,1.431-.283,3.487,3.487,0,0,1,1.412.271,4.818,4.818,0,0,1,1.064.624l-.861,1.152a4.386,4.386,0,0,0-.774-.452,1.91,1.91,0,0,0-.786-.172,1.137,1.137,0,0,0-.736.2.634.634,0,0,0-.236.511.545.545,0,0,0,.2.431,1.815,1.815,0,0,0,.532.3l.718.276q.365.136.723.308a3.031,3.031,0,0,1,.652.424,1.9,1.9,0,0,1,.471.6,1.9,1.9,0,0,1,.176.859A2.147,2.147,0,0,1-14.46-.959a2.259,2.259,0,0,1-.972.832A3.689,3.689,0,0,1-17.025.179ZM-12.254,0V-9.631h5.9v1.605h-3.98V-5.8h3.371v1.615h-3.371v2.569H-6.21V0ZM-5,0l2.7-4.959L-4.842-9.631h2.135l.966,1.994q.175.335.339.7t.38.816H-.97q.18-.451.335-.816t.309-.7L.585-9.631H2.611L.077-4.872,2.785,0H.653L-.427-2.134l-.36-.758-.395-.828h-.052q-.183.439-.354.828t-.346.758L-2.961,0Zm9.4,0V-9.631H7.565a6.042,6.042,0,0,1,1.919.284,2.716,2.716,0,0,1,1.348.944,2.929,2.929,0,0,1,.5,1.8,3.048,3.048,0,0,1-.5,1.8A2.941,2.941,0,0,1,9.495-3.759a4.983,4.983,0,0,1-1.878.34H6.329V0ZM6.329-4.944h1.16a2.232,2.232,0,0,0,1.477-.415A1.542,1.542,0,0,0,9.452-6.6a1.277,1.277,0,0,0-.514-1.168A2.832,2.832,0,0,0,7.426-8.1h-1.1ZM17.164.179a4.144,4.144,0,0,1-2.241-.606,4.069,4.069,0,0,1-1.516-1.736,6.151,6.151,0,0,1-.545-2.693,6,6,0,0,1,.545-2.672,3.944,3.944,0,0,1,1.516-1.689A4.269,4.269,0,0,1,17.164-9.8a4.234,4.234,0,0,1,2.246.588A4,4,0,0,1,20.92-7.523a5.963,5.963,0,0,1,.545,2.667,6.15,6.15,0,0,1-.545,2.693A4.081,4.081,0,0,1,19.41-.427,4.137,4.137,0,0,1,17.164.179Zm0-1.662A1.939,1.939,0,0,0,18.405-1.9a2.667,2.667,0,0,0,.814-1.173,5,5,0,0,0,.289-1.785,4.849,4.849,0,0,0-.289-1.767,2.512,2.512,0,0,0-.814-1.132,2.014,2.014,0,0,0-1.242-.393,2.015,2.015,0,0,0-1.24.393,2.475,2.475,0,0,0-.81,1.132,4.928,4.928,0,0,0-.284,1.767,5.079,5.079,0,0,0,.284,1.785,2.628,2.628,0,0,0,.81,1.173A1.94,1.94,0,0,0,17.164-1.483ZM22.987,0V-1.1q1.253-1.2,2.19-2.169a12.008,12.008,0,0,0,1.452-1.765,2.785,2.785,0,0,0,.516-1.494,1.87,1.87,0,0,0-.164-.821,1.173,1.173,0,0,0-.487-.521,1.574,1.574,0,0,0-.788-.183,1.634,1.634,0,0,0-.959.3,5.2,5.2,0,0,0-.8.695L22.89-8.094a5.261,5.261,0,0,1,1.375-1.087,3.587,3.587,0,0,1,1.693-.373,3.328,3.328,0,0,1,1.588.363,2.628,2.628,0,0,1,1.061,1.019,3.025,3.025,0,0,1,.38,1.543,3.484,3.484,0,0,1-.452,1.654,9.855,9.855,0,0,1-1.189,1.709q-.737.867-1.6,1.767.367-.046.8-.081t.773-.035h2.11V0ZM33.951.179A4.794,4.794,0,0,1,32.59,0a4.1,4.1,0,0,1-1.067-.478,5.355,5.355,0,0,1-.832-.657l.887-1.213a4.518,4.518,0,0,0,.592.485,2.939,2.939,0,0,0,.7.353,2.475,2.475,0,0,0,.82.134,1.937,1.937,0,0,0,.885-.193,1.445,1.445,0,0,0,.6-.559,1.7,1.7,0,0,0,.218-.889,1.578,1.578,0,0,0-.448-1.2,1.633,1.633,0,0,0-1.169-.423,1.941,1.941,0,0,0-.725.12,4.5,4.5,0,0,0-.72.393L31.458-4.7l.267-4.674h5.145V-7.77h-3.5l-.18,2.041a3.036,3.036,0,0,1,.556-.2,2.568,2.568,0,0,1,.6-.066,3.519,3.519,0,0,1,1.486.311,2.445,2.445,0,0,1,1.077.958,3.084,3.084,0,0,1,.4,1.648,3.166,3.166,0,0,1-.473,1.757A3.1,3.1,0,0,1,35.6-.2,3.639,3.639,0,0,1,33.951.179Zm8.563-8.737q.374-.013.674-.033l.49-.032.9-.091q.588-.06,1.36-.134T47.591-9l1.778-.155q.713-.06,1.349-.105T51.9-9.336q.546-.031.974-.044l.005,1.037q-.37-.008-.838.005t-.921.055a3.942,3.942,0,0,0-.785.144,3.743,3.743,0,0,0-1.248.672,4.691,4.691,0,0,0-.942,1.032,4.893,4.893,0,0,0-.592,1.208,3.894,3.894,0,0,0-.2,1.2A3.138,3.138,0,0,0,47.612-2.7a2.8,2.8,0,0,0,.711.955,3.9,3.9,0,0,0,1.024.636,5.807,5.807,0,0,0,1.215.367,8.541,8.541,0,0,0,1.276.144L51.462.481a7.306,7.306,0,0,1-1.452-.2,6.516,6.516,0,0,1-1.4-.508,4.665,4.665,0,0,1-1.18-.836,3.748,3.748,0,0,1-.816-1.182,3.8,3.8,0,0,1-.3-1.55,4.866,4.866,0,0,1,.358-1.88,5.544,5.544,0,0,1,.916-1.512,4.7,4.7,0,0,1,1.155-1q-.417.047-1.031.111T46.4-7.936q-.7.077-1.411.163T43.665-7.6q-.615.09-1.035.178ZM51-6.752q.153.21.35.529t.392.654q.2.336.336.63l-.673.309q-.22-.477-.492-.955a8.853,8.853,0,0,0-.568-.881ZM52.424-7.3q.161.21.367.524t.41.647q.2.333.35.623l-.668.324q-.238-.472-.515-.939A9.495,9.495,0,0,0,51.781-7ZM64.562-9.606a.8.8,0,0,0,.24.587.8.8,0,0,0,.587.24.812.812,0,0,0,.591-.24.792.792,0,0,0,.244-.587.805.805,0,0,0-.244-.591.805.805,0,0,0-.591-.244.792.792,0,0,0-.587.244A.812.812,0,0,0,64.562-9.606Zm-.593,0a1.383,1.383,0,0,1,.192-.72,1.456,1.456,0,0,1,.515-.515,1.369,1.369,0,0,1,.713-.192,1.383,1.383,0,0,1,.72.192,1.456,1.456,0,0,1,.515.515,1.383,1.383,0,0,1,.192.72,1.369,1.369,0,0,1-.192.713,1.455,1.455,0,0,1-.515.515,1.384,1.384,0,0,1-.72.192,1.369,1.369,0,0,1-.713-.192,1.455,1.455,0,0,1-.515-.515A1.369,1.369,0,0,1,63.97-9.606Zm-2.175-.413q-.013.091-.032.258t-.033.347q-.014.181-.014.323V-.476A1.05,1.05,0,0,1,61.455.3,1.173,1.173,0,0,1,60.6.557q-.271,0-.6-.013T59.342.509Q59.019.487,58.75.464L58.658-.57q.432.078.839.114t.665.036a.511.511,0,0,0,.38-.121.54.54,0,0,0,.122-.376q0-.178,0-.625t0-1.042V-9.1a4.606,4.606,0,0,0-.031-.5q-.031-.282-.062-.424ZM55.95-7.83q.275.031.535.052t.566.021h8.1q.228,0,.525-.018t.538-.049v1.079q-.253-.018-.532-.023t-.517-.005H57.059q-.294,0-.57.009t-.538.035Zm2.989,3.061q-.21.418-.517.912t-.664.991q-.358.5-.7.929t-.619.733l-.894-.61a7.6,7.6,0,0,0,.679-.715q.354-.419.695-.889t.628-.933a9.391,9.391,0,0,0,.479-.86Zm5.43-.434q.263.312.57.743t.623.915q.316.484.589.937t.468.8l-.958.53q-.189-.387-.456-.854t-.566-.949q-.3-.481-.6-.913t-.553-.739ZM78.411-8.7q-.059.082-.161.257a2.655,2.655,0,0,0-.158.311q-.257.638-.658,1.413a16.918,16.918,0,0,1-.9,1.53A11.611,11.611,0,0,1,75.5-3.825a19.977,19.977,0,0,1-1.575,1.57,17.756,17.756,0,0,1-1.8,1.416A13.3,13.3,0,0,1,70.138.285l-.829-.87a11.874,11.874,0,0,0,2.022-1.029A15.1,15.1,0,0,0,73.15-2.967a17.426,17.426,0,0,0,1.516-1.478,11.621,11.621,0,0,0,.878-1.14,13.18,13.18,0,0,0,.777-1.29,6.889,6.889,0,0,0,.506-1.19H71.761q-.23,0-.509.016l-.507.03-.3.019V-9.174q.091.01.33.028t.513.035q.274.017.472.017h5.016a4.755,4.755,0,0,0,.571-.031,2.392,2.392,0,0,0,.4-.077ZM75.67-4.507q.534.438,1.1.971t1.11,1.1q.546.563,1.015,1.08t.8.926l-.9.788q-.465-.623-1.1-1.343T76.347-2.436q-.709-.726-1.419-1.339Zm9.983,3.357V-8.707q0-.279-.023-.668a5.918,5.918,0,0,0-.077-.689h1.275q-.031.293-.061.678t-.03.679v2.721q0,.8,0,1.585t0,1.469v1.782q0,.209.008.487t.031.557l.041.5H85.568q.041-.313.063-.746T85.653-1.149Zm.855-5.5q.642.185,1.418.451t1.576.569q.8.3,1.526.609t1.263.575l-.453,1.1q-.554-.3-1.253-.613t-1.435-.605q-.736-.294-1.422-.534T86.507-5.5Z" transform="translate(169 30.057)" fill="#fff"/>
    <path id="x-logo" d="M12.27,14.829h0l-1.023-1.464L3.1,1.718H6.61l6.571,9.4L14.2,12.581,22.745,24.8H19.24ZM22.745,0,14.382,9.72,7.7,0H0L10.1,14.7,0,26.438H2.282l8.831-10.265,7.053,10.265h7.7L15.4,11.2,25.026,0Z" transform="translate(22.464 11.596)" fill="#fff"/>
  </g>
</svg>
