<svg xmlns="http://www.w3.org/2000/svg" viewBox="0 0 445.96 190.13"><defs><style>.a{fill:none;stroke:#1d7df6;stroke-miterlimit:10;stroke-width:0.5px;}.b{fill:#1d7df6;}</style></defs><rect class="a" x="2.33" y="2.24" width="79.94" height="185.64"/><line class="a" x1="82.26" y1="187.88" x2="2.33" y2="2.24"/><line class="a" x1="82.26" y1="2.24" x2="2.33" y2="187.88"/><polygon class="b" points="13.12 0 4.52 0 0 0 0 4.52 0 13.12 4.52 13.12 4.52 4.52 13.12 4.52 13.12 0"/><polygon class="b" points="71.38 190.13 79.97 190.13 84.5 190.13 84.5 185.61 84.5 177.01 79.97 177.01 79.97 185.61 71.38 185.61 71.38 190.13"/><rect class="a" x="122.81" y="2.24" width="79.94" height="185.64"/><line class="a" x1="202.75" y1="187.88" x2="122.81" y2="2.24"/><line class="a" x1="202.75" y1="2.24" x2="122.81" y2="187.88"/><polygon class="b" points="133.6 0 125.01 0 120.49 0 120.49 4.52 120.49 13.12 125.01 13.12 125.01 4.52 133.6 4.52 133.6 0"/><polygon class="b" points="191.87 190.13 200.46 190.13 204.98 190.13 204.98 185.61 204.98 177.01 200.46 177.01 200.46 185.61 191.87 185.61 191.87 190.13"/><rect class="a" x="243.3" y="2.24" width="79.94" height="185.64"/><line class="a" x1="323.24" y1="187.88" x2="243.3" y2="2.24"/><line class="a" x1="323.24" y1="2.24" x2="243.3" y2="187.88"/><polygon class="b" points="254.09 0 245.5 0 240.98 0 240.98 4.52 240.98 13.12 245.5 13.12 245.5 4.52 254.09 4.52 254.09 0"/><polygon class="b" points="312.36 190.13 320.95 190.13 325.47 190.13 325.47 185.61 325.47 177.01 320.95 177.01 320.95 185.61 312.36 185.61 312.36 190.13"/><rect class="a" x="363.79" y="2.24" width="79.94" height="185.64"/><line class="a" x1="443.73" y1="187.88" x2="363.79" y2="2.24"/><line class="a" x1="443.73" y1="2.24" x2="363.79" y2="187.88"/><polygon class="b" points="374.58 0 365.99 0 361.46 0 361.46 4.52 361.46 13.12 365.99 13.12 365.99 4.52 374.58 4.52 374.58 0"/><polygon class="b" points="432.85 190.13 441.44 190.13 445.96 190.13 445.96 185.61 445.96 177.01 441.44 177.01 441.44 185.61 432.85 185.61 432.85 190.13"/></svg>