<svg xmlns="http://www.w3.org/2000/svg" viewBox="0 0 73.3 278.5"><defs><style>.cls-1{fill:#1d7df6;}</style></defs><g id="レイヤー_2" data-name="レイヤー 2"><g id="レイヤー_1-2" data-name="レイヤー 1"><rect class="cls-1" x="68.3" width="5" height="5"/><rect class="cls-1" x="34.1" width="5" height="5"/><rect class="cls-1" x="68.3" y="34.2" width="5" height="5"/><rect class="cls-1" x="34.1" y="34.2" width="5" height="5"/><rect class="cls-1" width="5" height="5"/><rect class="cls-1" y="34.2" width="5" height="5"/><rect class="cls-1" x="68.3" y="68.4" width="5" height="5"/><rect class="cls-1" x="34.1" y="68.4" width="5" height="5"/><rect class="cls-1" y="68.4" width="5" height="5"/><rect class="cls-1" x="68.3" y="102.6" width="5" height="5"/><rect class="cls-1" x="34.1" y="102.6" width="5" height="5"/><rect class="cls-1" y="102.6" width="5" height="5"/><rect class="cls-1" x="68.3" y="136.8" width="5" height="5"/><rect class="cls-1" x="34.1" y="136.8" width="5" height="5"/><rect class="cls-1" y="136.8" width="5" height="5"/><rect class="cls-1" x="68.3" y="171" width="5" height="5"/><rect class="cls-1" x="34.1" y="171" width="5" height="5"/><rect class="cls-1" y="171" width="5" height="5"/><rect class="cls-1" x="68.3" y="205.2" width="5" height="5"/><rect class="cls-1" x="34.1" y="205.2" width="5" height="5"/><rect class="cls-1" y="205.2" width="5" height="5"/><rect class="cls-1" x="68.3" y="239.3" width="5" height="5"/><rect class="cls-1" x="34.1" y="239.3" width="5" height="5"/><rect class="cls-1" y="239.3" width="5" height="5"/><rect class="cls-1" x="68.3" y="273.5" width="5" height="5"/><rect class="cls-1" x="34.1" y="273.5" width="5" height="5"/><rect class="cls-1" y="273.5" width="5" height="5"/></g></g></svg>