<?xml version="1.0" encoding="UTF-8"?>
<svg id="_レイヤー_2" data-name="レイヤー 2" xmlns="http://www.w3.org/2000/svg" viewBox="0 0 272.97 42.33">
  <defs>
    <style>
      .cls-1 {
        fill: #fff;
        stroke-width: 0px;
      }
    </style>
  </defs>
  <g id="_レイヤー_1-2" data-name="レイヤー 1">
    <g>
      <path class="cls-1" d="m12.34,42.33c-2,0-3.78-.21-5.33-.63-1.56-.42-2.85-1-3.89-1.73-1.04-.73-1.82-1.59-2.34-2.57-.52-.98-.78-2.01-.78-3.08,0-1,.2-1.82.61-2.45.4-.63.97-1.11,1.7-1.44.73-.33,1.56-.49,2.48-.49.04,2.81.36,5.07.98,6.8.61,1.73,1.53,3,2.74,3.81,1.21.81,2.7,1.21,4.47,1.21,2.42,0,4.39-.69,5.91-2.08,1.52-1.38,2.28-3.42,2.28-6.11,0-1.77-.35-3.2-1.04-4.3-.69-1.1-1.75-2.08-3.17-2.97-1.42-.88-3.27-1.83-5.54-2.83-1.38-.61-2.72-1.29-4.01-2.02-1.29-.73-2.43-1.58-3.43-2.54-1-.96-1.78-2.1-2.34-3.43-.56-1.33-.84-2.85-.84-4.58,0-2.34.52-4.33,1.56-5.94,1.04-1.61,2.53-2.84,4.47-3.69,1.94-.85,4.22-1.27,6.83-1.27,2.34,0,4.35.31,6.03.92,1.67.62,2.98,1.42,3.92,2.42.94,1,1.41,2.1,1.41,3.29s-.47,2.14-1.41,2.85c-.94.71-2.22,1.07-3.83,1.07,0-3.34-.51-5.83-1.53-7.47-1.02-1.63-2.72-2.45-5.1-2.45-1.31,0-2.51.27-3.6.81-1.1.54-1.95,1.36-2.57,2.45-.62,1.1-.92,2.53-.92,4.3s.35,3.23,1.04,4.38,1.75,2.16,3.17,3.03c1.42.87,3.25,1.82,5.48,2.85,2.15.92,4.05,1.89,5.68,2.91,1.63,1.02,2.91,2.26,3.83,3.72.92,1.46,1.38,3.31,1.38,5.54,0,2.38-.56,4.45-1.67,6.2-1.12,1.75-2.74,3.1-4.87,4.07-2.13.96-4.72,1.44-7.76,1.44Z"/>
      <path class="cls-1" d="m37.91,42.16c-2.05,0-3.68-.55-4.88-1.66-1.2-1.11-1.8-2.6-1.8-4.49,0-2.1.77-3.66,2.3-4.67,1.53-1.01,3.87-1.57,7.01-1.68l3.36-.12v-3.65c0-1.45-.08-2.62-.25-3.53s-.49-1.56-.98-1.99c-.49-.42-1.23-.64-2.21-.64-1.45,0-2.39.49-2.83,1.46-.44.97-.66,2.56-.66,4.78-1.31,0-2.31-.2-2.99-.59-.68-.4-1.02-1.05-1.02-1.95,0-.98.35-1.78,1.05-2.38.7-.6,1.63-1.04,2.79-1.31,1.16-.27,2.44-.41,3.83-.41,2.6,0,4.54.53,5.84,1.6,1.3,1.07,1.95,2.88,1.95,5.45v12.26c0,.68.08,1.22.25,1.62.16.4.44.68.82.84.38.16.87.25,1.48.25h.12v.41h-6.89v-4.26h-.08c-.3,1.12-.75,2.02-1.35,2.71-.6.68-1.31,1.18-2.13,1.5s-1.72.47-2.71.47Zm1.19-.74c.96,0,1.8-.27,2.52-.82.72-.55,1.28-1.26,1.68-2.15.4-.89.59-1.85.59-2.89v-5.58l-2.42.08c-2.13.11-3.6.63-4.41,1.56-.81.93-1.21,2.49-1.21,4.67,0,1.15.12,2.1.35,2.87.23.77.59,1.33,1.09,1.7.49.37,1.09.55,1.8.55Z"/>
      <path class="cls-1" d="m54.06,41.75v-.41h.37c.71,0,1.31-.1,1.78-.29.48-.19.84-.51,1.09-.94.25-.44.37-1.04.37-1.8V13.99c0-.74-.12-1.33-.37-1.76-.25-.44-.62-.75-1.11-.94-.49-.19-1.08-.29-1.76-.29h-.25v-.41h8v18.7c0,.49,0,.99-.02,1.5-.01.51-.03,1.02-.06,1.54l7.22-7.95c.41-.44.75-.83,1.02-1.19.27-.35.47-.68.59-.96s.18-.54.18-.76c0-.46-.32-.79-.96-.98-.64-.19-1.65-.29-3.01-.29v-.41h9.31v.41c-.66,0-1.25.07-1.78.21-.53.14-1.12.46-1.76.98-.64.52-1.48,1.34-2.52,2.46l-3.24,3.61,6.68,10.17c.77,1.15,1.38,1.98,1.85,2.5.46.52.85.85,1.17,1,.31.15.64.23.96.23h.12v.41h-1.48c-1.01,0-1.88-.05-2.6-.14-.72-.1-1.36-.26-1.91-.49-.55-.23-1.04-.56-1.48-.98-.44-.42-.86-.98-1.27-1.66l-4.96-7.83-2.05,2.3v5.25c0,.79.12,1.42.37,1.89.25.47.61.79,1.09.98.48.19,1.07.29,1.78.29h.2v.41h-11.56Z"/>
      <path class="cls-1" d="m89.88,42.16c-2.41,0-4.2-.64-5.37-1.91-1.18-1.27-1.76-3.3-1.76-6.09v-10.5c0-.9-.1-1.61-.31-2.11-.21-.51-.54-.86-1-1.07-.47-.21-1.09-.31-1.89-.31h-.12v-.41h7.83v14.92c0,1.59.12,2.87.35,3.85.23.98.62,1.71,1.17,2.17.55.46,1.28.7,2.21.7,1.15,0,2.09-.33,2.83-.98.74-.66,1.28-1.59,1.64-2.81.35-1.22.53-2.67.53-4.37v-9.68c0-.9-.12-1.59-.35-2.07-.23-.48-.59-.82-1.07-1.02-.48-.21-1.09-.31-1.82-.31h-.12v-.41h7.87v18.25c0,.88.12,1.55.37,2.03.25.48.61.81,1.09,1,.48.19,1.07.29,1.78.29h.12v.41h-7.67v-5.12h-.08c-.22,1.26-.56,2.25-1.02,2.99-.47.74-.99,1.29-1.58,1.64-.59.36-1.2.59-1.82.72-.63.12-1.23.18-1.8.18Z"/>
      <path class="cls-1" d="m106.6,41.75v-.41h.49c.71,0,1.3-.1,1.78-.29.48-.19.84-.51,1.09-.94.25-.44.37-1.04.37-1.8v-15.13c0-.74-.12-1.33-.37-1.76-.25-.44-.61-.75-1.09-.94-.48-.19-1.07-.29-1.78-.29h-.12v-.41h7.83v3.94h.08c.22-.76.54-1.48.96-2.13.42-.66,1.02-1.2,1.78-1.62.76-.42,1.76-.64,2.99-.64,1.42,0,2.5.28,3.24.84.74.56,1.11,1.35,1.11,2.36,0,.93-.34,1.68-1.02,2.25-.68.57-1.74.86-3.16.86,0-1.8-.27-3.05-.8-3.73-.53-.68-1.16-1.02-1.87-1.02s-1.24.23-1.68.7c-.44.46-.77,1.09-1,1.89-.23.79-.39,1.64-.47,2.54-.08.9-.12,1.82-.12,2.75v9.43c0,.79.12,1.42.37,1.89.25.47.61.79,1.11.98.49.19,1.08.29,1.76.29h.74v.41h-12.22Z"/>
      <path class="cls-1" d="m133.85,42.16c-2.05,0-3.68-.55-4.88-1.66-1.2-1.11-1.8-2.6-1.8-4.49,0-2.1.77-3.66,2.3-4.67,1.53-1.01,3.87-1.57,7.01-1.68l3.36-.12v-3.65c0-1.45-.08-2.62-.25-3.53s-.49-1.56-.98-1.99c-.49-.42-1.23-.64-2.21-.64-1.45,0-2.39.49-2.83,1.46-.44.97-.66,2.56-.66,4.78-1.31,0-2.31-.2-2.99-.59-.68-.4-1.02-1.05-1.02-1.95,0-.98.35-1.78,1.05-2.38.7-.6,1.63-1.04,2.79-1.31,1.16-.27,2.44-.41,3.83-.41,2.6,0,4.54.53,5.84,1.6,1.3,1.07,1.95,2.88,1.95,5.45v12.26c0,.68.08,1.22.25,1.62.16.4.44.68.82.84.38.16.87.25,1.48.25h.12v.41h-6.89v-4.26h-.08c-.3,1.12-.75,2.02-1.35,2.71-.6.68-1.31,1.18-2.13,1.5s-1.72.47-2.71.47Zm1.19-.74c.96,0,1.8-.27,2.52-.82.72-.55,1.28-1.26,1.68-2.15.4-.89.59-1.85.59-2.89v-5.58l-2.42.08c-2.13.11-3.6.63-4.41,1.56-.81.93-1.21,2.49-1.21,4.67,0,1.15.12,2.1.35,2.87.23.77.59,1.33,1.09,1.7.49.37,1.09.55,1.8.55Z"/>
      <path class="cls-1" d="m159.9,41.75v-.58h2.83c.88,0,1.64-.13,2.28-.4.63-.27,1.11-.69,1.44-1.27.33-.58.49-1.35.49-2.31V4.96c0-.92-.16-1.66-.49-2.22-.33-.56-.81-.96-1.44-1.21-.63-.25-1.39-.38-2.28-.38h-2.83v-.58h12.86l13.9,33.79L198.59.58h11.59v.58h-1.21c-.92,0-1.7.14-2.34.4-.63.27-1.12.7-1.44,1.3-.33.6-.49,1.38-.49,2.34v31.95c0,.96.16,1.74.49,2.34.33.6.81,1.03,1.44,1.3.63.27,1.41.4,2.34.4h1.21v.58h-16.2v-.58h.29c.81,0,1.51-.13,2.1-.4.6-.27,1.06-.69,1.38-1.27.33-.58.49-1.33.49-2.25V3.34l-13.49,38.41h-1.79l-15.45-37.77v33.16c0,.96.17,1.74.52,2.34.35.6.86,1.03,1.56,1.3.69.27,1.54.4,2.54.4h1.38v.58h-13.61Z"/>
      <path class="cls-1" d="m214,41.75v-.41h.53c.71,0,1.3-.1,1.78-.29.48-.19.84-.51,1.09-.94.25-.44.37-1.04.37-1.8v-15.13c0-.74-.12-1.33-.37-1.76-.25-.44-.61-.75-1.09-.94-.48-.19-1.07-.29-1.78-.29h-.21v-.41h7.95v18.41c0,.79.12,1.42.37,1.89.25.47.61.79,1.11.98.49.19,1.08.29,1.76.29h.53v.41h-12.05Zm5.82-25.83c-.6,0-1.1-.19-1.5-.57-.4-.38-.59-1.03-.59-1.93s.2-1.54.59-1.91c.4-.37.9-.55,1.5-.55s1.07.18,1.48.55c.41.37.61,1,.61,1.91s-.21,1.54-.61,1.93c-.41.38-.9.57-1.48.57Z"/>
      <path class="cls-1" d="m228.54,41.75v-.41h.37c.71,0,1.31-.1,1.78-.29.48-.19.84-.51,1.09-.94.25-.44.37-1.04.37-1.8V13.99c0-.74-.12-1.33-.37-1.76-.25-.44-.62-.75-1.11-.94-.49-.19-1.08-.29-1.76-.29h-.25v-.41h8v18.7c0,.49,0,.99-.02,1.5-.01.51-.03,1.02-.06,1.54l7.22-7.95c.41-.44.75-.83,1.02-1.19.27-.35.47-.68.59-.96s.18-.54.18-.76c0-.46-.32-.79-.96-.98-.64-.19-1.65-.29-3.01-.29v-.41h9.31v.41c-.66,0-1.25.07-1.78.21-.53.14-1.12.46-1.76.98-.64.52-1.48,1.34-2.52,2.46l-3.24,3.61,6.68,10.17c.77,1.15,1.38,1.98,1.85,2.5.46.52.85.85,1.17,1,.31.15.64.23.96.23h.12v.41h-1.48c-1.01,0-1.88-.05-2.6-.14-.72-.1-1.36-.26-1.91-.49-.55-.23-1.04-.56-1.48-.98-.44-.42-.86-.98-1.27-1.66l-4.96-7.83-2.05,2.3v5.25c0,.79.12,1.42.37,1.89.25.47.61.79,1.09.98.48.19,1.07.29,1.78.29h.2v.41h-11.56Z"/>
      <path class="cls-1" d="m263.05,42.16c-3.03,0-5.43-.94-7.18-2.83-1.75-1.89-2.62-4.76-2.62-8.61s.83-6.72,2.5-8.59c1.67-1.87,4.14-2.81,7.42-2.81,3.03,0,5.43.94,7.17,2.81,1.75,1.87,2.62,4.74,2.62,8.59s-.84,6.72-2.52,8.61c-1.68,1.89-4.15,2.83-7.4,2.83Zm.08-.41c1.26,0,2.27-.36,3.03-1.09.77-.72,1.32-1.89,1.66-3.51.34-1.61.51-3.76.51-6.44s-.17-4.78-.51-6.4c-.34-1.61-.9-2.78-1.66-3.51-.77-.72-1.79-1.09-3.07-1.09s-2.27.36-3.03,1.09c-.77.72-1.32,1.89-1.66,3.51s-.51,3.75-.51,6.4.17,4.82.51,6.44.9,2.78,1.68,3.51c.78.72,1.8,1.09,3.05,1.09Z"/>
    </g>
  </g>
</svg>