<svg width="580" height="76" viewBox="0 0 580 76" fill="none" xmlns="http://www.w3.org/2000/svg">
<path d="M537.148 -1.40332H0C1.49894 0.147119 3.17422 1.54251 5.20219 2.62782C11.8151 6.19383 19.398 6.19383 25.7464 3.248C26.8927 10.0699 31.2131 16.1166 38.0024 19.3726C44.7917 22.6285 52.3746 22.0083 58.5467 18.5973C60.1338 25.2642 64.8951 31.1559 71.8607 33.9467C78.8264 36.7375 86.4092 35.6522 92.3168 31.9311C94.3448 38.443 99.4588 44.0246 106.601 46.3502C113.743 48.6759 121.237 47.2805 126.881 43.0943C129.261 49.6061 134.728 54.7226 142.046 56.7382C149.365 58.5987 156.683 56.7382 162.061 52.2419C164.883 58.5987 170.702 63.4051 178.021 64.8004C185.427 66.1958 192.657 63.8702 197.683 59.0638C200.946 65.1105 206.941 69.7618 214.436 70.6921C221.931 71.6224 228.985 68.8316 233.746 63.7151C237.361 69.6068 243.709 73.793 251.204 74.2581C258.699 74.7233 265.576 71.4673 269.985 66.1958C273.953 71.7774 280.566 75.6535 288.148 75.6535C295.643 75.6535 302.344 72.0875 306.4 66.5059C310.721 71.9325 317.598 75.1884 325.093 74.8783C332.587 74.4132 339.024 70.382 342.727 64.4904C347.4 69.6068 354.454 72.5526 361.949 71.6224C369.444 70.6921 375.528 66.3509 378.878 60.3042C383.904 65.1105 391.046 67.5912 398.452 66.1958C405.859 64.8004 411.678 59.9941 414.588 53.7923C419.878 58.2886 427.197 60.3042 434.515 58.5987C441.833 56.7382 447.3 51.6217 449.857 45.2649C455.412 49.4511 462.907 51.0015 470.049 48.6759C476.221 46.8153 480.806 42.3191 483.275 37.0476L485.92 35.187C491.563 38.2879 498.352 39.2182 504.877 36.7375C511.931 34.1017 516.692 28.2101 518.367 21.5432C524.451 24.9542 532.034 25.5743 538.823 22.4734C545.701 19.3726 550.109 13.3259 551.344 6.50392C557.604 9.6048 565.187 9.75984 571.888 6.19383C575.327 4.33331 578.06 1.69756 580 -1.40332H537.324L537.148 -1.40332Z" fill="#FFFBF5"/>
</svg>
