<svg width="1920" height="138" viewBox="0 0 1920 138" fill="none" xmlns="http://www.w3.org/2000/svg">
<path d="M1778.15 -1.11279H0C4.96199 1.67863 10.5078 4.19091 17.221 6.1449C39.1122 12.5652 64.2141 12.5652 85.2296 7.26147C89.024 19.5437 103.326 30.4303 125.801 36.2923C148.276 42.1542 173.378 41.0377 193.81 34.8965C199.064 46.8997 214.825 57.5071 237.884 62.5316C260.943 67.5562 286.044 65.6022 305.6 58.9028C312.314 70.6268 329.243 80.6759 352.885 84.863C376.528 89.0501 401.338 86.5378 420.018 79.001C427.899 90.725 445.996 99.9367 470.222 103.566C494.448 106.915 518.674 103.566 536.479 95.4704C545.819 106.915 565.084 115.569 589.31 118.081C613.828 120.593 637.762 116.406 654.4 107.753C665.199 118.639 685.047 127.013 709.857 128.688C734.667 130.363 758.018 125.339 773.779 116.127C785.746 126.734 806.762 134.271 831.572 135.109C856.382 135.946 879.149 130.084 893.743 120.593C906.878 130.642 928.769 137.621 953.87 137.621C978.68 137.621 1000.86 131.201 1014.29 121.151C1028.59 130.921 1051.36 136.783 1076.17 136.225C1100.98 135.388 1122.29 128.13 1134.55 117.523C1150.02 126.734 1173.37 132.038 1198.18 130.363C1222.99 128.688 1243.13 120.872 1254.22 109.986C1270.85 118.639 1294.5 123.105 1319.01 120.593C1343.53 118.081 1362.8 109.428 1372.43 98.2618C1389.94 106.357 1414.17 109.986 1438.39 106.915C1462.62 103.566 1480.72 94.3538 1489.18 82.909C1507.57 90.4458 1532.38 93.2373 1556.02 89.0501C1576.45 85.7004 1591.63 77.6053 1599.81 68.1145L1608.56 64.7648C1627.24 70.3476 1649.72 72.0225 1671.32 67.5562C1694.67 62.8108 1710.43 52.2034 1715.97 40.2003C1736.11 46.3414 1761.22 47.4579 1783.69 41.8751C1806.46 36.2923 1821.05 25.4057 1825.14 13.1235C1845.86 18.7063 1870.96 18.9854 1893.15 12.5652C1904.53 9.21547 1913.58 4.47005 1920 -1.11279H1778.73L1778.15 -1.11279Z" fill="#FFFBF5"/>
</svg>
