<svg width="840" height="875" viewBox="0 0 840 875" fill="none" xmlns="http://www.w3.org/2000/svg">
<path d="M419.5 890.5C389.348 890.5 360.181 864.343 335.227 814.819C332.437 809.292 327.457 805.242 321.492 803.655C315.582 802.068 309.18 803.108 304.036 806.501C257.686 836.927 219.38 845.026 193.223 829.922C167.12 814.819 154.972 777.608 158.091 722.228C158.419 716.045 156.176 710.025 151.798 705.702C147.475 701.324 141.4 699.081 135.272 699.409C79.9471 702.528 42.6811 690.38 27.6324 664.277C12.529 638.175 20.628 599.814 51.0537 553.464C54.4464 548.32 55.4862 541.918 53.8992 536.008C52.3123 530.098 48.2081 525.063 42.7358 522.273C-6.78798 497.319 -32.9453 468.207 -32.9453 438C-32.9453 407.793 -6.78798 378.681 42.7358 353.727C48.2628 350.937 52.3123 345.957 53.8992 339.992C55.4862 334.027 54.4464 327.68 51.0537 322.536C20.628 276.186 12.529 237.825 27.6324 211.723C42.7358 185.62 79.8924 173.472 135.272 176.591C141.4 176.919 147.475 174.676 151.798 170.298C156.121 165.92 158.419 159.9 158.091 153.772C154.972 98.3924 167.12 61.1812 193.223 46.0778C219.325 30.9744 257.686 39.0733 304.036 69.499C309.18 72.8918 315.582 73.9315 321.492 72.3445C327.402 70.7576 332.437 66.6534 335.227 61.1812C360.181 11.6573 389.293 -14.5 419.5 -14.5C449.707 -14.5 478.819 11.6573 503.773 61.1812C506.563 66.7081 511.543 70.7576 517.508 72.3445C523.473 73.9315 529.82 72.8918 534.964 69.499C581.314 39.0733 619.675 31.0291 645.777 46.0778C671.88 61.1812 684.028 98.3924 680.909 153.772C680.581 159.955 682.824 165.975 687.202 170.298C691.525 174.621 697.6 176.919 703.728 176.591C758.998 173.417 796.319 185.565 811.422 211.723C826.526 237.825 818.427 276.186 788.001 322.536C784.608 327.68 783.568 334.082 785.155 339.992C786.742 345.902 790.847 350.937 796.319 353.727C845.843 378.681 872 407.793 872 438C872 468.207 845.843 497.319 796.319 522.273C790.792 525.063 786.742 530.043 785.155 536.008C783.568 541.973 784.608 548.32 788.001 553.464C818.427 599.814 826.526 638.12 811.422 664.277C796.319 690.435 759.108 702.528 703.728 699.409C697.6 699.081 691.525 701.324 687.202 705.702C682.879 710.025 680.581 716.1 680.909 722.228C684.083 777.608 671.935 814.819 645.777 829.922C619.675 845.026 581.314 836.927 534.964 806.501C529.82 803.108 523.418 802.068 517.508 803.655C511.598 805.242 506.563 809.347 503.773 814.819C478.819 864.343 449.707 890.5 419.5 890.5ZM315.965 801.521C317.935 801.521 319.96 801.795 321.875 802.287C328.168 803.984 333.476 808.307 336.431 814.162C361.111 863.193 389.84 889.077 419.445 889.077C449.05 889.077 477.779 863.193 502.459 814.162C505.414 808.307 510.722 803.984 517.07 802.287C523.363 800.591 530.149 801.685 535.621 805.297C581.533 835.394 619.346 843.493 645.011 828.664C670.676 813.834 682.551 777.06 679.432 722.283C679.049 715.716 681.511 709.314 686.108 704.717C690.705 700.121 697.107 697.713 703.674 698.041C758.56 701.16 795.279 689.231 810.109 663.621C824.939 637.956 816.84 600.143 786.742 554.23C783.131 548.758 782.036 541.973 783.733 535.625C785.429 529.332 789.752 524.024 795.607 521.014C844.639 496.334 870.522 467.605 870.522 438C870.522 408.395 844.639 379.666 795.607 354.986C789.752 352.031 785.429 346.723 783.733 340.375C782.036 334.082 783.131 327.296 786.742 321.77C816.84 275.857 824.939 238.044 810.109 212.379C795.279 186.714 758.506 174.785 703.674 177.959C697.052 178.342 690.705 175.879 686.108 171.283C681.511 166.686 679.049 160.229 679.432 153.717C682.551 98.9397 670.621 62.1114 645.011 47.3364C619.346 32.5066 581.533 40.6055 535.621 70.7029C530.149 74.3145 523.363 75.409 517.07 73.7126C510.777 72.0162 505.414 67.6931 502.459 61.8378C477.834 12.7518 449.105 -13.1319 419.5 -13.1319C389.895 -13.1319 361.166 12.7518 336.486 61.7831C333.531 67.6384 328.223 71.9615 321.93 73.6579C315.582 75.3543 308.851 74.2598 303.324 70.6481C257.412 40.5508 219.599 32.4519 193.934 47.2817C168.269 62.1114 156.394 98.8849 159.514 153.662C159.897 160.229 157.434 166.631 152.837 171.228C148.241 175.879 141.783 178.232 135.272 177.904C80.4943 174.785 43.6661 186.714 28.8911 212.325C14.0613 237.989 22.1602 275.803 52.2576 321.715C55.8692 327.187 56.9637 333.973 55.2673 340.266C53.5709 346.559 49.2478 351.922 43.3925 354.877C-5.69353 379.666 -31.632 408.395 -31.632 438C-31.632 467.605 -5.69353 496.334 43.2831 521.014C49.1384 523.969 53.4614 529.277 55.1578 535.625C56.8542 541.918 55.7598 548.703 52.1481 554.176C22.0508 600.088 13.9518 637.901 28.7816 663.566C43.6114 689.231 80.3302 701.16 135.162 697.986C141.729 697.658 148.131 700.066 152.728 704.663C157.325 709.259 159.787 715.716 159.404 722.228C156.285 777.006 168.214 813.834 193.825 828.609C219.489 843.439 257.303 835.34 303.215 805.242C306.991 802.725 311.423 801.467 315.856 801.467L315.965 801.521Z" fill="#FF9644" fill-opacity="0.1"/>
<path d="M419.5 875.78C390.333 875.78 362.151 850.443 338.018 802.561C335.337 797.198 330.467 793.258 324.721 791.726C318.975 790.194 312.791 791.179 307.812 794.462C262.939 823.848 225.892 831.674 200.665 817.117C175.383 802.507 163.673 766.499 166.682 712.981C167.011 707.016 164.822 701.161 160.608 696.947C156.395 692.733 150.539 690.49 144.574 690.873C91.0012 693.937 54.9938 682.172 40.4376 656.89C25.8267 631.608 33.7068 594.561 63.0927 549.744C66.3761 544.764 67.3611 538.58 65.8288 532.834C64.2966 527.088 60.3566 522.218 54.9938 519.537C7.11164 495.404 -18.2249 467.222 -18.2249 438.055C-18.2249 408.888 7.11164 380.706 54.9938 356.573C60.3566 353.892 64.2966 349.022 65.8288 343.276C67.3611 337.53 66.3761 331.346 63.0927 326.366C33.7068 281.494 25.8814 244.447 40.4376 219.22C55.0485 193.938 91.0559 182.173 144.574 185.237C144.958 185.237 145.395 185.237 145.778 185.237C151.305 185.237 156.668 183.048 160.608 179.108C164.822 174.895 167.065 169.039 166.682 163.075C163.618 109.556 175.383 73.5488 200.665 58.9379C225.892 44.327 262.994 52.207 307.812 81.5929C312.846 84.8763 318.975 85.8613 324.721 84.3291C330.467 82.7968 335.337 78.8568 338.018 73.494C362.151 25.6119 390.333 0.275391 419.5 0.275391C448.667 0.275391 476.849 25.6119 500.982 73.494C503.663 78.8568 508.534 82.7968 514.279 84.3291C520.025 85.8613 526.209 84.8763 531.189 81.5929C576.061 52.207 613.108 44.3817 638.335 58.9379C663.617 73.5488 675.328 109.556 672.318 163.075C671.99 169.039 674.178 174.895 678.392 179.108C682.606 183.322 688.461 185.62 694.426 185.183C747.944 182.118 784.006 193.883 798.563 219.165C813.173 244.447 805.293 281.494 775.907 326.312C772.624 331.292 771.639 337.475 773.171 343.221C774.704 348.967 778.644 353.837 784.006 356.519C831.889 380.651 857.225 408.833 857.225 438C857.225 467.167 831.889 495.349 784.006 519.482C778.644 522.163 774.704 527.034 773.171 532.78C771.639 538.525 772.624 544.709 775.907 549.689C805.293 594.561 813.119 631.608 798.563 656.835C783.952 682.117 747.944 693.828 694.426 690.818C688.516 690.49 682.606 692.679 678.392 696.892C674.178 701.106 671.935 706.961 672.318 712.926C675.382 766.444 663.617 802.452 638.335 817.063C613.053 831.674 576.006 823.794 531.189 794.408C526.209 791.124 520.025 790.139 514.279 791.672C508.534 793.204 503.663 797.144 500.982 802.507C476.849 850.389 448.667 875.725 419.5 875.725V875.78ZM319.303 789.756C321.219 789.756 323.134 790.03 325.049 790.522C331.178 792.164 336.267 796.323 339.168 802.014C363.081 849.458 390.88 874.521 419.5 874.521C448.12 874.521 475.974 849.458 499.833 802.014C502.678 796.323 507.822 792.164 513.951 790.522C520.08 788.881 526.592 789.92 531.9 793.423C576.335 822.535 612.889 830.36 637.733 816.023C662.577 801.686 674.069 766.061 671.059 713.035C670.676 706.688 673.084 700.504 677.516 696.017C681.675 691.858 687.367 689.505 693.222 689.505C693.66 689.505 694.043 689.505 694.48 689.505C747.507 692.514 783.131 680.968 797.468 656.179C811.805 631.389 803.98 594.725 774.868 550.346C771.366 545.037 770.326 538.471 771.967 532.397C773.609 526.322 777.768 521.178 783.459 518.333C830.904 494.419 855.966 466.62 855.966 437.946C855.966 409.271 830.904 381.472 783.459 357.613C777.768 354.767 773.609 349.624 771.967 343.495C770.326 337.366 771.366 330.854 774.868 325.546C803.98 281.111 811.805 244.502 797.468 219.712C783.131 194.868 747.507 183.322 694.48 186.386C688.078 186.77 681.949 184.362 677.516 179.929C673.029 175.442 670.676 169.258 671.059 162.911C674.069 109.884 662.523 74.2601 637.733 59.9229C612.944 45.5856 576.28 53.4109 531.9 82.5232C526.592 85.9707 520.08 87.0652 513.951 85.4235C507.822 83.7819 502.733 79.6229 499.833 73.9318C475.919 26.4874 448.12 1.42456 419.5 1.42456C390.88 1.42456 363.027 26.4874 339.168 73.9318C336.322 79.6229 331.178 83.7819 325.049 85.4235C318.975 87.0652 312.408 86.0255 307.1 82.5232C262.666 53.4109 226.056 45.5856 201.267 59.9229C176.423 74.2601 164.931 109.884 167.941 162.911C168.324 169.258 165.916 175.442 161.484 179.929C156.996 184.416 150.868 186.715 144.465 186.386C91.4389 183.377 55.8146 194.923 41.4773 219.712C27.1401 244.556 34.9654 281.111 64.0777 325.546C67.58 330.854 68.6197 337.366 66.978 343.495C65.3363 349.569 61.1774 354.713 55.4863 357.613C8.04193 381.527 -17.021 409.326 -17.021 437.946C-17.021 466.565 8.04193 494.419 55.4863 518.333C61.1774 521.178 65.3363 526.322 66.978 532.397C68.6197 538.525 67.58 545.037 64.0777 550.346C34.9654 594.78 27.1401 631.389 41.4773 656.179C55.8146 680.968 91.4389 692.514 144.465 689.505C150.758 689.122 156.996 691.475 161.484 695.962C165.971 700.449 168.324 706.633 167.941 712.926C164.931 765.952 176.423 801.576 201.267 815.914C226.111 830.251 262.72 822.425 307.1 793.313C310.767 790.905 315.035 789.647 319.303 789.647V789.756Z" fill="#FF9644" fill-opacity="0.1"/>
<path d="M419.5 861.004C391.318 861.004 364.121 836.543 340.809 790.303C338.182 785.159 333.531 781.328 327.949 779.796C322.368 778.319 316.403 779.249 311.587 782.423C268.247 810.824 232.459 818.43 208.052 804.312C183.646 790.193 172.319 755.445 175.219 703.732C175.547 697.931 173.413 692.295 169.309 688.245C165.205 684.141 159.568 682.007 153.768 682.335C102.055 685.236 67.2515 673.908 53.1878 649.502C39.0694 625.096 46.6759 589.307 75.0768 545.967C78.2507 541.151 79.2357 535.132 77.7035 529.605C76.226 524.023 72.3954 519.317 67.1968 516.745C20.9563 493.434 -3.50464 466.182 -3.50464 438.054C-3.50464 409.927 20.9563 382.675 67.1968 359.363C72.3954 356.737 76.1713 352.085 77.7035 346.504C79.181 340.922 78.2507 334.957 75.0768 330.142C46.6759 286.802 39.1242 251.013 53.1878 226.607C67.3062 202.201 102.11 190.873 153.768 193.773C159.514 194.102 165.205 191.968 169.309 187.863C173.358 183.759 175.547 178.123 175.219 172.377C172.264 120.664 183.646 85.8607 208.052 71.7423C232.459 57.6786 268.247 65.2303 311.587 93.6313C316.458 96.8052 322.422 97.7902 327.949 96.2579C333.531 94.7804 338.237 90.9499 340.809 85.7512C364.121 39.456 391.373 15.0498 419.5 15.0498C447.627 15.0498 474.879 39.5107 498.246 85.7512C500.872 90.9499 505.524 94.7257 511.105 96.2579C516.687 97.7354 522.652 96.8052 527.522 93.6313C570.862 65.2303 606.651 57.6786 631.057 71.7423C655.463 85.8059 666.791 120.609 663.89 172.377C663.562 178.177 665.696 183.814 669.8 187.863C673.905 191.968 679.541 194.102 685.342 193.773C737.054 190.818 771.858 202.146 785.922 226.607C799.985 251.013 792.433 286.802 764.033 330.142C760.859 335.012 759.874 340.977 761.406 346.504C762.938 352.031 766.714 356.737 771.913 359.363C818.208 382.675 842.614 409.872 842.614 438.054C842.614 466.236 818.153 493.434 771.913 516.745C766.714 519.372 762.938 524.023 761.406 529.605C759.874 535.187 760.859 541.151 764.033 545.967C792.433 589.307 800.04 625.096 785.922 649.502C771.803 673.908 737 685.236 685.342 682.335C679.541 682.007 673.905 684.141 669.8 688.245C665.751 692.295 663.562 697.986 663.89 703.732C666.845 755.445 655.463 790.248 631.057 804.312C606.651 818.376 570.862 810.824 527.522 782.423C522.706 779.249 516.687 778.264 511.16 779.796C505.578 781.274 500.872 785.104 498.3 790.303C474.988 836.598 447.737 861.004 419.555 861.004H419.5ZM322.696 777.936C324.556 777.936 326.417 778.155 328.223 778.647C334.133 780.234 339.058 784.283 341.849 789.756C364.942 835.613 391.81 859.855 419.555 859.855C447.299 859.855 474.113 835.613 497.261 789.756C499.997 784.283 504.976 780.234 510.886 778.702C516.797 777.115 523.09 778.155 528.179 781.493C571.136 809.62 606.487 817.226 630.51 803.327C654.533 789.482 665.642 755.062 662.741 703.787C662.413 697.658 664.657 691.693 668.98 687.37C673.303 683.047 679.267 680.748 685.396 681.132C736.671 684.032 771.092 672.923 784.937 648.9C798.781 624.877 791.23 589.526 763.102 546.569C759.764 541.425 758.724 535.132 760.311 529.222C761.898 523.312 765.948 518.387 771.365 515.651C817.223 492.558 841.465 465.689 841.465 437.945C841.465 410.201 817.223 383.387 771.365 360.239C765.893 357.503 761.844 352.523 760.311 346.668C758.724 340.758 759.764 334.465 763.102 329.321C791.284 286.364 798.836 251.013 784.937 226.99C771.092 202.967 736.726 191.858 685.396 194.758C679.267 195.087 673.303 192.843 668.98 188.52C664.657 184.197 662.413 178.232 662.741 172.103C665.642 120.828 654.533 86.4079 630.51 72.5631C606.541 58.7183 571.136 66.27 528.179 94.3974C523.09 97.7354 516.742 98.7752 510.832 97.1882C504.922 95.6013 499.997 91.5518 497.261 86.0796C474.168 40.2221 447.299 15.9801 419.555 15.9801C391.81 15.9801 364.996 40.2221 341.849 86.0796C339.113 91.5518 334.133 95.6013 328.223 97.1335C322.313 98.7204 316.02 97.6807 310.931 94.3426C267.973 66.2153 232.623 58.6089 208.6 72.5084C184.576 86.3532 173.468 120.774 176.368 172.049C176.696 178.177 174.453 184.142 170.13 188.465C165.807 192.788 159.842 195.032 153.713 194.704C102.493 191.803 68.0176 202.912 54.1728 226.935C40.3281 250.958 47.8798 286.309 76.0071 329.266C79.3452 334.41 80.3849 340.703 78.7979 346.558C77.211 352.468 73.1615 357.393 67.6893 360.184C21.8319 383.277 -2.41019 410.146 -2.41019 437.89C-2.41019 465.634 21.8319 492.449 67.6893 515.596C73.1615 518.332 77.211 523.312 78.7979 529.222C80.3849 535.132 79.3452 541.425 76.0071 546.514C47.825 589.471 40.2733 624.822 54.1728 648.845C68.0723 672.868 102.493 683.977 153.713 681.077C159.842 680.694 165.807 682.992 170.13 687.315C174.453 691.638 176.696 697.603 176.368 703.732C173.468 755.007 184.576 789.427 208.6 803.272C232.623 817.117 267.973 809.565 310.931 781.438C314.488 779.139 318.592 777.936 322.751 777.936H322.696Z" fill="#FF9644" fill-opacity="0.1"/>
<path d="M419.5 846.229C392.303 846.229 366.036 822.644 343.545 777.991C341.028 773.011 336.486 769.29 331.123 767.867C325.76 766.444 319.96 767.374 315.308 770.439C273.5 797.855 238.971 805.188 215.44 791.562C191.909 777.936 180.965 744.391 183.81 694.484C184.139 688.902 182.059 683.43 178.119 679.49C174.453 675.824 169.418 673.744 164.22 673.744C163.837 673.744 163.454 673.744 163.125 673.744C113.218 676.59 79.6188 665.645 66.0476 642.115C52.4765 618.584 59.7545 583.999 87.1705 542.246C90.2349 537.54 91.1652 531.794 89.7424 526.431C88.3197 521.069 84.5985 516.527 79.6188 514.009C34.9653 491.518 11.3799 465.252 11.3799 438.055C11.3799 410.858 34.9653 384.591 79.6188 362.1C84.5985 359.583 88.3197 355.041 89.7424 349.678C91.1652 344.315 90.2349 338.514 87.1705 333.863C59.7545 292.055 52.4217 257.525 66.0476 233.995C79.6188 210.464 113.164 199.519 163.125 202.365C168.762 202.639 174.179 200.614 178.119 196.674C182.059 192.734 184.139 187.262 183.81 181.68C180.965 131.773 191.909 98.2282 215.44 84.6023C238.971 71.0311 273.555 78.3092 315.308 105.725C320.015 108.79 325.76 109.72 331.123 108.297C336.486 106.874 341.028 103.153 343.545 98.1735C366.036 53.52 392.303 29.9346 419.5 29.9346C446.697 29.9346 472.964 53.52 495.455 98.1735C497.972 103.153 502.514 106.874 507.877 108.297C513.294 109.72 519.04 108.79 523.746 105.725C565.554 78.3092 600.084 71.0311 623.615 84.6023C647.145 98.1735 658.09 131.773 655.244 181.68C654.916 187.262 656.995 192.734 660.935 196.674C664.875 200.614 670.238 202.693 675.929 202.365C725.891 199.519 759.436 210.464 773.007 233.995C786.578 257.525 779.3 292.055 751.884 333.863C748.82 338.569 747.889 344.315 749.312 349.678C750.735 355.041 754.456 359.583 759.436 362.1C804.089 384.591 827.675 410.858 827.675 438.055C827.675 465.252 804.089 491.518 759.436 514.009C754.456 516.527 750.735 521.069 749.312 526.431C747.889 531.794 748.82 537.595 751.884 542.246C779.3 584.054 786.578 618.584 773.007 642.115C759.436 665.645 725.891 676.59 675.929 673.744C670.402 673.416 664.875 675.495 660.935 679.435C656.995 683.375 654.916 688.848 655.244 694.429C658.09 744.336 647.145 777.936 623.615 791.507C600.084 805.078 565.554 797.8 523.746 770.384C519.095 767.32 513.294 766.389 507.877 767.812C502.514 769.235 497.972 772.956 495.455 777.936C472.964 822.589 446.697 846.175 419.5 846.175V846.229ZM326.089 766.116C327.895 766.116 329.646 766.335 331.397 766.827C337.088 768.359 341.849 772.245 344.53 777.498C366.857 821.769 392.795 845.19 419.555 845.19C446.314 845.19 472.252 821.769 494.579 777.498C497.261 772.245 502.021 768.359 507.658 766.827C513.349 765.295 519.423 766.28 524.348 769.509C565.773 796.706 599.975 803.984 623.122 790.577C646.325 777.17 657.05 743.953 654.259 694.484C653.931 688.574 656.12 682.828 660.279 678.669C664.438 674.51 670.184 672.321 676.094 672.65C725.563 675.495 758.834 664.715 772.186 641.513C785.593 618.31 778.26 584.164 751.118 542.739C747.889 537.814 746.904 531.739 748.437 526.048C749.969 520.357 753.854 515.596 759.108 512.915C803.378 490.588 826.799 464.65 826.799 437.89C826.799 411.131 803.378 385.193 759.108 362.866C753.854 360.239 749.969 355.424 748.437 349.733C746.904 344.041 747.889 337.967 751.118 333.042C778.315 291.563 785.593 257.416 772.186 234.268C758.834 211.121 725.563 200.34 676.094 203.131C670.129 203.459 664.438 201.271 660.279 197.112C656.12 192.953 653.931 187.207 654.259 181.297C657.05 131.828 646.325 98.5565 623.122 85.2043C599.92 71.7972 565.773 79.1301 524.348 106.272C519.423 109.501 513.349 110.486 507.658 108.954C501.967 107.422 497.206 103.536 494.579 98.2829C472.252 54.0125 446.314 30.5912 419.555 30.5912C392.795 30.5912 366.857 54.0125 344.53 98.2829C341.904 103.536 337.088 107.422 331.452 108.954C325.76 110.486 319.686 109.501 314.761 106.272C273.282 79.0753 239.135 71.7972 215.987 85.2043C192.785 98.6113 182.059 131.828 184.85 181.297C185.178 187.207 182.99 192.953 178.831 197.112C174.672 201.271 168.981 203.459 163.016 203.131C113.547 200.286 80.2755 211.066 66.9232 234.268C53.5162 257.471 60.849 291.617 88.0461 333.042C91.2747 337.967 92.2597 344.041 90.7274 349.733C89.1952 355.424 85.3099 360.185 80.0566 362.811C35.7861 385.138 12.3649 411.076 12.3649 437.836C12.3649 464.595 35.7861 490.533 80.0566 512.86C85.3099 515.542 89.1952 520.302 90.7274 525.994C92.2597 531.685 91.2747 537.759 88.0461 542.684C60.849 584.109 53.5709 618.31 66.9232 641.458C80.3302 664.606 113.492 675.386 163.016 672.595C168.871 672.267 174.672 674.456 178.831 678.615C182.99 682.773 185.178 688.519 184.85 694.429C182.059 743.898 192.785 777.17 215.987 790.522C239.135 803.929 273.336 796.596 314.761 769.454C318.154 767.21 322.149 766.061 326.143 766.061L326.089 766.116Z" fill="#FF9644" fill-opacity="0.1"/>
<path d="M419.5 831.51C393.288 831.51 368.006 808.745 346.336 765.733C343.928 760.918 339.496 757.361 334.297 755.938C329.098 754.57 323.517 755.445 319.029 758.4C278.754 784.831 245.428 791.891 222.773 778.757C200.063 765.678 189.556 733.337 192.292 685.236C192.621 679.819 190.596 674.566 186.765 670.735C183.208 667.178 178.393 665.208 173.358 665.208C172.975 665.208 172.647 665.208 172.264 665.208C124.163 667.944 91.8218 657.383 78.7432 634.728C65.6645 612.018 72.669 578.747 99.0999 538.471C102.055 533.929 102.985 528.347 101.562 523.203C100.194 518.005 96.5827 513.627 91.7671 511.164C48.7553 489.494 25.9907 464.158 25.9907 438C25.9907 411.843 48.7553 386.507 91.7671 364.836C96.5827 362.429 100.194 358.051 101.562 352.798C102.93 347.599 102.055 342.017 99.0999 337.53C72.669 297.254 65.6098 263.983 78.7432 241.273C91.8218 218.563 124.163 208.002 172.264 210.793C177.627 211.066 182.935 209.096 186.765 205.266C190.596 201.435 192.566 196.182 192.292 190.764C189.556 142.663 200.118 110.322 222.773 97.2437C245.428 84.165 278.754 91.1695 319.029 117.6C323.571 120.555 329.153 121.486 334.297 120.063C339.496 118.695 343.873 115.083 346.336 110.268C368.006 67.2557 393.288 44.4912 419.5 44.4912C445.712 44.4912 470.994 67.2557 492.664 110.268C495.072 115.083 499.504 118.64 504.703 120.063C509.901 121.431 515.483 120.555 519.97 117.6C560.246 91.1695 593.517 84.1103 616.227 97.2437C638.937 110.322 649.444 142.663 646.708 190.764C646.379 196.182 648.404 201.435 652.234 205.266C656.065 209.096 661.264 211.066 666.736 210.793C714.892 208.057 747.178 218.618 760.257 241.273C773.335 263.983 766.331 297.254 739.9 337.53C736.945 342.072 736.015 347.654 737.437 352.852C738.86 358.051 742.417 362.429 747.233 364.836C790.245 386.507 813.009 411.843 813.009 438C813.009 464.158 790.245 489.494 747.233 511.164C742.417 513.572 738.86 517.95 737.437 523.148C736.015 528.347 736.945 533.929 739.9 538.471C766.331 578.747 773.335 612.018 760.257 634.728C747.178 657.383 714.892 667.944 666.736 665.208C661.318 664.88 656.065 666.904 652.234 670.735C648.404 674.566 646.434 679.819 646.708 685.236C649.444 733.337 638.882 765.678 616.227 778.757C593.572 791.836 560.246 784.831 519.97 758.4C515.428 755.445 509.901 754.515 504.703 755.938C499.504 757.306 495.126 760.918 492.664 765.733C470.994 808.745 445.657 831.51 419.5 831.51ZM329.427 754.351C331.123 754.351 332.874 754.57 334.571 755.008C340.043 756.485 344.64 760.206 347.157 765.295C368.663 807.979 393.671 830.525 419.5 830.525C445.329 830.525 470.337 807.979 491.843 765.295C494.415 760.206 499.012 756.485 504.429 755.008C509.901 753.53 515.757 754.46 520.463 757.579C560.41 783.792 593.353 790.851 615.735 777.936C638.061 765.022 648.459 733.009 645.777 685.291C645.449 679.6 647.583 674.073 651.578 670.078C655.573 666.084 661.045 663.949 666.791 664.278C714.509 666.959 746.576 656.617 759.436 634.235C772.296 611.854 765.291 578.965 739.079 538.963C735.96 534.202 735.03 528.347 736.507 522.875C737.985 517.403 741.706 512.806 746.795 510.289C789.478 488.783 812.024 463.775 812.024 437.946C812.024 412.117 789.478 387.108 746.795 365.603C741.706 363.031 737.985 358.434 736.507 353.016C735.03 347.544 736.015 341.689 739.079 336.928C765.291 296.981 772.296 264.038 759.436 241.656C746.521 219.275 714.454 208.932 666.791 211.614C661.099 211.942 655.573 209.808 651.578 205.813C647.583 201.818 645.449 196.291 645.777 190.6C648.513 142.882 638.116 110.815 615.735 97.955C593.408 85.0405 560.465 92.0997 520.463 118.312C515.702 121.431 509.847 122.361 504.429 120.884C498.957 119.406 494.36 115.685 491.843 110.596C470.337 67.9124 445.329 45.3668 419.5 45.3668C393.671 45.3668 368.663 67.9124 347.157 110.596C344.585 115.685 339.988 119.406 334.516 120.884C329.044 122.361 323.188 121.376 318.482 118.312C278.535 92.0997 245.592 85.0953 223.21 97.955C200.884 110.87 190.486 142.882 193.168 190.6C193.496 196.291 191.362 201.818 187.367 205.813C183.372 209.808 177.9 211.942 172.154 211.614C124.436 208.877 92.3691 219.275 79.5093 241.656C66.5948 263.983 73.654 296.926 99.866 336.928C102.985 341.689 103.915 347.544 102.438 352.962C100.96 358.434 97.2394 363.031 92.1502 365.548C49.4667 387.054 26.921 412.062 26.921 437.891C26.921 463.72 49.4667 488.728 92.1502 510.234C97.2394 512.806 100.96 517.403 102.438 522.82C103.915 528.292 102.93 534.148 99.866 538.854C73.654 578.801 66.5948 611.744 79.5093 634.126C92.4238 656.452 124.436 666.85 172.154 664.168C177.846 663.84 183.372 665.974 187.367 669.969C191.362 673.964 193.496 679.491 193.168 685.182C190.432 732.9 200.829 764.967 223.21 777.827C245.537 790.741 278.48 783.682 318.482 757.47C321.766 755.336 325.596 754.187 329.427 754.187V754.351Z" fill="#FF9644" fill-opacity="0.1"/>
<path d="M419.5 816.734C394.273 816.734 369.976 794.845 349.072 753.475C346.719 748.823 342.505 745.376 337.471 744.008C332.437 742.695 327.074 743.515 322.696 746.416C283.952 771.862 251.885 778.592 230.106 766.006C208.271 753.42 198.148 722.283 200.774 675.988C201.048 670.789 199.133 665.7 195.466 662.034C192.019 658.586 187.367 656.671 182.552 656.671C182.223 656.671 181.84 656.671 181.512 656.671C135.217 659.297 104.08 649.174 91.4936 627.34C78.9074 605.505 85.693 573.493 111.084 534.694C113.93 530.317 114.805 524.954 113.492 519.919C112.124 514.885 108.731 510.671 104.08 508.318C62.6548 487.469 40.7659 463.117 40.7659 437.89C40.7659 412.663 62.6548 388.367 104.08 367.463C108.731 365.11 112.179 360.896 113.492 355.861C114.86 350.827 113.985 345.464 111.084 341.086C85.6383 302.343 78.9074 270.276 91.4936 248.441C104.08 226.607 135.162 216.429 181.512 219.11C186.765 219.384 191.8 217.468 195.466 213.802C199.133 210.136 201.048 205.046 200.774 199.848C198.148 153.553 208.271 122.415 230.106 109.829C251.94 97.2431 283.952 104.029 322.696 129.42C327.074 132.265 332.437 133.141 337.471 131.828C342.505 130.46 346.719 127.067 349.072 122.361C369.921 80.9358 394.273 59.1016 419.5 59.1016C444.727 59.1016 469.024 80.9905 489.928 122.361C492.281 127.012 496.494 130.46 501.529 131.828C506.563 133.196 511.926 132.32 516.304 129.42C555.047 103.974 587.115 97.2431 608.894 109.829C630.729 122.415 640.852 153.553 638.226 199.848C637.952 205.046 639.867 210.136 643.534 213.802C647.2 217.468 652.235 219.384 657.488 219.11C703.728 216.483 734.92 226.607 747.506 248.441C760.093 270.276 753.307 302.288 727.916 341.086C725.07 345.464 724.195 350.827 725.508 355.861C726.876 360.896 730.269 365.11 734.92 367.463C776.345 388.312 798.234 412.663 798.234 437.89C798.234 463.117 776.345 487.414 734.92 508.318C730.269 510.671 726.821 514.885 725.508 519.919C724.195 524.954 725.015 530.317 727.916 534.694C753.307 573.438 760.093 605.505 747.506 627.34C734.92 649.174 703.728 659.297 657.488 656.671C652.235 656.397 647.2 658.312 643.534 661.979C639.867 665.645 637.897 670.734 638.226 675.933C640.852 722.228 630.729 753.365 608.894 765.952C587.06 778.538 555.047 771.752 516.304 746.361C511.926 743.515 506.563 742.64 501.529 743.953C496.494 745.321 492.281 748.714 489.928 753.42C469.079 794.845 444.727 816.679 419.5 816.679V816.734ZM332.82 742.53C334.461 742.53 336.103 742.749 337.745 743.187C342.998 744.61 347.43 748.167 349.838 753.037C370.578 794.134 394.656 815.858 419.5 815.858C444.344 815.858 468.422 794.134 489.162 753.037C491.624 748.167 496.002 744.555 501.255 743.187C506.509 741.764 512.145 742.695 516.687 745.704C555.157 770.931 586.896 777.717 608.402 765.295C629.908 752.873 639.922 722.009 637.295 676.043C636.967 670.57 638.992 665.262 642.877 661.432C646.708 657.601 651.961 655.576 657.488 655.905C703.455 658.531 734.318 648.517 746.74 627.011C759.162 605.505 752.377 573.766 727.15 535.296C724.14 530.754 723.264 525.118 724.632 519.865C726.055 514.611 729.612 510.179 734.482 507.771C775.579 487.086 797.304 462.953 797.304 438.109C797.304 413.265 775.579 389.187 734.482 368.448C729.612 365.985 726 361.553 724.632 356.354C723.21 351.101 724.14 345.464 727.15 340.922C752.377 302.452 759.162 270.713 746.74 249.207C734.318 227.701 703.455 217.687 657.488 220.314C652.016 220.642 646.708 218.618 642.877 214.787C639.046 210.956 637.022 205.648 637.295 200.176C639.922 154.209 629.908 123.346 608.402 110.924C586.896 98.5017 555.157 105.287 516.687 130.514C512.145 133.524 506.509 134.4 501.255 133.032C496.002 131.609 491.624 128.052 489.162 123.182C468.422 82.085 444.344 60.3602 419.5 60.3602C394.656 60.3602 370.578 82.085 349.838 123.182C347.376 128.052 342.943 131.664 337.745 133.032C332.491 134.454 326.855 133.524 322.313 130.514C283.843 105.287 252.104 98.5017 230.598 110.924C209.092 123.346 199.078 154.209 201.705 200.176C202.033 205.648 200.008 210.956 196.123 214.787C192.238 218.618 186.93 220.697 181.512 220.369C135.49 217.797 104.682 227.756 92.2597 249.262C79.8377 270.768 86.6233 302.507 111.85 340.977C114.86 345.519 115.736 351.155 114.368 356.409C112.945 361.662 109.388 366.095 104.518 368.502C63.421 389.242 41.6962 413.32 41.6962 438.164C41.6962 463.008 63.421 487.086 104.518 507.826C109.388 510.288 113 514.721 114.368 519.919C115.79 525.173 114.86 530.809 111.85 535.351C86.6233 573.821 79.8377 605.56 92.2597 627.066C104.682 648.572 135.545 658.586 181.512 655.959C186.93 655.686 192.292 657.656 196.123 661.541C199.953 665.372 201.978 670.68 201.705 676.152C199.078 722.119 209.092 752.982 230.598 765.404C252.104 777.826 283.843 771.041 322.313 745.814C325.487 743.734 329.153 742.694 332.82 742.694V742.53Z" fill="#FF9644" fill-opacity="0.1"/>
<path d="M419.5 801.959C395.313 801.959 371.892 780.946 351.863 741.163C349.619 736.675 345.515 733.337 340.7 732.079C335.884 730.765 330.685 731.641 326.527 734.377C289.261 758.783 258.507 765.35 237.548 753.201C216.589 741.108 206.849 711.175 209.366 666.74C209.639 661.706 207.779 656.835 204.277 653.278C200.993 649.995 196.506 648.134 191.8 648.134C191.472 648.134 191.143 648.134 190.815 648.134C146.326 650.652 116.447 640.911 104.353 619.952C92.2597 598.994 98.7717 568.24 123.178 530.974C125.914 526.76 126.79 521.616 125.476 516.746C124.163 511.93 120.88 507.826 116.392 505.582C76.6091 485.554 55.5957 462.133 55.5957 437.945C55.5957 413.758 76.6091 390.337 116.392 370.308C120.88 368.065 124.163 363.961 125.476 359.145C126.79 354.329 125.914 349.131 123.178 344.917C98.7717 307.651 92.2597 276.897 104.353 255.939C116.447 234.98 146.38 225.239 190.815 227.756C195.849 228.03 200.72 226.17 204.277 222.613C207.834 219.056 209.694 214.185 209.366 209.151C206.849 164.661 216.589 134.783 237.548 122.689C258.507 110.596 289.261 117.108 326.527 141.514C330.74 144.25 335.884 145.126 340.754 143.812C345.57 142.499 349.619 139.216 351.918 134.728C371.946 94.9451 395.367 73.9316 419.555 73.9316C443.742 73.9316 467.163 94.9451 487.192 134.728C489.435 139.216 493.539 142.554 498.355 143.812C503.171 145.126 508.369 144.25 512.583 141.514C549.849 117.108 580.603 110.541 601.562 122.689C622.52 134.783 632.261 164.716 629.744 209.151C629.47 214.185 631.331 219.056 634.833 222.613C638.39 226.17 643.315 228.03 648.295 227.702C692.729 225.185 722.662 234.925 734.756 255.884C746.85 276.843 740.338 307.597 715.932 344.863C713.195 349.076 712.32 354.22 713.633 359.09C714.947 363.961 718.23 368.01 722.717 370.254C762.5 390.282 783.514 413.703 783.514 437.891C783.514 462.078 762.5 485.499 722.717 505.528C718.23 507.771 714.947 511.875 713.633 516.691C712.32 521.507 713.195 526.705 715.932 530.919C740.338 568.185 746.85 598.939 734.756 619.898C722.662 640.856 692.729 650.597 648.295 648.08C643.315 647.806 638.39 649.667 634.833 653.169C631.276 656.726 629.415 661.596 629.744 666.631C632.261 711.12 622.52 740.998 601.562 753.092C580.603 765.186 549.849 758.674 512.583 734.268C508.369 731.531 503.225 730.656 498.355 731.969C493.539 733.283 489.435 736.566 487.192 741.053C467.163 780.836 443.742 801.85 419.555 801.85L419.5 801.959ZM336.158 730.711C337.745 730.711 339.332 730.929 340.864 731.312C345.898 732.681 350.112 736.128 352.465 740.779C372.384 780.289 395.532 801.193 419.445 801.193C443.359 801.193 466.507 780.289 486.426 740.779C488.779 736.128 493.047 732.681 498.027 731.312C503.061 729.944 508.479 730.82 512.857 733.72C549.849 757.962 580.329 764.474 601.069 752.545C621.754 740.615 631.385 710.901 628.868 666.74C628.595 661.541 630.51 656.398 634.176 652.731C637.843 649.065 642.987 647.095 648.185 647.423C692.346 649.94 722.006 640.309 733.99 619.624C745.919 598.939 739.462 568.404 715.165 531.411C712.32 527.034 711.444 521.616 712.758 516.582C714.126 511.547 717.573 507.334 722.225 504.98C761.734 485.061 782.638 461.914 782.638 438C782.638 414.086 761.734 390.939 722.225 371.02C717.573 368.667 714.071 364.453 712.758 359.419C711.39 354.384 712.265 348.967 715.165 344.589C739.408 307.597 745.919 277.061 733.99 256.376C722.006 235.691 692.401 226.06 648.185 228.577C642.987 228.851 637.843 226.936 634.176 223.269C630.51 219.603 628.54 214.459 628.868 209.26C631.385 165.099 621.754 135.44 601.069 123.455C580.329 111.526 549.849 117.983 512.857 142.28C508.479 145.126 503.061 146.001 498.027 144.688C492.992 143.32 488.779 139.872 486.426 135.221C466.507 95.7112 443.359 74.8072 419.445 74.8072C395.532 74.8072 372.384 95.7112 352.465 135.221C350.112 139.872 345.844 143.32 340.864 144.688C335.829 146.056 330.412 145.18 326.034 142.28C289.042 118.038 258.507 111.526 237.822 123.455C217.136 135.385 207.505 165.099 210.022 209.26C210.296 214.459 208.381 219.603 204.714 223.269C201.048 226.936 195.904 228.906 190.705 228.577C146.544 226.06 116.83 235.691 104.901 256.376C92.9711 277.061 99.4284 307.597 123.725 344.589C126.571 348.967 127.446 354.384 126.133 359.364C124.765 364.398 121.317 368.612 116.666 370.965C77.1564 390.884 56.2524 414.032 56.2524 437.945C56.2524 461.859 77.1564 485.007 116.666 504.926C121.317 507.279 124.765 511.492 126.133 516.527C127.501 521.561 126.625 526.979 123.725 531.357C99.4831 568.349 92.9711 598.884 104.901 619.569C116.83 640.254 146.49 649.885 190.705 647.368C195.904 647.095 201.048 649.01 204.714 652.676C208.381 656.343 210.351 661.487 210.022 666.685C207.505 710.846 217.136 740.506 237.822 752.49C258.561 764.42 289.042 757.962 326.034 733.666C329.044 731.696 332.601 730.656 336.103 730.656L336.158 730.711Z" fill="#FF9644" fill-opacity="0.1"/>
<path d="M419.5 787.238C396.298 787.238 373.862 767.046 354.599 728.904C352.41 724.581 348.525 721.407 343.874 720.149C339.222 718.89 334.242 719.711 330.193 722.337C294.459 745.759 264.964 751.997 244.826 740.396C224.688 728.795 215.385 700.12 217.793 657.437C218.067 652.621 216.261 647.915 212.868 644.522C209.694 641.348 205.371 639.597 200.884 639.597C200.555 639.597 200.227 639.597 199.899 639.597C157.27 642.06 128.541 632.702 116.94 612.564C105.338 592.481 111.577 562.931 134.998 527.197C137.625 523.148 138.446 518.168 137.187 513.517C135.928 508.865 132.754 504.98 128.431 502.791C90.2898 483.583 70.0972 461.147 70.0972 437.89C70.0972 414.633 90.2898 392.252 128.431 373.044C132.754 370.855 135.928 366.97 137.187 362.318C138.446 357.667 137.625 352.687 134.998 348.638C111.577 312.904 105.338 283.409 116.94 263.271C128.541 243.188 157.27 233.83 199.899 236.238C200.227 236.238 200.555 236.238 200.884 236.238C205.371 236.238 209.694 234.487 212.868 231.313C216.261 227.92 218.067 223.214 217.793 218.398C215.385 175.715 224.688 147.04 244.826 135.439C264.909 123.838 294.459 130.076 330.193 153.498C334.242 156.124 339.222 156.945 343.874 155.686C348.525 154.428 352.41 151.254 354.599 146.931C373.807 108.789 396.243 88.5967 419.5 88.5967C442.757 88.5967 465.139 108.789 484.401 146.931C486.59 151.254 490.475 154.428 495.126 155.686C499.778 156.945 504.758 156.124 508.807 153.498C544.541 130.076 574.036 123.838 594.174 135.439C614.257 147.04 623.615 175.715 621.207 218.398C620.933 223.214 622.739 227.92 626.132 231.313C629.306 234.487 633.629 236.238 638.116 236.238C638.445 236.238 638.773 236.238 639.101 236.238C681.73 233.83 710.459 243.133 722.06 263.271C733.662 283.354 727.423 312.904 704.002 348.638C701.375 352.687 700.555 357.667 701.813 362.318C703.072 366.97 706.246 370.855 710.569 373.044C748.71 392.252 768.903 414.688 768.903 437.89C768.903 461.092 748.71 483.529 710.569 502.736C706.246 504.925 703.072 508.81 701.813 513.462C700.555 518.113 701.375 523.093 704.002 527.142C727.423 562.876 733.662 592.372 722.06 612.51C710.459 632.647 681.73 641.95 639.101 639.542C638.773 639.542 638.445 639.542 638.116 639.542C633.629 639.542 629.306 641.294 626.132 644.467C622.739 647.86 620.933 652.566 621.207 657.382C623.615 700.065 614.312 728.74 594.174 740.341C574.091 751.942 544.541 745.704 508.807 722.283C504.758 719.656 499.778 718.835 495.126 720.094C490.475 721.352 486.59 724.526 484.401 728.849C465.193 766.991 442.757 787.184 419.5 787.184V787.238ZM339.551 718.945C341.083 718.945 342.56 719.164 344.092 719.547C348.908 720.86 352.958 724.143 355.201 728.631C374.299 766.553 396.571 786.636 419.5 786.636C442.429 786.636 464.701 766.608 483.799 728.631C486.043 724.143 490.092 720.86 494.908 719.547C499.723 718.233 504.867 719.109 509.081 721.845C544.596 745.157 573.872 751.395 593.736 739.903C613.601 728.412 622.849 699.956 620.441 657.546C620.167 652.566 622.028 647.641 625.53 644.139C628.813 640.856 633.301 638.995 637.952 638.995C638.28 638.995 638.609 638.995 638.937 638.995C681.347 641.403 709.803 632.155 721.294 612.291C732.786 592.426 726.548 563.15 703.236 527.58C700.5 523.367 699.679 518.223 700.938 513.407C702.251 508.592 705.534 504.542 710.022 502.298C747.944 483.2 768.027 460.928 768.027 438C768.027 415.071 747.999 392.799 710.022 373.701C705.534 371.457 702.251 367.408 700.938 362.592C699.624 357.776 700.5 352.633 703.236 348.419C726.548 312.904 732.786 283.628 721.294 263.709C709.803 243.844 681.347 234.596 638.937 237.004C633.957 237.278 629.032 235.417 625.53 231.915C622.028 228.413 620.167 223.488 620.441 218.508C622.849 176.098 613.601 147.642 593.736 136.15C573.872 124.659 544.596 130.897 509.081 154.209C504.867 156.945 499.723 157.766 494.908 156.507C490.092 155.194 486.043 151.911 483.799 147.423C464.701 109.501 442.429 89.4722 419.5 89.4722C396.571 89.4722 374.299 109.501 355.201 147.423C352.958 151.911 348.908 155.194 344.092 156.507C339.277 157.821 334.078 156.945 329.919 154.209C294.404 130.897 265.128 124.659 245.209 136.15C225.345 147.642 216.097 176.098 218.504 218.508C218.778 223.488 216.917 228.413 213.415 231.915C209.913 235.417 204.988 237.278 200.008 237.004C157.598 234.596 129.088 243.844 117.651 263.709C106.159 283.573 112.398 312.849 135.709 348.419C138.446 352.633 139.321 357.776 138.008 362.592C136.694 367.408 133.411 371.457 128.924 373.701C91.0011 392.799 70.918 415.071 70.918 438C70.918 460.928 90.9464 483.2 128.924 502.298C133.411 504.542 136.694 508.592 138.008 513.407C139.321 518.223 138.446 523.367 135.709 527.58C112.398 563.095 106.159 592.372 117.651 612.291C129.143 632.155 157.598 641.403 200.008 638.995C200.337 638.995 200.665 638.995 200.993 638.995C205.645 638.995 210.132 640.856 213.415 644.139C216.972 647.641 218.833 652.566 218.504 657.546C216.097 699.956 225.345 728.412 245.209 739.903C265.073 751.395 294.35 745.157 329.919 721.845C332.82 719.93 336.158 718.945 339.551 718.945Z" fill="#FF9644" fill-opacity="0.1"/>
<path d="M419.5 772.464C397.283 772.464 375.831 753.146 357.39 716.592C355.311 712.433 351.535 709.369 347.102 708.219C342.67 707.016 337.854 707.782 333.969 710.354C299.767 732.79 271.531 738.754 252.268 727.646C233.006 716.537 224.086 689.066 226.384 648.244C226.658 643.592 224.907 639.105 221.678 635.821C218.395 632.538 213.853 630.842 209.256 631.115C168.379 633.414 140.963 624.494 129.854 605.232C118.745 585.969 124.71 557.733 147.146 523.531C149.664 519.646 150.484 514.885 149.281 510.398C148.077 505.965 145.012 502.189 140.908 500.11C104.353 481.723 85.0364 460.217 85.0364 438C85.0364 415.783 104.353 394.331 140.908 375.89C145.067 373.81 148.131 370.035 149.281 365.602C150.484 361.169 149.718 356.354 147.146 352.469C124.71 318.267 118.745 289.976 129.854 270.768C140.963 251.506 168.433 242.586 209.256 244.884C209.585 244.884 209.858 244.884 210.187 244.884C214.51 244.884 218.614 243.188 221.678 240.123C224.962 236.84 226.658 232.353 226.384 227.701C224.086 186.878 233.006 159.408 252.268 148.299C271.531 137.19 299.767 143.155 333.969 165.591C337.854 168.109 342.615 168.93 347.102 167.726C351.589 166.522 355.311 163.457 357.39 159.353C375.831 122.798 397.283 103.481 419.5 103.481C441.717 103.481 463.169 122.798 481.61 159.353C483.689 163.512 487.465 166.576 491.898 167.726C496.385 168.93 501.146 168.163 505.031 165.591C539.233 143.155 567.47 137.136 586.732 148.299C605.994 159.408 614.914 186.878 612.561 227.701C612.287 232.353 614.038 236.84 617.267 240.123C620.331 243.188 624.49 244.884 628.759 244.884C629.087 244.884 629.361 244.884 629.689 244.884C670.512 242.586 697.983 251.506 709.091 270.768C720.2 290.03 714.235 318.267 691.799 352.469C689.282 356.354 688.461 361.115 689.665 365.602C690.869 370.035 693.933 373.81 698.037 375.89C734.592 394.331 753.909 415.783 753.909 438C753.909 460.217 734.592 481.668 698.037 500.11C693.878 502.189 690.814 505.965 689.665 510.398C688.461 514.83 689.227 519.646 691.799 523.531C714.235 557.733 720.2 585.969 709.091 605.232C697.983 624.494 670.512 633.414 629.689 631.115C629.361 631.115 629.087 631.115 628.759 631.115C624.436 631.115 620.331 632.812 617.267 635.876C613.984 639.16 612.287 643.647 612.561 648.298C614.859 689.121 605.939 716.592 586.732 727.701C567.47 738.809 539.233 732.844 505.031 710.408C501.146 707.891 496.385 707.07 491.898 708.274C487.465 709.478 483.689 712.542 481.61 716.647C463.169 753.201 441.717 772.518 419.5 772.518V772.464ZM342.889 707.125C344.311 707.125 345.789 707.289 347.212 707.672C351.808 708.931 355.694 712.05 357.828 716.318C376.16 752.654 397.447 771.862 419.445 771.862C441.444 771.862 462.786 752.654 481.063 716.318C483.197 712.05 487.082 708.876 491.679 707.672C496.276 706.414 501.255 707.234 505.25 709.861C539.288 732.188 567.36 738.153 586.404 727.153C605.447 716.154 614.312 688.848 612.014 648.244C611.74 643.483 613.546 638.776 616.884 635.438C620.058 632.319 624.326 630.513 628.759 630.513C629.087 630.513 629.415 630.513 629.689 630.513C670.348 632.812 697.6 623.947 708.599 604.903C719.598 585.86 713.633 557.787 691.306 523.75C688.68 519.755 687.914 514.83 689.118 510.179C690.376 505.582 693.495 501.697 697.764 499.563C734.099 481.231 753.307 459.944 753.307 437.945C753.307 415.947 734.099 394.605 697.764 376.328C693.495 374.193 690.322 370.308 689.118 365.711C687.914 361.115 688.68 356.19 691.306 352.14C713.633 318.103 719.598 290.03 708.599 270.987C697.6 251.943 670.293 243.078 629.689 245.377C629.361 245.377 629.032 245.377 628.759 245.377C624.326 245.377 620.058 243.626 616.884 240.452C613.491 237.059 611.74 232.408 612.014 227.647C614.312 186.988 605.502 159.736 586.404 148.737C567.36 137.738 539.288 143.702 505.25 166.029C501.255 168.656 496.33 169.477 491.679 168.218C487.082 166.959 483.197 163.84 481.063 159.572C462.731 123.236 441.444 104.029 419.445 104.029C397.447 104.029 376.105 123.236 357.828 159.572C355.694 163.84 351.808 167.014 347.212 168.218C342.615 169.422 337.69 168.656 333.695 166.029C299.658 143.702 271.585 137.738 252.542 148.737C233.498 159.736 224.633 187.043 226.932 227.647C227.205 232.408 225.399 237.114 222.061 240.452C218.669 243.845 214.072 245.596 209.256 245.322C205.043 245.103 200.939 244.939 197.053 244.939C163.125 244.939 140.197 253.804 130.347 270.877C119.347 289.921 125.312 317.994 147.639 352.031C150.266 356.026 151.086 360.951 149.828 365.547C148.569 370.144 145.45 374.029 141.182 376.163C104.846 394.495 85.6383 415.783 85.6383 437.781C85.6383 459.779 104.846 481.121 141.182 499.398C145.45 501.533 148.624 505.418 149.828 510.015C151.032 514.611 150.266 519.536 147.639 523.586C125.312 557.623 119.347 585.696 130.347 604.739C141.346 623.783 168.652 632.593 209.256 630.349C214.072 630.076 218.723 631.827 222.061 635.22C225.454 638.612 227.205 643.264 226.932 648.025C224.633 688.683 233.498 715.935 252.542 726.934C271.585 737.934 299.658 731.969 333.695 709.642C336.486 707.836 339.66 706.906 342.943 706.906L342.889 707.125Z" fill="#FF9644" fill-opacity="0.1"/>
<path d="M419.5 757.743C398.268 757.743 377.747 739.302 360.181 704.389C358.156 700.394 354.599 697.494 350.331 696.345C346.062 695.196 341.466 695.962 337.745 698.37C305.075 719.821 278.042 725.512 259.656 714.896C241.269 704.28 232.732 678.068 234.976 638.996C235.249 634.563 233.553 630.24 230.434 627.066C227.315 623.947 222.937 622.305 218.504 622.524C214.455 622.743 210.57 622.853 206.794 622.853C174.179 622.853 152.126 614.261 142.604 597.79C131.988 579.403 137.734 552.425 159.13 519.701C161.593 515.98 162.304 511.383 161.155 507.115C160.006 502.846 157.051 499.235 153.111 497.265C118.198 479.699 99.7566 459.178 99.7566 437.945C99.7566 416.713 118.198 396.192 153.111 378.626C157.106 376.602 160.006 373.045 161.155 368.776C162.304 364.508 161.538 359.911 159.13 356.19C137.679 323.466 131.988 296.488 142.604 278.101C153.22 259.714 179.487 251.178 218.504 253.421C218.778 253.421 219.106 253.421 219.38 253.421C223.484 253.421 227.479 251.78 230.379 248.879C233.498 245.76 235.14 241.382 234.921 236.95C232.677 197.933 241.214 171.666 259.601 161.05C277.988 150.434 304.966 156.18 337.69 177.576C341.411 180.039 345.953 180.75 350.276 179.601C354.544 178.452 358.156 175.497 360.126 171.557C377.692 136.644 398.213 118.202 419.445 118.202C440.677 118.202 461.198 136.644 478.764 171.557C480.789 175.551 484.346 178.452 488.614 179.601C492.883 180.75 497.479 179.984 501.201 177.576C533.925 156.125 560.903 150.434 579.289 161.05C597.676 171.666 606.213 197.878 603.969 236.95C603.696 241.382 605.392 245.705 608.511 248.879C611.63 251.999 616.008 253.695 620.441 253.421C624.49 253.202 628.376 253.093 632.151 253.093C664.766 253.093 686.819 261.684 696.341 278.156C706.957 296.543 701.211 323.521 679.815 356.245C677.352 359.966 676.641 364.563 677.79 368.831C678.939 373.099 681.894 376.711 685.834 378.736C720.747 396.356 739.188 416.823 739.188 438.055C739.188 459.287 720.747 479.808 685.834 497.374C681.839 499.399 678.939 502.956 677.79 507.279C676.641 511.547 677.407 516.144 679.815 519.865C701.266 552.534 706.957 579.567 696.341 597.954C685.725 616.341 659.458 624.877 620.441 622.634C616.063 622.36 611.685 624.002 608.511 627.176C605.337 630.35 603.75 634.673 603.969 639.105C606.213 678.122 597.621 704.389 579.289 715.005C560.903 725.621 533.925 719.875 501.201 698.479C497.479 696.016 492.937 695.305 488.614 696.454C484.346 697.603 480.734 700.558 478.764 704.498C461.198 739.411 440.677 757.853 419.445 757.853L419.5 757.743ZM346.281 695.36C347.649 695.36 349.017 695.524 350.385 695.907C354.763 697.111 358.484 700.121 360.509 704.17C378.02 738.919 398.432 757.306 419.445 757.306C440.459 757.306 460.87 738.919 478.381 704.17C480.461 700.066 484.127 697.056 488.505 695.907C492.937 694.758 497.589 695.469 501.419 697.987C533.979 719.328 560.793 725.074 579.071 714.513C597.293 704.006 605.775 677.903 603.586 638.996C603.313 634.454 605.009 629.967 608.238 626.793C611.247 623.783 615.297 622.141 619.565 622.141C619.894 622.141 620.167 622.141 620.495 622.141C659.348 624.385 685.451 615.903 696.012 597.626C706.519 579.403 700.828 552.534 679.486 519.974C676.969 516.144 676.203 511.438 677.407 507.06C678.611 502.682 681.62 498.961 685.67 496.936C720.419 479.425 738.805 459.014 738.805 438C738.805 416.987 720.419 396.575 685.67 379.064C681.566 376.985 678.611 373.318 677.407 368.94C676.258 364.563 676.969 359.856 679.486 356.026C700.828 323.466 706.574 296.652 696.012 278.375C685.506 260.152 659.348 251.67 620.495 253.859C620.167 253.859 619.894 253.859 619.565 253.859C615.352 253.859 611.247 252.163 608.238 249.208C605.009 245.979 603.313 241.547 603.586 237.005C605.775 198.152 597.348 172.049 579.071 161.488C560.848 150.981 533.979 156.672 501.419 178.014C497.589 180.531 492.883 181.297 488.505 180.093C484.127 178.944 480.406 175.88 478.381 171.83C460.87 137.081 440.459 118.695 419.445 118.695C398.432 118.695 378.02 137.081 360.509 171.83C358.43 175.934 354.763 178.944 350.385 180.093C346.008 181.297 341.301 180.531 337.471 178.014C304.911 156.672 278.097 150.926 259.82 161.488C241.597 171.994 233.115 198.097 235.304 237.005C235.578 241.547 233.881 246.034 230.653 249.208C227.643 252.217 223.594 253.859 219.325 253.859C219.052 253.859 218.723 253.859 218.395 253.859C179.487 251.67 153.439 260.097 142.878 278.375C132.316 296.652 138.062 323.466 159.404 356.026C161.921 359.856 162.687 364.563 161.484 368.94C160.28 373.318 157.27 377.039 153.22 379.064C118.472 396.575 100.085 416.987 100.085 438C100.085 459.014 118.472 479.425 153.22 496.936C157.325 499.016 160.334 502.682 161.484 507.06C162.633 511.438 161.921 516.144 159.404 519.974C138.062 552.534 132.316 579.348 142.878 597.626C153.385 615.848 179.542 624.33 218.395 622.141C218.723 622.141 218.997 622.141 219.325 622.141C223.539 622.141 227.643 623.838 230.653 626.793C233.881 630.021 235.578 634.454 235.304 638.996C233.115 677.849 241.542 703.951 259.82 714.513C278.042 725.019 304.911 719.328 337.471 697.987C340.098 696.235 343.162 695.36 346.281 695.36Z" fill="#FF9644" fill-opacity="0.1"/>
<path d="M419.5 742.968C399.253 742.968 379.717 725.347 362.917 692.076C361.002 688.3 357.554 685.455 353.45 684.36C349.346 683.266 344.968 683.977 341.411 686.275C310.219 706.742 284.5 712.159 266.988 702.035C249.477 691.912 241.324 666.904 243.458 629.692C243.677 625.424 242.145 621.32 239.135 618.31C236.344 615.519 232.513 613.932 228.573 613.932C228.3 613.932 228.026 613.932 227.753 613.932C190.541 616.012 165.533 607.913 155.409 590.402C145.286 572.89 150.758 547.116 171.169 515.979C173.523 512.422 174.234 508.044 173.139 503.94C172.045 499.836 169.254 496.388 165.424 494.473C132.152 477.673 114.532 458.137 114.532 437.89C114.532 417.643 132.152 398.107 165.424 381.307C169.199 379.392 172.045 375.944 173.139 371.84C174.234 367.736 173.523 363.358 171.169 359.801C150.758 328.609 145.286 302.89 155.409 285.379C165.533 267.867 190.541 259.714 227.753 261.848C228.026 261.848 228.3 261.848 228.573 261.848C232.513 261.848 236.344 260.261 239.135 257.47C242.145 254.46 243.677 250.302 243.458 246.088C241.324 208.877 249.477 183.869 266.988 173.745C284.5 163.621 310.219 169.093 341.411 189.56C344.968 191.913 349.346 192.624 353.45 191.475C357.554 190.38 361.002 187.59 362.917 183.759C379.717 150.488 399.253 132.867 419.5 132.867C439.747 132.867 459.283 150.488 476.083 183.759C477.998 187.535 481.446 190.38 485.55 191.475C489.654 192.569 494.032 191.858 497.589 189.56C528.781 169.093 554.5 163.676 572.011 173.745C589.523 183.869 597.676 208.877 595.542 246.088C595.323 250.356 596.855 254.46 599.865 257.47C602.656 260.261 606.487 261.848 610.427 261.848C610.7 261.848 610.974 261.848 611.247 261.848C648.459 259.714 673.467 267.867 683.591 285.379C693.714 302.89 688.242 328.609 667.831 359.801C665.477 363.358 664.766 367.736 665.86 371.84C666.955 375.944 669.746 379.392 673.576 381.307C706.848 398.107 724.468 417.643 724.468 437.89C724.468 458.137 706.848 477.673 673.576 494.473C669.8 496.388 666.955 499.836 665.86 503.94C664.766 508.044 665.477 512.422 667.831 515.979C688.297 547.171 693.714 572.89 683.591 590.402C674.507 606.107 653.493 614.261 622.411 614.261C618.799 614.261 615.078 614.151 611.247 613.932C610.974 613.932 610.7 613.932 610.427 613.932C606.487 613.932 602.656 615.519 599.865 618.31C596.855 621.32 595.268 625.479 595.542 629.692C597.676 666.904 589.523 691.912 572.011 702.035C554.5 712.159 528.781 706.687 497.589 686.275C494.032 683.922 489.654 683.266 485.55 684.305C481.446 685.4 477.998 688.191 476.083 692.021C459.283 725.292 439.747 742.913 419.5 742.913V742.968ZM349.674 683.539C350.987 683.539 352.301 683.703 353.614 684.032C357.773 685.126 361.33 688.026 363.245 691.912C379.99 725.074 399.417 742.64 419.555 742.64C439.693 742.64 459.119 725.128 475.864 691.912C477.834 688.026 481.336 685.181 485.495 684.032C489.654 682.937 494.141 683.649 497.808 686.002C528.89 706.359 554.5 711.831 571.902 701.762C589.304 691.693 597.403 666.794 595.268 629.692C594.995 625.369 596.637 621.101 599.701 618.036C602.765 614.972 606.979 613.33 611.357 613.604C615.187 613.823 618.909 613.932 622.52 613.932C653.493 613.932 674.397 605.833 683.426 590.237C693.495 572.836 688.023 547.226 667.666 516.143C665.313 512.532 664.547 508.044 665.696 503.831C666.791 499.672 669.691 496.115 673.576 494.2C706.738 477.454 724.304 458.028 724.304 437.89C724.304 417.752 706.793 398.326 673.576 381.581C669.691 379.611 666.845 376.109 665.696 371.95C664.547 367.791 665.313 363.303 667.666 359.637C688.023 328.555 693.495 302.945 683.426 285.543C674.452 269.947 653.493 261.848 622.52 261.848C618.909 261.848 615.187 261.957 611.357 262.176C611.083 262.176 610.755 262.176 610.481 262.176C606.432 262.176 602.547 260.589 599.701 257.744C596.637 254.679 595.05 250.466 595.268 246.088C597.348 208.986 589.304 184.087 571.902 174.018C554.5 163.95 528.835 169.422 497.808 189.779C494.196 192.186 489.709 192.898 485.495 191.749C481.336 190.654 477.779 187.754 475.864 183.869C459.119 150.707 439.693 133.141 419.555 133.141C399.417 133.141 379.99 150.652 363.245 183.869C361.275 187.754 357.773 190.599 353.614 191.749C349.455 192.898 344.968 192.132 341.302 189.779C310.219 169.422 284.609 163.95 267.207 174.018C249.806 184.087 241.707 208.986 243.841 246.088C244.115 250.411 242.473 254.679 239.408 257.689C236.563 260.535 232.678 262.122 228.628 262.122C228.354 262.122 228.026 262.122 227.753 262.122C223.922 261.903 220.201 261.793 216.589 261.793C185.616 261.793 164.712 269.892 155.683 285.488C145.614 302.89 151.086 328.5 171.443 359.582C173.851 363.194 174.562 367.681 173.413 371.84C172.319 375.999 169.418 379.556 165.533 381.471C132.371 398.216 114.805 417.643 114.805 437.781C114.805 457.919 132.317 477.345 165.533 494.09C169.418 496.06 172.264 499.562 173.413 503.721C174.508 507.88 173.796 512.367 171.443 515.979C151.086 547.061 145.614 572.672 155.683 590.073C165.752 607.475 190.651 615.574 227.753 613.44C228.026 613.44 228.354 613.44 228.628 613.44C232.678 613.44 236.563 615.027 239.408 617.872C242.473 620.937 244.06 625.15 243.841 629.473C241.707 666.575 249.806 691.474 267.207 701.543C284.609 711.612 310.219 706.14 341.302 685.783C343.819 684.141 346.719 683.266 349.674 683.266V683.539Z" fill="#FF9644" fill-opacity="0.1"/>
<path d="M419.5 728.193C400.292 728.193 381.687 711.448 365.708 679.764C363.902 676.152 360.618 673.471 356.678 672.431C352.793 671.391 348.58 672.048 345.187 674.292C315.527 693.718 291.066 698.917 274.376 689.34C257.74 679.709 249.97 655.905 251.994 620.499C252.213 616.45 250.736 612.455 247.835 609.61C245.154 606.928 241.542 605.451 237.767 605.451C237.493 605.451 237.219 605.451 236.946 605.451C233.279 605.67 229.722 605.779 226.33 605.779C196.779 605.779 176.751 598.008 168.16 583.069C158.528 566.434 163.727 541.918 183.208 512.258C185.452 508.866 186.109 504.652 185.069 500.767C184.029 496.881 181.348 493.598 177.736 491.737C146.052 475.758 129.307 457.153 129.307 437.945C129.307 418.738 146.052 400.132 177.736 384.153C181.348 382.347 184.029 379.064 185.069 375.124C186.109 371.238 185.452 367.025 183.208 363.632C163.782 333.973 158.583 309.512 168.16 292.821C177.791 276.186 201.595 268.415 237 270.44C237.274 270.44 237.548 270.44 237.821 270.44C241.597 270.44 245.209 268.962 247.89 266.281C250.736 263.435 252.268 259.441 252.049 255.391C250.024 219.986 257.795 196.181 274.431 186.55C291.066 176.919 315.582 182.118 345.241 201.599C348.634 203.843 352.848 204.499 356.733 203.459C360.618 202.42 363.902 199.738 365.762 196.127C381.741 164.442 400.347 147.697 419.555 147.697C438.762 147.697 457.422 164.442 473.347 196.127C475.153 199.738 478.436 202.42 482.376 203.459C486.261 204.499 490.475 203.843 493.868 201.599C523.527 182.172 548.043 176.974 564.678 186.55C581.314 196.181 589.085 219.986 587.06 255.391C586.841 259.441 588.319 263.435 591.219 266.281C593.9 268.962 597.512 270.44 601.288 270.44C601.561 270.44 601.835 270.44 602.109 270.44C605.775 270.221 609.332 270.111 612.725 270.111C642.275 270.111 662.303 277.882 670.895 292.821C680.526 309.457 675.327 333.973 655.846 363.632C653.602 367.025 652.946 371.238 653.986 375.124C655.025 379.009 657.707 382.292 661.318 384.153C693.003 400.132 709.748 418.738 709.748 437.945C709.748 457.153 693.003 475.758 661.318 491.737C657.707 493.543 655.025 496.881 653.986 500.767C652.946 504.652 653.602 508.866 655.846 512.258C675.273 541.918 680.471 566.379 670.895 583.069C662.249 598.008 642.275 605.779 612.725 605.779C609.332 605.779 605.775 605.67 602.109 605.451C601.835 605.451 601.561 605.451 601.288 605.451C597.512 605.451 593.9 606.928 591.219 609.61C588.373 612.455 586.841 616.45 587.06 620.499C589.085 655.905 581.314 679.709 564.678 689.34C548.043 698.971 523.527 693.773 493.868 674.292C490.475 672.048 486.261 671.391 482.376 672.431C478.491 673.471 475.207 676.152 473.347 679.764C457.368 711.448 438.762 728.193 419.555 728.193H419.5ZM353.012 671.72C354.271 671.72 355.529 671.884 356.733 672.212C360.673 673.252 364.011 675.988 365.872 679.654C381.796 711.229 400.347 727.974 419.5 727.974C438.653 727.974 457.204 711.284 473.128 679.654C474.988 675.988 478.326 673.252 482.266 672.212C486.207 671.118 490.475 671.829 493.922 674.073C523.527 693.499 547.933 698.643 564.514 689.067C581.095 679.49 588.811 655.741 586.786 620.445C586.568 616.34 588.1 612.291 591 609.391C593.736 606.655 597.403 605.177 601.233 605.177C601.507 605.177 601.78 605.177 602.054 605.177C605.72 605.396 609.277 605.505 612.67 605.505C642.111 605.505 662.084 597.789 670.676 582.905C680.252 566.324 675.054 541.918 655.682 512.313C653.438 508.865 652.727 504.597 653.821 500.657C654.861 496.717 657.597 493.379 661.264 491.518C692.839 475.594 709.584 457.043 709.584 437.89C709.584 418.738 692.893 400.187 661.264 384.262C657.597 382.402 654.861 379.064 653.821 375.124C652.782 371.184 653.438 366.915 655.682 363.468C675.054 333.863 680.252 309.457 670.676 292.876C661.099 276.295 637.35 268.579 602.054 270.604C601.78 270.604 601.507 270.604 601.233 270.604C597.403 270.604 593.736 269.072 591 266.39C588.1 263.49 586.568 259.441 586.786 255.336C588.811 219.986 581.095 196.291 564.514 186.714C547.933 177.138 523.527 182.337 493.922 201.708C490.475 203.952 486.207 204.663 482.266 203.569C478.326 202.529 474.988 199.793 473.128 196.127C457.204 164.552 438.653 147.807 419.5 147.807C400.347 147.807 381.796 164.497 365.872 196.127C364.011 199.793 360.673 202.529 356.733 203.569C352.793 204.609 348.525 203.952 345.077 201.708C315.472 182.282 291.066 177.083 274.485 186.714C257.904 196.291 250.189 220.04 252.213 255.336C252.432 259.441 250.9 263.49 248 266.39C245.264 269.072 241.597 270.604 237.767 270.604C237.493 270.604 237.219 270.604 236.946 270.604C233.279 270.385 229.722 270.276 226.33 270.276C196.834 270.276 176.915 277.991 168.324 292.876C158.747 309.457 163.946 333.863 183.318 363.468C185.561 366.915 186.273 371.184 185.178 375.124C184.139 379.064 181.402 382.402 177.736 384.262C146.161 400.187 129.416 418.738 129.416 437.89C129.416 457.043 146.106 475.594 177.736 491.518C181.402 493.379 184.139 496.717 185.178 500.657C186.218 504.597 185.561 508.865 183.318 512.313C163.946 541.918 158.747 566.324 168.324 582.905C176.915 597.789 196.834 605.505 226.33 605.505C229.722 605.505 233.279 605.396 236.946 605.177C237.219 605.177 237.493 605.177 237.767 605.177C241.597 605.177 245.264 606.709 248 609.391C250.9 612.291 252.432 616.34 252.213 620.445C250.189 655.795 257.904 679.49 274.485 689.067C291.066 698.643 315.472 693.444 345.077 674.073C347.485 672.486 350.221 671.72 353.012 671.72Z" fill="#FF9644" fill-opacity="0.1"/>
<path d="M419.5 713.473C401.277 713.473 383.602 697.603 368.444 667.561C366.693 664.113 363.574 661.541 359.852 660.556C356.131 659.571 352.137 660.228 348.908 662.307C320.781 680.749 297.578 685.674 281.763 676.59C265.949 667.451 258.616 644.906 260.531 611.306C260.75 607.421 259.327 603.645 256.591 600.964C254.074 598.446 250.572 597.024 247.015 597.024C246.741 597.024 246.522 597.024 246.249 597.024C212.649 598.939 190.049 591.606 180.965 575.791C171.826 559.976 176.806 536.774 195.247 508.647C197.381 505.418 197.983 501.423 196.998 497.702C196.013 493.981 193.441 490.862 189.994 489.111C159.951 473.953 144.082 456.332 144.082 438.055C144.082 419.777 159.951 402.157 189.994 386.999C193.441 385.248 196.013 382.128 196.998 378.407C197.983 374.686 197.327 370.691 195.247 367.463C176.806 339.336 171.881 316.078 180.965 300.318C190.103 284.504 212.649 277.171 246.249 279.086C246.522 279.086 246.741 279.086 247.015 279.086C250.626 279.086 254.074 277.663 256.591 275.146C259.327 272.41 260.75 268.634 260.531 264.804C258.616 231.204 265.949 208.658 281.763 199.52C297.578 190.381 320.781 195.306 348.908 213.802C352.137 215.936 356.131 216.593 359.852 215.553C363.574 214.568 366.693 211.996 368.444 208.549C383.602 178.506 401.223 162.637 419.5 162.637C437.777 162.637 455.398 178.506 470.556 208.549C472.307 211.996 475.426 214.568 479.147 215.553C482.868 216.538 486.863 215.882 490.092 213.802C518.219 195.361 541.476 190.436 557.236 199.52C573.051 208.658 580.384 231.204 578.469 264.804C578.25 268.689 579.672 272.465 582.409 275.146C584.926 277.663 588.428 279.086 591.985 279.086C592.259 279.086 592.478 279.086 592.751 279.086C626.351 277.171 648.896 284.504 658.035 300.318C667.174 316.133 662.194 339.336 643.752 367.463C641.618 370.691 641.016 374.686 642.001 378.407C642.986 382.128 645.558 385.248 649.006 386.999C679.048 402.157 694.918 419.777 694.918 438.055C694.918 456.332 679.048 473.953 649.006 489.111C645.558 490.862 642.986 493.981 642.001 497.702C641.016 501.423 641.673 505.418 643.752 508.647C662.194 536.774 667.119 560.031 658.035 575.791C648.896 591.606 626.351 598.939 592.751 597.024C588.866 596.805 585.09 598.227 582.409 600.964C579.672 603.7 578.25 607.476 578.469 611.306C580.384 644.906 573.051 667.451 557.236 676.59C541.422 685.729 518.219 680.804 490.092 662.307C486.863 660.173 482.868 659.517 479.147 660.556C475.426 661.541 472.307 664.113 470.556 667.561C455.398 697.603 437.777 713.473 419.5 713.473ZM356.405 659.954C357.554 659.954 358.758 660.119 359.907 660.392C363.683 661.377 366.802 663.949 368.553 667.451C383.657 697.439 401.277 713.309 419.5 713.309C437.722 713.309 455.288 697.439 470.447 667.451C472.198 663.949 475.372 661.377 479.093 660.392C482.868 659.407 486.863 660.064 490.147 662.198C518.274 680.64 541.422 685.564 557.182 676.426C572.942 667.342 580.274 644.796 578.359 611.251C578.14 607.366 579.563 603.536 582.354 600.799C584.926 598.227 588.428 596.805 592.04 596.805C592.313 596.805 592.532 596.805 592.806 596.805C596.308 597.024 599.646 597.078 602.875 597.078C630.893 597.078 649.827 589.745 657.98 575.627C667.064 559.867 662.139 536.665 643.752 508.592C641.618 505.309 640.962 501.314 641.947 497.538C642.932 493.762 645.504 490.643 649.006 488.892C678.994 473.789 694.863 456.168 694.863 437.945C694.863 419.723 678.994 402.157 649.006 386.999C645.504 385.248 642.932 382.074 641.947 378.353C640.962 374.577 641.618 370.582 643.752 367.299C662.194 339.171 667.119 316.024 657.98 300.264C648.896 284.504 626.351 277.171 592.806 279.086C592.532 279.086 592.259 279.086 592.04 279.086C588.428 279.086 584.926 277.663 582.354 275.091C579.618 272.355 578.14 268.525 578.359 264.639C580.274 231.095 572.942 208.549 557.182 199.465C541.422 190.381 518.219 195.306 490.147 213.747C486.918 215.882 482.868 216.538 479.147 215.553C475.371 214.568 472.252 211.996 470.501 208.494C455.398 178.506 437.777 162.637 419.555 162.637C401.332 162.637 383.766 178.506 368.608 208.494C366.857 211.996 363.683 214.568 359.962 215.553C356.186 216.538 352.191 215.882 348.963 213.747C320.835 195.306 297.688 190.381 281.928 199.465C266.168 208.549 258.835 231.095 260.75 264.639C260.969 268.525 259.546 272.355 256.755 275.091C254.183 277.663 250.736 279.086 247.069 279.086C246.796 279.086 246.577 279.086 246.303 279.086C242.801 278.867 239.463 278.812 236.234 278.812C208.216 278.812 189.283 286.145 181.129 300.264C172.045 316.024 176.97 339.226 195.411 367.299C197.546 370.582 198.202 374.577 197.217 378.353C196.232 382.128 193.66 385.248 190.158 386.999C160.17 402.102 144.301 419.723 144.301 437.945C144.301 456.168 160.17 473.734 190.158 488.892C193.66 490.643 196.232 493.817 197.217 497.538C198.202 501.259 197.546 505.309 195.411 508.592C176.97 536.665 172.045 559.867 181.129 575.627C189.283 589.745 208.216 597.078 236.234 597.078C239.463 597.078 242.856 596.969 246.303 596.805C246.577 596.805 246.851 596.805 247.069 596.805C250.681 596.805 254.183 598.227 256.755 600.799C259.491 603.536 260.969 607.366 260.75 611.251C258.835 644.796 266.168 667.342 281.928 676.426C297.688 685.51 320.89 680.585 348.963 662.198C351.206 660.721 353.833 659.954 356.46 659.954H356.405Z" fill="#FF9644" fill-opacity="0.1"/>
<path d="M680.198 438C680.198 420.16 664.164 403.579 636.748 389.734C629.853 386.287 627.555 377.641 631.768 371.183C648.623 345.519 654.205 323.137 645.285 307.651C636.365 292.219 614.203 285.816 583.503 287.568C575.787 288.005 569.494 281.657 569.932 273.996C571.683 243.297 565.335 221.134 549.849 212.215C534.363 203.295 512.036 208.877 486.316 225.731C479.859 229.945 471.213 227.646 467.765 220.751C453.92 193.335 437.34 177.302 419.5 177.302C401.661 177.302 385.08 193.335 371.235 220.751C367.787 227.646 359.141 229.945 352.684 225.731C327.019 208.877 304.638 203.295 289.151 212.215C273.719 221.134 267.317 243.297 269.068 273.996C269.506 281.712 263.158 288.005 255.497 287.568C224.798 285.816 202.635 292.164 193.715 307.651C184.795 323.082 190.377 345.464 207.232 371.183C211.445 377.641 209.147 386.287 202.252 389.734C174.836 403.579 158.802 420.16 158.802 438C158.802 455.839 174.836 472.42 202.252 486.265C209.147 489.712 211.445 498.358 207.232 504.816C190.377 530.48 184.795 552.862 193.715 568.348C202.635 583.78 224.798 590.183 255.497 588.432C263.213 587.994 269.506 594.342 269.068 602.003C267.317 632.702 273.665 654.865 289.151 663.784C304.583 672.704 326.964 667.122 352.684 650.268C359.141 646.054 367.787 648.353 371.235 655.248C385.08 682.664 401.661 698.697 419.5 698.697C437.34 698.697 453.92 682.664 467.765 655.248C471.213 648.353 479.859 646.054 486.316 650.268C511.981 667.122 534.363 672.704 549.849 663.784C565.335 654.865 571.683 632.702 569.932 602.003C569.494 594.287 575.842 587.994 583.503 588.432C614.203 590.183 636.365 583.835 645.285 568.348C654.205 552.917 648.623 530.535 631.768 504.816C627.555 498.358 629.853 489.712 636.748 486.265C664.164 472.42 680.198 455.839 680.198 438Z" fill="#FF9644" fill-opacity="0.1"/>
</svg>
