<svg width="3385" height="1084" viewBox="0 0 3385 1084" fill="none" xmlns="http://www.w3.org/2000/svg">
<g opacity="0.19" clip-path="url(#clip0_280_900)">
<path d="M1692.5 1084C1585.27 1084 1478.04 1073.43 1390.52 1052.29C1257.44 1020.15 1184.38 967.619 1184.6 904.364C1184.82 845.621 1244.62 779.307 1362.7 706.556C1203 772.398 1033.55 820.477 856.984 849.88C666.945 881.555 472.415 889.568 309.211 872.469C94.527 849.975 -32.4215 786.594 7.22939 721.826C37.3509 672.579 158.823 628.064 349.081 596.484C525.757 567.176 755.119 548.909 1032.89 542C755.119 535.091 525.757 516.856 349.081 487.516C158.713 455.968 37.3509 411.453 7.22939 362.175C-32.4215 297.375 94.527 234.026 309.211 211.532C472.415 194.432 666.945 202.446 856.984 234.12C1033.55 263.555 1203 311.603 1362.7 377.444C1244.51 304.694 1184.71 238.379 1184.6 179.636C1184.38 116.382 1257.55 63.854 1390.52 31.7063C1565.55 -10.6 1819.56 -10.6 1994.48 31.7063C2127.45 63.854 2200.62 116.382 2200.4 179.636C2200.18 238.379 2140.38 304.694 2022.3 377.444C2182 311.603 2351.45 263.523 2528.02 234.12C2718.06 202.446 2912.59 194.432 3075.79 211.532C3290.47 234.026 3417.42 297.406 3377.77 362.175C3347.65 411.422 3226.18 455.936 3035.92 487.516C2859.24 516.825 2629.88 535.091 2352.11 542C2629.88 548.909 2859.24 567.144 3035.92 596.484C3226.18 628.064 3347.54 672.579 3377.77 721.826C3417.42 786.626 3290.47 849.975 3075.79 872.469C2912.59 889.568 2718.06 881.555 2528.02 849.88C2351.45 820.446 2182 772.398 2022.3 706.556C2140.49 779.307 2200.29 845.621 2200.4 904.364C2200.62 967.619 2127.45 1020.15 1994.48 1052.29C1906.97 1073.43 1799.73 1084 1692.5 1084ZM1505.53 641.598C1077.15 855.307 1172.55 991.374 1404.54 1047.47C1571.36 1087.79 1813.53 1087.79 1980.35 1047.47C2212.45 991.374 2307.75 855.307 1879.36 641.598C1878.38 641.093 1877.94 640.557 1877.94 640.021C1877.94 638.917 1879.91 637.876 1883.42 637.276C1888.67 636.393 1895.35 636.929 1898.42 638.443C2326.8 852.152 2783.56 896.382 3068.23 866.538C3272.84 845.085 3393.98 784.67 3356.19 722.898C3303.62 636.961 2942.16 545.155 2085.39 545.155C2079.37 545.155 2074.44 543.735 2074.44 542C2074.44 540.265 2079.37 538.845 2085.39 538.845C2942.16 538.845 3303.62 447.008 3356.19 361.102C3393.98 299.331 3272.95 238.916 3068.23 217.463C2783.56 187.618 2326.69 231.88 1898.42 445.589C1895.35 447.103 1888.67 447.608 1883.42 446.756C1879.91 446.156 1877.94 445.115 1877.94 444.011C1877.94 443.475 1878.38 442.939 1879.36 442.434C2307.75 228.725 2212.34 92.6576 1980.35 36.5647C1813.53 -3.75402 1571.36 -3.75402 1404.54 36.5647C1172.44 92.6576 1077.15 228.725 1505.53 442.434C1506.51 442.939 1506.95 443.475 1506.95 444.011C1506.95 445.115 1504.98 446.156 1501.48 446.756C1496.22 447.639 1489.54 447.103 1486.47 445.589C1058.2 231.88 601.335 187.618 316.659 217.463C112.052 238.916 -8.98146 299.331 28.8073 361.102C81.3831 447.04 442.841 538.845 1299.61 538.845C1305.63 538.845 1310.56 540.265 1310.56 542C1310.56 543.735 1305.63 545.155 1299.61 545.155C442.841 545.155 81.3831 636.992 28.8073 722.898C-8.98146 784.67 112.052 845.085 316.769 866.538C601.445 896.382 1058.31 852.12 1486.69 638.443C1489.76 636.929 1496.44 636.424 1501.69 637.276C1505.2 637.876 1507.17 638.917 1507.17 640.021C1507.17 640.557 1506.73 641.093 1505.75 641.598H1505.53Z" fill="white"/>
<path d="M1877.94 546.069C1768.19 553.704 1733.14 563.8 1706.63 595.411C1703.02 599.67 1682.09 599.67 1678.48 595.411C1651.97 563.8 1616.92 553.704 1507.17 546.069C1492.38 545.028 1492.38 539.003 1507.17 537.962C1616.92 530.327 1651.97 520.231 1678.48 488.62C1682.09 484.361 1703.02 484.361 1706.63 488.62C1733.14 520.231 1768.19 530.327 1877.94 537.962C1892.73 539.003 1892.73 545.028 1877.94 546.069Z" fill="white"/>
<path d="M1692.5 912.661C982.947 912.661 405.6 746.401 405.6 542C405.6 337.598 982.837 171.339 1692.5 171.339C2402.16 171.339 2979.4 337.598 2979.4 542C2979.4 746.401 2402.16 912.661 1692.5 912.661ZM1692.5 177.649C994.995 177.649 427.506 341.1 427.506 542C427.506 742.9 994.995 906.351 1692.5 906.351C2390 906.351 2957.49 742.9 2957.49 542C2957.49 341.1 2390 177.649 1692.5 177.649Z" fill="white"/>
</g>
<defs>
<clipPath id="clip0_280_900">
<rect width="3385" height="1084" fill="white"/>
</clipPath>
</defs>
</svg>
