<svg width="1920" height="54" viewBox="0 0 1920 54" fill="none" xmlns="http://www.w3.org/2000/svg">
<path d="M96.8815 14.6161C124.169 7.77735 155.078 0 213.341 0C271.604 0 302.579 7.77735 329.8 14.6161C355.814 21.1866 378.341 26.8185 426.682 26.8185C475.022 26.8185 497.482 21.1866 523.563 14.6161C550.851 7.77735 581.692 0 640.022 0C698.352 0 729.261 7.77735 756.481 14.6161C782.495 21.1866 804.956 26.8185 853.363 26.8185C901.77 26.8185 924.164 21.1866 950.245 14.6161C977.533 7.77735 1008.37 0 1066.7 0C1125.03 0 1155.94 7.77735 1183.16 14.6161C1209.18 21.1866 1231.64 26.8185 1280.04 26.8185C1328.45 26.8185 1350.85 21.1866 1376.86 14.6161C1404.15 7.77735 1434.99 0 1493.32 0C1551.65 0 1582.49 7.77735 1609.78 14.6161C1635.79 21.1866 1658.25 26.8185 1706.59 26.8185C1754.93 26.8185 1777.39 21.1866 1803.47 14.6161C1830.76 7.77735 1861.67 0 1920 0V53.6369H0V26.8185C48.3402 26.8185 70.8676 21.1866 96.8815 14.6161Z" fill="#FFFBF6"/>
</svg>
