<svg xmlns="http://www.w3.org/2000/svg" width="166.063" height="164.373" viewBox="0 0 166.063 164.373"><g transform="translate(3.032 3.042)"><path d="M76.139,0l-.258.076L67.929,2.41l-.329.1L59.458,4.9l-.511.15-7.9,2.32-1.755.515L42.528,9.869l-.516.151-7.461,2.191-.492.567-.515.594h0l-2.134,2.462-.4.462-6.936,8-.446.515-6.5,7.5-.835.963L9.4,41.236h0l-.446.515-.3.341h0l-.516.6L6.168,44.967,5.416,50.2l0,.015L4.269,58.171l-.009.07-1.207,8.4-.074.515L1.835,75.105l-.011.076L.618,83.573l-.074.515L.191,86.539h0L0,87.868,1.905,92.04l.235.515,14.47,31.685.515,1.128.359.785.124.271.4.87,36.463,23.432H97.809l36.462-23.432.4-.87.123-.271.676-1.48.2-.434,14.656-32.094.048-.105,1.905-4.172-.191-1.329h0l-.353-2.452-.074-.515-1.166-8.109-.051-.359h0L149.3,67.153l-.074-.515h0l-2.36-16.419,0-.015-.753-5.237-1.974-2.279-.516-.595h0l-.3-.342-.446-.515-6.891-7.952-.4-.466-6.933-8h0L128.2,24.3l-1-1.158-.515-.594L121.267,16.3l-.4-.462-2.134-2.462-.1-.116-.907-1.046-7.46-2.191-.516-.151-6.763-1.986-1.754-.515h0l-7.9-2.32-.44-.129L84.863,2.562l-.515-.151L76.4.075Z" transform="translate(4.5 3.5)" fill="rgba(54,0,36,0.65)"/><path d="M76.139-.521l.4.117,41.469,12.177,3.638,4.2,8.1,9.348h0L146.582,44.75l6,41.718h0l.212,1.474-18.127,39.693L97.956,151.226H54.321l-.123-.079L17.611,127.635l-1.456-3.188L-.516,87.942,5.694,44.75l3.465-4h0l.014-.015,25.1-28.964Zm25.02,8.389-.069-.02L76.138.521,34.833,12.649l-3.445,3.975L8.159,43.434h0l-1.517,1.75L.686,86.611h0l-.17,1.183L18.4,126.952l36.215,23.274H97.663l36.215-23.274,1.335-2.922,16.548-36.237-6.126-42.611-1.516-1.75v0l-1.62-1.872L127.554,24.317h0L117.443,12.649Z" transform="translate(4.5 3.5)" fill="#ff58de"/><path d="M82,0,37.212,13.151l-3.814,4.4L9.325,45.333h0l-2.682,3.1L.206,93.2h0L0,94.633l19.391,42.461,39.27,25.236H105.34l39.269-25.236,1.5-3.29L164,94.633l-.206-1.431h0l-6.437-44.774-2.682-3.1h0l-.8-.923L138.553,26.728h0l-2.116-2.442-9.649-11.135L82,0m0-1.042.559.165,44.792,13.152,4.007,4.622,9.385,10.831h0L158.305,48l6.479,45.064h0l.248,1.722-19.635,43L105.633,163.33H58.367l-.247-.159L18.6,137.776,16.98,134.22-1.032,94.781l.247-1.722h0L5.695,48l4.63-5.344h0L36.648,12.274Z" transform="translate(-2 -2)" fill="#f0c"/></g></svg>