<?xml version="1.0" encoding="UTF-8"?>
<svg id="_レイヤー_2" data-name="レイヤー 2" xmlns="http://www.w3.org/2000/svg" viewBox="0 0 1454.52 1454.52">
  <defs>
    <style>
      .cls-1 {
        fill: #fff;
      }

      .cls-2 {
        fill: none;
      }
    </style>
  </defs>
  <g id="_レイヤー_1-2" data-name="レイヤー 1">
    <g>
      <g>
        <path class="cls-1" d="M943.86,1167.41c-24.52-5.66-47.58-23.97-53.5-35.32-2.84-5.44-4.54-9.16-5.78-11.87-1.24-2.7-1.92-4.19-2.66-5.04l1.12-1.07c6.12,5.95,12.78,8.71,17.83,7.41,4.23-1.1,7.36-4.91,9.29-11.33,5.27-17.47-6.03-44.77-31.25-57.58-14-7.11-22.92-5.06-27.94-2.09-5.87,3.47-9.67,10.24-9.91,17.67-.24,7.29,2.28,10.69,4.72,13.98,2.07,2.8,4.03,5.44,3.97,10.05l-.07,4.89-1.45-4.67c-3.07-9.88-12.35-11.62-15.13-11.92-1.44-.16-3.31-.25-5.28-.35-5.76-.29-12.94-.66-16.3-2.84-4.53-2.94-7.56-12.83-10.1-33.08-.61-4.88-.96-9.85-1.27-14.23-.62-8.77-1.2-17.05-3.69-18.09-.84-.34-2.09.17-3.7,1.56l-1.55,1.33.27-2.03c.93-6.92,4.92-14.26,9.53-22.76,5.67-10.44,12.09-22.27,15.81-37.83,4.99-20.86,8.67-28.92,12.56-37.46.69-1.52,1.39-3.05,2.1-4.66,4.68-10.64,5-12.38,3.82-20.74l-.74-5.27,2.21,4.84c.74,1.63,1.45,3.1,2.11,4.47,3.88,8.11,6.23,13,6.33,27.46.14,20.07,3.29,32.57,10.52,41.78,4.25,5.42,9.47,8.03,13.63,6.82,3.57-1.04,5.85-4.75,6.41-10.45l.22-2.19,1.2,1.84c4.62,7.06,4.82,8.14,8.12,26.2l.17.91c2.1,11.53,11.87,23.21,25.49,30.47,16.6,8.86,36.1,9.59,53.51,2.03,19.21-8.36,31.77-28.21,32.77-51.81.99-23.34-9.65-44.51-27.1-53.93l-2.9-1.56,3.29.1c20.14.64,24.92-7.65,26.04-11.24,1.67-5.35-.87-11.64-6.02-14.96l-3.07-1.98,3.61.56c13.82,2.14,30.63-3.11,36.04-17.29,2.63-6.89,3.43-19.91-.71-33.48-3.27-10.72-10.65-25.02-27.29-32.24-29.09-12.63-54.35-3.95-70.81,3.67l-.73-1.37c2.44-1.49,3.77-3.33,5.18-5.28,2.22-3.07,4.52-6.24,11.18-7.45,5.06-.6,6.23-3.38,7.26-5.83.14-.33.27-.65.41-.94.37-.81.6-1.69.84-2.61.46-1.78.94-3.61,2.5-5.18.32-.32.79-1.15,1.39-2.2,2.97-5.24,9.93-17.5,31.91-27.25,25.55-11.34,61.62-14.43,72.84-1.97,1.77-1.75,4.59-2.84,8.21-3.17,9.63-.89,26.47,3.84,40.69,16.32,14.35,12.59,21.45,26.42,27.71,38.62,1.91,3.72,3.72,7.24,5.67,10.64,8.23,14.37,20.5,21.67,27.86,21.25,6.91-.4,11.84-6.26,11.79-10.01l1.53-.17c1.7,7.87.59,25.03-7.47,28.39-5.5,2.3-12.36-3.88-18.99-9.85-2.11-1.9-4.14-3.73-6.02-5.17,4.8,7.89,5.47,15.26,6.17,23.02.23,2.54.47,5.16.86,7.81,1.84,12.45,10.58,34.45,26.26,41.61.36-2.34,1.64-4.22,3.62-5.23,2.13-1.09,6.94-2.08,15.26,3.54,11.95,8.08,24.05,34.46,23.55,51.33v.15s-.07.14-.07.14c-1.62,3.58-2.94,11.45-1.35,21.83l.03.22-.09.21c-1.52,3.44-7.22,14.87-16.9,17.32l-2.6.66,1.85-1.95c3.52-3.7,6.15-10.93,4.38-17.59-1.76-6.62-7.45-11.55-16.48-14.26-12.07-3.63-21.49-.42-27.26,2.9-8.02,4.61-12.85,11.63-13.95,16.2-2.73,11.39,4.47,16.14,6.74,17.32,2.41,1.25,3.52,1.55,4.12,1.71.42.11.78.21,1.06.59l.3.41-.25.46c-.28.49-.63.45-1.91.3-3.67-.42-14.85-1.72-25.53,3.56-20.2,9.98-36.41,39.73-28.34,68.12,7.49,26.35,35.97,37.52,52.29,33.63,15.1-3.6,19.51-11.81,22.74-19.91l1.48.45c-2.83,13.03-.44,19.72,8.54,23.88,9.14,4.23,26.96,1.61,34.68-5.11,7.98-6.95,10.79-8.71,15.16-10.49.08-.03,8.07-3.23,8.91-1.4.44.96-.8,1.68-2.46,2.51-.53.26-1.01.5-1.46.73-4.31,2.14-4.98,2.47-7.16,7.64-1.98,4.69-3.67,6.39-8.71,11.42-1.58,1.58-3.54,3.54-5.95,6.03-16.78,17.34-43.39,33.1-62.21,26.72-2.14-.73-4.57-2-7.39-3.47-7.93-4.14-19.9-10.39-40.06-12.12-17.88-1.53-38.2,6.03-39.02,12.5-.43,3.36,5.06,6.25,15.06,7.94l-.21,1.54c-4.88-.53-10.74.85-15.91,2.06-4.68,1.1-9.09,2.13-12.35,1.72-2.29-.3-5.15-1.32-8.47-2.51-6.76-2.42-15.17-5.43-24.44-4.56-7.47.7-12.39,2.21-16.35,3.42-3.52,1.08-6.3,1.93-9.47,1.82h-.23c-6.65-.23-22.08-.74-51.57-15.56,2.03,7.8,9.48,20.16,35.63,26.19l.24.06-.34,1.51c-5.2-1.12-9.03-.48-13.88.34-6.47,1.09-14.51,2.45-29.41.22-1.81-.27-3.62-.62-5.42-1.03ZM885.35,1118.16c.2.43.41.9.65,1.41,1.23,2.7,2.92,6.39,5.74,11.8,6.2,11.89,31.8,31.64,57.78,35.53,14.66,2.19,22.57.86,28.93-.22,2.24-.38,4.34-.73,6.5-.88-22.67-7.22-28.42-19.73-29.78-26.99l-.29-1.55,1.41.72c30.14,15.39,45.73,15.91,52.38,16.13h.23c2.92.11,5.59-.71,8.97-1.75,4.02-1.23,9.03-2.76,16.66-3.48,9.61-.9,18.2,2.18,25.1,4.65,3.23,1.16,6.02,2.16,8.15,2.43,2.98.38,7.26-.62,11.8-1.69,3.15-.74,6.54-1.54,9.86-1.94-8.64-2.42-10.31-5.72-9.99-8.28,1.02-8.01,22.69-15.38,40.69-13.85,20.47,1.75,32.61,8.09,40.65,12.29,2.76,1.44,5.14,2.69,7.17,3.37,18.16,6.17,44.15-9.33,60.6-26.33,2.42-2.5,4.39-4.47,5.97-6.05,5-5,6.51-6.51,8.37-10.92,2.33-5.53,3.28-6.14,7.9-8.43.32-.16.66-.33,1.02-.51-1.43.34-3.21.87-4.74,1.49-4.27,1.74-6.85,3.37-14.73,10.23-8.24,7.17-26.59,9.86-36.35,5.34-8.19-3.79-11.39-9.69-10.37-19.74-3.43,6.52-8.95,12.45-21.38,15.42-16.9,4.03-46.4-7.49-54.14-34.71-3.8-13.35-2.62-28.11,3.32-41.56,5.61-12.69,15.02-23.04,25.82-28.37,8.49-4.19,17.22-4.4,22.56-4.07-.12-.06-.24-.12-.37-.19-2.52-1.31-10.52-6.57-7.53-19.06,1.21-5.05,6.22-12.32,14.68-17.19,6.04-3.47,15.87-6.83,28.48-3.04,12.08,3.63,16.2,10.35,17.53,15.35,1.68,6.33-.2,12.72-3.03,16.9,7.36-3.34,11.88-12.2,13.3-15.36-1.57-10.47-.3-18.36,1.44-22.34.41-16.15-11.52-42.18-22.87-49.85-5.59-3.78-10.58-5.04-13.69-3.45-1.76.9-2.81,2.73-2.88,5.01l-.03,1.12-1.04-.42c-16.89-6.92-26.25-30.19-28.18-43.24-.4-2.7-.64-5.34-.87-7.9-.78-8.59-1.52-16.7-8.09-25.5l-2.04-2.73,3.02,1.57c2.82,1.47,6.08,4.41,9.53,7.51,5.98,5.38,12.76,11.49,17.36,9.57,6.02-2.51,7.76-14.68,7.08-22.96-1.99,3.83-6.68,7.42-12.24,7.74-7.82.45-20.75-7.11-29.29-22.03-1.97-3.44-3.78-6.97-5.7-10.71-6.2-12.08-13.23-25.77-27.36-38.17-13.87-12.17-30.21-16.8-39.52-15.94-3.65.34-6.34,1.47-7.76,3.29l-.61.77-.61-.77c-4.46-5.65-15.19-8.61-29.41-8.1-13.83.49-29.2,4.08-42.17,9.83-21.51,9.55-28.29,21.5-31.19,26.6-.7,1.24-1.17,2.06-1.64,2.53-1.27,1.27-1.67,2.83-2.1,4.48-.25.95-.5,1.93-.93,2.87-.13.28-.25.58-.39.89-1.01,2.42-2.55,6.07-8.46,6.77-5.99,1.09-8.01,3.88-10.15,6.82-.55.75-1.1,1.51-1.72,2.26,16.66-7.08,40.39-13.36,67.44-1.62,17.18,7.46,24.79,22.18,28.15,33.21,4.24,13.92,3.39,27.35.67,34.48-5.58,14.61-21.45,19.76-34.92,18.61,4.24,3.92,6.03,9.74,4.4,14.98-1.17,3.75-5.88,12.15-24.62,12.37,16.45,10.32,26.32,31.1,25.36,53.87-1.03,24.2-13.94,44.57-33.7,53.17-17.84,7.76-37.83,7-54.85-2.08-14.03-7.48-24.1-19.58-26.29-31.56l-.17-.91c-3-16.46-3.38-18.56-6.76-23.89-.96,5.2-3.49,8.61-7.23,9.7-4.78,1.39-10.64-1.42-15.28-7.35-9.43-12.02-10.75-29.15-10.85-42.73-.1-14.11-2.39-18.89-6.18-26.8-.04-.08-.08-.17-.12-.25.35,5.21-.67,8.27-4.47,16.9-.71,1.62-1.41,3.16-2.11,4.68-3.86,8.46-7.51,16.46-12.46,37.17-3.77,15.75-10.53,28.2-15.96,38.2-4.12,7.58-7.72,14.23-9.03,20.34,1.42-.86,2.64-1.07,3.71-.62,3.37,1.4,3.9,8.96,4.64,19.41.31,4.36.66,9.31,1.26,14.15,2.42,19.22,5.4,29.37,9.41,31.97,3.01,1.95,9.96,2.31,15.53,2.59,2,.1,3.88.2,5.37.36,2.28.25,8.63,1.39,13.03,6.64-.53-.85-1.14-1.66-1.77-2.52-2.47-3.34-5.28-7.12-5.02-14.95.26-7.95,4.35-15.22,10.67-18.96,5.35-3.17,14.81-5.38,29.43,2.05,12.03,6.11,21.9,15.96,27.8,27.72,5.47,10.91,7.01,22.46,4.23,31.69-2.1,6.98-5.6,11.15-10.39,12.39-4.63,1.2-10.37-.6-15.91-4.86Z"/>
        <path class="cls-1" d="M881.96,1115.23c-.15-.15-.3-.3-.45-.45l1.05-1.14c.18.15.36.33.53.52l-1.13,1.07Z"/>
        <path class="cls-1" d="M445.28,1202.19l2.76-2.06c.55-.41.55-.75.47-1.02-.81-2.78-12.79-8.55-33.8-10.14h-.2s-.17-.12-.17-.12c-2.39-1.56-5.06-3.6-8.16-5.95-14.33-10.89-35.98-27.36-56.98-15.35l-.82-1.31c3.37-2.32,5.71-4.85,7.77-7.08,3.5-3.78,6.27-6.77,11.39-4.83,1.36.51,2.83,1.18,4.53,1.94,7.62,3.43,18.06,8.13,32.86,6.26,17.09-2.15,26.67-16.86,27.01-29.61h1.55c.06,6.82.85,8.06,1.07,8.28.18-.1.85-.63,1.94-3.22l1.28-3.05.21,3.3c.09,1.45.63,4.98,3.67,6.57,2.4,1.25,7.09,1.64,15.82-3.66,15.31-9.28,26.33-31.67,28.15-47.96,1.53-13.68-2.1-21.73-4.38-22.99-.39-.22-.53-.11-.57-.07l-1.3,1.03.05-1.66c.12-4.14-2.7-10.5-9.26-15.37-5.05-3.76-16.12-9.2-33.47-3.42-24.21,8.06-31.51,27.54-32.13,32.31l-1.54-.13c.02-.54.03-1,.04-1.38-.12.3-.24.61-.35.89l-.35.89c-1.52,3.87-5.08,12.94-3.79,19.56l-1.5.38c-2.56-8.25-2.95-13.65-3.25-17.99-.14-2.02-.27-3.76-.58-5.48-1.38-7.57-1.25-17.54.3-23.19.81-2.96,4.88-11.32,7.62-14.67l1.99-2.43-.62,3.08c-1.33,6.55-.71,11.59,1.66,13.49,1.52,1.21,3.75,1.17,6.65-.12,8.65-3.86,18.6-23.11,13.91-36.78l-.05-.14v-.15c.86-16.34-4.11-32.9-11.57-38.52-2.7-2.03-5.58-2.55-8.55-1.52l-2.71.93,1.87-2.17c.47-.55,1.05-1.16,1.67-1.82,1.14-1.21,2.43-2.57,2.8-3.32l1.79-3.59-.32,4c-.05.6.25.76.49.83,1.64.47,5.96-1.94,10.39-10.46,4.92-9.48,4.62-24.22.8-28.73-1.07-1.26-2.3-1.63-3.77-1.15-7.57,2.48-24.03,26.02-20.47,47.65l-1.52.29c-1.79-8.12-3.83-11.33-5.46-13.9-.91-1.43-1.69-2.66-2.18-4.37-.68-2.38-.53-9.08,1.36-18.35-8.05,1.59-13.62-.21-15.64-2.8-.54-.7-.82-1.45-.84-2.2-16.24,5.9-25.72,10.76-31.56,16.14l-.65.6-.51-.72c-.61-.66-5.61-1.66-10.03-2.54-5.27-1.06-11.25-2.25-15.72-3.8-17.58-6.11-26.65-14.2-33.94-20.71-2.61-2.33-5.08-4.54-7.68-6.43-3.37-2.47-5.46-4.27-6.98-5.59-2.95-2.55-3.33-2.88-6.49-2.42-5.67.82-6.07.5-8.7-3.27-.47-.67-1.02-1.46-1.7-2.38l-3.24-4.37,4.34,3.29c2.42,1.83,7.35,3.32,12.91,2.5,4.2-.62,10.24-2.79,15.51-9.57-2.1-.65-5-.14-8.3.43-4.54.78-10.18,1.76-15.98.02-17.13-5.15-29.66-17.06-38.28-36.39-7.5,3.53-15.23,3.95-21.85,1.16-6.54-2.75-11.31-8.32-13.8-16.11l-.7-2.17,1.88,1.3c5.46,3.77,13.45,4.56,21.39,2.12,12.87-3.96,23.82-15.45,30.05-31.53l.21-.54.58.05c11.43.94,26.13-7.62,33.13-34.46,6.85-26.24-.04-50.17-10.35-57.3-3.72-2.57-7.49-2.64-10.91-.22l-.67.47-.44-.7c-5.54-8.86-21.36-14.22-47.72-.2-19.35,10.29-36.39,28.3-46.77,49.41-10.06,20.47-12.82,41.26-7.56,57.02l-1.45.55c-5.45-12.73-12.19-20.91-17.11-26.88-3.09-3.75-5.53-6.72-6.6-9.51-9.71-25.36-8.72-54.64,2.94-87.03,14.58-40.48,35.69-54.93,51.11-65.48.73-.5,1.44-.98,2.13-1.46,6.89-4.75,9.93-7.15,13.22-11.14l1.28.86c-2.55,4.76-2.78,6.51-2.94,7.66-.11.79-.2,1.47-.87,2.53-.38.6-1.01,1.31-1.82,2.21-2.69,2.98-6.74,7.49-6.45,13.49.12,2.37,1.67,4.49,4.37,5.98,5.79,3.19,17.84,3.93,32.78-4.49,26.72-15.07,34.81-40.53,37.25-54.36,1.59-9.02.5-15.5-3-17.77-3.17-2.05-8.36-.78-15,3.7l-.48.32-.45-.37c-.64-.53-5.93-1.21-11.58,1.88l-.83-1.31c12.76-9.35,18.4-19.17,14.37-25.03-1.07-1.55-3.35-2.71-6.4-3.25-7.04-1.25-19,.57-31.54,9.42-1.61,2.31-6.7,4.46-8.82,4.09-.95-.18-1.16-.78-1.22-1.03-.2-.93.37-2.42,6.19-6.45,5.24-3.63,52.31-35.59,92.87-40.45,35.52-4.26,47.13,3.63,49.1,5.26l.65.53-.58.6c-2.6,2.7-3.71,5.17-3.05,6.77.7,1.7,3.44,2.65,7.92,2.74l.95.02-.11.46c3.06.31,19.75-4.5,30.08-15.94,5.31-5.88,7.43-11,5.66-13.68-1.06-1.6-5.32-4.71-22.1,1.02l-.58-1.44c3.1-1.46,5.67-2.85,7.74-3.97,3.53-1.91,5.86-3.17,7.76-3.15.41,0,1.27-.04,2.45-.09,6.59-.32,22.01-1.06,32.93,2.37,4.83,1.52,47.27,15.99,60.19,58.54.14-.03.28-.04.43-.03,3.37.15,11.8,11.59,14.64,21.29,2.89,9.88,3.35,24.2,3.65,33.68.04,1.17.07,2.27.11,3.29.15,4.01,1.63,8.83,3.19,13.93,2.08,6.77,4.23,13.77,3.71,20.08l-.43,5.16-1.1-5.06c-2.82-12.95-6.88-20.93-11.73-23.06-2.41-1.06-5.01-.74-7.95.98-10.35,6.04-17.26,15.14-20.54,27.04l-1.51-.37c1.96-9.26.37-17.15-4.48-22.21-5.27-5.5-14.04-7.4-25.38-5.51-31.35,5.23-50.29,27.3-56.98,44.6-8.57,22.15.76,46.34,14.48,54.19,6.64,3.8,12.73,3.31,16.67,2.24,6.03-1.65,10.53-5.54,12.31-8.66l1.41.64c-.34.99-1.01,2.26-1.65,3.49-.57,1.08-1.38,2.63-1.59,3.4l.98-.2-.52,1.9c-1.65,6-3.07,11.17,2.46,16.62,6.6,6.5,30.26,8.51,49.74,1.25l.58,1.44c-29.16,12.44-44.9,30.8-43.19,50.39.61,7.02,4.2,13.17,10.38,17.79,9.98,7.46,26.36,10.52,40.75,7.6,20.42-4.14,37.27-16.81,48.73-36.64l1.4.66c-8.74,22.95-15.89,37.58-23.03,47.03,2.92-.03,5.63.12,8.07.44,11.18,1.47,14.51,1.57,21.48-.86,6.5-2.26,14.2-3.51,21.68-3.51h7.58s-7.42,1.54-7.42,1.54c-22.59,4.68-35.73,20.09-37.16,25.43-.24.89.1,1.3.42,1.56,2.85,2.33,15.26.05,19.41-2.03l6.6-3.31-5.76,4.61c-18.33,14.65-28.88,41.07-25.65,64.25,2.87,20.57,31.75,34.1,45.9,34.32l3.2.05-2.86,1.42c-5.8,2.88-16.37,17.35-11.38,29.4,6.11,14.77,35.44,26.82,73.94,21.41,44.09-6.2,58.07-32.31,62.48-47.32,7.19-24.45,5.28-49.13-5.66-73.36l-1.3-2.88,2.49,1.95c6.96,5.46,9.67,9.77,18.12,28.82,8.02,18.07,19.53,23.83,26.83,21.55,1.91-.6,3.32-1.8,4.18-3.58,1.77-3.66,1.17-9.74-1.67-17.1l-2.22-5.75,3.57,5.02c4.96,6.97,6.5,12.08,8.14,17.5,1.74,5.75,3.53,11.7,9.55,20.76,1.61,2.42,3.67,5.13,5.85,8,6.13,8.06,13.75,18.09,18.04,30.29,1.65,4.7,2.64,10.99,3.43,16.04.52,3.29,1.09,6.98,1.63,8.18l1.55-2.63-.15,3.12c-.39,8.45-4.15,20.1-9.26,28.97,7.39-1.57,13.47-.39,17.68,3.43,5.44,4.95,7.51,14.13,5.68,25.2-2.74,16.56-15.65,37.21-37.53,43.42-10.01,2.84-17.98,2.13-21.85-1.94-1.92-2.01-3.73-5.83-1.46-12.53l1.5.4c-.84,4.27-.56,7.36.85,9.19.91,1.17,2.32,1.84,4.21,1.98,7.82-1.46,16.55-11.71,19.5-22.9,1.27-4.81,2.41-13.71-4.2-19.18-3.83-3.18-9.21-4.15-16-2.89-13.65,2.53-29.56,13.96-34.13,22.1l-3.24,5.76,1.81-6.35c1.49-5.2.73-8.73-2.25-10.47-7.47-4.37-28.94,3.44-45.46,20.06-11.67,11.74-17.85,24.8-17.41,36.77.27,7.38,3.12,13.79,8.03,18.05,5.52,4.79,11.9,5.42,16.27,5.11,8.25-.6,15.46-4.86,18.66-8.58l.16-.19.24-.06c6.15-1.47,11.13-2.87,14.65-6.27l4.36-4.23-3.16,5.19c-1.49,2.45-7.35,6.37-13.35,8.93-1.36.58-3.71,2.27-6.69,4.4-9.41,6.75-25.16,18.06-43.84,20.25-10.24,1.21-19.33-.86-28.95-3.05-13.65-3.1-29.12-6.62-51.47-1.35-22.02,5.18-37.81,6.71-53.07,8.19-11.05,1.07-21.49,2.08-33.34,4.44l-3.38.67ZM432.18,1189.97c10.41,2.4,16.99,5.84,17.82,8.7.1.34.12.67.08.98,11.21-2.14,21.21-3.11,31.76-4.13,15.22-1.47,30.95-2.99,52.87-8.15,22.71-5.35,38.36-1.79,52.17,1.35,9.49,2.16,18.45,4.19,28.43,3.02,18.28-2.15,33.83-13.31,43.12-19.97,3.17-2.28,5.47-3.92,6.98-4.57,1.65-.7,3.32-1.53,4.88-2.41-1.91.62-3.97,1.14-6.17,1.67-3.59,4.02-10.95,8.3-19.56,8.92-6.69.48-12.71-1.41-17.4-5.48-5.23-4.54-8.27-11.34-8.56-19.16-.46-12.4,5.89-25.87,17.86-37.92,15.8-15.89,38.37-25.56,47.35-20.3,2.05,1.2,4.13,3.63,3.69,8.5,6.44-8.07,20.44-17.38,33.05-19.72,7.15-1.33,13.12-.21,17.27,3.22,5.39,4.47,7.07,11.84,4.71,20.77-3.1,11.77-12.44,22.56-20.82,24.05h-.19c-.98-.05-1.87-.23-2.65-.53,3.83,2.61,10.61,2.78,18.99.41,21.24-6.02,33.77-26.08,36.43-42.18,1.74-10.54-.15-19.21-5.19-23.8-4.19-3.81-10.27-4.71-18.05-2.65l-1.88.5,1.03-1.66c5.19-8.37,9.15-19.83,9.89-28.43,0,0-.03,0-.05-.01-1.34-.31-1.79-2.78-2.88-9.73-.78-4.99-1.75-11.2-3.36-15.77-4.21-11.98-11.75-21.9-17.81-29.87-2.2-2.89-4.27-5.62-5.9-8.08-6.14-9.25-8.05-15.59-9.74-21.17-1.17-3.87-2.29-7.58-4.69-11.95,1.29,5.21,1.22,9.47-.25,12.51-1.05,2.18-2.77,3.66-5.11,4.39-7.94,2.48-20.31-3.46-28.72-22.4-7.2-16.23-10.15-21.57-15.15-26.13,9.92,23.6,11.41,47.6,4.42,71.4-4.52,15.37-18.81,42.1-63.76,48.42-40.73,5.72-69.35-7.25-75.59-22.35-4.64-11.21,3.08-24.9,10.01-30.07-15.25-1.58-42.15-15.27-44.97-35.51-3.11-22.3,6.27-47.55,23.01-62.93-5.64,1.58-14.2,2.72-17.05.4-.67-.54-1.37-1.53-.94-3.17,1.62-6.09,13.41-18.69,31.18-24.62-4.87.52-9.62,1.55-13.85,3.03-7.24,2.52-10.89,2.42-22.19.93-2.81-.37-5.99-.5-9.45-.39l-1.68.05,1.04-1.31c6.58-8.27,13.14-20.93,20.94-40.55-11.45,16.39-27.05,26.94-45.51,30.69-14.79,3-31.67-.16-41.98-7.88-6.54-4.89-10.35-11.42-11-18.9-1.58-18.14,11.08-35.18,35.06-47.68-17.72,3.94-35.76,1.44-41.73-4.44-6.13-6.04-4.52-12.12-2.91-18-.13-.08-.22-.18-.28-.26-.51-.68-.21-1.71.61-3.41-2.41,2.03-5.6,3.86-9.33,4.88-4.23,1.15-10.75,1.68-17.85-2.39-14.27-8.16-24.01-33.21-15.16-56.1,6.84-17.69,26.18-40.23,58.18-45.57,11.86-1.98,21.12.08,26.76,5.97,3.9,4.07,5.85,9.79,5.72,16.51,3.9-9.06,10.24-16.19,18.9-21.25,3.35-1.96,6.5-2.31,9.36-1.06,4.2,1.85,7.71,7.18,10.46,15.9-.71-3.66-1.87-7.44-3.01-11.15-1.6-5.21-3.11-10.12-3.26-14.33-.04-1.02-.07-2.13-.11-3.3-.3-9.4-.75-23.6-3.59-33.29-3-10.25-11.56-20.56-13.25-20.18,0,0-.01.03-.03.07l-.83,2.14-.64-2.21c-12.3-42.61-54.7-57.07-59.49-58.58-10.66-3.36-25.89-2.62-32.39-2.3-1.21.06-2.09.1-2.55.1-1.5-.02-3.81,1.23-7,2.96-.18.1-.37.2-.56.3,8.37-1.92,13.96-1.3,16.06,1.87,2.21,3.36.1,9.04-5.81,15.58-11.42,12.64-29.85,17.47-32.28,16.21-.13-.07-.24-.15-.33-.25-4.92-.18-7.89-1.42-8.83-3.69-.86-2.08.13-4.83,2.78-7.8-3.22-2.22-15.25-8.26-47.27-4.42-40.18,4.82-86.97,36.58-92.17,40.19-4.23,2.93-5.24,4.26-5.48,4.71,1.31.17,5.98-1.6,7.22-3.55l.08-.13.12-.09c12.97-9.19,25.46-11.07,32.83-9.76,3.51.62,6.08,1.97,7.41,3.9,4.12,5.99.07,14.93-10.6,23.92,3.41-.85,6.42-.69,7.81-.09,7.12-4.71,12.61-5.87,16.32-3.45,4.11,2.67,5.42,9.54,3.69,19.34-2.49,14.1-10.74,40.06-38.01,55.44-15.49,8.74-28.16,7.88-34.29,4.5-3.19-1.76-5.02-4.34-5.17-7.27-.32-6.63,4.17-11.62,6.85-14.6.73-.81,1.36-1.51,1.66-1.99.49-.77.54-1.18.64-1.91.11-.78.24-1.8.96-3.63-2.46,2.32-5.4,4.49-10.1,7.73-.7.48-1.41.97-2.14,1.47-15.24,10.43-36.12,24.72-50.53,64.73-11.53,32.03-12.53,60.95-2.96,85.95.98,2.56,3.35,5.43,6.35,9.08,4.02,4.88,9.25,11.22,14.03,20.3-2.53-14.93.78-32.95,9.5-50.69,10.51-21.39,27.8-39.65,47.43-50.09,26.66-14.18,43.08-8.95,49.33.08,3.78-2.34,8.02-2.12,12.02.65,10.97,7.59,18.08,31.72,10.97,58.97-7.13,27.32-22.22,36.32-34.18,35.65-6.44,16.25-17.65,27.87-30.83,31.92-7.52,2.31-15.12,1.86-20.83-1.17,2.49,6.28,6.68,10.79,12.2,13.12,6.41,2.71,13.97,2.18,21.28-1.48l.73-.36.33.75c8.43,19.32,20.74,31.18,37.63,36.26,5.44,1.63,10.66.73,15.27-.06,4.05-.7,7.55-1.3,10.15.09l.79.42-.53.72c-5.73,7.84-12.48,10.3-17.13,10.98-4.23.62-8.15-.02-11.03-1.15,2.11,3.01,2.26,2.99,6.98,2.31,3.86-.56,4.68.15,7.73,2.78,1.5,1.3,3.56,3.08,6.88,5.51,2.66,1.94,5.15,4.17,7.79,6.53,7.56,6.75,16.13,14.4,33.42,20.4,4.37,1.52,10.29,2.7,15.52,3.74,5.98,1.2,8.99,1.85,10.32,2.61,6.19-5.5,16.11-10.46,32.92-16.5l1.87-.67-.92,1.76c-.44.84-.07,1.61.32,2.1,1.75,2.25,7.26,3.84,15.24,1.99l1.19-.28-.26,1.19c-2.2,10.26-2.18,16.85-1.63,18.77.43,1.5,1.12,2.58,1.99,3.96,1.06,1.66,2.37,3.73,3.67,7.33.54-19.27,14-39.4,21.99-42.01,2.07-.68,3.95-.12,5.43,1.63,4.59,5.4,4.28,21.05-.6,30.45-4.6,8.86-9.47,12.05-12.19,11.24-.45-.13-.81-.36-1.08-.67-.59.72-1.35,1.53-2.1,2.31,2.6-.25,5.16.53,7.51,2.3,7.94,5.98,13.06,22.66,12.2,39.69,4.81,14.35-5.69,34.49-14.8,38.56-4.33,1.93-6.88,1.02-8.25-.09-2.4-1.93-3.36-6.06-2.75-11.59-2.31,3.79-4.83,9.18-5.42,11.33-1.5,5.46-1.61,15.13-.27,22.5.33,1.8.46,3.59.6,5.65.22,3.1.48,6.75,1.57,11.62.66-5.55,2.86-11.16,3.98-14.02l.35-.89c1.07-2.74,1.46-3.76,2.42-3.57.21.05.38.13.51.29,2.94-7.93,11.73-22.58,32.01-29.33,18.01-6,29.59-.29,34.89,3.65,6.5,4.83,9.56,11.13,9.86,15.64.34.02.7.13,1.05.32,3.09,1.72,6.73,10.46,5.17,24.52-1.86,16.66-13.17,39.59-28.89,49.11-7.51,4.55-13.34,5.79-17.35,3.7-2-1.05-3.42-2.94-4.1-5.37-.88,1.5-1.71,2.11-2.58,1.94-.66-.13-1.34-.66-1.79-2.83-3,11.32-12.46,22.28-27.35,24.15-15.24,1.92-26.35-3.07-33.69-6.38-1.68-.76-3.13-1.41-4.44-1.91-4.15-1.57-6.24.69-9.7,4.43-.97,1.05-2.06,2.22-3.31,3.43,20.04-7.15,39.73,7.82,53.15,18.02,3,2.28,5.61,4.26,7.91,5.78,6.44.5,12.22,1.4,17.15,2.54Z"/>
        <path class="cls-1" d="M458.74,515.85c-31.76-7.32-50.37-43.67-55.87-56.08-6.1-13.77-15.65-22.65-21.97-28.53-3.61-3.36-6.22-5.78-7.04-7.92-3.35-8.72-1.11-19.6.38-26.8.23-1.1.44-2.12.61-3.04-1.09.75-2.55,1.53-4.2,2.4-1,.53-2.02,1.08-3.04,1.66l-4.76,2.72,3.82-3.93c12.56-12.93,10.59-37.05,7.66-46.7h0c-2.46-8.12-2.43-10.52-2.3-19.45l.03-2.05c.1-8.25.18-8.25,1.09-8.29.91-.04.95.36,1.42,5.25.09.98.18,2.03.27,3.14.42,5.15.95,11.56,2.89,17.93,2.09,6.83,5.22,17.09,4.72,27.23,2.68,1.01,4.18,3.8,5.9,6.98,2.89,5.35,6.49,12.02,17.62,12.66,17.4,1,42.29-22.89,48.32-55.19,3.36-18.01,1.34-33.78-5.13-40.18-2.16-2.13-4.6-2.95-7.26-2.42l-4.68.92,4.15-2.36c11.35-6.46,18.2-18.23,18.77-32.31.29-7.17-2.02-13.89-6.34-18.45-3.93-4.15-9.37-6.38-15.74-6.47-12.7-.17-24.86,9.52-27.1,21.59l-.7,3.77-.82-3.75c-3.36-15.38,3.7-33.56,12.46-42.25,3.22-3.19,7.35-5.04,11.72-6.99,6.87-3.07,13.97-6.25,18.85-15.07,8.11-14.66-2.56-23.36-10.35-29.72l-.85-.69c-4.82-3.95-6.34-7.6-7.56-10.52-.79-1.89-1.41-3.39-2.74-4.39l-4.56-3.44,5.32,2.1c7.66,3.03,15.69,4.71,23.46,6.34,7.97,1.67,15.49,3.24,22.1,6.13,5.72,2.49,9.34,6.69,9.68,11.23.2,2.62-.62,6.35-5.28,9.99,7.15-.07,11.32-1.95,15.38-3.77,3.75-1.68,7.29-3.27,12.73-3.25,3.42.02,7.37.77,11.56,1.57,10.21,1.95,22.92,4.38,34.95-2.87,5.99-3.6,8.78-7.18,8.3-10.64-.59-4.26-6.46-10.74-31.11-17.48l.36-1.51c74.6,15.36,90.49,26.63,102.09,34.87,10.86,7.71,17.75,11.23,19.57,11.48l-1.36-3.4,2.67,2.67c8.62,8.61,9.67,16.54,10.69,24.22.35,2.67.69,5.2,1.33,7.76,3.07,12.29,15.26,23.43,31.87,20.14,1.67-11.64-4.79-23.54-19.74-36.36l.94-1.23c7.26,4.89,15.23,6.94,22.94,8.93,4.94,1.27,9.61,2.48,13.67,4.36,4.78,2.21,8.43,5.37,13.05,9.38,5.29,4.58,11.87,10.27,22.7,16.57l.17.1.1.17c15.3,24.72,14.87,38.74,11.82,46.14-2.23,5.41-6.2,8.16-8.71,9.18,27.34,33.5,26.85,58.6,21.57,73.79-6.21,17.87-23.15,32.22-43.21,36.61-1.09,1.47-2.04,2.81-2.97,4.11-5.24,7.38-8.4,11.84-20.53,15.58l-2.64.81,1.83-2.07c13.06-14.77,18.22-30.54,14.53-44.41-3.64-13.7-15.79-24.68-34.19-30.92-32.74-11.09-67.83-6.84-72.53,4.3l-1.29,3.05-.2-3.3c-.09-1.44-.8-2.51-2.06-3.08-2.55-1.17-7.82-.49-14.94,4.92l-5.59,4.25,4.53-5.36c2.53-3,2.91-6.76,1.04-10.32-3.9-7.45-18.63-15.17-47.32-12.43-17.85,1.7-35.04,8.4-48.41,18.87-12.59,9.85-20.81,22.4-22.57,34.44-2.06,14.09,6.69,24.49,14.4,30.74,10.4,8.44,23.29,13.08,31.89,14.61l2.31.41-2.1,1.05c-10.49,5.24-16.74,14.71-16.72,25.33.03,12.58,8.78,24.4,23.4,31.61,12.99,6.4,17.58,3.66,19.31,2.63.54-.32.97-.59,1.48-.42.63.21,1.31.87,2.8,2.37,1.2,1.21,2.7,2.72,4.6,4.32l-.9,1.26c-7.93-4.72-15.98.04-35.42,11.54-18.99,11.23-41.61,13.25-52.81,4.75-5.73.52-11.14.09-16.2-1.08ZM377.23,387.43l-.48,4.01c-.18,1.45-.55,3.27-.99,5.39-1.45,7.02-3.63,17.63-.45,25.93.69,1.8,3.32,4.24,6.64,7.34,6.41,5.96,16.1,14.98,22.33,29.03,6.29,14.19,29.97,60.18,70.81,56.22l.31-.03.24.19c10.63,8.34,32.69,6.33,51.31-4.68,16.81-9.94,25.34-14.98,32.81-13.26h.03c-.53-.52-1.02-1-1.44-1.43-.77-.78-1.63-1.64-2.04-1.91-.1.05-.23.13-.34.2-1.93,1.15-7.05,4.2-20.79-2.57-15.16-7.48-24.23-19.81-24.27-33-.03-10.55,5.78-20.01,15.64-25.69-21.22-4.55-49.03-21.83-45.4-46.68,1.81-12.43,10.25-25.35,23.15-35.44,13.6-10.64,31.08-17.46,49.22-19.19,29.42-2.81,44.52,5,48.84,13.25,1.55,2.97,1.77,6.06.68,8.86,5.38-3.38,10.31-4.52,13.55-3.03,1.13.52,1.97,1.34,2.47,2.39,7.63-10.65,41.13-14.36,73.46-3.41,18.91,6.41,31.41,17.77,35.19,31.99,3.65,13.72-.98,29.15-13.04,43.71,9.49-3.41,12.44-7.57,17.09-14.12.98-1.38,1.99-2.8,3.16-4.38l.17-.23.28-.06c19.67-4.21,36.29-18.21,42.36-35.67,5.2-14.95,5.59-39.79-22.02-73.17l-.79-.96,1.21-.29c2-.48,6.41-2.9,8.78-8.64,2.91-7.05,3.25-20.5-11.61-44.56-10.86-6.33-17.46-12.05-22.77-16.64-4.53-3.92-8.11-7.02-12.69-9.14-3.93-1.82-8.54-3.01-13.41-4.26-5.52-1.42-11.59-2.99-17.41-5.74,11.96,11.68,16.91,22.74,15.1,33.68l-.09.52-.52.11c-17.83,3.84-30.94-8.04-34.22-21.17-.66-2.65-1.02-5.33-1.36-7.93-.95-7.13-1.92-14.49-9.33-22.37-2.61,1.66-17.17-8.39-21.6-11.53-10.68-7.58-25.04-17.79-86.74-31.46,11.16,4.36,17.14,9.08,17.84,14.1.57,4.13-2.47,8.23-9.03,12.19-12.55,7.55-25.58,5.06-36.05,3.06-4.11-.79-8-1.53-11.27-1.54-5.11-.02-8.5,1.5-12.09,3.11-4.43,1.99-9.44,4.24-18.44,3.86l-2.48-.11,2.09-1.33c4.56-2.89,6.82-6.33,6.54-9.95-.3-3.9-3.65-7.7-8.76-9.93-6.47-2.82-13.91-4.38-21.8-6.03-6.91-1.45-14.03-2.94-20.95-5.38.46.81.83,1.7,1.23,2.66,1.15,2.77,2.59,6.21,7.11,9.92l.84.69c7.75,6.32,19.46,15.88,10.72,31.67-5.13,9.28-12.8,12.71-19.57,15.74-4.24,1.9-8.24,3.69-11.26,6.68-7.81,7.74-14.21,23.28-12.62,37.3,3.86-11.08,15.55-19.48,27.7-19.32,6.8.09,12.62,2.49,16.84,6.95,4.61,4.86,7.07,12,6.76,19.59-.55,13.57-6.73,25.09-17.07,32.06,2.03.28,3.95,1.27,5.64,2.94,6.83,6.76,9.01,23.07,5.57,41.57-6.16,33.06-31.9,57.5-49.93,56.46-11.99-.69-15.81-7.78-18.89-13.47-1.68-3.1-3.12-5.78-5.54-6.41l-.62-.16.04-.64c.64-10.06-2.52-20.42-4.62-27.28-1.61-5.27-2.27-10.53-2.68-15.12-.1,7.7-.02,10.2,2.25,17.68,2.23,7.35,5.56,30.22-5.34,45.04,2.2-1.17,4.34-2.36,4.83-3.25l1.94-3.55Z"/>
        <path class="cls-1" d="M1062.16,721.45l-8.05-2.12c-5.1-1.33-7.21-1.88-14.71-4.93-8.22-3.34-14.96-4.07-22.9-4.67h-.13s-.12-.06-.12-.06c-4.45-1.9-8.47-3.86-12.01-5.58-6.9-3.36-12.36-6.02-17.36-6.63-3.5-.42-7.27-2.19-10.6-3.74-2.89-1.35-5.88-2.75-7-2.28-.13.05-.29.16-.41.48l-.54,1.52-.85-1.36c-5.84-9.34-15.56-20.89-21.74-27.02-5.47-5.43-10.62-13.56-14.11-22.3l1.38-.7c3.46,5.48,9.47,8.94,16.1,9.28,6.28.31,12-2.21,15.68-6.92l.46-.59.61.43c.35.25,1,.44,1.75.66,2.37.69,5.92,1.72,8.48,6.78.11.03.21.06.33.08,10.41,2.4,42.71-12.74,49.07-27.83l1.7-4.04-.21,4.38c-.25,5.09,1.52,8.9,5.26,11.35,9.21,6.02,29.31,3.15,50.03-7.14,26.34-13.09,40.57-31.11,39.05-49.44-2.3-27.72-18.53-42.81-26.03-45.77-6.65-2.63-23.15-5.36-41.33-2.09l-.16.03-.16-.04c-.53-.12-.79-.42-.92-.65-.36-.65-.09-1.41.32-2.55.6-1.67,1.5-4.19.82-7.56-1.83-8.96-14.48-20.7-44.09-24.27-24.94-3.01-45.5-.86-61.11,6.38-14.71,6.82-16.85,6.98-17.84,6.53l-.45-.2-.03-.52c0-.66.15-.74,4.31-2.75,6.28-3.05,19.36-9.39,24.14-15.18,5.37-6.5,7.68-15.31,6.33-24.18-1.7-11.22-9.06-21.6-20.7-29.21-26.55-17.35-56-11.47-74.7-.18-16.58,10.01-24.59,20.69-28.39,27.88-1.63,3.08-3.14,5.41-4.48,7.46-2.26,3.48-3.75,5.78-3.78,8.76-.04,3.65-.64,5.77-1.18,7.65-.22.78-.43,1.52-.59,2.33l-1.54-.17c.07-3.33-1.44-7.71-4.48-13.02-2.84-4.97-5.26-12.36-4.87-14.91.12-.82.68-1.94,1.39-3.35,1.35-2.71,3.2-6.41,2.76-9.63-.22-1.58-1.25-4.08-2.55-7.25-2.8-6.8-6.63-16.11-7.08-26.88-.7-16.75,9.22-38.9,15.41-49.77-3.45-3.72-4.62-8.59-3.39-14.11,3.19-14.31,23.65-35.77,71.4-53.39-5.87-2.86-12.91-8.19-15.63-15.03-1.53-3.87-1.49-7.7.14-11.38,5.16-11.65,22.39-18.82,44.95-18.69,19.43.11,47.64,8.01,53.86,11.18l.17.08.11.15c.49.68,2.17,1.79,3.78,2.87,2.31,1.54,4.93,3.29,6.22,5l1.35,1.79-2.16-.57c-23.78-6.3-60.71,3.35-67.42,22.18-2.11,5.91-1.17,12.19,2.64,17.67,4.28,6.16,16.13,16.56,47.48,17.02h.3s.22.21.22.21c.81.75,3.62,1.92,7.34,2.19l4,.29-3.82,1.22c-9.32,2.98-16.35,9.98-17.9,17.83-1.08,5.48.75,10.55,5.16,14.26,17.34,14.6,55.43,13.67,75.16-8.21,15.32-16.99,12.1-31.57,6.2-37.22-5.21-4.99-13.68-4.19-16.75-2.35l-2.54,1.51,1.47-2.56c4.45-7.78,16.66-16.73,36.44-16.36,5.51.1,10.71.38,15.73.65,13.83.75,24.76,1.34,30.86-2.48l.94,1.23c-1.49,1.37-4.58,4.21-4.13,5.08.15.29,1.5,1.64,13.66-.74l.37-.07.29.25c.47.42.55.99.63,1.55.15,1.12.36,2.64,4.12,4.06,2.13.8,5.48.36,9.72-.21,6.74-.9,15.14-2.02,24.44.92l2.49.78-.97.27c.27.15.56.3.84.46,3.69,1.98,10.55,5.67,14.16,10.51,4.51,6.04,10.36,13.57,15.54,18.25,4.53,4.09,6.34,7.43,5.75,8.5l-.18.33-.42.09c-.46.07-.75-.2-1.26-.69-.93-.88-3.1-2.94-7.77-5.27-5.16-2.58-9.18-3.24-11.31-1.88-1.44.92-2.13,2.85-2.04,5.73.26,8.98,6.42,25.54,21.83,31.74,15.52,6.25,23.67,3.45,27.78,0,4.14-3.47,6.96-8.78,7.94-14.95.4-2.49.49-4.36.55-5.72.1-2.07.16-3.32,1.31-3.9,1.6-.81,13.99-1.59,25.24,3.69l2.51,1.18-3.46.37c-6.91.72-16.37,1.71-19.61,13.06-3.38,11.81,1.18,22.74,6.57,33.84,5.21,10.73,7.97,18.87,5.59,26.31-2.61,8.15-9.96,11.08-16.03,9.9,2.75,20.37,8.13,35.94,15.97,46.28l.12.16.03.2c1.06,7.21-1.23,17.3-3.07,25.41-.66,2.9-1.23,5.41-1.54,7.37-1,6.2-3.64,18.93-4.76,20.29-.08.09-.34.5-.62.93-7.31,11.35-16.41,20.99-27.05,28.64-3.25,7.18-3.52,16.66-3.71,23.59-.13,4.56-.22,7.86-1.07,9.34-2.04,3.54-10.09,10.4-15.13,12.98,2,4.55,7.55,9.11,15.03,12.31,7.05,3.02,14.31,4.1,17.67,2.63,5.13-2.24,7.33-7.25,6.74-15.31-.13-1.8-.42-3.21-.68-4.46-.41-1.99-.73-3.55.07-5.15.59-1.17,2.32-1.78,4.51-2.56,2.81-.99,6.31-2.23,7.61-4.88l1.25-2.55.22,2.83c.24,3.16-.5,5.65-2.15,7.18l-.15.14c-1.35,1.25-2.42,2.24-1.64,7.06.15.9.34,1.93.55,3.05,1.1,5.85,2.6,13.86,1.09,20.4-2.12,9.2-12.8,21.6-35.89,26.25l-1.08.22.16-1.09c.29-2.04.42-4.62-1.25-6.47-1.7-1.89-5.02-2.75-9.88-2.56-13.58.54-40.11,11.2-42.19,24.98-.6,4,.58,7.47,3.51,10.31,5.3,5.15,15.22,7,21.74,5.82,9.05-1.64,17.57-5.61,21.99-8.82l.96,1.22c-4.31,3.67-6.7,6.14-8.83,9.11-2.42,3.36-5.79,5.48-11.54,8.95-2.43,1.46-4.7,2.38-6.9,3.26-3.35,1.35-6.52,2.62-10.37,5.73-1.46,1.18-2.77,2.25-3.96,3.22-4.16,3.4-6.91,5.65-9.16,6.83-2.88,1.51-22.39,3.98-34.38,1.22-6.54-1.51-10.25-4.87-14.54-8.77-3.77-3.42-8.05-7.3-15.22-10.71-15.73-7.48-35.48-9.42-41.45-4.08-1.5,1.34-2.15,2.95-1.95,4.79.34,3.1,3.15,6.63,7,8.8l5.3,2.98ZM1030.95,710.09c2.89.67,5.85,1.58,9.04,2.87,6.46,2.62,8.76,3.34,12.67,4.38-2.45-2.23-4.06-4.93-4.34-7.5-.26-2.33.6-4.45,2.46-6.12,6.48-5.8,26.65-4.01,43.15,3.84,7.38,3.51,11.75,7.47,15.6,10.97,4.13,3.75,7.7,6.99,13.85,8.4,11.94,2.76,31.03.11,33.31-1.08,2.12-1.11,4.82-3.31,8.9-6.66,1.19-.97,2.5-2.05,3.96-3.23,4.03-3.26,7.45-4.63,10.76-5.96,2.24-.9,4.35-1.75,6.68-3.15,6.07-3.65,8.96-5.57,11.08-8.52,1.12-1.56,2.31-2.99,3.78-4.5-4.57,2.24-10.36,4.34-16.37,5.43-6.81,1.24-17.22-.53-23.1-6.23-3.26-3.17-4.63-7.2-3.96-11.66,2.28-15.09,29.96-25.75,43.67-26.29,5.34-.21,9.07.82,11.1,3.07,1.79,1.99,1.95,4.57,1.76,6.64,21.64-4.66,31.65-16.25,33.64-24.86,1.44-6.23-.03-14.05-1.1-19.77-.21-1.14-.41-2.18-.56-3.09-.92-5.65.55-7.01,2.11-8.45l.14-.13c.87-.81,1.43-2.05,1.62-3.6-1.89,1.82-4.65,2.79-6.97,3.61-1.64.58-3.34,1.18-3.64,1.79-.56,1.11-.31,2.32.07,4.14.25,1.23.57,2.75.71,4.66.24,3.23.96,13.07-7.67,16.85-3.77,1.65-11.37.6-18.9-2.62-8.35-3.57-14.23-8.62-16.14-13.85l-.25-.67.65-.3c5.02-2.29,13.28-9.51,15.1-12.66.66-1.14.76-4.6.87-8.61.2-7.13.48-16.89,3.94-24.39l.09-.19.17-.12c10.55-7.56,19.57-17.09,26.82-28.34.41-.63.59-.92.72-1.08.67-.94,3.08-11.22,4.43-19.55.32-2,.9-4.53,1.56-7.46,1.79-7.91,4.02-17.73,3.07-24.65-8.09-10.75-13.57-26.89-16.3-47.97l-.15-1.17,1.14.33c5.55,1.62,12.78-.87,15.25-8.6,2.22-6.94-.46-14.77-5.51-25.16-5.53-11.38-10.2-22.61-6.67-34.95,3.17-11.08,11.92-13.11,18.69-13.93-10.12-3.85-20.14-3.02-21.18-2.56-.33.16-.38,1-.46,2.59-.07,1.4-.16,3.31-.57,5.89-1.04,6.54-4.05,12.18-8.47,15.89-4.44,3.72-13.13,6.78-29.36.24-16.09-6.48-22.52-23.77-22.8-33.14-.1-3.46.83-5.85,2.76-7.08,3.34-2.14,8.82-.2,12.84,1.8,2.75,1.37,4.68,2.66,6.01,3.69-.82-1.09-2.05-2.47-3.87-4.11-5.28-4.77-11.18-12.38-15.74-18.47-3.41-4.56-10.07-8.14-13.65-10.07-1.47-.79-2.19-1.18-2.5-1.52-8.83-2.67-16.88-1.6-23.37-.74-4.46.59-7.99,1.06-10.47.12-4.63-1.75-4.93-3.98-5.11-5.31-.01-.09-.03-.2-.04-.3-11.76,2.25-14.07,1.17-14.75-.2-.58-1.14.15-2.49,1.4-3.91-6.67,2.07-16.22,1.55-27.76.93-5.01-.27-10.19-.55-15.67-.65-17.38-.32-28.66,6.71-33.74,13.56,4.33-1.2,11.5-.99,16.22,3.53,6.34,6.07,9.94,21.56-6.12,39.38-18.64,20.68-57.66,24.9-77.31,8.36-4.86-4.09-6.88-9.69-5.68-15.75,1.49-7.55,7.66-14.35,16.05-17.93-2.26-.48-4.03-1.24-4.97-1.96-31.83-.53-44.02-11.29-48.45-17.68-4.04-5.82-5.07-12.77-2.83-19.08,6.7-18.81,42.19-28.85,66.55-23.8-1.18-.95-2.61-1.9-3.93-2.79-1.78-1.19-3.33-2.22-4.05-3.09-6.62-3.27-34.7-10.83-53.01-10.93-21.94-.12-38.61,6.68-43.52,17.76-1.46,3.29-1.5,6.71-.12,10.18,2.81,7.09,10.66,12.49,16.53,14.96l1.83.77-1.86.68c-48.49,17.55-69.2,39.48-72.19,52.92-1.16,5.19.01,9.73,3.39,13.11l.42.42-.3.52c-8.15,14.1-16.1,34.86-15.49,49.43.44,10.5,4.21,19.66,6.97,26.36,1.35,3.27,2.41,5.86,2.65,7.64.51,3.69-1.47,7.64-2.91,10.53-.6,1.19-1.16,2.32-1.25,2.89-.27,1.78,1.62,8.55,4.69,13.91,2.11,3.69,3.5,6.9,4.18,9.71.37-1.48.68-3.2.71-5.74.03-3.44,1.71-6.02,4.03-9.59,1.32-2.03,2.81-4.32,4.4-7.35,3.89-7.37,12.08-18.29,28.96-28.48,19.11-11.54,49.2-17.53,76.35.21,12.02,7.85,19.61,18.61,21.38,30.27,1.41,9.3-1.02,18.56-6.67,25.4-4.1,4.97-13.46,10.04-20.48,13.54,2.2-.94,4.98-2.18,8.5-3.81,15.88-7.36,36.72-9.55,61.95-6.51,30.42,3.67,43.48,16.03,45.42,25.5.78,3.79-.26,6.67-.88,8.4-.13.36-.28.79-.35,1.07,17.16-3,33.61-.94,41.7,2.25,7.79,3.08,24.64,18.65,27,47.09,1.58,19-12.97,37.57-39.91,50.96-21.19,10.53-41.91,13.36-51.57,7.05-3.43-2.24-5.4-5.48-5.87-9.65-9.05,14.96-39.03,28.41-49.51,25.99-.25-.06-.48-.12-.71-.2l-.31-.1-.14-.3c-2.27-4.71-5.39-5.61-7.67-6.27-.58-.17-1.12-.32-1.58-.53-4,4.78-10,7.33-16.56,7-5.2-.26-10.06-2.32-13.75-5.71,3.21,6.6,7.28,12.55,11.56,16.78,6.03,5.98,15.41,17.08,21.36,26.34.15-.11.31-.21.49-.28,1.75-.74,4.62.6,8.25,2.3,3.22,1.5,6.87,3.21,10.13,3.61,5.26.64,10.81,3.34,17.85,6.77,3.5,1.7,7.46,3.63,11.83,5.5,4.98.38,9.49.81,14.2,1.9ZM1163.9,537.65c-2.13-.49-4.37-1.09-6.7-1.8-19.53-5.96-32.8-18-31.54-28.62.36-3.01,2-5.58,4.74-7.43,2.86-1.93,6.71-2.88,10.22-2.63-4.62-4.64-7.29-10.24-7.59-16.01-.34-6.65,2.4-13.09,8.15-19.13,6.63-6.96,19.44-12.57,34.26-15,15.73-2.58,31.68-1.22,43.75,3.74,25.42,10.43,33.37,35.75,30.89,50.4-2.94,17.37-21.58,39.5-53.86,34.56-3.96,2.9-14.64,6-32.33,1.92ZM1142.43,499c-3.56-.82-8.09.01-11.17,2.08-1.64,1.11-3.68,3.1-4.06,6.33-1.15,9.71,11.94,21.3,30.45,26.95,21.58,6.58,33.97,3.06,37.89-.06l.27-.21.34.05c31.44,4.97,49.58-16.44,52.42-33.24,2.39-14.14-5.32-38.6-29.95-48.7-25.52-10.48-63.29-2.76-76.3,10.9l-.56-.54.56.54c-5.45,5.72-8.04,11.76-7.72,17.97.32,6.1,3.5,12.02,8.96,16.68l2.64,2.25-3.35-.91c-.13-.04-.27-.07-.41-.1Z"/>
      </g>
      <path class="cls-2" d="M727.26,1454.52c-98.18,0-193.42-19.23-283.08-57.15-86.6-36.63-164.38-89.07-231.17-155.86s-119.23-144.57-155.86-231.17C19.23,920.68,0,825.44,0,727.26s19.23-193.42,57.15-283.08c36.63-86.6,89.07-164.38,155.86-231.17s144.57-119.23,231.17-155.86C533.84,19.23,629.08,0,727.26,0s193.42,19.23,283.08,57.15c86.6,36.63,164.38,89.07,231.17,155.86s119.23,144.57,155.86,231.17c37.92,89.66,57.15,184.9,57.15,283.08s-19.23,193.42-57.15,283.08c-36.63,86.6-89.07,164.38-155.86,231.17s-144.57,119.23-231.17,155.86c-89.66,37.92-184.9,57.15-283.08,57.15ZM727.26,2C327.35,2,2,327.35,2,727.26s325.35,725.26,725.26,725.26,725.26-325.35,725.26-725.26S1127.17,2,727.26,2Z"/>
    </g>
  </g>
</svg>