<?xml version="1.0" encoding="UTF-8"?>
<svg id="_レイヤー_2" data-name="レイヤー 2" xmlns="http://www.w3.org/2000/svg" viewBox="0 0 1454.52 1454.52">
  <defs>
    <style>
      .cls-1 {
        fill: #fff;
      }
    </style>
  </defs>
  <g id="_レイヤー_1-2" data-name="レイヤー 1">
    <g>
      <path class="cls-1" d="M727.26,1454.52c-98.18,0-193.42-19.23-283.08-57.15-86.6-36.63-164.38-89.07-231.17-155.86s-119.23-144.57-155.86-231.17C19.23,920.68,0,825.44,0,727.26s19.23-193.42,57.15-283.08c36.63-86.6,89.07-164.38,155.86-231.17s144.57-119.23,231.17-155.86C533.84,19.23,629.08,0,727.26,0s193.42,19.23,283.08,57.15c86.6,36.63,164.38,89.07,231.17,155.86s119.23,144.57,155.86,231.17c37.92,89.66,57.15,184.9,57.15,283.08s-19.23,193.42-57.15,283.08c-36.63,86.6-89.07,164.38-155.86,231.17s-144.57,119.23-231.17,155.86c-89.66,37.92-184.9,57.15-283.08,57.15ZM727.26,2C327.35,2,2,327.35,2,727.26s325.35,725.26,725.26,725.26,725.26-325.35,725.26-725.26S1127.17,2,727.26,2Z"/>
      <path class="cls-1" d="M726.89,1431.96c-1.67,0-3.35,0-5.02-.02l.02-2c1.79.01,3.6.02,5.37.02h.62v2h-.99ZM731.89,1431.94v-2c1.99-.01,3.99-.03,5.98-.06l.03,2c-2,.03-4,.05-6.01.06ZM717.87,1431.89c-2-.03-4-.06-6-.1l.04-2c1.99.04,3.99.08,5.98.1l-.03,2ZM741.91,1431.81l-.04-2c2-.04,4-.09,5.99-.15l.06,2c-2,.06-4,.11-6.01.15ZM707.87,1431.7c-2-.05-3.99-.12-5.99-.19l.07-2c1.99.07,3.98.13,5.97.19l-.05,2ZM751.92,1431.53l-.07-2c2-.07,3.99-.15,5.99-.23l.09,2c-2,.09-4,.16-6.01.23ZM697.9,1431.35c-2-.08-4.01-.17-6.01-.27l.1-2c1.99.1,3.99.19,5.99.27l-.08,2ZM761.93,1431.12l-.1-2c2-.1,3.99-.2,5.98-.32l.12,2c-2,.11-4,.22-6,.32ZM687.89,1430.88c-2-.11-4-.23-6-.36l.13-2c1.99.13,3.99.25,5.98.35l-.11,2ZM771.93,1430.56l-.12-2c2-.12,3.99-.26,5.98-.4l.14,1.99c-2,.14-4,.28-6,.4ZM677.89,1430.25c-2-.14-4-.29-6-.44l.16-1.99c1.99.16,3.98.3,5.98.44l-.14,2ZM781.93,1429.87l-.15-1.99c1.99-.15,3.98-.31,5.97-.48l.17,1.99c-2,.17-3.99.33-5.99.49ZM667.9,1429.49c-2-.17-3.99-.34-5.99-.52l.18-1.99c1.99.18,3.98.36,5.97.52l-.17,1.99ZM791.91,1429.03l-.18-1.99c1.99-.18,3.98-.37,5.97-.57l.2,1.99c-1.99.2-3.99.39-5.98.57ZM657.92,1428.59c-2-.2-3.99-.4-5.98-.61l.21-1.99c1.99.21,3.97.41,5.96.61l-.2,1.99ZM801.88,1428.05l-.21-1.99c1.99-.21,3.97-.43,5.96-.65l.23,1.99c-1.99.23-3.98.45-5.97.66ZM647.96,1427.54c-1.99-.22-3.98-.46-5.97-.69l.24-1.99c1.98.24,3.97.47,5.95.69l-.22,1.99ZM811.83,1426.93l-.24-1.99c1.99-.24,3.97-.48,5.95-.74l.25,1.98c-1.99.25-3.97.5-5.96.74ZM638.01,1426.36c-1.99-.25-3.98-.51-5.96-.78l.27-1.98c1.98.27,3.96.53,5.94.78l-.25,1.98ZM821.77,1425.67l-.27-1.98c1.98-.27,3.96-.54,5.94-.82l.28,1.98c-1.98.28-3.97.56-5.95.82ZM628.08,1425.03c-1.99-.28-3.97-.57-5.95-.86l.29-1.98c1.98.3,3.95.58,5.93.86l-.28,1.98ZM831.69,1424.27l-.29-1.98c1.98-.29,3.95-.6,5.92-.91l.31,1.98c-1.98.31-3.96.61-5.94.91ZM618.17,1423.56c-1.98-.31-3.96-.62-5.94-.95l.32-1.97c1.97.32,3.94.64,5.92.95l-.31,1.98ZM841.59,1422.73l-.32-1.97c1.97-.32,3.94-.65,5.91-.99l.34,1.97c-1.97.34-3.95.67-5.93.99ZM608.29,1421.96c-1.98-.34-3.95-.68-5.92-1.03l.35-1.97c1.96.35,3.93.69,5.91,1.03l-.34,1.97ZM851.46,1421.04l-.35-1.97c1.97-.35,3.93-.71,5.9-1.07l.37,1.97c-1.97.37-3.94.73-5.91,1.08ZM598.42,1420.21c-1.97-.37-3.94-.74-5.91-1.12l.38-1.96c1.96.38,3.92.75,5.89,1.11l-.36,1.97ZM861.32,1419.22l-.38-1.96c1.96-.38,3.92-.76,5.88-1.16l.39,1.96c-1.96.39-3.93.78-5.9,1.16ZM588.58,1418.31c-1.97-.39-3.93-.79-5.89-1.2l.41-1.96c1.95.41,3.91.81,5.87,1.2l-.39,1.96ZM871.14,1417.26l-.41-1.96c1.96-.41,3.91-.82,5.86-1.24l.42,1.96c-1.96.42-3.92.84-5.88,1.25ZM578.77,1416.28c-1.96-.42-3.92-.85-5.87-1.29l.44-1.95c1.95.44,3.9.86,5.85,1.28l-.42,1.96ZM880.93,1415.15l-.43-1.95c1.95-.43,3.9-.88,5.84-1.33l.45,1.95c-1.95.45-3.91.89-5.86,1.33ZM569,1414.11c-1.95-.45-3.91-.9-5.85-1.37l.46-1.95c1.94.46,3.89.92,5.84,1.37l-.45,1.95ZM890.7,1412.91l-.46-1.95c1.95-.46,3.89-.93,5.83-1.41l.48,1.94c-1.94.48-3.89.95-5.84,1.41ZM559.25,1411.8c-1.95-.48-3.89-.96-5.83-1.45l.49-1.94c1.94.49,3.87.97,5.82,1.45l-.47,1.94ZM900.43,1410.52l-.49-1.94c1.94-.49,3.87-.99,5.81-1.49l.51,1.94c-1.94.51-3.88,1.01-5.82,1.5ZM549.53,1409.35c-1.94-.5-3.88-1.02-5.81-1.54l.52-1.93c1.93.52,3.86,1.03,5.79,1.53l-.5,1.94ZM910.12,1408l-.52-1.93c1.93-.52,3.86-1.04,5.78-1.58l.54,1.93c-1.93.53-3.86,1.06-5.8,1.58ZM539.85,1406.76c-1.93-.53-3.86-1.07-5.79-1.62l.55-1.92c1.92.55,3.85,1.08,5.77,1.62l-.53,1.93ZM919.78,1405.34l-.54-1.92c1.92-.54,3.84-1.1,5.76-1.66l.56,1.92c-1.92.56-3.85,1.12-5.78,1.66ZM530.22,1404.04c-1.93-.56-3.85-1.13-5.76-1.7l.57-1.92c1.91.57,3.83,1.14,5.75,1.7l-.56,1.92ZM929.4,1402.54l-.57-1.92c1.92-.57,3.83-1.15,5.73-1.74l.59,1.91c-1.91.59-3.83,1.17-5.75,1.75ZM520.62,1401.17c-1.92-.59-3.83-1.18-5.74-1.78l.6-1.91c1.9.6,3.81,1.19,5.72,1.78l-.59,1.91ZM938.99,1399.59l-.6-1.91c1.92-.6,3.83-1.21,5.73-1.83l.62,1.9c-1.91.62-3.83,1.23-5.75,1.84ZM511.06,1398.17c-1.91-.62-3.81-1.24-5.71-1.87l.63-1.9c1.9.63,3.8,1.25,5.7,1.86l-.61,1.9ZM948.57,1396.5l-.63-1.9c1.91-.63,3.81-1.27,5.71-1.91l.64,1.89c-1.9.65-3.81,1.29-5.72,1.92ZM501.54,1395.03c-1.9-.64-3.79-1.29-5.69-1.95l.66-1.89c1.89.66,3.78,1.3,5.67,1.94l-.64,1.89ZM958.1,1393.28l-.65-1.89c1.9-.66,3.79-1.32,5.68-2l.67,1.88c-1.89.67-3.79,1.34-5.69,2ZM492.08,1391.75c-1.89-.67-3.78-1.34-5.66-2.03l.68-1.88c1.88.68,3.76,1.36,5.64,2.02l-.67,1.88ZM967.58,1389.92l-.68-1.88c1.89-.68,3.77-1.38,5.65-2.08l.7,1.88c-1.88.7-3.77,1.4-5.66,2.08ZM482.66,1388.35c-1.88-.7-3.76-1.4-5.63-2.11l.71-1.87c1.87.71,3.74,1.41,5.61,2.1l-.69,1.88ZM977.01,1386.42l-.71-1.87c1.88-.71,3.75-1.43,5.61-2.16l.73,1.86c-1.87.73-3.75,1.45-5.63,2.16ZM473.29,1384.8c-1.87-.72-3.74-1.45-5.6-2.19l.74-1.86c1.86.74,3.72,1.46,5.58,2.18l-.72,1.87ZM986.38,1382.79l-.74-1.86c1.86-.74,3.73-1.48,5.58-2.24l.75,1.85c-1.86.75-3.73,1.5-5.6,2.24ZM463.97,1381.12c-1.86-.75-3.71-1.51-5.57-2.27l.76-1.85c1.85.76,3.7,1.52,5.55,2.26l-.75,1.86ZM995.7,1379.02l-.76-1.85c1.85-.76,3.7-1.54,5.55-2.32l.78,1.84c-1.85.78-3.71,1.56-5.57,2.32ZM454.72,1377.32c-1.84-.77-3.68-1.55-5.51-2.34l.79-1.84c1.83.79,3.66,1.56,5.49,2.33l-.77,1.84ZM1004.97,1375.12l-.79-1.84c1.84-.79,3.68-1.59,5.52-2.4l.8,1.83c-1.84.81-3.68,1.61-5.53,2.4ZM445.55,1373.39c-1.83-.8-3.65-1.6-5.48-2.42l.82-1.83c1.82.81,3.64,1.62,5.46,2.41l-.8,1.83ZM1014.17,1371.1l-.81-1.83c1.83-.82,3.66-1.64,5.48-2.47l.83,1.82c-1.83.83-3.66,1.66-5.49,2.48ZM436.44,1369.34c-1.82-.83-3.63-1.66-5.44-2.5l.84-1.81c1.8.84,3.61,1.67,5.43,2.49l-.83,1.82ZM1023.32,1366.93l-.84-1.81c1.82-.84,3.63-1.69,5.44-2.55l.86,1.81c-1.82.86-3.63,1.71-5.46,2.56ZM427.38,1365.15c-1.81-.85-3.61-1.71-5.41-2.57l.87-1.8c1.79.86,3.59,1.72,5.39,2.57l-.85,1.81ZM1032.4,1362.64l-.87-1.8c1.81-.87,3.61-1.75,5.4-2.63l.88,1.79c-1.8.89-3.61,1.76-5.42,2.64ZM418.38,1360.83c-1.79-.88-3.58-1.76-5.37-2.65l.89-1.79c1.78.89,3.57,1.77,5.35,2.64l-.88,1.8ZM1041.42,1358.22l-.89-1.79c1.79-.89,3.58-1.8,5.37-2.71l.91,1.78c-1.79.91-3.58,1.82-5.38,2.71ZM409.44,1356.39c-1.78-.9-3.56-1.81-5.33-2.73l.92-1.78c1.77.91,3.54,1.82,5.32,2.72l-.9,1.78ZM1050.38,1353.68l-.92-1.78c1.78-.92,3.55-1.85,5.32-2.78l.93,1.77c-1.78.94-3.55,1.87-5.34,2.79ZM400.57,1351.82c-1.77-.93-3.53-1.86-5.29-2.8l.94-1.76c1.76.94,3.52,1.87,5.28,2.8l-.93,1.77ZM1059.26,1349l-.94-1.76c1.77-.94,3.53-1.9,5.28-2.86l.96,1.75c-1.76.96-3.53,1.92-5.3,2.87ZM391.76,1347.12c-1.76-.95-3.51-1.91-5.25-2.88l.97-1.75c1.74.96,3.49,1.92,5.24,2.87l-.95,1.76ZM1068.08,1344.2l-.97-1.75c1.75-.97,3.5-1.95,5.24-2.93l.98,1.74c-1.75.99-3.5,1.97-5.26,2.94ZM383.01,1342.29c-1.74-.98-3.48-1.96-5.21-2.95l.99-1.74c1.73.99,3.46,1.97,5.2,2.95l-.98,1.74ZM1076.83,1339.28l-.99-1.74c1.74-.99,3.47-2,5.2-3l1.01,1.73c-1.73,1.01-3.47,2.02-5.21,3.01ZM374.33,1337.35c-1.73-1-3.45-2.01-5.17-3.03l1.02-1.72c1.71,1.01,3.43,2.02,5.16,3.02l-1,1.73ZM1085.5,1334.23l-1.02-1.72c1.72-1.02,3.44-2.04,5.15-3.08l1.03,1.71c-1.72,1.04-3.44,2.07-5.17,3.09ZM365.73,1332.27c-1.71-1.03-3.42-2.06-5.13-3.1l1.04-1.71c1.7,1.04,3.41,2.07,5.12,3.09l-1.03,1.71ZM1094.11,1329.06l-1.04-1.71c1.71-1.04,3.41-2.09,5.11-3.15l1.06,1.7c-1.7,1.06-3.41,2.11-5.12,3.16ZM357.19,1327.08c-1.7-1.05-3.4-2.11-5.09-3.18l1.07-1.69c1.69,1.06,3.38,2.12,5.07,3.17l-1.05,1.7ZM1102.63,1323.77l-1.07-1.69c1.69-1.07,3.38-2.14,5.06-3.22l1.08,1.68c-1.69,1.08-3.38,2.16-5.08,3.23ZM348.73,1321.76c-1.68-1.08-3.37-2.16-5.04-3.25l1.09-1.68c1.67,1.09,3.35,2.17,5.03,3.24l-1.08,1.69ZM1111.08,1318.36l-1.09-1.68c1.68-1.09,3.35-2.19,5.02-3.29l1.11,1.67c-1.67,1.11-3.35,2.21-5.03,3.3ZM340.34,1316.33c-1.67-1.1-3.34-2.21-5-3.32l1.11-1.66c1.66,1.11,3.32,2.21,4.98,3.31l-1.1,1.67ZM1119.45,1312.83l-1.11-1.66c1.66-1.12,3.32-2.24,4.97-3.37l1.13,1.65c-1.66,1.13-3.32,2.26-4.98,3.38ZM332.03,1310.77c-1.66-1.12-3.3-2.25-4.95-3.39l1.14-1.65c1.64,1.13,3.29,2.26,4.94,3.38l-1.12,1.65ZM1127.74,1307.18l-1.14-1.64c1.65-1.14,3.29-2.28,4.92-3.44l1.15,1.63c-1.64,1.16-3.28,2.3-4.93,3.45ZM323.8,1305.1c-1.64-1.15-3.27-2.3-4.9-3.46l1.16-1.63c1.62,1.16,3.25,2.31,4.89,3.45l-1.15,1.64ZM1135.95,1301.41l-1.16-1.63c1.63-1.16,3.25-2.33,4.87-3.5l1.18,1.62c-1.62,1.18-3.25,2.35-4.88,3.52ZM315.65,1299.31c-1.62-1.17-3.24-2.35-4.85-3.53l1.18-1.61c1.61,1.18,3.22,2.35,4.84,3.52l-1.17,1.62ZM1144.07,1295.53l-1.18-1.61c1.61-1.18,3.22-2.38,4.82-3.57l1.2,1.6c-1.61,1.2-3.22,2.4-4.83,3.58ZM307.57,1293.41c-1.61-1.19-3.21-2.39-4.8-3.6l1.21-1.6c1.59,1.2,3.19,2.4,4.79,3.59l-1.19,1.61ZM1152.1,1289.54l-1.21-1.6c1.59-1.21,3.18-2.42,4.77-3.64l1.22,1.58c-1.59,1.22-3.18,2.44-4.78,3.65ZM299.58,1287.39c-1.59-1.21-3.17-2.44-4.75-3.67l1.23-1.58c1.57,1.22,3.15,2.44,4.74,3.66l-1.21,1.59ZM1160.06,1283.43l-1.23-1.58c1.58-1.23,3.15-2.46,4.71-3.71l1.24,1.57c-1.57,1.25-3.15,2.49-4.73,3.72ZM291.68,1281.25c-1.57-1.24-3.14-2.48-4.7-3.73l1.25-1.56c1.56,1.25,3.12,2.49,4.69,3.72l-1.24,1.57ZM1167.92,1277.22l-1.25-1.56c1.56-1.25,3.11-2.51,4.66-3.77l1.26,1.55c-1.55,1.27-3.11,2.53-4.67,3.78ZM283.87,1275.01c-1.55-1.26-3.1-2.53-4.65-3.8l1.27-1.54c1.54,1.27,3.08,2.53,4.64,3.79l-1.26,1.55ZM1175.69,1270.89l-1.27-1.54c1.54-1.27,3.08-2.55,4.61-3.84l1.29,1.53c-1.53,1.29-3.08,2.57-4.62,3.85ZM276.14,1268.65c-1.54-1.28-3.07-2.57-4.59-3.87l1.29-1.53c1.52,1.29,3.05,2.58,4.58,3.86l-1.28,1.54ZM1183.38,1264.45l-1.29-1.52c1.52-1.29,3.04-2.59,4.55-3.9l1.31,1.51c-1.52,1.31-3.04,2.62-4.57,3.91ZM268.5,1262.19c-1.52-1.3-3.03-2.62-4.54-3.93l1.31-1.51c1.5,1.31,3.01,2.62,4.53,3.92l-1.3,1.52ZM1190.96,1257.91l-1.32-1.51c1.5-1.32,3-2.64,4.5-3.96l1.33,1.49c-1.5,1.33-3,2.66-4.51,3.98ZM260.95,1255.62c-1.5-1.33-3-2.66-4.48-4l1.34-1.49c1.49,1.33,2.98,2.66,4.47,3.98l-1.32,1.5ZM1198.46,1251.26l-1.34-1.49c1.49-1.34,2.96-2.68,4.44-4.03l1.35,1.47c-1.48,1.35-2.96,2.7-4.45,4.04ZM253.49,1248.94c-1.48-1.35-2.96-2.7-4.43-4.06l1.36-1.47c1.47,1.36,2.94,2.7,4.42,4.05l-1.34,1.48ZM1205.86,1244.51l-1.36-1.47c1.47-1.36,2.93-2.72,4.38-4.09l1.37,1.46c-1.46,1.37-2.92,2.74-4.39,4.1ZM246.13,1242.15c-1.46-1.37-2.92-2.74-4.37-4.12l1.38-1.45c1.45,1.38,2.9,2.75,4.36,4.11l-1.37,1.46ZM1213.16,1237.65l-1.38-1.45c1.45-1.38,2.89-2.76,4.32-4.15l1.39,1.44c-1.44,1.39-2.88,2.78-4.33,4.16ZM238.87,1235.26c-1.44-1.39-2.88-2.78-4.31-4.18l1.4-1.43c1.43,1.4,2.86,2.79,4.3,4.17l-1.39,1.44ZM1220.37,1230.69l-1.4-1.43c1.43-1.4,2.85-2.8,4.26-4.21l1.41,1.42c-1.42,1.41-2.84,2.82-4.27,4.22ZM231.7,1228.27c-1.42-1.41-2.84-2.82-4.25-4.24l1.42-1.41c1.41,1.42,2.82,2.83,4.24,4.23l-1.41,1.42ZM1227.47,1223.63l-1.42-1.41c1.41-1.42,2.81-2.84,4.2-4.27l1.43,1.4c-1.4,1.43-2.8,2.86-4.21,4.28ZM224.63,1221.18c-1.4-1.43-2.8-2.86-4.19-4.3l1.44-1.39c1.39,1.44,2.78,2.87,4.18,4.29l-1.43,1.4ZM1234.47,1216.48l-1.44-1.39c1.39-1.44,2.77-2.88,4.14-4.33l1.45,1.38c-1.38,1.45-2.76,2.9-4.15,4.34ZM217.66,1213.99c-1.38-1.45-2.76-2.9-4.13-4.36l1.46-1.37c1.37,1.46,2.74,2.91,4.12,4.35l-1.45,1.38ZM1241.38,1209.22l-1.46-1.37c1.37-1.46,2.73-2.92,4.08-4.39l1.47,1.36c-1.36,1.47-2.72,2.94-4.09,4.4ZM210.79,1206.7c-1.36-1.47-2.72-2.94-4.07-4.42l1.48-1.35c1.35,1.48,2.7,2.94,4.06,4.41l-1.46,1.36ZM1248.17,1201.87l-1.48-1.35c1.34-1.48,2.68-2.96,4.02-4.44l1.49,1.34c-1.34,1.49-2.68,2.98-4.03,4.46ZM204.02,1199.31c-1.34-1.49-2.68-2.98-4.01-4.48l1.5-1.33c1.33,1.5,2.66,2.98,4,4.47l-1.48,1.34ZM1254.86,1194.42l-1.5-1.33c1.32-1.49,2.64-2.99,3.95-4.5l1.51,1.31c-1.32,1.51-2.64,3.01-3.96,4.51ZM197.36,1191.82c-1.32-1.51-2.64-3.02-3.95-4.54l1.51-1.31c1.31,1.51,2.62,3.02,3.94,4.52l-1.5,1.32ZM1261.45,1186.89l-1.52-1.3c1.3-1.51,2.6-3.03,3.89-4.55l1.53,1.29c-1.29,1.53-2.59,3.05-3.9,4.57ZM190.81,1184.24c-1.3-1.53-2.59-3.06-3.88-4.59l1.53-1.29c1.28,1.53,2.57,3.06,3.87,4.58l-1.52,1.3ZM1267.92,1179.26l-1.53-1.28c1.28-1.53,2.55-3.07,3.82-4.61l1.54,1.27c-1.27,1.55-2.55,3.09-3.83,4.62ZM184.36,1176.57c-1.28-1.54-2.55-3.09-3.82-4.65l1.55-1.26c1.26,1.55,2.53,3.09,3.81,4.63l-1.54,1.28ZM1274.29,1171.54l-1.55-1.26c1.26-1.55,2.51-3.1,3.76-4.66l1.56,1.25c-1.25,1.56-2.51,3.12-3.77,4.67ZM178.02,1168.81c-1.26-1.56-2.51-3.13-3.75-4.7l1.57-1.24c1.24,1.57,2.49,3.13,3.74,4.69l-1.56,1.25ZM1280.55,1163.73l-1.57-1.24c1.24-1.57,2.47-3.14,3.69-4.71l1.58,1.23c-1.23,1.58-2.46,3.16-3.7,4.73ZM171.79,1160.96c-1.24-1.58-2.46-3.17-3.68-4.75l1.59-1.22c1.22,1.59,2.44,3.17,3.67,4.74l-1.58,1.23ZM1286.69,1155.84l-1.59-1.22c1.21-1.58,2.42-3.17,3.62-4.76l1.6,1.2c-1.21,1.6-2.42,3.19-3.63,4.78ZM165.67,1153.02c-1.21-1.6-2.42-3.2-3.62-4.81l1.6-1.2c1.2,1.6,2.4,3.2,3.61,4.79l-1.59,1.21ZM1292.73,1147.86l-1.6-1.2c1.19-1.6,2.38-3.2,3.56-4.81l1.61,1.18c-1.18,1.61-2.37,3.22-3.57,4.83ZM159.67,1144.99c-1.19-1.61-2.37-3.23-3.55-4.86l1.62-1.17c1.17,1.62,2.35,3.24,3.54,4.84l-1.61,1.19ZM1298.65,1139.8l-1.62-1.17c1.17-1.62,2.33-3.24,3.49-4.86l1.63,1.16c-1.16,1.63-2.32,3.26-3.5,4.88ZM153.77,1136.87c-1.17-1.63-2.33-3.27-3.48-4.91l1.64-1.15c1.15,1.64,2.31,3.27,3.47,4.89l-1.63,1.16ZM1304.45,1131.65l-1.64-1.15c1.15-1.63,2.29-3.27,3.42-4.91l1.65,1.13c-1.13,1.65-2.28,3.29-3.43,4.92ZM147.99,1128.67c-1.14-1.65-2.28-3.3-3.41-4.96l1.65-1.13c1.13,1.65,2.26,3.3,3.4,4.94l-1.64,1.14ZM1310.13,1123.43l-1.65-1.13c1.12-1.65,2.24-3.3,3.35-4.96l1.66,1.11c-1.11,1.66-2.23,3.32-3.36,4.97ZM142.33,1120.4c-1.12-1.67-2.23-3.33-3.34-5.01l1.67-1.1c1.1,1.67,2.21,3.33,3.33,4.99l-1.66,1.12ZM1315.7,1115.13l-1.67-1.1c1.1-1.66,2.19-3.33,3.28-5.01l1.68,1.09c-1.09,1.68-2.18,3.35-3.28,5.02ZM136.79,1112.04c-1.1-1.68-2.19-3.37-3.27-5.06l1.68-1.08c1.08,1.68,2.17,3.36,3.26,5.04l-1.67,1.09ZM1321.15,1106.75l-1.68-1.08c1.07-1.68,2.14-3.36,3.2-5.05l1.69,1.06c-1.06,1.69-2.13,3.38-3.21,5.06ZM131.36,1103.6c-1.07-1.7-2.14-3.4-3.2-5.1l1.7-1.05c1.06,1.7,2.12,3.4,3.19,5.09l-1.69,1.07ZM1326.48,1098.29l-1.7-1.05c1.05-1.69,2.09-3.39,3.13-5.09l1.71,1.04c-1.04,1.71-2.09,3.41-3.14,5.11ZM126.06,1095.08c-1.05-1.71-2.09-3.43-3.12-5.15l1.71-1.03c1.03,1.72,2.07,3.43,3.12,5.13l-1.71,1.04ZM1331.69,1089.77l-1.71-1.03c1.03-1.71,2.04-3.42,3.06-5.14l1.72,1.02c-1.01,1.72-2.04,3.44-3.07,5.15ZM120.87,1086.49c-1.02-1.73-2.04-3.46-3.05-5.19l1.73-1.01c1.01,1.73,2.02,3.46,3.04,5.18l-1.72,1.02ZM1336.78,1081.17l-1.73-1.01c1-1.72,2-3.45,2.98-5.18l1.74.99c-.99,1.74-1.99,3.47-2.99,5.19ZM115.81,1077.82c-1-1.74-1.99-3.49-2.98-5.23l1.74-.98c.98,1.75,1.97,3.49,2.97,5.22l-1.73,1ZM1341.74,1072.5l-1.74-.98c.98-1.74,1.95-3.48,2.91-5.22l1.75.97c-.97,1.75-1.94,3.49-2.92,5.23ZM110.87,1069.08c-.97-1.75-1.94-3.51-2.9-5.28l1.76-.96c.96,1.76,1.92,3.51,2.89,5.26l-1.75.97ZM1346.58,1063.76l-1.76-.96c.95-1.75,1.9-3.5,2.83-5.26l1.76.94c-.94,1.76-1.89,3.52-2.84,5.28ZM106.06,1060.27c-.95-1.77-1.89-3.54-2.83-5.32l1.77-.93c.93,1.77,1.87,3.54,2.82,5.3l-1.76.95ZM1351.29,1054.96l-1.77-.93c.93-1.76,1.85-3.53,2.76-5.3l1.78.92c-.92,1.78-1.84,3.55-2.77,5.31ZM101.37,1051.39c-.92-1.78-1.84-3.57-2.75-5.36l1.78-.91c.91,1.79,1.82,3.57,2.75,5.34l-1.78.92ZM1355.88,1046.09l-1.78-.91c.9-1.77,1.8-3.55,2.68-5.34l1.79.89c-.89,1.79-1.79,3.57-2.69,5.35ZM96.81,1042.45c-.9-1.8-1.79-3.6-2.68-5.4l1.8-.88c.88,1.8,1.77,3.59,2.67,5.38l-1.79.9ZM1360.33,1037.16l-1.79-.88c.88-1.79,1.75-3.58,2.61-5.37l1.8.87c-.86,1.8-1.73,3.6-2.61,5.39ZM92.37,1033.43c-.87-1.81-1.74-3.62-2.6-5.44l1.81-.85c.86,1.81,1.72,3.62,2.59,5.42l-1.8.87ZM1364.67,1028.17l-1.81-.86c.85-1.8,1.69-3.6,2.53-5.41l1.81.84c-.84,1.81-1.68,3.62-2.54,5.42ZM88.07,1024.36c-.85-1.82-1.69-3.65-2.52-5.48l1.82-.83c.83,1.82,1.67,3.64,2.51,5.46l-1.81.84ZM1368.87,1019.12l-1.82-.83c.83-1.81,1.64-3.62,2.45-5.44l1.83.81c-.81,1.83-1.63,3.64-2.46,5.46ZM83.89,1015.22c-.82-1.83-1.63-3.67-2.44-5.51l1.83-.8c.8,1.84,1.62,3.67,2.44,5.5l-1.83.82ZM1372.94,1010.01l-1.83-.8c.8-1.82,1.59-3.65,2.37-5.48l1.84.79c-.79,1.83-1.58,3.66-2.38,5.49ZM79.85,1006.02c-.8-1.84-1.58-3.69-2.36-5.55l1.84-.78c.78,1.85,1.56,3.69,2.36,5.53l-1.84.79ZM1376.88,1000.85l-1.84-.78c.77-1.83,1.54-3.67,2.3-5.51l1.85.76c-.76,1.84-1.53,3.69-2.3,5.52ZM75.94,996.76c-.77-1.86-1.53-3.72-2.28-5.58l1.85-.75c.75,1.86,1.51,3.72,2.28,5.57l-1.85.77ZM1380.7,991.61l-1.85-.75c.75-1.85,1.49-3.71,2.23-5.56l1.86.73c-.74,1.86-1.48,3.72-2.23,5.58ZM72.16,987.45c-.74-1.87-1.48-3.74-2.21-5.62l1.87-.72c.72,1.87,1.46,3.74,2.2,5.6l-1.86.74ZM1384.39,982.3l-1.87-.72c.72-1.86,1.44-3.73,2.15-5.6l1.87.71c-.71,1.88-1.43,3.75-2.15,5.61ZM68.51,978.08c-.71-1.88-1.42-3.76-2.12-5.65l1.88-.7c.7,1.88,1.4,3.76,2.12,5.63l-1.87.71ZM1387.95,972.94l-1.88-.7c.7-1.87,1.38-3.75,2.07-5.63l1.88.68c-.68,1.88-1.37,3.77-2.07,5.64ZM65,968.65c-.69-1.89-1.37-3.78-2.04-5.68l1.88-.67c.67,1.89,1.35,3.78,2.04,5.66l-1.88.68ZM1391.38,963.52l-1.88-.67c.67-1.88,1.33-3.77,1.98-5.66l1.89.65c-.66,1.89-1.32,3.79-1.99,5.67ZM61.62,959.18c-.66-1.9-1.32-3.8-1.96-5.71l1.89-.64c.64,1.9,1.29,3.8,1.96,5.69l-1.89.66ZM1394.67,954.06l-1.89-.64c.64-1.89,1.28-3.79,1.9-5.68l1.9.63c-.63,1.9-1.26,3.8-1.91,5.7ZM58.38,949.66c-.63-1.91-1.26-3.82-1.88-5.74l1.9-.61c.62,1.91,1.24,3.82,1.87,5.72l-1.9.63ZM1397.82,944.55l-1.9-.62c.62-1.9,1.22-3.8,1.82-5.71l1.91.6c-.6,1.91-1.21,3.82-1.83,5.73ZM55.27,940.08c-.61-1.92-1.21-3.84-1.8-5.76l1.91-.59c.59,1.92,1.19,3.83,1.79,5.75l-1.91.61ZM1400.84,935l-1.91-.59c.59-1.91,1.17-3.82,1.74-5.74l1.92.57c-.57,1.92-1.16,3.84-1.75,5.75ZM52.31,930.47c-.58-1.92-1.15-3.84-1.71-5.77l1.92-.56c.56,1.92,1.12,3.83,1.7,5.75l-1.91.58ZM1403.72,925.4l-1.92-.56c.56-1.92,1.11-3.84,1.66-5.76l1.92.54c-.55,1.93-1.1,3.85-1.66,5.78ZM49.49,920.85c-.55-1.93-1.09-3.86-1.62-5.79l1.93-.53c.53,1.93,1.07,3.85,1.62,5.77l-1.92.55ZM1406.46,915.77l-1.93-.54c.53-1.92,1.06-3.85,1.58-5.78l1.93.52c-.52,1.94-1.04,3.87-1.58,5.8ZM46.81,911.2c-.52-1.93-1.03-3.87-1.54-5.81l1.94-.5c.5,1.93,1.02,3.87,1.54,5.79l-1.93.52ZM1409.06,906.09l-1.94-.51c.51-1.93,1-3.87,1.49-5.81l1.94.49c-.49,1.94-.99,3.88-1.5,5.82ZM44.28,901.51c-.49-1.94-.98-3.88-1.46-5.83l1.94-.48c.48,1.94.96,3.88,1.45,5.81l-1.94.49ZM1411.53,896.38l-1.94-.48c.48-1.94.95-3.88,1.41-5.83l1.95.46c-.46,1.95-.93,3.9-1.41,5.84ZM41.87,891.78c-.47-1.95-.92-3.9-1.37-5.85l1.95-.45c.45,1.95.91,3.89,1.37,5.83l-1.95.46ZM1413.86,886.64l-1.95-.45c.45-1.95.89-3.89,1.33-5.84l1.95.43c-.44,1.96-.88,3.91-1.33,5.86ZM39.61,882.02c-.44-1.96-.87-3.91-1.29-5.87l1.96-.42c.42,1.95.85,3.91,1.29,5.85l-1.95.44ZM1416.04,876.86l-1.96-.42c.42-1.95.84-3.91,1.24-5.86l1.96.41c-.41,1.96-.82,3.92-1.25,5.88ZM37.49,872.23c-.41-1.96-.81-3.92-1.21-5.89l1.96-.39c.39,1.96.79,3.92,1.2,5.87l-1.96.41ZM1418.09,867.06l-1.96-.39c.39-1.96.78-3.92,1.16-5.88l1.96.38c-.38,1.97-.77,3.93-1.16,5.9ZM35.51,862.41c-.38-1.96-.75-3.93-1.12-5.9l1.97-.37c.36,1.97.74,3.93,1.12,5.89l-1.96.38ZM1420,857.22l-1.97-.37c.37-1.96.72-3.93,1.07-5.9l1.97.35c-.35,1.97-.71,3.95-1.08,5.91ZM33.67,852.56c-.35-1.97-.7-3.94-1.04-5.92l1.97-.34c.34,1.97.68,3.94,1.03,5.9l-1.97.35ZM1421.76,847.36l-1.97-.34c.34-1.97.67-3.94.99-5.91l1.97.32c-.32,1.98-.65,3.95-.99,5.93ZM31.97,842.69c-.33-1.98-.64-3.95-.95-5.94l1.98-.31c.31,1.98.62,3.95.95,5.92l-1.97.33ZM1423.39,837.48l-1.98-.31c.31-1.97.61-3.95.91-5.92l1.98.29c-.29,1.98-.6,3.96-.91,5.94ZM30.41,832.79c-.3-1.98-.59-3.96-.87-5.95l1.98-.28c.28,1.98.57,3.96.86,5.93l-1.98.29ZM1424.87,827.57l-1.98-.28c.28-1.98.56-3.96.82-5.94l1.98.27c-.27,1.99-.54,3.97-.82,5.95ZM29,822.88c-.27-1.98-.53-3.97-.78-5.96l1.98-.25c.25,1.98.51,3.96.78,5.94l-1.98.27ZM1426.21,817.64l-1.98-.25c.25-1.98.5-3.96.74-5.95l1.99.24c-.24,1.99-.48,3.98-.74,5.97ZM27.72,812.94c-.24-1.99-.47-3.98-.7-5.97l1.99-.22c.22,1.99.46,3.97.7,5.95l-1.99.24ZM1427.42,807.7l-1.99-.23c.22-1.98.44-3.97.65-5.96l1.99.21c-.21,1.99-.43,3.99-.65,5.97ZM26.59,802.99c-.21-1.99-.42-3.98-.61-5.98l1.99-.2c.2,1.99.4,3.98.61,5.96l-1.99.21ZM1428.48,797.74l-1.99-.2c.2-1.99.39-3.98.57-5.97l1.99.18c-.18,2-.37,3.99-.57,5.98ZM25.59,793.02c-.18-1.99-.36-3.99-.53-5.99l1.99-.17c.17,1.99.34,3.98.53,5.97l-1.99.18ZM1429.4,787.76l-1.99-.17c.17-1.99.33-3.98.48-5.97l1.99.15c-.15,2-.32,4-.48,5.99ZM24.74,783.04c-.16-2-.3-3.99-.44-6l2-.14c.14,2,.29,3.99.44,5.98l-1.99.16ZM1430.17,777.77l-1.99-.14c.14-1.99.27-3.98.4-5.98l2,.12c-.12,2-.26,4-.4,6ZM24.03,773.05c-.13-2-.25-4-.36-6l2-.11c.11,2,.23,3.99.36,5.98l-2,.13ZM1430.81,767.78l-2-.11c.11-1.99.22-3.99.31-5.99l2,.1c-.1,2-.2,4-.32,6ZM23.46,763.04c-.1-2-.19-4-.28-6l2-.08c.08,2,.17,3.99.28,5.99l-2,.1ZM1431.31,757.77l-2-.09c.08-1.99.16-3.97.23-5.97l2,.07c-.07,2-.14,3.99-.23,5.98ZM23.03,753.04c-.07-2-.14-4-.19-6.01l2-.05c.05,2,.12,4,.19,5.99l-2,.07ZM1431.66,747.79l-2-.06c.06-1.99.11-3.98.15-5.98l2,.04c-.04,2-.09,4-.15,5.99ZM22.74,743.02c-.04-2-.08-4-.11-6.01l2-.03c.03,2,.06,4,.11,5.99l-2,.04ZM1431.88,737.8l-2-.03c.03-1.99.05-3.99.06-5.99h2c-.01,2.02-.03,4.02-.06,6.02ZM22.59,733.01c-.01-1.92-.02-3.83-.02-5.75v-.26h2v.26c0,1.91,0,3.82.02,5.73l-2,.02ZM1431.96,727.79h-2v-.53c0-2,0-4-.03-5.99l2-.02c.02,2,.03,4,.03,6.01v.53ZM24.58,723h-2c.01-2.02.03-4.02.06-6.02l2,.03c-.03,2-.05,3.99-.06,5.99ZM1429.89,717.27c-.03-2-.06-4-.11-5.99l2-.04c.04,2,.08,4,.11,6.01l-2,.03ZM24.71,713.02l-2-.04c.04-2,.09-4,.14-6l2,.06c-.06,1.99-.1,3.98-.14,5.98ZM1429.68,707.28c-.05-2-.12-4-.19-5.99l2-.07c.07,2,.14,4,.19,6.01l-2,.06ZM24.97,703.06l-2-.07c.07-2,.14-3.99.23-5.98l2,.08c-.08,1.99-.16,3.98-.23,5.97ZM1429.33,697.3c-.08-2-.18-3.99-.28-5.99l2-.1c.1,2,.19,4,.28,6l-2,.08ZM25.38,693.1l-2-.09c.09-2,.2-4,.31-6l2,.11c-.11,1.99-.22,3.99-.31,5.98ZM1428.84,687.32c-.11-2-.23-3.99-.36-5.98l2-.13c.13,2,.25,4,.36,6l-2,.11ZM25.93,683.13l-2-.12c.12-2,.26-4,.4-6l2,.14c-.14,1.99-.27,3.98-.4,5.98ZM1428.21,677.35c-.14-2-.29-3.99-.45-5.98l1.99-.16c.16,2,.31,3.99.45,6l-2,.14ZM26.62,673.16l-1.99-.15c.15-2,.31-4,.48-5.99l1.99.17c-.17,1.99-.33,3.98-.48,5.97ZM1427.44,667.39c-.17-1.99-.34-3.98-.53-5.97l1.99-.19c.19,1.99.36,3.99.53,5.99l-1.99.17ZM27.45,663.21l-1.99-.18c.18-2,.37-3.99.57-5.98l1.99.2c-.2,1.99-.39,3.98-.57,5.97ZM1426.53,657.44c-.2-1.99-.4-3.98-.61-5.96l1.99-.21c.21,1.99.42,3.98.62,5.98l-1.99.2ZM28.41,653.27l-1.99-.21c.21-1.99.43-3.99.65-5.97l1.99.22c-.22,1.98-.44,3.97-.65,5.96ZM1425.48,647.51c-.22-1.99-.46-3.97-.7-5.95l1.99-.24c.24,1.99.47,3.98.7,5.97l-1.99.22ZM29.52,643.34l-1.99-.24c.24-1.99.48-3.98.74-5.97l1.98.25c-.25,1.98-.5,3.96-.73,5.95ZM1424.29,637.59c-.25-1.98-.51-3.96-.78-5.94l1.98-.27c.27,1.98.53,3.97.78,5.96l-1.98.25ZM30.78,633.43l-1.98-.26c.26-1.99.54-3.97.82-5.96l1.98.28c-.28,1.98-.55,3.96-.82,5.94ZM1422.96,627.69c-.28-1.98-.57-3.96-.87-5.93l1.98-.3c.3,1.98.59,3.96.87,5.95l-1.98.28ZM32.17,623.54l-1.98-.29c.29-1.98.6-3.96.91-5.94l1.98.31c-.31,1.97-.61,3.95-.9,5.93ZM1421.48,617.81c-.31-1.98-.63-3.95-.95-5.92l1.97-.33c.33,1.98.64,3.95.95,5.94l-1.98.31ZM33.7,613.66l-1.97-.32c.32-1.98.65-3.96.99-5.93l1.97.34c-.34,1.97-.67,3.94-.99,5.91ZM1419.87,607.96c-.34-1.97-.68-3.94-1.04-5.9l1.97-.35c.35,1.97.7,3.94,1.04,5.92l-1.97.34ZM35.37,603.82l-1.97-.35c.35-1.97.71-3.95,1.07-5.92l1.97.37c-.37,1.96-.72,3.93-1.07,5.9ZM1418.12,598.12c-.36-1.97-.74-3.93-1.12-5.89l1.96-.38c.38,1.96.76,3.93,1.12,5.91l-1.97.37ZM37.18,593.99l-1.96-.38c.38-1.97.77-3.94,1.16-5.9l1.96.39c-.39,1.96-.78,3.92-1.16,5.88ZM1416.22,588.31c-.39-1.96-.79-3.92-1.2-5.87l1.96-.41c.41,1.96.81,3.92,1.21,5.89l-1.96.39ZM39.14,584.19l-1.96-.4c.41-1.96.82-3.92,1.24-5.88l1.96.42c-.42,1.95-.83,3.91-1.24,5.86ZM1414.19,578.53c-.42-1.95-.85-3.91-1.29-5.85l1.95-.44c.44,1.95.87,3.91,1.29,5.87l-1.96.42ZM41.23,574.43l-1.95-.43c.43-1.96.88-3.91,1.33-5.86l1.95.45c-.45,1.95-.89,3.89-1.32,5.85ZM1412.01,568.78c-.45-1.95-.91-3.89-1.37-5.83l1.95-.47c.47,1.95.92,3.9,1.38,5.85l-1.95.45ZM43.46,564.69l-1.95-.46c.46-1.95.93-3.9,1.41-5.84l1.94.48c-.48,1.94-.95,3.88-1.41,5.83ZM1409.7,559.06c-.48-1.94-.96-3.88-1.46-5.81l1.94-.49c.5,1.94.98,3.88,1.46,5.83l-1.94.48ZM45.84,554.99l-1.94-.49c.49-1.94.99-3.88,1.49-5.82l1.94.51c-.5,1.93-1,3.87-1.49,5.8ZM1407.25,549.38c-.5-1.93-1.02-3.86-1.54-5.79l1.93-.52c.52,1.93,1.04,3.87,1.54,5.81l-1.94.5ZM48.35,545.32l-1.93-.52c.52-1.94,1.04-3.87,1.58-5.8l1.93.53c-.53,1.92-1.06,3.85-1.57,5.78ZM1404.66,539.74c-.53-1.93-1.07-3.85-1.62-5.77l1.92-.55c.55,1.93,1.09,3.85,1.62,5.79l-1.93.53ZM50.99,535.69l-1.92-.54c.54-1.93,1.1-3.85,1.66-5.78l1.92.56c-.56,1.92-1.11,3.84-1.66,5.76ZM1401.93,530.13c-.56-1.92-1.13-3.83-1.7-5.75l1.91-.58c.58,1.92,1.15,3.84,1.71,5.76l-1.92.56ZM53.78,526.09l-1.92-.57c.57-1.92,1.15-3.84,1.74-5.75l1.91.59c-.59,1.91-1.17,3.82-1.74,5.74ZM1399.06,520.54c-.59-1.92-1.19-3.83-1.79-5.75l1.91-.61c.61,1.92,1.21,3.84,1.8,5.76l-1.91.59ZM56.71,516.54l-1.91-.6c.6-1.91,1.21-3.82,1.83-5.73l1.9.62c-.61,1.9-1.22,3.8-1.82,5.71ZM1396.04,510.97c-.62-1.91-1.24-3.82-1.88-5.72l1.9-.63c.63,1.91,1.26,3.82,1.88,5.74l-1.9.62ZM59.77,507.03l-1.9-.63c.63-1.9,1.26-3.8,1.91-5.7l1.89.64c-.64,1.89-1.28,3.79-1.9,5.68ZM1392.89,501.44c-.64-1.9-1.3-3.8-1.96-5.69l1.89-.66c.66,1.9,1.32,3.8,1.96,5.71l-1.89.64ZM62.96,497.57l-1.89-.65c.65-1.89,1.32-3.79,1.99-5.67l1.88.67c-.67,1.88-1.33,3.77-1.98,5.66ZM1389.6,491.97c-.67-1.89-1.35-3.78-2.04-5.66l1.88-.69c.69,1.89,1.37,3.78,2.04,5.68l-1.88.67ZM66.29,488.15l-1.88-.68c.68-1.88,1.37-3.77,2.07-5.64l1.88.7c-.7,1.87-1.38,3.75-2.06,5.63ZM1386.17,482.54c-.7-1.88-1.41-3.76-2.12-5.63l1.87-.71c.72,1.88,1.42,3.76,2.13,5.65l-1.88.7ZM69.76,478.78l-1.87-.71c.71-1.88,1.42-3.75,2.15-5.61l1.87.72c-.72,1.86-1.44,3.73-2.14,5.6ZM1382.61,473.17c-.73-1.87-1.46-3.74-2.2-5.6l1.86-.74c.74,1.87,1.48,3.74,2.21,5.62l-1.87.72ZM73.36,469.46l-1.86-.73c.74-1.86,1.48-3.72,2.23-5.58l1.85.75c-.75,1.85-1.49,3.71-2.22,5.57ZM1378.92,463.85c-.75-1.86-1.51-3.71-2.28-5.57l1.85-.77c.77,1.86,1.53,3.72,2.29,5.58l-1.85.75ZM77.09,460.2l-1.85-.76c.76-1.85,1.53-3.69,2.3-5.52l1.84.78c-.77,1.83-1.54,3.67-2.29,5.51ZM1375.09,454.58c-.78-1.85-1.56-3.69-2.36-5.53l1.84-.79c.8,1.84,1.58,3.69,2.37,5.55l-1.84.78ZM80.94,451.03l-1.84-.79c.79-1.83,1.58-3.67,2.38-5.49l1.83.8c-.8,1.82-1.59,3.65-2.37,5.48ZM1371.13,445.38c-.8-1.84-1.62-3.67-2.44-5.5l1.82-.82c.82,1.83,1.64,3.67,2.44,5.51l-1.83.8ZM84.92,441.91l-1.83-.81c.81-1.82,1.63-3.64,2.46-5.46l1.82.83c-.82,1.81-1.64,3.62-2.45,5.44ZM1367.05,436.23c-.83-1.82-1.67-3.64-2.51-5.46l1.81-.84c.85,1.82,1.69,3.65,2.52,5.47l-1.82.83ZM89.03,432.85l-1.82-.84c.84-1.81,1.68-3.62,2.54-5.42l1.81.86c-.85,1.8-1.69,3.6-2.53,5.41ZM1362.83,427.14c-.86-1.81-1.72-3.62-2.59-5.42l1.8-.87c.87,1.81,1.74,3.62,2.6,5.44l-1.81.86ZM93.26,423.85l-1.8-.87c.86-1.8,1.73-3.6,2.61-5.39l1.8.88c-.88,1.79-1.74,3.58-2.61,5.37ZM1358.48,418.12c-.88-1.8-1.77-3.59-2.67-5.38l1.79-.9c.9,1.8,1.79,3.59,2.68,5.4l-1.79.88ZM97.63,414.9l-1.79-.89c.89-1.79,1.79-3.57,2.69-5.35l1.78.91c-.9,1.77-1.79,3.55-2.68,5.34ZM1354,409.16c-.91-1.79-1.82-3.57-2.75-5.34l1.77-.92c.93,1.78,1.84,3.57,2.76,5.36l-1.78.91ZM102.12,406.02l-1.78-.92c.91-1.78,1.84-3.55,2.77-5.32l1.77.93c-.93,1.76-1.85,3.53-2.76,5.3ZM1349.4,400.27c-.93-1.77-1.87-3.54-2.82-5.3l1.76-.95c.95,1.77,1.89,3.54,2.83,5.32l-1.77.93ZM106.75,397.2l-1.77-.94c.94-1.76,1.89-3.52,2.84-5.28l1.76.96c-.95,1.75-1.9,3.5-2.83,5.26ZM1344.67,391.44c-.96-1.76-1.92-3.51-2.9-5.26l1.75-.97c.97,1.75,1.94,3.51,2.9,5.28l-1.76.96ZM111.49,388.45l-1.75-.97c.97-1.75,1.94-3.49,2.92-5.24l1.74.98c-.98,1.74-1.95,3.48-2.91,5.22ZM1339.82,382.69c-.98-1.75-1.97-3.48-2.97-5.22l1.73-1c1,1.74,1.99,3.49,2.98,5.23l-1.74.98ZM116.36,379.76l-1.74-.99c.99-1.74,1.99-3.47,2.99-5.19l1.73,1.01c-1,1.72-2,3.45-2.98,5.18ZM1334.84,374.01c-1.01-1.73-2.02-3.46-3.04-5.18l1.72-1.02c1.03,1.72,2.04,3.46,3.05,5.19l-1.73,1.01ZM121.36,371.14l-1.72-1.01c1.01-1.72,2.04-3.44,3.06-5.15l1.71,1.03c-1.03,1.71-2.04,3.42-3.05,5.14ZM1329.74,365.39c-1.03-1.71-2.07-3.43-3.12-5.13l1.71-1.05c1.05,1.71,2.09,3.42,3.13,5.15l-1.71,1.03ZM126.48,362.59l-1.71-1.04c1.04-1.71,2.08-3.41,3.14-5.11l1.7,1.05c-1.05,1.69-2.09,3.39-3.13,5.09ZM1324.52,356.86c-1.06-1.7-2.12-3.39-3.19-5.08l1.69-1.07c1.07,1.69,2.14,3.39,3.2,5.1l-1.7,1.05ZM131.71,354.12l-1.69-1.06c1.06-1.69,2.13-3.38,3.21-5.06l1.69,1.08c-1.07,1.68-2.14,3.36-3.2,5.05ZM1319.18,348.4c-1.08-1.68-2.17-3.36-3.26-5.04l1.67-1.09c1.1,1.68,2.19,3.36,3.27,5.05l-1.68,1.08ZM137.07,345.71l-1.68-1.09c1.09-1.68,2.18-3.35,3.28-5.02l1.67,1.1c-1.1,1.66-2.19,3.33-3.27,5ZM1313.72,340.02c-1.1-1.67-2.21-3.33-3.33-4.99l1.66-1.12c1.12,1.66,2.24,3.33,3.34,5.01l-1.67,1.1ZM142.55,337.39l-1.66-1.11c1.11-1.66,2.23-3.32,3.35-4.97l1.65,1.12c-1.12,1.65-2.24,3.3-3.34,4.96ZM1308.14,331.71c-1.13-1.65-2.26-3.3-3.4-4.94l1.64-1.14c1.14,1.65,2.28,3.3,3.41,4.96l-1.65,1.13ZM148.15,329.14l-1.65-1.13c1.13-1.65,2.28-3.29,3.42-4.93l1.64,1.15c-1.14,1.63-2.28,3.27-3.41,4.91ZM1302.44,323.49c-1.15-1.64-2.31-3.27-3.47-4.89l1.62-1.16c1.17,1.63,2.33,3.27,3.48,4.91l-1.64,1.15ZM153.86,320.97l-1.63-1.16c1.16-1.63,2.32-3.26,3.49-4.88l1.62,1.17c-1.17,1.62-2.33,3.24-3.48,4.86ZM1296.63,315.35c-1.17-1.62-2.35-3.23-3.54-4.84l1.61-1.19c1.19,1.61,2.37,3.23,3.55,4.86l-1.62,1.17ZM159.69,312.88l-1.61-1.18c1.18-1.61,2.37-3.22,3.56-4.83l1.61,1.19c-1.19,1.6-2.38,3.21-3.55,4.82ZM1290.71,307.3c-1.2-1.6-2.4-3.2-3.61-4.79l1.59-1.21c1.21,1.6,2.42,3.2,3.62,4.8l-1.6,1.2ZM165.63,304.87l-1.6-1.2c1.2-1.6,2.42-3.19,3.63-4.78l1.59,1.22c-1.21,1.58-2.42,3.17-3.62,4.76ZM1284.67,299.33c-1.22-1.59-2.44-3.17-3.68-4.74l1.58-1.23c1.23,1.58,2.46,3.16,3.69,4.75l-1.59,1.22ZM171.69,296.94l-1.58-1.23c1.23-1.58,2.46-3.16,3.7-4.73l1.57,1.24c-1.24,1.57-2.47,3.14-3.69,4.71ZM1278.52,291.45c-1.24-1.57-2.49-3.13-3.74-4.69l1.56-1.25c1.26,1.56,2.51,3.13,3.75,4.7l-1.57,1.24ZM177.86,289.11l-1.56-1.25c1.25-1.56,2.5-3.12,3.77-4.68l1.55,1.26c-1.26,1.55-2.51,3.1-3.76,4.66ZM1272.26,283.66c-1.26-1.55-2.53-3.09-3.81-4.63l1.54-1.28c1.28,1.54,2.55,3.09,3.82,4.65l-1.55,1.26ZM184.14,281.35l-1.54-1.27c1.27-1.55,2.55-3.09,3.83-4.62l1.53,1.28c-1.28,1.53-2.55,3.07-3.82,4.61ZM1265.9,275.95c-1.29-1.53-2.58-3.06-3.87-4.58l1.52-1.3c1.3,1.53,2.6,3.06,3.88,4.59l-1.53,1.29ZM190.53,273.69l-1.53-1.29c1.29-1.53,2.59-3.05,3.9-4.57l1.52,1.3c-1.3,1.51-2.6,3.03-3.89,4.56ZM1259.42,268.34c-1.31-1.51-2.62-3.02-3.94-4.52l1.5-1.32c1.32,1.5,2.64,3.02,3.95,4.53l-1.51,1.31ZM197.03,266.11l-1.51-1.31c1.31-1.51,2.64-3.01,3.96-4.51l1.5,1.33c-1.32,1.49-2.64,2.99-3.95,4.5ZM1252.84,260.83c-1.33-1.49-2.66-2.98-4-4.46l1.48-1.34c1.34,1.49,2.68,2.98,4.01,4.48l-1.5,1.33ZM203.64,258.63l-1.49-1.33c1.34-1.49,2.68-2.98,4.03-4.46l1.48,1.35c-1.34,1.48-2.68,2.96-4.01,4.44ZM1246.15,253.4c-1.35-1.48-2.7-2.95-4.06-4.41l1.46-1.36c1.36,1.47,2.72,2.94,4.07,4.42l-1.48,1.35ZM210.35,251.25l-1.47-1.36c1.36-1.47,2.72-2.94,4.09-4.4l1.46,1.37c-1.37,1.46-2.72,2.92-4.08,4.39ZM1239.36,246.08c-1.37-1.46-2.74-2.91-4.12-4.35l1.45-1.38c1.38,1.45,2.76,2.9,4.13,4.36l-1.46,1.37ZM217.17,243.95l-1.45-1.38c1.38-1.46,2.76-2.9,4.15-4.34l1.44,1.39c-1.39,1.44-2.77,2.88-4.14,4.33ZM1232.47,238.85c-1.39-1.44-2.78-2.87-4.18-4.29l1.43-1.4c1.41,1.43,2.8,2.86,4.2,4.3l-1.44,1.39ZM224.09,236.75l-1.43-1.4c1.4-1.43,2.8-2.86,4.21-4.28l1.42,1.41c-1.41,1.42-2.81,2.84-4.2,4.27ZM1225.48,231.72c-1.41-1.42-2.82-2.83-4.24-4.23l1.41-1.42c1.42,1.41,2.84,2.82,4.25,4.24l-1.42,1.41ZM231.11,229.65l-1.41-1.42c1.42-1.42,2.84-2.82,4.27-4.23l1.4,1.43c-1.43,1.4-2.85,2.8-4.26,4.21ZM1218.38,224.69c-1.43-1.4-2.86-2.79-4.3-4.17l1.39-1.44c1.44,1.39,2.88,2.78,4.31,4.18l-1.4,1.43ZM238.23,222.65l-1.39-1.44c1.44-1.4,2.88-2.78,4.33-4.17l1.38,1.45c-1.45,1.38-2.89,2.76-4.32,4.15ZM1211.19,217.76c-1.45-1.38-2.9-2.74-4.36-4.11l1.37-1.46c1.46,1.37,2.92,2.74,4.37,4.12l-1.38,1.45ZM245.45,215.75l-1.37-1.46c1.46-1.37,2.92-2.74,4.39-4.1l1.36,1.47c-1.47,1.36-2.93,2.72-4.38,4.09ZM1203.91,210.93c-1.47-1.35-2.94-2.7-4.42-4.04l1.34-1.48c1.48,1.35,2.96,2.7,4.43,4.06l-1.36,1.47ZM252.77,208.95l-1.35-1.47c1.48-1.35,2.96-2.7,4.45-4.04l1.34,1.49c-1.49,1.34-2.96,2.68-4.44,4.03ZM1196.53,204.21c-1.49-1.33-2.98-2.66-4.47-3.98l1.32-1.5c1.5,1.33,3,2.66,4.49,3.99l-1.34,1.49ZM260.18,202.25l-1.33-1.49c1.5-1.33,3-2.66,4.51-3.98l1.32,1.5c-1.5,1.32-3,2.64-4.49,3.97ZM1189.05,197.6c-1.5-1.31-3.01-2.62-4.53-3.92l1.3-1.52c1.52,1.3,3.03,2.61,4.54,3.93l-1.31,1.51ZM267.69,195.66l-1.31-1.51c1.52-1.31,3.04-2.62,4.56-3.92l1.3,1.52c-1.52,1.29-3.04,2.6-4.55,3.9ZM1181.49,191.09c-1.52-1.29-3.05-2.58-4.58-3.85l1.28-1.54c1.54,1.28,3.07,2.57,4.59,3.86l-1.29,1.53ZM275.3,189.18l-1.29-1.53c1.53-1.29,3.07-2.57,4.62-3.85l1.27,1.54c-1.54,1.27-3.08,2.55-4.61,3.84ZM1173.83,184.69c-1.54-1.27-3.09-2.53-4.64-3.79l1.26-1.55c1.55,1.26,3.1,2.53,4.65,3.8l-1.27,1.54ZM282.99,182.8l-1.27-1.55c1.55-1.27,3.11-2.53,4.67-3.79l1.25,1.56c-1.56,1.25-3.11,2.51-4.66,3.77ZM1166.09,178.4c-1.56-1.25-3.12-2.49-4.69-3.72l1.24-1.57c1.57,1.24,3.14,2.48,4.7,3.73l-1.25,1.56ZM290.78,176.53l-1.24-1.57c1.57-1.25,3.15-2.49,4.73-3.72l1.23,1.58c-1.58,1.23-3.15,2.47-4.71,3.71ZM1158.25,172.22c-1.57-1.22-3.15-2.44-4.74-3.65l1.21-1.59c1.59,1.21,3.17,2.44,4.75,3.67l-1.23,1.58ZM298.65,170.37l-1.22-1.58c1.59-1.22,3.18-2.44,4.78-3.65l1.21,1.59c-1.59,1.21-3.18,2.42-4.77,3.64ZM1150.34,166.15c-1.59-1.2-3.19-2.4-4.79-3.59l1.19-1.61c1.61,1.19,3.21,2.39,4.8,3.6l-1.21,1.6ZM306.61,164.33l-1.2-1.6c1.61-1.2,3.22-2.4,4.83-3.58l1.19,1.61c-1.61,1.18-3.22,2.38-4.82,3.58ZM1142.34,160.2c-1.61-1.18-3.22-2.35-4.84-3.52l1.17-1.62c1.62,1.17,3.24,2.34,4.85,3.53l-1.18,1.61ZM314.66,158.39l-1.18-1.62c1.62-1.18,3.25-2.35,4.88-3.52l1.16,1.63c-1.63,1.16-3.25,2.33-4.87,3.5ZM1134.25,154.36c-1.62-1.16-3.25-2.31-4.89-3.45l1.14-1.64c1.64,1.15,3.27,2.3,4.9,3.46l-1.16,1.63ZM322.79,152.57l-1.15-1.63c1.64-1.16,3.28-2.3,4.93-3.45l1.14,1.64c-1.65,1.14-3.28,2.29-4.92,3.44ZM1126.09,148.63c-1.64-1.13-3.29-2.26-4.94-3.38l1.12-1.66c1.66,1.12,3.31,2.25,4.95,3.39l-1.14,1.65ZM331,146.87l-1.13-1.65c1.66-1.13,3.32-2.26,4.98-3.38l1.12,1.66c-1.66,1.12-3.32,2.24-4.97,3.37ZM1117.85,143.03c-1.66-1.11-3.32-2.21-4.98-3.31l1.1-1.67c1.67,1.1,3.34,2.21,5,3.32l-1.11,1.66ZM339.3,141.28l-1.11-1.67c1.67-1.11,3.35-2.21,5.03-3.3l1.09,1.68c-1.68,1.09-3.35,2.19-5.02,3.3ZM1109.53,137.54c-1.67-1.09-3.35-2.16-5.03-3.24l1.08-1.69c1.69,1.08,3.37,2.16,5.04,3.25l-1.09,1.68ZM347.68,135.81l-1.08-1.68c1.69-1.09,3.38-2.16,5.08-3.24l1.07,1.69c-1.69,1.07-3.38,2.14-5.06,3.23ZM1101.13,132.17c-1.69-1.06-3.38-2.12-5.07-3.17l1.05-1.7c1.7,1.05,3.4,2.11,5.09,3.17l-1.07,1.69ZM356.13,130.46l-1.06-1.7c1.7-1.06,3.41-2.12,5.12-3.16l1.04,1.71c-1.71,1.04-3.41,2.1-5.11,3.15ZM1092.66,126.92c-1.7-1.04-3.41-2.07-5.12-3.09l1.03-1.72c1.72,1.03,3.43,2.06,5.13,3.1l-1.04,1.71ZM364.66,125.22l-1.03-1.71c1.72-1.04,3.44-2.07,5.17-3.09l1.02,1.72c-1.72,1.02-3.44,2.05-5.15,3.08ZM1084.12,121.79c-1.71-1.01-3.44-2.02-5.16-3.02l1-1.73c1.73,1,3.45,2.01,5.17,3.03l-1.02,1.72ZM373.26,120.11l-1.01-1.73c1.73-1.01,3.47-2.02,5.21-3.02l.99,1.73c-1.74,1-3.47,2-5.2,3.01ZM1075.5,116.79c-1.73-.99-3.46-1.97-5.2-2.94l.98-1.74c1.74.98,3.48,1.96,5.21,2.95l-.99,1.74ZM381.94,115.12l-.98-1.74c1.75-.99,3.5-1.97,5.26-2.94l.97,1.75c-1.75.97-3.5,1.95-5.24,2.93ZM1066.82,111.91c-1.74-.96-3.49-1.92-5.24-2.87l.95-1.76c1.76.95,3.51,1.91,5.26,2.88l-.97,1.75ZM390.69,110.26l-.96-1.75c1.76-.96,3.53-1.92,5.3-2.87l.95,1.76c-1.77.95-3.53,1.9-5.28,2.86ZM1058.07,107.15c-1.75-.94-3.52-1.87-5.28-2.79l.93-1.77c1.77.93,3.54,1.86,5.3,2.8l-.94,1.76ZM399.51,105.52l-.93-1.77c1.77-.94,3.55-1.87,5.34-2.79l.92,1.78c-1.78.92-3.55,1.85-5.32,2.78ZM1049.26,102.52c-1.77-.91-3.54-1.82-5.32-2.72l.9-1.79c1.78.9,3.56,1.81,5.33,2.73l-.92,1.78ZM408.39,100.91l-.91-1.78c1.79-.91,3.58-1.82,5.38-2.71l.89,1.79c-1.79.9-3.58,1.8-5.37,2.71ZM1040.38,98.01c-1.78-.89-3.57-1.77-5.36-2.64l.88-1.8c1.79.88,3.58,1.76,5.37,2.65l-.89,1.79ZM417.35,96.42l-.88-1.79c1.8-.89,3.61-1.77,5.42-2.64l.87,1.8c-1.81.87-3.61,1.75-5.4,2.63ZM1031.45,93.63c-1.79-.86-3.59-1.72-5.39-2.56l.85-1.81c1.81.85,3.61,1.71,5.41,2.57l-.87,1.8ZM426.37,92.06l-.86-1.81c1.82-.86,3.63-1.71,5.46-2.56l.84,1.81c-1.82.84-3.63,1.69-5.44,2.55ZM1022.45,89.39c-1.8-.84-3.61-1.67-5.43-2.49l.83-1.82c1.82.83,3.63,1.66,5.44,2.5l-.84,1.81ZM435.45,87.83l-.83-1.82c1.83-.84,3.66-1.66,5.49-2.48l.81,1.83c-1.83.82-3.66,1.64-5.48,2.47ZM1013.39,85.27c-1.82-.81-3.64-1.61-5.46-2.41l.8-1.83c1.83.8,3.66,1.6,5.48,2.42l-.81,1.83ZM444.59,83.73l-.8-1.83c1.84-.81,3.68-1.61,5.53-2.41l.79,1.84c-1.84.79-3.68,1.59-5.51,2.4ZM1004.28,81.28c-1.83-.79-3.66-1.56-5.49-2.33l.77-1.84c1.84.77,3.68,1.55,5.51,2.34l-.79,1.84ZM453.79,79.76l-.78-1.84c1.85-.78,3.71-1.56,5.56-2.33l.76,1.85c-1.85.76-3.7,1.54-5.55,2.32ZM995.11,77.42c-1.85-.76-3.7-1.52-5.55-2.26l.75-1.86c1.86.75,3.71,1.51,5.57,2.27l-.76,1.85ZM463.05,75.93l-.75-1.85c1.86-.76,3.73-1.5,5.6-2.25l.74,1.86c-1.86.74-3.72,1.48-5.58,2.24ZM985.85,73.67c-1.86-.74-3.72-1.46-5.58-2.18l.72-1.87c1.87.72,3.74,1.45,5.6,2.19l-.74,1.86ZM472.37,72.22l-.73-1.86c1.87-.73,3.75-1.45,5.63-2.17l.71,1.87c-1.88.71-3.75,1.43-5.61,2.16ZM976.54,70.06c-1.87-.71-3.74-1.41-5.61-2.1l.69-1.88c1.88.7,3.76,1.4,5.63,2.11l-.71,1.87ZM481.73,68.65l-.7-1.87c1.88-.7,3.77-1.4,5.66-2.08l.68,1.88c-1.89.68-3.77,1.38-5.65,2.08ZM967.17,66.59c-1.88-.68-3.76-1.36-5.64-2.02l.67-1.88c1.89.67,3.78,1.34,5.66,2.03l-.68,1.88ZM491.15,65.21l-.67-1.88c1.9-.67,3.79-1.34,5.69-2l.66,1.89c-1.9.66-3.79,1.33-5.68,2ZM957.76,63.24c-1.89-.65-3.78-1.3-5.67-1.94l.64-1.89c1.9.64,3.79,1.29,5.69,1.95l-.66,1.89ZM500.63,61.91l-.64-1.89c1.9-.65,3.81-1.29,5.72-1.92l.63,1.9c-1.91.63-3.81,1.27-5.71,1.92ZM948.3,60.03c-1.9-.63-3.79-1.25-5.7-1.86l.61-1.9c1.91.61,3.81,1.24,5.71,1.87l-.63,1.9ZM510.15,58.75l-.62-1.9c1.91-.62,3.83-1.23,5.75-1.84l.6,1.91c-1.92.6-3.83,1.21-5.73,1.83ZM938.8,56.96c-1.9-.6-3.81-1.19-5.72-1.78l.58-1.91c1.92.59,3.83,1.18,5.74,1.78l-.6,1.91ZM519.71,55.72l-.59-1.91c1.91-.59,3.83-1.17,5.75-1.75l.57,1.92c-1.92.57-3.83,1.15-5.73,1.74ZM929.25,54.03c-1.91-.57-3.83-1.14-5.75-1.7l.56-1.92c1.93.56,3.85,1.13,5.77,1.7l-.57,1.92ZM529.28,52.84l-.56-1.92c1.92-.56,3.85-1.12,5.78-1.67l.55,1.92c-1.92.55-3.84,1.1-5.76,1.66ZM919.66,51.23c-1.92-.55-3.84-1.08-5.77-1.61l.53-1.93c1.93.53,3.86,1.07,5.79,1.62l-.55,1.92ZM538.88,50.1l-.54-1.93c1.93-.54,3.86-1.06,5.8-1.58l.52,1.93c-1.93.52-3.86,1.04-5.78,1.58ZM910.03,48.57c-1.93-.52-3.86-1.03-5.79-1.53l.5-1.94c1.94.5,3.88,1.01,5.81,1.53l-.52,1.93ZM548.53,47.5l-.51-1.93c1.94-.51,3.88-1.01,5.82-1.5l.49,1.94c-1.94.49-3.87.99-5.8,1.5ZM900.36,46.05c-1.94-.49-3.87-.97-5.81-1.45l.47-1.94c1.95.47,3.89.96,5.83,1.45l-.49,1.94ZM558.21,45.03l-.48-1.94c1.94-.48,3.89-.95,5.84-1.42l.46,1.95c-1.94.46-3.89.93-5.83,1.41ZM890.66,43.66c-1.94-.46-3.89-.92-5.84-1.36l.45-1.95c1.95.45,3.9.9,5.85,1.37l-.46,1.95ZM567.92,42.71l-.45-1.95c1.95-.45,3.9-.9,5.86-1.33l.44,1.95c-1.95.44-3.9.88-5.84,1.33ZM880.93,41.42c-1.95-.43-3.9-.86-5.85-1.28l.42-1.96c1.96.42,3.92.85,5.87,1.28l-.44,1.95ZM577.67,40.52l-.42-1.96c1.96-.42,3.92-.84,5.88-1.25l.41,1.96c-1.96.41-3.91.82-5.86,1.24ZM871.16,39.31c-1.95-.41-3.91-.8-5.87-1.2l.39-1.96c1.97.39,3.93.79,5.89,1.2l-.41,1.96ZM587.45,38.47l-.4-1.96c1.96-.4,3.93-.78,5.9-1.16l.38,1.96c-1.96.38-3.92.77-5.88,1.16ZM861.37,37.35c-1.96-.38-3.92-.75-5.89-1.11l.36-1.97c1.97.36,3.94.74,5.91,1.11l-.38,1.96ZM597.25,36.57l-.37-1.97c1.97-.37,3.94-.73,5.91-1.08l.35,1.97c-1.97.35-3.93.71-5.9,1.08ZM851.55,35.52c-1.96-.35-3.93-.69-5.9-1.03l.33-1.97c1.98.34,3.95.68,5.92,1.03l-.35,1.97ZM607.09,34.8l-.34-1.97c1.97-.34,3.95-.67,5.93-1l.32,1.97c-1.97.32-3.94.65-5.91.99ZM841.7,33.84c-1.97-.32-3.94-.64-5.92-.94l.31-1.98c1.98.31,3.96.62,5.94.95l-.32,1.97ZM616.94,33.17l-.31-1.97c1.98-.31,3.96-.62,5.94-.91l.29,1.98c-1.98.29-3.95.6-5.92.91ZM831.83,32.29c-1.97-.29-3.95-.58-5.93-.86l.28-1.98c1.98.28,3.97.57,5.95.86l-.29,1.98ZM626.82,31.69l-.28-1.98c1.98-.28,3.97-.56,5.95-.83l.27,1.98c-1.98.27-3.96.54-5.94.82ZM821.94,30.89c-1.98-.27-3.96-.52-5.94-.78l.25-1.98c1.99.25,3.98.51,5.96.78l-.27,1.98ZM636.72,30.34l-.26-1.98c1.99-.25,3.97-.5,5.96-.74l.24,1.99c-1.99.24-3.97.48-5.95.74ZM812.04,29.63c-1.98-.24-3.97-.47-5.95-.69l.22-1.99c1.99.22,3.98.45,5.97.69l-.24,1.99ZM646.64,29.14l-.23-1.99c1.99-.23,3.98-.45,5.98-.66l.21,1.99c-1.99.21-3.97.43-5.96.66ZM802.11,28.5c-1.99-.21-3.97-.41-5.96-.61l.19-1.99c2,.19,3.99.4,5.98.61l-.21,1.99ZM656.57,28.08l-.2-1.99c1.99-.2,3.99-.39,5.98-.57l.18,1.99c-1.99.18-3.98.37-5.97.57ZM792.17,27.52c-1.99-.18-3.98-.36-5.97-.52l.17-1.99c2,.17,3.99.34,5.99.52l-.18,1.99ZM666.51,27.15l-.17-1.99c1.99-.17,3.99-.33,5.99-.49l.15,1.99c-1.99.15-3.98.32-5.97.49ZM782.21,26.68c-1.99-.15-3.98-.3-5.98-.44l.14-2c2,.14,4,.28,6,.44l-.15,1.99ZM676.47,26.37l-.14-1.99c2-.14,4-.28,6-.4l.12,2c-2,.13-3.99.26-5.98.4ZM772.25,25.98c-1.99-.13-3.99-.24-5.98-.35l.11-2c2,.11,4,.23,6,.35l-.13,2ZM686.44,25.73l-.12-2c2-.11,4-.22,6-.32l.1,2c-2,.1-3.99.2-5.98.32ZM762.27,25.42c-1.99-.1-3.99-.19-5.99-.27l.08-2c2,.08,4.01.17,6,.27l-.1,2ZM696.42,25.23l-.09-2c2-.09,4-.17,6-.23l.07,2c-2,.07-3.99.15-5.99.23ZM752.31,25c-1.99-.07-3.98-.13-5.97-.18l.05-2c2,.05,3.99.12,5.99.19l-.07,2ZM706.4,24.87l-.06-2c2-.06,4-.11,6.01-.15l.04,2c-2,.04-4,.09-5.99.15ZM742.35,24.72c-1.99-.04-3.99-.08-5.98-.1l.03-2c2,.02,4,.06,6,.1l-.04,2ZM716.39,24.65l-.03-2c2-.03,4-.05,6.01-.07v2c-1.99.01-3.98.04-5.98.07ZM732.37,24.58c-1.7-.01-3.41-.02-5.11-.02h-.88s0-2,0-2h.89c1.71,0,3.42,0,5.13.02v2Z"/>
      <path class="cls-1" d="M727.26,1409.33c-92.08,0-181.4-18.03-265.49-53.6-81.22-34.35-154.16-83.53-216.8-146.17s-111.82-135.58-146.17-216.8c-35.57-84.09-53.6-173.41-53.6-265.49s18.03-181.4,53.6-265.49c34.35-81.22,83.53-154.16,146.17-216.8s135.58-111.82,216.8-146.17c84.09-35.57,173.41-53.6,265.49-53.6s181.4,18.03,265.49,53.6c81.22,34.35,154.16,83.53,216.8,146.17s111.82,135.58,146.17,216.8c35.57,84.09,53.6,173.41,53.6,265.49s-18.03,181.4-53.6,265.49c-34.35,81.22-83.53,154.16-146.17,216.8s-135.58,111.82-216.8,146.17c-84.09,35.57-173.41,53.6-265.49,53.6ZM727.26,47.19C352.27,47.19,47.19,352.27,47.19,727.26s305.08,680.07,680.07,680.07,680.07-305.08,680.07-680.07S1102.25,47.19,727.26,47.19Z"/>
    </g>
  </g>
</svg>