<?xml version="1.0" encoding="UTF-8"?>
<svg preserveAspectRatio="none" id="_レイヤー_2" data-name="レイヤー 2" xmlns="http://www.w3.org/2000/svg" viewBox="0 0 2389.3 172.48">
  <defs>
    <style>
      .cls-1 {
        fill: #45088b;
      }
    </style>
  </defs>
  <g id="_レイヤー_1-2" data-name="レイヤー 1">
    <path class="cls-1" d="M0,0v163.84c3.82-1.61,6.51.47,9.49-1.18,2.04,2.51,5.11,2.17,6.08,6.13,5.99-.69,6.72-1.46,11.65,1.84,2.87-2.04,5.74-4.09,8.61-6.13,3.38-.2,6.75-.41,10.13-.61,4.72-2.54,8.62-7.95,12.66-9.81,1.52.2,3.04.41,4.56.61,3.54-2.64,5.47-10.89,11.65-15.94,3.4-.47,22.29,9.2,22.29,9.2,2.52,2.4,4.87-.12,7.6-1.84.34.82.68,1.64,1.01,2.45,1.35-.61,2.7-1.23,4.05-1.84-.17.61-.34,1.23-.51,1.84h.51c1.41-1.76,2.17-5.01,2.53-7.97,2.03-.69,5.28-1.13,7.6,0,.42-1.63.02-1.57,1.01-3.07.77-.8.01-.21,1.01,0,1.01-2.25,2.03-4.5,3.04-6.74,2.87-.94,9.12,4.33,12.16,6.74,2.03-2.25,4.05-4.5,6.08-6.74.17,1.84.34,3.68.51,5.52,7.04-.45,8.11,4.42,16.71,1.84-.17,1.02-.34,2.04-.51,3.07h2.03c1.57-5.14,3.8-7.91,5.57-12.88,3.42-.93,9.06-.65,12.66-2.45,1.3,2.25,1.69,2.09,1.52,4.91.34.41.68.82,1.01,1.23,5.3-4.07,7.67-7.83,15.19-7.97-1.37,1.19-.85.75-2.53.61,3.22,3.89,15.85-5.24,16.21-6.13,1.18.2,2.36.41,3.55.61v3.68h1.52c.51.2,1.01.41,1.52.61-.17-1.84-.34-3.68-.51-5.52,4.46-1.66,4.41-5.74,7.6-8.58,2.32,2.12,6.66,2.37,9.62,7.36,2.82,1.19,2.31-1.85,5.57-1.23,9.26,1.77,14.91,1.95,21.27-9.2.51-1.63,1.01-3.27,1.52-4.91,4.23-4.35,11.67-1.19,14.18-9.2,3.71.61,7.43,1.23,11.14,1.84,2.67-4.36,6.63-8.19,11.65-9.81,2.35,2.16,3.46,6.19,4.56,9.81,6.85,1.91,10.24-1.7,15.7-4.29.84,1.43,1.69,2.86,2.53,4.29,2.7-2.45,5.4-4.91,8.1-7.36,4.03-1.81,6.64,1.8,11.65-3.07,1.01,1.23,2.03,2.45,3.04,3.68,8.37-2.49,25.38-11.73,30.39-6.74.84-.82,1.69-1.64,2.53-2.45,3.4,3.03,8.32,3.2,11.65,1.23.99,1.46,1.15,1.99,2.53,3.07,1.11-1.45.64-.96,1.01-3.68h.51c.51.2,1.01.41,1.52.61.91,2.41.83,2.32,0,4.91,2.05.66,2.94.37,4.56-.61.51.61,1.01,1.23,1.52,1.84-.32,6.47,13.69-1.42,16.21-6.13,1.99.82,1.72,1.15,3.04,2.45.51-1.02,1.01-2.04,1.52-3.07,3.26,1.54,6.9,3.21,10.13,4.91,1.81-3.85,4.39-3.9,7.6-6.74,3.94,1.8,4.27,3.61,12.16,3.07.28,2.14.18,1.8-.51,3.68,2.61.55,1.92-1.55,4.56,0,.51-1.23,1.01-2.45,1.52-3.68,1.69,1.23,3.38,2.45,5.06,3.68.17-1.63.34-3.27.51-4.91,1.02,1.11.38-.01,1.01,1.84.81-1.21.69-.84,1.01-3.07.34-.2.68-.41,1.01-.61.51.82,1.01,1.64,1.52,2.45,1.78-2.77,4.2-7.54,5.57-9.2,3.35-2.04,5.98,2.71,11.65-3.07,2,1.52,2.57,1.22,3.04,4.91,8.91,1.06,11.75-6.47,19.25-5.52,1.47-2,3.42-4.62,4.56-6.74,1.72-.98,1.87-1.01,4.05-.61.51.61,1.01,1.23,1.52,1.84,2.43-7.59,23.17-4.01,28.36-4.9.51,1.02,1.01,2.04,1.52,3.07,4.14,1.46,10.47-.92,15.19-3.07,2.25,3.9,4.47,5.47,4.56,12.26,2.55-.88,5.31-5.14,9.62-3.07,1.35,1.23,2.7,2.45,4.05,3.68,4.13.78,3.78-3.38,7.6,0,1.52-1.64,3.04-3.27,4.56-4.91,1.01.61,2.03,1.23,3.04,1.84-.18-1.77,1.93-4.75,3.54-6.13,1.54-2.06,5.67-2.07,7.09,1.23,7.01-1.5,8.55-6.1,14.69-9.2,3.12,1.2,4.52,1.47,5.06,7.36,4.35-.42,10.9-4.28,11.65-7.97,2.02.69,1.92.98,3.04,1.23,0,0,10.97-6.58,14.69-6.13,2.37.47,2.55.52,3.04-3.07,3.12.52,4.04.5,5.06,3.68,5.2-.49,11.91-6.28,16.21-9.81,2-1.34,4.03.2,7.09,1.23.46-2.84.51-4.59,2.03-6.13,1.74,1.38,2.32,1.46,3.04,4.29h.51c5.62-3.83,5.17-8.39,14.69-8.58,2.1,1.91,3.52,3.75,5.07,7.36,2.8.13,1.56.12,5.57.61v5.52c.68.61,1.35,1.23,2.03,1.84,2.55.09,2.78.08,6.08,1.23,3.29-4.09,6.6-11.91,11.65-13.49,4.65-1.45,5.09,1.76,8.61-1.23.34,1.02.68,2.04,1.01,3.07h1.01c1.33-2.86,4.02-5.24,6.08-5.52-1.51-3.37.63-2.8,1.01-4.91,4.09,2.31,4.91,3.15,9.62,4.29,5.45-3.14,7.03-4.6,12.66-7.97,1.02,4.79,7.53,5.61,11.14,4.91v4.29c.84-.41,1.69-.82,2.53-1.23,1.34,1.8,1.6,3.66,1.52,7.36,2.03-1.63,4.05-3.27,6.08-4.91,1.36-1.52,6.27.49,7.09,3.07,3.03-.85,4.53-2.16,5.06-6.13,2.19-.41,1.04,1.84,3.04-.61,1.95,1.39,1.86,2.08,3.04,4.29.34-3.07.68-6.13,1.01-9.2,1.01-.2,2.03-.41,3.04-.61.12-4.96,1.04-5.84,2.03-9.2,5.49-1.16,8.56.51,13.17,2.45,3.01-.62,3.25-1.93,4.05-4.91,2.9-1.77,4.86-.47,7.09-2.45,1.92,2.51,4.42,3.31,5.57,5.52.67-.82,1.35-1.64,2.03-2.45,6.1,1.68,8.35,1.28,12.16,9.81,1.5-1.37,1.41-1.89,4.56-3.07,3.04,4.1,6.11,8.64,7.09,14.1h.51c2.17-2.65,1.04-6.68,3.04-9.81,1.86-2.91,4.77-3.64,6.58-7.36h1.52c.67,1.87.58,3.03.51,6.74,3.58-1.89,4.79-1.54,8.1-1.23.68-2.25,1.35-4.5,2.03-6.74.67-.2,1.35-.41,2.03-.61.17.82.34,1.64.51,2.45,5.35-4.21,13.59-3.69,20.26-7.97,8.3,1.12,15.32,3.92,23.8-2.45,3.3,3.51,14.54,10.33,15.19,15.33.34-.61.68-1.23,1.01-1.84.99,1.33,1.19,1.96,1.52,4.29.68-.41,1.35-.82,2.03-1.23,2.52,1.57,2.15.85,2.03,4.29,4.81-1.16,17.2-4,17.22-4.29,4.4-.3,6.45,2.71,11.14,2.45,1.04,1.3.8,3.74.51,6.13.96-.86.31-.05,1.01-1.23,1.18,1.84,2.36,3.68,3.55,5.52,0,0,22.11,9.02,26.34,6.74,4.39-3.27,8.78-6.54,13.17-9.81h.51c1.03,2.89.41,5.24,0,10.42,1.9-2.01,2.9-5.75,3.55-9.2,2.62.23,1.11-.96,2.53,1.23,3.04-.74,2.35-1.65,4.56-3.07.51,1.23,1.01,2.45,1.52,3.68,1.78,1,6.5-1.68,8.1-.61,3.36,2.24,12.78,3.66,15.7,5.52,1.69.42.93.6,2.03-1.23,1.35,1.05.69-.09.51,1.84,4.14.02,12.64-2.81,13.67-.61,1.99-2.54,1.9-5.41,5.07-6.74,2.36-2.49,2.29.06,5.06,1.84,1.65-1.77,1.97-2.75,4.56-3.68,4.91,5.63,11.06,4.77,16.21.61,2.66.74,3.93,4.84,4.05,6.13.84-.41,1.69-.82,2.53-1.23.98,1.65.62,1.02.51,3.07,4.05,2.32,8.22,2.31,11.14,1.23,1.02,3.54,2.54,4.65,3.55,6.74,2.75-.18,5.39-.88,6.58-3.07,2.95.21,2.04,1.52,2.53-1.84,3.31,1.01,3.19,2.07,5.57,0,3.31,5.11,10.92,17.22,16.71,9.2,2.99,3.43,2.99,6.99,5.57,10.42.81-1.21.69-.84,1.01-3.07h2.03v4.29c3.39-2.19.19.46,4.05.61,8.59.35,2.69,4.07,6.58,7.97v1.23c1.35-1.63,2.7-3.27,4.05-4.9,1.82.06.73.09,2.53,1.23.84-2.25,1.69-4.5,2.53-6.74,4.12-2.78,5.53.99,9.12-6.13.84.61,1.69,1.23,2.53,1.84.9,2.32.73,1.77,0,4.29,1.71.79,4.07-.89,7.09-1.84,1.23,9.44,6.08,5.62,9.62,6.74.68-2.66,1.35-5.31,2.03-7.97,3.2-.75,5.43-.57,7.09-3.07,1.33,1.42,2.47,2.99,2.53,4.9,2.81.5,3.1-1.09,5.06-3.07,6.49,3.68,12.8-.78,15.7,4.29,1.69-1.23,3.38-2.45,5.06-3.68,5.7,6.26,10.74.28,16.21,6.13,1.35.99.71.19,1.52,1.84v.61c-.68.82-1.35,1.64-2.03,2.45,2.95-.37,3.69-.95,5.06-3.07,4.77,1.07,6.5,3.81,12.16,1.23,8.83,9.94,12.11,6.1,21.27-1.23,7.05,5.62,10.54,8.66,20.77,5.52,2.53,2.86,5.06,5.72,7.6,8.58.78,2.38-.57,6.29,1.52,8.58.89.97,8.04,4.74,7.6,7.97v.61c4.07-.34,3.63,1.11,7.6,1.84-.07,1.56.06.71-.51,2.45.17.2.34.41.51.61,4.29-.72,5.4-.72,9.62-.61-.17.82-.34,1.64-.51,2.45,5.41-2.63,9.32-2.59,13.68-6.13.67,1.02,1.35,2.04,2.03,3.07,2.89-1.92,6.17-1.8,9.12,1.23,1.29-1.72,1.86-3.58,2.03-6.74,3.48-1.76,5.65.79,9.12-.61.51,1.84,1.01,3.68,1.52,5.52,2.63,1,8.43,5.17,11.14,4.9,2.28.62,2.16-1.68,3.55-3.68,2.42,1.4,4.3,5.01,4.56,7.36,5.33-.92,9.86,1.01,12.66,7.97-.05,4.4,16.93,3.04,17.73,2.45,1.73,1.28,1.84.95,2.53,3.68.68-.61,1.35-1.23,2.03-1.84,10.68,7.04,19.95,8.75,27.86,12.26,5.15,2.29,9.97-7.01,16.71-3.68,1.47-1.18,2.27-1.96,2.53-5.52.51-.41,1.01-.82,1.52-1.23,2.34,2.23,5.34,3.11,6.58,6.74,5.79-2.8,24.74-8.59,26.84-1.23.68-1.02,1.35-2.04,2.03-3.07,7.33,1.06,19.12,5.71,21.27,12.26,3.99-1.95,4.26-4.99,9.62-4.29-.63-1.07-.8-1.02-1.52-1.84,2.97-1.44,4.43-.43,5.57-4.29,2.39-.93,5.21,1.91,6.58,4.91,1.67.28.97-.53,2.03.61.17-2.04.34-4.09.51-6.13.51-.41,1.01-.82,1.52-1.23,4.49,3.65,7.25,4.3,12.16,7.97,1.58-2.03,12.85-3.98,13.17-3.68,1.37.67,2.12,1.77,3.04,3.68,2.03-1.84,4.05-3.68,6.08-5.52,4.05,3.51,12.69,3.67,13.67,9.2,2.85-.74,3.92-1.39,4.56-4.9,3.85.24,6.64,5.66,10.13,6.13,1.31,1.7,1.41,1.36,1.52,4.9,4.42,1.99,8.85-1.75,14.18-3.07,4.34-1.07,12.15,2.86,18.23,2.45.51,2.04,1.01,4.09,1.52,6.13,5.72-.24,11.98,4.29,16.71,6.74v3.07c3.41,0,19.37-5.33,20.77-8.58.84-.82,1.69-1.64,2.53-2.45,1.18,1.84,2.36,3.68,3.55,5.52-.68,2.04-1.35,4.09-2.03,6.13,1.11,1.26.98.83,1.52,3.07l4.05-1.84c.17,1.23.34,2.45.51,3.68,1.5,2,4.54,3.1,6.58,3.07.96,1.79.57,1.22.51,4.29,2.97-.13,1.67-.49,2.53,2.45,5.88-.93,5.23-3.8,8.61-6.74,5.56-4.83,14.62-5.94,22.29-5.52.14,1.95-.01,1.48-.51,3.68,6.24-1.35,18.69-4.08,21.78-1.84.29.21,1.13,2.29,2.03,1.84,4.8-2.4,11.51-8.58,19.75-6.13.34.2.68.41,1.01.61.87-.76,1.88-3.2,3.04-3.68,2.19.41,4.39.82,6.58,1.23,1.79-.72,4.59-4.4,7.6-3.07,3.04,1.84,6.08,3.68,9.12,5.52,1.01-2.25,2.03-4.5,3.04-6.74,2.01,1.28,4.19.57,4.56,3.68,7.34-1.35,25.68-1.38,29.88-7.36,1.11,1.26.98.83,1.52,3.07,9.11-2.63,18.02-5.82,27.86-3.07,2.27-.59,1.37-.37,1.52,2.45h5.06c-.34-.2-.68-.41-1.01-.61,2.34-2.23,2.38,2.49,7.09,0,2.36-1.84,4.73-3.68,7.09-5.52,2.53,1.57,8.23.2,11.65-.61-.17.61-.34,1.23-.51,1.84,2.68-.12,3.75-2.99,6.58-.61.68-2.25,1.35-4.5,2.03-6.74,2.15-.47,1.34.6,3.04-1.23.34.41.68.82,1.01,1.23v3.68c6.38-2.08,10.89-.19,18.23-2.45.62,4.65,1.46,5.07,4.56,7.97,7.97-3.86,20.41,7.96,30.9-.61,3.32.99,2.56,1.79,2.03,4.29,3.05-.42,2.64-2.36,3.55,1.23,1.87-2.44,2.35-3.88,5.06-5.52,2.15,1.85,39.35-10.74,41.53-12.26.88.81,3.8,2.6,4.56,3.68,4.81-5.25,8.11-5.93,15.19-6.74,2.28,1.83,3.09,4.14,5.06,6.13,2.25-1.84,17.91-2.27,18.74-3.07,2.19-3.07,4.39-6.13,6.58-9.2,2.21,2.38,6.91-2.19,8.61-3.68.84.61,1.69,1.23,2.53,1.84,6.24-5.48,17.73,3.33,19.25,2.45,9.44-5.45,14.23-6.52,23.3-12.26,1.48,1.37,9.26,3.15,12.16,1.84,6.81-3.08,2.73-5.74,13.68-4.91,2.2-14.48,28-13.44,33.93-11.04,1.57-1.57,1.76-1.51,2.03-4.9,2.56.83,8.62,1.07,9.62,1.84,2.86,2.17-.53,3.63,4.05,3.68.34,1.64.68,3.27,1.01,4.91v3.68c1.69-3.88,3.38-7.77,5.06-11.65.84-.2,1.69-.41,2.53-.61.17,1.23.34,2.45.51,3.68,3.18-1.29,4.6-2.04,9.12-3.07,1.86,1.84,3.71,3.68,5.57,5.52,2.97-.74,4.01-2.15,7.09-1.23.34-1.84,16,15.33,16.34,13.49h3.04c1.34-1.81.73-.35,1.01-2.45,3.36-5.17,9.06,21.73,14.32,22.68,2.48-5.02,4.84-6.85,7.6-9.81.34.61.68,1.23,1.01,1.84.34.2.68.41,1.01.61,7.61-21.4,8.23,24.92,20.5,15.35,2.58,2.13,3.87,3.53,4.56,7.97,10.33,4.66,17.82,8.9,24.82,9.2v2.45c2.61,1.3,5.18.96,7.93,1.55V0H0ZM220.7,114.84c.17-.41.34-.82.51-1.23h.51c-.34.41-.68.82-1.01,1.23ZM1022.97,38.2c.17-.41.34-.82.51-1.23h1.52c-.68.41-1.35.82-2.03,1.23ZM1503.12,130.79c.17-.61.34-1.23.51-1.84h.51c-.66,1.83.02.74-1.01,1.84Z"/>
  </g>
</svg>