<svg xmlns="http://www.w3.org/2000/svg" width="714.522" height="524.984" viewBox="0 0 714.522 524.984"><path d="M661.655,250.814a44.037,44.037,0,0,1-16.16-31.487l-10.7-182c-1.191-33.606-41.593-49.536-66.9-26.378L448.6,125.737a83.123,83.123,0,0,1-57.615,23.214H323.535a83.114,83.114,0,0,1-57.614-23.214L146.616,10.929c-25.31-23.158-65.708-7.232-66.9,26.378L69.023,219.331a44.034,44.034,0,0,1-16.16,31.487C19.364,278.208,0,310.461,0,345c0,99.4,159.946,179.984,357.261,179.984S714.522,444.4,714.522,345c0-34.535-19.368-66.776-52.863-94.182" transform="translate(0 0)" fill="#fff"/></svg>