<svg xmlns="http://www.w3.org/2000/svg" width="29.184" height="32.123" viewBox="0 0 29.184 32.123"><g transform="translate(-8)"><path d="M489.87-.008c5.219,13.942,5.219,17.865,0,31.808,2.977-7.955,9.9-15.9,12.875-15.9-2.977,0-9.9-7.95-12.875-15.9Z" transform="translate(-465.562 0.323)" fill="#fff"/><path d="M427.52-.008c5.219,13.942,5.219,17.865,0,31.808,2.977-7.955,9.9-15.9,12.875-15.9-2.977,0-9.9-7.95-12.875-15.9Z" transform="translate(-409.697 0.01)" fill="#fff"/><path d="M403.415,82.576l-.906-2.446-.9,2.446-2.445.906,2.445.9.9,2.446.906-2.446,2.446-.9Z" transform="translate(-391.16 -67.306)" fill="#fff"/></g></svg>