<svg xmlns="http://www.w3.org/2000/svg" width="144.906" height="137.218" viewBox="0 0 144.906 137.218"><path d="M653.675,82.187c-24.73-5.024-39.23-7.952-12.1-21.263C618.09,65.508,623.635,56.539,664.9,13.4c-46.457,43.5-54.563,45.172-48.664,27.152C596.362,64.832,596.75,48.36,595.078,21.27c-4.348,30.435-8.43,40.135-28.568,17.581,12.133,21.478,5.491,16.2-30.3-20.926,31.1,37.124,41.662,44.406,10.223,38.329,24.118,9.284,22.131,14.131-8.058,12.358,34.184,4.956,27.643,8.15-18.386,7.527,45.818,4.5,54.987,6.011,22.828,28.634,37.906-13.7,33.289-4.973,17.405,16.305,25.416-19.02,27.673-8.736,36.041,29.535-2.567-42.681,7.826-42.005,19.361-19.765-6.909-30.368.248-19.691,29.711,6.79-20.881-28.195-26.154-38.345-3.835-29.282-29.734-24.109-17.046-25.933,12.171-26.169M616.232,94.849c-5.769-1.254-10.41-2.007-12.589-.184-2.593,2.168-1.222,5.661.309,12.061-3.272-5.857-5.279-10.5-8.442-10.413-2.762.073-5.263,3.738-7.147,12.295-.135-5.32.151-11-2.64-12.307-2.4-1.125-5.194-.739-11.507,2.06,5.394-4.39,8.257-7.421,7.526-10.41-.66-2.695-4.766-4.39-15.678-6.9,9.658.752,13.671.125,15-2.979,1.237-2.88-2.962-10.065-7.478-13.953,7.526,5.393,10.277,6.927,14.307,6.676,4.506-.279,5.659-4.815,7.391-15.455.251,9.532.052,14.2,3.031,16.1,3.491,2.215,9.008-1.879,15.531-6.69-6.7,6.644-10.535,11.037-8.027,14.549,2.083,2.917,8.027,2.759,14.047,3.512-7.274,1.129-12.918,1.505-13.8,3.762-1.358,3.493,4.013,5.393,10.159,8.278" transform="translate(-519.993 -13.395)" fill="#2c00e5"/></svg>