<svg xmlns="http://www.w3.org/2000/svg" width="140.626" height="39.367" viewBox="0 0 140.626 39.367"><g transform="translate(-889.468 -8038.004)"><path d="M12.02,12.019,16.467,0l4.448,12.019,12.02,4.447-12.02,4.448L16.467,32.934,12.02,20.915,0,16.467Z" transform="matrix(1, 0.017, -0.017, 1, 943.604, 8040.936)" fill="#360074"/><path d="M16.467-2.882l5.226,14.123,14.123,5.226L21.693,21.693,16.467,35.816,11.241,21.693-2.882,16.467l14.123-5.226ZM30.053,16.467,20.136,12.8,16.467,2.882,12.8,12.8,2.882,16.467,12.8,20.136l3.669,9.916,3.669-9.916Z" transform="matrix(1, 0.017, -0.017, 1, 943.604, 8040.936)" fill="#f5f2ff"/><path d="M9.015,9.015,12.35,0l3.336,9.015L24.7,12.35l-9.015,3.336L12.35,24.7,9.015,15.686,0,12.35Z" transform="matrix(1, 0.017, -0.017, 1, 1002.465, 8045.123)" fill="#360074"/><path d="M12.35-2.882,16.464,8.236,27.582,12.35,16.464,16.464,12.35,27.582,8.236,16.464-2.882,12.35,8.236,8.236ZM21.819,12.35,14.908,9.793,12.35,2.882,9.793,9.793,2.882,12.35l6.911,2.557,2.557,6.911,2.558-6.911Z" transform="matrix(1, 0.017, -0.017, 1, 1002.465, 8045.123)" fill="#f5f2ff"/><path d="M9.015,9.015,12.35,0l3.336,9.015L24.7,12.35l-9.015,3.336L12.35,24.7,9.015,15.686,0,12.35Z" transform="matrix(1, 0.017, -0.017, 1, 892.83, 8045.123)" fill="#360074"/><path d="M12.35-2.882,16.464,8.236,27.582,12.35,16.464,16.464,12.35,27.582,8.236,16.464-2.882,12.35,8.236,8.236ZM21.819,12.35,14.908,9.793,12.35,2.882,9.793,9.793,2.882,12.35l6.911,2.557,2.557,6.911,2.558-6.911Z" transform="matrix(1, 0.017, -0.017, 1, 892.83, 8045.123)" fill="#f5f2ff"/></g></svg>