<svg xmlns="http://www.w3.org/2000/svg" xmlns:xlink="http://www.w3.org/1999/xlink" width="1487.034" height="1172.748" viewBox="0 0 1487.034 1172.748"><defs><clipPath id="a"><rect width="1487.034" height="1172.748" transform="translate(0 -0.004)" fill="#f13bff"/></clipPath></defs><g transform="translate(0 0.004)" clip-path="url(#a)" style="mix-blend-mode:multiply;isolation:isolate"><path d="M459.735,327.96c.408,16.41,10.863,24.638,21.158,35.411-13.141-20.61-6.294-39.053,5.379-42.578,3.341,9.674,6.076,17.836,7.632,22.924-1.407-10.628-1.361-17.947-.346-23.193a17.854,17.854,0,0,1,4.94,1.9h0c-1.1-2.59-2.128-5.145-3.122-7.637,2.254-4.7,5.754-6.879,9.5-9.083,7.956-4.674,22.383,9,21.382,23.6,5.343-5.338,24.339,1.6,24.123,22.716,1.231,5.037,1.149,11.963,2.8,18.781.322-6.431-1.473-21.335-.8-31.958,4.819-22.959-6.936-39.3-17.932-32.878.177-20.679-16.78-42.63-35.109-36.323-8.84,3.04-13.54,12.823-13.822,23.459a33,33,0,0,0-3.161-4.3,81.132,81.132,0,0,0,3.492,12.049c-5.7-13.778-26.187-57.258-30.826-66.527,4.535,11.633,16.634,44.82,26.4,72.575-10.439-.8-22.013,8.091-21.69,21.063" transform="translate(56.671 29.184)" fill="#f13bff"/><path d="M316.157,176.738v0Z" transform="translate(39.376 22.012)" fill="#f13bff"/><path d="M510.43,252.96c5.063,18.4,11.629,29.184,16.34,45.661-5.01-32.236,11.493-59.126,41.053-33.068,24.2,21.334,25.434,67.707,31.709,85-.562-14.708,4.815-31.681,17.274-32.487-2.952,23.927-8.861,49.853-12.063,65.441,1.877-4.9,5.569-15.669,7.31-19.23.428-13.018,6.958-33.082,12.26-44.921a30.461,30.461,0,0,1,4.868,2.366c5.552,3.31,9.984,8.571,13.161,15.151-.082.6-.159,1.186-.252,1.79.127-.473.264-.978.4-1.489,7.141,15.066,7.741,36.95.041,58.411,2.867,11.848,14.005,63.086,16.751,85.5.165-17.182-1.38-60.9-3.839-84.667,12.336-11.207,36.141-50.441,28.948-78.97-3.637-14.42-12.7-22.032-22.248-24.55a61.7,61.7,0,0,1,6.563-9.73c-5.068,2.873-5.01,4.959-8.936,9.215a28.733,28.733,0,0,0-9.812-.043,9.71,9.71,0,0,1-.32-1.1c-1.109-4.984-.476-16.774,4.114-34.972s15.269-39.881,20.494-47.476a20.913,20.913,0,0,0-8.705,8.468c-.236,4.351-4.774,12-9.2,13.055s-3.48-9.6.95-24.794,16.878-48.107,30.8-74.693c-15.406,19.412-31.648,61.427-35.29,67.363s-3.876,5.144-2.293.475,2.137-5.7,5.776-16.775c-4.589,7.279-11.025,19.621-18.619,38.612,4.34,13.429-1.812,32.8-12.722,42.693-1.458-4.139-2.9-8.2-4.243-11.915.361,3.524.876,8.479,1.462,14.154a22.414,22.414,0,0,1-7.705,3.6v0c2.814,5.312,4,13.23,4.114,22.565-11.655,1.384-28.093-11.873-32.594-38.418-2.137-12.6,2.023-24.949,8.179-25.554-18.78-3.658-62.445-57.752-75.338-134.732,6.34,49.025,2.99,80.468-4.811,90.382,8.463,14.26,10.8,42.092,10.207,56.144s-3.065,19.474-8.162,13.153-10.859-20-16.335-36.072c-3.658-2.458-7.124-5.718-12.668-11.346,6.992,11.856,18.319,29.406,23.382,47.8" transform="translate(60.66 11.57)" fill="#f13bff"/><path d="M582.294,212.706h0Z" transform="translate(72.522 26.492)" fill="#f13bff"/><path d="M375.159,458.774c-28.334-10.979-63.385-25.09-98.223-46.465,19.642,20.761,77.41,40.568,92.824,59.618,18.522.452,33.391,3.447,52.521,6.646-2.283-1.261-4.814-2.529-7.566-3.813-10.375-4.838-23.947-9.936-39.556-15.985" transform="translate(34.491 51.352)" fill="#f13bff"/><path d="M479.98,49.759h0C474.018,39.992,473.242,37.1,466.68,0c1.58,38.238,9.1,79.946,23.184,115.048a380.328,380.328,0,0,1-9.884-65.284" transform="translate(58.123 0)" fill="#f13bff"/><path d="M317.233,180c-2.44-5.027-6.75-20.783-8.078-29.471.043,10.381-1.105,14.875-1.644,19.558,3.313,3.786,6.154,5.709,9.722,9.913" transform="translate(38.299 18.748)" fill="#f13bff"/><path d="M306.568,504.356l0,0c-5.87-7.335-12.592-21.716-14.267-26.375.119,7.4,3.947,18.9,4.761,20.1,2.873,1.906,5.5,4.242,9.5,6.281" transform="translate(36.405 59.53)" fill="#f13bff"/><path d="M406.188,471.235h0Z" transform="translate(50.588 58.691)" fill="#f13bff"/><path d="M246.875,371.345c11.987,6.581,50.266,17.4,78.907,21.48h0c-18.742-11.676-52.757-48.451-67.563-89,5.3,24.643,22.539,48.576,19.419,61.122-2.346,9.427-17.834,9.184-30.764,6.4" transform="translate(30.747 37.84)" fill="#f13bff"/><path d="M0,666.491a268.039,268.039,0,0,0,36.855.455A36.632,36.632,0,0,1,21.221,660.3c-2.285,1.924-7.629,4.169-21.221,6.2" transform="translate(0 82.237)" fill="#f13bff"/><path d="M202.827,811.032c15,2.582,38.394-12.868,31.668-21.713a123.157,123.157,0,0,0,19.57-4.445,132.5,132.5,0,0,1-22.239,2.592c2.33,2.435-4.56,12.86-20.136,13.01s-15.187-13.983-1.4-18.843c-8.173,1.094-11.8,1.114-16.648-.565,1.6,4.641,1.329,10.281-17.492,11.216,7.673,1.046,24.095,6.182,26.673,18.747" transform="translate(21.939 97.279)" fill="#f13bff"/><path d="M995.165,941.8c-2.862-7.75-7.552-18.267-8.787-23.639-1.79-7.78,4-6.5,14.73,3-3.727-9.2-17.321-20.678-31.189-37.872-7.635-9.468-17.841-22.934-31.936-37.729.793-1.145,2.475-1.131,5.161.185,7.293,3.574,18.3,13.541,30.051,25.789,4.355.683,8.874,2.172,16.276,4.929-11.347-7.79-29.029-18.908-41.392-33.442s-22.873-21.535-34.105-34.477a63.3,63.3,0,0,1,9.935,23.141,292.587,292.587,0,0,0-22.528-18.852q12.82,12.644,23.163,24.8c.4,15.224-9.8,25.294-33.8,18.23-17.789-5.234-32.19-21.168-43.694-36.25,6.653,3.407,12.065,7.131,26.859,13.43-6.552-8.16-19.794-23.915-29.134-36.326-9.125-2.581-30.67-8.859-49.207-34.237s-15.669-54.585-8.982-61.21c-20-2.934-38.481-22.185-56.045-34.154,10.908,9.691,27.791,28.333,34.046,46.885,7.784,23.072,5.6,42.048,1.3,52.8-10.219-13.081-38.088-49.957-49.126-67.631,7.113,15.641,26.989,54.612,39.262,75.112-6.445,15.371-11.438,60.99,7.139,83.806a42.819,42.819,0,0,0,4.877,5.083c3.037,9.239,5.226,17.848,5.09,22.742,12.443-5.331,29.329.893,49.089,28.5,9.292,12.976,21.384,38.056,33.765,70.215,14,36.393,24.142,66.927,26.313,105.026.624-19.885,2.022-32.05,3.7-42.038-15.161-24.676-45.362-108.826-52.259-132.18-4.858-16.452-1.46-19.033,7.043-13.942-4.787-5.593-9.435-17.77-8.914-27.657,5.68,5.831,11.742,12.035,16.985,17.3-3.31-5.536-9.083-15.158-15.059-25.19,2.1-4.091,6.041-6.832,12.571-6.911,10.618-.129,20.574,4.226,29.779,11.195q1.72,2.127,3.375,4.511c7.262,10.519,8.711,23.467,3.387,26.617,17.519-4.364,74.12,22.629,117.6,79.752a281.061,281.061,0,0,1,17.116,59.972c.163-29.775-17-84.51-22.455-99.29M797.207,825.715c-12.972-8.254-23.59-25.412-27.7-46.277,16.34,12.156,24.164,30.375,27.7,46.277M783.9,873.943a23.515,23.515,0,0,1-6.685-4.9,28.8,28.8,0,0,0,19.039,1.312c-2.429,4.589-6.3,6.434-12.353,3.592m155.909-16.63c7.947,11.394,14.035,22.445,18.122,33.147a159.232,159.232,0,0,1-16.625-29.346c-.562-1.351-1.053-2.606-1.5-3.8m43.324,88.406A255.377,255.377,0,0,1,997.552,974.1a296.251,296.251,0,0,1-14.419-28.383" transform="translate(89.269 83.087)" fill="#f13bff"/><path d="M673.322,902.111c-9.184.875-16.481-17.614-9.4-30.422-2.667.969-6.35-.448-9.424-3.605-1.289-8.036-2.634-16.217-4.016-24.372.342-.924.722-1.857,1.176-2.8,1.013-5.085,4.015-11.328,5.4-18.205-1.865,3.527-4.369,10.344-7.215,17.244-2.507-14.653-5.123-29.132-7.745-42.426.741,11.523,1.258,38.106-2.647,47.284a67.54,67.54,0,0,1,3.91,8.478c-12.967,18.38-9.116,37.244,3.275,36.1-8.9,18.667-2.808,45.729,16.47,47.758a16.993,16.993,0,0,0,1.7.083c.024.1.048.209.073.312-.013-.1-.029-.209-.044-.31,11.115.02,20.657-11.012,23.741-23.825-.72,13.394-.527,63.832-.234,74.474,1.261-19.45,8.008-94.291,11-115.575-8.716,27.712-16.831,28.94-26.015,29.814" transform="translate(79.124 99.328)" fill="#f13bff"/><path d="M1229.387,445.03c18.458-2.167,54.943-4.675,65.006-4.7s17.641,1.618,39.527-3.608c-32.653-1.229-92.8,5.826-104.532,8.306" transform="translate(153.114 54.375)" fill="#f13bff"/><path d="M740.856,880.841c5.854,11.24,10.742,25.021,14.246,52.9,1.117-22.232-6.125-63.159-10.444-77.87-.333,10.214-3.019,18.283-3.8,24.975" transform="translate(92.27 106.595)" fill="#f13bff"/><path d="M1108.6,634.169c7.436,1.995,19.847,7.423,27.23,11.131-5.244-3.7-11.28-9.816-12.562-10.463l-.024-.011c-1.356-.633-9.376-.539-14.644-.657" transform="translate(138.071 78.983)" fill="#f13bff"/><path d="M963.1,701.145c-5.5-17.976-44.206-6.454-63.5-2.141-8.994-3.618-26.517-9.995-35.584-12.872,8.376,4.7,24.421,12.55,37,17.962,51.559-5.676,91.447,30.8,88.39,57.7-2.188,19.284-25.841,23.8-50.363,13.853,10.229,8.58,41.272,25.486,50.077,36.357,20.273-6.565,59.6,14.8,89.409,41.789-16.337-18.512-33.248-36.824-54.248-53.79-19.3-15.6-30.467-33.706-23.054-42.112,8.514-9.661,33.37-3.88,48.15,9.513-13.5-19.663-46.826-30.681-47.711-40.758-6.692-1.379-25.47-7.175-26.88-16.891,11.536,1.264,23.717,1.664,41.626,2.863-9.758-3.2-31.338-4.33-53.309-11.473" transform="translate(107.609 85.455)" fill="#f13bff"/><path d="M183.4,595.339c3.691-5.543,11.077-11.364,21.741-14.174-6.987-.552-10.229-.3-16.52,1.445.72,4.154-3.1,7.16-5.227,12.728Z" transform="translate(22.841 72.349)" fill="#f13bff"/><path d="M443.507,344.046c-10.056-7.713-20.309-18.137-35.266-41.919,8.382,20.621,32.243,54.653,42.374,66.16-4.015-9.4-4.991-17.845-7.108-24.242" transform="translate(50.845 37.629)" fill="#f13bff"/><path d="M947.23,208.157c-3.142-1.222-1.3-13.583,12.75-20.3s19.673,6.254,9.229,16.487c6.945-4.445,10.226-6,15.326-6.522-3.413-3.531-5.55-8.757,11.113-17.56-7.395,2.3-24.449,4.58-32.1-5.718-14.69,4-29.358,27.889-19.525,33.062a123.3,123.3,0,0,0-15.858,12.3,132.314,132.314,0,0,1,19.061-11.748" transform="translate(115.599 21.739)" fill="#f13bff"/><path d="M1066.519,361.505h-.006c-1,6.583-5.236,14.98-13.715,22.034,6.566-2.451,9.4-4.048,14.362-8.291-2.409-3.461-.217-7.8-.641-13.744" transform="translate(131.121 45.024)" fill="#f13bff"/><path d="M1135.628,666.03c-1.859-9.535,12.282-15.861,25.176-18.8-12.847-.847-48.4,4.752-75.619,12.426C1024.9,638.491,970.463,625,964.867,620.792a52.856,52.856,0,0,1-7.184-7.036c11.149-.107,24.963-1.162,40.8-2.219,30.32-2.023,68.049-4.047,108.658.6-26.576-10.515-87.3-4.052-109.324-14.8-14.434,6.306-27.259,9.833-42.258,13.933-5.232-6.3-10.359-13.692-12.477-17.758,14.6,6.448,18.6,8,26.625,10.058-11.216-4.95-27.425-14.025-33.4-26.029s9.7-26.781,32.342-30.827,52.34,2.9,61.083,14.423a147.632,147.632,0,0,1,30.388-8.768c.046.046.106.1.15.146-.026-.052-.057-.107-.083-.159,14.584-2.539,29.689-2.708,40.007,2.448,22.192-9.775,45.673-26.326,59.136-37.294-33.26,18.66-78.749,27.14-107.076,23.678a38.141,38.141,0,0,0-4.793-4.877c-3.411-.513-6.776-1.519-11.267-1.676v0a69.685,69.685,0,0,1,8.62,5.29c-24.469-5.363-31.935-20.433,1.618-37.811a89.692,89.692,0,0,1,20.094-7.565c8.464,1.62,17.948,3.735,28.625,6.453a165.366,165.366,0,0,0-20.088-8.073c24.486-3.393,46.1,4.354,59.094,12.182,43.988-15.046,113.583-37.717,185.576-48.48-79.951,4.692-170.393,19.648-194.384,20.968-15.941-29.618-52.637-42.743-92.1-29.866,17.191-14.937,33.866-29.3,43.233-37.964-7.735,3.675-24.379,17.412-37.535,25.541,35.985-28.445,49.434-51.469,44.015-60.709,21.041-17.27,24.668-44.263,16.108-53.4,1.162-20.322,39.614-36,83.34-46.781,4.353-9,9.19-14.514,26.41-25.64-71.973,32.507-108.248,46.3-137.177,51.469-12.5,2.232-20.063.09-23.031-4.985a291.882,291.882,0,0,1,35.587-26.073c-13.4,4.975-25.26,11.188-36.834,17.674.774-5.353,3.866-11.9,9.186-19.124-17.8,9.868-48.949,28.06-68.491,40.828C976.7,316,965.706,321.378,956.431,324.29a225.787,225.787,0,0,1-47.637,1.92c12.864,2.49,18.021,8.028,18.1,14.748-10.394,9.4-25,19.5-37.939,23.628-19.587-5.225-7.324-33.741,2.177-46.148-6.235-3.628-7.546-12.337-5.224-21.769s10.642-24.379,29.167-43.536c-42.66,34.974-87.065,51.082-93.885,31.055-3.849-11.306,6.1-31.781,19.3-50.283-2.249,2.757-7.254,8.634-11.027,13.278-2.613-2.612-.821-9.726,2.371-16.3s17.22-27.569,26.507-40.146c-8.805,10.159-15.618,16.054-17.222,17.173-.567.4-.174,2.473-.869,5.08-3.531,5.03-18.281,25.928-23.8,32.7-4.321,5.3-7.474,10.919-14.252,19.56.061-.29.124-.59.183-.877-.107.344-.219.71-.327,1.06-1.842,2.342-3.936,4.893-6.408,7.733-11.7,13.447-17.9,6.671-25.345,10.157-2.71,9.579-8.415,19.06-21.379,28.154-13.127,9.209-27.568,9.144-27.521,3.241a108.562,108.562,0,0,1,9.433-15.189c-11.076,12.237-13.387,14.985-14.886,17.718-1.849,3.374-.9,2.521.182,2.259,2.007-.479,2.982,2.341,2.756,7.647-.326,7.9-1.911,16.777-4.476,26.852a28.216,28.216,0,0,0-6.609-8.235c2.8,13.972-11.355,32.333-17.087,36.646,9.8-3.61,15.714-10.741,19.951-15.031-2.69,8.934-5.939,18.694-9.628,29.426-16.541,18.284-35.985,44.262-47.594,76.622,30.087-57.854,74.153-77.494,96.548-81.654-4.036-1.162-7.884-.679-12.749-.2a77.707,77.707,0,0,1-13.179.392c-12.55-.785-12.278-14.7-1.257-29.7,10.842-14.753,33.083-34.9,63.854-45.266-7.865,27.145-16.334,57.65-22.8,83.89,4.2-10.756,14.965-35.068,22.384-41.734-.792-9.927,1.711-26.233,5.157-43.65,3.175-.937,6.428-1.775,9.769-2.483,30.1-6.387,52.071-.1,60.953,15.084a111.152,111.152,0,0,0-8.058,7.855,48.981,48.981,0,0,1,9.166-5.761,33.26,33.26,0,0,1,3.142,12.234c.927,13.4-6.49,30.694-16.755,47.3a49.058,49.058,0,0,1-25.56-9.456c-2.818,3.01-7.209,9.58-9.5,10.911s-14.384,1.735-18.417,1.23c2.475-6.57,6.926-13.754,10.348-20.54-12.8,13.073-37.98,36.85-52.612,42.517-3.211,9.435-9.4,18.4-15.64,22.885s-5.674,7.069-13.9,15.567c11.817-9.9,30.763-27.037,56.752-28.771,27.622-1.838,51.177,9.247,55.735,26.533,3.936,14.932-9.92,34.987-38.687,31.22.748,6.5-8.652,14.53-21.005,18.652-11.653,3.884-34.652,12.938-55.491,27.355,29.788-16.848,69.444-27.634,106.064-19.97,27.909-15.978,70.909-16.985,100.223-7.233a74.2,74.2,0,0,1,8.614,3.442q-7.108,2.34-14.937,4.331c6.635-1.15,12.63-2.038,18.091-2.711,17.477,9.807,16.418,23.307,5.893,34.441-10.54,11.157-36.657,18.923-59.533,14.35,8.863,3.061,9.763,4.632,10.43,5.777,6.607-1.23,22.015,3.872,23.82,12.065,2.474,11.213-23.377,31.97-67.288,21.192,2.028,1.2,5.95,2.527,10.4,4.107,6.927,2.451,15.148,5.506,19.537,9.644,12.285-5.64,33.77-4.446,46.566,2s24.53,23.6,25.313,35.918c15.7,1.669,52.03,13.724,79.42,26.141-22.2-13.32-47.351-25.275-55.325-29.862,49.327,8.559,85.518,17.931,140.238,31.871,20.156,9,42.565,22.581,59.893,39.874-15.217-20.095-40.956-34.5-43.43-47.189M862.054,471.536c-7.31-14.292,22.155-25.112,37.375-23.924,28.71-12,61.606-42.163,76.508-58.562-22.653,14.679-58.924,21.641-73.738,25.311,18.969-18.862,76.409-49.668,91.39-49.861.481-.993,1.012-2.051,1.57-3.146,9.976,1.988,17.167,6.607,20.57,13.4,8.8,17.567-10.643,52.729-42.177,70.966,19.306-6.726,35.5,2.493,26.229,17.489-47.846,7.346-75.505,8.688-83.97,9.947,30.639,2.893,49.5,7.395,20.933,11.374s-67.382,1.3-74.691-12.991" transform="translate(81.383 23.756)" fill="#f13bff"/><path d="M589.843,411.439h-.006c.062,15.06,9.913,44.348,16.556,58.754-6.693-43.518-2.506-88.324,9.1-129.039-14.642,38.132-16.976,63.109-25.651,70.284" transform="translate(73.462 42.49)" fill="#f13bff"/><path d="M1200.753,218.685h0Z" transform="translate(149.548 27.237)" fill="#f13bff"/><path d="M1120.906,795.544h0c4.333,3.522,14.9,15.982,19.775,23.3-4.424-9.389-5.283-13.949-6.774-18.42-4.6-2.033-7.992-2.574-13-4.877" transform="translate(139.604 99.082)" fill="#f13bff"/><path d="M1050.257,693.968c-38.806-1.73-109.007-35.9-128.207-58.008s1.574-30.349,47.673-28.145c-34.7-5.884-72.435-6.685-106.773-4.042a101.392,101.392,0,0,0-31.559-3.248,78.055,78.055,0,0,1,15.922,4.715,357.14,357.14,0,0,0-54.778,10.046c31.948-4.4,56.131-.364,74.273,6.372a11.377,11.377,0,0,1,.774,2.9c4.912.467,14.457,4.912,23.762,10.238,5.948,5.712.3,8.888-12.77,10.694,19.351.878,38.606,4.947,82.947,25.039h0c60.2,27.285,101.328,61.083,161.165,111.833-28.453-27.026-68.269-67.736-72.43-88.4" transform="translate(98.707 74.776)" fill="#f13bff"/><path d="M1187.86,233.269c1.256-2.709,5.15-7,16.612-14.583a267.976,267.976,0,0,0-33.594,15.162,36.632,36.632,0,0,1,16.982-.579" transform="translate(145.827 27.237)" fill="#f13bff"/><path d="M376.023,382c11.357,12.857,9.368,16.632-.49,15.612,12.2,5.544,33.234,31.043,12.882,40.838s-46.561-.063-70.263-13.626a207.462,207.462,0,0,0,41.435,26.525c21.3,10.223,35.07,16.34,48.1,23.185-9.073,0-14.926-1.5-33.25-.883,9.385,4.626,28.046,13.309,41.755,20.611,9.36-1.517,31.538-4.932,59.064,10.233s37.276,42.85,34.01,51.68c19.368-5.795,44.252,3.844,65.229,7.268-13.983-4.173-37.162-13.934-50.67-28.1-14.781-15.5-21.235-31.383-23.016-42.853,25.595,9.752,50.262,16.669,70.753,20.113-38.6-11.912-60.566-30.678-73.723-47.5-14.579-18.645-8.856-21.588,8.513-16.233-15.305-8-29.479-18.284-54.831-46.6,8.053,4.273,16.312,11.543,25.454,18.082-12.193-10.811-29.776-28.488-33.547-37.2a21.329,21.329,0,0,1-4.948,4.094c-40.933-48.786-63.586-96.146-95.524-165.593,14.365,36.518,33.245,90.24,28.283,110.725,19.3,10.066,43.216,33.527,61.942,57.165-10.238,3.018-25.339.331-46.287-11.477-13.906-7.834-35.464-25.453-60.276-49.368-28.072-27.064-50.164-50.454-68.234-84.065,7.838,18.286,11.711,29.9,14.41,39.664C296.968,300.248,359.9,363.75,376.023,382m62.707,16.545c.458,0,.915.024,1.373.057,11.315,15.409,19.857,30.166,22.823,40.524,3.41,11.915,1.362,18.533-5.209,20.6A107.934,107.934,0,0,1,432.742,423.2c-5.24-13.478-6.313-24.688,5.988-24.655" transform="translate(32.181 27.606)" fill="#f13bff"/><path d="M247.845,430.292c4.911,6.294-.875,7.583-14.619,3.505,7.265,6.761,24.438,11.42,44.273,21.141,18.711,9.175,49.208,25.8,91.893,34.89-53.948-19.217-89.676-42.853-103.1-72.746-14.3-.517-65.609-36.227-98.715-85,12.434,27.053,51.12,69.408,62.313,80.5,5.869,5.815,14.564,13.365,17.953,17.71" transform="translate(20.871 41.36)" fill="#f13bff"/><path d="M694.024,812.3c.45,4.728,5.4,10.269,14.853,13.055-8.441-11.48-3.374-34.1,0-40.433-10.8,10.889-10.8,25.129-14.853,27.378" transform="translate(86.437 97.759)" fill="#f13bff"/><path d="M997.259,935.333a380.375,380.375,0,0,1,36.548,54.99c9.531,6.333,11.454,8.622,33.084,39.481-17.592-33.988-42.03-68.612-69.632-94.471" transform="translate(124.204 116.492)" fill="#f13bff"/><path d="M99.124,990.891c30.113-12.686,81.642-44.5,91.228-51.706-15.813,9.766-47.82,27.457-56.929,31.73s-16.673,5.989-34.3,19.975" transform="translate(12.345 116.972)" fill="#f13bff"/><path d="M572.854,906.175c7.834-2.549,13.623-3.807,16.643-1.069-1.887-4.547,2.923-11.1,6.061-21.359-3.942,8.187-13.234,18.962-22.7,22.428" transform="translate(71.346 110.067)" fill="#f13bff"/><path d="M199.093,721.468c1.5,0,8.725-3.474,13.55-5.593-7.585,1.335-21.127,1.66-29.383,1.42,6.315,1.137,14.372,4.129,15.807,4.173Z" transform="translate(22.824 89.159)" fill="#f13bff"/><path d="M437.92,637.965a37.428,37.428,0,0,0,11.576,1.671c13.615,0,28.984-5.65,39.427-11.211-24.034,6.086-39.016-.087-42.958-6.488-8.372,2.977-35.8.615-48.876-2.731,20.543,10.941,44.182,11.1,47.61,14.456s-2.985,4.832-6.779,4.3" transform="translate(49.456 77.12)" fill="#f13bff"/><path d="M717.282,817.321c-1.077-9.907.746-20.653,4.5-27.35s2.155-8.805,6.015-19.982c-6.528,13.964-16.454,37.506-39.276,50.061a79.82,79.82,0,0,1-27.342,9.349c21.845-22.859,32.633-39.461,42.077-41.92h.006c6.309-13.675,9.759-44.381,9.827-60.245-10.985,37.671-30.247,72.6-53.931,102.409-13.648,1.415-25.576-1.932-32.362-10.087-9.88-11.87-5.8-35.9,21.866-44.644-3.423-5.576,1.7-16.825,11.155-25.781,8.92-8.444,25.94-26.371,38.732-48.243-19.876,27.858-51.259,54.393-87.686,62.924-14.267,20.218-40.378,36.17-65.64,44.072,8.742-11.764,20.9-24.881,35.979-40.511,22.719-9.58,51.321-24.906,75.519-49.328-51.719,39.719-99.955,38.895-122.011,33.2,3.167,2.758,6.859,3.948,11.472,5.568a77.594,77.594,0,0,1,12.109,5.213c11.044,6.016,4.917,18.511-11.411,27.45-12.384,6.775-32.267,13.59-55.511,14.7-3.42-5.238-3.486-12.269-.984-19.8,4.839-14.566,25.227-32.642,47.891-38.166-9.326.972-10.806-.072-11.893-.828-5.468,3.908-21.589,5.795-26.687-.868-6.981-9.117,7.674-38.853,52.027-47.644-2.347-.234-6.459.225-11.162.675-7.314.705-16.054,1.411-21.782-.485-8.75,10.3-28.727,18.3-43.049,17.866-8.046-.245-17.215-3.693-24.756-8.588a267.253,267.253,0,0,1,36.145-18.073,372.891,372.891,0,0,1-45.795,9.966,28.112,28.112,0,0,1-3.717-5.159c-12.726,4.365-42.215,8.225-69.266,9.47,8.9-3.539,19.361-8.939,32.643-14.518-67.719,11.549-113.621-9.162-114.312-33.661-.552-19.638,31.929-43.291,68.216-46.491a36.73,36.73,0,0,1-13.953-4.122c5.01-1.1,10.264-2.061,15.691-2.727,12.584,13.966,42.789-12.833,58.456-24.9,9.68-.523,28.255-2.148,37.69-3.374-6.746-.508-17.6-.822-28.206-.82-41.9-11.766-54.109-22.133-60.559-30.317,4.324,6.287,1.112,15.464-13.86,12.325-9.161-1.92-20.98-5.508-39.091-16.44,6.879-8.051,20.161-13.366,35.889-14.169-12.9-3.453-48.177-5.655-60.749-11.786a26.472,26.472,0,0,1-6.324,4.239q-5.636-4.361-11.825-9.416c2.706,3.362,5.879,6.9,9.407,10.509-19.965,8.164-57.221,4.686-89.951-5.42,22.629,9.874,45.694,19.323,71.9,25.825,24.087,5.978,41.858,17.672,38.691,28.423-3.633,12.354-28.6,17.618-47.658,11.728,8.979,5.3,20.694,7.493,31.459,9.021-14.313,4.1-27.066,7.792-35.48,10.489,8.563-.062,29.452-5.479,44.812-7.285-44.635,10.572-66.554,25.755-65.549,36.418-26.368,6.76-41.063,29.691-37.167,41.595-9.642,17.926-51.116,15.88-95.3,7.177-7.748,6.313-14.463,9.271-34.772,12.075,78.968.956,117.675,3.782,146.076,11.326,26.594,7.063,23.565,22.944-.062,35.839,20.3-1.42,56.221-4.744,79.329-8.057,18.285-2.62,34.353-2.111,44.642,1.094-17.936,3.546-37.128,7.132-59.356,11.344,49.844-2.589,99.959-9.979,132.826-14.791,3.97,12.571-14.382,28.27-26.088,34.378,4.121,5.925,1.624,14.37-4.468,21.936s-19.947,17.6-44.833,27.13c31.17-7.972,60.162-9.873,78.464-5.9-13.794,15.053-40.583,35.759-60.9,35.207-15.982,18.238-30.268,43.161-37.834,58.792,23.006-32.008,62.451-59.684,89.739-67.544,10.9-3.139,20.025-3.437,25.514-.652-6.164,9.834-20.2,20.389-35.514,29.048,3.2-1.548,10.224-4.76,15.605-7.374,1.264,3.471-3.365,9.162-9.037,13.771s-27.258,17.709-40.99,25.183c12.273-5.487,20.938-7.951,22.865-8.286.681-.12,1.2-2.168,2.934-4.237,5.327-3.067,27.526-15.772,35.387-19.578,3.3-1.6,6.328-3.416,9.93-5.523a88.507,88.507,0,0,1-7.609,11.428c-24.468,31.748-59.995,36.563-80.774,34.358-33.508,32.226-87,82.185-147.7,122.365,70.477-38.041,146.126-89.819,167.311-101.154,33.8,25.207,86.218,13.135,117.2-38.218,41.866-28.111,67.292-41.48,74.589-46.3-11.667,4.155-21.708,7.266-27.974,8.48,11.293-4.792,14.123-6.174,16.358-7.813,3.1-2.276,1.887-1.9.789-2.124-2-.409-1.71-3.323.662-7.946,22.567-11.89,49.12-19.99,59.571-11.85,12.664,9.863-9.466,32.123-23.764,37.478-20.947,23.013-38.016,64.248-44.592,85.409,14.327-22.878,44.258-44.517,56.132-54.1-9.22,25.111-48.26,77.307-61.754,83.812-.183,11.893-1.735,31.12-9.031,55.283-5.887,5.057-11.944,10.014-17.916,14.573a128.822,128.822,0,0,0,16.6-10.353c-6.192,19.2-15.992,41.283-31.5,65.169,41.487-42.025,50.294-92.146,134.88-125.8-16.231,4.061-23.168-1.7-24.132-11.441,8.391-8.3,19.649-13.678,29.292-11.707v0c-.742-14.654,13.807-39.252,29.324-61.658A49,49,0,0,1,668.1,877.9c1.282-3.919,2.485-11.729,4-13.9s12.3-7.651,16.17-8.9c.534,7-.464,15.393-.7,22.989,6.073-17.256,18.849-49.449,29.714-60.768M336.184,600.37a13.453,13.453,0,0,1-4.394-7.482c4.574.646,8.586,2.192,10.61,5.276-2.052.7-4.112,1.43-6.216,2.205m86.182-28.425c-3.7.016-7.335.072-10.715.173-25.71,15.621-53.84,16.714-74.624,9.885a23.215,23.215,0,0,1,2.122-1.479c14.935-9.172,44.346-14.917,83.216-8.579m-115.21-14.764a19.277,19.277,0,0,1,.513-14.387c14.308,10.41,29.625,19.23,42.9,23.522-8.482,2.683-18.282,5.613-28.5,8.6-7.348-4.84-12.643-10.95-14.916-17.733m64.61,147.225c-4.495.335-8.739.72-12.714,1.222,1.843-.449,3.753-1.041,5.732-1.74,2.337.189,4.669.361,6.982.517m-2.809,14.224q-5.045,1.135-10.092,2.227c3.247-.84,6.639-1.6,10.092-2.227m69.872.807c8.406,1.773,25.336,10.969,31.269,15.519-15.956.326-20.234.607-28.38,2.137,12.258-.252,30.783,1.122,41.27,9.475s2.526,28.373-16.282,41.608a86.111,86.111,0,0,1-20.6,10.382c-31.9-9.99-46.031-30.174-37.721-51.778,3.572-9.283,12.2-18.566,23.066-27.111a31.872,31.872,0,0,1,7.375-.232M411.044,802.9a24.288,24.288,0,0,1-4.064-1.2q2.144.541,4.064,1.2m117.01,30.269A108.626,108.626,0,0,1,516,841.292c-7.65,1.165-7.617-1.482,5.906-10.24,1.433-.929,2.913-1.85,4.423-2.762,1.806,1.514,2.51,3.235,1.728,4.878M628.683,892.26c-6.31,5.009-11.5,7.3-14.591,6.954,7.665-8.37,17.118-15.742,28.133-19.547a146.543,146.543,0,0,1-13.542,12.593" transform="translate(7.278 63.067)" fill="#f13bff"/><path d="M864.5,875.42h0Z" transform="translate(107.67 109.03)" fill="#f13bff"/><path d="M935.507,730.912c-7.305-14.7-20.258-17.739-34.141-23.151,27.238,17.337,21.285,46.007,1.349,44.551h0c11.017,9.935,19.975,19.8,28.833,23.651-2.511-3.7-9.065-10.533-15.06-16.011,13.618,2.506,26.321-14.342,19.016-29.041" transform="translate(112.261 88.149)" fill="#f13bff"/></g></svg>