<?xml version="1.0" encoding="UTF-8"?>
<svg id="_レイヤー_2" data-name="レイヤー 2" xmlns="http://www.w3.org/2000/svg" viewBox="0 0 1875.89 1875.89">
  <defs>
    <style>
      .cls-1 {
        fill: #fff;
      }

      .cls-2 {
        fill: none;
      }

      .cls-3 {
        fill: #fff66b;
      }
    </style>
  </defs>
  <g id="_レイヤー_1-2" data-name="レイヤー 1">
    <g>
      <g>
        <path class="cls-1" d="M937.95,8.64c3.26,13.83,14.17,24.75,28.01,28.01-13.83,3.26-24.75,14.17-28.01,28.01-3.26-13.83-14.17-24.75-28.01-28.01,13.83-3.26,24.75-14.17,28.01-28.01M937.95,0c0,20.24-16.41,36.64-36.64,36.64,20.24,0,36.64,16.41,36.64,36.64,0-20.24,16.41-36.64,36.64-36.64-20.24,0-36.64-16.41-36.64-36.64h0Z"/>
        <path class="cls-1" d="M937.95,1802.61c0,20.24-16.41,36.64-36.64,36.64,20.24,0,36.64,16.41,36.64,36.64,0-20.24,16.41-36.64,36.64-36.64-20.24,0-36.64-16.41-36.64-36.64h0Z"/>
        <g>
          <path class="cls-1" d="M1768.88,586.92c-45.42-107.39-110.44-203.83-193.26-286.65s-179.26-147.84-286.65-193.26c-96.59-40.85-198.41-64.2-303.3-69.63,0,.34-.01.68-.03,1.01,474.62,24.88,853.11,418.84,853.11,899.55s-378.49,874.67-853.11,899.55c.01.34.02.68.03,1.01,104.89-5.43,206.71-28.77,303.3-69.63,107.39-45.42,203.83-110.44,286.65-193.26s147.84-179.26,193.26-286.65c47.02-111.18,70.87-229.28,70.87-351.02s-23.84-239.84-70.87-351.02Z"/>
          <path class="cls-1" d="M890.25,1837.49c-474.62-24.88-853.11-418.84-853.11-899.55S415.63,63.28,890.25,38.4c-.01-.34-.02-.68-.03-1.01-104.89,5.43-206.71,28.77-303.3,69.63-107.39,45.42-203.83,110.44-286.65,193.26-82.82,82.82-147.84,179.26-193.26,286.65-47.02,111.18-70.87,229.28-70.87,351.02s23.84,239.84,70.87,351.02c45.42,107.39,110.44,203.83,193.26,286.65,82.82,82.82,179.26,147.84,286.65,193.26,96.59,40.85,198.41,64.2,303.3,69.63,0-.34.01-.68.03-1.01Z"/>
        </g>
        <path class="cls-3" d="M1856.12,938.05c-9.36,0-16.95-7.59-16.95-16.95,0,9.36-7.59,16.95-16.95,16.95,9.36,0,16.95,7.59,16.95,16.95,0-9.36,7.59-16.95,16.95-16.95Z"/>
        <path class="cls-3" d="M53.6,937.95c-9.36,0-16.95-7.59-16.95-16.95,0,9.36-7.59,16.95-16.95,16.95,9.36,0,16.95,7.59,16.95,16.95,0-9.36,7.59-16.95,16.95-16.95Z"/>
      </g>
      <circle class="cls-2" cx="937.95" cy="937.95" r="937.95"/>
    </g>
  </g>
</svg>