<?xml version="1.0" encoding="UTF-8"?>
<svg id="_レイヤー_2" data-name="レイヤー 2" xmlns="http://www.w3.org/2000/svg" viewBox="0 0 891.13 891.13">
  <defs>
    <style>
      .cls-1 {
        fill: #cf2dff;
      }
    </style>
  </defs>
  <g id="_レイヤー_1-2" data-name="レイヤー 1">
    <g>
      <path class="cls-1" d="M445.57,36.39c20.1,0,36.39-16.29,36.39-36.39h-72.78c0,20.1,16.29,36.39,36.39,36.39Z"/>
      <circle class="cls-1" cx="668.35" cy="668.35" r="36.39" transform="translate(-35.94 1298.71) rotate(-86.83)"/>
      <circle class="cls-1" cx="668.35" cy="445.57" r="36.39" transform="translate(186.5 1088.25) rotate(-86.83)"/>
      <circle class="cls-1" cx="668.35" cy="222.78" r="36.39" transform="translate(-27.06 109.93) rotate(-9.22)"/>
      <circle class="cls-1" cx="445.57" cy="222.78" r="36.39"/>
      <circle class="cls-1" cx="445.57" cy="445.57" r="36.39"/>
      <path class="cls-1" d="M891.13,36.39V0h-36.39c0,20.1,16.29,36.39,36.39,36.39Z"/>
      <path class="cls-1" d="M854.74,445.57c0,20.1,16.29,36.39,36.39,36.39v-72.78c-20.1,0-36.39,16.29-36.39,36.39Z"/>
      <path class="cls-1" d="M854.74,222.78c0,20.1,16.29,36.39,36.39,36.39v-72.78c-20.1,0-36.39,16.29-36.39,36.39Z"/>
      <circle class="cls-1" cx="445.57" cy="668.35" r="36.39"/>
      <path class="cls-1" d="M891.13,704.74v-72.78c-20.1,0-36.39,16.29-36.39,36.39s16.29,36.39,36.39,36.39Z"/>
      <path class="cls-1" d="M668.35,36.39c20.1,0,36.39-16.29,36.39-36.39h-72.78c0,20.1,16.29,36.39,36.39,36.39Z"/>
      <path class="cls-1" d="M668.35,854.74c-20.1,0-36.39,16.29-36.39,36.39h72.78c0-20.1-16.29-36.39-36.39-36.39Z"/>
      <path class="cls-1" d="M222.78,854.74c-20.1,0-36.39,16.29-36.39,36.39h72.78c0-20.1-16.29-36.39-36.39-36.39Z"/>
      <path class="cls-1" d="M0,854.74v36.39h36.39c0-20.1-16.29-36.39-36.39-36.39Z"/>
      <path class="cls-1" d="M0,36.39c20.1,0,36.39-16.29,36.39-36.39H0v36.39Z"/>
      <path class="cls-1" d="M891.13,854.74c-20.1,0-36.39,16.29-36.39,36.39h36.39v-36.39Z"/>
      <path class="cls-1" d="M36.39,668.35c0-20.1-16.29-36.39-36.39-36.39v72.78c20.1,0,36.39-16.29,36.39-36.39Z"/>
      <path class="cls-1" d="M445.57,854.74c-20.1,0-36.39,16.29-36.39,36.39h72.78c0-20.1-16.29-36.39-36.39-36.39Z"/>
      <path class="cls-1" d="M222.78,36.39c20.1,0,36.39-16.29,36.39-36.39h-72.78c0,20.1,16.29,36.39,36.39,36.39Z"/>
      <circle class="cls-1" cx="222.78" cy="445.57" r="36.39" transform="translate(-19.96 10.55) rotate(-2.6)"/>
      <circle class="cls-1" cx="222.78" cy="222.78" r="36.39" transform="translate(-68.3 343.35) rotate(-67.5)"/>
      <path class="cls-1" d="M36.39,445.57c0-20.1-16.29-36.39-36.39-36.39v72.78c20.1,0,36.39-16.29,36.39-36.39Z"/>
      <circle class="cls-1" cx="222.78" cy="668.35" r="36.39" transform="translate(-30.06 10.78) rotate(-2.6)"/>
      <path class="cls-1" d="M0,186.39v72.78c20.1,0,36.39-16.29,36.39-36.39S20.1,186.39,0,186.39Z"/>
    </g>
  </g>
</svg>