<?xml version="1.0" encoding="UTF-8"?>
<svg id="_レイヤー_2" data-name="レイヤー 2" xmlns="http://www.w3.org/2000/svg" viewBox="0 0 1875.89 1875.89">
  <defs>
    <style>
      .cls-1 {
        fill: #fff;
      }

      .cls-2 {
        fill: none;
      }

      .cls-3 {
        fill: #fff66b;
      }
    </style>
  </defs>
  <g id="_レイヤー_1-2" data-name="レイヤー 1">
    <g>
      <g>
        <path class="cls-1" d="M937.95,1766.18c-111.81,0-220.28-21.9-322.39-65.09-98.63-41.72-187.2-101.43-263.26-177.5-76.06-76.06-135.78-164.64-177.5-263.26-43.19-102.11-65.09-210.58-65.09-322.39s21.9-220.28,65.09-322.39c41.72-98.63,101.43-187.2,177.5-263.26,76.06-76.06,164.64-135.78,263.26-177.5,102.11-43.19,210.58-65.09,322.39-65.09s220.28,21.9,322.39,65.09c98.63,41.72,187.2,101.43,263.26,177.5s135.78,164.64,177.5,263.26c43.19,102.11,65.09,210.58,65.09,322.39s-21.9,220.28-65.09,322.39c-41.72,98.63-101.43,187.2-177.5,263.26s-164.64,135.78-263.26,177.5c-102.11,43.19-210.58,65.09-322.39,65.09ZM937.95,110.71c-456.14,0-827.24,371.1-827.24,827.24s371.1,827.24,827.24,827.24,827.24-371.1,827.24-827.24S1394.09,110.71,937.95,110.71Z"/>
        <circle id="_楕円形_23" data-name="楕円形 23" class="cls-1" cx="937.9" cy="110.21" r="3.5"/>
        <circle id="_楕円形_23-2" data-name="楕円形 23" class="cls-1" cx="937.9" cy="1765.68" r="3.5"/>
      </g>
      <circle class="cls-2" cx="937.95" cy="937.95" r="937.95"/>
      <g>
        <path class="cls-1" d="M163,1142.67c10.82-5.77,17.51-17.27,17.18-29.52,5.77,10.82,17.27,17.51,29.52,17.18-10.82,5.77-17.51,17.27-17.18,29.52-5.77-10.82-17.27-17.51-29.52-17.19M155.8,1144.57c16.88-4.46,34.17,5.61,38.63,22.49-4.46-16.88,5.61-34.17,22.49-38.63-16.88,4.46-34.17-5.61-38.63-22.49,4.46,16.88-5.61,34.17-22.49,38.63h0Z"/>
        <path class="cls-1" d="M1658.95,747.52c16.88-4.46,34.17,5.61,38.63,22.49-4.46-16.88,5.61-34.17,22.49-38.63-16.88,4.46-34.17-5.61-38.63-22.49,4.46,16.88-5.61,34.17-22.49,38.63h0Z"/>
        <g>
          <path class="cls-1" d="M462.2,322.4c-79.54,61.53-145.64,136.99-196.46,224.3-50.82,87.3-83.8,182.05-98.02,281.6-12.79,89.54-9.83,179.59,8.75,268.25.28-.07.57-.14.85-.2C93.52,695.09,338.67,292.7,739.52,186.82c400.85-105.88,812.73,122.95,938.02,513.25.28-.08.56-.17.84-.24-27.63-86.27-69.52-166.03-124.87-237.58-61.53-79.54-136.99-145.64-224.3-196.46s-182.05-83.8-281.6-98.02c-103.07-14.72-206.8-8.59-308.32,18.22-101.52,26.82-194.75,72.71-277.1,136.41Z"/>
          <path class="cls-1" d="M1698.54,779.61c83.79,401.25-161.35,803.64-562.2,909.52-400.85,105.88-812.73-122.95-938.02-513.25-.28.08-.56.17-.84.24,27.63,86.27,69.52,166.03,124.87,237.58,61.53,79.54,136.99,145.64,224.3,196.46,87.3,50.82,182.05,83.8,281.6,98.02,103.07,14.72,206.8,8.59,308.32-18.22,101.52-26.82,194.75-72.71,277.1-136.41,79.54-61.53,145.64-136.99,196.46-224.3,50.82-87.3,83.8-182.05,98.02-281.6,12.79-89.55,9.83-179.59-8.75-268.25-.28.07-.57.14-.85.2Z"/>
        </g>
        <path class="cls-3" d="M735.78,172.31c2.06,7.81-2.6,15.81-10.4,17.87,7.81-2.06,15.81,2.6,17.87,10.4-2.06-7.81,2.6-15.81,10.4-17.87-7.81,2.06-15.81-2.6-17.87-10.4Z"/>
        <path class="cls-3" d="M1132.72,1675.41c2.06,7.81-2.6,15.81-10.4,17.87,7.81-2.06,15.81,2.6,17.87,10.4-2.06-7.81,2.6-15.81,10.4-17.87-7.81,2.06-15.81-2.6-17.87-10.4Z"/>
      </g>
    </g>
  </g>
</svg>