<svg xmlns="http://www.w3.org/2000/svg" width="140.823" height="74" viewBox="0 0 140.823 74"><g transform="translate(-1068.794 -9395)"><g transform="translate(1152.45 9395)"><path d="M0,74C16.219,41.563,16.219,32.437,0,0,9.252,18.5,30.762,37,40.014,37,30.762,37,9.252,55.495,0,74" transform="translate(17.152)" fill="#fff"/><path d="M171.662,96.708l-1.973,5.332-1.973-5.332-5.332-1.973,5.332-1.973,1.973-5.332,1.973,5.332,5.332,1.973Z" transform="translate(-162.384 -57.43)" fill="#fff"/></g><path d="M17.316,0h-3.64L5.434-12.454V0H1.794V-18.174h3.64l8.242,12.48v-12.48h3.64Zm8.528-15.21v4.55h6.11v2.886h-6.11v4.81h6.89V0H22.2V-18.174h10.53v2.964ZM48.2,0,44.278-6.11,40.716,0H36.608l5.72-9.152-5.8-9h4.186l3.926,6.084,3.536-6.084h4.108L46.592-9.022,52.39,0ZM68.822-18.148v2.938H63.986V0h-3.64V-15.21H55.51v-2.938Z" transform="translate(1067 9440.521)" fill="#fff"/></g></svg>