<svg xmlns="http://www.w3.org/2000/svg" width="258" height="188" viewBox="0 0 258 188"><g transform="translate(-832 -8808.852)"><path d="M71.848-35.45H80.7L93.611.5H85.144l-2.3-6.65H69.656L67.356.5H58.939ZM92.189-.5,80-34.45H72.552L60.361-.5h6.283l2.3-6.65H83.556l2.3,6.65ZM2.95-35.4H16.3a16.09,16.09,0,0,1,7.12,1.451A10.287,10.287,0,0,1,27.907-29.9,11.376,11.376,0,0,1,29.4-24.1a11.412,11.412,0,0,1-1.385,5.488,10.266,10.266,0,0,1-4.355,4.154A15.651,15.651,0,0,1,16.3-12.9H10.95V.5h-8ZM16.3-13.9a14.679,14.679,0,0,0,6.891-1.442,9.286,9.286,0,0,0,3.945-3.746A10.423,10.423,0,0,0,28.4-24.1a10.39,10.39,0,0,0-1.357-5.3,9.306,9.306,0,0,0-4.063-3.653A15.111,15.111,0,0,0,16.3-34.4H3.95V-.5h6V-13.9ZM35.85-35.4h8V-6.05h11.5V.5H35.85ZM54.35-.5V-5.05H42.85V-34.4h-6V-.5ZM96.376-35.4h9.042L112.6-20.128,119.732-35.4h8.941L116.55-12.028V.5h-8V-12.028ZM112.6-17.772,104.783-34.4H98.024L109.55-12.272V-.5h6V-12.272L127.027-34.4h-6.659ZM9.95-29.7H16a6.738,6.738,0,0,1,4.608,1.4A5.364,5.364,0,0,1,22.2-24.1a5.381,5.381,0,0,1-1.556,4.088A6.561,6.561,0,0,1,16-18.55H9.95ZM16-19.55a5.629,5.629,0,0,0,3.956-1.188A4.37,4.37,0,0,0,21.2-24.1a4.364,4.364,0,0,0-1.258-3.452A5.8,5.8,0,0,0,16-28.7H10.95v9.15Zm60.25-8.83L82-11.75H70.5ZM80.6-12.75,76.25-25.32,71.9-12.75Z" transform="translate(896 8943.643)" fill="#fff"/><rect width="258" height="188" transform="translate(832 8808.852)" fill="none"/></g></svg>