<svg xmlns="http://www.w3.org/2000/svg" width="140.852" height="74" viewBox="0 0 140.852 74"><g transform="translate(-710.45 -9395)"><g transform="translate(695.45 9395)"><path d="M40.014,74C23.8,41.563,23.8,32.437,40.014,0,30.762,18.5,9.252,37,0,37c9.252,0,30.762,18.5,40.014,37" transform="translate(15)" fill="#fff"/><path d="M167.716,96.708l1.973,5.332,1.973-5.332,5.332-1.973-5.332-1.973-1.973-5.332-1.973,5.332-5.332,1.973Z" transform="translate(-104.827 -57.43)" fill="#fff"/></g><path d="M15.028-12.532a5.652,5.652,0,0,1-.689,2.73,5.061,5.061,0,0,1-2.158,2.054,7.85,7.85,0,0,1-3.705.78H5.434V0H1.794V-18.148H8.476a8.075,8.075,0,0,1,3.588.728,5.071,5.071,0,0,1,2.223,2A5.634,5.634,0,0,1,15.028-12.532ZM8.32-9.906a3.154,3.154,0,0,0,2.236-.689,2.539,2.539,0,0,0,.728-1.937q0-2.652-2.964-2.652H5.434v5.278ZM28.262,0l-4-7.072H22.542V0H18.9V-18.148h6.812a7.954,7.954,0,0,1,3.588.741,5.177,5.177,0,0,1,2.223,2,5.464,5.464,0,0,1,.741,2.821,5.4,5.4,0,0,1-1.04,3.237,5.343,5.343,0,0,1-3.094,1.989L32.474,0Zm-5.72-9.8h3.042a3.039,3.039,0,0,0,2.21-.715,2.661,2.661,0,0,0,.728-1.989,2.539,2.539,0,0,0-.728-1.937,3.113,3.113,0,0,0-2.21-.689H22.542ZM40.508-15.21v4.55h6.11v2.886h-6.11v4.81H47.4V0H36.868V-18.174H47.4v2.964ZM68.3-18.148,61.646,0h-4.42L50.57-18.148h3.9l4.992,14.43,4.966-14.43Z" transform="translate(783 9440.521)" fill="#fff"/></g></svg>