<svg xmlns="http://www.w3.org/2000/svg" width="256.852" height="189.248" viewBox="0 0 256.852 189.248"><g transform="translate(-831.5 -8808.109)"><path d="M399.792,128.557a15.707,15.707,0,0,1-5.764-11.23L390.213,52.4c-.43-11.987-14.835-17.668-23.862-9.408L323.8,83.945a29.647,29.647,0,0,1-20.55,8.28H279.192a29.646,29.646,0,0,1-20.55-8.28L216.091,43c-9.027-8.26-23.437-2.579-23.862,9.408l-3.815,64.923a15.707,15.707,0,0,1-5.764,11.23c-11.948,9.774-18.855,21.273-18.855,33.592,0,35.454,57.049,64.2,127.424,64.2s127.429-28.742,127.429-64.2c0-12.319-6.907-23.818-18.855-33.592" transform="translate(668.705 8770.012)" fill="rgba(17,0,35,0.15)"/><path d="M291.219,227.345a239.567,239.567,0,0,1-49.808-5.067,192,192,0,0,1-21.759-5.95,149.235,149.235,0,0,1-18.986-7.893,106.475,106.475,0,0,1-15.707-9.592,70.717,70.717,0,0,1-11.916-11.063,46.537,46.537,0,0,1-7.585-12.317,35.26,35.26,0,0,1-2.662-13.314,36.515,36.515,0,0,1,5.079-18.247,59.123,59.123,0,0,1,14.143-16.12,14.736,14.736,0,0,0,5.4-10.514l3.814-64.912a14.82,14.82,0,0,1,1.412-5.875,14.269,14.269,0,0,1,3.382-4.51,15.054,15.054,0,0,1,4.731-2.868,15.419,15.419,0,0,1,5.487-1.007,15.218,15.218,0,0,1,5.459,1.008,15.915,15.915,0,0,1,5.065,3.153l.018.017,42.551,40.949a28.508,28.508,0,0,0,19.857,8H303.25a28.509,28.509,0,0,0,19.857-8l42.569-40.966a15.916,15.916,0,0,1,5.065-3.153A15.215,15.215,0,0,1,376.2,38.1a15.413,15.413,0,0,1,5.486,1.007,15.056,15.056,0,0,1,4.731,2.869,14.277,14.277,0,0,1,3.382,4.509,14.827,14.827,0,0,1,1.414,5.875l3.814,64.911a14.736,14.736,0,0,0,5.4,10.515,59.122,59.122,0,0,1,14.143,16.12,36.515,36.515,0,0,1,5.079,18.247,35.26,35.26,0,0,1-2.662,13.314A46.537,46.537,0,0,1,409.4,187.78a70.714,70.714,0,0,1-11.917,11.063,106.476,106.476,0,0,1-15.708,9.592,149.237,149.237,0,0,1-18.987,7.893,192.012,192.012,0,0,1-21.759,5.95A239.591,239.591,0,0,1,291.219,227.345ZM206.242,40.1c-6.1,0-12.73,4.325-13.014,12.342v.023l-3.815,64.923a16.74,16.74,0,0,1-6.129,11.946c-12.095,9.895-18.488,21.243-18.488,32.818,0,16.75,13.059,32.553,36.771,44.5,23.93,12.056,55.77,18.7,89.652,18.7s65.726-6.64,89.657-18.7c23.713-11.946,36.772-27.75,36.772-44.5,0-11.575-6.393-22.924-18.488-32.818a16.741,16.741,0,0,1-6.129-11.946L389.214,52.44c-.287-8.016-6.92-12.342-13.015-12.342a13.414,13.414,0,0,0-9.164,3.628L324.493,84.665a30.646,30.646,0,0,1-21.244,8.559H279.192a30.646,30.646,0,0,1-21.243-8.559L215.408,43.726A13.415,13.415,0,0,0,206.242,40.1Z" transform="translate(668.705 8770.012)" fill="#f6f0ff"/></g></svg>