<svg xmlns="http://www.w3.org/2000/svg" xmlns:xlink="http://www.w3.org/1999/xlink" width="117.9" height="56.421" viewBox="0 0 117.9 56.421"><defs><linearGradient id="a" y1="0.71" x2="1" y2="0.71" gradientUnits="objectBoundingBox"><stop offset="0" stop-color="#ff8bf7"/><stop offset="0.5" stop-color="#5685f9"/><stop offset="1" stop-color="#5ff"/></linearGradient><linearGradient id="b" x1="0.5" y1="1" x2="0.5" gradientUnits="objectBoundingBox"><stop offset="0" stop-color="#ffb6fa"/><stop offset="0.5" stop-color="#789fff"/><stop offset="1" stop-color="#b2ffff"/></linearGradient></defs><g transform="translate(-1774.66 -973.58)"><path d="M7.38,0V-20.64h4.11V0ZM.66-17.46v-3.63H18.21v3.63ZM24.03,0V-21.09h4.08V0ZM45.21.3a11.042,11.042,0,0,1-4.29-.825,10.629,10.629,0,0,1-3.465-2.31A10.244,10.244,0,0,1,35.175-6.3a11.326,11.326,0,0,1-.795-4.26,11.326,11.326,0,0,1,.795-4.26,10.086,10.086,0,0,1,2.28-3.45,11,11,0,0,1,3.45-2.31,10.839,10.839,0,0,1,4.305-.84,11.165,11.165,0,0,1,4.44.825,11.011,11.011,0,0,1,3.39,2.265l-2.76,2.76a6.045,6.045,0,0,0-2.13-1.5,7.416,7.416,0,0,0-2.94-.54,7.053,7.053,0,0,0-2.685.5,6.028,6.028,0,0,0-2.115,1.44,6.444,6.444,0,0,0-1.38,2.25,8.242,8.242,0,0,0-.48,2.865,8.207,8.207,0,0,0,.48,2.88,6.471,6.471,0,0,0,1.38,2.235A6.2,6.2,0,0,0,42.525-3.99a6.87,6.87,0,0,0,2.685.51,7.782,7.782,0,0,0,3.045-.54A5.844,5.844,0,0,0,50.4-5.55l2.76,2.76A10.461,10.461,0,0,1,49.74-.51,11.741,11.741,0,0,1,45.21.3ZM71.76,0,62.61-11.01l8.91-10.08h5.1L66.69-10.14l.03-1.89L76.95,0ZM59.01,0V-21.09h4.08V0Zm23.1,0V-21.09h4.08V0Zm3,0V-3.6H96.78V0Zm0-9.03v-3.48H95.73v3.48Zm0-8.46v-3.6H96.63v3.6ZM107.73,0V-20.64h4.11V0Zm-6.72-17.46v-3.63h17.55v3.63Z" transform="translate(1774 995)" fill="url(#a)"/><path d="M-565.231-4709.406c7.467,0,9.955-2.571,9.955-10.288,0,7.717,2.488,10.288,9.955,10.288-7.467,0-9.955,2.571-9.955,10.288C-555.276-4706.835-557.765-4709.406-565.231-4709.406Zm0-20.577c7.467,0,9.955-2.571,9.955-10.289,0,7.717,2.488,10.289,9.955,10.289-7.467,0-9.955,2.571-9.955,10.288C-555.276-4727.412-557.765-4729.983-565.231-4729.983Zm0-20.576c7.467,0,9.955-2.571,9.955-10.289,0,7.717,2.488,10.289,9.955,10.289-7.467,0-9.955,2.571-9.955,10.288C-555.276-4747.988-557.765-4750.559-565.231-4750.559Z" transform="translate(-2897.372 1575.322) rotate(90)" fill="url(#b)"/><path d="M-554.776-4699.118h-1c0-3.863-.628-6.234-2.037-7.69s-3.692-2.1-7.418-2.1v-1c3.726,0,6.014-.647,7.418-2.1s2.037-3.827,2.037-7.69h1c0,3.863.628,6.234,2.037,7.69s3.692,2.1,7.418,2.1v1c-3.727,0-6.014.647-7.418,2.1S-554.776-4702.981-554.776-4699.118Zm-5.761-10.288a7.182,7.182,0,0,1,3.443,1.9,7.5,7.5,0,0,1,1.818,3.479,7.5,7.5,0,0,1,1.818-3.479,7.182,7.182,0,0,1,3.443-1.9,7.182,7.182,0,0,1-3.443-1.9,7.5,7.5,0,0,1-1.818-3.479,7.5,7.5,0,0,1-1.818,3.479A7.182,7.182,0,0,1-560.538-4709.406Zm5.761-10.289h-1c0-3.863-.628-6.234-2.037-7.69s-3.692-2.1-7.418-2.1v-1c3.726,0,6.014-.647,7.418-2.1s2.037-3.828,2.037-7.69-.628-6.234-2.037-7.69-3.692-2.1-7.418-2.1v-1c3.726,0,6.014-.647,7.418-2.1s2.037-3.828,2.037-7.69h1c0,3.863.628,6.235,2.037,7.69s3.692,2.1,7.418,2.1v1c-3.727,0-6.014.647-7.418,2.1s-2.037,3.827-2.037,7.69.628,6.235,2.037,7.69,3.692,2.1,7.418,2.1v1c-3.727,0-6.014.647-7.418,2.1S-554.776-4723.558-554.776-4719.695Zm-5.761-10.288a7.182,7.182,0,0,1,3.443,1.9,7.5,7.5,0,0,1,1.818,3.479,7.5,7.5,0,0,1,1.818-3.479,7.182,7.182,0,0,1,3.443-1.9,7.178,7.178,0,0,1-3.443-1.9,7.5,7.5,0,0,1-1.818-3.478,7.5,7.5,0,0,1-1.818,3.478A7.178,7.178,0,0,1-560.538-4729.983Zm0-20.576a7.182,7.182,0,0,1,3.443,1.9,7.5,7.5,0,0,1,1.818,3.478,7.5,7.5,0,0,1,1.818-3.478,7.181,7.181,0,0,1,3.443-1.9,7.178,7.178,0,0,1-3.443-1.9,7.5,7.5,0,0,1-1.818-3.478,7.5,7.5,0,0,1-1.818,3.478A7.178,7.178,0,0,1-560.537-4750.559Z" transform="translate(-2897.372 1575.322) rotate(90)" fill="rgba(0,0,0,0)"/></g></svg>